<?xml version="1.0" encoding="utf-8"?>
<!-- Generator: Adobe Illustrator 22.1.0, SVG Export Plug-In . SVG Version: 6.00 Build 0)  -->
<svg version="1.1" id="Layer_1" xmlns="http://www.w3.org/2000/svg" xmlns:xlink="http://www.w3.org/1999/xlink" x="0px" y="0px"
	 viewBox="0 0 1920 1080" style="enable-background:new 0 0 1920 1080;" xml:space="preserve">
<style type="text/css">
	.st0{fill:#FEDD01;}
	.st1{fill:#FEDE05;}
</style>
<g>
	<g>
		<path class="st0" d="M797.5,175.9c11.1,5.8,23.1,5.3,35.1,5c5.5-0.1,10.7,1.7,16.2,2.1c13,0.9,24.8-3.2,36.5-7.9
			c6.2-2.5,12.8-2.5,19.1-4.6c7.8-2.6,15.1-6,22.2-9.8c8.2-4.4,17.4-6.5,25.8-10.5c0.6-0.3,1.2-0.5,1.8-0.8c6.7-3,10.7-0.9,10.6,6.6
			c-0.1,20.9,4.4,41.4,5.4,62.3c0.4,8.9,1.8,17.8,1.8,26.7c0,2.2,1,4.1,1.5,6.2c1.4,6,0.5,11.3-4.7,15.1c-4.1,3-3.7,8.2-6.4,12
			c-4.9,7-9.7,13.6-18.7,16c-4.7,1.2-9,4.1-13.7,5.6c-11.1,3.5-22.5,3.9-34,3.9c-3.1,0-6.1,0.1-9.2,1.4c-3.5,1.4-7,0.4-10.7-1.4
			c-5.7-2.7-10.8-8-18.4-4.9c-3.5,1.4-6.8-1.7-9.9-3.2c-8.9-4.4-17.5-9.2-24.9-16.1c-4.4-4.1-9.4-7.3-12.6-12.7
			c-3-5.1-4.9-10.5-5.9-16.2c-0.5-3-1.2-6-1.6-9c-0.3-2.3-0.6-4.2,0.6-6c2.2-3.4,0.3-7.1-0.3-9.9c-1.5-6.9-1.7-13.9-2.6-20.8
			c-0.9-7.4-3.1-14.8-2.1-22.4C798.5,180.4,796.4,178.6,797.5,175.9z"/>
		<path class="st1" d="M997.8,115.5c0.1,4.9-1.9,9,0.7,12.9c1.4,2.1,3,3.6,5.2,2.6c4.3-1.9,3.9,1,4.1,3.4c1,11.4,2.3,22.7,2.9,34.1
			c1,18.2,2.9,36.4,3.4,54.6c0.2,6.5-2,12.3-3.6,18.4c-0.7,2.7-8.5,3.5-11.8,1.2c-3.6-2.5-5.7-6.1-6.4-10.6
			c-2.6-17.1-1.6-34.2-2.2-51.4c-0.3-10.5-0.4-21-0.2-31.6c0.2-7.1-1.3-14.2-2.5-21.3c-0.6-3.7,2-5.4,3.8-7.5
			C992.8,118.7,995,117.6,997.8,115.5z"/>
		<path class="st1" d="M1024.6-1.1c-8.4-0.2-13.5-9.5-9-16.8c8.5-13.6,17.5-26.7,26.6-39.9c6.4-9.3,13.1-18.4,18.9-28.1
			c2.6-4.3,7.8-5.5,12.5-3.2c4.5,2.3,6.2,6.9,4.4,11.7c-5,12.9-12.4,24.5-20.1,36c-7.6,11.4-15.1,22.8-22.6,34.2
			C1032.8-3.3,1029.5-0.7,1024.6-1.1z"/>
		<path class="st1" d="M910.9-79.6c0.1,10.5,0.1,19.5-0.8,28.4c-0.5,4.7-2.2,9-4.6,13c-1.6,2.7-4.5,4.4-7.4,4
			c-3.1-0.4-5.6-2.2-7.2-5.7c-2.3-5-1.9-10-1.9-15c-0.2-17.9,0.6-35.9-0.6-53.8c-0.4-6.5-2.4-12.8-2.4-19.4c0-4.3,1.9-7.6,5.9-8.6
			c4.1-1,8.2-0.6,11,3.5c5,7.4,6.2,15.9,6.9,24.4C910.7-98.6,911.6-88.3,910.9-79.6z"/>
		<path class="st1" d="M808,13.7c0,2.6-0.7,4.7-2.4,6.1c-2.1,1.7-3.3-0.7-4.9-1.5c-1.7-0.8-3.9-1.7-5.5-1.3
			c-4.7,1.1-6.3-1.7-8.4-4.9c-8.2-12.3-13.9-26-21.4-38.7c-3.6-6-7.2-12.1-11-18c-1.9-2.9-1.9-5.6,0.3-8.1c2.3-2.4,5.3-2.7,8.1-1
			c6.5,3.9,11,9.9,15.3,16c6.7,9.5,11.3,20.2,18,29.6c3.6,5,6.9,10,9.9,15.4C807.1,9.5,807.5,11.7,808,13.7z"/>
		<path class="st1" d="M721.5,94.9c-0.9-2.7-0.1-4.9,2.5-5.7c2.4-0.7,4.5-0.2,6.4,2.4c3.9,5.2,9.4,8.8,14.7,12.5
			c4,2.7,7.5,6,10.9,9.4c2.2,2.2,2.9,4.7,1.5,7.1c-1.5,2.5-4.3,2.8-7.1,2.1c-5.6-1.5-10.4-4.6-14.9-8c-4.9-3.7-10.2-7.2-12.8-13.4
			C721.8,99.1,720.7,97.2,721.5,94.9z"/>
		<path class="st1" d="M1086.1,39.1c-0.3,6.6-4.7,10.4-8.9,14c-3.6,3.1-7.2,6.2-11.5,8.6c-3.9,2.1-6.6,1.2-8.9-1.9
			c-2.4-3-2-8,1.3-10c5.6-3.5,10.3-8.3,16.2-11.4c2.8-1.5,5.9-2.2,8.9-2.9C1087.5,34.3,1084.9,38.2,1086.1,39.1z"/>
		<path class="st1" d="M962.6,145.2c4-2.3,7.3-4.2,11.1-6.3C971.8,145.4,968,147.7,962.6,145.2z"/>
	</g>
</g>
</svg>
