<?xml version="1.0" encoding="utf-8"?>
<!-- Generator: Adobe Illustrator 22.1.0, SVG Export Plug-In . SVG Version: 6.00 Build 0)  -->
<svg version="1.1" id="Layer_1" xmlns="http://www.w3.org/2000/svg" xmlns:xlink="http://www.w3.org/1999/xlink" x="0px" y="0px"
	 viewBox="0 0 1920 1080" style="enable-background:new 0 0 1920 1080;" xml:space="preserve">
<style type="text/css">
	.st0{fill:#494949;}
	.st1{fill:#FFDF06;}
</style>
<g>
	<g>
		<path class="st0" d="M1351.5,224c-13.3-1.1-26.5-2.2-39.8-3.4c-16.3-1.5-32.2-5.4-48.3-7.8c-16.3-2.5-30.4,1.3-41.6,14
			c-8.1,9.1-9,27.5-1.9,37.3c2.3,3.2,4.6,4.2,8.3,1.9c6.8-4.3,14.1-7.5,22.1-9c5.5-1.1,11.2-1.9,16.4,1.5c-0.7,3.7-3.8,3.2-6.1,4.1
			c-9.6,3.5-19.7,6.3-26.1,15.3c-1,1.4-2.8,1.6-4.3,2.2c-11.7,4.7-18.3,15-17.7,27.2c0.3,6.4,1.1,7.3,7.1,5.5
			c6.1-1.8,11.9-4.3,17.9-6.4c2.5-0.9,5-1.8,7.6-2.3c2-0.4,4.2,0,4.8,2.4c0.4,1.9-1.2,2.9-2.8,3.5c-8.4,3.2-16.6,7.3-25.2,9.4
			c-20.7,4.9-41.6,9.6-63.1,9.8c-16.8,0.1-32.8-5.3-48.6-10.3c-18.8-5.9-37-12.9-53.9-23.4c-9.2-5.7-14.7-4.5-22,3.8
			c-12.2,14-17.1,38.6-0.8,55.5c18.7,19.4,41.6,30.2,67.9,35.5c38,7.6,74.9,3,111.2-9c29.4-9.7,57.7-22.4,86.3-34.1
			c15.7-6.4,31.4-12.8,47.8-17.4c3.2-0.9,6.3-2.5,9.7-0.9l0.1-0.2c-6,4-12,8.1-18.4,12.4c2.6,2.4,5.5-0.2,7.6,1.6
			c0.8,2.8-1.6,3.4-3.2,3.9c-8.9,3.2-17.1,8.4-27.5,6.6c-4.6-0.8-9.4,3.1-13.4,6c-2.6,1.9-1,5.6-1.3,8.5c-0.1,0.7,0.1,1.4,0,2
			c-3.3,16.8,5.9,25.4,19.6,32.7c29.3,15.6,57.8,12.2,86.3-1c16.6-7.7,26.7-21.6,33.3-38.2c2.8-7,0.2-14.5,0.9-21.8
			c0.6-5.6-0.9-11.4,5.8-14.6c2.8-1.3,0.9-4.2,1-6.4c0.2-4.1,2.8-5,5-2.4c4.6,5.4,9.1,3.2,14.3,1.4c25.3-8.7,51.4-13.7,77.7-17.9
			c39.5-6.3,78.4-15.4,117.5-23.2c47.3-9.5,95-17.1,142.5-25.8c69.8-12.7,139.1-27.3,208.6-41.2c118.5-23.8,235.8-52.9,353.9-78
			c117.5-25,235.2-49.5,353.5-70.4c53.8-9.5,107.7-17.8,161.6-26.6c0,4.7,0,9.3,0,14c-79.6,12.3-159.1,25.7-238.3,40.8
			c-112.5,21.4-224.7,44.7-336.5,69.3c-79,17.4-157.7,36.3-236.9,52.7c-88.7,18.4-177.3,37.3-266.6,52.4
			c-78.5,13.2-156.6,28.4-234.7,43.7c-24.8,4.8-50.1,7.1-74.7,13.3c-9.7,2.4-19.2,5.4-28.8,8.1c-3.7,1-5.3,2.9-5.4,7
			c-0.5,17.8-7.2,33.8-16.5,48.6c-13.9,22-35.2,32.7-59.8,38.1c-10.8,2.4-21.8,2.8-32.8,2.2c-20.5-1-37.8-10.3-53.4-22.5
			c-8.3-6.6-11.5-16.1-10.4-26.8c0.4-3.5,1.4-7.1,0.5-10.8c-4.2,0-7.2,2.3-10.5,3.8c-30.5,13.4-61.1,26.3-94,33.1
			c-35,7.3-69.7,5.9-103.7-4.5c-21.6-6.6-40.5-18.3-56-35.3c-21.7-23.7-13.2-56.1,2.3-72.7c11.4-12.2,22.3-14.1,36.6-5.2
			c26.7,16.5,56.2,25.7,85.9,34.3c6.4,1.9,13.2,1.8,19.9,1.3c11-0.8,21.8-2.8,33.3-5.5c0.1-7.1-1.5-14.4,0.7-21.4
			c2.2-7.2,6.5-13.1,12.7-18.7c-9.4-9.9-11.6-22-11.1-34.9c0.2-4.4,1.1-8.7,3.5-12.4c10.1-15.7,23.4-26.2,43-26.6
			c10.4-0.2,20.6,1.1,30.8,3.1c56.9,10.8,113.6,10.9,170.7-1.1c58.4-12.2,115.9-27.8,173.9-41.4c68.7-16.1,137.7-31.2,206.3-47.4
			c82.3-19.5,164.3-39.8,246.6-59.5C2268.2,9.5,2458.2-34.7,2649-75.5c75.5-16.1,151.2-31.5,227.1-46.1c1.9-0.4,4-0.3,5.9-0.4
			c0,4,0,8,0,12c-29.7,6.1-59.3,12.2-89,18.4c-91.2,19.2-182.3,38.8-273.3,58.8c-187.5,41.3-374.4,85.6-560.9,131
			c-109.6,26.6-219.9,50.6-329.8,75.9c-43.1,9.9-85.8,21.8-129.1,31c-21.8,4.6-43.7,8.9-65.5,13.4c-10.9,1.7-21.8,3.3-32.6,5
			c-10.1,0.3-20.2,0.7-30.3,1C1364.8,224.3,1358.2,224.1,1351.5,224z"/>
		<path class="st0" d="M-312-536c0.8,4.1,4.4,5.6,7.1,8C-165.7-401.8-26.3-275.7,113-149.5C256.3-19.8,399.6,109.9,542.8,239.6
			c1.2,1.1,2.5,2.2,3.7,3.3c3.6,3.1,7,8.9,11.8-2.7c1,12.5-2.1,21.3-1.1,29.8c1.7,1.7,2.7,0.8,3.8,0c2.1-1.5,4.3-2.3,6.1,0.1
			c1.8,2.5,0.3,4.4-1.6,6c-5.9,4.9-8.4,11.8-10.9,18.7c-5.1,14.5-9.5,29-10.1,44.6c-1,25.3,19.3,44.9,43.4,44.7
			c9.8-0.1,19.2-1,28.3-4.8c10.3-4.3,17.1-12,21.2-22.2c0.6-1.6,0.9-3.2,0.6-4.8c-1.7-8.8-16.7-20.6-25.9-20
			c-10.3,0.7-19.1-1-24.6-11c-1.9-3.5-2.8-6.6-1.9-10.4c3.5-13.6,11.2-24,23.6-30.7c1.1-0.6,2.5-1.1,3.8-1.1c0.8,0,1.8,0.7,2.5,1.4
			c0.8,0.8,0.5,2.1-0.2,2.7c-2,1.7-4.2,3.3-6.4,4.8c-7.8,5.3-12.4,12.8-16.1,21.2c-2.6,5.8,0.7,9.8,4.1,13.3
			c3.5,3.7,8.5,3.3,13.2,2.7c1.9-0.2,2-2.3,2.5-3.9c7-22.2,14.3-44.3,21.2-66.6c1.9-6,3-12.3,4.4-18.4c5.5-24.5,13.3-48.1,25.7-70
			c0.3-0.6,0.7-1.2,1-1.7c3.4-6.4,3.4-6.4-2.5-12.2c2.7-0.8,5.6-0.9,7.7-2.3c3.1-2.1,7.7-0.9,9.9-4.1c2.2-3.2-2-5.9-2-9.1
			c0-1.6-0.6-3.5,1.3-4.3c1.9-0.8,3.2,0.6,4.2,1.8c3.7,4.7,7.3,9.5,11,14.2c7.4,9.2,15.8,16.3,28.9,13.7c11.4-2.3,21-17.8,16.4-28.3
			c-5.6-12.7-9.6-26.5-21-35.8c-12.7-10.4-27.1-16.7-43.8-16.6c-3,0-6,0.7-9,0.4c-11.4-1.5-17.7,5.5-23.7,13.4
			c-12.1,15.9-17,34.4-20.5,53.6c-0.8,4.6-1.7,9-3.1,13.5c-2.1,6.3-3.1,12.9-2.5,19.7c0.4,4-0.4,7.6-5.4,7.8c-5,0.1-5.7-3.8-6.2-7.5
			c-0.7-5.7-0.6-11.5,1.6-16.8c2.5-6.1,0.3-9.5-4.3-13.5C548.5,105.6,495.3,58.6,442,11.7c-182.3-160.5-364.7-321.1-547-481.6
			c-22.3-19.6-44.6-39.2-66.7-58.8c-2.4-2.1-5.8-3.5-6.3-7.3c6.7,0,13.3,0,20,0c0,4.5,4.1,5.7,6.7,8
			c90.2,79.6,180.5,159.1,270.8,238.6C279.1-148.9,438.6-8.3,598.2,132.2c4.2,3.7,8.4,7.4,13,11.4c3.4-4.8,3.7-9.5,4.7-13.9
			c4.3-18.6,13.5-34.7,26.1-48.8c5.2-5.9,11.6-8.7,20-9.7c13.5-1.5,26.5-1.5,39.2,3.4c2.5,1,3.6-0.1,4.9-1.8
			c7.4-10.3,17.8-10.5,28.8-8.5c12.8,2.3,24,8,33.3,17.1c3.8,3.7,6.7,4.8,12.1,2.7c16-6.3,31.8-6.5,46.8,3.4
			c2.8,1.8,5.8,3.2,8.7,4.9c18.8,11,27.7,31.6,23,52.8c-1.3,6.1-4.3,11.1-8.2,15.8c-1.5,1.8-3.6,3.2-3.9,5.7
			c-2.5,21.1-12.7,39.7-19.6,59.4c-1.6,4.5-2.2,8.9-1.6,13.5c0.2,1.3,0.2,2.9,1,3.7c6.9,7.2,6.4,16.1,4.9,24.5
			c-5.7,32.6-22.9,57.7-50.9,75.4c-6.8,4.3-14.2,5.2-20.4-0.3c-8.7-7.8-18.2-7-27.2-2.5c-16.7,8.5-34,15.2-51.3,22
			c-4.3,1.7-8.9,2.8-13.3,4.3c-4.2,1.4-8.8,2.1-12.8,0.7c-7.4-2.5-12.9,0.1-17.4,5.3c-14.9,17.3-34.4,21.6-56,20.1
			c-26.3-1.9-46.8-22.9-48-49.8c-1-21.2,4.3-40.9,13.3-59.8c5-10.7,3.6-19.9-5.3-28C425.2,149,308.4,42.7,191.5-63.7
			C21-218.9-149.6-374.1-320.2-529.4c-2.2-2-5-3.5-5.8-6.6C-321.3-536-316.7-536-312-536z M720.1,279.4c-2.1,3.9-3,8.1-3.2,12.5
			c-0.6,4.9-2,9.9,2.7,13.8c6.1,5.2,11.8,10.8,18,15.8c3.7,3,7.8,6.2,13.4,5.7c0.8-8.3,0.2-16.3,2-24.2c4.5-20.2,16-36.4,29.2-51.6
			c4.5-5.2,8.8-10,16.5-9.6c2.4,0.1,5-1.1,7.9-3.7c-10-8.7-20.5-16.1-32.8-20.2c-4.5-1.5-9.6-0.6-13.6,1.6
			c-6.1,3.4-12.6,6.6-17,12.1C731.7,245.5,724,261.6,720.1,279.4z M745.2,156.9c-5.8,8.3-12.1,14.8-21.5,14.7
			c-8-0.1-11.4,3.9-13.7,10.2c-7.5,19.9-14.6,39.9-24.2,59c-1,2.1-1.6,4.4-2.3,6.6c-7.5,25.5-17,50.3-24.5,75.7
			c-3.1,10.2-2.7,20.2-3.1,31.6c25.7-4.8,47-18.5,71.8-25.3c-6.2-5.7-11.5-10.8-17.1-15.4c-4.8-3.9-7-8.5-6.5-14.8
			c2.1-29.1,12.4-55.1,31.4-77.1c5.9-6.9,14-12.3,23.2-15.1c11.1-3.3,21.6-1.7,31.5,4.6c8,5.1,16,10,24.2,16.1
			c7.6-19.2,14.7-37.3,21.9-55.7c-5.7,0-10.3,0.4-14.9-0.1c-8.4-0.9-15.9-4.2-18.1-13.1c-1.3-5.3-4.1-5.6-7.8-4.2
			c-3.9,1.5-8.1,2.2-11.1,6c-2.7,3.5-6.8,5.2-11.1,6.3C762.1,169.8,752.9,166.6,745.2,156.9z M643,345.2c1.3-2.5,1.8-3,1.8-3.6
			c1.5-17.7,6.6-34.5,14.4-50.4c1-2.1,1.5-4.4,2.1-6.7c4.4-17.8,9.7-35.5,17.5-51.9c9.7-20.4,15.4-42.4,27.2-62.5
			c-7.5-4-13.1-9.5-17.8-16c-2.9-4-6.1-3.7-7.6,0.9c-1.9,5.7-4,11.3-7,16.5c-10.5,18-17.4,37.5-22.2,57.5
			c-4.5,18.8-9.6,37.3-16,55.6c-4.1,11.6-7.6,23.4-11.8,35c-1.5,4.1-1.4,6.5,2.6,9.1C632.4,332.8,639,336.8,643,345.2z M763.3,317.4
			c0,1.3,0,2.7,0,4c0.2,4.7,0.4,9.8,5.3,12.1c4.3,2,7.5-1.9,10.6-4.1c19-13.7,31.2-32.3,38.1-54.4c1.7-5.3,2.2-11.1,2-16.8
			c-0.2-3.2-1.4-5.6-4.6-7c-7.9-3.4-18.6-1-24.1,5.8c-6.5,8-12.7,16.2-17.5,25.3C767.1,293.2,763.6,304.9,763.3,317.4z M711,78.9
			c4.8,2.4,8.3,4.8,11.8,7.4c15.2,11.1,20.7,28,27.4,44.3c1.4,3.4,2.3,7,1.8,10.7c-0.9,6.2,1.9,10.3,7.1,12.9
			c5.2,2.6,10.6,2.4,15.2-1c5.6-4,9.8-9.3,9-16.8c-1.5-14.8-1.5-30.3-15.9-40c-0.7-0.5-0.9-1.7-1.5-2.5
			c-10.2-14.1-24.2-21.3-41.5-22.2C719.1,71.4,714.8,73.3,711,78.9z M781.4,94.4c4,5.3,7.3,9.6,8.6,14.7c1.2,4.7,3.2,7.4,8.7,7.3
			c3.3-0.1,6,2.6,8.3,5.1c7.3,8.3,12,17.3,9.2,29.1c-1.6,6.9,0.4,8.7,7.7,9.2c9.8,0.6,19-5.9,22.2-15.2c3.8-11.3-0.4-34.2-15.3-40.7
			c-4.5-2-8.7-4.8-13-7.3C806.6,90,795,90.8,781.4,94.4z M794.8,146.6c3.4,1.1,6.7,2,8.8-0.4c2.5-2.8,1.1-6.3-0.6-9.2
			c-1.8-2.9-3.2-6.4-8.1-8.5C795.4,135.2,795.6,141,794.8,146.6z"/>
		<path class="st0" d="M416,1620c7.4-22.8,14.6-45.6,22.1-68.3c25.4-77.9,46.4-157.1,75.9-233.6c23.3-60.6,44.8-121.8,69.4-181.9
			c18.4-44.9,36.9-89.9,51.4-136.4c5-16.2,12.1-31.7,18-47.6c1.2-3.1,4.8-6.6-1-10c-2.2-1.3-0.1-5.6,1.4-8.2
			c3.9-6.7,8.9-12.6,14.5-17.7c8-7.5,16.8-14.2,25.7-20.5c10.7-7.6,20.2-16.2,29.5-25.3c11.1-10.9,15.8-24.4,17.1-39.4
			c0.7-8,0.6-16,1-24c0.2-3,0.2-5.9,1.5-8.8c6.7-15.8-0.6-29.7-17.3-32.7c-2-0.4-4-0.6-5.9-1.1c-6.9-1.8-9.3-4.9-9.5-12
			c-0.1-4.3,0.3-8.6,1.3-12.9c1.3-5.5,1.9-11.2,1.6-16.9c-0.4-7-2.1-8.4-9.4-8.6c-3.8-0.1-7.2,0.9-10.8,1.9
			c-4.5,1.3-9.1,1.8-13.8,0.7c-13.1-3.1-17.9-9.2-17.4-22.7c0.4-12.8,2.7-25.1,7.8-36.9c12.4-28.5,21.1-58.4,26.2-88.9
			c4.7-27.9,2.2-55.9-13.4-80.9c-4.8-7.7-11-14.3-17.9-20c-8.4-6.9-17.7-7.4-27-2.2c-4,2.2-4.8,6.2-5.6,10.1
			c-4.2,20.8-5.6,41.8-1.1,62.5c6,28.1,4.6,55.4-4,82.8c-7.9,25.4-12.3,51.8-21.6,76.9c-3,8.2-3.8,17.7-12.9,22.6
			c-1.4,0.8-1.9,3.4-2.7,5.2c-5,10.9-9.9,21.8-15.1,32.6c-1.6,3.3-2.7,9-7.9,6.4c-4.6-2.3-1.8-6.9-0.5-10.6
			c1.5-4.3,4.3-8.2,4.8-13.4c-8.9-0.4-15.7,3.1-21.3,9.3c-11.7,12.9-18.1,28.6-23.8,44.6c-4,11.3-6.5,23.1-8.1,35
			c-0.7,5-0.4,9.9,0.5,14.9c1.3,6.3,4.4,11,10.5,13.6c4.3,1.9,8.5,3.9,12.6,6.1c11.6,6.2,14.4,16.2,7.1,27.5
			c-2.5,3.8-3.8,7.6-4.7,11.9c-5.8,26.8-13.8,52.9-24.5,78c-31.1,73.3-63.5,145.9-99.8,216.8c-30.9,60.5-63,120.5-88.1,183.7
			c-31,78.4-66.7,154.7-102.5,230.9c-1.1,2.3-3,4.5-2.5,7.4c-4,0-8,0-12,0c-0.5-4.3,2.2-7.5,3.9-11c25.5-52,48.3-105.3,72.5-157.9
			c7.7-16.6,14.3-33.7,20.9-50.8c14.9-38.2,32.2-75.2,50.3-112c43.1-87.8,89.2-174.2,127.6-264.3c14.5-34,29.3-67.8,39.4-103.5
			c3.5-12.5,6.5-25.1,10.1-37.6c1.2-4.1-0.1-6.4-3.4-8.1c-3-1.5-5.9-3.1-9-4.3c-16.6-6.3-22.3-19.4-21.3-35.7
			c1.2-19.7,5.8-38.9,13.9-56.9c5-11.2,9.8-22.6,17.9-32.2c8.1-9.6,17.7-16,30.7-16.3c6.5-0.2,10.4-3.6,14-9.3
			c12.5-19.6,16.7-41.9,22.2-63.7c4.6-18.1,8.6-36.3,13.8-54.2c6.1-20.8,3.8-41.6-0.3-62.3c-4.6-23-3-45.8,1.3-68.5
			c2-10.6,8.1-16.9,19-20.7c15.5-5.4,27.3-0.8,38.3,9.4c18.5,17.2,28.9,38,32.9,63.3c4.5,28.3-0.2,55-7.5,81.8
			c-5.5,19.9-11.5,39.6-19.7,58.6c-3.9,9-5.5,18.5-6.2,28.1c-0.7,9.3,3.4,13,12.6,10.8c5.9-1.4,11.6-2.9,17.7-2.7
			c12.4,0.4,20.4,8,21.1,20.5c0.4,8-0.3,16-2.2,23.8c-1.1,4.5-0.3,6.6,5.4,7.9c25.1,5.8,35.7,29.4,23.5,51.7
			c-2.4,4.4-3,8.5-2.4,13.3c1.6,13.1,0.3,25.8-4.2,38.3c-2.9,8-7,15.1-12.7,21.3c-9.5,10.3-19.4,20.1-31.1,28
			c-11.4,7.6-21.7,16.5-31.5,26.1c-2.9,2.9-5.1,5.9-5.7,10.1c-0.5,3.3-1.7,6.4-2.9,9.5c-15.6,41.4-28.6,83.7-44.2,125.1
			c-25.8,68.5-53,136.5-78.5,205.1c-25.5,68.7-48.3,138.2-69.9,208.2c-12.8,41.3-25.1,82.8-39.5,123.6c-0.8,2.1-3.2,4.6-0.6,7.2
			C425.3,1620,420.7,1620,416,1620z"/>
		<path class="st0" d="M1537.9,1390c-39.5-35.3-75.8-73.8-111.7-112.7c-48.2-52.1-97.1-103.5-142.8-157.9
			c-28.1-33.4-53.9-68.7-81-102.9c-53.3-67.1-108.6-132.6-170.9-191.6c-31.9-30.2-65.3-59-97.8-88.6c-3.7-3.4-6.6-3.8-11.3-1.7
			c-9,4.1-18.1,2.3-27.2-1.1c-2.2-0.8-6.7-8-7.9,1.3c-0.1,0.8-2.3,0.2-3.4-0.7c-6-5.1-9.7-11.7-12.2-19.1c-5.3-15.9-4-32.3-2.9-48.5
			c0.4-5.6,1.1-11.2,2.7-16.7c2.6-8.6,6.7-15.9,14.8-20.5c5.7-3.3,6-3.3,2.3-9.9c-3.8-6.7-7.8-13.2-8.3-21.2
			c-0.8-13.9,4.1-25.5,14.3-34.8c5.2-4.7,10.8-8.8,16.2-13.4c2.8-2.4,5.6-4.8,8-7.5c6-6.8,6.1-7.8,0.5-15.4
			c-7.5-10.2-15-20.3-22.9-30.2c-17.1-21.2-33.9-42.8-47.6-66.5c-9.7-16.7-13.1-35.6-16.5-54.2c-2.8-15.2,1.7-29.7,8.9-43.3
			c1.9-3.6,4.7-6.5,8-8.8c14.7-10.1,36.8-5.7,46.4,9.2c1.1,1.7,1.8,3.8,3.3,5c7.5,5.9,7.7,14.2,7.5,22.6c-0.1,2.3,0.2,4.7-0.2,7
			c-3.2,21.1,4.2,39.3,14.8,56.7c17.6,28.9,38.5,55.1,62.9,78.6c12.7,12.2,26.6,23.3,36.9,37.9c0.8,1.2,2.2,2.4,3.1,1.3
			c3.2-3.9,4.3,0,5.8,1.4c12.1,11.5,12.8,11.4,20.9-3c0.2-0.3,0.4-0.6,0.5-0.8c9.3-17.3,14.1-19.6,33.3-15.1
			c17,4,31.1,13.4,43.8,24.9c6.5,5.8,11.8,12.6,16.2,20.2c7.5,12.9,8.6,26.6,3.4,40.4c-4.2,11.2-9.5,22-14.5,32.9
			c-9.6,20.6-18.3,41.4-23.7,63.5c-1.3,5.3-0.6,9.5,1.9,14.2c13.3,24.9,30.6,46.8,49.3,67.7c29.1,32.6,60.4,63.1,91.9,93.3
			c75.5,72.2,145.5,149.5,214.6,227.7c63.4,71.6,125.9,144.1,192.3,213c58.8,60.9,117.1,122.3,180.1,179
			c21.8,19.6,45.2,37.4,68.7,54.9c22.4,16.8,44.5,34,64,54.5c-2.5-1.6-5-3.2-7.5-4.9c-25-17.1-50.1-34.2-75-51.5
			c-39.3-27.2-75.1-58.6-109.7-91.5c-96.4-91.7-187.5-188.6-274.9-288.9c-95.9-110.1-194.1-218.1-299.1-319.7
			c-22-21.3-43.5-43.3-63.1-66.9c-12.1-14.6-23.8-29.6-33.2-46.2c-0.8-1.4-1.4-3-4.1-4c-2.7,4.2-1.1,9.3-2.5,14.5
			c-3.4-2.7-4.4-6.4-5.3-9.9c-1.2-4.8-2.2-9.8-2.1-14.8c0.3-8-0.1-15.9-2.9-23.6c-1.3-3.5-1.2-7.2-0.8-10.9c0.4-3.5,1.5-6.8,6-6.4
			c3.4,0.3,3.7-1.9,4.4-4.1c7.1-22.7,18.1-43.6,27.8-65.2c11.2-25,8.9-38.2-11.2-57c-11.8-11-24.9-20.2-41.4-22.7
			c-9.9-1.5-10-1.3-14.7,7.3c-1.9,3.5-4.3,6.8-6.1,10.3c-3.2,6.2-1.6,16,3.5,20.5c7,6.2,14.2,12.1,21.3,18.2c1.7,1.4,4.5,3,3.1,5.5
			c-1.7,3-4.7,1.3-7.2,0.6c-1.3-0.4-2.4-1.1-3.5-1.8c-12.9-8.6-24.7-18.9-32.5-32c-4.3-7.1-8.9-13.7-13.9-20.2
			c-1.9-2.4-3.4-4.5-7.3-3.7c-3,0.6-5.5-2.1-7.9-3.7c-43.9-28.6-78-66.3-103.1-112.2c-8.1-14.7-13.7-30.5-11.8-47.8
			c1.5-14.1-5.2-25.8-10.3-37.9c-2.9-7-9.6-8.5-16.8-8.2c-7.3,0.3-14,1.6-17.6,9c-5.2,10.7-8.8,22-6.5,33.8
			c3.7,18.9,6.4,38.2,16.6,55.2c0.5,0.9,0.8,1.8,1.4,2.6c14.9,19.6,26.6,41.5,42.8,60.2c12.3,14.1,21.4,30.5,31.6,46.1
			c3.6,5.5,2.2,7.5-4.9,7.7c-2.1,0.1-3,0.9-3.9,2.1c-6.1,8.1-14,14.2-21.7,20.6c-3.6,3-6.9,6.3-9.4,10.3c-5.4,8.6-6.4,17.4-1.5,26.5
			c2.7,5,5.7,9.8,8.5,14.7c4.2,7.6,3.1,12.8-5.1,15.9c-11.4,4.4-16.5,12.8-18,24.2c-1.9,13.9-2.7,27.8-2.5,41.9
			c0.1,5.6,3,9.4,6.4,13c8.7,9.2,18.8,14.4,33.1,10.6c-3.2-5.6-7.7-8-12.6-9.9c-3.6-1.4-5.9-3.5-4.6-7.5c1.2-3.9,4.5-4.4,8.2-3.9
			c3.1,0.4,5.8,1.6,8.3,3.3c3.8,2.7,7.7,5.3,11.3,8.3c43,36.9,86.1,73.7,126.5,113.5c55.9,55.1,107.6,114,154.4,176.9
			c62,83.3,128.8,162.3,198.4,239.2c36.2,40.1,73.2,79.4,108.6,120.1C1524.7,1374.3,1531.2,1382.2,1537.9,1390L1537.9,1390z"/>
		<path class="st1" d="M969.9,622.5c-0.2-5.6-2.5-9-3.5-12.8c-0.7-2.9-1.5-5.8,0-8.8c1.6-3.3,4-4.5,7.2-2.6c3.2,1.8,6.5,3.9,8,7.3
			c2.2,4.9,5.3,5.6,10.3,4.6c17.9-3.6,37.1,11,38.7,29.5c0.8,9.5-1.2,18.5-9.6,24.7c-3,2.2-1.5,4.8,0.6,5.3
			c4.9,1.3,9.4,4.6,15.2,2.1c3.6-1.6,5.4,1,4,4.8c-3.8,10.4-10.9,14.9-22,14c-10.7-0.9-11-0.8-8,9.6c4.1,14.5,9.4,28.5,21.6,38.5
			c3.3,2.7,2.7,5.7,0.9,8.9c-2.2,3.7-5.1,2.2-7.8,0.7c-5-2.7-9.8-5.7-14.8-8.3c-9.4-4.9-18.9-9.8-28.5-14.5
			c-11.2-5.5-18.2-14.2-21.4-26.2c-0.7-2.6-1.1-5.3-2.4-7.6c-6.9-12.1-6.2-24.9-3.6-37.8c0.5-2.3,1.2-4.4,2.3-6.5
			c3.6-6.7,3.4-7.5-2.2-12.2c-1.3-1.1-2.6-2.2-4.1-2.8c-2.4-0.9-4.4-2.2-3.4-5c0.9-2.6,2.5-4.8,5.8-4.4
			C958.6,623.5,963.7,620.8,969.9,622.5z"/>
		<path class="st1" d="M848.9,36.8c-1.2-0.3-1.8-0.6-2.4-0.7c-14.5-0.9-11.7-2.6-14.9,10.5c-0.4,1.6-0.8,3.3-1.6,4.7
			c-1.5,3-3.9,4.6-7.3,3.6c-3.3-1-4.9-3.4-4.5-6.9c0.2-2,0.8-3.9,1.2-5.8c5.5-22.7,13.4-44.5,21.9-66.2c1.4-3.7,2.5-8.1,7.9-7.3
			c3.5,0.6,4.5,4.8,2.5,11.2c-3.7,11.7-7.8,23.3-11.4,35.1c-2.4,7.8-1.5,8.4,6.7,8.2c6.6-0.2,10-2.9,12.1-9.2
			c3.4-10.1,8-19.7,13.1-29.1c1.1-2,2.4-4,3.7-5.9c1.1-1.6,2.6-1.8,4.4-1.1c1.4,0.6,1.8,1.9,2,3.2c0.4,2.7-0.6,5.2-1.5,7.7
			c-3,8.1-5.9,16.3-8.8,24.4c-1.1,3-1.9,5.9,2.9,6.5c4.7,0.6,7.3,3.3,6.8,8.1c-0.5,4.7-3.9,8-7.9,7.5c-10.6-1.3-11.6,6.1-13.4,13.1
			c-0.8,3.2-1.4,6.5-2.2,9.7c-0.9,3.7-3.2,6-7.1,5.5c-4.4-0.5-6.2-3.7-5.8-7.9c0.3-3.3,1.3-6.5,2-9.7
			C847.7,43.3,849.3,40.6,848.9,36.8z"/>
		<path class="st1" d="M891.7,45.3c-0.1-2.7,0.7-5.2,1.8-7.7c7.4-16,14.7-32.1,22.1-48.1c1.1-2.4,2.5-4.7,4.1-6.8
			c1.2-1.6,3.1-2.8,5.2-1.8c1.9,0.9,3.1,2.8,2.8,4.9c-0.4,2.6-1.2,5.2-2.1,7.7c-6.4,18.6-15.5,36.1-22.7,54.3
			c-1.2,3.1-3.2,5.2-6.8,4.4C892.4,51.4,891.6,48.6,891.7,45.3z"/>
		<path class="st1" d="M663.5,31.4c-3.6,1.3-5.9-0.4-8.4-1.3c-13.6-4.9-25.4-2.5-35.4,8.1c-1.9,2-3.8,5.9-7.1,3.2
			c-3-2.5-0.1-5.4,1.5-7.8c9.2-13.7,27.8-18.3,42.4-10.5C660.3,25.1,660.3,25.1,663.5,31.4z"/>
		<path class="st1" d="M1085.3,263.2c-4.6-1.4-6.2-4.9-7.6-8.2c-4.7-10.9-8.3-22.5-15.8-32c-0.9-1.1-1.2-2.4-0.1-3.6
			c1.1-1.2,2.4-0.7,3.7-0.4c3.3,1,6.2,2.5,8.3,5.3c7,9.5,11.5,20.1,13.5,31.8c0.2,1.3,0,2.7-0.2,3.9
			C1086.8,260.9,1086.1,261.8,1085.3,263.2z"/>
		<path class="st1" d="M662.2,50.6c-2.8,3.3-7.2,3.7-11.1,4.9c-10.6,3.1-20.9,6.7-27.8,16.1c-1,1.4-2.3,2.5-4.1,1.1
			c-1.4-1.1-2.4-2.5-1.9-4.2c0.6-1.9,1.4-3.9,2.7-5.2c10.8-11.7,23.9-17.4,40-14.9C660.9,48.5,661.8,49,662.2,50.6z"/>
		<path class="st1" d="M1061.3,257.3c-0.7,3.1-2.9,3.2-5.3,2c-4.8-2.3-8.8-5.8-13-9.1c-4.9-3.9-9.5-8.3-16.9-5.6
			c-2.8,1-3.1-1.7-2.6-3.7c0.8-2.8,2.8-4.3,5.8-4.6c4.4-0.5,8.7,0.1,12.6,2.1c6.5,3.4,12,8.2,17,13.5
			C1060.5,253.3,1061.5,255,1061.3,257.3z"/>
		<path class="st1" d="M892.3,76.2c0.1,5.2-2.3,8.3-6.3,8.3c-4.4,0-8.5-5.1-8.4-10.5c0.1-4.4,2.3-6.7,6.6-6.9
			C889.1,66.9,892.2,70.4,892.3,76.2z"/>
		<path class="st0" d="M2195.5,380.4c-0.6,1.6-1.7,2.7-3.6,2.3c-1.9-0.4-2.5-1.9-2.1-3.6c0.3-1.5,1.6-2.2,2.9-2
			C2194.5,377.4,2195.6,378.5,2195.5,380.4z"/>
		<path class="st0" d="M1537.8,1390c0,1.4,0.7,2.1,2.1,2l0.1,0.1C1540.2,1390.6,1539.5,1389.8,1537.8,1390
			C1537.9,1390,1537.8,1390,1537.8,1390z"/>
		<path class="st0" d="M1539.9,1392.1l0.4,0.2c0,0-0.3-0.1-0.3-0.1C1540,1392.2,1539.9,1392.1,1539.9,1392.1z"/>
		<path class="st1" d="M1351.5,224c6.6,0.2,13.2,0.3,19.9,0.5c-4.2,2.7-8.4,5.4-12.5,8.2c-10.7,7.4-16.9,17.8-19.7,30.2
			c-1.1,4.6-3.1,10.1,3.2,13.1c0.4,0.2,0.9,0.8,0.9,1.1c-2.4,9.1,4.6,11.7,10.5,14.8c7.8,4,16.4,5.9,24.8,7.3
			c30.6,5.3,60,4.1,83.1-21.1c2.5-2.7,4.9-5.4,6.6-8.8c3.6-7.3,2.8-11.8-3.2-17.7c-0.9-0.9-2.1-1.6-2.2-3.4
			c6.5-3.7,12.7-2.5,18.3,2.1c4.7,3.9,6.2,11.7,2.7,18.5c-13.4,26.4-34.2,43.6-64.1,46.6c-25.9,2.6-50.8-2.8-75-12.8
			c-17.5-7.2-23-28.8-17.7-42.6C1332.5,246.1,1340.5,234,1351.5,224z"/>
		<path class="st1" d="M1401.7,223.4c10.9-1.7,21.8-3.3,32.6-5c7.9,12.3,0.2,21.2-6.7,30.2c-0.2,1.2,0.3,1.9,1.2,2.5
			c9.3,6.4,10.1,13.5,1.5,20.7c-10.3,8.6-22.9,10.3-35.7,9.1c-6.5-0.6-8.7-4.1-9.4-10.9c-0.8-7.2,4.2-16.2,10.8-19.6
			c6.8-3.4,13.7-6.8,20.5-10.2c1.5-0.7,3.1-1.4,4.3-2.5c4.8-4.2,3.7-10.3-2.3-12.3C1413,223.6,1407.3,223.7,1401.7,223.4z
			 M1398.6,266.8c14.8,4,18.5,3.4,24.5-4.5C1412.4,258,1405.8,259.2,1398.6,266.8z"/>
		<path class="st0" d="M1356.3,328.6l-0.1-0.6c0,0,0.2,0.4,0.3,0.4S1356.3,328.6,1356.3,328.6z"/>
		<path class="st1" d="M617.5,861.7c-12.3-6-12.3-6-7.8-17.9c0.9-2.5,1.7-5,2.8-7.5c2.1-4.7,4-8.8-2.1-12.6c-3-1.9-3.9-6-1.6-9.8
			c2-3.4,4.7-3.3,7.7-2.1c3.8,1.5,5.5-0.2,6.5-3.7c2.2-7.7,5-15.2,6.8-22.9c2.2-9.2,8.6-15.6,13.8-22.9c1.5-2.1,3.8-2.4,6.3-2
			c12.3,1.7,22.2,21,16.4,32.2c-1.5,2.9-2.8,6.3-7.4,4.9c-3.8-1.1-5.6-3.2-5-7.3c0.3-1.6,0.2-3.3-2-5.5
			c-8.1,9.7-15.8,19.3-17.4,32.6c2.9,1.3,6,2.6,8.9,4.1c3,1.6,4.4,3.9,2.8,7.4c-1.6,3.5-3.5,5.5-7.7,4.1c-2.8-0.9-5.7-3.4-8.4-2
			c-3.4,1.8-3.6,6.1-4.9,9.4C622.5,847.1,620.2,854.1,617.5,861.7z"/>
		<path class="st1" d="M669.8,903.1c-1.1,1.2-2.5,1.9-4.1,2c-1.2,0.1-1.9-0.6-1.5-1.7c0.5-1.9,2.1-2.2,3.8-1.9
			C668.8,901.6,669.8,901.8,669.8,903.1z"/>
		<path class="st1" d="M720.1,279.4c3.9-17.8,11.6-33.9,23-48c4.4-5.4,10.9-8.7,17-12.1c4-2.2,9.2-3.1,13.6-1.6
			c12.4,4.2,22.8,11.5,32.8,20.2c-2.8,2.6-5.5,3.8-7.9,3.7c-7.8-0.3-12,4.5-16.5,9.6C769,266.6,757.5,282.8,753,303
			c-1.7,7.9-1.2,15.9-2,24.2c-5.7,0.4-9.7-2.7-13.4-5.7c-6.2-5-12-10.6-18-15.8c-4.7-4-3.3-8.9-2.7-13.8
			C720.5,288.4,719.6,283.7,720.1,279.4z"/>
		<path class="st1" d="M763.3,317.4c0.4-12.5,3.9-24.2,9.7-35.2c4.8-9.1,11.1-17.3,17.5-25.3c5.5-6.8,16.2-9.2,24.1-5.8
			c3.2,1.4,4.4,3.8,4.6,7c0.3,5.7-0.3,11.4-2,16.8c-6.9,22.1-19.1,40.8-38.1,54.4c-3.1,2.2-6.3,6.1-10.6,4.1
			c-4.9-2.2-5.1-7.3-5.3-12.1C763.2,320.1,763.3,318.7,763.3,317.4z"/>
	</g>
</g>
</svg>
