<?xml version="1.0" encoding="utf-8"?>
<!-- Generator: Adobe Illustrator 22.1.0, SVG Export Plug-In . SVG Version: 6.00 Build 0)  -->
<svg version="1.1" id="Layer_1" xmlns="http://www.w3.org/2000/svg" xmlns:xlink="http://www.w3.org/1999/xlink" x="0px" y="0px"
	 viewBox="0 0 1850 1250" style="enable-background:new 0 0 1920 1080;" xml:space="preserve">
<style type="text/css">
	.st0{fill:#403E3E;}
	.st1{fill:#FFDF06;}
</style>
<g>
	<g>
		<path class="st0" d="M1362.3,556.9c-11.1-2.6-22.6-1.3-33.8-2.6c-17.6-2-34.9-5.5-52.3-8.4c-16.1-2.7-30.5,0.3-42,12.8
			c-8.7,9.5-10.2,26.3-3.2,37.1c2.7,4.2,5.4,4.9,9.8,2.1c5.9-3.8,12.4-6.5,19.3-8c6-1.3,12.1-1.8,18.3,0.8c-1.8,3.5-4.2,3.7-6.4,4.4
			c-9.7,3.4-19.7,6.1-26.1,15.2c-0.8,1.2-2.9,1.4-4.4,2.1c-11.9,5.1-18.3,15.9-17.4,28.6c0.3,4.1,1.8,5.2,5.6,4.4
			c5.9-1.2,11.4-3.7,16.9-5.9c3.1-1.2,6.3-2.2,9.5-3.1c2.1-0.6,4.3-0.1,5.1,2c1,2.7-1.7,3.3-3.3,4c-11.1,4.4-22,9.5-34,11.5
			c-16.4,2.7-32.6,6.8-49.3,7.4c-18.4,0.7-35.5-5.1-52.6-10.3c-18.5-5.6-36.4-12.7-52.9-23.1c-8.9-5.7-15.1-4.3-22.1,3.7
			c-12.4,14.2-17.3,38-0.6,55.3c15.4,16,34,26.6,55.4,32.2c46.6,12.4,91.9,6,136.1-11c30.1-11.6,59.8-24.2,89.8-36.2
			c11.6-4.7,23.5-8.8,37.9-12.3c-4.7,7.2-11.5,8.2-15.7,13c2.2,2.2,5.2-0.3,7.2,1.7c0.4,2.9-2.3,3.6-4.2,4.3
			c-8.9,3.3-17.4,8.3-27.7,6.6c-3.9-0.7-7.3,2.8-10.9,4.5c-4.5,2.1-2.2,6.4-2.7,9.8c-0.2,1.3,0.1,2.7-0.2,4
			c-2.6,13.6,4,21.5,15.3,28.2c29.6,17.4,59.1,15.1,88.9,1.5c17-7.8,27.5-21.8,34-38.8c2.6-6.9,0.2-14.5,0.8-21.8
			c0.4-5.4-0.6-10.7,5.6-13.7c2.8-1.3,1.2-4.1,1.3-6.3c0.1-4.3,3.2-4.8,5.1-2.5c4.8,5.5,9.4,2.8,14.4,1.1
			c23.7-7.9,48.2-12.9,72.8-16.9c36.2-5.8,71.9-13.7,107.8-21.1c46.3-9.6,92.9-17.5,139.5-25.6c47.2-8.2,94.2-17.6,141.2-27.1
			c78.6-15.9,157.2-31.9,235.4-49.7c85-19.4,169.9-39.1,255.3-56.6c93.2-19.2,186.4-38.7,280.2-55.3c56.1-9.9,112.2-19.3,168.5-28
			c1.6-0.3,3.3-0.4,4.4-1.8c0,5.3,0,10.7,0,16c-12.4-0.5-24.4,2.7-36.5,4.7c-63.4,10.3-126.7,21.2-189.9,32.9
			c-66.1,12.3-131.9,26.2-197.8,39.5c-112.9,22.7-224.8,49.9-337.4,74.2c-104.1,22.4-208.4,44.2-313.4,62.2
			c-71.2,12.2-142.2,25.2-213,39.7c-25.1,5.1-50.5,8.5-75.8,13c-14.4,2.6-28.5,6.4-42.5,11c-4.1,1.3-5.2,3.3-5.7,7.7
			c-5.7,50.9-35.2,77.1-75.2,85.4c-12.6,2.6-25.2,3.2-37.8,1.8c-18.8-2-34.9-10.7-49.1-22.6c-7.8-6.5-10.7-15.8-9.8-26.1
			c0.3-3.2,1.7-6.5,0.8-9.9c-4.5-0.6-7.8,2-11.3,3.6c-29.2,12.9-58.7,25.1-90.1,32.1c-35.6,7.9-71,6.6-105.7-3.9
			c-20.9-6.3-39.2-17.8-54.5-34c-20.6-21.8-16.3-52.4,0.2-71.9c9.9-11.6,21.7-16.6,38.1-6.3c26.5,16.8,56.1,25.7,85.9,34.1
			c8.4,2.4,17.2,1.3,25.9,0.4c4.3-0.4,8.6-1,12.8-2.2c4.1-1.2,9.3,0.1,12.2-3.3c2.7-3.2,0.1-7.7,0.2-11.6c0.3-9.1,3.5-17,9.8-23.4
			c3-3.1,3.9-4.7,0.8-8.9c-12.9-17.5-10.2-40.4,5.8-55c10.3-9.4,22-14.5,36.3-13.9c9.4,0.4,18.6,1.7,27.7,3.4
			c56.3,10.5,112.3,10.6,168.7-1.2c58-12.2,115.2-27.6,172.8-41.2c65.8-15.4,131.8-29.8,197.5-45.3c71.2-16.8,142.2-34.7,213.5-51.7
			c146.3-34.8,292.6-70,439.4-102.6c96.2-21.3,192.4-42.3,289-62c32.3-6.6,64.7-12.5,97-18.9c3.7-0.7,8-0.3,11-3.6c0,4.7,0,9.3,0,14
			c-21.5,4.6-42.9,9.3-64.4,13.7c-93.6,19.1-186.9,39.3-280.2,59.9c-100.7,22.2-201.3,45-301.7,68.8
			c-120.7,28.7-241.6,57-362.1,86.6c-66.6,16.3-133.8,29.9-200.6,45.3c-48.6,11.2-97,23.5-145.6,34.8c-24.3,5.6-48.9,10.2-73.3,15.3
			c-3.3,0.7-6.5,1.5-9.7,2.3c-10.4,1.5-20.8,3.1-31.2,4.6c-10.6,1.6-21.3,0.3-31.9,1.4C1375,557.2,1368.6,557.1,1362.3,556.9z"/>
		<path class="st0" d="M-286-195c0.1,4.4,4.2,5.6,6.6,7.9c79.2,71.9,158.5,143.7,237.8,215.5c201.3,182.3,402.7,364.5,604,546.8
			c2,1.8,4,3.5,5.9,5.2c3.1-0.3,3.4-4.3,6.9-4.4c0.2,9.1-2.8,18.2-1.5,27.2c1.7,1.1,2.6,0.1,3.6-0.7c2.1-1.5,4.2-2.3,6,0.3
			c1.3,2,0.3,3.6-1.1,5.3c-15.9,20.3-21.1,44-20.9,69.1c0.1,20.7,19.1,37,37.8,38.4c11.2,0.8,21.8,0.2,32.3-4.1
			c10.5-4.3,17.4-11.6,21.5-22c0.6-1.6,1.2-3.1,0.9-4.7c-1.2-8.2-16.3-20.5-24.7-20.3c-3.3,0.1-6.7,0.3-10,0.1
			c-10.6-0.6-22.5-14.4-15.9-27.2c4.8-9.4,10.1-18,19.6-23.3c1.5-0.8,2.9-1.7,4.4-2.3c1.7-0.7,3.3-0.4,4.2,1.4
			c0.8,1.5-0.1,2.6-1.1,3.4c-2.1,1.6-4.4,3-6.5,4.6c-7.3,5.2-11.9,12.5-15,20.7c-1.8,4.8,0,9.6,4.3,13.2c4,3.3,8.8,2.4,13.4,2
			c1.5-0.1,1.4-1.9,1.8-3.2c7.4-23.5,15.2-46.8,22.2-70.4c4.7-15.6,6.7-31.8,12.7-47.2c5.1-13,9.7-26.2,16.9-38.3
			c3.9-6.5,3.6-6.7-2.6-11.9c4.7-1.6,9.1-3.6,13.7-4.7c4.3-1,6-2.3,3.6-6.7c-1.5-2.7-2.3-5.5-0.8-8.6c2.9-1.2,4.1,1.2,5.6,2.8
			c5.8,6.4,10,14.1,16.5,20c4.6,4.2,9.8,7.1,16,7.3c15.8,0.8,28.1-16.1,21.8-30.6c-5.8-13.3-10.5-27.6-23.4-36.4
			c-13.5-9.2-28.1-14.9-44.7-13.8c-1.7,0.1-3.3,1-4.9,0.8c-11.9-1.5-17.9,6.4-24,14.6c-9.1,12.4-14,26.3-17.2,41.1
			c-1.9,8.7-2.8,17.7-5.8,26.2c-1.9,5.3-2.3,11.1-1.9,16.8c0.3,3.9,0,7.6-4.9,8.3c-3.9,0.5-6.3-2.2-6.8-8c-0.4-5-0.7-10.2,1.3-14.8
			c3.2-7.1,0.2-11.2-5.2-15.9c-42-36.6-83.6-73.4-125.4-110.2C278.4,186.9,65.6-0.5-147.1-188c-2-1.8-6.6-2.4-4.9-7c6,0,12,0,18,0
			c0.8,4,4.5,5.5,7.1,7.8C78.9-5.9,284.7,175.4,490.4,356.6c42.8,37.7,85.5,75.3,128.3,112.9c2.7,2.4,4.9,5.5,9.1,6.5
			c2.7-3.9,3-8.6,4-13c4.6-19.3,13.9-35.8,27.6-50.1c4.8-5,10.6-7.4,17.7-7.9c13.3-1,26.6-2.4,39.2,3.5c2.5,1.1,3.6,0,4.9-1.7
			c7.4-9.9,17.3-10.8,28.6-8.5c13.2,2.7,24.5,8.5,33.9,17.9c3.4,3.3,6.2,3.7,10.5,2c16.4-6.6,32.4-6.6,47.7,3.6
			c2.5,1.7,5.1,3.1,7.8,4.4c20.1,9.5,25.7,32.5,23.9,48.8c-0.8,7.1-3.7,13.5-8.5,18.8c-3,3.3-5.6,6.5-4.5,11.5
			c0.5,2.4-0.9,4.5-1.7,6.7c-5.7,15.3-11.2,30.6-17,45.8c-3,7.8-4,15.1,1.8,22.2c2.1,2.6,2.4,6.1,2.5,9.5c0.1,6.7-0.1,13.4-2,19.8
			c-8.1,27.5-23.2,49.9-47.8,65.3c-10.4,6.5-14.2,5.2-24.3-1.7c-6.8-4.7-15.8-5-23-0.9c-13.1,7.4-27.2,12.5-41,18.3
			c-7.3,3.1-14.9,5.6-22.5,8.1c-4.8,1.5-9.8,2.8-14.7,1.1c-6.9-2.4-12.4,0.1-16.5,4.9c-15.4,18.1-35.7,22.5-57.7,20.3
			c-24.7-2.5-44.9-21.7-46.1-50.5c-0.9-21.1,5-40.8,14-59.7c3.9-8.2,2.4-18.8-4.3-24.9C352.6,400.6,145.1,211.8-62.3,22.9
			c-77.4-70.4-154.8-140.8-232.1-211.3c-2.1-1.9-5.1-3.2-5.6-6.6C-295.3-195-290.7-195-286-195z M737.1,606.2
			c-2.2,5.8-5.2,11.4-4.8,17.9c-2,7.6,0.2,13.4,6.9,18c4.4,3,7.8,7.2,12,10.5c4.1,3.3,8.3,6.6,14.3,7c0.5-6.3,0.6-12.2,1.4-18.1
			c2.9-21.7,14.3-39.1,28.1-55.3c5.3-6.2,10.2-12.2,19.5-12.1c1.8,0,4.5-0.4,6.6-3.4c-9.6-8.2-19.8-15.4-31.7-19.8
			c-4.8-1.8-10.4-1.1-14.6,1.4c-6.5,3.9-13.6,7.3-18.3,13.6C747.6,578.2,740.4,591.3,737.1,606.2z M759.9,490.6
			c-5.6,8-12,14.4-21.3,14.2c-7.7-0.2-10.7,3.7-13,9.7c-2.5,6.5-5,13.1-7.5,19.6c-2.7,7.1-4.8,14.6-8.4,21.3
			C699,574.8,694,596.3,687,617c-1.9,5.6-3.6,11.3-5.7,17c-4.8,13.1-9.3,26.2-9.7,40.4c-0.3,13,0,13.3,12.3,9.3
			c19.6-6.2,37.7-16.1,58.8-22.3c-6.2-5.6-11.3-10.7-16.9-15.3c-4.5-3.7-6.3-7.9-6.4-13.8c-0.3-19.3,7-36.4,14.8-53.4
			c6.4-13.8,15.1-25.5,28.5-33.8c12.8-7.9,25.2-9.6,38.5-2.5c7.6,4.1,15,8.7,22,13.7c1.7,1.2,3,3.7,6.1,2.6
			c7-17.8,14-35.7,21.2-53.9c-5.5,0-10.1,0.4-14.7-0.1c-8.7-1-16.4-4.1-18.2-13.9c-0.7-3.8-3-4.7-5.5-3.7c-3.6,1.5-7.6,1.5-10.9,4.2
			C785.3,505,774.9,504.7,759.9,490.6z M659.7,677.4c0.6-3.3,1-5.2,1.2-7.2c1.7-15.6,6.2-30.4,12.9-44.6c1.7-3.6,2.4-7.6,3.6-11.4
			c5.7-17,11.2-34,17.2-50.9c2.7-7.5,7.7-14,10.2-21.6c4.5-13.1,9.1-26.2,16.5-38.7c-9.3-4.2-14.9-12-20.4-18.9
			c-4.4,0.9-4.9,4-6,6.8c-1.9,4.6-3.7,9.3-6.1,13.6c-11.6,20.8-19.1,43.1-24.2,66.2c-2.3,10.1-4.8,20-8.2,29.7
			c-5.8,17-11.3,34.1-17.2,51c-1.4,4-1.7,6.6,2.5,9C648.6,664.7,654.6,669.8,659.7,677.4z M818.1,582.6c-4.6-0.8-9.4,1.7-13.3,7.2
			c-5.2,7.3-11,14.2-15.5,22c-7.3,13-11.7,26.7-11.2,41.8c0.1,4.5,0.5,9,4.5,11.6c4.4,2.8,7.5-1.3,10.5-3.4
			c19.1-13.2,31-31.7,38.2-53.4c1.8-5.3,2.4-11,2.3-16.7c-0.1-5.3-2.5-8-7.6-8.7C824.1,582.9,822.1,582.9,818.1,582.6z M726.5,412.2
			c3.6,2.4,7.2,4.8,10.7,7.2c14.9,10.2,20.5,26.5,27.2,42c2,4.6,2.8,9.4,2.6,14.6c-0.3,6.6,4.5,11.7,11.2,12.7
			c8.3,1.2,18.4-5.1,19.3-13.7c1.5-14.5-0.7-28.5-9.7-40.8c-1.8-2.5-4.9-3-6.6-5.8c-8.7-14-22.2-20.4-37.9-23
			C736.6,404.4,730.8,405.9,726.5,412.2z M796.9,428c2.3,5.1,6,8.7,7.4,13.5c1.4,5,3.3,9.1,9.8,8.7c2.6-0.1,4.9,2,6.7,4
			c7.4,8.5,13.4,17.3,9.9,29.7c-1.8,6.4,0.1,8.3,6.7,9c11.1,1.1,20.7-6,23.5-17.2c3.6-14.5-3.2-30.8-16.1-38.5
			c-2.8-1.7-5.9-3-8.7-4.9C824.2,424.2,811.4,423.4,796.9,428z M809.9,460.9c0,6.2,0,10.4,0,14.6c0,1.8-1.2,4.3,1.5,5
			c2.1,0.6,4.7,1,6.6-0.7c1.8-1.4,1.7-3.6,1.1-5.5C817.7,469.6,814.9,465.8,809.9,460.9z"/>
		<path class="st0" d="M1312,1279c-0.4-4.2-4-6-6.5-8.5c-36.7-36.8-73.5-73.6-110.1-110.4c-18.8-18.9-36.6-38.7-53-59.8
			c-8.5-11-16-22.7-23.6-36.2c-2.9,6.7-1.9,12.5-3,17.4c-6.4-7.5-6.9-17.3-7.3-27c-0.3-7-0.1-13.9-2.5-20.7
			c-1.4-4.1-1.6-8.5-0.8-12.8c0.5-2.8,1.7-5.7,4.8-5.3c3.8,0.5,4.6-1.5,5.4-4.2c6.2-20.1,15.6-38.9,24.4-57.9
			c2.8-6,5.6-12.1,7.9-18.3c3.8-10.3,2.6-20.2-3.3-29.6c-10.8-17.4-26.8-28.4-45.3-36.2c-4.2-1.8-9-2.3-13.7-2.4
			c-3.7-0.1-6.3,0.7-7.9,4.5c-1.5,3.7-3.7,7.1-5.8,10.5c-5.7,9.5-4.8,17.8,3.1,24.9c6.7,6,13.7,11.6,20.6,17.5
			c1.5,1.3,3.4,2.9,2.2,5c-1.2,2.1-3.5,1.6-5.4,0.8c-2.2-0.9-4.3-1.9-6.2-3.2c-12.2-8.3-22.3-18.9-31.6-30.4
			c-2.8-3.5-1.6-8.5-5.3-11.6c-6-5.1-9.3-13.7-19-14c-1.5,0-2.9-1.5-4.3-2.4c-44.2-28.8-78.4-66.8-103.4-113.1
			c-7.4-13.8-12.8-28.7-10.8-45c1.7-14-5.2-25.7-10-37.9c-2.1-5.3-6.7-8.2-12.6-8.4c-17-0.6-20,2.4-25,15.6
			c-4.1,10.9-5.1,21.8-2.3,33.3c3.9,16.1,6.2,32.8,14.9,47.4c0.5,0.9,0.9,1.8,1.4,2.6c14.3,19.6,26.3,40.9,42.1,59.4
			c12.4,14.5,21.9,31,32.2,46.9c3.6,5.5,2.4,7-4.9,7.6c-1.4,0.1-2.6,0.3-3.4,1.5c-7.1,9.9-17.4,16.4-26,24.7
			c-3.9,3.7-7.1,8-8.6,13.2c-1.9,6.6-2,13.2,1.5,19.4c3,5.2,6.2,10.3,9,15.5c3.7,6.7,2.5,12.3-4.4,14.7
			c-13.9,4.8-18.2,15.5-19.5,28.5c-1.1,10.6-2,21.2-2,31.9c0.1,14.4,10.9,27.6,25.2,30c4.5,0.7,9.1,1,14.3-1
			c-3.5-5.2-8-7.7-12.9-9.6c-3.5-1.4-5.8-3.6-4.5-7.6c1.3-4.1,4.8-4,8.3-3.7c3.1,0.3,5.8,1.7,8.2,3.4c4.3,3.1,8.8,6.1,12.8,9.6
			c45.5,39.6,91.5,78.6,134.1,121.4c32.9,33.1,63.5,68.3,93.6,103.9c1.4,1.7,3.8,3,2.6,5.9c-6,0-12,0-18,0c2.1-3.3-1.1-4.7-2.5-6.3
			c-40.4-47.1-81.6-93.4-127.9-134.8c-26.3-23.6-52.6-47.1-78.8-70.9c-4.3-3.9-7.5-5.7-13.6-2.6c-8.1,4-17,2.2-25.2-1.3
			c-2.7-1.2-5.2-2.7-7.6-4c-3.6,1.4,0.7,4.3-2,6.2c-7.7-5.1-11.9-12.8-14.8-21.4c-5.1-15.6-3.7-31.6-2.7-47.6c0.1-1.3,0.5-2.6,0.6-4
			c1.5-15.7,6.4-29.3,22-35.9c-0.9-4.5-3.1-7.5-5-10.6c-11.4-18.1-6.3-39,8.6-52.4c3.5-3.1,7.2-6,10.8-8.9c2.8-2.3,5.8-4.5,8.5-7
			c10.6-9.5,10.7-11.2,2.5-22.8c-6.6-9.2-13.6-18-20.6-26.9c-16.7-21.1-33.8-42.1-46.9-65.7c-10.8-19.5-15.7-40.9-17.1-63
			c-0.8-12.2,3.9-23.5,9.5-34.2c9.8-18.6,45.4-17.7,52.8-1.1c1.8,4.1,4.4,8.2,8.2,11.2c2.8,2.2,3.2,5.7,3.2,9.1
			c0.1,5.7,0.8,11.4,0,17c-2.8,20,4.1,37.4,14,54c16.4,27.3,35.6,52.3,58.4,74.6c8.3,8.1,16.9,16.1,25.2,24.2
			c4.8,4.7,9.7,9.1,13.6,14.6c0.6,0.8,1.3,2.2,1.9,2.2c8.6-0.1,12.3,7.6,18.4,11.5c3.4,2.2,4.8,0.8,6.4-1.5c3.4-5,6.5-10.1,8.8-15.7
			c3-7.3,8-10.3,16.2-10.4c23.1-0.3,40.5,11.6,57,25.4c6.6,5.6,11.9,12.5,16.4,20c7.7,12.9,8.6,26.4,3.9,40.4
			c-4,11.7-9.7,22.6-15,33.8c-9.2,19.6-17.4,39.6-22.9,60.6c-1.6,6.2-1,11.3,2.1,17c11.3,20.2,24.8,38.6,39.8,56.2
			c29,34,61.7,64.6,93.2,96.1c22.4,22.4,45.1,44.5,67.6,66.7c2.6,2.5,5.6,4.8,7,8.3C1325.3,1279,1318.7,1279,1312,1279z"/>
		<path class="st0" d="M670,1279c-1.3-2.8,3.2-6.9-2.7-9.1c-2.3-0.8-0.1-4.9,1.1-7.1c3.8-7.1,9.2-13.2,15-18.6
			c8-7.4,16.8-14.2,25.7-20.6c9.8-7,18.6-15.1,27.4-23.2c12.3-11.4,17.4-25.7,18.8-41.7c0.6-6.3,0.4-12.7,0.7-19
			c0.3-5.2,0.5-10,3.1-15.2c5.7-11.2-3.3-26.5-16.1-29.5c-19.1-4.5-20.2-6.1-16.7-25.7c1-5.9,2.2-11.8,1.7-17.8
			c-0.4-5.7-2.4-7.5-8.1-7.9c-4.4-0.3-8.6,0.8-12.7,2.1c-8.3,2.7-15.8,0.4-22.9-3.8c-6.1-3.6-8-9.7-7.7-16.3
			c0.5-12,1.9-23.9,6.7-35.1c12.3-28.9,20.5-59.1,27.2-89.7c1.2-5.6,1.9-11.1,1.9-16.8c0.1-14.1-1.7-27.9-4.5-41.7
			c-3.8-18.6-15.4-32.1-28.9-44.4c-8.3-7.6-17.2-5.3-26.1-1.8c-3.9,1.5-4.7,5.3-5.5,9c-4.2,19.4-4.8,39-2.2,58.6
			c0.7,5.3,1.9,10.5,2.8,15.7c3.5,21,2.5,41.6-3.6,62.2c-8.7,29-14,58.9-24.4,87.5c-2.7,7.3-3.6,15.6-11.8,19.9
			c-1.7,0.9-2.3,3.9-3.3,6c-5,10.9-9.9,21.8-15,32.7c-1.5,3.1-2.7,8-7.5,5.8c-4.4-2-2.5-6.2-1-9.6c1.9-4.6,3.8-9.2,6-14.5
			c-9.5-0.4-16.3,3.3-22.3,9.7c-8.9,9.4-13.9,21.2-18.9,32.7c-7.2,16.6-11.6,34-12.5,52.1c-0.6,11.5,3.5,20.1,15,24.2
			c3.1,1.1,6.1,2.7,9,4.3c10.7,5.9,13.9,15.7,7.3,26c-3.2,5-4.8,10.1-5.8,15.7c-2.3,12.1-6.3,23.8-9.7,35.6c-0.9,3-3.4,5.9-1.4,9.3
			c-4,0-8,0-12,0c-0.4-3.1,1.1-5.9,2.2-8.6c7.2-19,11.1-39,16.8-58.5c1.3-4.3,0.4-7-3.6-8.9c-4.2-2-8.4-4.1-12.6-6.1
			c-10.8-5-15.7-14-16.9-25.3c-0.9-8.3,0.4-16.5,1.8-24.8c3.7-21.6,11.2-41.8,21.9-60.7c6.7-11.7,14.9-22.2,28.9-25.9
			c0.3-0.1,0.6-0.3,0.9-0.3c22.2,1.3,27.4-16.7,32.4-31.5c11.7-34.3,18.6-70,27.5-105.2c4.2-16.7,1.5-33.9-2-50.5
			c-4.9-23.3-3.5-46.4,0.8-69.4c2.1-11,8.2-17.5,19.6-21.3c15.7-5.3,27.2,0,38,10c19.2,17.7,28.8,39.7,32.6,65.5
			c3.8,26.2-0.8,50.9-7.5,75.8c-5.4,20.3-11.4,40.3-19.8,59.6c-3.9,9-5.6,18.5-6.5,28.1c-1,9.6,3.6,13.7,13,11.4
			c5.2-1.3,10.3-2.6,15.7-2.6c14.2,0,22.2,7.9,22.8,22c0.3,7.1-1,13.9-2.1,20.8c-1.1,7-1.1,7,5.8,8.9c19.7,5.3,29.9,20.8,26.7,40.6
			c-0.4,2.3-0.7,4.9-2,6.6c-5.3,7-4.7,14.8-4.2,22.8c1.6,24-6,44.4-23.7,61.1c-7.5,7.1-15,14.2-23.5,20.1
			c-11.3,7.8-21.7,16.5-31.6,26c-5.9,5.7-7.9,12.5-7.3,20.4C676.7,1279,673.3,1279,670,1279z"/>
		<path class="st1" d="M863.6,371.7c-1.2-1.7-2.5-1.7-3.9-1.9c-13.4-1.1-10.4-2.4-13.7,9.5c-0.5,1.9-1,3.9-1.8,5.7
			c-1.3,3.2-4,4.5-7.3,3.6c-3.3-0.9-4.9-3.4-4.6-6.8c0.2-2,1-3.9,1.4-5.8c5.4-22.4,13.3-43.9,21.5-65.4c0.4-0.9,0.6-1.9,1.1-2.8
			c1.4-2.8,3.1-5.6,6.7-4.6c4.1,1.2,4.4,4.6,3.3,8.1c-2.9,9.5-6,19-9,28.6c-1.7,5.4-3.4,10.7-5.1,15.7c1.6,2,3.4,1.5,5,1.7
			c8.9,1,14.1-2.4,16.8-11.4c2.7-9.2,7.1-17.9,11.8-26.4c1.1-2,2.3-4,3.7-5.9c1-1.3,2.4-2.4,4.2-1.5c1.7,0.8,2.1,2.4,2.2,4.1
			c0.2,3.1-1.1,5.9-2.1,8.7c-3.3,9.1-6.6,18.1-9.7,26.8c1.7,2.4,4,1.8,5.8,2.3c3.2,0.9,5.3,3,5.5,6.3c0.2,3.6-1.4,6.5-4.8,8
			c-1.5,0.7-3.2,1.5-4.8,1.4c-7.3-0.9-9.7,3.3-10.8,9.4c-0.7,4.2-2,8.4-3,12.6c-1,4.2-3.7,6.3-8,5.5c-4.1-0.8-5-3.9-4.9-7.6
			C859.6,383.3,862.6,377.5,863.6,371.7z"/>
		<path class="st1" d="M905.6,379.5c-0.1-2.9,0.7-5.4,1.8-7.8c7.4-16,14.7-32,22.1-48c1.1-2.4,2.6-4.6,4.2-6.8
			c1.3-1.7,3.3-2.4,5.3-1.4c2,1,2.7,3,2.4,5c-0.4,2.3-1.2,4.5-2,6.7c-6.5,18.5-15.3,36.1-22.7,54.2c-1.2,3.1-3.1,5.3-6.7,4.6
			C906.7,385.4,905.3,382.7,905.6,379.5z"/>
		<path class="st1" d="M1073.1,551.5c7.1-0.1,11.2,2.5,14.2,6.7c6.1,8.5,9.8,18,12.1,28.1c0.4,1.9,0.5,4,0.1,5.9
			c-0.6,3.1-2.6,3.6-5,1.6c-0.7-0.6-1.4-1.5-1.8-2.4c-2.2-4.5-4.3-8.9-6.4-13.5c-1.9-4.2-3.8-8.4-5.5-12.7
			C1079,560.7,1074.7,557.5,1073.1,551.5z"/>
		<path class="st1" d="M678.6,365.5c-3.1,0.8-5.8-0.7-8.5-1.7c-13.3-4.6-24.8-2.1-34.5,8.3c-1.8,1.9-3.5,6.2-7,3.1
			c-3-2.6-0.1-5.5,1.5-7.8c9.5-13.6,27-17.9,41.5-10.5C676,359.2,676.5,359.8,678.6,365.5z"/>
		<path class="st1" d="M678.3,383.8c-2.4,3.3-6.1,4-9.5,4.9c-11.4,3.1-22.3,6.8-29.9,16.7c-0.9,1.2-2.1,1.7-3.5,1.1
			c-1.7-0.7-2.6-2.2-2.4-4c0.1-1.3,0.7-2.5,1.4-3.7C641.7,386.2,664.5,378.3,678.3,383.8z"/>
		<path class="st1" d="M1042.7,576.1c-3.4,1.1-5.6,2-6.2-1c-0.4-2.1,0.8-4.1,2.6-5c4-2.3,8.5-1.9,12.6-0.4
			c8.7,3.1,15.2,9.3,21.2,16.1c1.4,1.6,2,3.7,0.7,5.5c-2,2.8-4.3,0.8-6-0.4c-4.4-3-8.6-6.3-12.8-9.5
			C1050.7,578.4,1046.7,575.5,1042.7,576.1z"/>
		<path class="st1" d="M906.2,412.4c0,1.9-1.3,5.2-5.9,5.7c-4.2,0.4-8.7-5.2-8.6-10.4c0.1-4.6,2.1-6.7,6.8-6.8
			C903.5,400.9,906.4,404.4,906.2,412.4z"/>
		<path class="st0" d="M2197.5,714.7c-1.9-0.1-3-1.1-3.1-3c-0.1-2,1.3-2.8,3.2-2.8c1.4,0,2.5,0.8,2.6,2.3
			C2200.3,713.1,2199.4,714.3,2197.5,714.7z"/>
		<path class="st1" d="M1362.3,556.9c6.4,0.2,12.7,0.3,19.1,0.5c-4.1,2.8-8.4,5.4-12.4,8.3c-11.7,8.5-18,20.3-19.7,34.5
			c-0.3,2.5-2.3,7.4,4,6.7c2-0.2,2.2,1.6,1.3,2.6c-3.5,4.2,0.1,6.8,2.1,9.4c1.4,1.8,3.5,3.2,5.6,4c25.2,10.6,51.1,14.2,78,7.4
			c12.7-3.2,22.7-10.9,31.6-20.1c10.9-11.3,10.9-18.5-0.1-29.8c7.4-2.3,14-2.7,19.8,2.7c4.6,4.4,5.6,12.2,1.5,19.5
			c-15.5,28-38.4,44.5-71.3,45.2c-23,0.5-45-4-65.9-13.6c-17-7.7-24.1-25.8-17.2-43.3C1343.8,577.9,1351.4,566.2,1362.3,556.9z"/>
		<path class="st1" d="M1413.2,556c10.4-1.5,20.8-3.1,31.2-4.6c4.6,6.4,4.1,12.9,0.5,19.6c-2.2,4.1-5.3,7.6-8.4,11
			c0.6,0.5,1,1,1.6,1.4c10.4,6.1,11.2,14.1,1.5,21.6c-9.7,7.4-21.4,9-33.1,8.6c-7.5-0.3-12.3-6.3-10.9-13.6
			c1.3-6.9,3.5-14,11.5-17.3c7.3-3,14.3-7.1,21.4-10.6c4-2,6.4-4.9,5.5-9.5c-0.8-4-4.5-4.6-7.7-5.2
			C1421.9,556.6,1417.5,556.4,1413.2,556z M1408,599.7c9.9,2.7,18.6,3.5,26.1-4C1424.2,590.1,1417,591.1,1408,599.7z"/>
		<path class="st1" d="M982.2,952.1c1.1-5.6-1.5-9.1-2.4-12.9c-0.6-2.6-1.3-5.1-0.2-7.8c1.6-4,4.3-5.3,7.8-3
			c3.3,2.2,6.9,4.2,8.4,8.2c1.4,3.7,3.9,5.3,7.7,3.7c9.5-4,17.4-0.3,25.1,5c8.8,6,14.1,14.4,15.2,24.7c0.9,9.1-1.3,17.9-9.4,23.7
			c-3.9,2.8-1.5,5.4,0.5,5.7c4.9,0.9,9.4,4.7,15.1,1.9c3-1.5,4.9,1,3.9,4.3c-2.5,8.5-11.1,14.8-19.8,14.4c-1.7-0.1-3.3-0.3-5-0.4
			c-5.9-0.2-7.1,1-5.9,6.9c1.2,5.5,2.4,11.1,5.1,16.1c4.8,9.1,8.4,18.9,17.2,25.3c3.5,2.5,2.5,5.8,0.5,8.8c-2.1,3.1-4.4,1.5-7,0.6
			c-5.8-2-10.1-6.3-15.5-8.9c-9.6-4.6-18.9-9.8-28.4-14.4c-9.2-4.4-15.4-11.4-18.8-20.9c-2.7-7.5-5.4-15-8-22.5
			c-4.1-12.1-1-23.7,3.5-34.7c1.9-4.7,2.1-7.1-1.9-9.9c-1.6-1.1-3.1-2.5-4.7-3.6c-2-1.4-5.3-1.7-4-5.6c1.1-3.7,3.6-4.1,6.9-4
			C973,953.1,977.4,950.1,982.2,952.1z"/>
		<path class="st1" d="M737.1,606.2c3.3-14.9,10.4-28,19.4-40.1c4.7-6.4,11.8-9.7,18.3-13.6c4.1-2.5,9.8-3.2,14.6-1.4
			c11.9,4.4,22.1,11.6,31.7,19.8c-2.1,3-4.9,3.5-6.6,3.4c-9.3-0.2-14.2,5.9-19.5,12.1c-13.9,16.2-25.2,33.6-28.1,55.3
			c-0.8,5.9-0.9,11.8-1.4,18.1c-6-0.4-10.2-3.7-14.3-7c-4.2-3.3-7.6-7.6-12-10.5c-6.7-4.6-8.9-10.4-6.9-18
			C735.8,618.6,735.5,612.1,737.1,606.2z"/>
		<path class="st1" d="M818.1,582.6c4,0.2,6,0.3,7.9,0.5c5.1,0.6,7.6,3.4,7.6,8.7c0.1,5.7-0.6,11.4-2.3,16.7
			c-7.2,21.7-19.1,40.2-38.2,53.4c-3,2.1-6.1,6.2-10.5,3.4c-4-2.6-4.4-7.1-4.5-11.6c-0.4-15.1,3.9-28.9,11.2-41.8
			c4.4-7.8,10.3-14.7,15.5-22C808.7,584.3,813.5,581.9,818.1,582.6z"/>
		<path class="st1" d="M669.2,1111.9c-10.1,10.5-16.9,20.8-19.2,33.9c3.1,1.4,6.1,2.7,9,4.2c3.8,2,3.7,5,2.1,8.5
			c-1.6,3.5-3.9,3.7-7.3,2.7c-9.1-2.6-9.2-2.5-12.7,6.8c-2.7,7.1-5.2,14.3-7.6,21c-3.4,0.4-5-1.6-7.1-2.5c-4.4-1.9-4.7-4.8-2.9-8.8
			c2.3-5.2,4.1-10.6,6.1-15.8c1.3-3.2,2.4-6.2-2-8.2c-2.1-1-3.2-3.4-3.8-5.7c-1.1-4.6,2.6-9.3,6.9-7.8c6.1,2.1,7.6-1.1,8.9-5.6
			c1.4-4.8,3.4-9.5,4.2-14.3c1.8-10.6,7.5-19,13.9-27.2c2.3-2.9,4.6-4.5,8.5-3.7c11.6,2.5,21.1,20.4,16,31c-1.5,3-2.6,7.2-7.8,5.7
			c-4.5-1.3-5.6-4.1-4.7-8.3C669.9,1116.6,669.5,1115.2,669.2,1111.9z"/>
		<path class="st1" d="M684.6,1230.8c-0.5,1.1-1.2,1.6-2.3,1.6c-1.1,0-2-0.6-1.8-1.8c0.2-1.1,1.2-1.4,2.2-1.3
			C683.7,1229.5,684.8,1229.5,684.6,1230.8z"/>
	</g>
</g>
</svg>
