<?xml version="1.0" encoding="utf-8"?>
<!-- Generator: Adobe Illustrator 22.1.0, SVG Export Plug-In . SVG Version: 6.00 Build 0)  -->
<svg version="1.1" id="Layer_1" xmlns="http://www.w3.org/2000/svg" xmlns:xlink="http://www.w3.org/1999/xlink" x="0px" y="0px"
	 viewBox="0 -130 1920 1350" style="enable-background:new 0 0 1920 1080;" xml:space="preserve">
<style type="text/css">
	.st-map-0{fill:#444444;}
	.st-map-1{fill:#FEDD01;}
</style>
<g>
	<g>
		<path class="st-map-0" d="M1055.3,902.5c1.7,7.1-1.7,13.6-2.1,20.5c-0.8,13.6-2.9,27.1-4.3,40.7c-0.5,5.1,0.2,5.5,5.2,3.4
			c8.3-3.5,16.8-5.6,25.7-2.6c1.5,0.5,2.6-0.2,3.8-0.7c15.5-6.2,24.6-2.4,29.9,13.3c2.3,6.8,4.4,13,9.1,19c8,10,5.8,24.6-3.5,33.6
			c-3.1,3-6.5,5.7-9.9,8.3c-11.1,8.7-23.3,9.7-36.3,5.1c-5.2-1.8-7.3-0.4-7.9,5.1c-0.2,1.6-0.4,3.3-0.7,4.9
			c-0.4,2.1-1.4,3.9-3.9,3.8c-2.5-0.1-3.6-2-3.5-4.1c0.1-3.8-1.4-4.6-5-4.1c-5,0.7-9.9-0.4-14.9-2.7c0,5.5,0.1,10.3,0,15.1
			c-0.1,3.6-1.2,6.9-3.8,9.5c-1.9,1.9-3.3,1.9-4.2-1c-1.4-4.7-1.1-9.6-1.2-14.4c-0.1-4,0-8,0-12.2c-2.6,1.3-5.5,4.2-8,1.2
			c-2.6-3.1,0.5-5.8,2.1-8.4c1.1-1.7,2.2-3.4,3-5.2c1-2.5-0.8-4.5-2-6.4c-1.1-1.7-2.8-0.6-4,0c-1.3,0.6-2.3,2.5-3.8,1
			c-1.5-1.4-1.1-3.4-0.4-5.1c3.3-8.6,1.3-16.7-2.3-24.6c-1.5-3.2-3.6-4.7-8-2.7c-4.7,2.2-2.9-3.4-4.3-5.3c0,0-0.1,0.1-0.1,0.1
			c1.4,0.7,1.3-0.2,1.1-1.1l0,0.1c10.8-3.3,19.3,0.9,19.3,10.3c0,4.3,1.3,7.9,2.3,11.9c0.7,2.9,1.9,5.3,4,7.3
			c4.3,4,6.2,9.7,9.8,14.3c5.2,6.6,11.4,8.6,19.2,5.3c2-0.8,3.9-1.8,5.7-3c4.7-3,9.1-3.5,14.5-1.2c8.7,3.8,17.5,3.5,25.5-2.7
			c2.8-2.1,5.7-4.1,8.3-6.5c7.7-6.9,9.1-13.7,5.1-23.5c-1.8,2-3.4,4.1-5.3,5.9c-1.2,1.1-2.7,2.2-4.5,1.3c-1.8-0.9-2-2.6-1.8-4.3
			c0.2-2,0.4-4,1.1-5.9c2.7-6.9,1.4-13.4-1.6-19.8c-2.4-5.1-5.2-6.8-10.4-5c-6.5,2.3-12.7,4.2-19.7,1.5c-1.8-0.7-4.3,0-6.4,0.2
			c-2,0.2-3.9,0.4-3.5,3.5c0.2,1.7-1,3.6-2.9,4.2c-2.3,0.8-2.7-1.2-3.4-2.7c-0.7-1.6-2.1-1.6-3.4-1.2c-3.8,1.2-7.1,2.2-11.2-0.2
			c-3.4-2-9.3,2.4-10.7,6.9c-0.6,1.7-0.7,3.6-1.1,5.4c-0.5,1.9-1.3,3.6-3.5,3.6c-2.2-0.1-3-1.8-3.6-3.6c-1.8-6,1.9-14.9,8.7-17.9
			c4.3-1.9,4.9-4.4,5.1-8.6c0.5-15.2,3.4-30.1,5.9-45c0.3-1.8,0.4-3.6,0.8-6.6c-12.3,8.4-25.6,11.7-38.8,13.1
			c-18,1.8-35.6,6.5-53.8,7.2c-10.8,0.5-21.5,1.3-32.3,0.6c-2.4-0.2-5.1,0-7.4,0.8c-19.1,6.2-38.9,4.5-58.4,5
			c-3.7,0.1-9.4,0.5-9-5.2c0.3-4.9,5.7-3.4,9.1-3.6c12.8-0.8,25.6-1.2,38.4-1.8c4.5-0.2,8.9-1.3,13.2-2.7c7.1-2.2,14.3-2.5,21.7-1.8
			c14.7,1.4,29.3,0.2,43.6-2.8c11.5-2.4,23.2-2.2,34.6-4.8c11.2-2.5,22.6-4.1,32.5-10.8c2.9-1.9,6.6-1.5,10.2-3.2
			c-13.1-4-19.9-15.6-30.6-22c-6.6-3.9-12.7-8.5-20.2-10.6c-7.2-1.9-13-5.8-17.7-11.5c-0.9-1.1-1.6-3.1-3.3-2.5
			c-1.7,0.6-1.8,2.6-2,4.3c-0.8,6.6-0.6,13.3-2.9,19.7c6.4,1.6,8.4,5.9,4.7,11.4c-5.8,8.6-12.9,15.2-23.9,17.3
			c-13.9,2.7-27.7,5.6-42,5.8c-4.2,0-8.2-0.5-12.3-1.7c-9.6-2.7-19.5-2.1-29.3-2.2c-11.1-0.2-20.7-4.2-29.8-10.3
			c-1-0.6-1.8-1.5-2.7-2.2c-2.2-1.9-3.3-4.1-2.2-7.1c1.1-3.2,3.7-2.8,6.2-2.6c9.3,6.8,19.9,9.8,31.3,9.8c9.1,0,18.4-0.6,27.3,1.8
			c7.1,2,14.3,1.2,21.3,1c9.3-0.2,18.3-3,27.5-4.4c8.8-1.3,13.8-7.2,19.6-12.8c-5-1.7-5.7-2.8-5.3-7.9c0.5-6,1.2-11.9,1.8-17.9
			c1.2-11.4,2.4-22.7,3.7-34.6c-1.5,0.6-2.4,1-3.3,1.3c-9.2,2.8-17.5,8.1-27.2,9.5c-15.5,2.1-30.9,5.1-46.8,4.1
			c-11.6-0.7-23.2-2.3-34.7-3.5c-8.7-0.9-17.1-3.3-24.5-10.4c0.2,4.1,0.1,6.8,0.6,9.4c2,11.8,4.2,23.6,6.2,35.4
			c0.9,5.1,2.3,10.1,0.4,15.3c-2.8,2.8-4.7,1.1-6.4-1.4c-2.6-4-3.5-8.6-4.3-13.2c-2.2-12.5-4.2-24.9-6-37.5
			c-0.4-2.4-1.4-2.8-3.4-3.2c-5.9-1-11.9-0.8-17.4,0.5c-11.5,2.6-23.3,0.9-34.8,2.7c-16.1,2.5-32,5.6-47.9,9.6
			c-25.7,6.5-48.3,20.3-73.5,28c-31.4,9.5-61.2,23.4-91.1,36.8c-19.3,8.7-39.1,17.6-55.6,31.2c-22.6,18.6-45.6,36.8-62.9,61
			c-6.4,8.9-9.7,19-12.3,29.3c-2,8,1.6,15.4,5.4,22.3c7.3,13.3,18.4,22.7,30.1,32.2c13.2,10.7,29.1,16.7,42.7,26.6
			c5,3.6,11.1,5.3,16.9,7.3c1.6,0.6,2.4,0.7,3.4-1.3c6.6-13.1,16.8-17.9,31.2-14.9c1.1,0.2,2.2,0.8,3.3,0.1
			c-2.2-8.5-2.2-8.5,1.4-17.6c-11.2-0.1-20.1-5.5-27.7-12.9c-6-5.9-11.8-12.1-14.7-20.4c-0.8-2.2,0-2.5,1.7-3.6
			c4.9-3.1,8.4-2.5,12.5,1.7c12.1,12.4,27.9,17.7,44.3,21.5c1.9,0.4,3.2-0.6,4.7-1.2c7.4-2.9,14.3-1.9,20.8,2.6
			c1.7,1.2,3,2.6,3.9,4.4c0.9,1.7,0.6,3.2-0.5,4.6c-1.1,1.3-2.7,1.4-4.1,0.8c-2.6-1.1-5-2.6-7.6-3.8c-6.1-2.9-13.2,0.1-15.3,6.5
			c-1.1,3.3-3.1,5.7-6.5,4.5c-4.4-1.7-6.2,1.3-6,3.9c0.8,8.7-5.1,10.5-11.2,12.5c-3.5,1.1-7,2.2-10.3,3.7c-9.2,4-11.9,10-9.9,19.9
			c2.5,12.1,8.9,19.7,21.7,21.1c5.5,0.6,10.8,1.8,16.3,2.6c3.5,0.5,6.7,1.7,9.9,4.2c-2.7,1.8-5.6,2.2-8.4,2.5
			c-10.6,1.1-21,0.5-30.9-3.6c-8.7-3.7-15.4-9.3-16.8-19.4c-0.4-3.1-2.1-5-5.3-5.8c-19.7-5-35.9-17.4-53-27.4
			c-13.5-7.9-26.4-17.9-37.6-31.2c0,6.2,0,11.3,0,16.3c0,3.4,0.1,7.9-3,9c-4,1.4-8.8,3.1-13.3,0.6c-2.9-1.6-4.5-3.9-2.9-6.9
			c1.8-3.3,4.1-2.3,6.4,0.1c1.4,1.5,3.8,2.2,5.5,1.5c1.5-0.6,0.5-3,0.5-4.6c0.3-6.6,0.1-13.4,2.8-19.6c1.3-2.9-1.8-3.9-2.5-6
			c-1.8,7.6,2.2,16.3-4.3,23.4c-1.9-2.6-2.9-5.3-3.2-8.2c-0.9-8.1-1.9-16.3,1.7-24.1c0.4-0.9,0.3-1.6-0.1-2.4
			c-7.1-14.4-3.4-28.2,2.2-41.9c3.1-7.7,3-7.7-3.8-12.4c-3.6-2.6-7.4-3-11.3-1c-9.8,5-18.5,11.9-27.9,17.6c-2.9,1.8-0.1,2.6,0.7,3.6
			c3.4,3.9,3.3,6-1,8.8c-2.6,1.7-0.1,2.6,0.4,2.9c1,0.7,3.6-0.6,3,2.3c-0.5,2.1-2.2,4.1-4,4c-4.2-0.2-7,2.5-10.5,3.7
			c-4.3,1.5-8.7,2.4-13.2,1.1c-3.2-0.9-5.5-2.9-4.7-6.5c0.5-2.3,2.3-4.9,4.9-2.6c3.7,3.3,6.7,0.7,10.3-0.3c-5.8-1.6-5.4-6-5.3-10.3
			c0.1-0.3,0.3-0.6,0.4-0.9c-0.6-0.3-0.6,0.2-0.7,0.5c-3.6,2.4-6.9,5.1-9.3,8.8c-0.7,1.1-1.6,2.3-3.2,1.5c-1.6-0.9-1.7-2.4-1.2-3.9
			c0.3-0.9,0.8-1.9,1.5-2.6c3.8-4.1,8-7.8,11.6-12.2c2.1-2.6,5.3-4.1,9-2.6c1.3,0.5,2.2,0,3.2-0.8c3.5-2.6,7-5,10.9-7.8
			c-1.9-0.8-3.5-1.4-5-2.1c-1.8-0.9-2.7-2.6-2-4.6c0.6-2,2.2-2.4,4-1.9c4.1,1.3,8.7-1.6,12.6,1.5c0.2,0.2,1.1-0.1,1.2-0.3
			c0.6-1,0.2-2.1-0.5-2.7c-2.5-2.4-5.2-4.7-9.1-4.3c-1.8,0.2-4.2,0.6-4.1-2.1c0-2.3,2.2-3.4,4.3-3.4c5.7,0.1,11,1.8,14,7
			c1.1,1.9,1.7,1.9,3.2,1c10-5.7,19.1-4.3,27.3,3.8c1.7,1.7,2.9,2.3,4.4-0.3c4.9-8,11.3-14.9,18.2-21.1c2.8-2.5,2.4-4-0.2-6.2
			c-2.9-2.3-5.6-4.7-9-6.2c-3.9-1.7-8-2.3-11.5,0.2c-5.6,4-11.8,7.6-15.2,14c-1.6,3.1-5,3.5-7.3,3.2c-7.7-1.3-15.5,0.7-23.2-0.6
			c-6.4-1.1-12.6-2.9-19-4.3c-3.3-0.7-3-3.5-3.4-6.4c-4.7,4.4-9.5,2.9-13.8,0.4c-11-6.2-23-9.6-35.1-12.6c-4.2-1-5-0.2-4.1,4.1
			c0.9,4.4,3.5,8,6.3,11.2c11.6,13.3,24.4,24.9,40.9,31.9c0.3,0.1,0.5,0.4,0.7,0.7c-6.5,0.2-17.5-2.2-23.5-5.6
			c-12-6.7-21.6-16-28.5-28c-2.9-5.1-4.2-10.5-1.9-16.8c-2.9,0.9-5.5,1.4-7-1.6c-0.4-0.9-1.2-0.9-2.1-0.6c-9.5,3.1-19.4,5-27.8,10.7
			c-2.2,1.5-3.5,4.7-7,3.7c0.6-0.9-0.2-1-0.7-1.3c-1.4-3.7,1.1-5.6,3.7-7.3c9.1-5.9,19.1-9.2,29.8-10.6c1.9-0.2,4,0.1,5.7-1.4
			c3.8-3.4,8.3-3,12.8-2.2c4.3,0.8,8.4,2,12.7,2.7c14.6,2.5,27.7,9.3,40.1,16.5c7,4,13.4,7.5,21.3,8.1c7,0.5,14.2-1.5,20.9-0.5
			c9.6,1.5,10.7-7.8,16.5-10.7c1-0.5,1.8-1.4,2.8-2.1c8-5.3,16.2-5.5,24.5-0.8c2.6,1.5,5.2,3.2,7.2,5.4c3.1,3.6,5.1,2.5,8.3-0.1
			c10.9-8.8,20.1-19.5,31.5-27.7c18.5-13.3,38.9-23,59.2-33c7.3-3.6,10.5-6.8,11.5-15.7c2.1-18.9,0.7-37.6-0.2-56.4
			c-1.1-23-6.6-45.4-10-68.2c-3-20.1-11.3-38.2-26.6-52.4c-5.5-5.1-11.2-10.5-19-11.3c-16.5-1.7-31.3,2.4-43.7,14
			c-2.5,2.4-5.3,4.6-7.8,7c-12,11.6-22.5,24.4-27,40.8c-3.4,12.5-7.5,24.8-9.6,37.7c-2.7,17.4-4.6,35-8.7,52.2
			c-0.7,2.9-1.8,5.3-5.1,4.9c-3-0.4-3.8-2.8-3.8-5.6c0-0.8-0.1-1.7,0-2.5c2-26.5,3.8-53,10.8-79c5-18.3,12.1-34.9,24.9-48.8
			c13.1-14.3,26.6-28.1,46.7-32.6c15.5-3.4,30.3-3.5,43.7,6.7c20.6,15.7,32.3,36.8,37.7,61.7c3.4,15.5,4.3,31.3,6.6,47
			c4.2,28.3,5.6,56.7,1.6,85.1c-0.2,1.7,0,3.4,0,5.4c11.3-4,21.8-8.7,32.3-13.3c1.9-0.9,2.3-1.8,1.7-3.8
			c-6.9-20.8-9.8-42.4-12.4-64.1c-3.2-26.4-5.4-53-9.8-79.3c-2.4-14.3-5.6-28.5-4.1-43.1c0.7-6.6,2.2-9.4,8.8-10.9
			c8.9-2,17.1-6.6,26.4-7.3c2.6-0.2,2.9-1,1.8-3.4c-3.3-7.5-6.5-15-9.4-22.6c-1.4-3.6-3.6-5.7-7-7.2c-5.5-2.3-11-4.8-16.3-7.5
			c-10.9-5.6-20.5-4.6-30,3.2c-6.3,5.2-12.3,10.7-19.5,14.8c-7.3,4.2-14.5,4.4-21.8,0.1c-2.6-1.5-5-3.2-7.5-4.9
			c-1.1-0.8-2-1.8-3,0.2c-5.6,11-16.4,12.1-26.5,12.5c-20.3,0.9-40.6-0.3-60.9,1.2c-13.5,1-27-0.4-40.5-0.3c-2,0-3.7-0.1-4.9,2.4
			c-7.2,14.6-14.6,29.2-21.9,43.8c-10.3,20.7-16.8,42.7-23.1,64.8c-0.6,2,0.3,2.7,1.4,3.7c21,19,36.3,42.5,50.8,66.4
			c3.9,6.4,6.6,13.5,10,20.4c-3.3-2.8-5.8-6.4-9.1-9c-12.7-10.5-22.9-23.2-32.6-36.4c-6.8-9.3-13.6-18.5-21.9-26.6
			c-5.2-5.1-10.7-9.9-17.7-12.7c-13.3-5.3-26.1-1.9-37.6,3.9c-16.2,8.1-29.8,20.3-40,35.4c-14.8,21.9-25.4,46-35.2,70.4
			c-3,7.5-5.6,15.3-7.9,23.1c-0.9,3-1,6.2-4.1,7.7c18.5,13.1,33.5,27.9,33.9,52.7c12.6-6.1,25.3-5.5,37.9,0.2c0.5,0.1,1,0.2,1.5,0.3
			c7.6,4.6,15.4,9,22.9,13.9c12.2,7.9,24.2,16,34.4,26.4c2.6,2.6,6.8,5.8,3.9,9.6c-3,4.1-6.6-0.1-9.5-1.7
			c-12.8-7.3-23.6-17.4-36.1-25c-5.4-3.3-11-6.4-16-10.1c-4.6-3.5-9.5-3.5-14.8-3c-3.4,0.4-4.4,2.7-4.7,5.5
			c-0.5,4.4,1.4,8.1,3.5,11.8c6.7,11.3,16.1,20.3,25.5,29.3c6.2,5.9,12.6,11.3,21.6,12.4c1.4,0.2,2.9,0.9,4.2,1.6
			c1.2,0.6,2.3,1.6,2,3.2c-0.3,1.5-1.4,2.1-2.8,2.5c-28.2,8.2-45.4,27.5-55.1,54.4c-2.4,6.7-4.7,13.5-7.1,20.2
			c-0.9,2.4-0.6,3.8,1.9,5.1c10,5.3,20.2,8.5,31.9,8.6c22,0.2,43.9,1.2,65.9,0.6c6.8-0.2,13.1-1.4,19.6-3c9.2-2.3,18.5-4.5,28-2
			c2.2,0.6,2.4-0.9,2.9-2.3c3.2-8,8.1-14.9,15.1-20.1c1.9-1.4,4.3-4.5,6.8-1.8c2.2,2.4-0.8,4.6-2.3,6.3c-3.8,4.4-7.8,8.7-11,13.6
			c-0.8,1.3-2.5,2.4-1.1,4.4c0.4,0.6,0.7,1.7-0.7,1.6c-4.9-0.1-4.8,4.5-6.7,7.2c-0.7,1-0.2,1.8,1.2,2c11.4,1.1,21.6,6.6,32.9,8.3
			c16.4,2.4,32.9,1.9,49.4,1.3c14.1-0.5,28.3-1.7,42.4,0.6c3.8,0.6,7.5,1.7,10.5,4.2c1.3,1,1.9,3.2,4.3,1.4c1.8-1.4,5.1-1.3,4.3-4.9
			c-0.1-0.7,0.1-1.5,0.3-3.6c2.1,6.3,5.7,10.3,7.3,17.1c-4.5-4.6-8.4-3-12.3-1.1c-0.9,0.4-3,0.4-3.3-0.1c-3-5.1-6.6-1.5-9.9-0.9
			c-14,2.4-28.1,3.5-42.2,3.8c-17.1,0.4-34.3,1.2-51.4-1.5c-13.2-2.1-25.3-8.3-38.3-11.2c-1.9-0.4-3.8-1.6-4-3.4
			c-0.7-4.5-3.1-3.9-6.6-3.5c-8.5,0.9-16.3,5.1-24.8,5.5c-27,1.4-53.9,0.9-80.8-1c-14.2-1-26.7-6.7-38.1-14.8
			c-6.5-4.7-6.8-9.1-5.4-17.4c1.1-6.6,2.7-12.9,5.2-19.1c0-0.4,0.1-0.8,0.1-1.2c-0.4,0.1-0.8,0.2-1.2,0.2
			c-19.3,3.9-38.6,7.4-58.2,8.9c-18.7,1.4-36.9-0.4-53.3-10.7c-4.1-2.6-7.7-5.8-11-9.3c-3.9-4.2-3.5-9.6-3.7-14.6
			c-0.2-3.9-1.5-4.2-4.7-3.7c-11.3,1.6-22.6,1.8-33.7-1.1c-5.1-1.3-9.6-3.7-13.7-7c-2.3-1.8-4.2-3.8-3.9-7.1c0.1-0.6,0-1.4-0.4-1.9
			c-9.1-15-3.5-28.4,5.3-40.7c8.2-11.5,20.9-16.8,34.2-19.9c3.2-0.8,3.6-1.8,3.7-4.7C75,955.9,78.8,936,94,920.2
			c5.4-5.7,11.7-9.8,19.5-11.4c8.7-1.7,16-7.1,25.1-8.1c12.7-1.5,18-1.6,31.9,2c1.3-15,7.4-28.5,12.9-42.1
			c8.7-21.1,18.6-41.6,30.8-61c4.2-6.7,9.1-12.8,14.9-18c6.2-5.6,12.3-11.3,18.9-16.4c14.6-11.3,31.4-15.4,49.6-14.7
			c2.6,0.1,5.2,1.2,7.7,2c6,2,6,2,7.5-4.4c4.3-18.2,10.6-35.7,18.8-52.5c7.9-16.2,17.7-31.3,28.1-46.1c-0.5-0.3-0.8-0.8-1.1-0.8
			c-13.1-0.3-26.3-1.4-39.4,1c-9.3,1.7-18.3,0-27.3-1.7c-8.4-1.6-16.9-0.8-25.4-0.9c-6.4-0.1-12.6-0.7-18.7-2.6
			c-7.1-2.1-14.4-2.4-21.7-3.3c-6-0.8-6.7-1.7-6.3-7.9c0.1-1,0-1.5-0.9-1.9c-9.6-4.4-9.1-12.9-7.6-21c2-10.4,7.3-19.3,15.4-26.3
			c5.3-4.6,11.3-7.1,18.4-5.7c2.9,0.6,4-0.1,5-2.8c6.5-17,18.4-29.4,33.5-39.1c11.1-7.1,23.3-7.2,35.7-5.7
			c5.3,0.6,10.4,2.2,15.6,3.6c3.3,0.9,6.2,2.3,6.3,6.6c26.7-25.8,51-15.5,67.2,10.7c13.7-25.5,33.3-46.1,55.5-64.3
			c13.5-11.1,29.4-15.4,46.7-14c7.8,0.7,15.3,3.6,21.7,8.3c13.9,10.2,24.1,23.8,33.8,37.7c20.7,29.7,33.5,63.1,44.9,97
			c4.6,13.7,8.8,27.6,12,41.7c0.6,2.5,1.4,3.2,4,2.6c13.2-2.8,25.8-7.6,39.2-9.5c2-0.3,2.2-1.5,2.2-3.2c-0.4-17.9-2.4-35.5-9.8-52.2
			c-5.2-11.7-9.4-23.8-14-35.8c-0.4-0.9-0.5-2.4-1.2-2.7c-6-3-3.4-7.6-2.6-12c0.4-2.4,1.6-3.7,3.7-4.8c3.3-1.8,6.3-4.3,9.6-6.2
			c4.3-2.5,8.9-4,13.9-2.9c3.8,0.9,6.5,2.9,5.3,7.4c-0.5,1.7-0.2,2.9,0.9,4.1c11.2,11.7,14.6,26.6,16.8,41.9
			c2.8,19.7,2.3,39.5,2.2,59.6c9.2-2.4,18.2-4.7,27.2-7c14.1-3.6,28.4-5.5,42.9-6.9c10-0.9,10.9-0.9,13.8,10.4
			c3,11.6,2.2,23.8,3.7,35.7c0.4,3.2-1.6,6-3.9,8.3c-0.9,0.9-2.1,1.6-3.1,2.6c-13.4,13.2-25.2,28-40,39.8c-1.3,1.1-1.6,2.4-1.5,4
			c0.7,11.6,3.2,23,5.2,34.5c2.2-14.4,6.8-27.9,12.8-40.9c1-2.1,2-4.2,3.2-6.2c2.2-3.8,4.3-6.8,9.9-6.6c4.8,0.1,9.7-2.2,14.5-3.2
			c3.2-0.7,6.4-0.4,8.5,2.6c1,1.3,2.3,1.6,3.8,1.9c15.5,3.3,30.9,6.5,46.3,10.1c12.9,3,18,21,8.9,30.8c-1.4,1.5-1.4,3-1.2,4.5
			c0.6,5.3,1.4,10.5,2,15.8c0.2,1.6,0.4,3.9-1.2,4.6c-1.9,0.8-3.3-1.3-4.3-2.7c-3.3-4.5-4-9.8-4.3-15.2c-0.4-7.1,0.7-14,3.3-20.6
			c1.4-3.6,1.1-5.8-3.4-6.7c-16-3-32-6.5-47.5-11.8c-4.1-1.4-5,0.2-5.5,3.9c-1.2,9.4-2.6,18.8-4.2,28.2c-0.8,4.5-1.9,9.1-6.1,12.3
			c-2.1-3.9-1.9-7.9-1.3-11.8c1.6-11,2.5-22.2,6.9-32.6c1.2-2.9-0.3-3.2-2.5-2.9c-4,0.6-7.9,1.2-11.8,1.8c-0.9,0.1-1.5,0.4-1.9,1.3
			c-6.2,15.2-13.3,30.2-14,47.1c-0.1,2.2-0.1,4.3,0.1,6.5c0.6,7.4-1.1,9-8.5,7.3c1.1,10.2,3.3,20.1,6.3,29.8c0.9,3,0.9,7,2.8,8.7
			c2.1,1.8,6-0.2,9.1-0.6c12-1.6,23.9-0.3,35.9-0.6c8.3-0.3,16.6-1.9,24.9-0.4c1.6,0.3,1.9-0.6,2.3-1.8
			c6.7-19.9,23.2-27.8,41.3-33.8c1.1-0.4,2.3-0.3,3.5-0.4c1.3,0.3,2.5,0.6,3.8,0.8c1.8,0.2,3.7,2.9,5.3,1c1.6-1.9-1.6-3.3-1.7-5.3
			c0-2,0-3.9,0.1-5.9c0.1-2.3,1-4.3,3.7-4.4c3-0.1,3.8,2,3.9,4.6c0,1.1,0.1,2.3,0.2,3.4c-0.5,1.5-1.1,3.1-0.3,5.1
			c17.3-5.9,34.9-4.7,52.7-3.3c10.1,0.8,19.2,5.4,29.1,6.4c8.5,0.9,14.5,5,18.7,12.2c1.3,2.8,0.6,5.5-0.5,8.1
			c-0.4,0.3-0.5,0.7-0.1,1.1c0,0,0.3-0.4,0.5-0.5c12.3-2.9,24.6-3.9,36.8,0.6c1.7,0.6,3.6,0.3,5.4-0.2c1.9-0.6,3-1.6,2.7-4
			c-1.8-15.6-1.8-31.2-2-46.8c0-2.7-0.9-3.2-3.5-3c-7.8,0.7-15.5,1.7-23.2,2.9c-10.1,1.7-19.8,6-30.3,5.5c-2.5-0.1-1.7,2-1.7,3.3
			c0,5.1,1.4,10.2,0.8,15.4c-3.3,4.4-3.3,4.4-6.4-1c-2.2-8.6-1.7-17.1,0.3-25.6c0.7-3.1,2.8-4.8,5.9-5.3c11-1.7,21.5-5.8,32.6-7.2
			c0.9-0.1,2.6-0.3,2.4-1.3c-0.8-4.8,2.3-8.7,2.6-13.1c0.2-2.6,1.4-3.9,3.8-3.2c5.4,1.7,9.9-2.3,15-2.3c2,0,1.3-2.5,1.3-3.7
			c-0.1-8,0-16-0.7-23.9c-1.5-17.1-0.9-34.3-0.8-51.4c0.1-7.2,1.7-8.8,8.8-10.2c12.8-2.6,25.7-3.7,38.7-3.6c13,0,26,0.1,39,0.3
			c9.9,0.1,19.4-2.9,29.2-3.6c1.3-0.1,2.7-0.5,4-0.4c21.4,0.8,42.5-2.7,63.8-3.7c9.8-0.5,19.5,0.1,29.2,1.6c1.4,0.2,2.7,1.1,4-0.6
			c1.1-1.4,2.8-1.7,4.5-0.6c1.6,1.1,1.9,2.6,1.8,4.4c-2,25.5,0.8,50.9,0.9,76.4c0.1,16.4,2.9,32.5,5.6,48.6c0.1,0.7,0.3,1.3,0.4,2
			c1.3,9.8,1.4,9.9,11.1,8.7c7.8-1,15.6-1.2,23.4-0.9c3.6,0.1,7.2,0.5,7.8,5.2c0.2,1.3,1.3,1.3,2.1,1.8c3.2,1.9,3.5,4.7,0.8,6.9
			c-2.1,1.8-2,3.6-1.9,5.7c0.7,14.5,1.4,29,2,43.4c0.1,2.4,0.8,3.1,3.1,3.3c5.8,0.5,11.6,1.1,17.4,1.8c3.9,0.5,2.3-2.5,2.4-4
			c0.7-19-0.9-37.9-2.1-56.9c-2-31.9-7.2-63.6-7.9-95.6c-0.2-11.1-1.9-22.2-2.9-33.3c-0.1-1.5-0.2-2.9-1.7-3.9
			c-0.6-0.4-1.3-1.5-1.2-2.1c1.2-4.3,2.2-8.7,4.1-12.7c0.8-1.8,3.8-1.4,4.4,0.6c1.1,3.6,3,2.4,5.2,1.6c6.5-2.3,9.7-0.2,10.8,6.5
			c2.9,17.6,6.7,34.9,13.7,51.5c1,2.5,2.5,3.7,5,4.1c9.8,1.3,17.7-3.6,25.8-7.9c1.5-0.8,0.9-2.4,0.9-3.6c-0.3-15.7-1-31.3-2.6-46.9
			c-0.2-2-0.3-4-0.2-6c0.4-8.2,1.6-9.5,9.5-11.1c2.3-0.4,4.6-0.6,6.9-1.1c3.5-0.8,6.7-1,8.2,3.2c4.4-4.4,5.7-4.1,7.2,1.4
			c6.6,24.6,17.6,47.4,29.4,69.8c7,13.4,12.8,27.6,21.4,40c16.3,23.4,35,44.5,59.2,60.2c10,6.5,16,5.5,24.8-4.3
			c7.4-8.3,13.6-17.7,20.3-26.5c5.9-7.7,7.2-17.8,10-27c2.4-7.8,2.3-7.7-5.8-9c-8.9-1.5-17.9-2-26.9-2c-11.3-0.1-21.2,3.4-29.9,10.7
			c-3.3,2.8-6.7,5.5-10.1,8.2c-2.5,2-5.2,2.5-7.7,0.1c-2.5-2.4-2.1-5.1-0.1-7.6c9.9-12.1,21.7-21.2,37.7-23.3
			c14.9-1.9,29.6-0.8,44.1,3c5,1.3,6,0.6,5.8-4.8c-0.2-5.2-0.6-10.3-0.9-15.5c-0.7-11.6-1.2-23.3,0.3-34.9c0.2-1.5,0.6-3,1.2-4.3
			c1.9-3.6,5.6-3.8,7.1-0.2c1.1,2.5,2.1,2.8,4.4,2.1c2.2-0.6,4.8-0.5,6.8-1.1c4.4-1.4,4.8,1.3,5.3,4.1c0.6,3.2,0.2,6.5-0.8,9.4
			c-4.6,13-2.4,26.4-2.9,40.3c5.2-4.2,6.8-1.6,8.2,3.2c3,9.6,12.5,13.7,22.1,10c5.3-2,9.9-5.5,14.5-8.7c0.8-0.5,1.5-1.1,1.7-2.2
			c1.9-15.9,3-31.8,3.9-47.8c0.4-7.9,2.4-15.8,0.5-23.8c-0.7-2.8,1.6-4.3,4.1-4.6c4.9-0.6,9.9-1,14.9-1.4c2.7-0.2,5,0.9,4.6,3.9
			c-1.3,9.5-0.2,18.9,0.7,28.4c2.6,25.6,1.7,51.3,1.4,76.9c-0.1,14.2,0.4,28.3,0.7,42.5c0,1.6,0.3,3.3,0.5,5.7
			c10.9-6.7,22.5-9.7,34.3-8.5c21.8,2.2,41.7,9.7,57.9,25.2c1.6,1.5,3,2.4,5.2,2.2c1.8-0.1,3.7-0.1,5.5,0c4.3,0.4,8.1,0.4,11.6-3.4
			c2.7-3,7.2-4.2,11.5-4.3c9.8-0.4,18.7,2.7,27,7.6c1,0.6,2.1,1.3,2.6,2.3c3.5,7.1,10.5,10.8,15.6,16.3c2,2.2,4.2,4.3,4.8,7.5
			c0.1,0.6,0.4,1.7,0.6,1.7c5.6-0.1,5.8,6.9,10.6,8.2c1.8,0.5,3.2,2.8,4.1,4.8c14.3,33,24.1,67.1,21.9,103.5
			c-1.5,23.6-6.6,46.4-20.1,66.5c-3,4.5-6.7,8.3-11.6,10.8c-1,0.5-2.1,0.7-2,2.3c0.3,5.3-3,8.7-6.6,11.7
			c-8.9,7.2-18.8,12.4-29.7,15.9c-29.6,9.7-60.2,13.7-91,17c-8.1,0.9-16.2,2.1-24.2,3.5c-13.1,2.2-26.2,2.2-39.3,1.3
			c-2.7-0.2-5.3-0.1-8-0.1c-3,0-6.4-0.9-8.9,0.2c-3.1,1.4-0.6,5.3-1.5,8c-1,3-2,6-3.8,8.7c-5.8,8.8-13.3,15.8-22.2,21.2
			c-6.4,3.9-13.2,5.3-20.6,3.2c-2.3-0.7-3.1-0.4-2.8,2.4c0.9,8.2-2.4,15-8.1,20.6c-10.6,10.4-23.4,14.9-38.2,14.1
			c-3.5-0.2-7.2,0.3-10.4-0.9c-5-1.8-5.7,0.5-6.9,4.5c-2.5,8.5-7.7,15.5-15.1,20.5c-17.8,11.9-37,18.5-59,18.7
			c-26.6,0.3-51.8-5.3-77-12.8c-6.7-2-13.2-4.6-20.7-3.9c-5.1,0.5-10.5-2.3-15.8-3.6c-1.2-0.3-2.3-1.7-3.6-0.5
			c-3.7,3.3-8.9,4-12.4,7.9c-6.7,7.5-15.4,10.9-25.4,10.8c-6.5-0.1-13,0.3-19.4-1.6c-2.7-0.8-5.3,0.2-7.9,0.6
			c-24,3.8-45-3.6-64.2-17.5c-8-5.8-16.5-10.7-24.4-16.5c-6-4.3-13-6.1-20.5-5.7c-5.1,0.3-10.2,0.6-15.1-1.9
			c-3.8-2-7.9-1.1-12.1-0.2c-19.6,4.4-39,10.1-59.2,12c-6.8,0.6-13.6,1.4-20.2,3c-4.1,1-8.4,1.3-12.4,0.3
			c-9.1-2.2-18.3-0.7-27.3-1.7c-27-3.1-54-2.2-81.1-3.1c-6.5-0.2-12.9-0.9-19.4-1c-1.1,0-2.3-0.2-3.4-0.6c-1.5-0.6-3.4-1.1-3.1-3.3
			c0.2-1.9,1.8-2.1,3.3-2.4c5.8-0.9,11.6-1.6,17.4-0.9c16.6,2.1,33.3,1.5,49.9,2.1c7.5,0.3,15.3-0.2,22.3-3.7
			c0.7-0.3,1.7-0.4,2.4-0.2c6.7,1.8,13.6,0.7,20.4,0.7c5.7,0,11.3-0.1,16.9,0.9c4.6,0.8,9.2,0.7,13.9-0.5
			c13.1-3.3,26.9-2.5,39.9-6.1c0.4-0.1,0.9-0.3,1.3-0.4c-0.3-2.4-3.5-0.8-4-3.2c10.4-1,20.9-1.5,31.1-3.2
			c30.4-5,58.4-16.7,85.5-30.8c18.8-9.8,36.6-21,52.8-34.9c7.8-6.7,13.6-15,19.5-23.3c1.8-2.6-0.1-3.3-1.6-4.6
			c-1.2-1-3.9-1.6-3.1-3.3c1.2-2.6,2.8,1.3,4.6,0.4c0-3.3,0.5-6.6-0.1-9.8c-0.8-4.7,1-6.9,5.5-7.3c-1.4-4.7-3.7-4.8-8.1-3
			c-13,5.4-25.9-1.8-29.1-15.7c-0.4-1.6-0.6-3.2-0.9-5c-2.8,0.8-3.6,2.4-2.9,5.1c1,4.2,1.1,8.6,1,12.9c0,1.2-0.1,2.3-0.4,3.5
			c-0.7,3-2.7,5.9-5.2,6.1c-2.5,0.2-3.6-3.4-4.2-5.8c-1.3-4.7-1.2-9.6-1.4-14.4c-0.1-1.9-0.4-2.9-2.7-3.3
			c-12.3-2.4-18-9.1-18.7-22.4c-6.5,6.4-13.7,11.3-21.8,14.8c-7.6,3.3-15.3,4.8-23.3,1.8c-2.3-0.8-2.9-0.2-3,2
			c-0.3,4.8-0.8,9.6-1.2,14.4c-0.1,1.3-0.3,2.7-0.7,3.9c-0.6,2.1-1.7,4.6-4,4.6c-2.5,0-3.8-2.6-4.3-5c-1-4.8-0.4-9.6,0.5-14.4
			c0.6-3.2-0.1-4.2-3.7-4.3c-12.8-0.4-26-15.2-25.2-28.1c0.2-3.6-0.6-4.2-4.1-4.2c-11.2,0.2-17.9-5.3-19.9-16.1
			c-0.2-1.2-0.2-1.9-1.8-2.3c-16.5-4-24.2-19-17.6-34.2c6-13.8,18.6-21.4,33.5-20.1c2.2,0.2,3.6-0.4,5.3-1.7
			c10.2-8.2,21.8-8.2,33.5-4.4c2,0.6,3.1,0.8,4.7-0.5c11-8.9,23.4-8.7,35.9-4.5c5,1.7,9.7,2.8,15.1,1.8c11.3-2,18.4,5.3,25.2,12.5
			c2.2,2.3,3.4,3.3,6.3,1.2c2.7-2,6.2-2.2,9.9-2.5c-10-22.2-8.1-46.1-10.8-69.3c-1.8-15.4-4.7-30.6-4.7-46.2c0-1.4-0.5-2-1.8-2.4
			c-4.5-1.3-8.8-2.6-13.5-3.1c-15.3-1.5-30.5-2.5-45.9-2.1c-2.6,0.1-5.3-0.7-7.9-1.2c-1.7-0.3-3.9-0.8-4.2-2.3
			c-1.2-6-7.6-7.9-9.6-13.3c-2-5.5-3.5-11.1-4.2-16.9c-2.8-26-4.9-52.1-6.1-78.2c-0.3-5.5,0.2-11,1.2-16.4c0.1-0.3,0.4-0.6,0.4-0.9
			c0.2-6.8,0.6-7.4,7.7-7.3c8.8,0.1,17.5-2.5,26.8,0.5c-8,7.6-17.9,6.1-27.5,6.5c2.7,29.7,5.4,59.2,8.1,88.7c0.3,3.5,0.7,7,1.2,10.4
			c0.2,1.6,0.6,2.7,2.4,4.1c3.2,2.5,1.9,7.1,0.8,10.6c-1.2,4.2,1.5,9,5.8,8.9c8.2-0.1,16.3-1,24.5-0.6c13.1,0.7,26.3,1,39,4.5
			c1.5,0.4,2.9,0.3,4.9-0.4c-4.7-1.2-9.2-1.6-13.3-3.4c-2-0.9-4.4-1.8-3.6-4.5c0.7-2.3,2.9-2.4,5-2.2c3.9,0.4,9.4,2.6,11.4,0
			c1.7-2.3-0.3-7.6-1.1-11.5c-4.9-24.6-6-49.5-6.1-74.6c-0.1-14.3-1.4-28.6-0.5-43c0.2-3,0-5.5-4.4-3.2c-2.9,1.5-6.6,0.5-9.9,0.3
			c-16.4-1.2-32.6,0.6-48.9,2.1c-6,0.6-12,0.6-18,0.5c-11-0.2-22,0.5-32.8,2.8c-6.8,1.5-13.5,0.7-20.4,0.6
			c-14.5-0.4-29-0.7-43.5,0.2c-7.4,0.5-15.3,0.5-22.4,3.8c-2.7,1.3-3.6,3.1-3.6,6.2c-0.1,31.5,1.8,62.9,3.5,94.4
			c0.5,9.3-0.4,18.5,0.5,27.8c0.9,9.4,0.7,19,0.8,28.5c0,4.8,0.4,9.8-0.7,14.4c-1.3,5.5,1.4,8.2,5.4,10.1c3.3,1.6,5.5,3.6,5.9,7.3
			c0.1,0.8-0.1,1.9,1,1.8c0.9-0.1,2.1-0.4,1.6-1.9c-0.4-1.1,0.3-1.8,1.1-1.5c6,2.3,13-0.3,18.7,4.1c3.9,3.1,6.5,6.9,8.8,11.3
			c2.4,4.5,9,1.8,11.8,6.5c3,5,6.9,9.4,4.9,15.8c-0.3,1,0,1.3,0.7,1.9c7,7.1,4.4,20.1-4.8,24.1c-1.4,0.6-2.7,0.9-3.5,2.9
			c-4.7,12-20.8,15.9-30.9,7.7c-0.4-2.6-0.6-6.2,2.9-5.2c8.7,2.2,15.1-1.4,21.6-6.1c2.1-1.5,4.6-2.9,6.9,0.1
			c4.1-7.8,6.7-15.6,6.8-24.9c-3.9,3.2-5.1,0.7-6-2c-1.1-3.3-2-6.7-4.4-9.4c-2-2.2-3.9-4.3-5,0.7c-0.4,2-2,3.5-4.3,3.4
			c-2.1-0.1-2.4-2.1-2.9-3.6c-1-2.8-1.6-5.7-2.7-8.5c-0.8-2-1.4-4.5-4.2-5.1c-0.2,0.6-0.4,1-0.4,1.4c0.1,1.8,0.6,4-1.9,4.4
			c-2.4,0.4-2.7-2-3.5-3.6c-0.2-0.4-0.4-0.9-0.5-1.4c-1.1-4.1-2.9-6.7-8-5.3c-3.2,0.9-4.7-1-3.8-4.3c0.2-0.5,0.9-1,0.2-1.5
			c-0.8-0.5-0.9,0.4-1.1,0.8c-1.4,0.9-2.8,1.9-4.5,0.4c-4.3-3.8-9.5-4.9-15.1-4.8c-1.9,0-3.8-0.3-2.8,2.9c0.6,2.1-0.6,3.9-2.7,4.7
			c-2.4,0.9-4.1,0-5.6-2c-6.1-8.4-17.1-8.5-23.9-0.3c-2.5,3-3.6,6.4-1.5,10.1c0.6,1.1,1.1,2.1,0,3c-1.1,0.9-2.3,1.4-3.7,0.9
			c-2.7-0.9-4.4-2.8-5.2-5.6c-1.7-6,0.9-10.6,4.6-15c1.2-1.4,3.2-2.1,3.7-4.4c-0.8,0-1.3,0-1.8,0c-10.6,0.8-10.5,0.8-11.9,11.5
			c-0.9,6.4-1.7,12.3,5.9,16c4.6,2.2,7.7,7.7,13,8.9c15.4,3.6,28,12.4,39.7,22.1c5.7,4.7,13.8,8.2,15.1,17.1c0,0.2,0.8,0.5,1.2,0.5
			C1053.2,898.3,1054,900.6,1055.3,902.5z M1599.1,713.8l-0.2,0.1l0.3,0c0.3,7.4-0.1,7.8-7.8,7.1c-0.7-0.1-1.3-0.2-2-0.1
			c-1.1,0.1-2.5-1-3.1,0.5c-0.5,1.2-0.4,3.2,0.6,3.7c3.1,1.5,2.1,4,2,6.4c-0.6,13.6,1.3,27,1.9,40.7c6.7-4.1,8.8-9.6,8-16.7
			c-0.5-4.8-0.2-9.7-0.2-14.5c0-1.7,0.1-3.4,2-4.2c1.8-0.7,3.6,0,4.4,1.4c1.6,2.8,3.4,2,5.4,1c12.8-6.3,24.6-14.3,38.8-17.9
			c5-1.3,5.6,0.1,6.2,3.6c1.7,9.4,2.6,18.8,2.7,28.3c0.6,39.5,4.8,78.7,8.6,118c0.1,1-0.4,2.3,1.7,3.1c0-5.3,0.3-10.3-0.1-15.3
			c-1.7-24.4-3.7-48.8-5.4-73.2c-1.9-27.4-1.5-54.9-0.5-82.4c0.9-22.8-2.7-45.5-1.2-68.4c0.1-1.8-0.5-2.2-2.3-2.1
			c-2.4,0.1-2.9,1.1-3.1,3.4c-1.2,17.4-2.6,34.8-4.1,52.2c-0.6,7.3-2,14.6-5,21.2c-4.6,10.1-20.3,17-31.4,15.1
			C1608.5,723.3,1602.8,720.2,1599.1,713.8z M1345,868c-0.1-0.2-0.2-0.4-0.3-0.6c-0.2,0.1-0.3,0.3-0.5,0.4
			C1344.5,867.8,1344.8,867.9,1345,868c3.3,6.7,6.9,12.8,15.9,12.2c2.9-0.2,5.9,0.9,8.7,1.8c13.1,4.4,26.3,8.4,40.1,9.9
			c3.5,0.4,7,1.1,10.2,2.2c13.5,4.7,27.8,4.7,41.6,7.4c20.9,4.2,42.4,3.8,63.6,5.5c6.5,0.5,13,2,19.4,1.6
			c14.2-0.8,27.7,2.7,41.4,5.4c1.1,0.2,2.6,1.2,3.2,0c1.2-2.8,0.4-5.9,0.3-8.8c-0.1-2.3-2-2.2-3.7-2.5c-4.6-0.7-9.3-1-13.8-2.4
			c-18-5.4-36.5-7-55.2-6.9c-11.8,0.1-23.7-0.2-35.4-1.1c-16.9-1.3-33.7-3.2-50.4-6.5c-17.7-3.5-36.5-2-52.9-11.6
			c-0.3-0.2-0.6-0.2-1-0.2c-9.8,0.3-19-2.6-28.2-5.7C1347.7,867.9,1346.3,868.1,1345,868z M967.7,806.4c1.2-1.2,2.1-2.5,2.2-4.2
			c-0.1-3.9-3-4.7-5.9-5.3c-4.2-0.8-8.5-1.2-12.7-2.5c-23-7.1-46.3-8.7-69.9-3.2c-3.9,0.9-7.8,1.6-11.8,2.2
			c-1.2,0.2-3.2,0.9-3.4-0.9c-0.3-2.7-2-1.4-2.8-1.1c-10.1,3.6-19.6,8.3-27.6,15.6c-2.6,2.4-2.8,5-0.5,7.9c2.7,3.4,6.1,5.7,10.4,6.2
			c22.1,2.8,44.2,8,66.6,3c0.6-0.1,1.3-0.2,2-0.1c7.4,0.7,14.7-0.4,21.6-2.7C947.1,817.5,958.8,814.8,967.7,806.4z M1406.1,873.1
			l-0.1-0.1c5.6,2.2,11.3,3.9,17.4,3.9c-0.3-2.5-3.3-5.2-0.4-6.6c2.9-1.4,6.7-1,9.3,1.5c2.6,2.5-1,3.9-1.5,5.4
			c16.2,4.3,32.7,6.1,49.3,7.4c-1.6-1.8-5-3.4-2.7-5.9c1.6-1.8,5-1.6,7.3,0.5c2.6,2.5,0.6,4-2.1,5.6c12,1.4,23.3,1.7,34.6,1.9
			c1.8,0,2.3-0.3,1.5-2.1c-0.5-1.2,0.5-1.8,1.6-1.9c1-0.1,2.5,0.3,2.4,1.3c-0.7,3.9,2.1,2.6,3.9,2.8c5.2,0.4,10.3,0,15.5,0.3
			c7.8,0.4,15.9,0.8,23.3,3.1c5.8,1.8,11.4,2.8,17.3,3.9c5,1,5.3-0.7,4.8-4.9c-3.7-31.3-6.2-62.7-5.6-94.2c0-0.7,0.3-1.7-1.2-2.2
			c-12.2,6.6-25.9,8-39.8,8.7c-3.9,0.2-7.7-0.3-11.1-2.3c-2.5-1.5-4.2-0.9-6.1,0.9c-3.4,3.2-6.9,6.4-11.4,7.9
			c-7.8,2.7-16.1,4.2-23.3,8.6c-1.3,0.8-3.3,1.2-4.8,0.9c-9.7-2-19.5-1.3-29.3-2c-2.6-0.2-5.2-1.2-7.6-2.4
			c-14.2-6.7-28.5-13-41.2-22.3c-0.6-0.5-1.2-1.2-2.2-0.6c-1.1,15.8,2.4,31.1,5,46.6c0.4,2.5,2.1,2.1,3.7,2.2
			c6.5,0.5,13,0.5,19.4,1.7c9.5,1.7,18.2,6.8,28,7.3c17.6,0.9,34.7,6.9,52.6,4.3c1.3-0.2,2.7,0.1,4,0.4c13.5,3.1,27.3,3,41.1,3.6
			c3.2,0.1,6.3,0.3,9.1,2.1c1.5,1,3.3,2.1,2.8,4.3c-0.4,1.9-2.3,2.2-4,2.4c-8.5,1.2-16.9,1.2-25.4,0.1c-9.4-1.2-18.9-2.4-28.1-2.8
			c-11.5-0.5-22.8-0.9-34.2-2.6c-12.8-1.9-25.7-2.6-38.2-7c-11.6-4.1-23.8-6-36.2-3c-1.5,0.4-1.7-0.9-2.6-1.6c-3.7-3-9-1.3-9.8,2.8
			c-0.8,3.9,2,3.6,4.1,3.9c5.1,0.7,10.2,1.2,15.3,1.8c-5.5,1.8-11,2.5-16.4,1c-3-0.8-5.4-1.1-7.5,3.5c-0.6-8.6-6.7-5.7-10.9-6.9
			c1.5-1.7,2.9-1,4.1-1.1c4-0.3,5-2.1,3.3-5.8c-1-2.1-2.8-1.4-4.3-1.6c-8.4-1.1-16.9-1.1-24.2-6.5c-2.4-1.8-4.9,0.1-4.9,3.2
			c0,4.7,0,9.3,0,14c0,1.5-0.2,2.6,1.8,3.4c9.4,3.8,19.3,4.8,29.2,5.9c1.1,0.1,1.7-0.1,2.5-1c1.7-2.2,4.2-3.4,6.4-1.3
			c2.6,2.4-0.8,3.8-1.9,5.7C1393.4,873.5,1399.8,873,1406.1,873.1z M598.5,622.8c0.4,0.1,1,0.4,1.1,0.3c0.5-0.5,0.2-1-0.2-1.5
			c-5.9-16.5-13.8-32.1-20.6-48.1c-10-23.8-23.3-45.7-39.9-65.4c-5.6-6.7-11.7-13.4-19.8-17.2c-15.9-7.2-30.9-3.3-44.3,6.1
			c-18.2,12.7-32.7,29.2-46.6,46.4c-1.7,2.1-3.1,4.5-4.8,6.9c16.9,5,28.3,16.1,38.3,29.1c2.7,3.5,4.4,7.5,5.1,11.8
			c0.3,1.9,0.7,2.9,3,2.8c12.3-0.7,20.2,6.6,26.7,15.6c2.9,4.1,7.5,8,6.8,13.5c-0.6,4.9,2.1,6.5,5.3,8.7c9.5,6.5,18.2,5.8,26.8-1.8
			c4.2-3.7,8.6-7.4,13.2-10.6c11.2-7.7,23-11,35.9-3.5C589.1,618.5,593.9,620.5,598.5,622.8z M716.6,720.5c-3.5,0.3-6.7,1.6-9.9,3.1
			c-12.2,5.7-25.3,8.9-38.4,12.5c-0.1,3.7,1.3,5.1,5.8,3.2c5.6-2.4,11.6-4.2,17.4-6.1c6.6-2.1,13.4-3.1,20.7-3.4
			c-0.4,0.9-0.5,1.5-0.9,1.7c-12.1,8-26.2,11.2-39.8,15.5c-2,0.7-5.7,1-7.1-2c-1.3-2.7-2.1-6-0.1-8.6c1.3-1.7,2.7-3.4,5-4.4
			c14.5-6.3,30.2-9.1,44.7-15.5c1.5-0.7,3.1-0.5,4.7,0.4c1.8,1,4.7-0.7,6.1,2c2-2.7,5.5-3.2,7.7-5.9c6-7.3,12.7-14.1,19-21.2
			c0.9-1,2.4-1.8,2.1-4.1c-4.4,3.8-10.2,4.7-13.9,9c-2.9,3.4-7.7,1.4-11.1,3.5c-14.7,9.5-32,12-48.3,17.1c-1.1,0.3-2.3,0.6-3.4,0.7
			c-1.4,0.1-2.7-0.3-3.3-1.7c-0.6-1.7,0.3-2.9,1.7-3.8c0.8-0.5,1.8-0.9,2.7-1.2c15.9-4.8,31.7-10.4,48.1-13.2
			c9.6-1.6,16.2-7.2,22.9-13.1c0.9-0.7,1.3-1.9,0.6-3.3c-3,1.1-5.8,2.7-8.8,3.2c-13,2.2-25.4,6.6-38,10.4
			c-9.4,2.9-18.8,5.9-28.5,7.1c-4.5,0.6-7.9,1.1-6.2,7c0.5,1.7-0.5,3.2-2.2,4c-1.4,0.6-2.7,0.2-3.7-0.8c-1.9-2.1-1.7-4.6-1.2-7.1
			c0.4-2.2,1.5-4.1,4-4.5c8.5-1.6,16.7-4.6,24.8-7.5c14-4.9,28.3-8.7,42.7-12c7.4-1.7,14.9-2.5,22-5.6c1.5-0.7,6.1-5.1,4,2.1
			c-0.3,1.1,0.8,0.5,1.3,0.7c4,1.2,7.2-1.2,6.9-5.4c-0.6-8.8-1.3-17.6-1.7-26.4c-0.1-3.2-1.4-3.5-4-3c-7,1.3-14.1,2.3-21.2,3.6
			c-21.2,3.7-41.5,11-62.4,15.8c-10.5,2.4-21.3,4-31.6,7.2c-1.6,0.5-3.5,0.3-2.9,3.4c1.3,7.4,2,14.8,3,22.2
			c5.6,39.4,11.3,78.8,16.8,118.2c1,6.9,3.1,13.7,1.2,20.8c-0.3,1.1-0.3,2.5-1.7,2.7c-1.1,0.1-1.5-1.1-2.1-1.9
			c-4.5-6.4-6.4-13.9-8.1-21.3c-6.5-29.1-8.8-58.9-13.2-88.4c-2.3-15.3-2.6-30.9-6.3-46c-0.9-3.8-2.1-5.2-5.9-3.3
			c-3.8,1.9-7.5,1.8-10.2-2.1c-1.1-1.7-2.5-1.2-4-1c-7.2,0.7-13.5,4.9-20.8,5.1c-1.9,0.1-2.1,1.6-1.7,2.9c1.4,4.5,0.1,9.2,0.7,13.6
			c2.4,17.6,6.1,35.1,8.1,52.8c4.4,39.5,10.3,78.9,12.4,119c5.5-2,11.1-4,16.7-6c19.7-6.8,39.6-12.8,58-22.8
			c4.4-2.4,9.3-3.4,14.2-4.7c12.4-3.2,24.5-7.4,37.2-9.6c1.6-0.3,3.1-0.3,1.9-2.7c-7.2-14.4-9.4-30.1-11.3-45.8
			c-0.4-3.2-1.6-3.4-4.2-2.2c-14.5,6.9-30.3,10.1-45.2,15.9c-1.6,0.6-3.2,0.8-4.9,0.4c-1.5-0.4-3.2-0.9-2.8-2.8
			c0.4-1.6,1.9-0.6,2.9-0.6c1,0,2,0,2.9-0.4c15.8-6.1,32.4-10.1,48.1-16.7c1.6-0.7,2-1.2,1.8-2.8c-1.9-13.6-4.7-27.1-3.4-41.7
			c-1.9,1.7-3,4-5,2.7c-1.6-1-1.3-2.9-1.1-4.6c0.1-0.5,0.2-1,0.2-1.5c0.1-0.4,0.2-0.7,0.3-1.1C717.3,720.4,716.9,720.5,716.6,720.5z
			 M1292.8,1028.3l0.1-0.2L1292.8,1028.3c0.6,1.4,0.6,2.7,3.2,2.5c4.1-0.3,7.1,5.8,6.2,9.9c-1.4,6.9-6.3,11.7-9.3,17.5
			c-6.3,12.2-15.6,21.9-26.2,30.5c-27.5,22.2-58.8,37.5-91.4,50.4c-1.9,0.8-3.8,1.6-5.8,2.4c9.6,0.1,17.6,4,25.2,9
			c10,6.6,20.5,12.4,31,18.3c15.8,8.9,32.7,11.5,50.6,8.5c3.5-0.6,4.4-2.1,3.7-5.4c-0.7-3-9.1-11.3-12.2-11.7
			c-2.1-0.3-3.9-0.2-2,2.8c1,1.7-0.3,3.2-1.6,4.3c-1.4,1.3-3,1.3-4.6,0.5c-3.7-1.8-4.2-6.5-1.1-10.2c4.8-5.7,13.2-6.6,19.2-2
			c2.3,1.7,4.5,3.4,6.9,4.9c2.9,1.9,5,4.3,5.9,7.7c0.9,3.4,2.8,6.4,2.7,10.6c6.3-10.1,2.2-24-7.2-26.2c0.9-2.6,3-3,5.2-2.6
			c3.9,0.6,6.6,3.2,8.4,6.5c5,8.9,5.8,17.9,0.1,27.4c7.4-0.5,13.7-2.5,18.9-7.5c4.2-4.1,7.3-8.7,9.4-14.4c1.7-4.6,0.7-9.6-3.9-11.2
			c-1.1-0.4-2.4-1-3,0.5c-1.2,2.9-4.4,4.6-4.5,8.1c0,3.2,4.3,1.6,4.7,4.3c-3.9,1.9-6.5,2.1-8.2,0.2c-2.5-2.6-0.8-5.2,0-7.9
			c0.8-2.6,3.9-3.8,3.8-6.8c-0.1-3.5,2.1-4.6,4.9-5.2c6.8-1.5,14,3.2,16.9,10.9c1.4,3.8,0.9,7.7,1.2,11.7c2.2-0.6,4-1.3,6.1-1.4
			c13.4-0.7,26.5,1.2,39.5,4.6c27.1,7,54.5,12.8,82.9,9.5c17.4-2,32.7-9.1,45.6-20.6c8.9-8,9.9-22.1,4-33.1
			c-0.9-1.7-2.5-2.1-4.1-2.5c-1.4-0.3-2.7-0.2-3.6,1c-1.2,1.5,0.5,1.9,1,2.8c1.5,2.5,0.9,4.8-0.5,7c-2.3,3.6-6,3.1-9,2
			c-3.2-1.2-6.1-3.5-6.1-7.6c-0.1-6.6,7.2-15,14.3-16.6c5.9-1.4,14.6,2.9,17.2,9.4c2.4,6,5.2,11.9,5.6,18.5c0.1,0.9-0.4,2.1,0.9,2.5
			c1.1,0.3,1.9-0.4,2.7-1.1c1.6-1.4,3.9-1.7,5.7-0.4c0.9,0.7,1.4,1.6,2.8,1.7c15.3,1,28.2-3.7,37.9-16c4.7-6,4.8-13.5,1.4-18.9
			c-3.4-5.4-8.7-10.3-15-13.4c-1.2-0.6-2.6-0.4-3.9-0.1c-1.7,0.4-2,1.5-1.6,3c0.7,2.5,1.8,0.9,2.8,0.3c1.8-1,3.7-1.7,5.5,0
			c1.9,1.8,2.3,3.9,1.4,6.4c-1.6,4.4-4.8,7.4-9.3,8.1c-4.7,0.8-7.3-2.3-10-5.9c-3.4-4.2-4.1-8.2-1.9-12.9c2.3-4.8,5.9-7.4,11.6-8
			c9.9-1.1,16.8,4,22.5,10.6c5.4,6.4,12.9,7,18.9,5.3c11.7-3.4,19.7-12.6,26-22.8c1.9-3.1,0.9-4.9-3.2-5.5c-6.7-1.1-13.5-2.4-19-6.9
			c-1.9-1.6-3.2-3.8-5.6-4.8c-7.2-3.1-11.3-8.6-11.8-16.5c-0.1-1.9-0.5-2.9-2.6-2.1c-15.8,5.7-32.3,6.2-48.7,6.9
			c-20.4,0.9-40.7,0.3-59.8-8.2c-12.3-5.5-22.6-13.4-29.2-25.4c-6.8-12.4-3.1-24.8,2.4-35.8c14-27.7,32.1-51.9,63.1-62.7
			c2.5-0.9,5.3-1.6,7.3-3.6c-8.1-1.5-16.1-2.5-24.1-2.1c-8.1,0.3-15.9-1.3-23.8-2.3c-11-1.4-22.2-1.2-33.1-4.2
			c-4.2-1.1-9-1.7-13.3,0.2c-11.7,5.2-23.8,5.7-36.2,5c-1.8-0.1-3.5-0.9-5.4-0.5c-3.6,0.7-10.5-5.2-10.6-8.8c0-1.1,0.4-1.9,1-2.7
			c3.6-4.2,3.6-4.4-1.9-5.6c-1.9-0.4-3.7-1.6-5.9-1.1c0.2,0.5,0.3,1,0.5,1.3c1,1.6,3.2,3.5,1,5.1c-2.3,1.7-4.4-0.3-5.9-2.2
			c-0.6-0.8-1.5-1.8-1.4-2.6c0.7-5.9-3.6-5.3-7.9-6.4c4.2,8.1,8.5,15.1,10.9,23.1c0.6,1.8,1.7,1.5,3.1,1c2-0.8,4.2-1.1,5.3,1
			c1.3,2.5-1.5,3.2-2.7,4.7c-1.2,1.5-3.6,1.6-3.6,4.7c-0.4,16.8-18.2,32-35.7,30.5c3.1,4.4,4.9,9.2,7.8,13.6c2.9,4.4,5.7,9,8.6,13.6
			c2.7,4.3,4.2,9.1,3.8,14.2c-0.4,4.9-3.2,8.4-7.2,9c4.1-8.9,0-15.6-5.9-21.8c-1.5-1.6-3.5-2.9-4.4-4.7c-1.7-3.6-4.2-5.6-8.1-6.5
			c-3.8-0.8-7.6-0.9-11.4-1c-1.6,0-2.1,3-3.6,1.6c-3.6-3.4-6.1-0.6-8.3,1.5c-1.6,1.5-2.9,3-5,1.4c-1.9-1.5-2.2-3.6-1.1-5.8
			c1.4-2.9,3.9-4.5,6.5-6c1-0.6,2.5-1.3,1.1-2.5c-4.2-3.7-7.4-9.3-14.2-9c-3.8,0.2-4-1.6-2.6-4.3c2-3.9,6.9-5.1,11.8-3
			c2.6,1.2,5.1,2.7,7.9,4.1c0-5.3-1.7-9.5-3.7-13.8c-2.2-4.6-7.6-6.3-9.8-9.7c-3.8-6-8.8-5.7-14-5.9c-4.9-0.2-10.1-1.3-14.3,2.5
			c-1.6,1.5-3.6,3.3-5.6,1.3c-2.3-2.2-0.3-4.2,1.1-6.1c1-1.4,3.6-2.1,2.6-4.2c-0.9-1.9-3.3-2-5.3-2.2c-1.3-0.1-2.7-0.2-4-0.2
			c-7.4,0.3-9.5,2-11.2,9c-0.3,1.1-0.9,2.2-1.4,3.2c-0.9,1.8-2.4,2.7-4.5,2.4c-1.9-0.3-3-1.5-3.5-3.2c-0.4-1.3-0.7-2.6-0.9-3.9
			c-1.8-10.6-11.4-18.4-21.9-17.1c-5.2,0.6-9.8-0.1-14.6-2c-11.4-4.6-22.2-4.6-32.1,4.4c-5.1,4.7-6.5,4.3-11.8-0.2
			c-0.6-0.5-1.4-1.1-2.1-1.2c-8.3-0.9-16.7-1.7-23.7,4.6c-1.2,1.1-2.6,2.1-4,1.5c-4.8-2.1-9.1,0.1-13.4,1.6
			c-18.7,6.6-22.5,24.3-8.4,38c1.6,1.6,2.7,2.6,4.7,0.3c1.1-1.3,3-1.4,4.6-0.3c1.3,0.9,1.8,2.1,1.5,3.9c-1.2,6.8,2.4,11.6,9.2,12.3
			c3.9,0.4,7.8,0.2,11.4-1.1c4-1.4,7.9-0.6,12.5-1.5c-2.7,3.6-5.4,6.3-7,9.4c-3.1,6.3-0.2,13.2,7.6,19.2c6,4.6,8.4,4.5,13.6-0.8
			c2.8-2.8,6-3.7,8.7-0.7c4.8,5.4,10.2,4.6,16,2.8c10.3-3.3,18-10.5,26.5-16.6c1.2-0.9,1-4.1,3.9-2.4c2.3,1.3,3.9,3.1,3.3,5.6
			c-0.9,4.2,1.6,4.7,4.6,5c5.3,0.4,10.4-0.1,16.3-2.3c-4.2,7.7-10.2,9.5-17.8,8.4c2.1,4.7,4.1,8.5,8.1,10.2
			c8.7,3.8,17.1,0.7,25.3-2.1c1,2.8-4.1,3.6-1.9,5.4c2.7,2.2,3.5,5.2,5.1,7.7c4,6.3,9.3,9,16.8,8.1c5.9-0.7,11.5-2.3,17.3-4.2
			c-2.1,5.3-1.5,6.4,4,8.2c1.1,0.3,2.3,0.5,3.4,0.7c9.5,1.4,18.2-0.9,26-6.4c5.9-4.1,12.2-7.7,17.3-13c2.2,7.1-0.2,12.4-4.9,17.1
			c-7,7.1-15.4,11.5-25.2,13.3C1307.7,1032.7,1300.2,1030.7,1292.8,1028.3z M1586.8,929.6c-9.6-5.8-29.6-9.5-41.2-7.2
			c-26.2,5.3-48.8,16.3-63.7,39.8c-2.5,3.9-5.4,7.6-8.1,11.4c-5.3,7.3-8.5,15.3-10.5,24.1c-1.5,6.5,0.3,11.6,4.7,15.8
			c4.3,4.1,9,7.9,14.5,10.5c19,9.3,39.3,9.1,59.7,8.5c16.3-0.5,32.4-4.3,48.8-3c1.9,0.2,2.6-0.6,3.1-2.3c4-13.3,13.3-22.7,24.3-30.1
			c9.8-6.6,20.3-12.2,32.8-11.7c2,0.1,2.5-1.1,3.1-2.5c5.1-12.8,15.1-20.9,26.9-26.9c7.5-3.8,15.3-6.2,25.1-4.9
			c-5.7,3.4-10.4,6.2-15.1,8.9c-10,5.7-20.1,11.4-26.6,21.4c-2.3,3.5-5.9,6.8-2.6,11.8c1.1,1.6,0.1,4-1.3,5.6c-0.9,1-2.4,1-3.1,0
			c-3.5-4.5-8-2.7-11.9-1.4c-13.9,4.3-25.4,12.4-34.3,23.9c-5.2,6.7-7,14.6-7.1,23c0,1.6,0.1,4.4,1.3,4.6c6.3,1,10.5,6.2,16.8,7.5
			c14.9,3,29.9,1.5,44.8,2.5c6.8,0.5,13.7,0.8,20.5,0c24.3-3,48.5-6.5,72.7-9.8c29.9-4,58.8-11.3,85.5-25.9c0.6-0.3,1.2-0.8,1.8-0.9
			c2.9-0.3,4.1-2.4,5.2-4.7c4.3-8.9,7-18.3,9.9-27.7c7.6-25.3,11.3-51,7.4-77.4c-3.2-21.5-9.4-42.2-17.4-62.3
			c-1.4-3.5-2.9-7.3-1.1-10.6c2.4-4.5-0.5-7.8-2.9-8.6c-6.7-2.4-9.6-8.4-14.3-12.6c-0.9-0.8-1.2-2.1-3.1-1.2
			c-3.7,1.8-5.7-0.9-6.9-3.7c-1.1-2.4-2.4-4.3-4.7-5.5c-4.6-2.4-9.4-4.4-14.4-5.5c-3.5-0.8-7.2-0.9-10.8,1.6c1.8,2,4.4,3.2,4.6,6.3
			c-7.1,0-13.8,0-20.6,0c-4,0-7.6,0.1-6.6,6.1c0.4,2.5-0.7,5.9-4.2,6.5c-3.3,0.6-5.7-2.2-5.8-4.4c-0.3-8-5.1-5-9.1-4.3
			c-1.3,0.2-2.6,0.6-3.9,0.9c-19,4.2-34.8,13.3-45.5,29.9c-3.8,5.9-7.2,12-8.3,19.1c-0.5,3.3-0.1,4.9,4,3.9
			c9.5-2.4,19.3-3.3,29.1-4.5c32.3-3.8,62.2,3.3,90.1,19.5c3.2,1.8,6.2,3.9,8.3,7.1c0.8,1.2,1.8,2.6,0.9,4.1
			c-0.8,1.4-2.3,1.1-3.6,1.1c-5.8,0-11.1-1.9-16.5-3.6c-13.1-4.2-25.6-10.6-39.4-12.5c-31.6-4.4-62.4,0-92.4,10.5
			c-24,8.4-44.6,22.9-64.7,38c-9.2,6.9-9.4,6.8-6.1,17.8c0.9,3,0.2,5.4-2.7,6.6c-2.9,1.2-5.2-0.1-6.5-2.9c-1-2.2-1.8-4.5-2.8-7.2
			c-20.7,19.3-41.3,37.9-56.6,61.5c-1.3,2-2.6,4.3-5.5,2.8c-2.6-1.4-3.1-3.9-2.2-6.5c0.8-2.2,1.8-4.3,2.9-6.3
			c6.6-11.2,14.6-21.5,23.2-31.2C1564.5,950.7,1575.5,940.1,1586.8,929.6z M411.4,557.9c1.4,2.9,2,5,1.9,7.4
			c-0.1,2.5-1.1,4.2-3.6,4.6c-2.4,0.3-3.6-1.1-4.5-3.2c-4-9.2-10.4-16.6-17.8-23.1c-6.4-5.7-13.9-7.6-22.3-6.4
			c-4.7,0.7-8.9,2.7-13,4.9c-6.6,3.3-13.2,6.7-20.6,10.5c2-4.4,5.8-6.1,8.1-9.7c-8.1-0.8-15.7-1.6-23.3-2.4
			c-15.7-1.6-28.7,3.8-39.7,14.8c-6.8,6.9-13.2,14.1-18.7,22.1c-1.7,2.5-4.3,4.6-3.3,8.4c0.3,0.9-0.5,2.7-2,2c-2.8-1.3-3,1-4,2.3
			c-1.4,1.8-1.9,4.2-4.5,5.6c0.8-2.9,1.5-5.4,2.2-8.2c-4.9-0.4-9.1,0.7-12.7,3.8c-8.6,7.4-12.9,16.9-13.3,28
			c-0.3,6.8,4.8,11.7,11.7,11.8c5.8,0.1,11.7,0.5,17.3,1.9c6.9,1.7,13.8,2.2,20.8,2c11.5-0.4,22.9,0.4,34.3,2.7
			c3.4,0.7,7.1,0.9,10.4,0.2c10.6-2.3,21.2-1.6,31.8-1.9c8.5-0.2,17.1-0.3,25.5-0.3c11.9,0.1,23.7,1.4,35.7,1.1
			c15.6-0.5,31.2-2.4,46.9-1.2c9.5,0.7,18.9,0.4,28.3-1.3c7-1.3,10.5-8,6.7-13.8c-1.2-1.8-2.1-3.9-3.5-5.5
			c-5.9-6.7-11.5-13.6-22.3-10.1c-4.3,1.4-6.7-1.2-6.2-5.8c0.5-4.1,0.1-8.2-2.3-11.5C444.7,572.6,432.2,560.1,411.4,557.9z
			 M228.4,965.5c-6.2,0.1-10.9,2.4-15.6,4.9c-8.2,4.5-14.9,10.9-21.5,17.3c-2.2,2.1-4.5,3.1-7,0.8c-2.3-2-2-4.4-0.3-6.7
			c1.3-1.7,2.6-3.5,4.1-5c4.6-4.6,9.5-8.8,14.7-12.7c0.9-0.7,2.3-0.9,1.7-3c-4.7-14.4-11.1-27.9-23.1-37.9
			c-10.6-8.8-22.7-12.5-36.7-10.9c-10.1,1.2-18.8,5.1-27,10.8c-2.5,1.8-5.4,4.6-8.5,2.7c-3.1-1.8-4.2,0-5.7,1.6
			c-13.6,13.9-16.2,31.5-17.1,49.8c-0.1,1.3,0.1,2.5,2,2.8c15.1,2.3,24.1,12.6,31.2,24.9c1.2,2,1.8,2.6,4,1.3
			c6.5-4.2,13.9-6.5,21.5-7.7c8-1.3,16-3.1,24.2-3.2c3.3,0,5.8,1.8,6.1,5.4c0.3,3.5-1.4,5.7-4.8,6.5c-5.3,1.3-10.6,3.1-16,3.7
			c-18.6,2.3-32.5,11.6-43.2,26.7c-3.9,5.6-6.8,11.6-10,17.5c-4.4,8.1-2.9,11.9,5,16.8c13.1,8.2,27.6,10,42.7,9.4
			c19.2-0.8,37.8-6.1,56.9-7c11.3-0.6,17.9-4.2,23.5-14.2c8.5-15.1,21.1-26.5,38.9-30.6c1.5-0.3,3.6-0.3,4.6-2.5
			c-18.8-3.4-30.4-16.1-40.7-30.4C225.3,987.3,221.3,977.3,228.4,965.5z M1294.5,907.2c-2.5-7.5-3.5-14.5-4.4-21.6
			c-4-32.5-3.4-65.2-3.9-97.8c-0.2-12.3,0.1-12.4-12.7-10.4c-5.4,0.8-10.8,2.2-16.4,1.5c-7-0.9-7.1-0.8-5.9,6.3
			c0.1,0.3,0.2,0.6,0.2,1c6,36.3,11.9,72.7,7.3,109.7c-0.3,2.8,0.9,3.4,3.1,3.8c3.9,0.7,7.7,2.1,9.5,5.7c1.3,2.4,2.6,2.1,4.7,2.1
			c10.6-0.4,20.7-1,29.7,7.4c7.8,7.3,13,15.4,15,25.7c0.6,2.9,0.5,6-0.7,8.9c-3.1,7.6-3,7.6,5.2,7.9c0.8,0,1.6,0,2.5,0
			c-0.6-2.1-1.3-3.8-1.5-5.6c-0.5-4.2,3.2-9.2,5.6-7.6c3.5,2.3,5.9,0.3,8.5-0.8c17.4-7,21-14.8,13.8-32.2c-8-19.2-20-36.1-34.1-51.3
			c-4.9-5.3-11.2-8.6-18.4-10.4c-4.1-1-3.9,0.5-3.9,3.4c0.1,13.5,0.2,27-0.9,40.5C1296.5,897.7,1296.5,902.3,1294.5,907.2z
			 M1398.9,628.5c0.2,2.8,0.3,4.3,0.5,5.8c2.3,17.4,4.1,34.7,3.8,52.3c-0.5,28.7-0.1,57.3,0.6,86c0.1,3,1,4.8,3.3,6.6
			c13.8,10.7,29.6,17.9,45.2,25.2c4.1,1.9,8.4,2.1,12.7,1.5c4.7-0.6,9.3-0.3,13.9,0.9c3.1,0.8,6.2,1.2,9.1-0.8
			c4.6-3.2,9.9-4.7,15.3-5.9c4.2-0.9,8.2-2.3,11.4-6.1c-7.9-3.8-14.4-9.3-21.2-14.3c-19.7-14.5-36.3-32.5-48.2-53.4
			c-17.1-30.2-34-60.8-44.7-94.1C1400.3,631.4,1399.8,630.6,1398.9,628.5z M1648.9,728.8c-9.4,4.1-17.5,8.3-25.5,12.7
			c-4.5,2.4-8.8,5.5-14.2,5.9c-2.7,0.2-2,2.1-1.9,3.6c0.2,6.2,0.4,12.3,0.5,18.5c0.7,31.3,2.8,62.5,6.9,93.6
			c0.3,2.2,0.7,3.5,3.4,3.8c9.9,1.3,19.8,2.3,29.6,4.2c8.8,1.7,8.8,1.2,7.9-8c-3.5-37-7.7-73.9-6.7-111.1
			C1649.1,744.5,1648.9,737.1,1648.9,728.8z M1383,803.5c-0.4,0-0.7,0-1.1,0c0-10,0-20,0-29.9c0-1.9-0.3-3.5-1.6-5
			c-6.1-6.9-10.3-15-14.6-23.1c-5.6-10.5-12-20.7-17.9-31.1c-1.8-3.2-4.8-2.6-6.9-2c-2.2,0.6-0.6,3-0.1,4.5c0.9,3.1,0.1,6.3,0.4,9.4
			c2.6,33.7,5.2,67.3,7.8,101c0.1,1,0.3,1.9,0.5,2.8c4.4-1,6,3.8,9.7,4.7c6.7,1.6,13.5,1.9,20.3,2.3c3,0.2,3.6-1,3.6-3.6
			C1383,823.4,1383,813.4,1383,803.5z M66.6,1046.8c7.4,0.4,14.7-1.3,22.2-2c1.9-0.2,3-0.9,3.8-2.6c4.9-9.5,11-18.2,18.4-25.9
			c0.9-1,2.2-1.9,0.8-3.3c-5.1-5.4-8.6-12.4-14.8-16.8c-2.9-2-5.7-5.4-10.1-2.5c-0.6,0.4-2.1,0.1-2.8-0.4c-5.3-3.7-9.8-1.1-14.1,1.9
			c-3.4,2.4-5.9,7.5-11.3,3.5c-0.3-0.2-1.2,0.5-1.8,0.8c-11.7,5.6-19.6,19.6-18.3,32.4c0.7,7,4.5,11.5,11.4,13.3
			C55.4,1046.6,60.9,1047.1,66.6,1046.8z M1754,801.9c-9.3-7.3-19.6-10.8-29.5-15.1c-15.3-6.6-30.3-5.4-45.5,0.7
			c-4.2,1.7-5,3.9-4.7,8.1c1.9,24.4,4.9,48.7,4.8,73.2c0,1.2-1.3,3.6,1.5,3.6c2.3,0,4-1,3.5-4.1c-0.7-4.6-0.5-9.2,1.1-13.8
			c7-18.9,19.3-33.2,37.1-42.7C1732,806.7,1742.4,804.1,1754,801.9z M1341.9,862c-0.2,0.5-0.1-0.8,0.5-1.1c3.9-1.9,2.5-4.6,1.5-7.4
			c-1.7-4.9-2.3-10.1-2.8-15.2c-2.9-25.7-4.3-51.5-5.7-77.2c-0.9-16.4-3.4-32.8-0.4-49.3c0.6-3.5,2-5.8,5.1-6.5
			c3.4-0.7,2.9-2.3,1.8-4.4c-1.4-2.6-1.3-6.6-6.2-6.1c-1.7,0.2-2.9-2.1-3.7-3.7c-1.5-2.8-2.3-5.9-2.8-9c-2.7-15.4-4.8-30.9-8.8-46.1
			c-0.3-1.1,0.5-3.6-2.1-2.9c-1.7,0.4-3.7,1.1-3.4,3.6c0.1,0.5,0.1,1,0.1,1.5c1.9,22.9,3.4,45.9,5.9,68.7
			c3.8,34.9,7.4,69.9,8.2,105.1c0.3,11.8,0,23.7,0,35.5c0,1.4-0.5,3,0.9,4.2C1334,855.2,1338.1,858.8,1341.9,862z M688.1,645.5
			c-2.2-3.1-2.7-6.4-3.2-9.7c-1.5-10.7-1.2-21.6-2.1-32.4c-1.3-16.6-2.6-33.2-9.6-48.7c-1.3-2.9-1.7-6-1.9-9.2
			c-0.2-4.8-1.7-6-6.2-4.8c-4.6,1.3-8.4,3.9-12.1,6.8c-2.1,1.6-2.4,3.1-1.3,5.5c6.7,13.8,11.1,28.5,17,42.6
			c5.8,13.8,8.8,28.2,8.5,43.3C677.1,649.3,677.2,649.3,688.1,645.5z M1395.7,768.8c0-2.1,0-3.8,0-5.6c-0.6-21-2-41.9-1.6-62.9
			c0.5-27.6-2.3-54.8-5.8-82.1c-0.2-1.4,0.3-2.9-2.1-3.1c-6.3-0.4-8.3,1.2-6.8,7.1c4.5,18.8,4.4,38,5.5,57c0.4,6.4-0.7,7.4-7.1,6.9
			c-0.6,0-1.4,0-1.8,0.4c-8,5.7-17,8.5-26.9,8.6c2.9,8.2,2.9,8.2,10.3,5.8c5.4-1.8,10.7-3.5,16.2-5.1c2.5-0.7,5.2-0.8,6.2-4
			c0.4-1.5,2.1-2.1,3.8-1.7c1.6,0.4,2.6,1.6,2.6,3.3c0.1,3.3-0.1,6.6,0.1,9.8c1.6,19.9,2.9,39.8,3.4,59.8
			C1391.6,765.7,1392.6,767.7,1395.7,768.8z M1598.4,777.2c-6.7,5.1-7.8,11.2-6.7,18.7c2,13.2,3.1,26.5,4.3,39.7
			c2.1,24.4,2.1,48.9,3.2,73.4c0.1,2.1,0,4.2,1.3,6.2c1.1,1.8,1.8,1.9,3.3,0.7c10.2-8.5,11.4-4.3,7.3-18.6c-0.1-0.3-0.1-0.7-0.2-1
			c-6.3-29.9-9.2-60.2-11.1-90.6C1599.3,796.3,1598.9,786.9,1598.4,777.2z M1539.3,792.8c5.2-0.5,10.9-0.4,16.5-1.2
			c7.9-1.1,15.7-3.1,22.7-7.1c1.9-1.1,3.5-2.2,3.4-5c-0.2-17.5-1.4-34.9-4.6-52.5C1572.7,753.8,1554.5,772.2,1539.3,792.8z
			 M1378.8,703.9c-6.3,2-12.2,4.2-18.3,5.7c-3.4,0.9-4,1.8-2,4.8c7.2,11.4,14.2,22.9,20.4,34.9c0.4,0.8,0.6,2,2.2,1.7
			C1380.3,735.4,1379.6,719.9,1378.8,703.9z M1633.7,894c-4.5-1.3-8.2-2.3-12-3.5c-1.5-0.4-2.9-1.2-2.6-3.1c0.3-1.6,1.7-1.9,3-2.2
			c2.7-0.6,5.2,0.5,7.8,1.3c8.1,2.5,16,3.2,22.8-3.4c-11.9-3.1-24-5.7-36.5-8c1.4,10.3,2.3,20.6,0.3,31.1c1.1-1.9,6-1,3.5-5.4
			c-0.8-1.4,0.8-2.1,2.1-1.8C1626.9,900.3,1629.7,896.7,1633.7,894z M1392.9,781.3c0,9.8,0,19.3,0,28.8c0,8-0.1,16,0,24
			c0,4.8,4.3,3.7,6.7,3.8c3.1,0.2,1.3-2.8,1.1-4.1c-3.2-15.5-5.1-31.2-4.7-47.1C1395.9,784.2,1395.7,782,1392.9,781.3z
			 M1022.9,729.4c-4.3,1.2-8.3,3.3-12.9,2.7c-1.2-0.2-2.2,0.3-1.7,1.5c0.8,2.1-1.6,5.6,1,6.1c4.3,0.8,9.2,1.2,13.2-0.2
			c2.7-1,0.3-5.6,0.8-8.6C1023.4,730.5,1023.1,730,1022.9,729.4z M1319.5,844.1c1.5-5.5-0.1-7.4-5.6-7.1c-4.6,0.2-9.2-1.1-13.8-1.7
			c-0.9-0.1-2.2-1.2-2.4,0.3c-0.3,2.1-0.5,4.6,0.4,6.3c0.9,1.8,3.6,0.9,4.8-0.1c3-2.4,5.9-1.6,8.9-0.6
			C1314.3,841.9,1316.7,843,1319.5,844.1z M532.1,1062.4c0.7,0.6,1.2,1.1,1.8,1.6c6.6,5.9,15.1,8.2,22.7,12.4
			c2.3,1.3,4.2,1.3,6.5,0.5c1.2-0.4,3-0.3,2.9-2c-0.1-1.6-2-1.4-3.2-1.5c-9.7-1.4-18.6-5-26.9-10.2
			C534.9,1062.4,533.8,1061.6,532.1,1062.4z M369.1,1023.1c-2.6-1.6-4.6-4.7-6.9-3.6c-2.7,1.2-3.7,4.6-3.8,8.4
			C362,1026.2,365.1,1024.8,369.1,1023.1z M1582.9,679.1c2.8-5.8,1.3-10.1-0.8-14.3C1582.4,669.1,1582.6,673.4,1582.9,679.1z
			 M1586.8,699.8c-3.2,6.9-2.8,10.2,1.5,12.5C1587.8,708.3,1587.3,704.4,1586.8,699.8z M1586.2,665.5c0.2,0,0.4,0,0.6,0.1
			c0.3-2.9,0.5-5.9,0.8-8.8c0.1-1,0.2-2.2-1.3-2c-1,0.1-1,1-0.9,1.9C1585.7,659.6,1585.9,662.6,1586.2,665.5z M1014.5,818.1
			c4.1,4.4,4.1,4.4,7.2,2.1C1019.3,819.7,1017.5,818,1014.5,818.1z M1011.4,817.5c0.5,0.2,1,0.4,1.4,0.4c0.3,0,0.8-0.2,0.8-0.3
			c-0.2-0.8-0.9-0.7-1.4-0.6C1011.9,817,1011.7,817.3,1011.4,817.5z M1064.4,840.1c-0.1,0.1-0.2,0.2-0.4,0.4
			c0.2,0.1,0.4,0.3,0.7,0.3c0.1,0,0.2-0.2,0.3-0.3C1064.8,840.4,1064.6,840.3,1064.4,840.1z M556.8,1080.4c-0.1-0.1-0.2-0.2-0.3-0.3
			c-0.1,0.2-0.3,0.4-0.3,0.6c0,0.1,0.2,0.2,0.3,0.3C556.6,1080.8,556.7,1080.6,556.8,1080.4z"/>
		<path class="st-map-0" d="M1058.9,566c2.4,3.3,5.8,5.9,6.8,10.2c0.3,1.1,0.7,2.5-0.2,3.3c-1,0.9-2.2,0-3.2-0.5c-2.1-1-4.2-2.1-6-3.5
			c-6.7-5.1-13.5-4.7-20.4-0.5c-1.3,0.8-2.5,1.6-3.8,2.4c-3.7,2.1-5.1,3.7-0.7,7.2c7.4,5.9,12.5,13.3,11.6,23.6
			c-0.2,2.5-1.3,4.5-2.8,6.2c-2.2,2.5-4.6,2.3-6.9,0c-0.8-0.8-1.6-1.8-2-2.9c-3.5-11.4-12.3-17.9-21.7-23.8
			c-1.3-0.8-2.5-1.6-3.8-2.4c-12.2-7.6-12.7-7.7-17.9,5.9c-13,33.8-30.9,65.2-47.3,97.2c-5,9.7-12,18.4-16.1,28.6
			c-1.2,2.9-2.9,5.6-3.6,8.7c-2.4,10.3-9.6,18.2-13.7,27.6c-0.4,0.9-0.9,1.8-1.2,2.7c-2.1,5.6-5.9,7.1-11.4,4.6
			c-4.8-2.1-6.5-7.3-3.9-12.1c1.8-3.4,3.7-6.9,5.3-10.8c-4.8,3-7.8,0.5-10.6-2.6c-1.4-1.6-2.8-3.3-4.2-4.9c-1.1-2-2.3-3.9-4.3-5.2
			c0,0,0.1,0.1,0.1,0.1c-2.9-4.8-6.4-9.1-10.5-13c-4.1-7.9-9.6-14.7-15.1-21.6c-5-6.3-10-12.5-14.3-19.3c-14-22-29.5-43.1-43.6-65.1
			c-11.3-17.7-21.8-35.8-30.9-54.6c-2.3-4.7-5.1-5.3-9.5-3.7c-4.7,1.6-8.6,4.5-11.9,8c-5.4,5.7-10.5,11.6-15.7,17.4
			c-4.3,4.7-9,8.9-16,11.5c6.1-22.1,17.8-38.9,38.3-48.9c2.6-1.3,2.5-1.9,1.1-4.1c-15.3-25.1-31.7-49.7-43.2-77
			c-3-7.1-7.5-13.4-11.8-19.7c-14.5-21.3-26-44.2-34.8-68.3c-3.4-9.3-8.8-17.5-12.1-26.8c-7.5-21.3-13.9-43-19-65
			c-8.6-36.7-11.9-74-10.7-111.5c1-33.3,6.8-66,22.5-95.9c16.6-31.8,38.7-59.3,67.2-81.4c9.3-7.3,20.3-12.1,30.1-18.7
			c22.6-15.2,46.6-27.6,72.3-36.6c18.5-6.5,37.3-11.7,57.1-12.9c29.2-1.7,57.7,1.6,85.1,11.9c14,5.3,26.9,12.7,39.3,21.3
			c9,6.2,18.2,12.1,26.7,19.1c8.3,6.8,15.4,14.1,20.3,23.6c11,21.3,23.4,41.9,32.6,63.9c8.3,19.8,15.5,40.2,21.1,61.2
			c11.6,43.7,13.1,88,11.7,132.7c-1.5,50.3-10.6,99-27.3,146.5c-5.5,15.6-11.8,30.7-18.7,45.6c-8.1,17.5-14.7,35.6-22.7,53.2
			c-10.1,21.9-21.9,43-32.2,64.8c-1.1,2.4-1.4,3.5,1.4,4.7c4.4,2,8.5,4.5,12.6,7.2c2.6,1.7,4.3,2,6.7-0.4c3.7-3.6,8.1-6.4,12.9-8.4
			c4.9-2.1,9.9-3.1,15.1-1.8c1.9,0.5,3.5,0.5,5.1-0.9l0-0.1c1.3,0.6-1.1,3.8,2.1,3.1l-0.1-0.1C1057.6,566,1058.3,566.1,1058.9,566
			L1058.9,566z M786.1,567l-0.1,0c0.2,0.5,0.3,1.2,1.1,1.1l-0.1-0.1c3.3,10,9.5,18.1,16.1,26.1l-0.1-0.1c0.3,0.5,0.7,1,1,1.5
			c0.6,0.8,1.2,1.6,1.8,2.4l-0.2,0.2l0.1-0.2c1.8,2.6,3.5,5.3,5.3,7.9c0.2,0.8,0.1,1.7,0.5,2.3c7.3,14.1,16.8,26.6,26.5,39l-0.1-0.1
			c0.4,0.7,0.8,1.4,1.1,2l-0.1-0.1c0.3,0.4,0.6,0.9,1,1.3c12.9,22.1,29.6,41.6,44,62.7c1.1,1.6,1.6,3.8,4.7,1.7
			c1.7-1.1,2.9,1.3,1.8,3c-1.5,2.4-0.6,4,0.8,5.8c1.4,1.9,2.7,3.8,4,5.7c1.5,2.4,2,5,1.2,7.8c2.3-2.7,4.6-5.3,5.4-8.8
			c1.8-2.5,2.3-5.5,3.3-8.3c3.1-8.4,6.5-16.8,11-24.5c20.6-34.5,38.7-70.1,54.3-107.1c15.7-37,37.1-71.3,52.1-108.6
			c5.7-9.4,8.8-19.9,13.2-29.8c9.8-22.4,20.5-44.4,27.3-67.9c4.3-14.8,9.4-29.4,11.9-44.7c2-4.4,3.1-9.1,3.8-13.8
			c4.4-30.7,8-61.4,7.8-92.4c-0.2-35.6-2.7-70.9-11.9-105.8c-5.9-22.1-13.3-43.7-22.4-64.4c-7.7-17.5-17.5-34.3-26-51.6
			c-5.5-11.3-13.3-20.2-23-28.3c-10-8.3-21.2-14.3-31.7-21.6c-15.3-10.7-32.7-16.9-50.9-20.8c-6.8-1.4-13.8-2.5-20.7-3.1
			c-10.3-0.8-20.8-2.7-31.2-0.7c-4.1,0.1-8.4-0.4-12.4,0.5c-18.3,3.9-36.6,7.8-53.9,15.2c-14,6-27.7,12.6-40.7,20.5L762-29
			c-2.1,0.4-3.7,1.6-5.1,3.1l0.1-0.1c-0.4,0.3-0.8,0.7-1.1,1l0.1-0.1c-0.8,0-1.5,0.3-1.9,1c-1.5,0.9-3.1,1.8-4.6,2.8
			C738.6-14.6,727-8.8,716.8-1.1c-29.5,22.2-51.6,50.8-67.6,83.9c-5.6,11.5-9.5,23.8-11.7,36.5c0,0,0-0.3,0-0.3
			c-0.2,1.2-0.3,2.3-0.5,3.5c-1.6,4.6-1.8,9.4-2.6,14.1c-4,25.2-3.2,50.5-0.9,75.8c0.3,4,0.6,7.9,0.9,11.9
			c1.8,24.8,8.5,48.6,13.9,72.7c3,9.1,6,18.1,9,27.2c0.7,2.4,1.3,4.8,2.1,7.2c3.9,11.3,10.5,21.5,14.3,32.9
			c5,14.8,12.3,28.5,19.5,42.3c7,13.5,17.6,24.9,23.6,38.8c9.5,22.3,22.6,42.6,34.3,63.7c0.2,0.4,0.5,0.7,0.7,1.1l-0.1-0.1
			c0.4,0.7,0.7,1.4,1.1,2.1l-0.1-0.1c0.4,0.7,0.7,1.3,1.1,2l0,0c0.3,0.4,0.6,0.8,0.9,1.2l-0.1-0.1c0.4,0.7,0.7,1.4,1.1,2.1l-0.1-0.1
			c0.6,0.9,1.2,1.8,1.8,2.7c0.8,1.2,1.5,2.6,2.5,3.7c10.4,13.3,18.7,27.8,25.1,43.3C785.6,566.9,785.8,567,786.1,567z"/>
		<path class="st-map-0" d="M796.5,988.3c-20.9,2-41.8,3.7-62.8,0.9c-7.6-1-14-5-20.9-7.6c-2.2-0.8-3.2-3.4-3.2-5.9
			c0-2.8,0.1-5.7,0.3-8.5c0.2-2.6,0.9-5.2-2.1-7c-1.5-0.9-1.2-3-1.3-4.7c-0.5-14.2,12.5-25,26.2-21.6c2.9,0.7,4.8,0.4,7.1-1.5
			c4.5-3.8,9.7-6.4,15.5-7.8c2.5-0.6,4.7-6.3,3.8-9.9c-0.8-3.1-3.4-1.5-5-1.3c-17.3,1.7-33.9,6.8-50.6,11.2
			c-16.4,4.3-32.8,8.7-49.6,11.6c-17.1,2.9-32.6,10.3-48.6,16.5c-11.5,4.5-22.8,9.4-33,16.4c-1.7,1.1-6.5,1.9-0.9,5.6
			c3.3,2.2-2.1,2.8-2.8,5.1c1.7,1.8,3.1,4.2,6.8,3.4c2-0.4,3.7,1.5,5,3c15.8,19.3,39.4,25.2,60.6,35.3c1.4,0.7,2.6,1.1,3.5-1
			c4.9-11.5,15.3-15.2,26.3-17.3c6.9-1.4,13.8-0.2,20.8,1.3c6.5,1.3,12.6,2.4,17.4,7.5c1.6,1.7,2.2-0.1,3-1
			c8.3-9.2,18.6-11.3,29.7-5.9c1.6,0.8,3.2,1.8,4.6,3c2.2,2,5.2,4.6,3.6,7.5c-1.4,2.4-4.8,0.4-7.3-0.2c-4.7-1.1-9.3-2.7-14.1-3
			c-2.9-0.2-5.6,0-8.2,1.7c-5.2,3.3-5.6,4.8-3,10.3c1.2,2.5,2.3,5.2,3.2,7.8c0.9,2.7,1.8,5.6-0.8,7.9c-1.8,1.6-3.2,1.3-7.4-1.6
			c-0.5,8.4-0.7,9-3.7,13c-2.5-2.1-2.7-5.2-3.5-8.1c-0.6-2.1-1.2-4.3-4-4.4c-10.8-0.5-21.6-0.7-32.4,0.6c-1.4,0.2-2.9,0.8-4,2.4
			c2.9,1.2,5.8,2.1,8.6,3.5c7.1,3.6,11.3,10.9,10.6,17.7c-0.4,3.9-2.4,6.4-6.2,6.6c-3.5,0.2-6-1.8-6.6-5.5c-0.9-5.8-4.8-8.2-10-8.8
			c-5.6-0.7-11.3-0.8-16.9-0.1c-3.8,0.5-7,1.6-8.8,5.5c-1.4,3-4,3.8-7.2,2.5c-1.4-0.5-2.8-0.9-4.3-1.3c-6.4-1.7-9.4,0.3-10.6,6.8
			c-0.4,2.4,0,5.6-3.7,5.3c-3.7-0.3-4.8-3.2-4.9-6.4c-0.3-8.7,7-15.9,16.5-15.5c4.3,0.2,7.1-0.7,10.3-3.8c5.4-5.1,13-5.6,20.2-6
			c3.2-0.2,5.4-0.8,7.4-3.7c3.2-4.8,8.1-7.5,13.8-8.2c8.8-1,17.6-1.2,26.4-0.9c3.1,0.1,6.3,0.8,9,2.9c-0.9-9-8.5-17.5-16.9-18.6
			c-10.9-1.4-21.3,0.6-30.8,6.1c-5.2,3-6.1,5.6-4.3,11.3c0.8,2.5,1.8,5-1.2,6.5c-3,1.5-5.9,0.2-7.3-2.4c-1.5-2.7-3.2-3.5-6.3-3.8
			c-3-0.3-6-1.9-8.8-3.3c-11.4-5.4-23.3-10.2-34.1-16.6c-9.6-5.7-19.8-10.7-28.9-17.4c-7.9-5.8-15.4-12.2-20.5-20.9
			c-4.6-7.9-4.1-12.2,2.4-18.6c12.7-12.5,27.6-21.6,44.9-26c24.7-6.3,48.6-15.4,73.4-21.2c8.5-2,16.6-4.7,24.9-7.3
			c18.3-5.8,37.3-8.6,56.4-9.5c7.9-0.4,8.4-0.6,8.3-8.6c-0.1-5.2,0-10.3-0.1-15.5c0-2.4,1.2-3.6,3.1-4.6c2-1,4.2-1.1,6.3-1
			c13.6,0.5,26.9-0.8,40.2-3.5c3-0.6,6-0.4,8.9,0.4c2.3,0.6,5,1.1,5.2,3.9c0.2,2.9-2.5,3.8-4.8,4.2c-12.4,2.4-24.7,5.6-37.5,5.1
			c-3.3-0.1-6.7-0.3-10-0.3c-1.2,0-2.8-0.9-3.4,1c-0.5,1.7,0.5,2.3,2,2.8c0.9,0.3,1.8,1,2.3,1.8c9.3,13.7,23.3,22.7,34.7,34.4
			c4.4,4.5,9.8,7.6,16.1,8.5c3.8,0.5,6.4,3.6,10.4,3.8c2.3,0.1,2.1,3.1,1.9,4.6c-1.1,10.5,0.6,20.9,1.9,31.3
			c1.5,11.7-0.9,23.2-0.6,34.8c0.1,4.2,1.9,8.2,1.2,12.4l0.1-0.1c-4.3,1.8-6.9,0-9.5-3.6c-6-8.2-17.3-9.7-25.4-3.9
			c-2.7,1.9-5.3,3.9-8,5.8c-1.1,0.8-2.6,1.4-3.7,0.4c-1.1-0.9-0.7-2.5-0.4-3.8c1.2-4.6,4.5-8,7.2-11.7c0.4-0.2,1-0.3,0.6-0.9
			C797.7,988.1,797,988.3,796.5,988.3z M768.8,886.2c0,4.7,0.4,9.6-0.1,14.5c-0.7,6.4-2.7,12.6-3.5,19c-0.5,4.4,1.1,6.5,5,6.5
			c9.1,0.1,16,4.9,23.1,9.7c3.6,2.4,5.7,5.5,5.6,9.9c0,1.5,0.1,2.6,1.7,3.7c8.6,5.9,11.7,18,7.2,27.4c-0.9,1.9-2.3,3.5-4.6,3
			c-2.5-0.5-3.4-2.4-3.3-4.8c0.2-3.7,0.4-7.3,0.4-11c0-2.2-0.4-4.5-3-5.5c-1.6,2.3-2.7,4.9-5.9,4.3c-2-0.3-3.8-1.7-3.4-3.7
			c0.6-3.7-2.1-2.7-5.3-2.9c3.5-1.9,4.5-4.2,6.1-6.1c1.7-2.1,2.2-5-0.1-6.6c-5.5-3.9-10.8-8.5-18.2-8.6c-2,0-4-0.3-5.8-1.4
			c-3.8-2.3-7.7-1.8-11.5-0.2c-5.9,2.5-11.3,5.6-14.6,11.4c-2.1,3.6-4,2.7-5.9-0.1c-0.7-1-0.7-2.4-2.4-2.8
			c-6.2-1.5-14.8,5.1-14.9,11.6c0,1,0.4,1.6,1.1,2.1c3.4,2.2,2.5,5.2,2.1,8.5c-1.2,11.7-3.1,11.5,10.3,11.9c0.2,0,0.5,0.3,0.8,0.5
			c-2.8,3.6,0.9,2.9,2.3,3.1c14.4,1.6,28.9,1.9,43.4,0.8c6.7-0.5,14.4-2.3,19.6,1c6.3,3.9,11.9,2.1,17.9,2.3
			c5.3,0.2,9.7,3.1,14.7,5.2c1-21.4-2.6-42.4,0.3-63.5c-10.7,1.9-18.1-0.1-27.2-8.8C789.9,906.6,778,897.4,768.8,886.2z
			 M560.1,969.4c1.8-4.5,5.2-6.9,8.8-8.9c26.6-15.2,54.7-26.7,84.6-33.5c7.8-1.8,15.7-2.9,23.5-4.8c26.6-6.4,52.6-15.8,80.2-18.1
			c2.3-0.2,2.2-1.4,2.1-3c-0.1-1.8-1-2-2.6-1.8c-3.3,0.3-6.7,0-10,0.4c-16,1.9-32.2,3.3-47.6,8.3c-9.7,3.1-19.3,6.3-29.2,8.6
			c-24,5.7-46.9,14.8-70.5,21.8c-15,4.5-27.8,12.5-39.3,22.9C557.4,964,556.7,966.2,560.1,969.4z"/>
		<path class="st-map-0" d="M1056,562c0.7-0.8,1.8-1,1.7-2.6c-0.6-8.9,2.7-16.8,7.1-24.1c15.9-26.2,36.7-46.6,65.1-59.8
			c29.1-13.6,59.1-16.9,90-11.1c17.6,3.3,34.7,9.4,48.8,21.4c2.8,2.4,5.9,4.3,9,6.3c5.3,3.5,10.2,7.5,13.6,13
			c4.6,7.3,10.3,13.9,15.5,20.8c3.5,4.7,5.9,10,7.5,15.7c0.4,1.5,0.5,3.3,3.2,2.4c14.6-5.4,29.8-3.7,45-3.6
			c19.6,0.2,36.4,8.4,52.6,18c24.2,14.4,44.3,33.3,60.9,56.1c11,15.1,16,32.3,17.9,50.7c1.2,11.4,1.8,22.9,0.3,34.4
			c-0.7,5.4-2.3,10.3-4.8,15.5c-5.1-9.7-5.8-20.4-7.4-30.8c-1.6-10.5-3-21.1-5.8-31.4c-4.7-17.7-15.7-31.3-27.5-44.5
			c-18.3-20.4-40.3-35.6-64.9-47.2c-10.8-5.1-22.4-4.5-33.7-5.9c-10.3-1.2-20.6-1.4-30.7,1.5c-2,0.6-3.5,1.2-4.8,3
			c-3.3,4.3-8.2,3.6-10.9-1.2c-0.2-0.4-0.5-0.9-0.6-1.4c-3.7-16.7-15.4-28.8-24.7-42.2c-1.5-2.2-3.1-4.5-5.2-6
			c-12.6-8.6-24-18.6-38.9-23.9c-19.7-7.1-39.4-9.3-60.2-7.3c-24.9,2.4-46.7,11.9-66.6,25.9c-16,11.2-28,26.4-37.7,43.4
			c-2.2,3.8-3.7,7.9-4,12.3c-0.3,4.4-2.1,6.9-6.6,6.9c0,0,0.1,0,0.1,0c0-0.4,0-0.8,0.1-1.1c-0.4,0-0.8,0-1.1,0.1
			c0,0,0.1,0.1,0.1,0.1C1058.8,563,1058.5,561.7,1056,562L1056,562z"/>
		<path class="st-map-1" d="M836.9,883c1.9-5.1,0.5-10.2-0.4-15.3c-2-11.8-4.2-23.6-6.2-35.4c-0.4-2.6-0.3-5.3-0.6-9.4
			c7.4,7.1,15.8,9.5,24.5,10.4c11.6,1.2,23.1,2.8,34.7,3.5c15.9,1,31.3-2,46.8-4.1c9.7-1.3,18-6.7,27.2-9.5c0.9-0.3,1.8-0.7,3.3-1.3
			c-1.3,11.9-2.5,23.2-3.7,34.6c-0.6,6-1.3,11.9-1.8,17.9c-0.4,5.1,0.3,6.2,5.3,7.9c-5.9,5.6-10.8,11.5-19.6,12.8
			c-9.2,1.3-18.2,4.1-27.5,4.4c-7.1,0.2-14.2,1-21.3-1c-8.9-2.5-18.2-1.9-27.3-1.8c-11.5,0-22-3-31.3-9.8
			C838.1,885.7,837.5,884.4,836.9,883z"/>
		<path class="st-map-0" d="M905,1143c7.2-10.6,4-26-6.9-32.6c-4.6-2.8-9.6-4.6-14.9-5.4c-3.7-0.6-7.4-1.6-8.9,3.9
			c-0.8,2.8-3.9,4-7.1,3.1c-1.1-0.3-2.2-0.7-3.3-1.2c-5.4-2.2-8.3-9.1-13-10.2c-5.8-1.3-9.9-3.9-14-7.6c-7.7-7-12.2-6.4-18.5,2.3
			c-1.4,1.9-3.4,2-5.3,1.1c-2.2-1-2.5-2.9-2.1-5.1c0.8-3.7,4.3-5.3,6.9-8.6c-3.9-0.2-7.2-0.5-10.6-0.6c-7.1-0.4-13.1-3.6-18.4-8
			c-2.1-1.7-4.1-3.9-2.3-6.9c1.9-3.1,4.5-2,7-0.7c12,6.2,23.7,6.5,35.4-1.1c2.7-1.8,6.2-5.4,9.3-2.7c2.8,2.5,0,6.2-1.7,9
			c-1.3,2.1,0.4,2.7,1.7,3.3c5.9,3.1,11.9,3,17.6-0.5c5.6-3.5,10.9-7.6,16.5-11.3c4.2-2.8,5.3-2.4,6.5,2.4c0.5,2.3,2,1.8,3.4,1.8
			c7.4-0.2,13.2-5,14.6-12.5c0.6-3,0.7-6.1,1.1-9.1c0,0-0.1,0.1-0.1,0.1c6,2.5,8.1,7.4,6.5,15.2c-1.4,7.1,0.3,9.8,7.5,11.7
			c5.9,1.6,11.5,0.9,17.1-1.5c8.8-3.8,16.4-9.5,23.8-15.4c4.2-3.3,8.4-6.6,12.6-9.8c1.9-1.4,4-2.8,6.3-0.9c2.4,2,1.8,4.7,0.9,7
			c-1.5,3.9-4.5,7-7.6,9.7c-0.9,0.7-2,1.2-2.6,2.4c5.6,1.9,10.8,1.8,16,1.1c2.6-0.3,5.2-1.2,7.8-1.6c1.9-0.3,4.3-1.1,5.2,1.5
			c0.8,2.2-0.8,3.8-2.3,5.1c-3.7,3.3-8.2,4.4-12.9,4.4c-2.6,0-3.5,0.8-3.4,3.5c0.1,2.8,0,5.7-0.6,8.4c-0.6,2.8-1.9,5.8-5.5,5.3
			c-3.3-0.5-3.7-3.5-3.8-6.2c-0.1-2.8,0.3-5.7,0.5-8.5c0.1-1.7,0.5-3.7-1.8-4c-2.9-0.3-4.8-4.6-8.4-1.8c-3.2,2.4-6.6,4.5-10,6.6
			c-6.3,3.8-13,6.9-20.5,7.4c-2.7,0.2-3.3,1.2-3,3.7c0.3,2.4,1.1,5.6-2.6,5.9c-3.8,0.3-4.6-3.1-4.6-5.9c0-3.5-1.5-4.8-4.6-5.8
			c-4.7-1.5-8.2-4.9-11.8-9.3c-0.5,5.9,1.6,10.9,1.1,15.7c-0.6,6.5,2.6,8.8,7.3,12.3c9.7,7.1,17.1,16.4,16.4,29.6
			c-0.5,10-7.4,16.7-17.2,16.9C903.6,1146.6,905.8,1145,905,1143L905,1143z M842.9,1087.1c-0.1-0.2-0.1-0.4-0.2-0.7
			c-0.1,0.1-0.3,0.1-0.4,0.2c0.2,0.1,0.4,0.3,0.7,0.4c0.8,2.5,3.2,3.6,4.9,5.4c0.9,1,1.9,3.3,3.3,2.5c5-3,7.6,1,10.9,3.1
			c1.1,0.7,2.7,2.9,3.5,1.6c1.3-2.1,4.6-2.5,4.4-5.5c-0.3-4.9-0.7-9.8-1.2-15.4C861,1085,852.6,1088.2,842.9,1087.1z M879.1,1076.1
			c0.6,4.2,1.9,8.2,1.6,12c-0.6,6,3.1,6.3,7.3,6.9c2,0.3,2.3-0.5,2.1-2.1c-0.7-4.6-0.7-9.2-0.2-13.8c0.1-1,0.6-2.7-1.4-2.3
			C885.2,1077.3,882.2,1076,879.1,1076.1z M818.8,1082.5c-0.1-0.1-0.2-0.3-0.3-0.3c-0.1,0-0.2,0.2-0.3,0.2c0.2,0.1,0.3,0.2,0.5,0.3
			C818.7,1082.7,818.8,1082.6,818.8,1082.5z"/>
		<path class="st-map-0" d="M905.1,1143c-2.3-1.6-2.6,1-3.5,1.8c-9.2,8.6-19.7,14.8-32.3,16.6c-6.8,1-13.5,0.2-18.7-4.7
			c-2.1-2-3.4-0.9-5.2,0.1c-8,4.3-16.5,7.2-25.7,7.1c-2.3,0-4.7-0.2-6.9-0.9c-6.7-2.1-12.7-5.9-19.6-7.8c-2.7-0.8-4.8-3-5.4-6.8
			c-9.5,8.4-20.2,13.4-32.4,14.8c-11.9,1.4-23.5,1-31.8-9.5c-1.6-2-2.9-0.5-4.3,0c-12.8,5.1-25.8,6.5-38.9,1.3
			c-0.9-0.4-2.1-0.6-2.7-1.2c-4.1-4.7-8.5-3.3-13.4-1.4c-6.6,2.6-13.6,3.3-20.6,1.2c-1.2-0.4-2.2-0.2-3.4-0.1
			c-7.3,1-13.4-1.1-18-7.5c-10.1,8.2-21.2,13.1-34.6,10.1c-2.7-0.6-5-1.6-7.4-3c-1.2-0.7-1.6-1.7-1.1-2.9c0.4-1,1.4-1.5,2.4-1.3
			c13.9,2.2,26.2-1.9,37.8-9.3c2.4-1.6,5.7-2.2,8.7-1c1.7,0.7,5.3-0.2,2.6,4.2c-1.1,1.9,3.5,3,4.7,2.1c2.8-1.9,4.4-0.4,6.8,0.4
			c5.8,1.8,11.8,1.7,17.7-0.1c5.7-1.8,11.4-3.7,17.1-5.5c2.4-0.8,4.9-1.1,7.4-0.5c0.2,3-2.9,3.7-4.2,6.3c7.8,2.4,15.6,2.3,23.2,0.8
			c7.5-1.4,14.8-3.8,22.2-5.7c6-1.5,6.5-1,5.5,4.8c-0.4,2.3,1.5,2.4,2.6,2.9c7.1,3,14.4,2.4,21.6,1.1c8.6-1.6,16.4-5.5,23.6-10.4
			c2.7-1.9,5.4-4,8.2-5.7c1.7-1.1,3.7-2.9,5.8-1c1.8,1.6,1.7,3.9,1.2,6.1c-0.5,2.7-2.4,4.7-3.6,7.3c3.4,1.1,6.2,4.8,10.4,1.7
			c0.8-0.6,2.1,0,2.7,0.8c6.9,7.4,15.4,6,23.8,4c7.1-1.7,14.1-4.1,21-6.4c3.3-1.1,6.6-2,10-2.3c0.1,0.4,0.4,0.7,0.3,0.9
			c-2.6,5.6-2.5,5.9,3.6,6c8.7,0.1,16.2-3.4,23.2-8c3.5-2.3,6.7-4.9,10.1-7.3c2.3-1.6,4.9-3.5,7.7-1.4c2.5,1.9,1.7,4.8,0.9,7.4
			C904.3,1141.9,903.9,1142.6,905.1,1143C905,1143,905.1,1143,905.1,1143z"/>
		<path class="st-map-0" d="M836.9,1006.1c0.4-0.2,0.9-0.3,1.2-0.6c11.4-15.6,27.7-18.1,43.8-6.2c-1-10,6.3-14.8,12.2-20.3
			c5.5-5.1,11.8-5.1,17.6-0.1c3.3,2.9,4,1.9,5.6-1.5c3.5-7.6,10-12.4,17.5-15.6c8.8-3.7,15.7-1.6,22.3,5.8c1.7,1.9,2.6,2.3,5.5,1.4
			c11.3-3.7,22.6-3.6,33.2,2.6c4.1,2.4,5.4,6.5,5.4,11.1c0,1.4-1.5,2.8,0,4.1c0,0,0-0.1,0-0.1c-1.3-0.6-1,0.4-1.1,1.1
			c0,0,0.1-0.1,0.1-0.1c-2.1,1.1-3.9,3.6-6.6,2.2c-2.5-1.3-2.1-4-1.9-6.3c0.2-3-1.1-4.6-3.8-5.6c-7.1-2.7-14.5-1.5-21.8-1.7
			c-1.8,0-1.8,1.2-2.2,2.6c-1.3,4.6-4.3,5.4-8.4,2.8c-2.9-1.9-4.6-4.8-6.6-7.5c-3.1-4.1-7-4.3-11.1-2.5c-7.4,3.3-12.5,8.8-14.2,16.9
			c-0.6,2.7-1,5.7-4.2,6c-3.1,0.3-3.9-2.6-5.5-4.7c-2.4-3.1-6.4-5.2-10.3-5.6c-3.4-0.4-6.1,2.5-7.8,5.4c-2,3.5-5.6,6.1-5.5,10.7
			c0,1-1.3,2.6-2.4,3c-1.8,0.6-2.5,1.1-2,3.2c0.6,2.2-0.6,4.3-2.8,5.3c-2.3,1.1-4.2-0.1-5.8-1.6c-11.2-9.8-17.4-10-29.3-0.9
			c-2.2,1.7-4.4,3.5-6.8,5.1c-1.2,0.8-2.7,1.7-4.2,0.6c-1.4-1-1-2.7-1-4.2C835.9,1009.4,837.6,1007.9,836.9,1006.1
			C837,1006,836.9,1006.1,836.9,1006.1z"/>
		<path class="st-map-0" d="M480.5,992.4c3.9-4.9,4.9-9.8,6.8-14.3c0.9-2.1,2-4.2,3.8-5.8c1.3-1.1,2.9-2.3,4.5-1.3c2.1,1.4,0,2.9-0.5,4.3
			c-3.9,10.7-7.2,21.4-3.6,33c1.7,5.5-0.7,7.6-6.2,6c-5-1.4-7.7-5.4-8.9-9.9c-3.3-11.7-2.3-23.1,4.8-33.4c0.9-1.4,1.9-2.8,3.7-3.1
			c1.4-0.3,2.8-0.1,3.5,1.2c1,1.7-1,1.6-1.7,2.3C481.7,977.2,481.3,984.3,480.5,992.4z"/>
		<path class="st-map-0" d="M750.1,1029c0.2-15,15.6-26.3,29.3-22.1c3.7,1.1,6.7,3.1,7,7.4c0.2,1.8-0.5,3.3-2.1,4.2
			c-1.4,0.8-2.8,0.7-4.3-0.1c-7.1-4-12.4-3.2-17.8,2.9c-2.3,2.6-4,5.7-5.6,8.8c-0.9,1.9-1.3,5.5-4,4.8
			C750.2,1034.4,750.2,1031.1,750.1,1029z"/>
		<path class="st-map-0" d="M661.1,876.3c3.9,0.4,7.1,0.7,7.4,4c0.3,3.5-2.8,3.4-5.3,3.8c-13.3,2.7-25.2,9.3-37.6,14.3
			c-2,0.8-3.9,1.8-6,2.3c-1.5,0.4-3-0.3-3.6-1.9c-0.5-1.4-0.1-2.8,1.1-3.5C631.2,886.9,646.1,880.1,661.1,876.3z"/>
		<path class="st-map-1" d="M959.6,779.9c3.1,5.4,3.1,5.4,6.4,1c1.8,0.4,3.6,0.6,5.3,1.2c7.7,2.6,15,7.7,9.9,16.4
			c-4.2-7.2-10.2-11.4-18.7-12.2c-9.9-1-19-5.6-29.1-6.4c-17.7-1.4-35.4-2.6-52.7,3.3c-0.8-2-0.2-3.5,0.3-5.1
			c12.1-3,24.3-2.1,36.5-0.8C931.5,778.8,945.6,778.7,959.6,779.9z"/>
		<path class="st-map-0" d="M468,342.1c-7.1-1.4-13.5-5.8-18.9-11.5c-1.3-1.3-0.8-3.2,0.4-4.6c1.5-1.7,3.5-2,5.4-0.8
			c2.5,1.6,4.9,3.4,7.3,5.2c2.1,1.6,3.5,1.6,5-1c2.5-4.3,6.5-7.1,11-9c1.9-0.8,4.3-1.6,5.8,0.8c1.3,2.1,0.2,4-1.3,5.4
			c-4.2,3.7-8.7,7.2-9.7,13.3C472.6,341.6,470.7,342.2,468,342.1z"/>
		<path class="st-map-0" d="M1194,348.1c-0.1-2,0.6-3.6,2.4-4.6c2.1-1.1,4.4-0.6,5.4,1c4.7,7.4,9.5,5.7,14.9,0.9c2.2-1.9,5.4-2.6,8.4-2.6
			c3.3,0,4.1,1.9,2.1,4c-5,5.3-10.3,10.3-15.6,15.4c-0.6,0.6-1.8,0.8-2.8,0.8C1203.8,363.1,1193.9,353.2,1194,348.1z"/>
		<path class="st-map-0" d="M612.7,1083c7.4,0.3,13.1,4.3,18.4,8.9c1.5,1.3,1.8,3.4,0.6,5c-1.4,2-3.3,1.1-4.9,0.2
			c-3.4-2.1-6.5-4.6-10-6.6c-2.6-1.5-5.7-3.8-7.4,1.4c-0.4,1.4-1.9,1.5-3.4,1.3c-3.8-0.6-7.6,0.5-11.3,1.1c-3.2,0.6-6.1,2.1-4.7,6.5
			c0.6,1.9-0.3,3.4-2.2,3.8c-2.3,0.4-3.2-1.1-3.6-3.2c-1-5.5,1.8-10.1,7.3-12c1.7-0.6,3.5-0.9,5.3-1.1c3.5-0.4,7.1-0.1,9.6-3.6
			C607.8,1083,610.5,1083,612.7,1083z"/>
		<path class="st-map-0" d="M383.7,361.1c-4.4,4.7-8.7,8.5-12.1,13.2c-5.2,7.2-10,7.8-17.1,2.2c-2.1-1.6-4-3.5-5.5-5.8
			c-1.4-2.1-1.3-4.1,0.5-5.9c1.8-1.8,4.3-2.2,5.8-0.4c4.9,6,8.7,4.3,13.3-0.6C372.4,359.7,377.9,360.5,383.7,361.1z"/>
		<path class="st-map-0" d="M1629,704.6c3.2-17.5,6.3-35,9.5-52.5c0.3-1.8,0.5-3.6,0.9-5.4c0.4-1.5,1.2-2.8,3.1-2.6
			c1.7,0.2,2.5,1.4,2.7,3.1c0.1,0.5,0.2,1,0.1,1.5C1643,668.3,1638.5,687.2,1629,704.6z"/>
		<path class="st-map-0" d="M780.7,1079.6c8,0,23,11.1,25.3,18.8c0.2,0.7,0.6,1.8,0.2,2.3c-0.6,0.9-1.9,0.6-2.8,0.3
			c-2.9-0.9-5.3-2.7-7.6-4.6c-4-3.3-7.8-6.8-11.9-9.8c-5-3.6-10.3-2.2-13.2,3.2c-0.8,1.4-1.5,2.8-3.3,2.1c-2-0.8-1.7-2.5-1.1-4.2
			C768.2,1082.8,773.9,1079.6,780.7,1079.6z"/>
		<path class="st-map-0" d="M762.3,1085.9c-0.2,1.2,0.1,2.9-1.1,3.5c-1.3,0.6-2.5-0.6-3.5-1.4c-1.9-1.6-3.6-3.5-5.3-5.3
			c-2.4-2.5-4.6-5.4-7.8-6.8c-2.1-0.9-4.7-2.7-6,1.3c-0.5,1.4-1.5,2.3-3.1,1.7c-1.5-0.5-1.7-1.9-1.6-3.3c0.1-2.5,1.4-4.4,3.5-5.7
			c2.5-1.5,5.2-2,8.1-1.5C753,1069.9,762.4,1079.6,762.3,1085.9z"/>
		<path class="st-map-0" d="M1013.6,1080.5c-0.1,1.7-0.1,4.5-2.6,5.3c-2.7,0.9-4.1-1.6-5.2-3.7c-3.5-6.7-2.9-14.1-3.7-21.3
			c-0.3-2.6,3.2-4.6,5.7-5.7c2.3-1,2.5,2,2.7,3.1C1011.7,1065.5,1012.6,1072.7,1013.6,1080.5z"/>
		<path class="st-map-0" d="M572,916.7c-0.8,1.6-2,3-3.6,4c-3.9,2.5-8.1,4.5-12.5,6.1c-6.4,2.3-12.9,4.4-18.1,9.2c-1.3,1.2-3,2.2-4.4,0.8
			c-1.7-1.7-0.3-3.4,1-4.7c2.5-2.5,5.4-4.5,8.5-6c8.1-3.9,16.8-6.3,24.5-11.2C569.7,913.4,571,914.4,572,916.7z"/>
		<path class="st-map-0" d="M335.8,1033.4c-10.7-4.4-20.6-9.3-30.8-13.5c-1.1-0.4-2.1-1.1-3.2-1.4c-1.9-0.5-4.5-0.4-3.7-3.4
			c0.7-2.3,3.2-2.6,5.1-2c9.7,2.9,19.4,5.9,26.7,13.6C332,1028.8,333.9,1031.1,335.8,1033.4z"/>
		<path class="st-map-0" d="M711.9,871.1c-1.9,0.1-4,0.2-4.4-2.2c-0.5-2.7,1.6-3.1,3.7-3.6c7.9-1.8,15.8-3.8,23.7-5.7
			c2.9-0.7,7.2-1.5,8,1.3c0.9,3.1-3.5,4.1-6.2,4.9C728.6,868.5,720.3,870.3,711.9,871.1z"/>
		<path class="st-map-0" d="M1162.9,412.1c-5.1-1.2-10.6-0.7-15.3-3.9c-1.4-0.9-3.2-1.8-2.4-3.8c0.9-2.1,2.6-0.6,3.9-0.2
			c5.6,1.7,10.8,1.7,15.8-2.2c3-2.3,6.6-3.9,10.5-4.3c1.5-0.1,3.2,0,3.6,1.8c0.4,1.6-0.9,2.4-2.1,3.1c-1.6,0.9-3.4,1.4-5,2.3
			c-2.2,1.2-5,1.7-5.4,5C1166.3,411.7,1164.7,412.4,1162.9,412.1z"/>
		<path class="st-map-0" d="M779.4,857.2c-0.5,0-1,0.1-1.5,0.1c-2.8,0.1-6.1-0.3-6.5-3.2c-0.4-2.5,3.2-2.3,5.1-2.8
			c4.6-1.3,9.4-2.1,14.2-2.9c1.9-0.3,4-0.2,5.9,0.1c2.1,0.3,4,1.3,4,3.8c-0.1,2.5-2.2,3.3-4.2,3.5c-5.6,0.6-11.3,0.9-16.9,1.4
			C779.4,857.2,779.4,857.2,779.4,857.2z"/>
		<path class="st-map-0" d="M776.8,1067.5c-2.3,2-4.8,1.6-7.2,1c-9.4-2.2-16.4-13.2-14.4-22.6c0.3-1.5,1-2.8,2.4-3.6
			c0.8-0.5,1.7-0.6,2.3,0c0.4,0.4,0.5,1.2,0.4,1.8c-2.5,8.6,2.7,13.3,8.8,17.6C771.6,1063.5,775,1064.4,776.8,1067.5z"/>
		<path class="st-map-0" d="M411.4,260.2c-0.3,2.9-9.6,12.1-12.6,12.3c-1.8,0.1-11.3-7-11.4-8.8c-0.2-2.5,1.9-2.4,3-1.6
			c5.4,4.1,9.6,2.4,13.6-2.2c1.3-1.4,3.4-1.9,5.5-1.9C410.9,258,411.8,258.4,411.4,260.2z"/>
		<path class="st-map-0" d="M709.1,1084.8c-2.3,3.2-5.4,3.1-7.2,0.8c-6.1-7.7-12.7-5-19.5-1.8c-3.1,1.5-6.3,2.8-9.6,4.3
			c2.5-6.8,11.8-13.3,18.6-13.2c3.2,0,5.2,1.8,7.1,4C703,1083.9,703.6,1084.1,709.1,1084.8z"/>
		<path class="st-map-0" d="M1319,821.7c0.2,2.4-0.8,3.1-3,2.3c-1.7-0.6-3.4-1.3-5-2.1c-3-1.5-5.8-3.3-9.4-2.7c-1.7,0.3-2.8-0.8-3.4-2.3
			c-0.6-1.6,0.1-3,1.4-3.9c4-2.7,8-1.6,11.9,0.2C1315.2,814.9,1318.5,817.1,1319,821.7z"/>
		<path class="st-map-0" d="M1173,665.5c0.3,4,0.9,7.1-2.8,7.6c-4.1,0.5-4.2-2.7-4.6-5.6c-0.4-3.1-0.8-6.3-0.2-9.4c0.4-2.1,0.9-4.1,3.5-4
			c2.2,0.1,2.9,1.8,3.1,3.8C1172.4,660.8,1172.8,663.8,1173,665.5z"/>
		<path class="st-map-0" d="M700.9,1109.5c-6.7,2.9-14.3,3.5-19.9,8.8c-1,1-2.2,0.5-3-0.5c-0.7-0.9-0.6-1.8-0.1-2.8
			C681.1,1109.2,694.7,1105.9,700.9,1109.5z"/>
		<path class="st-map-0" d="M1108,739.6c0.2-1.5,0.4-3,0.6-4.4c0.4-2,0.6-4.3,3.3-4.2c2.4,0,3.3,2.1,3.9,4c0.5,1.4,0.7,2.9,0.8,4.4
			c0.2,3.2-0.3,6.5-4.4,6.4C1108.6,745.7,1107.8,742.8,1108,739.6z"/>
		<path class="st-map-0" d="M1049.1,723c0.3-2.3,0.3-4.6,3-5.2c2.9-0.6,3.7,1.5,4.4,3.7c0.6,1.7,1.1,3.5,1.7,5.2c0.8,2.5-0.1,4.3-2.5,5.2
			c-2.2,0.8-3.8-0.2-4.9-2.2C1049.7,727.5,1049.5,725.2,1049.1,723z"/>
		<path class="st-map-0" d="M1177.6,659c-0.1-2.4,0.4-4.4,3.2-4.6c2.7-0.1,6.2,5.6,6,9.8c-0.1,2.2-0.9,4.4-3.6,4.6
			C1180.5,669.1,1177.7,664.1,1177.6,659z"/>
		<path class="st-map-0" d="M1165.3,852.8c-2.5-4.8-1.7-10-1.8-15c0-1.7,0.7-3.4,2.7-3.5c1.6-0.1,2.6,1.1,3.3,2.6
			C1171.8,842,1170,849,1165.3,852.8z"/>
		<path class="st-map-0" d="M1150.7,854.1c-2.9-1-6.4-2-9.8-3.3c-0.9-0.3-1.7-1.1-1.7-2.2c0-1.3,1.1-2,2.1-2.5c3.1-1.5,9.9-0.1,12.5,2.6
			c1,1,2.4,2.2,1.4,3.8C1154.4,853.9,1152.8,854.2,1150.7,854.1z"/>
		<path class="st-map-0" d="M1126.7,864.5c-4.1-8.3-2.6-15.4-1.3-22.5c0.2-0.9,0.8-1.9,2-1.9c0.9,0,1.6,0.7,1.6,1.6
			C1128.6,848.9,1130.6,856.4,1126.7,864.5z"/>
		<path class="st-map-0" d="M1208,719.4c0.6-2.7-1-7.2,3.3-7.1c4.6,0.1,4.1,4.8,4.5,8.1c0.3,2.6-0.2,5.1-3.4,5.7
			c-2.1,0.4-3.6-0.8-4.1-2.8C1207.9,722.1,1208,720.7,1208,719.4z"/>
		<path class="st-map-0" d="M1054.1,691.9c-0.2,1.3-0.1,2.7-0.5,3.9c-0.6,1.8-1.8,3.4-4,3.1c-2.2-0.4-1.9-2.4-1.9-4c0-2.8,0-5.6-0.2-8.5
			c-0.1-1.7,0.1-3.1,1.9-3.5c1.8-0.4,2.8,0.7,3.5,2.2C1053.9,687.2,1054.1,689.5,1054.1,691.9z"/>
		<path class="st-map-0" d="M1221,738.7c-0.1-1.7,0.2-3.4,1.2-4.8c1.1-1.6,2.6-2,4.3-0.9c2.6,1.7,3,10.9,0.7,12.9
			c-1.7,1.5-3.1,0.7-4.3-0.7C1221.1,743.4,1221,741,1221,738.7z"/>
		<path class="st-map-0" d="M1228.4,798.3c0-1.5-0.1-1.8,0-2.1c0.5-2.2-0.1-5.6,2.7-5.8c3-0.2,2.6,3.2,3,5.3c0.4,2.3,0.8,4.6,1,6.8
			c0.2,1.8-0.4,3.4-2.4,3.7c-2.4,0.4-3.2-1.3-3.6-3.2C1228.7,801.2,1228.5,799.2,1228.4,798.3z"/>
		<path class="st-map-0" d="M1052,668.8c-0.1,1.3,0,2.7-0.2,3.9c-0.3,1.6-1.4,2.6-3.1,2.6c-1.4,0-2.5-0.8-2.9-2.3
			c-1-3.8-0.3-7.5,0.7-11.2c0.2-0.9,1.1-1.7,2.2-1.6c1.1,0.1,1.8,0.9,2.2,1.8C1051.6,664.2,1052.1,666.5,1052,668.8z"/>
		<path class="st-map-0" d="M1259.8,363.6c0.1,3.4-3.3,7.3-6,7.3c-2.7,0-7.1-4.7-6.9-7.5c0-0.2,0-0.3,0.1-0.5c0.5-1.5,2.1-2.6,3-1.9
			c2.9,2.5,6.2,0.1,9.1,1.2C1259.5,362.6,1259.7,363.4,1259.8,363.6z"/>
		<path class="st-map-0" d="M1113.1,711.8c0.1,3.2,0.1,6.3-3.7,6.2c-3.8-0.1-3.9-3.2-3.4-5.9c0.5-2.8-0.1-7.4,3.4-7.4
			C1113.6,704.7,1112.6,709.3,1113.1,711.8z"/>
		<path class="st-map-0" d="M725.2,1120.4c-5-0.2-7.6-3.2-9.5-7.1c-0.6-1.2-0.7-2.3,0.4-3.1c1.3-1,2.6-0.4,3.4,0.8
			c1.6,2.4,3.7,4.1,6.6,4.8c1.4,0.3,3.2,0.9,2.9,2.7C728.6,1120.5,726.6,1120.3,725.2,1120.4z"/>
		<path class="st-map-0" d="M1237.3,831.6c0,2.7,0,5.3-3.3,5.4c-2.9,0.1-3.5-2.4-3.5-4.5c0-3-1.9-7.8,3-8
			C1237.6,824.3,1236.8,828.9,1237.3,831.6z"/>
		<path class="st-map-0" d="M1215.9,795c0,3.1-1,5.1-3.9,5.1c-3.2,0-4.2-2.2-4-5c0.1-2.7,0.3-6,3.5-6.2
			C1215.8,788.6,1214.8,792.9,1215.9,795z"/>
		<path class="st-map-0" d="M1219.9,715.4c-0.1-2.2-0.2-4.7,2.6-5.1c3.1-0.5,3.7,2.1,4.1,4.5c0.1,0.5,0.1,1,0.2,1.5c0.2,2.8,0,6.1-3,6.4
			c-3.4,0.4-3.4-3.2-3.8-5.7C1219.9,716.4,1219.9,715.9,1219.9,715.4z"/>
		<path class="st-map-0" d="M1126.9,642.4c3.9-1.7,8.1-2,12.3-1.6c1.9,0.2,3.3,1.1,3.2,3.1c-0.2,1.9-2,2.1-3.5,1.9c-4-0.6-8-1.3-12-2
			C1126.9,643.3,1126.9,642.9,1126.9,642.4z"/>
		<path class="st-map-0" d="M586,1133.7c-0.1,2.4-1.3,3.4-3.2,3.2c-3.2-0.4-5-2.3-5.1-5.6c0-2.8,1.8-4.4,4.3-4.4
			C587.3,1127,582.9,1132.7,586,1133.7z"/>
		<path class="st-map-0" d="M1068,667.2c0.2,2.7-0.2,5.3-3.5,5.4c-2.3,0-3.8-2-3.1-4.1c0.8-2.5-0.6-7,3.6-7.1
			C1068.1,661.3,1067.9,664.7,1068,667.2z"/>
		<path class="st-map-0" d="M1125.7,733.6c0.4-1.9-1-5,2.3-5c2.9,0,3.3,2.9,3.2,5.3c-0.1,2.2,0.4,5.4-2.9,5.3
			C1124.8,739,1126.2,735.7,1125.7,733.6z"/>
		<path class="st-map-0" d="M1225.5,819.5c0,2.4-0.8,4.6-3.5,4.4c-2.6-0.2-2.6-2.6-2.6-4.6c0-2.3,0.4-4.8,3.1-4.7
			C1225.2,814.6,1225.5,817.2,1225.5,819.5z"/>
		<path class="st-map-0" d="M732.4,1057.1c0.1-7.9-6.4-12.6-9.2-19C728,1039.8,733.5,1050.7,732.4,1057.1z"/>
		<path class="st-map-0" d="M1125,712c0.2-1.9,0-4.6,2.5-4.6c2.5,0,2.8,2.9,3.3,4.9c0.5,1.9-0.9,3.2-2.7,3.3
			C1125.9,715.6,1124.9,714.1,1125,712z"/>
		<path class="st-map-0" d="M1053.7,1123.4c1.5,0.3,2.8,1.1,2.2,2.6c-0.8,1.9-1.9,4.1-4.1,4.4c-1.7,0.3-2.4-1.6-2.4-3.1
			C1049.5,1124.6,1051.5,1123.9,1053.7,1123.4z"/>
		<path class="st-map-1" d="M866.5,712.1c4.1,3.8,7.6,8.2,10.5,13C870.1,723.5,868.4,717.7,866.5,712.1z"/>
		<path class="st-map-0" d="M593.9,1128.2c-2.2-0.2-2.8-1.4-2.7-3.1c0.1-2.2,1.6-3.3,3.6-3.4c2.1-0.1,2.4,1.5,2.4,3
			C597.1,1127,595.6,1127.9,593.9,1128.2z"/>
		<path class="st-map-1" d="M873.1,780.3c0.1,2,3.3,3.5,1.7,5.3c-1.6,1.8-3.4-0.8-5.3-1c-1.3-0.2-2.5-0.5-3.8-0.8
			C867.8,781.8,870.7,781.7,873.1,780.3z"/>
		<path class="st-map-0" d="M669.2,1091c-0.7,2.9-2.6,5.1-1.9,7.9c0.2,0.9-0.6,1.6-1.5,1.6c-1.2,0-1.8-0.8-1.7-1.9
			C664.6,1095.5,665.3,1092.5,669.2,1091z"/>
		<path class="st-map-0" d="M1172.9,875.1c-0.3,1.9-1.5,3.3-3.1,3.5c-2,0.2-2.5-1.9-2.6-3.5c-0.1-1.7,1.2-2.8,2.8-2.8
			C1171.8,872.2,1172.6,873.5,1172.9,875.1z"/>
		<path class="st-map-0" d="M953.2,1137.8c1.9,0.2,2.2,1.8,2.4,3.2c0.1,1.2-0.4,2.5-1.9,2.2c-1.6-0.4-2.9-1.6-2.9-3.4
			C950.8,1138.4,951.9,1137.8,953.2,1137.8z"/>
		<path class="st-map-0" d="M974.3,1120.8c-1.4,0.1-1.9-0.8-2.1-1.8c-0.3-1.3,0.4-2.3,1.6-2.6c1.3-0.3,2.2,0.5,2.3,1.9
			C976.2,1119.6,975.2,1120.3,974.3,1120.8z"/>
		<path class="st-map-0" d="M892.9,1015.1c1.6,0,1.7,1.1,2,2c0.4,1.3-0.3,2.5-1.4,2.9c-1.1,0.4-1.9-0.7-2.1-1.6
			C890.9,1016.8,892,1015.9,892.9,1015.1z"/>
		<path class="st-map-1" d="M876.9,725c2,1.2,3.2,3.1,4.3,5.2C879,729.1,877,727.8,876.9,725z"/>
		<path class="st-map-0" d="M898.1,1045.9c-0.6,0.9-1,0.2-1.4-0.1c0.1-0.2,0.3-0.4,0.4-0.6c0.3,0.3,0.6,0.6,0.9,0.9
			C898,1046,898.1,1045.9,898.1,1045.9z"/>
		<path class="st-map-1" d="M967.7,806.4c-8.9,8.4-20.6,11.1-31.7,14.9c-6.9,2.3-14.2,3.4-21.6,2.7c-0.7-0.1-1.3,0-2,0.1
			c-22.5,5.1-44.5-0.2-66.6-3c-4.3-0.5-7.7-2.8-10.4-6.2c-2.3-2.9-2.1-5.5,0.5-7.9c8-7.3,17.5-12,27.6-15.6c0.8-0.3,2.5-1.6,2.8,1.1
			c0.2,1.7,2.2,1,3.4,0.9c3.9-0.6,7.9-1.3,11.8-2.2c23.6-5.5,46.9-3.8,69.9,3.2c4.2,1.3,8.5,1.7,12.7,2.5c3,0.6,5.8,1.4,5.9,5.3
			c-4.6-1.5-9.3-2.5-14.4-2.1C960.8,799.9,965,801.8,967.7,806.4z"/>
		<path class="st-map-1" d="M785.4,566.7c-6.4-15.6-14.7-30.1-25.1-43.3c-0.9-1.2-1.6-2.5-2.5-3.7c-0.4-1.1-0.3-2.4-1.8-2.7
			c0,0,0.1,0.1,0.1,0.1c-0.4-0.7-0.7-1.4-1.1-2.1c0,0,0.1,0.1,0.1,0.1c-0.3-0.4-0.6-0.8-0.9-1.2c0,0,0,0,0,0c-0.4-0.7-0.7-1.3-1.1-2
			c0,0,0.1,0.1,0.1,0.1c-0.1-0.9-0.2-1.7-1.1-2.1c0,0,0.1,0.1,0.1,0.1c-0.2-0.4-0.5-0.7-0.7-1.1c-11.7-21.1-24.8-41.4-34.3-63.7
			c-6-13.9-16.6-25.3-23.6-38.8c-7.2-13.8-14.6-27.6-19.5-42.3c-3.9-11.4-10.5-21.6-14.3-32.9c-0.8-2.4-1.4-4.8-2.1-7.2
			c0.8-1.8,0.8-3.5,0.1-5.3c-2-5.3-3.7-10.6-5.9-15.8c-0.9-2.1,0.1-5.2-3.1-6.1c-5.4-24.1-12.1-47.9-13.9-72.7
			c-0.3-4-0.6-7.9-0.9-11.9c1.2-2.3,5.4-2.2,4.7-6.2c-1-5.7-2-11.5-2.6-17.2c-1.2-11.2-2.6-22.4-0.2-33.6
			c2.3-10.9,2.2-21.9,1.6-32.9c0.2-1.2,0.3-2.3,0.5-3.5c0,0,0,0.3,0,0.3c2.2-12.7,6.1-25,11.7-36.5c16-33.1,38.1-61.7,67.6-83.9
			c10.2-7.6,21.7-13.5,32.7-20.1c1.5-0.9,3.1-1.9,4.6-2.8c0.6-0.3,1.3-0.7,1.9-1c0,0-0.1,0.1-0.1,0.1c0.4-0.3,0.8-0.7,1.1-1
			c0,0-0.1,0.1-0.1,0.1c2-0.5,4.5-0.2,5.1-3.1c0,0-0.1,0.1-0.1,0.1c2.2,0.4,3.9-0.9,5.5-1.8c15.9-8.6,32.3-16.1,49.6-21.5
			c15.1-4.7,30.5-7.9,46.2-8.8c3.1-0.2,5.1-0.9,5.8-4.1c10.4-2,20.9-0.2,31.2,0.7c6.8,0.6,13.8,1.7,20.7,3.1
			c18.2,3.8,35.7,10,50.9,20.8c10.4,7.3,21.7,13.3,31.7,21.6c9.8,8.1,17.6,17,23,28.3c8.4,17.3,18.3,34.1,26,51.6
			c9.1,20.7,16.5,42.3,22.4,64.4c9.2,34.8,11.6,70.1,11.9,105.8c0.2,31-3.5,61.8-7.8,92.4c-0.7,4.7-1.7,9.4-3.8,13.8
			c-2.7,2.3-2.4,5.7-3.4,8.6c-6,16.2-11.7,32.4-17.5,48.6c-6.1,16.8-12.3,33.6-18.4,50.4c-4.3,11.6-8.7,23.3-13,34.9
			c-15.1,37.3-36.5,71.6-52.1,108.6c-15.6,37-33.8,72.6-54.3,107.1c-4.6,7.7-8,16.1-11,24.5c-1,2.8-1.6,5.8-3.3,8.3
			c-2.3-0.1-4.6-0.7-6.6,1c-1.3-1.9-2.6-3.8-4-5.7c-1.3-1.8-2.3-3.4-0.8-5.8c1.1-1.7-0.2-4.2-1.8-3c-3.1,2.1-3.6-0.2-4.7-1.7
			c-14.4-21.1-31.1-40.5-44-62.7c-0.3-0.4-0.6-0.9-1-1.3c0,0,0.1,0.1,0.1,0.1c-0.4-0.7-0.1-1.7-1.1-2l0.1,0.1
			c0.3-1.8-0.7-3.1-1.3-4.7c-2.9-8.1-8.9-14.2-13.9-20.9c-3.9-5.3-6.7-11.4-11.8-15.8c-1.8-2.6-3.5-5.3-5.3-7.9c0,0,0.1,0.1,0.1,0.1
			c-0.6-0.8-1.2-1.6-1.8-2.4c0-0.7-0.1-1.4-1-1.5c0,0,0.1,0.1,0.1,0.1c-4.1-9.4-10.3-17.7-16.1-26.1c0,0,0.1,0.1,0.1,0.1
			c-0.1-0.6-0.4-1.1-1.1-1.1c0,0,0.1,0,0.1,0C785.8,566.9,785.6,566.8,785.4,566.7z M748.7,192.4c0.1,3.1-0.2,6.3,0.5,9.3
			c1,4.2,0,9.7,5.7,11.7c0.8,1.8,1.6,3.6,2.3,5.5c5.6,14.9,13.9,28,26,38.5c10.3,8.9,20.6,17.6,35,18.7c20,1.5,39.9-1.1,59.8-1.7
			c15-0.5,28.2-7.5,41.7-12.9c9.2-3.7,16.2-11.5,23.5-18.3c14.5-13.6,25-29.8,31.2-48.5c6.2-18.6,5.2-37.6,2.3-56.8
			c-2.5-16.7-10-30.9-19-44.6c-2.3-3.5-5.4-6.3-8.7-8.8c-10-7.6-21.1-13.2-32.2-19c-22-11.5-45-17.8-70.1-15.9
			c-10.6,0.8-20.9,2.7-28.3,10.4c-6.6,6.9-14.2,11.8-22.2,16.4c-0.9,0.5-1.6,1.1-2.5,1.7c-27.5,18.2-36.7,47.2-44.6,76.7
			C745.8,166.9,747,179.8,748.7,192.4z M860.8,468.7c0.2,2.7,0.2,4.5,0.4,6.2c0.8,8.7,0.8,17.5,4.5,25.8c2.8,6.2,8.2,9.6,14.7,8.3
			c6.1-1.2,10.1-6.4,9.9-13.1c-0.1-3.2-0.1-6.3-0.5-9.5c-1.6-11.6-1.5-23.2-1.6-34.8c0-1.6,0.5-2.8,2-3.7c5.6-3.6,11.4-6.9,17.8-8.8
			c6.2-1.9,9.1-5.8,8.2-12.6c-0.7-5.6-6-10.1-11.6-9.3c-4,0.6-8.3,0.5-12,2.8c-2.9,1.9-4.2,0.6-4.2-2.6c0.1-11.9,0.3-23.8,0.1-35.7
			c-0.2-12.4,0.7-24.9-1.2-37.3c-0.8-5.4-4.8-9.2-10.1-9.3c-5.3-0.2-10,3.6-10.9,9.1c-0.4,2.6-0.7,5.3-1,7.9
			c-3.1,28-3.6,56-4.2,84.1c0,1.9-0.2,3.5-1.8,4.8c-4.3,3.4-8.4,7.1-12.6,10.6c-0.7,0.6-1.5,1.7-2.5,0.9c-0.5-0.4-0.5-1.5-0.5-2.3
			c-0.1-6.3-0.3-12.6-0.2-19c0.1-18.1-2-36.2-0.6-54.4c0.5-5.8-2.2-10-7.2-10.8c-5.1-0.9-9.2,2.4-10.3,8.4c-1.5,7.9-2,15.9-2.1,23.9
			c-0.3,23.5-0.3,47-0.4,70.4c0,2.4-0.4,4.3-2.2,6.2c-3.1,3.3-3.6,7.5-0.6,10.9c2.5,2.9,2.9,5.7,2.8,9.1c-0.1,3.3,0,6.7,0.2,10
			c0.3,5.6,0.7,11.3,2.9,16.6c1.2,3,2.7,5.9,6.6,5.7c3.6-0.2,5-2.8,6-5.8c0.7-2.1,1.4-4.1,1.6-6.3c0.7-5.8,1.8-11.6,1.8-17.4
			c-0.1-10.6,2-19.5,12.6-24.4C856.5,472.7,858.1,470.8,860.8,468.7z M940.8,437.1c-0.1,8.2-0.1,15.7,3.5,22.6
			c2.3,4.4,5.6,7.1,10.5,7.1c3.5,0,7-4.9,7.3-10.1c1.3-18.9,2.8-37.8,5.6-56.5c2.1-14.3,3.7-28.7,3.8-43.2c0-6-3.6-10.1-8.6-10.4
			c-4.9-0.3-8.8,3.5-9.7,9.4c-1,6.6-1.9,13.2-3.1,19.7C946.3,396.3,941.6,416.7,940.8,437.1z M949.6,498.8c-4.5,1.4-10.9,1.9-15,6.3
			c-9,9.6,1.5,24.7,10.6,26.5c7.6,1.5,14.1-1.9,16-7.8c2.5-7.5,1.1-14.4-2.9-20.9C956.6,500.1,954,498.8,949.6,498.8z M804.6-1.2
			c3-1.8,5.1-2.3,6.2-4.2c0.1-0.2-1.1-1.5-1.6-1.5C806.8-6.6,806.2-4.4,804.6-1.2z"/>
		<path class="st-map-0" d="M499,766.5c0-2.8-0.1-5.6,0.7-8.4c0.9-3.2,3.7-3.4,6.1-4.4c3-1.3,2.3,1.7,3.1,2.6c5.3,5.9,4.4,13.2,3.7,20.2
			c-0.3,2.8-3.1,4.3-6.1,4c-3.3-0.3-6.2-1.5-7.1-5.1C498.6,772.5,498.8,769.5,499,766.5z"/>
		<path class="st-map-0" d="M477.8,769.5c-0.1-5.3,0.6-9.1,2.6-12.5c2.6-4.3,6.8-4.5,9.5-0.4c3.4,5.2,3.6,11.1,2,16.8
			c-0.9,3.1-3.3,6.2-7.3,5.5c-3.9-0.7-6.4-3.3-6.8-7.5C477.7,770.3,477.8,769.2,477.8,769.5z"/>
		<path class="st-map-0" d="M505.8,798.1c0.2,0.9,0.2,1.6,0.4,2.2c1.9,6.9,0.9,10.8-3.7,13.7c-3.7,2.4-10.9,1.3-14.8-2.3
			c-1.2-1.1-2.4-2.4-3.2-3.8c-1.5-2.7-3.8-5.5-0.9-8.6c3.2-3.3,5.6-0.1,7.7,1.6C497.1,805.8,500.9,801,505.8,798.1z"/>
		<path class="st-map-0" d="M1417.8,1107.7c-9.5,4.9-19.3,3.7-29.1,1.5c-4.8-1.1-9.5-3-14.2-4.6c-2.1-0.7-3.5-2-3.5-4.3
			c0-2.3,1.2-3.9,3.5-4.3c2.6-0.4,2.8-1,1.6-3.4c-3-5.7-2.6-12.1-1.9-18.1c2.8-28.5,7.2-56.8,16.1-84.2c2.1-6.3,4.8-12.4,8.5-18
			c1.4-2.1,3-4,5.4-5.1c2-0.9,3.9-0.8,5.5,0.9c1.4,1.5,1.9,3.2,0.8,5c-14.9,26.4-17.2,56.1-22.4,85c-1.8,9.7-3.1,19.4-4.5,29.1
			c-0.4,2.8-1,5.5-2.7,8.2c11.3,2.7,22.4,4.4,33.7,2c2.4-0.5,2.8-1.3,2.8-3.5c-0.9-31-1.8-61.9-2.7-92.9c-0.3-12-0.4-24,4-35.5
			c0.6-1.5,0.9-3.7,3.1-3.2c1.8,0.4,1.2,2.4,1.3,3.9c2.6,44.7,6.3,89.3,7.2,134.1c0,1,0.1,2,0.3,3c0.5,3.3,0.1,7.3,1.9,9.6
			c1.8,2.4,5.9,0.3,8.9,0.9c7.1,1.4,13.9,4.2,21.5,3.7c3.2-0.2,4.1,3.1,1.8,5.8c-2.9,3.4-6.9,4.3-11.3,4c-5.5-0.4-10.4-3.7-16.1-3.3
			c-2.6,0.2-5.1-0.3-6.7,3c-1,2.1-3.8,2.9-5.6,1.1c-2.5-2.5-4.9-1.4-7.3-0.8c-13.4,3.3-26.8,1.7-40.1-0.6c-1.9-0.3-3.8-1.3-5.6-2.2
			c-2.3-1.1-3.7-3.1-3-5.7c0.8-2.9,3.3-3,5.7-2.5c6.9,1.5,13.9,1.7,20.8,2.3c5.6,0.5,11.3,0.5,16.9-0.6
			C1420.4,1116.3,1420.6,1116.1,1417.8,1107.7z"/>
		<path class="st-map-0" d="M1397.1,1161.1c-3.8,0.1-10.8-0.3-17.5-2.3c-14.7-4.3-24.5-13.6-28.9-28.4c-0.9-3-0.6-6,0.5-8.8
			c0.9-2.2,2.6-4.2,5.4-3.1c2.4,0.9,3.8,2.1,2.1,5.2c-1,1.8,0.5,4.2,1.5,6.1c6.5,12.7,17.5,18.1,31.2,19.2
			c18.1,1.5,35.4-2.5,52.6-7.2c3.7-1,7.4-1.9,11.1-3c3.6-1,5.6-4.2,7.1-7c3.3-5.9,9.1-10.7,9.2-18.3c0-1.5,1-2.9,2.9-2.8
			c1.7,0.1,2.7,1.3,3.1,2.8c1.3,5.4,0.5,10.9-3.4,14.4c-3.5,3.2-5.8,7.3-9.5,10c-8,5.8-14.2,13.9-24.3,16.9
			C1427.1,1158.6,1414,1161.2,1397.1,1161.1z"/>
		<path class="st-map-0" d="M1302.5,1120c-3.6-1.6-6,1.2-8.7,2.5c-5.6,2.7-11.1,5-16.5-0.2c-1.6-1.5-1.9,0.2-2.5,0.9
			c-1.7,2-3.4,4.1-5.1,6.2c-6.5,8.2-15.8,7.3-24.8,7.3c-1.5,0-2.9-1-3.1-2.8c-0.3-1.9,0.8-3.2,2.3-4c2.1-1.2,4.5-1.2,6.8-1
			c6.2,0.6,10.9-1.9,15-6.3c3.1-3.3,6.3-6.4,8.8-10.2c0.9-1.4,1.8-2.9,3.9-2.5c1.8,0.3,2.5,1.8,2.7,3.2c0.8,5.1,3.6,4.7,7.2,2.9
			c2.8-1.4,5.7-2.9,8.6-3.9c3.4-1.1,6.7-0.6,8.5,3.1C1307.2,1118.1,1305.7,1120.2,1302.5,1120z"/>
		<path class="st-map-0" d="M1520.9,1084.2c-5,0.2-9.2-2.6-13.7-3.6c-4.3-0.9-7.7,5.1-12.7,5.4c-3.5,0.2-7.1,0.4-10.2-1.6
			c-2.2-1.4-3.6-3.6-2.3-6.4c1.1-2.5,3.1-1.7,5.1-1.1c4.5,1.4,8.7,0.6,11.9-3c3.5-3.9,7.4-4.7,12-2.2c5.3,2.9,11.2,2.7,17,3.1
			c2.3,0.1,5.3,0.2,5.7,2.9c0.5,2.8-2.1,4.2-4.5,5.3C1526.6,1084.1,1523.8,1084.3,1520.9,1084.2z"/>
		<path class="st-map-0" d="M1434.3,935.8c-3.4-0.2-6.6,0-8.9-3c-1.3-1.7-2-3.5-0.6-5.5c1.3-1.9,3.1-2.4,5.2-2c8.9,1.6,17.7,3,26.7,0.5
			c3.9-1.1,7.9-0.9,11.8,0.2c1.3,0.4,2.8,0.8,2.8,2.4c0,1.2-1.2,2-2.2,2.4c-6.7,2.6-13.8,4.3-20.8,4.4
			C1443.6,935.3,1438.8,935.4,1434.3,935.8z"/>
		<path class="st-map-0" d="M1344.3,1055.1c-4.1-2-6.6,0.3-9.5,2.7c-5.2,4.4-11.4,3.8-17.5,2.1c-2-0.6-3-2.1-2.7-4.2
			c0.3-1.8,1.5-3.2,3.4-3.1c7.1,0.3,13.5-0.7,17.5-7.7c0.7-1.3,3.2-1.7,4-0.5c3,3.9,6.8,2.1,10.5,1.9c0.3,0,0.7-0.1,1-0.1
			c2.5,0,6.4-1.3,7.1,1.6c0.8,3.4-3,4.7-5.8,5.7C1349.6,1054.3,1346.9,1054.6,1344.3,1055.1z"/>
		<path class="st-map-0" d="M1347.9,1098.2c-6.3-4.9-12.5-1.8-19.2,1.2c-4.7,2.1-11.2-3.2-11.4-8.4c-0.1-2.7,1.7-3.7,3.9-2.2
			c4.3,2.8,7.8,1.5,11.1-1.7c2.5-2.4,5.6-3.1,8.7-1.4c3.7,2,7.7,2.9,11.7,4c1.4,0.4,3.8,0.2,3.9,2.2c0.1,2.2-1.4,4.1-3.6,5
			C1351.7,1097.5,1350.2,1097.7,1347.9,1098.2z"/>
		<path class="st-map-0" d="M1593.1,1080c-6-0.6-12.8-1-19.2-3.5c-1.5-0.6-3.1-1.4-4.3-2.4c-1.5-1.2-3.3-2.9-2.1-5
			c1.2-2.1,3.3-0.9,4.9-0.3c6.9,2.6,14.2,3.1,21.4,4.1c1.2,0.2,2.3,0.1,3.4,0.5c2.6,0.8,6.6,1.1,6.5,4c-0.1,2.2-4.2,2.6-6.9,2.7
			C1595.8,1080,1594.8,1080,1593.1,1080z"/>
		<path class="st-map-0" d="M1214.5,938.2c3.4,0.2,8.1,0.4,11.9,3.4c1.6,1.3,3,3.1,2.3,5.1c-0.9,2.4-3.2,1.2-4.8,0.9
			c-4.4-0.8-8.7-1.8-13.3-1.7c-2.2,0.1-4.2,0.1-6.2,1.4c-1.5,1-3.3,1.2-4.4-0.5c-1.1-1.7-0.5-3.5,1.1-4.9
			C1204.7,938.9,1208.8,938.1,1214.5,938.2z"/>
		<path class="st-map-0" d="M1412,952.5c-3.9,7.7-12.7,10.8-20.8,7.7c-2.2-0.9-4.2-1.6-6.6-0.5c-1.6,0.8-3.4,0.4-4.3-1.5
			c-0.7-1.5,0-2.9,1.1-4.1c2.2-2.5,8-3.8,10-1.4c2.6,3.2,5.5,2.3,8.5,1.7C1403.8,953.8,1407.4,951.9,1412,952.5z"/>
		<path class="st-map-0" d="M1445.3,1103.9c4.6,0.2,9.4,0.1,13.7,2c2,0.9,4.2,2.3,3.7,4.8c-0.6,2.8-3.4,2.4-5.4,2.1
			c-6.1-0.9-12.3-0.8-18.3-2.5c-1.9-0.5-4.4-0.9-4.2-3.4c0.2-2.7,2.8-2.9,5-3C1441.7,1103.9,1443.5,1103.9,1445.3,1103.9z"/>
		<path class="st-map-0" d="M1861.1,954c1.2-2.1-0.8-3.9-0.4-6c0.4-1.9,0.5-3.8,2.9-4.1c2-0.2,3,1.2,3.3,2.9c0.3,1.8,1.9,3.2,1.3,5.2
			C1866.7,956.6,1863.5,953.7,1861.1,954L1861.1,954z"/>
		<path class="st-map-0" d="M1861,954c-0.4,2.2,1.6,5.4-2.6,5.8c-2,0.2-3.8-0.5-4.1-2.7c-0.2-2.2,1.2-3.2,3.4-3.2
			C1858.9,953.8,1859.9,954.9,1861,954C1861.1,954,1861,954,1861,954z"/>
		<path class="st-map-0" d="M753.9,653.6c-20.7,5.6-41.4,9.2-60.7,17.7c-7.8,3.5-16.2,5-24.2,7.7c-1.6,0.5-3.7,0.5-3.6,3.3
			c0.1,2.5,0.4,3.5,3.4,2.5c11.7-3.9,23.4-7.4,35.2-11.1c5.8-1.8,11.8-2.1,17.8-1.9c12.1,0.4,23.9-1.2,35.1-6
			c0.9-0.4,1.9-0.7,2.9-0.8c0.6-0.1,1.5,0.2,1.7,0.6c0.5,0.9-0.2,1.8-1,1.9c-8.3,1.2-15.2,6.1-23.1,8.4c-13.8,4.1-28.6,2.6-42.2,8.5
			c-8.3,3.6-17.6,4.9-26.4,7.2c-1.9,0.5-4,0.4-6,0.4c-3.2-0.1-5.5-1.2-4.9-5.2c0.3-1.8,0.1-3.7-0.1-5.5c-0.4-2.8,1.1-4.7,3.4-5.3
			c19.3-5.1,37.3-14,56.7-18.9c10-2.5,20.2-4.2,30.4-5.9c4.4-0.7,7.9-3.4,12.2-4.2c1-0.2,2.1-0.6,2.7,0.4c0.6,1,0.1,1.9-0.9,2.5
			c-1.7,0.9-0.8,2.2-0.6,3.5c0.2,1.8,0.4,3.6,0.4,5.5c-0.1,2.5-1.4,4.2-4,4.2c-2.6,0-3.9-1.5-4-4.1
			C753.8,657.4,753.9,655.8,753.9,653.6z"/>
		<path class="st-map-0" d="M721.7,748.5c-2.2,2.8-5.4,3.3-8.2,4.5c-9.2,3.8-18.5,7.4-27.8,11c-3.6,1.4-7.4,2-11.2,2.3
			c-1.6,0.1-3.5-0.3-4.5,1.5c-0.7,1.2-1.5,2.5-3,1.4c-1.8-1.3-2-3.4-1.7-5.4c0.2-1.5,0.8-2.5,2.9-2.7c13.7-1.1,26.6-5.5,39.6-9.7
			C712.3,749.9,716.8,748.2,721.7,748.5z"/>
		<path class="st-map-0" d="M679.3,811.9c-1.5-0.3-4.3,1.3-4.8-1.4c-0.4-2.2,2.2-3.3,4.1-3.6c14.8-1.7,27.3-10.2,41.6-13.5
			c1.5-0.3,3.5-1.5,4.3,0.8c0.7,2-0.5,3.9-2.4,4.3c-13.6,3.2-25.5,11.6-39.6,13.2C681.6,811.7,680.6,811.8,679.3,811.9z"/>
		<path class="st-map-0" d="M721,786.6c-5.7,3.9-10.7,7.6-16.8,9.5c-10.1,3.1-20.4,6.1-30.5,9.3c-1.8,0.6-2.6-0.1-3.1-1.3
			c-1.1-2.7-0.7-5.3,1.2-7.5c1.2-1.4,2.6-0.5,3.1,0.9c1,2.6,2.5,0.8,3.7,0.4c12.9-3.8,25.8-7.8,38.6-11.7
			C718.1,786,719.1,785.7,721,786.6z"/>
		<path class="st-map-0" d="M708.7,820.9c-5.9-1-9.8,0.6-13.6,2.9c-3.8,2.3-7.8,4.5-12.5,4.3c-1.5-0.1-3.2-0.1-3.7-1.8
			c-0.6-2,1-3.1,2.6-3.7c9.4-3.7,17.9-10.3,29.1-8.1c2.7,0.5,5.8-1.1,8.7-1.7c1.4-0.3,2.8-0.1,3.3,1.4c0.5,1.6-0.7,2.3-2.1,2.8
			C716.2,818.7,712.4,821.9,708.7,820.9z"/>
		<path class="st-map-0" d="M716.3,765.3c-0.5,1.6-2.1,2.1-3.4,2.7c-12.6,6.2-25.4,11.7-39.1,14.8c-1.1,0.3-2.4-0.1-3.3,0.9
			c-0.6,0.8-0.4,2.8-2.2,1.8c-1.5-0.8-2.5-2.4-2.6-4c-0.2-2,1.9-1.3,3-1.6c12.9-4.2,25.9-8.3,38.4-13.8c2.1-0.9,4.5-1.2,6.7-1.8
			C714.9,764,716,763.9,716.3,765.3z"/>
		<path class="st-map-0" d="M683,753.2c-2.3,0-3.3,0-4.3,0c-0.9,0-1.7-0.3-1.8-1.3c0-0.9,0.6-1.5,1.5-1.7c10.4-2.5,20.3-6.4,30.4-9.6
			c1.4-0.4,2.7-0.6,3.5,0.8c0.9,1.6-0.4,2.7-1.6,3.1C701.1,747.7,691.8,751.9,683,753.2z"/>
		<path class="st-map-0" d="M625.1,699.9c0.2,2.9-0.7,4.5-3.1,4.8c-2.6,0.3-5-3.7-4.8-8.2c0.1-2.5,0.5-5.9,3.7-5.4
			C626.4,691.9,624,697.2,625.1,699.9z"/>
		<path class="st-map-0" d="M618.1,802c0,1,0,2,0,3c-0.1,1.7-0.8,2.9-2.6,3.1c-1.8,0.2-2.9-1-3.2-2.5c-0.9-3.8-0.5-7.5,0.8-11.2
			c0.3-0.8,0.9-1.4,1.8-1.4c1.2,0,1.7,0.8,2.1,1.7C618,797.1,618.2,799.5,618.1,802z"/>
		<path class="st-map-0" d="M617.7,818.2c0-1.3-0.3-2.8,1.3-3.4c1.6-0.5,2.5,0.7,3.1,1.9c1.4,2.8,2.8,5.7,2.8,8.9c0,1.4-0.6,2.7-2,3.2
			c-1.8,0.7-2.3-1-2.8-2.1C618.8,824.1,618,821.2,617.7,818.2z"/>
		<path class="st-map-0" d="M613,696.2c-0.2,2.5-0.8,5.4-4.3,6c-2.2,0.4-3-1.6-2.6-3.3c0.8-2.8-0.7-7.1,3.7-7.7
			C612.7,690.8,613,693.5,613,696.2z"/>
		<path class="st-map-0" d="M632.9,789.1c0.1-2,0-4.7,2.6-4.4c3.4,0.4,3.2,3.8,3.4,6.4c0.2,2.1-0.3,4.7-2.7,4.4
			C632.8,795.1,633.1,791.8,632.9,789.1z"/>
		<path class="st-map-0" d="M621.8,714.8c0.1-2.1,0.3-4.4,2.8-4.5c2.4-0.1,3.1,2.1,3.4,4.2c0.3,2.4-0.7,4.1-3.2,4.1
			C622.7,718.6,621.8,717,621.8,714.8z"/>
		<path class="st-map-0" d="M629.1,793.3c-0.1,1.7-0.4,3.7-2.1,3.6c-3.1-0.3-3.3-3.3-3.8-5.6c-0.3-1.5,0.2-3.4,2.1-3.3
			C628.6,788.1,628.3,791.2,629.1,793.3z"/>
		<path class="st-map-0" d="M676.9,833.3c0.3-1.9,0.4-4.1,3-4.4c1.7-0.1,2.2,1.3,2,2.7c-0.3,2.3-1.3,4.2-3.9,4.3
			C676.3,836,677,834.4,676.9,833.3z"/>
		<path class="st-map-0" d="M1482.2,864.6c5.3,0.4,10.5,0.3,15.7,0.7c15.4,1,30.6,3.1,45.5,6.9c0.8,0.2,1.6,0.8,2.4,0.7
			c10.2-1.3,19.9,3.6,30.1,2.8c2.4-0.2,4.7,0.1,6.5,1.9c0.8,0.8,1.2,1.7,0.6,2.7c-0.7,1-1.7,1.1-2.6,0.4c-2.5-2-5.4-1.3-8.2-1.2
			c-4.4,0.1-8.6-0.1-12.6-2.3c-1.2-0.6-2.5-1.3-3.8-0.9c-7.9,2.4-15-1.1-22.2-3.2c-1.7-0.5-3.2-0.6-4.9-0.4c-1.3,0.2-2.8,0.5-3.9,0
			c-10.8-4.6-22.6-2-33.7-4.4C1487.9,867.5,1484.5,867.9,1482.2,864.6z"/>
		<path class="st-map-0" d="M1406.1,873.1c0.4-1.2-0.9-1.6-1.1-2.5c-0.3-1.3-2.3-2.3-0.9-3.9c1-1.1,2.4-1.4,3.5-0.5c1.6,1.2,2.7,3,2.7,5
			c0,1.4-1.5,1.9-3,1.8c-0.5,0-0.9,0-1.4,0C1406,873,1406.1,873.1,1406.1,873.1z"/>
		<path class="st-map-0" d="M1458,879.5c-2.4-0.6-5.2-1-6.2-3.9c-0.3-0.8,0.5-1.8,1.4-1.5c2.6,0.9,5.7,1.3,7.2,3.7
			C1461.1,878.9,1459.1,879.2,1458,879.5z"/>
		<path class="st-map-0" d="M1260.7,802.9c0.1-1,0.1-2.3,0.3-3.6c0.3-1.6,1.3-2.8,2.9-2.9c1.7-0.1,2.7,1,3.2,2.5c0.9,2.7,0.9,5.5,0.9,8.4
			c0,2.3-1,3.9-3.5,3.9c-2.2,0-3.2-1.5-3.5-3.5C1260.9,806.2,1260.9,804.7,1260.7,802.9z"/>
		<path class="st-map-0" d="M985.9,776.6c0.1,2.5-0.2,3.9-1,5.2c-1.3,2-2.6,1.9-3.7-0.1c-1.5-2.7-1.4-5.8-1.9-8.7
			c-0.3-1.7,0.5-3.5,2.4-3.9c2.1-0.4,2.8,1.4,3.2,3.1C985.4,773.9,985.7,775.7,985.9,776.6z"/>
		<path class="st-map-0" d="M1002,772.9c0,0.2,0,0.8,0,1.5c-0.1,2.3-0.5,4.7-3.3,4.6c-2.4-0.1-2.9-2.4-2.9-4.5c0-0.7,0-1.3,0-2
			c0.2-2.5-0.7-6.1,3.3-6C1002.5,766.6,1001.9,769.9,1002,772.9z"/>
		<path class="st-map-0" d="M991.7,795.4c-0.2,1.6-0.5,3.4-2.6,3.5c-1.7,0.1-2.7-1.3-2.8-2.9c-0.1-2,0.5-3.8,2.8-3.9
			C990.9,792.1,991.4,793.8,991.7,795.4z"/>
		<path class="st-map-0" d="M748.7,192.4c-1.7-12.6-2.9-25.5,0.4-37.7c7.9-29.5,17.1-58.5,44.6-76.7c0.8-0.6,1.6-1.2,2.5-1.7
			c8.1-4.6,15.7-9.5,22.2-16.4c7.4-7.8,17.7-9.6,28.3-10.4c25.1-1.9,48,4.4,70.1,15.9c11.1,5.8,22.2,11.4,32.2,19
			c3.4,2.5,6.5,5.3,8.7,8.8c9,13.7,16.5,27.9,19,44.6c2.9,19.2,3.9,38.2-2.3,56.8c-6.2,18.8-16.7,35-31.2,48.5
			c-7.3,6.8-14.3,14.6-23.5,18.3c-13.5,5.5-26.7,12.5-41.7,12.9c-19.9,0.6-39.8,3.2-59.8,1.7c-14.4-1.1-24.7-9.8-35-18.7
			c-12.2-10.5-20.4-23.5-26-38.5c-0.7-1.9-1.5-3.7-2.3-5.5C752.8,206.3,750.8,199.4,748.7,192.4z M928,89.1c0-0.7-0.5-0.9-1.1-0.9
			c-3.1-2.5-6.9-3.8-10.5-5.3c-11.5-6.5-23.8-11.2-36.3-15.5c-3.5-1.2-7.4-1.7-11.2-1.3c-20.1-2.1-39.7-1.7-55.9,13
			c-1.4,1.3-3.5,2.9-5.2,2.7c-4-0.4-6.1,2.3-8.8,4.3c-23.5,17.9-33.5,44.2-37.2,71.3c-5.4,39.8,9,73.5,42.8,97.4
			c3.9,2.8,8.1,4.5,12.7,5.3c11.5,1.9,22.9,0.2,34.3-0.3c5.5-0.2,10.9-0.6,16.4-0.6c5.3-0.1,10.6,0,15.7-1.9
			c7.3-0.2,13-4.9,19.7-6.6c8.6-2.1,15.5-6.8,21.8-12.5c5.1-4.6,10.3-9.1,14.6-14.4c9.2-11.4,17.1-23.7,20.7-38.3
			c5.2-20.7,2.6-41-2.9-61.1c-1.3-4.8-4-9.1-7.3-13C946.4,100.2,937.7,94,928,89.1L928,89.1z"/>
		<path class="st-map-1" d="M916.4,82.8c-10.9-1.2-21.1-5-31.2-8.9c-5.6-2.2-11.3-4.4-16.4-7.9c3.8-0.4,7.7,0.1,11.2,1.3
			C892.6,71.6,904.8,76.4,916.4,82.8z"/>
		<path class="st-map-1" d="M950.3,111.2c-8.5-6.3-16.3-13.4-22.3-22.2C937.7,94,946.4,100.2,950.3,111.2z"/>
		<path class="st-map-1" d="M851.7,259.6c10.5-2.9,21.2-3.2,32-2.6c-5.1,1.9-10.4,1.9-15.7,1.9C862.6,259,857.1,259.4,851.7,259.6z"/>
		<path class="st-map-1" d="M928,89.1c-0.8,0.1-1-0.4-1.1-0.9C927.5,88.1,928,88.4,928,89.1z"/>
	</g>
</g>
</svg>
