<?xml version="1.0" encoding="iso-8859-1"?>
<!-- Generator: Adobe Illustrator 23.0.1, SVG Export Plug-In . SVG Version: 6.00 Build 0)  -->
<svg version="1.1" id="_x31_f957" xmlns="http://www.w3.org/2000/svg" xmlns:xlink="http://www.w3.org/1999/xlink" x="0px" y="0px"
	 viewBox="0 0 36 36" style="enable-background:new 0 0 36 36;" xml:space="preserve">
<g>
	<path style="fill:#CCD6DD;" d="M18,35C3.042,35,1,21,1,17c3,0,32,0,34,0C35,19,33.042,35,18,35z"/>
	<path style="fill:#66757F;" d="M35,17.056c0,5.216-7.611,9.444-17,9.444c-9.389,0-17-4.229-17-9.444c0-5.216,7.611-8.444,17-8.444
		C27.389,8.611,35,11.84,35,17.056z"/>
</g>
<g>
	<path style="fill:#77B255;" d="M2.708,18.875c-0.808-1.161-2.333-3.5-0.708-7c0.708-1.833,2.18-3.027,2.375-2.458
		c0.458,1.333,1.375,2.5,2.75,2.375C7.107,12.265,6.456,7.483,8.75,6.208c1.125-0.625,2.333,0.375,3.708,2.583
		c2.202,3.537,7.811,1.884,9.385,0.958c1.594-0.938,2.99-1.552,2.573-4.062c-0.092-0.551,0.743-1.029,1.595-0.573
		c1.431,0.766,3.498,2.671,3.863,4.761c1.021,0.271,1.786-0.163,2.375-1.354c0.292-0.59,1.292-0.729,1.72,0.041
		c0.754,1.356,1.992,5.527,0.239,9.105c-2,4.083-5.042,6.25-11.875,7.125C15.5,25.667,6.708,24.625,2.708,18.875z"/>
	<path style="fill:#5C913B;" d="M19.417,10.146c0,2.106-1.81,3.812-4.042,3.812c-2.232,0-4.042-1.707-4.042-3.812
		c0-2.105,1.81-3.812,4.042-3.812C17.607,6.333,19.417,8.041,19.417,10.146z"/>
	<path style="fill:#C6E5B3;" d="M18.417,10.146c0,1.585-1.362,2.869-3.042,2.869c-1.68,0-3.042-1.285-3.042-2.869
		c0-1.585,1.362-2.87,3.042-2.87C17.055,7.277,18.417,8.562,18.417,10.146z"/>
	<ellipse style="fill:#292F33;" cx="8.167" cy="14.5" rx="2.292" ry="2"/>
	<path style="fill:#DD2E44;" d="M17.524,15.182c1.267,2.388-2.104,0.951-4.614,2.284c-2.511,1.333-3.209,4.929-4.477,2.541
		c-1.268-2.388-0.26-5.404,2.25-6.737C13.194,11.938,16.257,12.794,17.524,15.182z"/>
	<ellipse style="fill:#292F33;" cx="24.167" cy="12.5" rx="2.292" ry="2"/>
	<path style="fill:#9266CC;" d="M29.117,20.129c-1.564,1.48-1.178-1.412-2.734-3.056c-1.558-1.644-4.466-1.415-2.903-2.896
		c1.563-1.481,4.094-1.349,5.65,0.294C30.687,16.114,30.681,18.648,29.117,20.129z"/>
	<path style="fill:#E1E8ED;" d="M28.117,21.129c-1.564,1.48-1.178-1.412-2.734-3.057c-1.558-1.643-4.466-1.415-2.903-2.896
		c1.563-1.481,4.094-1.349,5.65,0.294C29.687,17.114,29.681,19.648,28.117,21.129z"/>
	<path style="fill:#DD2E44;" d="M24.013,19.928c0.781,2.062-1.798,0.555-3.966,1.377c-2.166,0.821-3.1,3.658-3.881,1.597
		c-0.781-2.06,0.343-4.398,2.509-5.219C20.842,16.862,23.231,17.868,24.013,19.928z"/>
	<path style="fill:#EA596E;" d="M8.958,19.084c-0.167-1.542,2.833-8.418,8.167-2.417c-1.25,0.208-4.292,0.208-5.667,2.125
		S8.833,19,8.958,19.084"/>
	<path style="fill:#A6D388;" d="M4.917,19.709c-0.728-0.971,1.75-3.209,3.625-1.293c0.792-0.958,4.708-2.874,6.167,1.293
		c0.667-0.75,6.125-0.917,6.208,3.708c0.041,0.625-6.295,0.506-9.542-0.25C9.583,22.75,6.292,21.542,4.917,19.709z"/>
	<path style="fill:#A6D388;" d="M26,22.458c-1.167,0.315,0.793-5.125,4.459-4.208c0.125-1,0.916-4.292,3.208-3.708
		C33.75,15.5,33.708,20.374,26,22.458z"/>
</g>
</svg>
