<?xml version="1.0" encoding="iso-8859-1"?>
<!-- Generator: Adobe Illustrator 23.0.1, SVG Export Plug-In . SVG Version: 6.00 Build 0)  -->
<svg version="1.1" id="_x31_f484" xmlns="http://www.w3.org/2000/svg" xmlns:xlink="http://www.w3.org/1999/xlink" x="0px" y="0px"
	 viewBox="0 0 36 36" style="enable-background:new 0 0 36 36;" xml:space="preserve">
<path style="fill:#EA596E;" d="M11.522,0.232c2.246,0,4.832,1.375,6.703,3.249C20.098,5.355,22,7.408,22,9.479v17.204L6.026,26.715
	V9.582C5.933,8.076,7.101,0.232,11.522,0.232"/>
<path style="fill:#DD2E44;" d="M14,11.378V28c0,1.104,0.896,0,2,0v2c1.104,0,2-0.896,2-2V12.333
	C16.742,12.229,15.35,12.071,14,11.378z"/>
<path style="fill:#F4ABBA;" d="M17.072,3.455c2.664,2.391,4.277,5.236,2.961,6.699c-1.314,1.463-5.06,0.991-7.721-1.4
	C9.651,6.364,8.56,3.238,9.873,1.775C11.189,0.312,14.411,1.063,17.072,3.455"/>
<path style="fill:#FFCC4D;" d="M25,34c0,1.104-0.896,2-2,2H5c-1.104,0-2-0.896-2-2v-6c0-1.104,0.896-2,2-2h18c1.104,0,2,0.896,2,2
	V34z"/>
<path style="fill:#FFAC33;" d="M26,34c0,1.104-0.896,2-2,2H4c-1.104,0-2-0.896-2-2v-1c0-1.104,0.896-2,2-2h20c1.104,0,2,0.896,2,2
	V34z"/>
</svg>
