<?xml version="1.0" encoding="iso-8859-1"?>
<!-- Generator: Adobe Illustrator 23.0.1, SVG Export Plug-In . SVG Version: 6.00 Build 0)  -->
<svg version="1.1" id="_x31_f4e2" xmlns="http://www.w3.org/2000/svg" xmlns:xlink="http://www.w3.org/1999/xlink" x="0px" y="0px"
	 viewBox="0 0 36 36" style="enable-background:new 0 0 36 36;" xml:space="preserve">
<g>
	<path style="fill:#BE1931;" d="M13.09,24.825c-0.231,1.847-1.915,2.508-3.762,2.508l0,0c-1.847,0-3.157-1.497-2.926-3.344
		l0.836-7.524c0.231-1.847,1.915-3.344,3.762-3.344l0,0c1.847,0,5.407,0,2.926,3.344S13.09,24.825,13.09,24.825z"/>
	<path style="fill:#CCD6DD;" d="M32.248,11.45c0,5.77-1.291,10.45-2.884,10.45c-1.593,0-17.096-4.68-17.096-10.45
		C12.268,5.679,27.771,1,29.364,1C30.958,1,32.248,5.679,32.248,11.45z"/>
	<ellipse style="fill:#66757F;" cx="29.364" cy="11.45" rx="2.884" ry="10.45"/>
	<path style="fill:#DD2E44;" d="M17.284,17.302L5.58,16.466c-4.18,0-4.18-10.032,0-10.032l11.704-0.836
		C14.776,8.106,14.776,14.794,17.284,17.302z"/>
	<ellipse style="fill:#99AAB5;" cx="28.486" cy="11.45" rx="1.254" ry="3.635"/>
</g>
<g>
	<g>
		<defs>
			<rect id="SVGID_1_" x="15.6" y="21.056" width="13.887" height="13.887"/>
		</defs>
		<g style="clip-path:url(#SVGID_2_);">
			<defs>
				<rect id="SVGID_3_" x="15.6" y="21.056" width="13.887" height="13.887"/>
			</defs>
			<path style="clip-path:url(#SVGID_4_);fill:#99AAB5;" d="M29.486,31.086c0,2.13-3.109,3.857-6.943,3.857S15.6,33.216,15.6,31.086
				s3.109-3.857,6.943-3.857S29.486,28.956,29.486,31.086"/>
			<path style="clip-path:url(#SVGID_4_);fill:#CCD6DD;" d="M29.486,30.314c0,2.13-3.109,3.857-6.943,3.857S15.6,32.444,15.6,30.314
				s3.109-3.857,6.943-3.857S29.486,28.184,29.486,30.314"/>
			<path style="clip-path:url(#SVGID_4_);fill:#F5F8FA;" d="M22.543,33.014c-5.77,0-6.558-5.786-6.558-7.329h13.115
				C29.101,26.457,28.345,33.014,22.543,33.014"/>
			<path style="clip-path:url(#SVGID_4_);fill:#CCD6DD;" d="M28.863,24.776c0.942-3.904-3.773-2.972-4.708-2.236
				c-0.517-0.057-1.055-0.09-1.613-0.09c-3.622,0-6.558,1.245-6.558,3.257s2.936,3.643,6.558,3.643s6.558-1.631,6.558-3.643
				C29.101,25.374,29.014,25.065,28.863,24.776 M27.898,23.738c-0.523-0.362-1.197-0.653-1.975-0.868
				C26.646,22.648,27.678,22.751,27.898,23.738"/>
			<path style="clip-path:url(#SVGID_4_);fill:#8A4B38;" d="M28.329,26.071c0,1.491-2.591,2.7-5.786,2.7s-5.786-1.209-5.786-2.7
				c0-1.491,2.591-2.7,5.786-2.7S28.329,24.58,28.329,26.071"/>
			<path style="clip-path:url(#SVGID_4_);fill:#D99E82;" d="M23.315,27.614c-0.099,0-0.197-0.038-0.273-0.113
				c-0.901-0.901-0.917-1.884-0.048-3.187c0.285-0.428,0.347-0.866,0.184-1.303c-0.178-0.476-0.555-0.77-0.668-0.801
				c-0.213,0-0.37-0.171-0.37-0.384c0-0.213,0.189-0.384,0.402-0.384c0.385,0,0.924,0.445,1.228,1.013
				c0.399,0.746,0.351,1.558-0.135,2.287c-0.756,1.135-0.591,1.671-0.048,2.213c0.151,0.151,0.151,0.395,0,0.545
				C23.512,27.576,23.413,27.614,23.315,27.614"/>
			<path style="clip-path:url(#SVGID_4_);fill:#D99E82;" d="M21,26.842c-0.099,0-0.197-0.038-0.273-0.113
				c-0.901-0.901-0.917-1.884-0.048-3.187c0.28-0.421,0.345-0.803,0.191-1.137c-0.171-0.371-0.552-0.567-0.65-0.578
				c-0.213,0-0.381-0.172-0.381-0.385c0-0.213,0.177-0.386,0.39-0.386c0.385,0,0.997,0.376,1.296,0.935
				c0.186,0.347,0.406,1.065-0.204,1.98c-0.756,1.135-0.591,1.671-0.048,2.213c0.151,0.151,0.151,0.395,0,0.545
				C21.198,26.805,21.099,26.842,21,26.842"/>
		</g>
	</g>
</g>
</svg>
