<?xml version="1.0" encoding="iso-8859-1"?>
<!-- Generator: Adobe Illustrator 23.0.1, SVG Export Plug-In . SVG Version: 6.00 Build 0)  -->
<svg version="1.1" id="_x31_f52c" xmlns="http://www.w3.org/2000/svg" xmlns:xlink="http://www.w3.org/1999/xlink" x="0px" y="0px"
	 viewBox="0 0 36 36" style="enable-background:new 0 0 36 36;" xml:space="preserve">
<g>
	<polygon style="fill:#66757F;" points="19.78,21.345 13.439,15.003 13.05,19.383 15.4,21.734 	"/>
	<path style="fill:#66757F;" d="M15.4,22.233c-0.132,0-0.259-0.053-0.354-0.146l-2.351-2.351c-0.104-0.104-0.158-0.25-0.145-0.397
		l0.389-4.38c0.017-0.193,0.145-0.359,0.327-0.425c0.182-0.067,0.388-0.021,0.524,0.116l6.341,6.342
		c0.138,0.138,0.183,0.342,0.116,0.524s-0.232,0.31-0.426,0.327l-4.379,0.389C15.43,22.232,15.415,22.233,15.4,22.233z
		 M13.568,19.194l2.021,2.021l3.081-0.273l-4.828-4.828L13.568,19.194z"/>
</g>
<path style="fill:#8899A6;" d="M31,32h-3c0-3.314-2.63-6-5.875-6c-3.244,0-5.875,2.686-5.875,6H8.73c0-1.104-0.895-2-2-2
	c-1.104,0-2,0.896-2,2c-1.104,0-2,0.896-2,2s0.896,2,2,2H31c1.104,0,2-0.896,2-2S32.104,32,31,32z"/>
<path style="fill:#8899A6;" d="M20,10v4c3.866,0,7,3.134,7,7c0,3.866-3.134,7-7,7h-8.485c2.018,2.443,5.069,4,8.485,4
	c6.075,0,11-4.925,11-11S26.075,10,20,10z"/>
<path style="fill:#67757F;" d="M16.414,30.414c-0.781,0.781-2.047,0.781-2.828,0l-9.899-9.9c-0.781-0.781-0.781-2.047,0-2.828l0,0
	c0.781-0.781,2.047-0.781,2.829,0l9.899,9.9C17.195,28.367,17.195,29.633,16.414,30.414L16.414,30.414z"/>
<path style="fill:#67757F;" d="M9.189,28.628c0.547-0.077,1.052,0.304,1.129,0.851l0,0c0.077,0.547-0.305,1.053-0.851,1.129
	l-5.942,0.834c-0.547,0.077-1.052-0.305-1.129-0.851l0,0c-0.077-0.547,0.305-1.053,0.852-1.13L9.189,28.628z"/>
<rect x="24.514" y="4.423" transform="matrix(0.7071 0.7071 -0.7071 0.7071 13.1348 -17.481)" style="fill:#66757F;" width="6.309" height="5.383"/>
<path style="fill:#AAB8C2;" d="M34.037,7.083c-0.827,0.827-2.17,0.827-2.997,0l-3.339-3.34c-0.827-0.826-0.827-2.169,0-2.996l0,0
	c0.827-0.826,2.17-0.826,2.995,0l3.342,3.34C34.864,4.914,34.864,6.255,34.037,7.083L34.037,7.083z"/>
<path style="fill:#AAB8C2;" d="M19.477,22.109l-6.802-6.803c-0.389-0.389-0.389-1.025,0-1.414l9.858-9.858
	c0.389-0.389,1.025-0.389,1.414,0l6.801,6.803c0.389,0.389,0.389,1.025,0,1.414l-9.858,9.858
	C20.502,22.498,19.866,22.498,19.477,22.109z"/>
<rect x="17.535" y="10.281" transform="matrix(0.7071 -0.7071 0.7071 0.7071 -5.9026 17.93)" style="fill:#E1E8ED;" width="2.316" height="11.619"/>
</svg>
