<?xml version="1.0" encoding="iso-8859-1"?>
<!-- Generator: Adobe Illustrator 23.0.1, SVG Export Plug-In . SVG Version: 6.00 Build 0)  -->
<svg version="1.1" id="_x31_f6f5" xmlns="http://www.w3.org/2000/svg" xmlns:xlink="http://www.w3.org/1999/xlink" x="0px" y="0px"
	 viewBox="0 0 36 36" style="enable-background:new 0 0 36 36;" xml:space="preserve">
<g>
	<g>
		<defs>
			<rect id="SVGID_1_" x="0.87" width="34.261" height="34.261"/>
		</defs>
		<g style="clip-path:url(#SVGID_2_);">
			<defs>
				<rect id="SVGID_3_" x="0.87" width="34.261" height="34.261"/>
			</defs>
			<path style="clip-path:url(#SVGID_4_);fill:#292F33;" d="M35.13,22.841c0,0.526-0.425,0.952-0.952,0.952h-0.952
				c-0.526,0-0.952-0.425-0.952-0.952v-5.71c0-0.526,0.425-0.952,0.952-0.952h0.952c0.526,0,0.952,0.425,0.952,0.952V22.841z"/>
			<path style="clip-path:url(#SVGID_4_);fill:#3B88C3;" d="M5.628,29.502h24.744c0.952,0,2.855-0.952,2.855-3.807
				c0-1.903,0-7.614-0.952-8.565c-0.952-0.952,0-6.662-3.807-6.662H15.145c-2.855,0-5.71,6.662-5.71,6.662l-3.807,0.952
				c0,0-3.807,0.952-3.807,3.807v2.855c0,0-0.952,0.322-0.952,1.862c0,1.541,0.952,1.944,0.952,1.944L5.628,29.502z"/>
			<path style="clip-path:url(#SVGID_4_);fill:#292F33;" d="M13.242,29.502c0,2.102-1.704,3.807-3.807,3.807
				s-3.807-1.704-3.807-3.807s1.704-3.807,3.807-3.807S13.242,27.4,13.242,29.502"/>
			<path style="clip-path:url(#SVGID_4_);fill:#CCD6DD;" d="M11.338,29.502c0,1.051-0.853,1.903-1.903,1.903
				c-1.051,0-1.903-0.853-1.903-1.903c0-1.051,0.853-1.903,1.903-1.903C10.485,27.599,11.338,28.452,11.338,29.502"/>
			<path style="clip-path:url(#SVGID_4_);fill:#292F33;" d="M30.372,29.502c0,2.102-1.704,3.807-3.807,3.807
				s-3.807-1.704-3.807-3.807s1.704-3.807,3.807-3.807S30.372,27.4,30.372,29.502"/>
			<path style="clip-path:url(#SVGID_4_);fill:#CCD6DD;" d="M28.469,29.502c0,1.051-0.853,1.903-1.903,1.903
				c-1.051,0-1.903-0.853-1.903-1.903c0-1.051,0.853-1.903,1.903-1.903C27.616,27.599,28.469,28.452,28.469,29.502"/>
			<path style="clip-path:url(#SVGID_4_);fill:#BBDDF5;" d="M23.71,16.179c0,0.525,0.425,0.952,0.952,0.952h3.807
				c0.526,0,0.952-0.426,0.952-0.952v-2.855c0-0.525-0.425-0.952-0.952-0.952h-3.807c-0.526,0-0.952,0.426-0.952,0.952V16.179z"/>
			<path style="clip-path:url(#SVGID_4_);fill:#BBDDF5;" d="M13.242,16.179c0,0.952,0.426,0.952,0.952,0.952h6.662
				c0.526,0,0.952-0.426,0.952-0.952v-2.855c0-0.525-0.425-0.952-0.952-0.952h-4.758C15.145,12.372,13.242,15.227,13.242,16.179"/>
			<path style="clip-path:url(#SVGID_4_);fill:#55ACEE;" d="M31.324,22.365c0,0.788-0.64,1.428-1.428,1.428H8.959
				c-0.789,0-1.428-0.64-1.428-1.428c0-0.788,0.639-1.428,1.428-1.428h20.937C30.684,20.937,31.324,21.577,31.324,22.365"/>
		</g>
	</g>
</g>
</svg>
