<?xml version="1.0" encoding="iso-8859-1"?>
<!-- Generator: Adobe Illustrator 23.0.1, SVG Export Plug-In . SVG Version: 6.00 Build 0)  -->
<svg version="1.1" id="_x31_f6ad" xmlns="http://www.w3.org/2000/svg" xmlns:xlink="http://www.w3.org/1999/xlink" x="0px" y="0px"
	 viewBox="0 0 36 36" style="enable-background:new 0 0 36 36;" xml:space="preserve">
<circle cx="18" cy="18" r="17"/>
<path style="fill:#FFFFFF;" d="M23.703,17c-0.006,0-0.011,0-0.017,0c-0.407,0-0.733-0.261-0.733-0.668
	c0-0.219,0.082-2.149,2.929-4.047c1.475-0.983,1.784-2.609,1.447-3.721c-0.315-1.042-1.164-1.63-2.328-1.63
	c-1.771,0-2.26,0.957-2.394,1.524c-0.169,0.713,0.046,1.179,0.268,1.369c0.325,0.279,0.8,0.218,1.075,0.049
	c0.196-0.122,0.301-0.331,0.301-0.606c0-0.414,0.336-0.75,0.75-0.75c0.414,0,0.75,0.336,0.75,0.75c0,0.799-0.369,1.485-1.013,1.883
	c-0.721,0.446-1.832,0.4-2.557-0.004c-0.886-0.494-1.337-1.743-1.034-3.031c0.396-1.674,1.836-2.674,3.854-2.674
	c1.844,0,3.251,1.011,3.764,2.704c0.602,1.986-0.242,4.215-2.051,5.421c-2.173,1.449-2.259,2.723-2.261,2.779
	C24.435,16.75,24.104,17,23.703,17z"/>
<g>
	<path style="fill:#FFFFFF;" d="M22,19H6c0,0-2,0-2,2v1c0,2,2,2,2,2h16V19z"/>
	<path style="fill:#FFFFFF;" d="M27,19h-3v5h3c0,0,2,0,2-2v-1C29,19,27,19,27,19z"/>
</g>
<path style="fill:#DD2E44;" d="M18,0C8.059,0,0,8.06,0,18c0,9.941,8.059,18,18,18c9.941,0,18-8.059,18-18C36,8.06,27.941,0,18,0z
	 M34,18c0,3.969-1.453,7.592-3.845,10.389L7.612,5.845C10.409,3.453,14.032,2,18,2C26.837,2,34,9.164,34,18z M2,18
	c0-3.968,1.453-7.591,3.844-10.387l22.543,22.543C25.591,32.548,21.968,34,18,34C9.164,34,2,26.837,2,18z"/>
</svg>
