<?xml version="1.0" encoding="iso-8859-1"?>
<!-- Generator: Adobe Illustrator 23.0.1, SVG Export Plug-In . SVG Version: 6.00 Build 0)  -->
<svg version="1.1" id="_x31_f5f3" xmlns="http://www.w3.org/2000/svg" xmlns:xlink="http://www.w3.org/1999/xlink" x="0px" y="0px"
	 viewBox="0 0 36 36" style="enable-background:new 0 0 36 36;" xml:space="preserve">
<path style="fill:#CCD6DD;" d="M34.5,24.995c0,2.209-1.791,2-4,2h-25c-2.209,0-4,0.209-4-2L3.5,11c0.293-1.75,1-2,2-2h25
	c1,0,1.791,0.208,2,2L34.5,24.995z"/>
<path style="fill:#292F33;" d="M28.5,16.5c0,0.829-0.672,1.5-1.5,1.5H9c-0.829,0-1.5-0.671-1.5-1.5l0,0C7.5,15.671,8.172,15,9,15h18
	C27.828,15,28.5,15.671,28.5,16.5L28.5,16.5z"/>
<path style="fill:#5DADEC;" d="M26.5,17V3c0-1.105-0.895-2-2-2h-13c-1.104,0-2,0.895-2,2v14H26.5z"/>
<path style="fill:#9AAAB4;" d="M34.5,25c0-1.104-0.896-2-2-2h-29c-1.104,0-2,0.896-2,2v8c0,1.104,0.896,2,2,2h29
	c1.104,0,2-0.896,2-2V25z"/>
<path style="fill:#67757F;" d="M13.5,23v6c0,1.104,0.896,2,2,2h5c1.105,0,2-0.896,2-2v-6H13.5z"/>
<path style="fill:#9AAAB4;" d="M22.5,23v-1c0-1.104-0.895-2-2-2h-5c-1.104,0-2,0.896-2,2v1H22.5z"/>
<path style="fill:#9AAAB4;" d="M19.5,27.5c0,0.828-0.672,1.5-1.5,1.5l0,0c-0.829,0-1.5-0.672-1.5-1.5v-1c0-0.828,0.671-1.5,1.5-1.5
	l0,0c0.828,0,1.5,0.672,1.5,1.5V27.5z"/>
<path style="fill:#FFFFFF;" d="M18.806,8.997l2.778-2.778c0.222-0.222,0.222-0.581,0-0.803c-0.222-0.222-0.581-0.222-0.803,0
	l-2.778,2.778l-2.778-2.778c-0.221-0.222-0.581-0.222-0.803,0c-0.222,0.222-0.222,0.581,0,0.803l2.778,2.778l-2.784,2.784
	c-0.222,0.222-0.222,0.581,0,0.803c0.111,0.111,0.256,0.166,0.401,0.166c0.145,0,0.291-0.056,0.401-0.166l2.784-2.784l2.778,2.778
	c0.111,0.111,0.256,0.166,0.401,0.166c0.145,0,0.29-0.055,0.401-0.166c0.222-0.222,0.222-0.581,0-0.803L18.806,8.997z"/>
</svg>
