<?xml version="1.0" encoding="iso-8859-1"?>
<!-- Generator: Adobe Illustrator 23.0.1, SVG Export Plug-In . SVG Version: 6.00 Build 0)  -->
<svg version="1.1" id="_x32_67b" xmlns="http://www.w3.org/2000/svg" xmlns:xlink="http://www.w3.org/1999/xlink" x="0px" y="0px"
	 viewBox="0 0 36 36" style="enable-background:new 0 0 36 36;" xml:space="preserve">
<path style="fill:#3E721D;" d="M30.001,29c-0.348,0-0.685-0.181-0.869-0.504l-4.235-6.976c-0.274-0.479-0.167-1.079,0.312-1.354
	l4.958-3C30.323,17.077,30.663,17,30.831,17c0.348,0,0.672,0.198,0.856,0.521l3.107,5.122l0.164,2.232
	c0.274,0.479-0.958,1.184-1.438,1.458l-3.025,2.535C30.34,28.958,30.169,29,30.001,29z"/>
<path style="fill:#77B255;" d="M23,32c-0.553,0-1-0.447-1-1v-6c0-0.553,0.447-1,1-1h10c1.85,0,1.55-1.781,1.55-1.781
	s0.327,0.562,0.375,0.651c0.327,0.614,0.544,1.552,0.034,2.505l-3.089,6.122C31.725,31.786,31.379,32,31,32H23z"/>
<path style="fill:#77B255;" d="M22,35c-0.26,0-0.516-0.102-0.707-0.293l-6-6c-0.391-0.391-0.391-1.023,0-1.414l6-6
	C21.484,21.102,21.74,21,22,21c0.129,0,0.259,0.024,0.383,0.076C22.757,21.23,23,21.596,23,22v12c0,0.404-0.243,0.77-0.617,0.924
	C22.259,34.976,22.129,35,22,35z"/>
<path style="fill:#3E721D;" d="M20.593,3.299c0.158,0.31,0.15,0.692-0.054,1.004l-4.293,6.94c-0.303,0.463-0.886,0.639-1.348,0.336
	L9.974,8.525c-0.15-0.099-0.374-0.367-0.45-0.516c-0.158-0.31-0.129-0.688,0.075-1l3.152-5.094l1.914-1.159
	c0.303-0.463,1.49,0.315,1.953,0.619l3.631,1.544C20.401,3.018,20.517,3.151,20.593,3.299z"/>
<path style="fill:#77B255;" d="M26.444,8.175c0.251,0.493,0.057,1.094-0.437,1.346l-5.347,2.724
	c-0.492,0.25-1.094,0.055-1.344-0.437l-4.542-8.91c-0.839-1.649-2.29-0.573-2.29-0.573s0.352-0.546,0.41-0.63
	c0.399-0.57,1.135-1.188,2.216-1.167L21.969,0.5c0.324,0,0.671,0.209,0.844,0.547L26.444,8.175z"/>
<path style="fill:#77B255;" d="M29.571,7.705c0.118,0.231,0.143,0.505,0.06,0.762l-2.621,8.071c-0.17,0.525-0.734,0.812-1.26,0.642
	l-8.07-2.623c-0.258-0.083-0.464-0.265-0.583-0.496c-0.059-0.114-0.096-0.242-0.107-0.376c-0.032-0.404,0.184-0.786,0.544-0.969
	l10.692-5.448c0.36-0.184,0.795-0.134,1.103,0.13C29.432,7.484,29.513,7.59,29.571,7.705z"/>
<path style="fill:#3E721D;" d="M3.375,24.542c0.181-0.297,0.51-0.49,0.882-0.479l8.161,0.005c0.553,0.017,1.009,0.42,0.995,0.972
	l-0.014,5.795c-0.005,0.18-0.116,0.512-0.203,0.654c-0.181,0.297-0.519,0.472-0.891,0.461l-5.99-0.008l-1.993-1.019
	c-0.551-0.017-0.513-1.435-0.499-1.986L3.23,25.033C3.234,24.854,3.288,24.685,3.375,24.542z"/>
<path style="fill:#77B255;" d="M4.451,17.002c0.287-0.472,0.902-0.622,1.374-0.335l5.126,3.119c0.473,0.287,0.622,0.901,0.335,1.374
	l-5.197,8.543c-0.96,1.58,0.717,2.25,0.717,2.25s-0.65-0.014-0.751-0.02c-0.696-0.038-1.609-0.341-2.159-1.271L0.27,24.842
	c-0.171-0.275-0.174-0.682,0.023-1.006L4.451,17.002z"/>
<path style="fill:#77B255;" d="M2.407,14.589c0.136-0.224,0.355-0.388,0.618-0.454l8.245-2.006c0.537-0.132,1.077,0.197,1.208,0.734
	l2.007,8.244c0.064,0.264,0.017,0.534-0.118,0.757c-0.066,0.109-0.155,0.208-0.264,0.288c-0.326,0.238-0.764,0.256-1.11,0.046
	L2.743,15.963c-0.346-0.211-0.531-0.609-0.469-1.008C2.294,14.821,2.34,14.699,2.407,14.589z"/>
</svg>
