<?xml version="1.0" encoding="iso-8859-1"?>
<!-- Generator: Adobe Illustrator 23.0.1, SVG Export Plug-In . SVG Version: 6.00 Build 0)  -->
<svg version="1.1" id="_x31_f30d" xmlns="http://www.w3.org/2000/svg" xmlns:xlink="http://www.w3.org/1999/xlink" x="0px" y="0px"
	 viewBox="0 0 36 36" style="enable-background:new 0 0 36 36;" xml:space="preserve">
<circle style="fill:#88C9F9;" cx="18" cy="18" r="18"/>
<path style="fill:#5C913B;" d="M25.716,1.756c-1.022,0.568-1.872,1.528-3.028,1.181c-1.875-0.562-4.375-1.812-6-0.25s-2,3,0,2.938
	s3.375-2.438,4.375-1.438S21.812,6,19.438,6.312S14.5,7,13.125,7s-1.688,0.812-0.75,1.688S11.812,9.625,10.25,10.5
	s0.375,1.25,1.688,2s2.312-0.188,2.875-1.438s2.981-2.75,3.99-2.562c1.01,0.188,1.01,0.688,0.822,1.562s0.75,0.625,0.812-0.375
	s1.188-1.75,2.062-1.812s1.625,1.188,0.625,1.812s-2,1.125-0.75,1.438s2.125,1.938,0.688,2.625S19.125,14.875,18,14.312
	s-3.688-1.375-4.375-0.938s-1.062,0.89-1.875,1.195c-0.812,0.305-4.125,1.805-4.188,3.743S7.438,22.438,8.75,22.5
	s4.5-0.812,5.5-1.625s2.375-0.625,2.812,0.312s0.125,1.5-0.312,3s0.286,2.25,0.987,3.562c0.701,1.312,1.263,2.062,1.263,3
	s1,1.875,2.5,0.312s2.875-4.625,3.5-5.75s1.125-3.625,1.875-4.125s1.938-1.688,1.062-1.5s-2.625-0.062-3.062-1.312
	s-2.312-3.625-1.438-3.875s1.875,1.39,2.25,2.164c0.375,0.774,0.875,1.711,1.625,1.961s2.375-1.673,2.875-1.961
	c0.5-0.289,0.125-1.476-0.875-1.351S27,15.312,27,14.688s1.25-1.438,2.25-1.25s1.75,0.5,2.375,1.25s1.875,2.125,2.375,3
	s0.875,1,1.125-0.562c0.166-1.038,0.387-1.609,0.59-2.222C34.702,9.075,30.895,4.221,25.716,1.756z"/>
</svg>
