<?xml version="1.0" encoding="iso-8859-1"?>
<!-- Generator: Adobe Illustrator 23.0.1, SVG Export Plug-In . SVG Version: 6.00 Build 0)  -->
<svg version="1.1" id="_x31_f621" xmlns="http://www.w3.org/2000/svg" xmlns:xlink="http://www.w3.org/1999/xlink" x="0px" y="0px"
	 viewBox="0 0 36 36" style="enable-background:new 0 0 36 36;" xml:space="preserve">
<path style="fill:#DA2F47;" d="M36,18c0,9.941-8.059,18-18,18C8.06,36,0,27.941,0,18C0,8.06,8.06,0,18,0C27.941,0,36,8.06,36,18"/>
<path style="fill:#292F33;" d="M25.485,29.879C25.44,29.7,24.317,25.5,18,25.5c-6.318,0-7.44,4.2-7.485,4.379
	c-0.055,0.217,0.043,0.442,0.237,0.554c0.195,0.109,0.439,0.079,0.6-0.077C11.371,30.337,13.306,28.5,18,28.5
	s6.63,1.837,6.648,1.855C24.744,30.45,24.872,30.5,25,30.5c0.084,0,0.169-0.021,0.246-0.064
	C25.442,30.324,25.54,30.097,25.485,29.879z"/>
<path style="fill:#292F33;" d="M15.707,17.293C12.452,14.038,7.221,14,7,14c-0.552,0-0.999,0.447-0.999,0.998
	C6,15.55,6.447,15.998,6.999,16c0.029,0,1.925,0.022,3.983,0.737C10.389,17.377,10,18.371,10,19.5c0,1.934,1.119,3.5,2.5,3.5
	s2.5-1.566,2.5-3.5c0-0.174-0.019-0.34-0.037-0.507C14.976,18.993,14.988,19,15,19c0.256,0,0.512-0.098,0.707-0.293
	C16.098,18.316,16.098,17.684,15.707,17.293z"/>
<path style="fill:#292F33;" d="M29,14c-0.221,0-5.451,0.038-8.707,3.293c-0.391,0.391-0.391,1.023,0,1.414
	C20.488,18.902,20.744,19,21,19c0.013,0,0.024-0.007,0.036-0.007C21.02,19.16,21,19.326,21,19.5c0,1.934,1.119,3.5,2.5,3.5
	s2.5-1.566,2.5-3.5c0-1.129-0.389-2.123-0.982-2.763C27.076,16.022,28.972,16,29.002,16c0.551-0.002,0.998-0.45,0.997-1.002
	C29.998,14.447,29.552,14,29,14z"/>
</svg>
