<?xml version="1.0" encoding="iso-8859-1"?>
<!-- Generator: Adobe Illustrator 23.0.1, SVG Export Plug-In . SVG Version: 6.00 Build 0)  -->
<svg version="1.1" id="_x32_640" xmlns="http://www.w3.org/2000/svg" xmlns:xlink="http://www.w3.org/1999/xlink" x="0px" y="0px"
	 viewBox="0 0 36 36" style="enable-background:new 0 0 36 36;" xml:space="preserve">
<path style="fill:#EA596E;" d="M36,32c0,2.209-1.791,4-4,4H4c-2.209,0-4-1.791-4-4V4c0-2.209,1.791-4,4-4h28c2.209,0,4,1.791,4,4V32
	z"/>
<path style="fill:#FFFFFF;" d="M18,22.5c-4.687,0-8.5-3.813-8.5-8.5s3.813-8.5,8.5-8.5s8.5,3.813,8.5,8.5S22.687,22.5,18,22.5z
	 M18,8.5c-3.033,0-5.5,2.468-5.5,5.5s2.467,5.5,5.5,5.5s5.5-2.468,5.5-5.5S21.033,8.5,18,8.5z"/>
<path style="fill:#FFFFFF;" d="M18,31.5c-0.829,0-1.5-0.672-1.5-1.5v-9c0-0.828,0.671-1.5,1.5-1.5s1.5,0.672,1.5,1.5v9
	C19.5,30.828,18.829,31.5,18,31.5z"/>
<path style="fill:#FFFFFF;" d="M22.875,27.5h-9.75c-0.829,0-1.5-0.672-1.5-1.5s0.671-1.5,1.5-1.5h9.75c0.829,0,1.5,0.672,1.5,1.5
	S23.704,27.5,22.875,27.5z"/>
</svg>
