<?xml version="1.0" encoding="iso-8859-1"?>
<!-- Generator: Adobe Illustrator 23.0.1, SVG Export Plug-In . SVG Version: 6.00 Build 0)  -->
<svg version="1.1" id="_x32_6fa" xmlns="http://www.w3.org/2000/svg" xmlns:xlink="http://www.w3.org/1999/xlink" x="0px" y="0px"
	 viewBox="0 0 36 36" style="enable-background:new 0 0 36 36;" xml:space="preserve">
<path style="fill:#F4900C;" d="M16.812,33c-0.588,0-1.112-0.37-1.31-0.924L8.549,12.608c-0.152-0.426-0.087-0.872,0.173-1.242
	c0.261-0.369,0.685-0.563,1.137-0.563h16.313c0.557,0,1.059,0.305,1.279,0.817l8.343,19.455c0.184,0.43,0.14,0.917-0.116,1.307
	C35.419,32.772,34.982,33,34.515,33H16.812z"/>
<path style="fill:#FFCC4D;" d="M1.515,33c-0.467,0-0.904-0.236-1.162-0.625c-0.256-0.391-0.3-0.885-0.116-1.315l8.348-19.479
	c0.218-0.51,0.722-0.843,1.278-0.843c0.557,0,1.061,0.333,1.279,0.843l8.348,19.479c0.184,0.431,0.139,0.924-0.117,1.315
	C19.117,32.764,18.68,33,18.212,33H1.515z"/>
<polygon style="fill:#292F33;" points="9.859,14.182 7.077,33 12.64,33 "/>
<polygon style="fill:#FFAC33;" points="15.46,31.456 16.081,33 12.64,33 "/>
<polygon style="fill:#FFAC33;" points="4.257,31.456 3.636,33 7.077,33 "/>
<path style="fill:#FFE8B6;" d="M12.64,33c0,0,2.529-0.645,3.766-1.786L9.859,14.182L12.64,33z"/>
<path style="fill:#FFE8B6;" d="M7.077,33c0,0-2.529-0.645-3.766-1.786l6.546-17.031L7.077,33z"/>
<g>
	<g>
		<defs>
			<rect id="SVGID_1_" x="14.361" y="1.64" width="19.694" height="19.694"/>
		</defs>
		<g style="clip-path:url(#SVGID_2_);">
			<defs>
				<rect id="SVGID_3_" x="14.361" y="1.64" width="19.694" height="19.694"/>
			</defs>
			<path style="clip-path:url(#SVGID_4_);fill:#FFCC4D;" d="M34.054,11.487c0,5.438-4.409,9.847-9.847,9.847
				c-5.438,0-9.847-4.409-9.847-9.847c0-5.438,4.409-9.847,9.847-9.847C29.646,1.64,34.054,6.049,34.054,11.487"/>
			<path style="clip-path:url(#SVGID_4_);fill:#664500;" d="M22.019,9.572c0,1.058-0.612,1.915-1.368,1.915
				c-0.755,0-1.368-0.857-1.368-1.915c0-1.057,0.612-1.915,1.368-1.915C21.407,7.657,22.019,8.514,22.019,9.572"/>
			<path style="clip-path:url(#SVGID_4_);fill:#664500;" d="M29.131,9.572c0,1.058-0.612,1.915-1.368,1.915
				c-0.755,0-1.368-0.857-1.368-1.915c0-1.057,0.612-1.915,1.368-1.915C28.519,7.657,29.131,8.514,29.131,9.572"/>
			<path style="clip-path:url(#SVGID_4_);fill:#664500;" d="M19.101,16.886c0.097,0.088,0.243,0.094,0.347,0.016
				c0.021-0.016,2.146-1.586,4.759-1.586c2.607,0,4.738,1.571,4.759,1.586c0.104,0.078,0.25,0.071,0.347-0.016
				c0.097-0.088,0.119-0.232,0.051-0.344c-0.071-0.118-1.76-2.868-5.158-2.868s-5.088,2.751-5.158,2.868
				C18.982,16.655,19.003,16.799,19.101,16.886"/>
		</g>
	</g>
</g>
</svg>
