<?xml version="1.0" encoding="iso-8859-1"?>
<!-- Generator: Adobe Illustrator 23.0.1, SVG Export Plug-In . SVG Version: 6.00 Build 0)  -->
<svg version="1.1" id="_x31_f970" xmlns="http://www.w3.org/2000/svg" xmlns:xlink="http://www.w3.org/1999/xlink" x="0px" y="0px"
	 viewBox="0 0 36 36" style="enable-background:new 0 0 36 36;" xml:space="preserve">
<circle style="fill:#FFCC4D;" cx="18" cy="18" r="18"/>
<path style="fill:#664500;" d="M16,16.958c-0.419,0-0.809-0.265-0.949-0.684c-0.203-0.599-1.018-2.316-2.051-2.316
	c-1.062,0-1.888,1.827-2.051,2.316c-0.175,0.523-0.738,0.808-1.265,0.632c-0.524-0.174-0.807-0.741-0.632-1.265
	c0.125-0.377,1.304-3.684,3.949-3.684s3.823,3.307,3.949,3.684c0.175,0.524-0.108,1.091-0.632,1.265
	C16.212,16.942,16.105,16.958,16,16.958z"/>
<path style="fill:#664500;" d="M26,16.958c-0.419,0-0.809-0.265-0.948-0.684c-0.203-0.599-1.019-2.316-2.052-2.316
	c-1.062,0-1.889,1.827-2.052,2.316c-0.175,0.523-0.736,0.808-1.265,0.632c-0.523-0.174-0.807-0.741-0.632-1.265
	c0.125-0.377,1.304-3.684,3.948-3.684s3.823,3.307,3.948,3.684c0.175,0.524-0.108,1.091-0.632,1.265
	C26.211,16.942,26.105,16.958,26,16.958z"/>
<path style="fill:#664500;" d="M27.335,20.691c-0.178-0.161-0.444-0.171-0.635-0.029c-0.039,0.029-3.922,2.9-8.7,2.9
	c-4.766,0-8.662-2.871-8.7-2.9c-0.191-0.142-0.457-0.13-0.635,0.029c-0.177,0.16-0.217,0.424-0.094,0.628
	C8.7,21.534,11.788,26.562,18,26.562s9.301-5.028,9.429-5.243C27.552,21.114,27.513,20.852,27.335,20.691z"/>
<path style="fill:#FFAC33;" d="M21.229,3.947c0,0.24,0.03,0.472,0.082,0.696c0.425,2.643,3.364,5.431,5.47,6.197
	c1.665-0.605,3.846-2.476,4.898-4.539c-2.089-2.44-4.819-4.314-7.929-5.362C22.318,1.196,21.229,2.441,21.229,3.947z"/>
<path style="fill:#FFAC33;" d="M13.743,29.078c0.057-0.242,0.09-0.494,0.09-0.754c0-1.833-1.486-3.319-3.319-3.319
	c-1.113,0-2.094,0.549-2.697,1.389c-0.602-0.839-1.584-1.389-2.697-1.389c-1.241,0-2.311,0.689-2.88,1.698
	c1.824,3.295,4.65,5.957,8.068,7.574C11.945,32.926,13.439,30.97,13.743,29.078z"/>
<path style="fill:#FFAC33;" d="M34.301,25.642c-0.282-0.95-1.152-1.647-2.194-1.647c-0.771,0-1.451,0.38-1.868,0.962
	c-0.417-0.582-1.097-0.962-1.868-0.962c-1.27,0-2.299,1.029-2.299,2.299c0,0.18,0.023,0.354,0.062,0.522
	c0.307,1.905,2.348,3.896,3.909,4.561C31.819,29.777,33.274,27.83,34.301,25.642z"/>
<path style="fill:#DD2E44;" d="M33.625,3.269c0-1.692-1.372-3.063-3.063-3.063c-1.027,0-1.933,0.507-2.489,1.282
	c-0.556-0.775-1.462-1.282-2.489-1.282c-1.692,0-3.063,1.371-3.063,3.063c0,0.24,0.03,0.472,0.082,0.696
	c0.426,2.643,3.364,5.431,5.47,6.197c2.106-0.766,5.044-3.554,5.469-6.196C33.595,3.741,33.625,3.509,33.625,3.269z"/>
<path style="fill:#DD2E44;" d="M12.208,28.408c0-1.833-1.486-3.319-3.319-3.319c-1.113,0-2.094,0.549-2.697,1.389
	c-0.602-0.84-1.584-1.389-2.697-1.389c-1.833,0-3.319,1.486-3.319,3.319c0,0.26,0.033,0.511,0.089,0.754
	c0.461,2.863,3.644,5.884,5.926,6.714c2.282-0.829,5.465-3.85,5.926-6.713C12.175,28.919,12.208,28.667,12.208,28.408z"/>
<path style="fill:#DD2E44;" d="M35.948,26.127c0-1.27-1.029-2.299-2.299-2.299c-0.771,0-1.451,0.38-1.868,0.962
	c-0.417-0.582-1.097-0.962-1.868-0.962c-1.27,0-2.299,1.029-2.299,2.299c0,0.18,0.023,0.354,0.062,0.522
	c0.319,1.983,2.524,4.076,4.105,4.65c1.58-0.574,3.786-2.667,4.104-4.65C35.925,26.481,35.948,26.307,35.948,26.127z"/>
</svg>
