<?xml version="1.0" encoding="iso-8859-1"?>
<!-- Generator: Adobe Illustrator 23.0.1, SVG Export Plug-In . SVG Version: 6.00 Build 0)  -->
<svg version="1.1" id="_x31_f3e5" xmlns="http://www.w3.org/2000/svg" xmlns:xlink="http://www.w3.org/1999/xlink" x="0px" y="0px"
	 viewBox="0 0 36 36" style="enable-background:new 0 0 36 36;" xml:space="preserve">
<path style="fill:#CCD6DD;" d="M24,10c0,1.104-0.896,2-2,2h-8c-1.104,0-2-0.896-2-2V2c0-1.104,0.896-2,2-2h8c1.104,0,2,0.896,2,2V10
	z"/>
<path style="fill:#CCD6DD;" d="M0,14v20c0,1.104,0.896,2,2,2h32c1.104,0,2-0.896,2-2V14H0z"/>
<path style="fill:#99AAB5;" d="M18,12H2c-1.104,0-2,0.896-2,2h20C20,12.896,19.104,12,18,12z"/>
<path style="fill:#99AAB5;" d="M34,12H18c-1.104,0-2,0.896-2,2h20C36,12.896,35.104,12,34,12z"/>
<rect x="2" y="22" style="fill:#55ACEE;" width="32" height="4"/>
<rect x="2" y="16" style="fill:#55ACEE;" width="32" height="4"/>
<rect x="2" y="28" style="fill:#55ACEE;" width="32" height="4"/>
<rect x="8" y="12" style="fill:#E1E8ED;" width="20" height="24"/>
<rect x="10" y="20" style="fill:#55ACEE;" width="16" height="4"/>
<rect x="10" y="14" style="fill:#55ACEE;" width="16" height="4"/>
<rect x="10" y="26" style="fill:#55ACEE;" width="16" height="4"/>
<rect x="13" y="32" style="fill:#3B88C3;" width="10" height="4"/>
<polygon style="fill:#DD2E44;" points="22,4 19,4 19,1 17,1 17,4 14,4 14,6 17,6 17,9 19,9 19,6 22,6 "/>
<path style="fill:#99AAB5;" d="M26,10H10c-1.104,0-2,0.896-2,2h20C28,10.896,27.104,10,26,10z"/>
<g>
	<circle style="fill:#FFCC4D;" cx="23" cy="24" r="11"/>
	<ellipse style="fill:#664500;" cx="19.639" cy="23.083" rx="1.528" ry="2.139"/>
	<ellipse style="fill:#664500;" cx="26.361" cy="23.083" rx="1.528" ry="2.139"/>
	<path style="fill:#664500;" d="M29.722,20.334c-3.394,0-4.768-2.669-4.824-2.782c-0.151-0.302-0.029-0.669,0.273-0.82
		c0.301-0.151,0.667-0.029,0.819,0.271c0.045,0.089,1.112,2.109,3.732,2.109c0.338,0,0.611,0.274,0.611,0.611
		C30.333,20.06,30.06,20.334,29.722,20.334z"/>
	<path style="fill:#664500;" d="M16.278,20.33c-0.337,0-0.611-0.274-0.611-0.611c0-0.337,0.274-0.611,0.611-0.611
		c3.107,0,3.664-1.907,3.687-1.988c0.089-0.323,0.422-0.518,0.745-0.433c0.324,0.085,0.52,0.411,0.439,0.736
		C21.119,17.541,20.374,20.33,16.278,20.33z"/>
	<path style="fill:#FFAC33;" d="M33.98,23.43l-2.448,0.497l-9.891,6.422l4.35,0.588l7.141-4.407c0.43-0.263,0.607-0.51,0.732-1.068
		S33.98,23.43,33.98,23.43z"/>
	<path style="fill:#664500;" d="M26.352,30.954c-0.007-0.027-0.7-1.759-3.352-1.759c-2.652,0-3.345,1.732-3.352,1.759
		c-0.033,0.13,0.027,0.263,0.141,0.332c0.115,0.069,0.264,0.053,0.364-0.036c0.006-0.005,0.619-0.528,2.846-0.528
		c2.194,0,2.822,0.507,2.846,0.528c0.058,0.055,0.134,0.084,0.21,0.084c0.051,0,0.103-0.013,0.15-0.039
		C26.326,31.226,26.386,31.087,26.352,30.954z"/>
	<g>
		<path style="fill:#CCD6DD;" d="M33.679,22.612c-0.507-0.675-1.465-0.812-2.139-0.305l-10.515,7.888
			c0.395-0.148,0.923-0.272,1.598-0.319c0.156-0.011,1.626-0.383,1.626-0.383l0.79,0.633c0,0,0.557,0.225,0.731,0.33l7.605-5.705
			C34.048,24.245,34.185,23.287,33.679,22.612z"/>
		<path style="fill:#DA2F47;" d="M29.53,25.754c-0.274-0.364-0.481-0.7-0.845-0.426l-6.063,4.549
			c0.156-0.011,0.306-0.026,0.478-0.027c0.831-0.005,1.467,0.119,1.937,0.276l4.637-3.479C30.039,26.374,29.803,26.118,29.53,25.754
			z"/>
		<polygon style="fill:#67757F;" points="23.366,28.417 24.12,29.394 24.573,29.03 23.842,28.06 		"/>
		<polygon style="fill:#67757F;" points="24.725,27.402 25.479,28.379 25.932,28.015 25.201,27.045 		"/>
		<polygon style="fill:#67757F;" points="26.059,26.413 26.814,27.389 27.266,27.025 26.535,26.056 		"/>
		<polygon style="fill:#67757F;" points="27.392,25.398 28.147,26.374 28.599,26.011 27.868,25.041 		"/>
		<polygon style="fill:#67757F;" points="28.76,24.396 29.514,25.372 29.967,25.008 29.236,24.039 		"/>
		<polygon style="fill:#67757F;" points="30.068,23.407 30.822,24.383 31.275,24.019 30.543,23.05 		"/>
	</g>
	<path style="fill:#452E04;" d="M25.769,30.455l0.492,0.319c0,0-0.12-0.221-0.322-0.444L25.769,30.455z"/>
</g>
</svg>
