<?xml version="1.0" encoding="iso-8859-1"?>
<!-- Generator: Adobe Illustrator 23.0.1, SVG Export Plug-In . SVG Version: 6.00 Build 0)  -->
<svg version="1.1" id="_x31_f5fa" xmlns="http://www.w3.org/2000/svg" xmlns:xlink="http://www.w3.org/1999/xlink" x="0px" y="0px"
	 viewBox="0 0 36 36" style="enable-background:new 0 0 36 36;" xml:space="preserve">
<path style="fill:#CCD6DD;" d="M12,7.607L3,5.196C1.343,4.752,0,5.735,0,7.393v20c0,1.656,1.343,3.359,3,3.804l9,2.411V7.607z"/>
<path style="fill:#CCD6DD;" d="M24,30.393l9,2.411c1.656,0.443,3-0.54,3-2.196v-20c0-1.657-1.344-3.36-3-3.804l-9-2.411V30.393z"/>
<polygon style="fill:#E1E8ED;" points="24,30.392 12,33.607 12,7.607 24,4.392 "/>
<path style="fill:#55ACEE;" d="M12,9.607L4,7.463C2.896,7.167,2,7.823,2,8.927v18c0,1.104,0.896,2.24,2,2.535l8,2.145V9.607z"/>
<path style="fill:#55ACEE;" d="M32,8.535l-8-2.144v22l8,2.144c1.104,0.296,2-0.359,2-1.465v-18C34,9.967,33.104,8.831,32,8.535z"/>
<polygon style="fill:#88C9F9;" points="24,28.392 12,31.607 12,9.607 24,6.392 "/>
<path style="fill:#5C913B;" d="M12,21.506c-0.268,0.006-0.595,0.104-0.845,0.145c-0.436,0.073-0.329,0.517-0.463,0.443
	c-0.135-0.074-0.475-0.265-0.812-0.658c-0.337-0.394,0.25-0.477,0.418-0.622c0.168-0.145-0.316-0.172-0.485-0.332
	c-0.169-0.159-0.471,0.104-0.739-0.276c-0.27-0.376-0.101-0.79-0.133-1.18c-0.034-0.39,0.436-0.341,0.739-0.334
	c0.303,0.003,0.538,0.144,0.538,0.602c0,0.456,0.37,0.708,0.269,0.146c-0.101-0.561,0.101-0.657,0.235-0.89
	c0.134-0.23,0.37-0.55,0.672-1.04c0.221-0.358,0.389-0.283,0.606-0.164v-3.345c-0.055-0.044-0.11-0.09-0.165-0.113
	c-0.303-0.132,0.096,0.753-0.139,1.109c-0.237,0.356-0.598,0.193-0.97,0.094c-0.369-0.099-0.713-0.545-0.443-1.007
	c0.268-0.462,0.782-0.268,1.051-0.653c0.269-0.385-0.957-0.672-1.394-0.941c-0.438-0.271-0.963-0.409-1.4-0.146
	c-0.437,0.264-1.373,0.133-1.743,0.186c-0.37,0.054-0.436-0.369-0.503-0.693c-0.067-0.322-0.653-0.329-1.257-0.338
	c-0.606-0.01-1.741,0.281-1.547,1.759c0.068,0.514,0.605,0.124,0.707,0.036c0.101-0.088,0.605,0.2,0.671,0.637
	c0.068,0.439,0.035,0.887-0.099,1.232c-0.137,0.345,0.336,1.006,0.604,1.612c0.269,0.605,0.573,0.686,0.707,0.723
	c0.135,0.036,0.908,0.587,0.875,0.996c-0.033,0.411,0.706,0.991,1.009,1.34c0.303,0.35,0.494,0.662,0.887,0.846
	c0.393,0.183,0.852,1.035,1.054,1.165c0.155,0.1,0.418,0.451,0.576,0.58c-0.208,0.242-0.612,0.748-0.612,1.029
	c0,0.383,0.44,1.103,0.608,1.3c0.167,0.196,0.65,0.442,0.751,0.85c0.101,0.407-0.07,1.646-0.372,1.907
	c-0.304,0.262-0.414,1.043-0.414,1.043s0.107,0.293,0.465,0.124c0.309-0.144,0.776-0.566,1.094-0.801V21.506z"/>
<path style="fill:#77B255;" d="M12.268,17.413c-0.1,0.016-0.187,0.012-0.268,0.011v-3.345c0.254,0.065,0.512,0.317,0.707,0.736
	c0.234,0.509,0.604,0.066,0.739,0.374c0.134,0.308,0.875,0.758,0.505,0.742c-0.371-0.015-0.741,0.008-0.841,0.454
	c-0.102,0.448,0.168,0.794-0.102,0.828C12.738,17.246,12.638,17.355,12.268,17.413z M14.858,22.971
	c-0.436-0.074-0.359-0.023-0.628-0.599c-0.268-0.577-0.431-0.743-1.036-0.656c-0.605,0.087-0.583,0.136-0.751-0.163
	c-0.072-0.128-0.241-0.082-0.443,0.031v6.37c0.09-0.114,0.17-0.211,0.228-0.267c0.505-0.477,0.996-1.026,1.466-1.646
	c0.47-0.621,0.3-0.924,0.535-1.481c0.236-0.558,0.541-0.617,0.944-1.145C15.578,22.885,15.295,23.047,14.858,22.971z M24,15.731
	V9.417c-0.04,0.004-0.068,0.012-0.11,0.015c-0.209,0.011-0.482,0.135-0.779,0.32c-0.024-0.005-0.046-0.016-0.07-0.021
	c-0.896-0.175-1.312,1.205-2.039,1.152c-0.729-0.053-1.7-0.344-2.332,0.514c-0.631,0.857-0.777,1.53,0,1.294
	c0.777-0.236,1.312-1.425,1.7-1.089c0.388,0.336,0.29,0.721-0.632,1.105c-0.922,0.385-1.918,0.817-2.452,0.96
	c-0.534,0.143-0.655,0.534-0.292,0.822c0.364,0.288-0.219,0.471-0.826,1.02c-0.607,0.547,0.146,0.512,0.656,0.705
	c0.51,0.193,0.898-0.323,1.117-0.932c0.217-0.608,1.158-1.521,1.55-1.544c0.392-0.023,0.392,0.197,0.318,0.602
	c-0.013,0.071,0.001,0.103,0.011,0.138c-0.17,0.54-0.31,1.03-0.365,1.306c-0.026,0.135-0.031,0.351-0.027,0.595
	c-0.086,0.004-0.183,0.021-0.248,0.001c-0.438-0.129-1.434-0.22-1.701,0.043c-0.267,0.265-0.412,0.502-0.728,0.723
	c-0.317,0.219-1.603,1.224-1.627,2.084c-0.025,0.859-0.049,1.83,0.461,1.721c0.51-0.109,1.749-0.826,2.137-1.288
	c0.387-0.463,0.921-0.522,1.092-0.156c0.17,0.369,0.048,0.649-0.12,1.354c-0.171,0.708,0.11,0.963,0.381,1.468
	c0.273,0.504,0.491,0.775,0.491,1.189c0,0.412,0.389,0.723,0.97-0.123c0.188-0.27,0.367-0.606,0.536-0.957
	c0.409-0.469,0.768-0.923,0.758-1.096c-0.016-0.281-0.021-0.434-0.024-0.624c0.033-0.082,0.064-0.157,0.091-0.22
	c0.127-0.293,0.241-0.746,0.362-1.155c0.007-0.01,0.013-0.017,0.02-0.024c0.237-0.337,0.185-0.353,0.58-0.756
	c0.264-0.27,0.254-0.512,0.214-0.678c0.105-0.175,0.134-0.28-0.033-0.235c-0.005,0.001-0.012,0.003-0.016,0.004
	c-0.002,0-0.005,0.019-0.006,0.014c-0.023-0.149-0.206,0.003-0.501,0.148c-0.284,0.008-0.566-0.066-0.668-0.368
	c-0.133-0.396-0.602-0.996-0.639-1.336c0.003-0.041,0.005-0.077,0.01-0.124c0.014-0.036,0.033-0.066,0.069-0.088
	c0.038-0.022,0.075-0.03,0.112-0.035c0.041,0.111,0.075,0.279,0.086,0.464c0.026,0.477,0.394,0.196,0.394,0.498
	c0,0.303,0.53,0.492,0.661,0.548c0.037,0.016,0.094-0.027,0.159-0.098c0.031,0.011,0.06,0.033,0.093,0.037
	c0.292,0.031,0.922-0.984,1.117-1.164c0.102-0.095,0.104-0.269,0.033-0.394C23.965,15.746,23.981,15.74,24,15.731z"/>
<path style="fill:#5C913B;" d="M27.634,20.221c-0.053,0.44,0.184,0.201,0.606,0.705c0.423,0.508-0.104,0.394-0.289,0.316
	c-0.185-0.08-0.37-0.131-0.579-0.518c-0.213-0.391,0-0.695,0-1.027C27.372,19.697,27.688,19.781,27.634,20.221z M27.996,19.32
	c0.389,0.166,0.114-0.482,0.244-0.841c0.132-0.356,0.316-0.368,0.555-0.363c0.236,0.002,0.422-0.191,0.581-0.389
	c0.157-0.199,0.448-0.454,0.422-0.733c-0.026-0.279-0.104-0.482-0.212-0.843c-0.105-0.36,0.316-0.368,0.502-0.711
	c0.184-0.343,0,0,0.421-0.008c0.422-0.008,0.238-0.058,0.316-0.218c0.08-0.159,0.133-0.327,0.054-0.68
	c-0.078-0.353-0.37-0.1-0.66-0.177c-0.289-0.077,0.106-0.425,0.132-0.78c0.026-0.356,0.397-0.165,0.661-0.125
	c0.263,0.039,0.342,0.484,0.421,0.597c0.081,0.112,0.895-0.365,1.108-0.641c0.211-0.275-0.186-0.291-0.079-0.403
	c0.106-0.111-0.632-0.337-0.925-0.469c-0.289-0.133-1.028-0.367-1.318-0.649c-0.289-0.283-1.396-0.426-1.688-0.337
	c-0.291,0.086-0.476-0.143-0.606-0.406c-0.131-0.262-0.686-0.297-0.844-0.467c-0.158-0.17-0.316,0.127-0.529,0.16
	c-0.21,0.035-0.289,0.043-0.554-0.209c-0.263-0.252,0.08-0.371-0.288-0.621C25.355,9.769,24.897,9.825,24,9.416v6.314
	c0.157,0.014,0.309,0.036,0.364,0.051c0.131,0.035,0.448,0.573,0.448,0.784c0,0.211,0.158,0.828,0.291,1.195
	c0.131,0.366,0.42,0.506,0.686,0.818c0.264,0.312,0.394,0.137,0.394,0.137s-0.105-0.544-0.105-0.965
	c0-0.424,0.316-0.701,0.316-0.701s0.5,0.558,0.528,0.685c0.026,0.128,0.421,0.656,0.449,0.876
	C27.397,18.829,27.608,19.156,27.996,19.32z M30.088,17.252c0.184,0.08,0.976,0.171,0.554-0.334
	c-0.423-0.506-0.106-0.299-0.053-0.738c0.053-0.44-0.264-0.524-0.264-0.524c0,0.332-0.211,0.638,0,1.026
	C30.535,17.072,29.902,17.172,30.088,17.252z M32.092,22.623c-0.131-0.217-0.421-0.385-0.738-0.461
	c-0.315-0.076-0.29-0.48-0.606-0.533c-0.316-0.055-0.544-0.389-0.686-0.512c-0.312-0.266-0.106,0.209,0,0.699
	c0.106,0.488,0.501,0.246,0.869,0.586c0.369,0.34,0.397,0.016,0.74,0.229c0.342,0.211,0.475,0.52,0.804,0.578
	C32.804,23.268,32.225,22.84,32.092,22.623z M29.004,21.191c0.262,0.402,0.159,0.043,0.504-0.016
	c0.343-0.059-0.291-0.561-0.502-0.799c-0.211-0.238-0.42-0.301-0.605,0.049C28.191,20.824,28.743,20.789,29.004,21.191z
	 M31.407,23.77c-0.133-0.338-0.518-0.713-0.675-0.91c-0.159-0.193-0.407-0.312-0.618-0.279c-0.212,0.031-0.343-0.092-0.448-0.361
	c-0.106-0.266-0.29-0.233-0.449-0.244c-0.157-0.012-0.791,0.119-1.161,0.23c-0.368,0.113-0.537,0.252-0.778,0.457
	c-0.382,0.32-0.17,0.105,0,0.424c0.168,0.318-0.187,1.066-0.213,1.543c-0.027,0.477,0.676,0.031,0.939,0.039
	c0.264,0.012,0.186-0.189,0.396-0.314c0.212-0.125,0.349-0.129,0.579,0.172c0.233,0.305,0.537,0.611,0.537,0.883
	c0,0.27,0.834,0.947,1.151,0.852c0.316-0.098,0.501-0.408,0.791-0.635c0.291-0.225,0.186-0.824,0.264-1.168
	C31.803,24.115,31.537,24.105,31.407,23.77z"/>
<g>
	<g>
		<defs>
			<rect id="SVGID_1_" x="2" y="1" width="15" height="15"/>
		</defs>
		<g style="clip-path:url(#SVGID_2_);">
			<defs>
				<rect id="SVGID_3_" x="2" y="1" width="15" height="15"/>
			</defs>
			<path style="clip-path:url(#SVGID_4_);fill:#F4900C;" d="M17,8.5c0,4.142-3.358,7.5-7.5,7.5S2,12.642,2,8.5S5.358,1,9.5,1
				S17,4.358,17,8.5"/>
			<path style="clip-path:url(#SVGID_4_);fill:#FFD983;" d="M13.772,4.228c2.36,2.36,2.36,6.185,0,8.544
				c-2.359,2.36-6.185,2.36-8.544,0c-2.359-2.359-2.359-6.185,0-8.544C7.587,1.868,11.413,1.868,13.772,4.228"/>
			<path style="clip-path:url(#SVGID_4_);fill:#F5F8FA;" d="M13.33,4.67c2.115,2.115,2.115,5.545,0,7.66s-5.545,2.115-7.66,0
				c-2.115-2.115-2.115-5.545,0-7.66C7.785,2.554,11.215,2.554,13.33,4.67"/>
			<polygon style="clip-path:url(#SVGID_4_);fill:#CCD6DD;" points="9.5,4.333 10.137,6.96 12.446,5.554 11.04,7.862 13.667,8.5
				11.04,9.137 12.446,11.446 10.137,10.04 9.5,12.667 8.862,10.04 6.554,11.446 7.96,9.137 5.333,8.5 7.96,7.862 6.554,5.554
				8.862,6.96 			"/>
			<polygon style="clip-path:url(#SVGID_4_);fill:#292F33;" points="9.226,9.645 12.883,11.887 10.642,8.23 			"/>
			<polygon style="clip-path:url(#SVGID_4_);fill:#DD2E44;" points="9.774,7.361 6.116,5.119 8.358,8.777 			"/>
			<path style="clip-path:url(#SVGID_4_);fill:#8899A6;" d="M10.4,7.603c0.497,0.497,0.497,1.303,0,1.8
				C9.903,9.9,9.097,9.9,8.6,9.403c-0.497-0.497-0.497-1.303,0-1.8C9.097,7.106,9.903,7.106,10.4,7.603"/>
			<path style="clip-path:url(#SVGID_4_);fill:#F5F8FA;" d="M9.985,8.018c0.268,0.268,0.268,0.703,0,0.971
				c-0.268,0.268-0.703,0.268-0.971,0c-0.268-0.268-0.268-0.703,0-0.971C9.283,7.75,9.717,7.75,9.985,8.018"/>
		</g>
	</g>
</g>
</svg>
