<?xml version="1.0" encoding="iso-8859-1"?>
<!-- Generator: Adobe Illustrator 23.0.1, SVG Export Plug-In . SVG Version: 6.00 Build 0)  -->
<svg version="1.1" id="_x31_f397" xmlns="http://www.w3.org/2000/svg" xmlns:xlink="http://www.w3.org/1999/xlink" x="0px" y="0px"
	 viewBox="0 0 36 36" style="enable-background:new 0 0 36 36;" xml:space="preserve">
<g>
	<path style="fill:#1C6399;" d="M13.193,8.624C13.193,8.624,14.75,7,18,7s4.955,1.692,4.955,1.692l0.186,0.136
		c0,0,1.906-3.594,0.517-6.659C22.593,1.464,20.661,0.5,18,0.5c-2.554,0-4.451,0.893-5.54,1.589
		c-1.507,3.068,0.509,6.661,0.509,6.661L13.193,8.624z"/>
	<path style="fill:#1C6399;" d="M11.444,2.853c-0.01,0.009-0.039,0.035-0.042,0.038l0,0c0.013-0.011,0.025-0.023,0.038-0.033
		C11.44,2.858,11.443,2.854,11.444,2.853z"/>
	<path style="fill:#50A5E6;" d="M28.382,27.677c-0.06-0.071-3.026-3.58-6.27-7.491c-1.163,1.674-2.586,3.723-4.01,5.771
		c3.237,4.656,6.437,9.257,6.488,9.33C24.685,35.422,24.838,35.5,25,35.5c0.018,0,0.034-0.001,0.052-0.003
		c0.181-0.019,0.336-0.134,0.408-0.3l3-7C28.534,28.023,28.504,27.821,28.382,27.677z"/>
	<path style="fill:#50A5E6;" d="M14.04,10.096c-0.343-0.509-0.611-0.996-0.846-1.472c-1.027-2.078-1.125-3.849-0.945-5.333
		c0.059-0.487,0.152-0.905,0.211-1.202c-0.593,0.378-0.925,0.679-1.016,0.765c-0.001,0.001-0.003,0.004-0.004,0.005
		c-0.013,0.011-0.025,0.023-0.038,0.033C9.28,4.591,8.156,6.788,8.156,9.25c0,2.469,1.719,4.781,3.237,7.042
		c0.105,0.156,1.195,1.727,2.707,3.904c1.357-1.636,2.755-3.334,4.009-4.88C16.227,13,14.658,11.014,14.04,10.096z"/>
	<path style="fill:#2B7BB9;" d="M24.685,2.975l-0.086-0.083c-0.035-0.034-0.368-0.343-0.941-0.722
		c0.058,0.298,0.157,0.729,0.218,1.237c0.178,1.473,0.084,3.228-0.921,5.285c-0.24,0.491-0.516,0.994-0.87,1.52
		c-0.608,0.902-2.135,2.838-3.975,5.105c-1.255,1.546-2.653,3.244-4.009,4.88c-3.278,3.953-6.297,7.525-6.357,7.596
		C7.62,27.938,7.59,28.14,7.664,28.313l3,7c0.072,0.166,0.228,0.281,0.408,0.3c0.018,0.002,0.034,0.003,0.052,0.003
		c0.162,0,0.315-0.078,0.409-0.213c0.052-0.074,3.305-4.751,6.569-9.447c1.423-2.048,2.847-4.096,4.01-5.771
		c1.465-2.11,2.516-3.624,2.619-3.778c1.518-2.261,3.237-4.574,3.237-7.042C27.968,6.888,26.833,4.678,24.685,2.975z"/>
</g>
</svg>
