<?xml version="1.0" encoding="iso-8859-1"?>
<!-- Generator: Adobe Illustrator 23.0.1, SVG Export Plug-In . SVG Version: 6.00 Build 0)  -->
<svg version="1.1" id="_x31_f602" xmlns="http://www.w3.org/2000/svg" xmlns:xlink="http://www.w3.org/1999/xlink" x="0px" y="0px"
	 viewBox="0 0 36 36" style="enable-background:new 0 0 36 36;" xml:space="preserve">
<path style="fill:#FFCC4D;" d="M36,18c0,9.941-8.059,18-18,18C8.06,36,0,27.941,0,18C0,8.06,8.06,0,18,0C27.941,0,36,8.06,36,18"/>
<path style="fill:#664500;" d="M28.457,17.797C28.397,17.662,26.958,14.5,24,14.5c-2.957,0-4.397,3.162-4.457,3.297
	c-0.092,0.207-0.032,0.449,0.145,0.591c0.175,0.142,0.426,0.147,0.61,0.014C20.31,18.393,21.56,17.5,24,17.5
	c2.426,0,3.674,0.881,3.702,0.901C27.79,18.467,27.896,18.5,28,18.5c0.11,0,0.221-0.037,0.312-0.109
	C28.489,18.249,28.55,18.005,28.457,17.797z"/>
<path style="fill:#664500;" d="M16.457,17.797C16.397,17.662,14.958,14.5,12,14.5c-2.957,0-4.397,3.162-4.457,3.297
	c-0.092,0.207-0.032,0.449,0.144,0.591c0.176,0.142,0.427,0.147,0.61,0.014C8.31,18.393,9.559,17.5,12,17.5
	c2.426,0,3.674,0.881,3.702,0.901C15.79,18.467,15.896,18.5,16,18.5c0.11,0,0.221-0.037,0.312-0.109
	C16.49,18.249,16.549,18.005,16.457,17.797z"/>
<path style="fill:#664500;" d="M31,16c-0.396,0-0.772-0.238-0.929-0.629c-1.778-4.445-6.223-5.381-6.268-5.391
	c-0.541-0.108-0.893-0.635-0.784-1.177c0.108-0.542,0.635-0.891,1.177-0.784c0.226,0.045,5.556,1.168,7.732,6.608
	c0.205,0.513-0.045,1.095-0.558,1.3C31.25,15.977,31.124,16,31,16z"/>
<path style="fill:#664500;" d="M5,16c-0.124,0-0.249-0.023-0.371-0.072c-0.513-0.205-0.762-0.787-0.557-1.3
	c2.176-5.44,7.506-6.563,7.732-6.608c0.543-0.106,1.068,0.243,1.177,0.784c0.108,0.54-0.242,1.066-0.781,1.176
	c-0.185,0.038-4.506,0.98-6.271,5.391C5.772,15.762,5.396,16,5,16z"/>
<path style="fill:#664500;" d="M18,22c-3.623,0-6.027-0.422-9-1c-0.679-0.131-2,0-2,2c0,4,4.595,9,11,9c6.404,0,11-5,11-9
	c0-2-1.321-2.132-2-2C24.027,21.578,21.623,22,18,22z"/>
<path style="fill:#FFFFFF;" d="M9,23c0,0,3,1,9,1s9-1,9-1s-2,4-9,4S9,23,9,23z"/>
<path style="fill:#5DADEC;" d="M10.847,28.229c-0.68,2.677-3.4,4.295-6.077,3.615c-2.676-0.679-4.295-3.399-3.616-6.076
	c0.679-2.677,6.337-8.708,7.307-8.462C9.431,17.553,11.526,25.553,10.847,28.229z"/>
<path style="fill:#5DADEC;" d="M25.133,28.229c0.68,2.677,3.4,4.295,6.077,3.615c2.677-0.679,4.296-3.399,3.616-6.076
	c-0.68-2.677-6.338-8.708-7.308-8.462C26.55,17.553,24.454,25.553,25.133,28.229z"/>
</svg>
