<?xml version="1.0" encoding="iso-8859-1"?>
<!-- Generator: Adobe Illustrator 23.0.1, SVG Export Plug-In . SVG Version: 6.00 Build 0)  -->
<svg version="1.1" id="_x31_f4d0" xmlns="http://www.w3.org/2000/svg" xmlns:xlink="http://www.w3.org/1999/xlink" x="0px" y="0px"
	 viewBox="0 0 36 36" style="enable-background:new 0 0 36 36;" xml:space="preserve">
<path style="fill:#FFCC4D;" d="M35.106,33.172L2.828,0.894C1.273-0.662,0-0.135,0,2.065V32c0,2.2,1.8,4,4,4h29.935
	C36.135,36,36.662,34.728,35.106,33.172z M16.967,28H10c-1.1,0-2-0.9-2-2v-6.968c0-1.1,0.637-1.363,1.414-0.586l8.139,8.14
	C18.33,27.363,18.066,28,16.967,28z"/>
<g>
	<g>
		<defs>
			<rect id="SVGID_1_" x="12.5" y="1.556" width="20.277" height="20.277"/>
		</defs>
		<g style="clip-path:url(#SVGID_2_);">
			<defs>
				<rect id="SVGID_3_" x="12.5" y="1.556" width="20.277" height="20.277"/>
			</defs>
			<path style="clip-path:url(#SVGID_4_);fill:#FFCC4D;" d="M29.409,20.855c-0.88,0.88-2.306,0.88-3.186,0L13.478,8.111
				c-0.88-0.88-0.88-2.306,0-3.187l2.389-2.389c0.88-0.88,2.307-0.88,3.187,0L31.798,15.28c0.88,0.88,0.88,2.306,0.001,3.186
				L29.409,20.855z"/>
			<path style="clip-path:url(#SVGID_4_);fill:#292F33;" d="M17.859,5.323c-0.22,0.22-0.576,0.22-0.796,0
				c-0.22-0.22-0.22-0.577,0-0.797l1.992-1.991c0.273,0.274,0.522,0.523,0.796,0.796L17.859,5.323z"/>
			<path style="clip-path:url(#SVGID_4_);fill:#292F33;" d="M21.045,6.119c-0.22,0.22-0.576,0.22-0.796,0
				c-0.22-0.22-0.22-0.577,0-0.796l0.796-0.797c0.274,0.274,0.523,0.523,0.797,0.797L21.045,6.119z"/>
			<path style="clip-path:url(#SVGID_4_);fill:#292F33;" d="M21.842,9.305c-0.22,0.22-0.577,0.22-0.797,0
				c-0.22-0.22-0.22-0.577,0-0.796l1.992-1.992c0.274,0.274,0.523,0.523,0.796,0.797L21.842,9.305z"/>
			<path style="clip-path:url(#SVGID_4_);fill:#292F33;" d="M25.028,10.102c-0.22,0.22-0.576,0.22-0.796,0
				c-0.221-0.22-0.22-0.577,0-0.796l0.796-0.797c0.273,0.274,0.523,0.523,0.796,0.797L25.028,10.102z"/>
			<path style="clip-path:url(#SVGID_4_);fill:#292F33;" d="M25.825,13.288c-0.22,0.22-0.576,0.221-0.796,0
				c-0.22-0.22-0.22-0.576-0.001-0.796L27.02,10.5c0.274,0.274,0.523,0.523,0.796,0.796L25.825,13.288z"/>
			<path style="clip-path:url(#SVGID_4_);fill:#292F33;" d="M29.807,17.271c-0.22,0.22-0.576,0.22-0.796,0
				c-0.221-0.22-0.221-0.576-0.001-0.796l1.992-1.991l0.796,0.796L29.807,17.271z"/>
			<path style="clip-path:url(#SVGID_4_);fill:#292F33;" d="M29.011,14.084c-0.22,0.22-0.576,0.22-0.796,0.001
				c-0.22-0.22-0.22-0.576,0-0.796l0.797-0.796l0.796,0.796L29.011,14.084z"/>
		</g>
	</g>
</g>
</svg>
