<?xml version="1.0" encoding="iso-8859-1"?>
<!-- Generator: Adobe Illustrator 23.0.1, SVG Export Plug-In . SVG Version: 6.00 Build 0)  -->
<svg version="1.1" id="_x31_f4b5" xmlns="http://www.w3.org/2000/svg" xmlns:xlink="http://www.w3.org/1999/xlink" x="0px" y="0px"
	 viewBox="0 0 36 36" style="enable-background:new 0 0 36 36;" xml:space="preserve">
<path style="fill:#A7D28B;" d="M2,6C0,6,0,8,0,8v20c0,0,0,2,2,2h32c2,0,2-2,2-2V8c0,0,0-2-2-2H2z"/>
<rect x="13" y="6" style="fill:#9AAAB4;" width="10" height="24.062"/>
<path style="fill:#67757F;" d="M11,20.031c0-2.979-5.493-2.785-5.493-4.584c0-0.871,0.833-1.296,1.799-1.296
	c1.625,0,1.914,1.044,2.65,1.044c0.521,0,0.772-0.328,0.772-0.696c0-0.856-1.296-1.502-2.539-1.726v-0.825
	c0-0.515-0.417-0.932-0.932-0.932s-0.932,0.417-0.932,0.932v0.853c-1.354,0.31-2.521,1.25-2.521,2.781
	c0,2.862,5.493,2.746,5.493,4.758c0,0.695-0.754,1.391-1.992,1.391c-1.857,0-2.476-1.257-3.229-1.257
	c-0.368,0-0.696,0.309-0.696,0.775c0,0.741,1.24,1.631,2.947,1.881c0,0.001-0.001,0.004-0.001,0.004v0.934
	C6.326,24.582,6.744,25,7.259,25s0.932-0.418,0.932-0.932v-0.934c0-0.01-0.005-0.019-0.006-0.028C9.719,22.819,11,21.82,11,20.031z"
	/>
</svg>
