<?xml version="1.0" encoding="iso-8859-1"?>
<!-- Generator: Adobe Illustrator 23.0.1, SVG Export Plug-In . SVG Version: 6.00 Build 0)  -->
<svg version="1.1" id="_x31_f3b2" xmlns="http://www.w3.org/2000/svg" xmlns:xlink="http://www.w3.org/1999/xlink" x="0px" y="0px"
	 viewBox="0 0 36 36" style="enable-background:new 0 0 36 36;" xml:space="preserve">
<g>
	<g>
		<defs>
			<rect id="SVGID_1_" x="12" y="3" width="21" height="21"/>
		</defs>
		<g style="clip-path:url(#SVGID_2_);">
			<defs>
				<rect id="SVGID_3_" x="12" y="3" width="21" height="21"/>
			</defs>
			<path style="clip-path:url(#SVGID_4_);fill:#F5F8FA;" d="M22.5,24C16.701,24,12,19.299,12,13.5S16.701,3,22.5,3S33,7.701,33,13.5
				S28.298,24,22.5,24"/>
			<path style="clip-path:url(#SVGID_4_);fill:#CCD6DD;" d="M22.5,9.417c-0.322,0-0.583-0.261-0.583-0.583V4.75
				c0-0.322,0.261-0.583,0.583-0.583c0.322,0,0.583,0.261,0.583,0.583v4.083C23.083,9.155,22.822,9.417,22.5,9.417"/>
			<path style="clip-path:url(#SVGID_4_);fill:#CCD6DD;" d="M18.66,12.042c-0.058,0-0.118-0.009-0.176-0.027l-4.691-1.482
				c-0.307-0.097-0.478-0.425-0.381-0.732c0.097-0.307,0.426-0.478,0.732-0.381l4.691,1.483c0.307,0.097,0.478,0.425,0.38,0.732
				C19.137,11.883,18.907,12.042,18.66,12.042"/>
			<path style="clip-path:url(#SVGID_4_);fill:#CCD6DD;" d="M26.608,11.872c-0.253,0-0.486-0.166-0.56-0.421
				c-0.09-0.309,0.088-0.633,0.398-0.723l3.938-1.142c0.31-0.09,0.633,0.089,0.722,0.397c0.09,0.31-0.088,0.634-0.398,0.723
				l-3.938,1.143C26.716,11.864,26.661,11.872,26.608,11.872"/>
			<path style="clip-path:url(#SVGID_4_);fill:#CCD6DD;" d="M27.775,20.597c-0.179,0-0.354-0.082-0.468-0.235l-3.184-4.278
				c-0.193-0.258-0.139-0.624,0.12-0.816c0.258-0.193,0.624-0.139,0.816,0.12l3.184,4.278c0.192,0.258,0.139,0.624-0.12,0.816
				C28.018,20.56,27.896,20.597,27.775,20.597"/>
			<path style="clip-path:url(#SVGID_4_);fill:#CCD6DD;" d="M17.104,20.549c-0.115,0-0.231-0.034-0.333-0.104
				c-0.264-0.184-0.33-0.547-0.146-0.811l2.99-4.302c0.184-0.265,0.547-0.331,0.812-0.146c0.264,0.184,0.33,0.547,0.146,0.811
				l-2.99,4.302C17.47,20.462,17.288,20.549,17.104,20.549"/>
			<path style="clip-path:url(#SVGID_4_);fill:#CCD6DD;" d="M14.041,18.786c-0.257,0-0.492-0.171-0.563-0.431l-1.276-4.703
				c-0.085-0.31,0.099-0.631,0.41-0.716c0.312-0.082,0.632,0.1,0.716,0.411l1.276,4.703c0.084,0.311-0.1,0.631-0.411,0.716
				C14.143,18.78,14.092,18.786,14.041,18.786"/>
			<path style="clip-path:url(#SVGID_4_);fill:#CCD6DD;" d="M24.833,22.833h-5.25c-0.322,0-0.583-0.261-0.583-0.583
				s0.261-0.583,0.583-0.583h5.25c0.323,0,0.583,0.261,0.583,0.583S25.156,22.833,24.833,22.833"/>
			<path style="clip-path:url(#SVGID_4_);fill:#CCD6DD;" d="M30.74,18.823c-0.046,0-0.093-0.005-0.14-0.017
				c-0.313-0.077-0.504-0.393-0.427-0.706l1.24-5.031c0.078-0.313,0.396-0.503,0.706-0.427c0.313,0.077,0.505,0.393,0.427,0.706
				l-1.24,5.031C31.24,18.645,31.002,18.823,30.74,18.823"/>
			<path style="clip-path:url(#SVGID_4_);fill:#CCD6DD;" d="M29.682,7.484c-0.099,0-0.2-0.025-0.292-0.078l-4.412-2.552
				c-0.278-0.162-0.374-0.518-0.212-0.797c0.161-0.279,0.517-0.375,0.797-0.213l4.412,2.552c0.278,0.162,0.375,0.518,0.212,0.797
				C30.08,7.38,29.884,7.484,29.682,7.484"/>
			<path style="clip-path:url(#SVGID_4_);fill:#CCD6DD;" d="M15.209,7.484c-0.182,0-0.361-0.085-0.474-0.243
				c-0.188-0.262-0.128-0.626,0.134-0.814l3.61-2.589c0.262-0.188,0.626-0.128,0.814,0.134c0.188,0.263,0.128,0.627-0.134,0.814
				l-3.61,2.589C15.445,7.449,15.327,7.484,15.209,7.484"/>
			<path style="clip-path:url(#SVGID_4_);fill:#31373D;" d="M26.871,10.884l-4.205-2.965c-0.203-0.143-0.475-0.142-0.678,0.004
				l-4.181,3.014c-0.2,0.144-0.288,0.399-0.219,0.636l1.458,5.006C19.12,16.829,19.348,17,19.607,17h5.226
				c0.251,0,0.472-0.16,0.553-0.397l1.702-5.056C27.17,11.303,27.082,11.033,26.871,10.884"/>
			<path style="clip-path:url(#SVGID_4_);fill:#31373D;" d="M12.753,14.399c0.034,0,0.068-0.003,0.102-0.009
				c0.172-0.03,0.321-0.136,0.407-0.288l1.969-3.5c0.029-0.053,0.051-0.11,0.063-0.169l0.778-3.816
				c0.036-0.172-0.009-0.35-0.12-0.485c-0.111-0.136-0.277-0.215-0.452-0.215h-0.25C13.251,7.828,12,10.516,12,13.5
				c0,0.155,0.017,0.306,0.024,0.46l0.351,0.3C12.481,14.351,12.616,14.399,12.753,14.399"/>
			<path style="clip-path:url(#SVGID_4_);fill:#31373D;" d="M18.193,4.747c0.062,0.128,0.183,0.218,0.323,0.24l3.719,0.608
				c0.023,0.004,0.047,0.005,0.071,0.005c0.024,0,0.048-0.002,0.071-0.005l3.549-0.583c0.117-0.02,0.222-0.086,0.289-0.183
				c0.068-0.098,0.092-0.219,0.069-0.335l-0.17-0.842C24.985,3.237,23.772,3,22.5,3c-1.415,0-2.761,0.283-3.993,0.79
				c-0.105,0.191-0.211,0.386-0.304,0.555C18.135,4.469,18.132,4.619,18.193,4.747"/>
			<path style="clip-path:url(#SVGID_4_);fill:#31373D;" d="M30.161,6.336L29.284,6.28c-0.133-0.008-0.265,0.044-0.355,0.145
				c-0.089,0.102-0.127,0.235-0.102,0.367l0.681,3.615c0.01,0.05,0.028,0.086,0.054,0.131c0.87,1.461,1.839,3.092,1.972,3.373
				C31.548,13.961,31.57,13.958,31.6,14c0.082,0.114,0.217,0.083,0.357,0.083h0.004c0.115,0,0.188,0.055,1.031-0.439
				c0-0.048,0.007-0.095,0.007-0.144C33,10.727,31.917,8.212,30.161,6.336"/>
			<path style="clip-path:url(#SVGID_4_);fill:#31373D;" d="M20.482,22.469c0.006-0.116-0.034-0.231-0.111-0.317l-2.625-2.917
				c-0.035-0.038-0.077-0.071-0.123-0.095c-3.433-1.79-3.496-1.812-3.538-1.826c-0.045-0.015-0.093-0.023-0.141-0.023
				c-0.314,0-0.406,0.038-0.692,1.181c1.304,2.421,3.531,4.268,6.21,5.077l0.874-0.778C20.422,22.694,20.476,22.585,20.482,22.469"
				/>
			<path style="clip-path:url(#SVGID_4_);fill:#31373D;" d="M30.885,17.472c-0.11-0.047-0.236-0.045-0.345,0.003l-3.548,1.556
				c-0.062,0.027-0.117,0.068-0.16,0.12l-2.479,2.965c-0.075,0.09-0.111,0.206-0.1,0.322c0.011,0.117,0.068,0.224,0.159,0.297
				c0.398,0.326,0.736,0.601,1.031,0.841c2.588-0.755,4.756-2.478,6.098-4.752l-0.415-1.101
				C31.082,17.608,30.995,17.518,30.885,17.472"/>
		</g>
	</g>
</g>
<g>
	<path style="fill:#A0041E;" d="M1,19.723c0,0,0,0.03,0,0.083c0-0.026,0.006-0.051,0.009-0.076L1,19.723z"/>
	<path style="fill:#A0041E;" d="M8.893,26.485c-0.089-0.041-0.174-0.088-0.25-0.149l-7.3-5.857C1.114,20.294,1,20.05,1,19.806
		c0,0.738,0,6.274,0,7.43c0,1.24,0.663,1.508,0.663,1.508S7.584,33.4,8.69,34.269c0.124,0.098,0.229,0.157,0.32,0.193
		c-0.069-0.106-0.118-0.228-0.118-0.367V26.485z M3.566,26.705c-0.604,0-1.234-0.611-1.408-1.366
		c-0.174-0.754,0.174-1.365,0.777-1.365c0.604,0,1.234,0.611,1.408,1.365C4.518,26.094,4.17,26.705,3.566,26.705z M6.956,31.259
		c-0.603,0-1.234-0.612-1.408-1.366c-0.174-0.755,0.174-1.366,0.778-1.366c0.603,0,1.234,0.611,1.408,1.366
		C7.908,30.647,7.56,31.259,6.956,31.259z"/>
	<path style="fill:#DD2E44;" d="M17.657,20.428l-7.349,5.908c-0.062,0.05-0.13,0.092-0.201,0.129v7.631
		c0,0.142-0.051,0.266-0.121,0.373c0.094-0.035,0.203-0.097,0.333-0.199c1.106-0.869,7.036-5.524,7.036-5.524S18,28.476,18,27.237
		c0-1.191,0-7.02,0-7.481C18,19.999,17.886,20.243,17.657,20.428z M13.129,30.586c-0.147,0.69-0.679,1.249-1.189,1.249
		c-0.509,0-0.803-0.559-0.656-1.249c0.147-0.69,0.679-1.249,1.188-1.249C12.982,29.337,13.276,29.896,13.129,30.586z M15.277,27.386
		c-0.154,0.712-0.715,1.288-1.252,1.288c-0.536,0-0.845-0.576-0.691-1.288c0.155-0.712,0.716-1.288,1.252-1.288
		C15.123,26.098,15.432,26.675,15.277,27.386z M17.137,24.287c-0.152,0.677-0.706,1.225-1.236,1.225
		c-0.529,0-0.835-0.548-0.682-1.225c0.152-0.676,0.706-1.224,1.235-1.224C16.985,23.062,17.29,23.611,17.137,24.287z"/>
	<path style="fill:#DD2E44;" d="M17.997,19.726c0,0.01,0.003,0.02,0.003,0.03c0-0.019,0-0.032,0-0.032L17.997,19.726z"/>
	<path style="fill:#EA596E;" d="M17.657,19.083l-7.374-5.734c-0.457-0.37-1.207-0.37-1.665,0l-7.274,5.785
		c-0.205,0.166-0.313,0.379-0.334,0.597C1.006,19.756,1,19.781,1,19.806c0,0.244,0.114,0.488,0.343,0.673l7.3,5.857
		c0.076,0.061,0.161,0.108,0.25,0.149v7.61c0,0.139,0.049,0.261,0.118,0.367c0.11,0.17,0.283,0.288,0.489,0.288
		c0.204,0,0.376-0.116,0.486-0.282c0.071-0.107,0.121-0.231,0.121-0.373v-7.631c0.071-0.036,0.139-0.078,0.201-0.129l7.349-5.908
		C17.886,20.243,18,19.999,18,19.756c0-0.01-0.003-0.02-0.003-0.03C17.988,19.492,17.876,19.26,17.657,19.083z M9.804,18.307
		c0.978,0,1.77,0.634,1.77,1.416c0,0.782-0.793,1.416-1.77,1.416c-0.978,0-1.77-0.634-1.77-1.416
		C8.033,18.941,8.826,18.307,9.804,18.307z"/>
	<ellipse style="fill:#FFFFFF;" cx="9.804" cy="19.723" rx="1.77" ry="1.416"/>
	<path style="fill:#FFFFFF;" d="M16.455,23.062c-0.529,0-1.083,0.548-1.235,1.224c-0.153,0.677,0.152,1.225,0.682,1.225
		c0.529,0,1.083-0.548,1.236-1.225C17.29,23.611,16.985,23.062,16.455,23.062z"/>
	<path style="fill:#FFFFFF;" d="M14.587,26.098c-0.536,0-1.097,0.576-1.252,1.288c-0.154,0.712,0.155,1.288,0.691,1.288
		c0.537,0,1.097-0.576,1.252-1.288C15.432,26.675,15.123,26.098,14.587,26.098z"/>
	<path style="fill:#FFFFFF;" d="M12.473,29.337c-0.509,0-1.041,0.559-1.188,1.249c-0.147,0.69,0.147,1.249,0.656,1.249
		c0.509,0,1.042-0.559,1.189-1.249C13.276,29.896,12.982,29.337,12.473,29.337z"/>
	<path style="fill:#E1E8ED;" d="M2.936,23.974c-0.603,0-0.951,0.611-0.777,1.365c0.174,0.755,0.805,1.366,1.408,1.366
		c0.603,0,0.951-0.611,0.777-1.366C4.17,24.585,3.539,23.974,2.936,23.974z"/>
	<path style="fill:#E1E8ED;" d="M6.326,28.527c-0.604,0-0.952,0.611-0.778,1.366c0.174,0.754,0.805,1.366,1.408,1.366
		c0.604,0,0.952-0.612,0.778-1.366C7.56,29.138,6.929,28.527,6.326,28.527z"/>
</g>
<g>
	<g>
		<defs>
			<rect id="SVGID_5_" x="16" y="16" width="19" height="19"/>
		</defs>
		<!-- <clipPath id="SVGID_6_">
			<use xlink:href="#SVGID_5_"  style="overflow:visible;"/>
		</clipPath> -->
		<g style="clip-path:url(#SVGID_6_);">
			<defs>
				<rect id="SVGID_7_" x="16" y="16" width="19" height="19"/>
			</defs>
			<!-- <clipPath id="SVGID_8_">
				<use xlink:href="#SVGID_7_"  style="overflow:visible;"/>
			</clipPath> -->
			<path style="clip-path:url(#SVGID_8_);fill:#31373D;" d="M17.124,23.841l-0.002-0.001c0,0-1.082,6.553-1.082,7.498
				c0,0.963,0.709,1.742,1.583,1.742c0.359,0,0.686-0.136,0.952-0.357l5.365-4.717L17.124,23.841z"/>
			<path style="clip-path:url(#SVGID_8_);fill:#31373D;" d="M33.85,23.841l0.002-0.001c0,0,1.082,6.553,1.082,7.498
				c0,0.963-0.709,1.742-1.583,1.742c-0.359,0-0.686-0.136-0.952-0.357l-5.365-4.717L33.85,23.841z"/>
			<path style="clip-path:url(#SVGID_8_);fill:#14171A;" d="M34.195,24.207c0,2.478-2.009,4.486-4.486,4.486
				s-4.486-2.008-4.486-4.486c0-2.477,2.009-4.486,4.486-4.486S34.195,21.73,34.195,24.207"/>
			<path style="clip-path:url(#SVGID_8_);fill:#14171A;" d="M25.751,24.207c0,2.478-2.009,4.486-4.486,4.486
				c-2.478,0-4.486-2.008-4.486-4.486c0-2.477,2.008-4.486,4.486-4.486C23.742,19.721,25.751,21.73,25.751,24.207"/>
			<rect x="21.265" y="19.721" style="clip-path:url(#SVGID_8_);fill:#14171A;" width="8.444" height="8.904"/>
			<path style="clip-path:url(#SVGID_8_);fill:#14171A;" d="M25.539,28.298c0,1.458-1.182,2.639-2.639,2.639
				s-2.639-1.181-2.639-2.639c0-1.458,1.182-2.639,2.639-2.639S25.539,26.84,25.539,28.298"/>
			<path style="clip-path:url(#SVGID_8_);fill:#14171A;" d="M30.712,28.298c0,1.458-1.181,2.639-2.639,2.639
				s-2.639-1.181-2.639-2.639c0-1.458,1.181-2.639,2.639-2.639S30.712,26.84,30.712,28.298"/>
			<path style="clip-path:url(#SVGID_8_);fill:#67757F;" d="M29.656,28.298c0,0.875-0.709,1.583-1.583,1.583
				c-0.875,0-1.583-0.709-1.583-1.583c0-0.875,0.709-1.583,1.583-1.583C28.947,26.714,29.656,27.423,29.656,28.298"/>
			<path style="clip-path:url(#SVGID_8_);fill:#67757F;" d="M24.484,28.298c0,0.875-0.709,1.583-1.583,1.583
				s-1.583-0.709-1.583-1.583c0-0.875,0.709-1.583,1.583-1.583S24.484,27.423,24.484,28.298"/>
			<path style="clip-path:url(#SVGID_8_);fill:#FFCC4D;" d="M30.428,21.876c0,0.467-0.379,0.846-0.846,0.846
				s-0.846-0.379-0.846-0.846c0-0.467,0.379-0.846,0.846-0.846S30.428,21.409,30.428,21.876"/>
			<path style="clip-path:url(#SVGID_8_);fill:#77B255;" d="M30.428,25.293c0,0.467-0.379,0.846-0.846,0.846
				s-0.846-0.379-0.846-0.846c0-0.468,0.379-0.847,0.846-0.847S30.428,24.825,30.428,25.293"/>
			<path style="clip-path:url(#SVGID_8_);fill:#50A5E6;" d="M28.72,23.584c0,0.467-0.379,0.846-0.847,0.846
				c-0.467,0-0.846-0.379-0.846-0.846c0-0.468,0.379-0.847,0.846-0.847C28.341,22.738,28.72,23.117,28.72,23.584"/>
			<path style="clip-path:url(#SVGID_8_);fill:#DD2E44;" d="M32.137,23.584c0,0.467-0.379,0.846-0.847,0.846
				c-0.467,0-0.846-0.379-0.846-0.846c0-0.468,0.379-0.847,0.846-0.847C31.758,22.738,32.137,23.117,32.137,23.584"/>
			<path style="clip-path:url(#SVGID_8_);fill:#8899A6;" d="M21.884,22.604V21.46c0-0.148-0.119-0.267-0.267-0.267h-0.412h-0.411
				c-0.148,0-0.267,0.119-0.267,0.267v1.144l0.678,0.678L21.884,22.604z"/>
			<path style="clip-path:url(#SVGID_8_);fill:#8899A6;" d="M20.528,24.52v1.144c0,0.148,0.119,0.267,0.267,0.267h0.411h0.411
				c0.148,0,0.267-0.119,0.267-0.267V24.52l-0.678-0.678L20.528,24.52z"/>
			<path style="clip-path:url(#SVGID_8_);fill:#8899A6;" d="M23.309,22.884h-1.144l-0.678,0.678l0.678,0.678h1.144
				c0.147,0,0.267-0.119,0.267-0.267v-0.411v-0.412C23.575,23.004,23.456,22.884,23.309,22.884"/>
			<path style="clip-path:url(#SVGID_8_);fill:#8899A6;" d="M20.248,22.884h-1.144c-0.148,0-0.267,0.12-0.267,0.267v0.412v0.411
				c0,0.147,0.119,0.267,0.267,0.267h1.144l0.678-0.678L20.248,22.884z"/>
		</g>
	</g>
</g>
</svg>
