<svg xmlns="http://www.w3.org/2000/svg" viewBox="0 0 24 24"><g fill="none"><path d="M0,0h24v24h-24Z"/><path stroke="#323232" stroke-linecap="round" stroke-linejoin="round" stroke-width="1.5" d="M3 12h4.172c1.562 0 2.828-1.266 2.828-2.828v0c0-.75-.298-1.47-.828-2l-2.455-2.455M18.292 18.438l-1.777-2.665c-.322-.483-.863-.773-1.443-.773v0c-.657 0-1.257-.371-1.551-.959l-.133-.266c-.244-.488-.244-1.063 0-1.551l1.133-2.266c.293-.587.894-.958 1.551-.958h4.408"/><path stroke="#323232" stroke-linecap="round" stroke-linejoin="round" stroke-width="1.5" d="M12 3c4.982 0 9 4.018 9 9 0 4.982-4.018 9-9 9M12 21c-4.982 0-9-4.018-9-9 0-4.982 4.018-9 9-9"/></g></svg>