<?xml version="1.0" encoding="iso-8859-1"?>
<!-- Generator: Adobe Illustrator 23.0.1, SVG Export Plug-In . SVG Version: 6.00 Build 0)  -->
<svg version="1.1" id="_x31_f393" xmlns="http://www.w3.org/2000/svg" xmlns:xlink="http://www.w3.org/1999/xlink" x="0px" y="0px"
	 viewBox="0 0 36 36" style="enable-background:new 0 0 36 36;" xml:space="preserve">
<path style="fill:#31373D;" d="M24,14H12c0,0-5,6-5,10s11,11,11,11s11-7,11-11S24,14,24,14z"/>
<g>
	<path style="fill:#292F33;" d="M19.64,1.28c-0.901-0.704-2.377-0.704-3.278,0L1.639,12.776c-0.901,0.704-0.901,1.856,0,2.56
		l14.722,11.495c0.902,0.704,2.377,0.704,3.278,0l14.722-11.495c0.902-0.704,0.902-1.856,0-2.56L19.64,1.28z"/>
</g>
<path style="fill:#394146;" d="M19.64,1.28c-0.901-0.704-2.377-0.704-3.278,0L1.639,12.776c-0.901,0.704-0.901,1.856,0,2.56
	l14.722,11.495c0.901,0.704,2.377,0.704,3.278,0l14.723-11.495c0.901-0.704,0.901-1.856,0-2.56L19.64,1.28z"/>
<path style="fill:#FCAB40;" d="M8,25c0,0-2,2-2,3s0,6,0,6s0,2,2,2s2-2,2-2v-6C10,27,8,25,8,25z"/>
<circle style="fill:#FDD888;" cx="8" cy="26" r="3"/>
<path style="fill:#FCAB40;" d="M8.001,27c-0.552,0-1-0.447-1-1v-3.958c-0.042-0.634,0.187-2.036,1.317-2.884l9.022-7.91
	c0.416-0.365,1.048-0.323,1.411,0.093c0.364,0.415,0.322,1.047-0.093,1.411L9.578,20.71C8.974,21.166,9,21.982,9,21.99L9.002,26
	C9.002,26.553,8.554,27,8.001,27z"/>
<circle style="fill:#31373D;" cx="18" cy="13" r="3"/>
</svg>
