<?xml version="1.0" encoding="iso-8859-1"?>
<!-- Generator: Adobe Illustrator 23.0.1, SVG Export Plug-In . SVG Version: 6.00 Build 0)  -->
<svg version="1.1" id="_x31_f198" xmlns="http://www.w3.org/2000/svg" xmlns:xlink="http://www.w3.org/1999/xlink" x="0px" y="0px"
	 viewBox="0 0 36 36" style="enable-background:new 0 0 36 36;" xml:space="preserve">
<path style="fill:#DD2E44;" d="M36,32c0,2.209-1.791,4-4,4H4c-2.209,0-4-1.791-4-4V4c0-2.209,1.791-4,4-4h28c2.209,0,4,1.791,4,4V32
	z"/>
<g>
	<path style="fill:#FFFFFF;" d="M9.762,12.518c0,0.78-0.52,1.48-1.34,1.48c-0.82,0-1.46-0.6-2.661-0.6c-0.86,0-1.641,0.46-1.641,1.3
		c0,2.06,6.682,0.74,6.682,5.901c0,2.861-2.361,4.642-5.121,4.642c-1.541,0-4.861-0.36-4.861-2.24c0-0.78,0.521-1.421,1.34-1.421
		c0.94,0,2.061,0.78,3.361,0.78c1.32,0,2.041-0.74,2.041-1.721c0-2.36-6.682-0.94-6.682-5.581c0-2.801,2.301-4.541,4.961-4.541
		C6.962,10.517,9.762,10.937,9.762,12.518z"/>
	<path style="fill:#FFFFFF;" d="M11.12,17.879c0-4.161,2.801-7.362,6.882-7.362c4.02,0,6.881,3.3,6.881,7.362
		c0,4.141-2.78,7.361-6.881,7.361C13.941,25.24,11.12,22.02,11.12,17.879z M21.763,17.879c0-2.421-1.261-4.602-3.761-4.602
		c-2.501,0-3.761,2.181-3.761,4.602c0,2.44,1.22,4.601,3.761,4.601C20.543,22.479,21.763,20.319,21.763,17.879z"/>
	<path style="fill:#FFFFFF;" d="M34.143,12.518c0,0.78-0.521,1.48-1.342,1.48s-1.459-0.6-2.66-0.6c-0.859,0-1.641,0.46-1.641,1.3
		c0,2.06,6.682,0.74,6.682,5.901c0,2.861-2.359,4.642-5.121,4.642c-1.539,0-4.861-0.36-4.861-2.24c0-0.78,0.521-1.421,1.342-1.421
		c0.939,0,2.061,0.78,3.359,0.78c1.32,0,2.041-0.74,2.041-1.721c0-2.36-6.682-0.94-6.682-5.581c0-2.801,2.301-4.541,4.961-4.541
		C31.342,10.517,34.143,10.937,34.143,12.518z"/>
</g>
</svg>
