<?xml version="1.0" encoding="iso-8859-1"?>
<!-- Generator: Adobe Illustrator 23.0.1, SVG Export Plug-In . SVG Version: 6.00 Build 0)  -->
<svg version="1.1" id="_x31_f689" xmlns="http://www.w3.org/2000/svg" xmlns:xlink="http://www.w3.org/1999/xlink" x="0px" y="0px"
	 viewBox="0 0 36 36" style="enable-background:new 0 0 36 36;" xml:space="preserve">
<polygon style="fill:#A7A9AC;" points="0,36 28,36 18.375,19 9.625,19 "/>
<polygon style="fill:#58595B;" points="2.625,36 25.375,36 16.625,19 11.375,19 "/>
<polygon style="fill:#808285;" points="5.25,36 22.75,36 14.875,19 13.125,19 "/>
<path style="fill:#A7A9AC;" d="M24,35c0,0.553-0.447,1-1,1H5c-0.552,0-1-0.447-1-1l0,0c0-0.553,0.448-1,1-1h18
	C23.553,34,24,34.447,24,35L24,35z"/>
<path style="fill:#A7A9AC;" d="M22,31c0,0.553-0.447,1-1,1H7c-0.552,0-1-0.447-1-1l0,0c0-0.553,0.448-1,1-1h14
	C21.553,30,22,30.447,22,31L22,31z"/>
<path style="fill:#A7A9AC;" d="M20,27c0,0.553-0.447,1-1,1H9c-0.552,0-1-0.447-1-1l0,0c0-0.553,0.448-1,1-1h10
	C19.553,26,20,26.447,20,27L20,27z"/>
<path style="fill:#58595B;" d="M6.896,23.82C7.88,25.046,9.186,26,10.5,26h7c1.313,0,2.62-0.955,3.604-2.18l-2.23-3.938
	C17.685,19.979,16.119,20,14,20c-2.157,0-3.74,0.023-4.937-0.008L6.896,23.82z"/>
<path style="fill:#414042;" d="M15,3c0,0.552-0.448,1-1,1l0,0c-0.552,0-1-0.448-1-1V2c0-0.552,0.448-1,1-1l0,0c0.552,0,1,0.448,1,1
	V3z"/>
<path style="fill:#6D6E71;" d="M18,5c0,1.104-0.896,2-2,2h-4c-1.104,0-2-0.896-2-2l0,0c0-1.104,0.896-2,2-2h4
	C17.104,3,18,3.896,18,5L18,5z"/>
<path style="fill:#D1D3D4;" d="M23,18c0,2.209-3.412,5-5.4,5h-7.2C8.412,23,5,20.209,5,18V8c0-2.209,1.612-4,3.6-4h10.8
	C21.388,4,23,5.791,23,8V18z"/>
<path style="fill:#808285;" d="M21,16c0,2.209-1.791,4-4,4h-6c-2.209,0-4-1.791-4-4v-5c0-2.209,1.791-3,4-3h6c2.209,0,4,0.791,4,3
	V16z"/>
<path style="fill:#55ACEE;" d="M11,15h6c2.209,0,4-1.791,4-4v-1H7v1C7,13.209,8.791,15,11,15z"/>
<path style="fill:#5C913B;" d="M14,20c-6.3,0-7.878-1.801-9-3.242V18c0,2.209,2.7,6,5.4,6h7.2c2.7,0,5.4-3.791,5.4-6v-1.891
	C21.879,17.839,20.3,20,14,20z"/>
<path style="fill:#FFD983;" d="M11,17.5c0,0.828-0.672,1.5-1.5,1.5C8.671,19,8,18.328,8,17.5C8,16.671,8.671,16,9.5,16
	C10.328,16,11,16.671,11,17.5z"/>
<path style="fill:#FFD983;" d="M20,17.5c0,0.828-0.672,1.5-1.5,1.5S17,18.328,17,17.5c0-0.829,0.672-1.5,1.5-1.5S20,16.671,20,17.5z
	"/>
<path style="fill:#292F33;" d="M21,10V8c0-1.104-0.896-2-2-2H9C7.896,6,7,6.896,7,8v2H21z"/>
<path style="fill:#6D6E71;" d="M17,8c0,0.552-0.447,1-1,1h-4c-0.552,0-1-0.448-1-1l0,0c0-0.552,0.448-1,1-1h4
	C16.553,7,17,7.448,17,8L17,8z"/>
<polygon style="fill:#58595B;" points="23,22.94 32,36 36,36 36,31 32,31 23,21 "/>
<polygon style="fill:#A7A9AC;" points="36,31 36,21 23,21 32,31 "/>
<path style="fill:#6D6E71;" d="M33,24c0,1,0,1-1,1l0,0c-1,0-1,0-1-1V13c0-0.552,0.447-1,1-1l0,0c0.553,0,1,0.448,1,1V24z"/>
<path style="fill:#939598;" d="M33,17c0,1,0,1-1,1l0,0c-1,0-1,0-1-1v-7c0-0.552,0.447-1,1-1l0,0c0.553,0,1,0.448,1,1V17z"/>
<path style="fill:#58595B;" d="M36,11c0,1.104-0.896,2-2,2h-4c-1.104,0-2-0.896-2-2V9c0-1.104,0.896-2,2-2h4c1.104,0,2,0.896,2,2V11
	z"/>
<path style="fill:#939598;" d="M34,10c0,0.552-0.447,1-1,1h-2c-0.553,0-1-0.448-1-1l0,0c0-0.552,0.447-1,1-1h2
	C33.553,9,34,9.448,34,10L34,10z"/>
</svg>
