<?xml version="1.0" encoding="iso-8859-1"?>
<!-- Generator: Adobe Illustrator 23.0.1, SVG Export Plug-In . SVG Version: 6.00 Build 0)  -->
<svg version="1.1" id="_x32_642" xmlns="http://www.w3.org/2000/svg" xmlns:xlink="http://www.w3.org/1999/xlink" x="0px" y="0px"
	 viewBox="0 0 36 36" style="enable-background:new 0 0 36 36;" xml:space="preserve">
<path style="fill:#226699;" d="M36,32c0,2.209-1.791,4-4,4H4c-2.209,0-4-1.791-4-4V4c0-2.209,1.791-4,4-4h28c2.209,0,4,1.791,4,4V32
	z"/>
<path style="fill:#FFFFFF;" d="M15,30.5c-4.687,0-8.5-3.813-8.5-8.5s3.813-8.5,8.5-8.5s8.5,3.813,8.5,8.5S19.687,30.5,15,30.5z
	 M15,16.5c-3.032,0-5.5,2.468-5.5,5.5s2.468,5.5,5.5,5.5s5.5-2.468,5.5-5.5S18.032,16.5,15,16.5z"/>
<path style="fill:#FFFFFF;" d="M28.5,7h-8.969c-0.829,0-1.5,0.671-1.5,1.5s0.671,1.5,1.5,1.5h5.348l-7,6.879L20,19l7-6.879V17.5
	c0,0.828,0.672,1.5,1.5,1.5s1.5-0.672,1.5-1.5v-9C30,7.671,29.328,7,28.5,7z"/>
</svg>
