<?xml version="1.0" encoding="iso-8859-1"?>
<!-- Generator: Adobe Illustrator 23.0.1, SVG Export Plug-In . SVG Version: 6.00 Build 0)  -->
<svg version="1.1" id="_x31_f6f3" xmlns="http://www.w3.org/2000/svg" xmlns:xlink="http://www.w3.org/1999/xlink" x="0px" y="0px"
	 viewBox="0 0 36 36" style="enable-background:new 0 0 36 36;" xml:space="preserve">
<polygon style="fill:#DD2E44;" points="31,12 27,12 28,7 31,7 "/>
<polygon style="fill:#CCD6DD;" points="33,12 25,12 25.887,9 32.41,9 "/>
<polygon style="fill:#CCD6DD;" points="35.583,14 35.4,13 34.4,13 34,11 32,11 18,11 17,9 8.342,9 8,10 9,10 8.55,11 7.371,11 7,12 
	8,12 6,18 34.531,18 34.984,17.031 34.6,14 "/>
<polygon style="fill:#CCD6DD;" points="15,10 11,10 12,7 15,7 "/>
<polygon style="fill:#226699;" points="14,10 9,10 8.55,11 14.292,11 "/>
<polygon style="fill:#226699;" points="35.375,13 8.422,13 8.75,12 35.2,12 "/>
<polygon style="fill:#226699;" points="34.719,15 7.75,15 8.094,14 34.6,14 "/>
<polygon style="fill:#226699;" points="35,17 7.125,17 7.45,16 34.875,16 "/>
<path style="fill:#226699;" d="M33,23.964c0,0,2-2.964,2-6.964H1c1,2,4,3,5,5.817C8.272,29.218,33,23.964,33,23.964z"/>
<path style="fill:#CCD6DD;" d="M4.937,21h29.417C34.712,19.886,35,18.519,35,17H1C1.75,18.5,3.624,19.438,4.937,21z"/>
<rect y="24" style="fill:#55ACEE;" width="36" height="12"/>
<g>
	<path style="fill:#FFAC33;" d="M16,18v0.229C16,18.655,16.345,19,16.771,19h1.458C18.655,19,19,18.655,19,18.229V18H16z"/>
	<path style="fill:#FFAC33;" d="M19,18v0.229C19,18.655,19.346,19,19.771,19h1.457C21.654,19,22,18.655,22,18.229V18H19z"/>
	<path style="fill:#FFAC33;" d="M22,18v0.229C22,18.655,22.346,19,22.771,19h1.457C24.654,19,25,18.655,25,18.229V18H22z"/>
	<path style="fill:#FFAC33;" d="M26,18v0.229C26,18.655,26.346,19,26.771,19h1.457C28.654,19,29,18.655,29,18.229V18H26z"/>
	<path style="fill:#FFAC33;" d="M29,18v0.229C29,18.655,29.346,19,29.771,19h1.457C31.654,19,32,18.655,32,18.229V18H29z"/>
</g>
</svg>
