<?xml version="1.0" encoding="iso-8859-1"?>
<!-- Generator: Adobe Illustrator 23.0.1, SVG Export Plug-In . SVG Version: 6.00 Build 0)  -->
<svg version="1.1" id="_x31_f9f9" xmlns="http://www.w3.org/2000/svg" xmlns:xlink="http://www.w3.org/1999/xlink" x="0px" y="0px"
	 viewBox="0 0 36 36" style="enable-background:new 0 0 36 36;" xml:space="preserve">
<path style="fill:#C1694F;" d="M19.175,16.825L19.175,16.825c-0.706-0.706-0.706-1.861,0-2.567L32.433,1
	C33.139,0.294,34.294,0.294,35,1v0c0.706,0.706,0.706,1.861,0,2.567L21.742,16.825C21.036,17.531,19.881,17.531,19.175,16.825z"/>
<path style="fill:#66757F;" d="M8.839,27.365l-0.204-0.204c-0.941-0.941-0.941-2.48,0-3.42l8.35-8.35c0.941-0.941,2.48-0.941,3.42,0
	l0.204,0.204c0.941,0.941,0.941,2.48,0,3.42l-8.35,8.35C11.319,28.306,9.779,28.306,8.839,27.365z"/>
<path style="fill:#FFCC4D;" d="M19.389,26.341c1.688-1.688,0.671-5.441-1.809-7.921s-6.233-3.497-7.921-1.809L0,26.16L9.84,36
	L19.389,26.341z"/>
<rect x="0.517" y="23.731" transform="matrix(0.7071 -0.7071 0.7071 0.7071 -15.1254 11.7662)" style="fill:#FFAC33;" width="12.246" height="0.82"/>
<rect x="2.257" y="25.471" transform="matrix(0.7071 -0.7071 0.7071 0.7071 -15.8459 13.5057)" style="fill:#FFAC33;" width="12.246" height="0.82"/>
<rect x="3.996" y="27.21" transform="matrix(0.7071 -0.7071 0.7071 0.7071 -16.5664 15.2452)" style="fill:#FFAC33;" width="12.246" height="0.82"/>
<rect x="5.736" y="28.95" transform="matrix(0.7071 -0.7071 0.7071 0.7071 -17.2869 16.9846)" style="fill:#FFAC33;" width="12.246" height="0.82"/>
<path style="fill:#55ACEE;" d="M9.875,16.43c-0.073,0.059-0.149,0.114-0.216,0.181L7.46,18.779l9.761,9.761l2.167-2.199
	c0.067-0.067,0.123-0.143,0.181-0.216L9.875,16.43z"/>
<polygon style="fill:#226699;" points="8.882,18.221 9.117,17.653 18.342,26.877 17.77,27.109 "/>
</svg>
