<?xml version="1.0" encoding="iso-8859-1"?>
<!-- Generator: Adobe Illustrator 23.0.1, SVG Export Plug-In . SVG Version: 6.00 Build 0)  -->
<svg version="1.1" id="_x31_f4a9" xmlns="http://www.w3.org/2000/svg" xmlns:xlink="http://www.w3.org/1999/xlink" x="0px" y="0px"
	 viewBox="0 0 36 36" style="enable-background:new 0 0 36 36;" xml:space="preserve">
<path style="fill:#BF6952;" d="M33.541,23.198c0.364-1.578,0.243-3.266-0.458-4.946c-0.678-1.625-1.847-2.91-3.271-3.773
	c0.318-1.192,0.234-2.475-0.324-3.75c-0.841-1.92-2.66-3.201-4.712-3.562c0.249-0.572,0.329-1.289,0.036-2.167c-1-3-5-1-8-4.999
	c-2.44,1.464-2.97,3.64-2.878,5.487c-2.421,0.412-3.8,0.936-3.8,0.936l0,0.002C8.774,6.976,7.812,8.309,7.812,9.868
	c0,0.879,0.318,1.676,0.828,2.312l-0.692,0.258l0.001,0.003c-2.33,0.871-3.975,2.976-3.975,5.439c0,1.047,0.3,2.027,0.82,2.878
	C1.971,22.027,0,24.781,0,28c0,4.418,3.691,8,8.244,8c3.269,0,6.559-0.703,9.531-1.665C20.018,35.375,23.47,36,28.667,36
	C32.717,36,36,32.717,36,28.667C36,26.491,35.047,24.542,33.541,23.198z"/>
<ellipse style="fill:#F5F8FA;" cx="13.5" cy="15.5" rx="3.5" ry="4.5"/>
<ellipse style="fill:#F5F8FA;" cx="23.5" cy="15.5" rx="3.5" ry="4.5"/>
<ellipse style="fill:#292F33;" cx="14" cy="15.5" rx="2" ry="2.5"/>
<ellipse style="fill:#292F33;" cx="23" cy="15.5" rx="2" ry="2.5"/>
<path style="fill:#292F33;" d="M9.447,24.895C9.201,24.402,9.45,24,10,24h18c0.55,0,0.799,0.402,0.553,0.895
	C28.553,24.895,26,30,19,30S9.447,24.895,9.447,24.895z"/>
<path style="fill:#F2ABBA;" d="M19,26c-2.771,0-5.157,0.922-6.292,2.256C14.2,29.211,16.253,30,19,30s4.801-0.789,6.292-1.744
	C24.157,26.922,21.771,26,19,26z"/>
</svg>
