<?xml version="1.0" encoding="iso-8859-1"?>
<!-- Generator: Adobe Illustrator 23.0.1, SVG Export Plug-In . SVG Version: 6.00 Build 0)  -->
<svg version="1.1" id="_x31_f622" xmlns="http://www.w3.org/2000/svg" xmlns:xlink="http://www.w3.org/1999/xlink" x="0px" y="0px"
	 viewBox="0 0 36 36" style="enable-background:new 0 0 36 36;" xml:space="preserve">
<path style="fill:#FFCC4D;" d="M36,18c0,9.941-8.059,18-18,18C8.06,36,0,27.941,0,18C0,8.06,8.06,0,18,0C27.941,0,36,8.06,36,18"/>
<ellipse style="fill:#664500;" cx="11.5" cy="17" rx="2.5" ry="3.5"/>
<ellipse style="fill:#664500;" cx="24.5" cy="17" rx="2.5" ry="3.5"/>
<path style="fill:#664500;" d="M5.999,13.5c-0.208,0-0.419-0.065-0.599-0.2c-0.442-0.331-0.531-0.958-0.2-1.4
	c3.262-4.35,7.616-4.4,7.8-4.4c0.552,0,1,0.448,1,1c0,0.551-0.445,0.998-0.996,1C12.849,9.502,9.436,9.586,6.8,13.1
	C6.604,13.362,6.303,13.5,5.999,13.5z"/>
<path style="fill:#664500;" d="M30.001,13.5c-0.305,0-0.604-0.138-0.801-0.4c-2.641-3.521-6.061-3.599-6.206-3.6
	C22.444,9.494,22,9.044,22.003,8.495C22.006,7.944,22.45,7.5,23,7.5c0.184,0,4.537,0.05,7.8,4.4c0.332,0.442,0.242,1.069-0.2,1.4
	C30.42,13.435,30.21,13.5,30.001,13.5z"/>
<path style="fill:#664500;" d="M23.485,28.379C23.474,28.335,22.34,24,18,24c-4.34,0-5.474,4.335-5.485,4.379
	c-0.053,0.213,0.044,0.431,0.232,0.544c0.188,0.112,0.433,0.086,0.596-0.06C13.352,28.855,14.356,28,18,28
	c3.59,0,4.617,0.83,4.656,0.863C22.751,28.953,22.875,29,23,29c0.084,0,0.169-0.021,0.246-0.064
	C23.442,28.824,23.54,28.597,23.485,28.379z"/>
<path style="fill:#5DADEC;" d="M16,31c0,2.762-2.238,5-5,5c-2.762,0-5-2.238-5-5s4-10,5-10S16,28.238,16,31z"/>
</svg>
