<?xml version="1.0" encoding="iso-8859-1"?>
<!-- Generator: Adobe Illustrator 23.0.1, SVG Export Plug-In . SVG Version: 6.00 Build 0)  -->
<svg version="1.1" id="_x31_f631" xmlns="http://www.w3.org/2000/svg" xmlns:xlink="http://www.w3.org/1999/xlink" x="0px" y="0px"
	 viewBox="0 0 36 36" style="enable-background:new 0 0 36 36;" xml:space="preserve">
<path style="fill:#FFCC4D;" d="M18,0C8.06,0,0,8.06,0,18c0,6.051,2.996,11.392,7.574,14.655C7.678,26.217,5.337,19,1.404,19
	c-0.464,0-0.84,0.066-1.153,0.183C0.554,18.426,1.211,18,2.44,18c4.27,0,6.666,8.506,6.092,15.288C11.286,34.997,14.522,36,18,36
	c3.479,0,6.716-1.004,9.47-2.713C26.893,26.48,29.288,18,33.561,18c1.233,0,1.892,0.426,2.192,1.183
	C35.439,19.066,35.062,19,34.596,19c-3.938,0-6.278,7.199-6.17,13.655C33.005,29.392,36,24.051,36,18C36,8.06,27.941,0,18,0z"/>
<path style="fill:#BDDDF4;" d="M18,0C8.06,0,0,8.06,0,18c0,1.192,0.123,2.356,0.344,3.484c0.234-0.863,0.6-1.691,1.058-2.484
	c-0.463,0-0.838,0.066-1.15,0.183c0.264-0.659,0.822-1.048,1.768-1.142C5.012,13.862,11.037,11,18,11
	c6.964,0,12.988,2.861,15.98,7.04c0.95,0.094,1.51,0.482,1.772,1.143C35.44,19.066,35.063,19,34.599,19
	c0.458,0.793,0.823,1.621,1.058,2.484C35.878,20.356,36,19.192,36,18C36,8.06,27.941,0,18,0z"/>
<path style="fill:#F5F8FA;" d="M7.347,11.91c-0.946,3.176,0.107,6.293,2.353,6.962c2.246,0.67,4.834-1.362,5.779-4.538
	c0.946-3.175-0.106-6.293-2.351-6.962C10.882,6.703,8.294,8.735,7.347,11.91z"/>
<path style="fill:#F5F8FA;" d="M28.652,11.91c0.946,3.176-0.107,6.293-2.352,6.962c-2.246,0.67-4.834-1.362-5.779-4.538
	c-0.946-3.175,0.107-6.293,2.351-6.962C25.117,6.703,27.705,8.735,28.652,11.91z"/>
<path style="fill:#664500;" d="M18,18c-2.757,0-5,2.243-5,5v6c0,2.757,2.243,5,5,5s5-2.243,5-5v-6C23,20.243,20.757,18,18,18z"/>
<path style="fill:#FCAB40;" d="M1.404,19c-0.464,0-0.84,0.066-1.153,0.183c0.072-0.179,0.167-0.336,0.281-0.476
	C-1.33,20.998,2.849,28.54,0.818,36h6.46C8.468,29.04,6.043,19,1.404,19z"/>
<path style="fill:#FCAB40;" d="M35.753,19.183C35.439,19.066,35.062,19,34.596,19c-4.641,0-7.065,10.002-5.873,17h6.46
	C33.277,28.955,36.839,21.911,35.753,19.183z"/>
</svg>
