<svg id="Capa_1" data-name="Capa 1" xmlns="http://www.w3.org/2000/svg" viewBox="0 0 152.81 145.23"><defs><style>.cls-1{fill:#222220;}</style></defs><title>logo</title><path class="cls-1" d="M76.41,2.05C35.46,2.05,2.15,25.33,2.15,54V91.28c0,28.62,33.31,51.91,74.26,51.91s74.25-23.29,74.25-51.91V54C150.66,25.33,117.35,2.05,76.41,2.05Zm0,5.1c38.13,0,69.15,21,69.15,46.8s-31,46.8-69.15,46.8S7.26,79.75,7.26,54,38.28,7.15,76.41,7.15Zm69.15,84.13c0,25.81-31,46.8-69.15,46.8s-69.15-21-69.15-46.8V72.82c10.82,19.31,37.72,33,69.15,33s58.32-13.72,69.15-33Z"/><path class="cls-1" d="M105.54,61.58H97.26V43.19h8.28a2.55,2.55,0,0,0,0-5.1H97.26V33a2.55,2.55,0,0,0-5.1,0v5.08H60.65V33a2.55,2.55,0,0,0-5.1,0v5.08H47.27a2.55,2.55,0,0,0,0,5.1h8.28V61.58H47.27a2.56,2.56,0,0,0,0,5.11h8.28v6a2.55,2.55,0,1,0,5.1,0v-6H92.16v6a2.55,2.55,0,1,0,5.1,0v-6h8.28a2.56,2.56,0,0,0,0-5.11Zm-13.38,0H60.65V43.19H92.16Z"/></svg>