<?xml version="1.0" encoding="utf-8"?>
<!-- Generator: Adobe Illustrator 23.0.1, SVG Export Plug-In . SVG Version: 6.00 Build 0)  -->
<svg version="1.1" id="Capa_1" xmlns="http://www.w3.org/2000/svg" xmlns:xlink="http://www.w3.org/1999/xlink" x="0px" y="0px"
	 viewBox="0 0 451.6 274.3" style="enable-background:new 0 0 451.6 274.3;" xml:space="preserve">
<style type="text/css">
	.st0{fill:#3F3F3F;}
	.st1{fill:#3E3E3E;}
</style>
<title>logo_</title>
<path class="st0" d="M40.5,141.1v47.6h-1.3v-23.2h-35v23.2L3,189v-47.8h1.3v23.2h35v-23.2H40.5z"/>
<path class="st0" d="M3,190.2c-0.7,0-1.2-0.5-1.2-1.2v-47.8c0-0.7,0.5-1.3,1.2-1.3c0,0,0,0,0,0h0h1.3c0.7,0,1.2,0.6,1.2,1.2v21.9H38
	v-21.9c0-0.7,0.5-1.2,1.2-1.2c0,0,0,0,0,0h1.3c0.7,0,1.2,0.6,1.2,1.2l0,0v47.6c0,0.7-0.5,1.2-1.2,1.3c0,0,0,0,0,0h-1.3
	c-0.7,0-1.2-0.5-1.2-1.2c0,0,0,0,0,0c0,0,0,0,0,0v-21.9H5.6v21.9c0,0.6-0.4,1.1-1,1.2l-1.3,0.2L3,190.2z"/>
<path class="st0" d="M48.4,142.4v21.9h21v1.3h-21v21.9h28.7v1.3h-30v-47.6h30v1.3L48.4,142.4z"/>
<path class="st0" d="M77.1,190h-30c-0.7,0-1.2-0.6-1.2-1.2v-47.6c0-0.7,0.6-1.2,1.2-1.2h30c0.7,0,1.2,0.6,1.2,1.2l0,0v1.3
	c0,0.7-0.5,1.2-1.2,1.2c0,0,0,0,0,0H49.7v19.4h19.7c0.7,0,1.2,0.6,1.2,1.2l0,0v1.3c0,0.7-0.5,1.2-1.2,1.2c0,0,0,0,0,0H49.7v19.4
	h27.4c0.7,0,1.2,0.6,1.2,1.2l0,0v1.3C78.4,189.4,77.8,190,77.1,190C77.2,190,77.2,190,77.1,190L77.1,190z"/>
<path class="st0" d="M113.9,187.5v1.3H83.8v-47.6H85v46.3H113.9z"/>
<path class="st0" d="M113.9,190H83.8c-0.7,0-1.2-0.6-1.2-1.2l0,0v-47.6c0-0.7,0.5-1.2,1.2-1.2c0,0,0,0,0,0H85c0.7,0,1.2,0.6,1.2,1.2
	v45.1h27.6c0.7,0,1.2,0.6,1.2,1.2v1.3C115.1,189.4,114.6,190,113.9,190z"/>
<path class="st0" d="M120.6,188.7v-47.6h19.2c1.6,0,3.3,0.3,4.8,1c1.4,0.6,2.8,1.5,3.9,2.6c1.1,1.1,2,2.4,2.6,3.9
	c1.3,3,1.3,6.5,0,9.5c-0.6,1.4-1.5,2.7-2.6,3.9c-1.1,1.1-2.4,2-3.9,2.6c-1.5,0.7-3.1,1-4.8,1h-17.9v23.2L120.6,188.7z M121.9,164.3
	h17.9c1.5,0,2.9-0.3,4.2-0.9c1.3-0.6,2.4-1.4,3.4-2.4c1-1,1.8-2.2,2.3-3.5c0.6-1.3,0.9-2.8,0.9-4.2c0-1.5-0.3-2.9-0.9-4.3
	c-0.6-1.3-1.3-2.5-2.3-3.5c-1-1-2.1-1.8-3.4-2.4c-1.3-0.6-2.8-0.9-4.2-0.9h-17.9V164.3z"/>
<path class="st0" d="M121.9,190h-1.3c-0.7,0-1.2-0.6-1.2-1.2v-47.6c0-0.7,0.6-1.2,1.2-1.2h19.2c3.6,0,7,1.5,9.5,4
	c1.2,1.2,2.2,2.7,2.9,4.3c2.1,5,1,10.9-2.9,14.8c-1.2,1.2-2.7,2.2-4.2,2.9c-1.7,0.7-3.4,1.1-5.2,1.1h-16.7v21.9
	C123.1,189.5,122.5,190,121.9,190z M123.1,163.1h16.7c1.3,0,2.5-0.3,3.7-0.8c1.1-0.5,2.2-1.2,3.1-2.1c0.9-0.9,1.6-1.9,2.1-3.1
	c0.5-1.2,0.8-2.4,0.8-3.7c0-1.3-0.3-2.6-0.8-3.8c-0.5-1.2-1.2-2.2-2.1-3.1c-0.9-0.9-1.9-1.6-3-2.1c-1.2-0.5-2.4-0.8-3.7-0.8h-16.7
	L123.1,163.1z"/>
<path class="st0" d="M180.6,164.5c1.4,0.3,2.7,0.8,3.9,1.5c1.2,0.7,2.2,1.6,3.1,2.7c0.9,1.1,1.6,2.3,2.1,3.6
	c0.5,1.4,0.7,2.8,0.7,4.3c0,1.6-0.3,3.3-1,4.8c-0.6,1.4-1.5,2.7-2.6,3.9c-1.1,1.1-2.4,2-3.9,2.6c-1.5,0.7-3.1,1-4.8,1h-19.6v-47.6
	h17.1c1.6,0,3.3,0.3,4.8,1c1.4,0.6,2.8,1.5,3.9,2.6c1.1,1.1,2,2.4,2.6,3.9c1.6,3.8,1.2,8.1-1.1,11.5
	C184.6,162.1,182.8,163.6,180.6,164.5z M159.9,164.3h15.9c1.5,0,2.9-0.3,4.2-0.9c1.3-0.6,2.4-1.4,3.4-2.4c1-1,1.8-2.2,2.3-3.5
	c0.6-1.3,0.9-2.8,0.9-4.2c0-1.5-0.3-2.9-0.9-4.3c-0.6-1.3-1.3-2.5-2.3-3.5c-1-1-2.1-1.8-3.4-2.4c-1.3-0.6-2.8-0.9-4.2-0.9h-15.9
	V164.3z M182.5,186.6c1.3-0.6,2.5-1.4,3.5-2.4c1-1,1.8-2.2,2.3-3.5c0.6-1.3,0.9-2.8,0.9-4.2c0-1.5-0.3-2.9-0.9-4.3
	c-0.6-1.3-1.3-2.5-2.3-3.5c-1-1-2.2-1.8-3.5-2.4c-1.3-0.6-2.8-0.9-4.3-0.9h-18.4v21.9h18.4C179.7,187.5,181.2,187.2,182.5,186.6z"/>
<path class="st0" d="M178.3,190h-19.6c-0.7,0-1.2-0.6-1.2-1.2v-47.6c0-0.7,0.6-1.2,1.2-1.2h17.1c3.6,0,7,1.4,9.5,4
	c1.2,1.2,2.2,2.7,2.9,4.3c1.8,4.2,1.3,8.9-1.2,12.7c-0.9,1.3-2,2.4-3.2,3.4c0.5,0.2,1,0.5,1.4,0.8c1.3,0.8,2.5,1.8,3.4,3
	c1,1.2,1.7,2.5,2.3,3.9c0.5,1.5,0.8,3.1,0.8,4.7c0,1.8-0.4,3.6-1.1,5.3c-1.3,3.2-3.9,5.8-7.1,7.1C181.8,189.7,180.1,190,178.3,190z
	 M161.1,186.2h17.1c1.3,0,2.6-0.2,3.8-0.8c1.2-0.5,2.2-1.2,3.1-2.1c0.9-0.9,1.6-1.9,2.1-3.1c0.5-1.2,0.8-2.4,0.8-3.7
	c0-1.3-0.3-2.6-0.8-3.8c-0.5-1.2-1.2-2.2-2.1-3.1c-0.9-0.9-1.9-1.6-3.1-2.1c-1.2-0.5-2.5-0.8-3.8-0.8h-17.1V186.2z M161.1,163.1
	h14.6c1.3,0,2.5-0.3,3.7-0.8c1.1-0.5,2.1-1.2,3-2.1c0.9-0.9,1.6-2,2.1-3.1c0.5-1.2,0.8-2.4,0.8-3.7c0-1.3-0.2-2.6-0.8-3.8
	c-0.5-1.2-1.2-2.2-2.1-3.1c-0.9-0.9-1.9-1.6-3-2.1c-1.2-0.5-2.4-0.8-3.7-0.8h-14.6V163.1z"/>
<path class="st0" d="M233.7,141.1v29.3c0,2.4-0.5,4.9-1.4,7.1c-3.9,9.3-14.7,13.7-24,9.8c-6.8-2.9-11.2-9.5-11.2-16.9v-29.3h1.3
	v29.3c0,2.3,0.4,4.5,1.4,6.6c0.9,2,2.1,3.9,3.6,5.4c1.6,1.6,3.4,2.8,5.4,3.7c4.2,1.8,9,1.8,13.2,0c2-0.9,3.9-2.1,5.4-3.7
	c1.5-1.6,2.8-3.4,3.6-5.4c0.9-2.1,1.3-4.3,1.3-6.6h-0.1v-29.3H233.7z"/>
<path class="st0" d="M215.4,190c-2.6,0-5.2-0.5-7.6-1.5c-4.7-2-8.4-5.7-10.4-10.4c-1-2.4-1.6-5-1.5-7.6v-29.3c0-0.7,0.6-1.2,1.2-1.2
	h1.3c0.7,0,1.2,0.6,1.2,1.2v29.3c0,2.1,0.4,4.2,1.2,6.1c0.8,1.9,2,3.6,3.4,5c6.1,6.2,16.1,6.2,22.3,0.1c0,0,0,0,0,0l0.1-0.1
	c1.4-1.4,2.6-3.1,3.4-5c0.8-1.8,1.2-3.8,1.2-5.8c0-0.1-0.1-0.2-0.1-0.4v-29.3c0-0.7,0.6-1.2,1.2-1.2h1.3c0.7,0,1.2,0.6,1.2,1.2v29.3
	c0,2.6-0.5,5.2-1.5,7.6c-2,4.7-5.7,8.4-10.4,10.4C220.6,189.5,218,190,215.4,190z"/>
<path class="st0" d="M274.8,142.4h-16.6v46.3h-1.3v-46.3h-16.6v-1.3h34.5V142.4z"/>
<path class="st0" d="M258.2,190h-1.3c-0.7,0-1.3-0.6-1.3-1.2v-45.1h-15.3c-0.7,0-1.2-0.6-1.2-1.2c0,0,0,0,0,0v-1.3
	c0-0.7,0.5-1.2,1.2-1.2c0,0,0,0,0,0h34.5c0.7,0,1.2,0.6,1.2,1.2v1.3c0,0.7-0.5,1.2-1.2,1.2c0,0,0,0,0,0h-15.4v45.1
	C259.4,189.4,258.9,190,258.2,190C258.2,190,258.2,190,258.2,190L258.2,190z"/>
<path class="st0" d="M316,142.4h-16.7v46.3h-1.3v-46.3h-16.6v-1.3H316V142.4z"/>
<path class="st0" d="M299.3,190h-1.3c-0.7,0-1.2-0.6-1.2-1.2v-45.1h-15.3c-0.7,0-1.2-0.6-1.2-1.2v-1.3c0-0.7,0.6-1.2,1.2-1.2H316
	c0.7,0,1.2,0.6,1.2,1.2v1.3c0,0.7-0.6,1.2-1.2,1.2h-15.4v45.1C300.6,189.4,300,190,299.3,190C299.4,190,299.4,190,299.3,190
	L299.3,190z"/>
<path class="st0" d="M339.8,188.7c-3.2,0-6.3-0.6-9.3-1.9c-12.1-5.2-17.8-19.2-12.6-31.3c1.2-2.8,2.9-5.4,5.1-7.5
	c9.3-9.3,24.3-9.3,33.6,0c0,0,0,0,0,0c9.3,9.3,9.3,24.4,0,33.7c-2.2,2.2-4.7,3.9-7.6,5.1C346.1,188.1,343,188.8,339.8,188.7z
	 M339.8,142.4c-3,0-6,0.6-8.8,1.8c-11.5,4.8-16.8,18-12,29.5c4.8,11.5,18,16.8,29.5,12s16.8-18,12-29.5c-2.3-5.4-6.6-9.7-12-12
	C345.8,143,342.8,142.4,339.8,142.4z"/>
<path class="st0" d="M339.8,190c-3.4,0-6.7-0.7-9.8-2c-12.8-5.3-18.8-20-13.4-32.8c5.3-12.8,20-18.8,32.8-13.4
	c6.1,2.5,10.9,7.4,13.4,13.4c1.3,3.1,2,6.4,2,9.8c0,3.4-0.7,6.7-2,9.8c-1.3,3-3.1,5.7-5.3,7.9c-2.3,2.3-5,4.1-7.9,5.4
	C346.5,189.3,343.2,190,339.8,190z M339.8,143.7c-2.8,0-5.6,0.5-8.3,1.7c-2.5,1.1-4.8,2.6-6.8,4.6c-1.9,1.9-3.5,4.3-4.6,6.8
	c-1.1,2.6-1.7,5.4-1.7,8.3c0,2.8,0.6,5.7,1.7,8.3c4.5,10.8,17,15.9,27.8,11.3c2.5-1.1,4.9-2.6,6.8-4.6c1.9-2,3.5-4.2,4.6-6.8
	c2.2-5.3,2.2-11.3,0-16.6c-1.1-2.5-2.6-4.8-4.6-6.8c-1.9-1.9-4.2-3.5-6.8-4.6C345.5,144.2,342.7,143.6,339.8,143.7L339.8,143.7z"/>
<path class="st0" d="M408.3,141.1v47.6H407l-35.5-45.3v45.3h-1.3v-47.6h1.3l35.5,45.4v-45.4H408.3z"/>
<path class="st0" d="M408.3,190H407c-0.4,0-0.8-0.2-1-0.5L372.8,147v41.7c0,0.7-0.5,1.3-1.2,1.3c0,0,0,0,0,0h0h-1.3
	c-0.7,0-1.2-0.5-1.2-1.2c0,0,0,0,0,0c0,0,0,0,0,0v-47.6c0-0.7,0.5-1.2,1.2-1.2c0,0,0,0,0,0c0,0,0,0,0,0h1.3c0.4,0,0.8,0.2,1,0.5
	l33.2,42.6v-41.8c0-0.7,0.5-1.2,1.2-1.2c0,0,0,0,0,0c0,0,0,0,0,0h1.3c0.7,0,1.2,0.6,1.2,1.2v47.6C409.6,189.4,409,190,408.3,190
	C408.4,190,408.4,190,408.3,190C408.3,190,408.3,190,408.3,190z"/>
<path class="st0" d="M436.8,164.5c1.6,0.3,3.2,0.8,4.7,1.5c1.4,0.7,2.6,1.6,3.7,2.7c1,1.1,1.9,2.3,2.5,3.6c0.6,1.4,0.9,2.8,0.9,4.3
	c0,1.7-0.4,3.3-1.1,4.8c-0.8,1.5-1.8,2.8-3.1,3.9c-1.4,1.1-3,2-4.7,2.6c-1.8,0.7-3.8,1-5.7,1h-4.4c-1.9,0-3.8-0.3-5.7-1
	c-1.7-0.6-3.3-1.5-4.6-2.6c-1.3-1.1-2.4-2.4-3.2-3.9c-0.8-1.5-1.2-3.1-1.2-4.8v-0.3h1.5v0.3c0,1.5,0.3,2.9,1,4.2
	c0.7,1.3,1.7,2.5,2.8,3.5c1.2,1,2.6,1.8,4.1,2.4c1.6,0.6,3.4,0.9,5.1,0.9h4.4c1.7,0,3.5-0.3,5.1-0.9c1.5-0.5,2.9-1.3,4.1-2.4
	c1.1-1,2.1-2.1,2.8-3.5c0.7-1.3,1-2.8,1-4.2c0-1.5-0.3-2.9-1-4.3c-0.7-1.3-1.6-2.5-2.8-3.5c-1.2-1-2.6-1.8-4.1-2.4
	c-1.6-0.6-3.4-0.9-5.1-0.9c-1.6,0.1-3.1,0.1-4.7-0.1c-1-0.1-2.1-0.3-3.1-0.6c-0.8-0.2-1.6-0.4-2.3-0.8c-2.1-1.2-3.9-2.8-5.4-4.7
	c-1.3-1.7-2-3.9-2-6.1c0-1.7,0.4-3.3,1.2-4.8c0.8-1.5,1.9-2.8,3.2-3.9c1.4-1.1,3-2,4.7-2.6c1.8-0.7,3.7-1,5.6-1h1.3
	c1.9,0,3.8,0.3,5.6,0.9c1.6,0.6,3.2,1.4,4.6,2.5c1.3,1,2.4,2.3,3.2,3.7c0.8,1.4,1.3,2.9,1.4,4.5h-1.5c-0.1-1.4-0.5-2.8-1.2-4
	c-0.7-1.3-1.7-2.4-2.8-3.3c-1.2-1-2.6-1.7-4.1-2.2c-1.6-0.5-3.2-0.8-4.9-0.8h-1.3c-1.7,0-3.5,0.3-5.1,0.9c-1.5,0.5-2.9,1.3-4.2,2.4
	c-1.2,1-2.1,2.1-2.8,3.5c-0.7,1.3-1,2.8-1,4.3c0,1.5,0.3,2.9,1,4.2c0.7,1.3,1.7,2.5,2.8,3.5c1.2,1,2.6,1.8,4.1,2.4
	c1.6,0.6,3.3,0.9,5.1,0.9h4C435.7,164.3,436.3,164.4,436.8,164.5z"/>
<path class="st0" d="M434,190h-4.4c-2.1,0-4.1-0.3-6.1-1c-1.8-0.6-3.5-1.6-5-2.8c-1.5-1.2-2.7-2.6-3.5-4.3c-0.9-1.6-1.3-3.5-1.3-5.3
	c0-0.7,0.5-1.5,1.2-1.5h1.5c0.7,0,1.2,0.5,1.2,1.2c0,0,0,0,0,0c0,0,0,0,0,0c0,1.4,0.3,2.7,0.9,3.9c0.6,1.2,1.5,2.2,2.5,3.1
	c1.1,0.9,2.4,1.7,3.8,2.1c1.5,0.5,3.1,0.8,4.7,0.8h4.5c1.6,0,3.2-0.3,4.7-0.8c1.4-0.5,2.7-1.2,3.8-2.1c1-0.9,1.9-1.9,2.5-3.1
	c0.6-1.1,0.9-2.4,0.9-3.6c0-1.3-0.3-2.5-0.9-3.7c-0.6-1.2-1.5-2.3-2.5-3.1c-1.1-0.9-2.4-1.7-3.8-2.1c-1.5-0.5-3.1-0.8-4.7-0.8
	c-1.6,0.1-3.2,0.1-4.8-0.1c-1.1-0.1-2.2-0.3-3.3-0.6c-0.9-0.2-1.7-0.5-2.5-0.9c-2.3-1.3-4.2-3-5.9-5c-1.5-2-2.3-4.4-2.2-6.8
	c0-1.9,0.4-3.7,1.3-5.3c0.9-1.6,2-3.1,3.5-4.3c1.5-1.2,3.2-2.2,5-2.9c2-0.7,4-1,6.1-1h1.3c2,0,4,0.3,5.9,1c1.8,0.6,3.4,1.5,4.9,2.7
	c1.4,1.1,2.6,2.5,3.5,4c0.9,1.6,1.4,3.3,1.5,5.1c0,0.7-0.5,1.3-1.2,1.3l-0.1,0h-1.5c-0.7,0-1.2-0.5-1.2-1.2
	c-0.1-1.2-0.4-2.4-1.1-3.5c-0.7-1.1-1.5-2.2-2.5-3c-1.1-0.9-2.4-1.6-3.7-2c-1.5-0.5-3-0.7-4.5-0.7h-1.3c-1.6,0-3.2,0.3-4.7,0.8
	c-1.4,0.5-2.7,1.2-3.8,2.1c-1,0.9-1.9,1.9-2.5,3.1c-0.6,1.1-0.9,2.4-0.9,3.7c0,1.3,0.3,2.5,0.9,3.6c0.6,1.2,1.5,2.2,2.5,3.1
	c1.1,0.9,2.4,1.7,3.8,2.1c1.5,0.5,3.1,0.8,4.7,0.8h4.1c0.6,0,1.3,0.1,1.9,0.2c1.7,0.3,3.4,0.8,5,1.6c1.5,0.7,2.9,1.7,4,2.9
	c1.1,1.2,2.1,2.5,2.7,4c1.4,3.2,1.3,7-0.3,10.1c-0.8,1.6-2,3.1-3.4,4.2c-1.5,1.2-3.2,2.2-5,2.8C438.2,189.6,436.1,190,434,190z"/>
<path class="st0" d="M225.8,0.8c-29.7,0-53.9,16.9-53.9,37.7v27.1c0,20.8,24.2,37.7,53.9,37.7s53.9-16.9,53.9-37.7V38.4
	C279.7,17.7,255.5,0.8,225.8,0.8z M225.8,4.5c27.7,0,50.2,15.2,50.2,34s-22.5,34-50.2,34s-50.2-15.2-50.2-34S198.1,4.5,225.8,4.5z
	 M276,65.5c0,18.7-22.5,34-50.2,34s-50.2-15.2-50.2-34V52.1c7.9,14,27.4,24,50.2,24s42.3-10,50.2-24V65.5z"/>
<path class="st0" d="M247,44h-6V30.6h6c1,0,1.9-0.8,1.9-1.9s-0.8-1.9-1.9-1.9l0,0h-6v-3.7c0-1-0.8-1.9-1.8-1.9c-1,0-1.9,0.8-1.9,1.8
	v3.7h-22.9v-3.7c0-1-0.8-1.9-1.8-1.9c-1,0-1.9,0.8-1.9,1.8c0,0,0,0,0,0v3.7h-6c-1,0-1.9,0.8-1.9,1.9s0.8,1.9,1.9,1.9h6V44h-6
	c-1,0-1.9,0.8-1.9,1.8c0,1,0.8,1.9,1.9,1.9h6V52c0,1,0.8,1.9,1.8,1.9c1,0,1.9-0.8,1.9-1.8v-4.3h22.9V52c0,1,0.8,1.8,1.9,1.8
	c1,0,1.8-0.8,1.8-1.8v-4.3h6c1,0,1.9-0.8,1.9-1.8C248.8,44.8,248,44,247,44L247,44z M237.3,44h-22.9V30.6h22.9L237.3,44z"/>
<path class="st1" d="M108,252.2c0,3.3-2.7,6-6,6h-9.2l0.1-0.9v-20.9h8c3.3,0,6,2.7,6,6c0,1.7-0.7,3.3-2,4.5
	C106.8,248,108,250,108,252.2z M104.6,242.4c0-2.1-1.7-3.7-3.7-3.7h-5.8v7.5h5.8C102.9,246.1,104.6,244.5,104.6,242.4
	C104.6,242.4,104.6,242.4,104.6,242.4L104.6,242.4z M105.7,252.2c0-2.1-1.7-3.7-3.7-3.7h-6.9v7.5h6.9
	C104,255.9,105.7,254.2,105.7,252.2z"/>
<path class="st1" d="M131.4,236.4h16.3v2.3h-7v19.5h-2.3v-19.5h-7L131.4,236.4z"/>
<path class="st1" d="M168.7,247.2c0,6-4.9,10.8-10.8,10.8c-6,0-10.8-4.9-10.8-10.8c0-6,4.9-10.8,10.8-10.8
	C163.9,236.4,168.7,241.3,168.7,247.2z M166.5,247.2c0-4.7-3.9-8.5-8.6-8.5c-4.7,0-8.5,3.9-8.5,8.6c0,4.7,3.8,8.5,8.6,8.5
	C162.7,255.8,166.5,252,166.5,247.2C166.5,247.2,166.5,247.2,166.5,247.2L166.5,247.2z"/>
<path class="st1" d="M186.6,236.4h2.3v21.8h-1.8l-13.6-17.5v17.5h-2.3v-21.8h1.8l13.6,17.5V236.4z"/>
<path class="st1" d="M191.3,236.4h14.4v2.3h-12.1v7.5h8.8v2.3h-8.8v7.5h12.1v2.3h-14.4V236.4z"/>
<path class="st1" d="M223.2,252.2c0,3.3-3.2,6-7,6h-1.9c-3.9,0-7-2.7-7-6V252l0-0.9h2.4l0,1c-0.1,2,2.1,3.7,4.7,3.7h1.9
	c2.6,0,4.7-1.7,4.7-3.7c0-2.1-2.1-3.7-4.7-3.7h-0.9c-1.3,0-2.6-0.2-3.8-0.8c-2.4-1.4-3.6-3.1-3.6-5.3c0-3.3,3.2-6,7-6h0.5
	c3.7,0,6.9,2.5,7,5.7l0.1,0.9h-2.4l-0.1-0.8c-0.2-2-2.2-3.5-4.7-3.5h-0.5c-2.6,0-4.6,1.7-4.6,3.7c0,2,1.9,3.7,4.4,3.7h1.1v0
	c0.5,0,1.1,0,1.6,0.1h0.1C220.6,246.5,223,249,223.2,252.2z"/>
<path class="st1" d="M243.5,247.3c0,6-4.9,10.9-10.9,10.9c0,0,0,0,0,0h-6.9v-21.8h6.9C238.6,236.4,243.4,241.3,243.5,247.3z
	 M241.2,247.3c0-4.8-3.9-8.6-8.6-8.6h-4.7v17.3h4.7C237.3,255.9,241.2,252,241.2,247.3z"/>
<path class="st1" d="M245.9,236.4h14.4v2.3h-12.1v7.5h8.8v2.3h-8.8v7.5h12.1v2.3h-14.4V236.4z"/>
<path class="st1" d="M274,236.4l9.6,21.8h-2.5l-3-6.7h-10l-3,6.7h-2.5l9.6-21.8H274z M277.1,249.2l-4-9.1l-4,9.1H277.1z"/>
<path class="st1" d="M290.5,247.7v10.5h-2.3v-10.5l-8.3-11.3h2.8l6.6,9l6.6-9h2.8L290.5,247.7z"/>
<path class="st1" d="M316.1,236.4h2.3v13.2c0,4.7-3.9,8.6-8.6,8.6c-4.4,0-8.1-3.3-8.5-7.7h0v-14.1h2.3v13.3c0.1,3.5,2.9,6.3,6.4,6.2
	c3.4-0.1,6.1-2.8,6.2-6.2V236.4z"/>
<path class="st1" d="M338.6,247.3c0,6-4.9,10.9-10.9,10.9c0,0,0,0,0,0h-6.9v-21.8h6.9C333.7,236.4,338.6,241.3,338.6,247.3z
	 M336.3,247.3c0-4.8-3.9-8.6-8.6-8.6H323v17.3h4.7C332.5,255.9,336.3,252,336.3,247.3z"/>
<path class="st1" d="M349.3,236.4l9.6,21.8h-2.5l-3-6.7h-10l-3,6.7H338l9.6-21.8H349.3z M352.4,249.2l-4-9.1l-4,9.1H352.4z"/>
<path class="st1" d="M120.5,235.6c-6.4,0-11.7,3.7-11.7,8.3v5.6c0,4.6,5.2,8.3,11.7,8.3s11.7-3.7,11.7-8.3v-5.6
	C132.2,239.3,126.9,235.6,120.5,235.6z M120.5,237.5c5.4,0,9.8,2.9,9.8,6.4s-4.4,6.4-9.8,6.4s-9.8-2.9-9.8-6.5
	S115.1,237.5,120.5,237.5L120.5,237.5z M130.3,249.5c0,3.6-4.4,6.4-9.8,6.4s-9.8-2.9-9.8-6.4v-1.1c2.6,2.5,6.1,3.9,9.8,3.8
	c4.1,0,7.7-1.5,9.8-3.8V249.5z"/>
<path class="st1" d="M114.8,245c-0.5-0.1-1,0.3-1,0.8c-0.1,0.5,0.3,1,0.8,1c0,0,0,0,0.1,0c0,0,0.1,0,0.2,0h1.2v0.7
	c0,0.5,0.4,0.9,1,0.9c0.5,0,0.9-0.4,0.9-0.9v-0.7h5.2v0.7c0,0.5,0.4,0.9,1,0.9c0.5,0,0.9-0.4,0.9-0.9v-0.7h1.2c0.5,0.1,1-0.3,1-0.8
	c0.1-0.5-0.3-1-0.8-1c0,0,0,0-0.1,0c0,0-0.1,0-0.2,0H125v-2.7h1.2c0.5,0,0.9-0.4,0.9-1c0-0.5-0.4-0.9-0.9-0.9H125v-0.5
	c0-0.5-0.5-0.9-1-0.9c-0.5,0-0.9,0.4-0.9,0.9l0,0v0.5h-5.2v-0.5c0-0.5-0.5-0.9-1-0.9c-0.5,0-0.9,0.4-0.9,0.9v0.5h-1.2
	c-0.5,0-0.9,0.5-0.9,1c0,0.5,0.4,0.9,0.9,0.9h1.2v2.7L114.8,245z M117.9,242.3h5.2v2.7h-5.2V242.3z"/>
<g>
	<path class="st0" d="M414,203c0.4,0.5,0.6,1.2,0.6,1.9c0,0.7-0.2,1.4-0.5,2c-0.4,0.6-0.9,1-1.5,1.3c-0.7,0.3-1.4,0.5-2.3,0.5h-6
		v-12.8h6c0.7,0,1.3,0.1,1.9,0.4c0.5,0.3,1,0.7,1.3,1.2c0.3,0.5,0.4,1.1,0.4,1.8c0,0.6-0.1,1.1-0.4,1.5c-0.3,0.4-0.7,0.8-1.2,1.1
		C413,202,413.6,202.4,414,203z M410.6,200.5c0.3-0.3,0.5-0.6,0.5-1c0-0.4-0.2-0.8-0.5-1c-0.3-0.3-0.7-0.4-1.2-0.4h-2.3v2.8h2.2
		C409.9,200.9,410.3,200.8,410.6,200.5z M411.2,205.9c0.3-0.3,0.5-0.7,0.5-1.1c0-0.5-0.2-0.8-0.5-1.1c-0.3-0.3-0.8-0.4-1.3-0.4h-2.8
		v3.1h2.8C410.5,206.3,410.9,206.2,411.2,205.9z"/>
	<path class="st0" d="M416.7,195.8h9v2.3h-6.2v2.9h5.6v2.3h-5.6v3h6.3v2.3h-9.1V195.8z"/>
	<path class="st0" d="M430.8,208.6v-10.5h-3.8v-2.3h10.5v2.3h-3.8v10.5H430.8z"/>
	<path class="st0" d="M436.4,208.6l5.4-12.8h2.6l5.4,12.8h-3l-0.9-2.3h-5.6l-0.9,2.3H436.4z M445,204l-1.9-4.8l-1.9,4.8H445z"/>
</g>
</svg>
