<?xml version="1.0" encoding="utf-8"?>
<!-- Generator: Adobe Illustrator 23.0.1, SVG Export Plug-In . SVG Version: 6.00 Build 0)  -->
<svg version="1.1" id="Capa_1" xmlns="http://www.w3.org/2000/svg" xmlns:xlink="http://www.w3.org/1999/xlink" x="0px" y="0px"
	 viewBox="0 0 451.6 130.3" style="enable-background:new 0 0 451.6 130.3;" xml:space="preserve">
<style type="text/css">
	.st0{fill:#3F3F3F;}
	.st1{fill:#3E3E3E;}
</style>
<title>logo_</title>
<path class="st0" d="M40.5,20.1v47.6h-1.3V44.5h-35v23.2L3,68V20.2h1.3v23.2h35V20.2L40.5,20.1L40.5,20.1z"/>
<path class="st0" d="M3,69.2c-0.7,0-1.2-0.5-1.2-1.2V20.2c0-0.7,0.5-1.3,1.2-1.3l0,0l0,0h1.3c0.7,0,1.2,0.6,1.2,1.2V42H38V20.1
	c0-0.7,0.5-1.2,1.2-1.2l0,0h1.3c0.7,0,1.2,0.6,1.2,1.2l0,0v47.6c0,0.7-0.5,1.2-1.2,1.3l0,0h-1.3c-0.7,0-1.2-0.5-1.2-1.2l0,0l0,0
	V45.9H5.6v21.9c0,0.6-0.4,1.1-1,1.2l-1.3,0.2L3,69.2z"/>
<path class="st0" d="M48.4,21.4v21.9h21v1.3h-21v21.9h28.7v1.3h-30V20.2h30v1.3L48.4,21.4z"/>
<path class="st0" d="M77.1,69h-30c-0.7,0-1.2-0.6-1.2-1.2V20.2c0-0.7,0.6-1.2,1.2-1.2h30c0.7,0,1.2,0.6,1.2,1.2l0,0v1.3
	c0,0.7-0.5,1.2-1.2,1.2l0,0H49.7v19.4h19.7c0.7,0,1.2,0.6,1.2,1.2l0,0v1.3c0,0.7-0.5,1.2-1.2,1.2l0,0H49.7v19.4h27.4
	c0.7,0,1.2,0.6,1.2,1.2l0,0v1.3C78.4,68.4,77.8,69,77.1,69C77.2,69,77.2,69,77.1,69L77.1,69z"/>
<path class="st0" d="M113.9,66.5v1.3H83.8V20.2H85v46.3L113.9,66.5L113.9,66.5z"/>
<path class="st0" d="M113.9,69H83.8c-0.7,0-1.2-0.6-1.2-1.2l0,0V20.2c0-0.7,0.5-1.2,1.2-1.2l0,0H85c0.7,0,1.2,0.6,1.2,1.2v45.1h27.6
	c0.7,0,1.2,0.6,1.2,1.2v1.3C115.1,68.4,114.6,69,113.9,69z"/>
<path class="st0" d="M120.6,67.7V20.1h19.2c1.6,0,3.3,0.3,4.8,1c1.4,0.6,2.8,1.5,3.9,2.6c1.1,1.1,2,2.4,2.6,3.9c1.3,3,1.3,6.5,0,9.5
	c-0.6,1.4-1.5,2.7-2.6,3.9c-1.1,1.1-2.4,2-3.9,2.6c-1.5,0.7-3.1,1-4.8,1h-17.9v23.2L120.6,67.7z M121.9,43.3h17.9
	c1.5,0,2.9-0.3,4.2-0.9c1.3-0.6,2.4-1.4,3.4-2.4s1.8-2.2,2.3-3.5c0.6-1.3,0.9-2.8,0.9-4.2c0-1.5-0.3-2.9-0.9-4.3
	c-0.6-1.3-1.3-2.5-2.3-3.5s-2.1-1.8-3.4-2.4c-1.3-0.6-2.8-0.9-4.2-0.9h-17.9V43.3z"/>
<path class="st0" d="M121.9,69h-1.3c-0.7,0-1.2-0.6-1.2-1.2V20.2c0-0.7,0.6-1.2,1.2-1.2h19.2c3.6,0,7,1.5,9.5,4
	c1.2,1.2,2.2,2.7,2.9,4.3c2.1,5,1,10.9-2.9,14.8c-1.2,1.2-2.7,2.2-4.2,2.9c-1.7,0.7-3.4,1.1-5.2,1.1h-16.7V68
	C123.1,68.5,122.5,69,121.9,69z M123.1,42.1h16.7c1.3,0,2.5-0.3,3.7-0.8c1.1-0.5,2.2-1.2,3.1-2.1c0.9-0.9,1.6-1.9,2.1-3.1
	c0.5-1.2,0.8-2.4,0.8-3.7s-0.3-2.6-0.8-3.8s-1.2-2.2-2.1-3.1c-0.9-0.9-1.9-1.6-3-2.1c-1.2-0.5-2.4-0.8-3.7-0.8h-16.7L123.1,42.1z"/>
<path class="st0" d="M180.6,43.5c1.4,0.3,2.7,0.8,3.9,1.5s2.2,1.6,3.1,2.7c0.9,1.1,1.6,2.3,2.1,3.6c0.5,1.4,0.7,2.8,0.7,4.3
	c0,1.6-0.3,3.3-1,4.8c-0.6,1.4-1.5,2.7-2.6,3.9c-1.1,1.1-2.4,2-3.9,2.6c-1.5,0.7-3.1,1-4.8,1h-19.6V20.3h17.1c1.6,0,3.3,0.3,4.8,1
	c1.4,0.6,2.8,1.5,3.9,2.6c1.1,1.1,2,2.4,2.6,3.9c1.6,3.8,1.2,8.1-1.1,11.5C184.6,41.1,182.8,42.6,180.6,43.5z M159.9,43.3h15.9
	c1.5,0,2.9-0.3,4.2-0.9c1.3-0.6,2.4-1.4,3.4-2.4s1.8-2.2,2.3-3.5c0.6-1.3,0.9-2.8,0.9-4.2c0-1.5-0.3-2.9-0.9-4.3
	c-0.6-1.3-1.3-2.5-2.3-3.5s-2.1-1.8-3.4-2.4c-1.3-0.6-2.8-0.9-4.2-0.9h-15.9V43.3z M182.5,65.6c1.3-0.6,2.5-1.4,3.5-2.4
	s1.8-2.2,2.3-3.5c0.6-1.3,0.9-2.8,0.9-4.2c0-1.5-0.3-2.9-0.9-4.3c-0.6-1.3-1.3-2.5-2.3-3.5s-2.2-1.8-3.5-2.4
	c-1.3-0.6-2.8-0.9-4.3-0.9h-18.4v21.9h18.4C179.7,66.5,181.2,66.2,182.5,65.6z"/>
<path class="st0" d="M178.3,69h-19.6c-0.7,0-1.2-0.6-1.2-1.2V20.2c0-0.7,0.6-1.2,1.2-1.2h17.1c3.6,0,7,1.4,9.5,4
	c1.2,1.2,2.2,2.7,2.9,4.3c1.8,4.2,1.3,8.9-1.2,12.7c-0.9,1.3-2,2.4-3.2,3.4c0.5,0.2,1,0.5,1.4,0.8c1.3,0.8,2.5,1.8,3.4,3
	c1,1.2,1.7,2.5,2.3,3.9c0.5,1.5,0.8,3.1,0.8,4.7c0,1.8-0.4,3.6-1.1,5.3c-1.3,3.2-3.9,5.8-7.1,7.1C181.8,68.7,180.1,69,178.3,69z
	 M161.1,65.2h17.1c1.3,0,2.6-0.2,3.8-0.8c1.2-0.5,2.2-1.2,3.1-2.1c0.9-0.9,1.6-1.9,2.1-3.1c0.5-1.2,0.8-2.4,0.8-3.7
	s-0.3-2.6-0.8-3.8s-1.2-2.2-2.1-3.1c-0.9-0.9-1.9-1.6-3.1-2.1c-1.2-0.5-2.5-0.8-3.8-0.8h-17.1V65.2z M161.1,42.1h14.6
	c1.3,0,2.5-0.3,3.7-0.8c1.1-0.5,2.1-1.2,3-2.1c0.9-0.9,1.6-2,2.1-3.1c0.5-1.2,0.8-2.4,0.8-3.7s-0.2-2.6-0.8-3.8
	c-0.5-1.2-1.2-2.2-2.1-3.1c-0.9-0.9-1.9-1.6-3-2.1c-1.2-0.5-2.4-0.8-3.7-0.8h-14.6V42.1z"/>
<path class="st0" d="M233.7,20.1v29.3c0,2.4-0.5,4.9-1.4,7.1c-3.9,9.3-14.7,13.7-24,9.8c-6.8-2.9-11.2-9.5-11.2-16.9V20.1h1.3v29.3
	c0,2.3,0.4,4.5,1.4,6.6c0.9,2,2.1,3.9,3.6,5.4c1.6,1.6,3.4,2.8,5.4,3.7c4.2,1.8,9,1.8,13.2,0c2-0.9,3.9-2.1,5.4-3.7
	c1.5-1.6,2.8-3.4,3.6-5.4c0.9-2.1,1.3-4.3,1.3-6.6h-0.1V20.1L233.7,20.1L233.7,20.1z"/>
<path class="st0" d="M215.4,69c-2.6,0-5.2-0.5-7.6-1.5c-4.7-2-8.4-5.7-10.4-10.4c-1-2.4-1.6-5-1.5-7.6V20.2c0-0.7,0.6-1.2,1.2-1.2
	h1.3c0.7,0,1.2,0.6,1.2,1.2v29.3c0,2.1,0.4,4.2,1.2,6.1c0.8,1.9,2,3.6,3.4,5c6.1,6.2,16.1,6.2,22.3,0.1l0,0l0.1-0.1
	c1.4-1.4,2.6-3.1,3.4-5c0.8-1.8,1.2-3.8,1.2-5.8c0-0.1-0.1-0.2-0.1-0.4V20.1c0-0.7,0.6-1.2,1.2-1.2h1.3c0.7,0,1.2,0.6,1.2,1.2v29.3
	c0,2.6-0.5,5.2-1.5,7.6c-2,4.7-5.7,8.4-10.4,10.4C220.6,68.5,218,69,215.4,69z"/>
<path class="st0" d="M274.8,21.4h-16.6v46.3h-1.3V21.4h-16.6v-1.3h34.5V21.4z"/>
<path class="st0" d="M258.2,69h-1.3c-0.7,0-1.3-0.6-1.3-1.2V22.7h-15.3c-0.7,0-1.2-0.6-1.2-1.2l0,0v-1.3c0-0.7,0.5-1.2,1.2-1.2l0,0
	h34.5c0.7,0,1.2,0.6,1.2,1.2v1.3c0,0.7-0.5,1.2-1.2,1.2l0,0h-15.4v45.1C259.4,68.4,258.9,69,258.2,69L258.2,69L258.2,69z"/>
<path class="st0" d="M316,21.4h-16.7v46.3H298V21.4h-16.6v-1.3H316V21.4z"/>
<path class="st0" d="M299.3,69H298c-0.7,0-1.2-0.6-1.2-1.2V22.7h-15.3c-0.7,0-1.2-0.6-1.2-1.2v-1.3c0-0.7,0.6-1.2,1.2-1.2H316
	c0.7,0,1.2,0.6,1.2,1.2v1.3c0,0.7-0.6,1.2-1.2,1.2h-15.4v45.1C300.6,68.4,300,69,299.3,69C299.4,69,299.4,69,299.3,69L299.3,69z"/>
<path class="st0" d="M339.8,67.7c-3.2,0-6.3-0.6-9.3-1.9c-12.1-5.2-17.8-19.2-12.6-31.3c1.2-2.8,2.9-5.4,5.1-7.5
	c9.3-9.3,24.3-9.3,33.6,0l0,0c9.3,9.3,9.3,24.4,0,33.7c-2.2,2.2-4.7,3.9-7.6,5.1C346.1,67.1,343,67.8,339.8,67.7z M339.8,21.4
	c-3,0-6,0.6-8.8,1.8c-11.5,4.8-16.8,18-12,29.5s18,16.8,29.5,12s16.8-18,12-29.5c-2.3-5.4-6.6-9.7-12-12
	C345.8,22,342.8,21.4,339.8,21.4z"/>
<path class="st0" d="M339.8,69c-3.4,0-6.7-0.7-9.8-2c-12.8-5.3-18.8-20-13.4-32.8c5.3-12.8,20-18.8,32.8-13.4
	c6.1,2.5,10.9,7.4,13.4,13.4c1.3,3.1,2,6.4,2,9.8c0,3.4-0.7,6.7-2,9.8c-1.3,3-3.1,5.7-5.3,7.9c-2.3,2.3-5,4.1-7.9,5.4
	C346.5,68.3,343.2,69,339.8,69z M339.8,22.7c-2.8,0-5.6,0.5-8.3,1.7c-2.5,1.1-4.8,2.6-6.8,4.6c-1.9,1.9-3.5,4.3-4.6,6.8
	c-1.1,2.6-1.7,5.4-1.7,8.3c0,2.8,0.6,5.7,1.7,8.3c4.5,10.8,17,15.9,27.8,11.3c2.5-1.1,4.9-2.6,6.8-4.6s3.5-4.2,4.6-6.8
	c2.2-5.3,2.2-11.3,0-16.6c-1.1-2.5-2.6-4.8-4.6-6.8c-1.9-1.9-4.2-3.5-6.8-4.6C345.5,23.2,342.7,22.6,339.8,22.7L339.8,22.7z"/>
<path class="st0" d="M408.3,20.1v47.6H407l-35.5-45.3v45.3h-1.3V20.1h1.3L407,65.5V20.1H408.3z"/>
<path class="st0" d="M408.3,69H407c-0.4,0-0.8-0.2-1-0.5L372.8,26v41.7c0,0.7-0.5,1.3-1.2,1.3l0,0l0,0h-1.3c-0.7,0-1.2-0.5-1.2-1.2
	l0,0l0,0V20.2c0-0.7,0.5-1.2,1.2-1.2l0,0l0,0h1.3c0.4,0,0.8,0.2,1,0.5l33.2,42.6V20.3c0-0.7,0.5-1.2,1.2-1.2l0,0l0,0h1.3
	c0.7,0,1.2,0.6,1.2,1.2v47.6C409.6,68.4,409,69,408.3,69C408.4,69,408.4,69,408.3,69L408.3,69z"/>
<path class="st0" d="M436.8,43.5c1.6,0.3,3.2,0.8,4.7,1.5c1.4,0.7,2.6,1.6,3.7,2.7c1,1.1,1.9,2.3,2.5,3.6c0.6,1.4,0.9,2.8,0.9,4.3
	c0,1.7-0.4,3.3-1.1,4.8c-0.8,1.5-1.8,2.8-3.1,3.9c-1.4,1.1-3,2-4.7,2.6c-1.8,0.7-3.8,1-5.7,1h-4.4c-1.9,0-3.8-0.3-5.7-1
	c-1.7-0.6-3.3-1.5-4.6-2.6c-1.3-1.1-2.4-2.4-3.2-3.9c-0.8-1.5-1.2-3.1-1.2-4.8v-0.3h1.5v0.3c0,1.5,0.3,2.9,1,4.2s1.7,2.5,2.8,3.5
	c1.2,1,2.6,1.8,4.1,2.4c1.6,0.6,3.4,0.9,5.1,0.9h4.4c1.7,0,3.5-0.3,5.1-0.9c1.5-0.5,2.9-1.3,4.1-2.4c1.1-1,2.1-2.1,2.8-3.5
	c0.7-1.3,1-2.8,1-4.2c0-1.5-0.3-2.9-1-4.3c-0.7-1.3-1.6-2.5-2.8-3.5c-1.2-1-2.6-1.8-4.1-2.4c-1.6-0.6-3.4-0.9-5.1-0.9
	c-1.6,0.1-3.1,0.1-4.7-0.1c-1-0.1-2.1-0.3-3.1-0.6c-0.8-0.2-1.6-0.4-2.3-0.8c-2.1-1.2-3.9-2.8-5.4-4.7c-1.3-1.7-2-3.9-2-6.1
	c0-1.7,0.4-3.3,1.2-4.8c0.8-1.5,1.9-2.8,3.2-3.9c1.4-1.1,3-2,4.7-2.6c1.8-0.7,3.7-1,5.6-1h1.3c1.9,0,3.8,0.3,5.6,0.9
	c1.6,0.6,3.2,1.4,4.6,2.5c1.3,1,2.4,2.3,3.2,3.7c0.8,1.4,1.3,2.9,1.4,4.5h-1.5c-0.1-1.4-0.5-2.8-1.2-4c-0.7-1.3-1.7-2.4-2.8-3.3
	c-1.2-1-2.6-1.7-4.1-2.2c-1.6-0.5-3.2-0.8-4.9-0.8h-1.3c-1.7,0-3.5,0.3-5.1,0.9c-1.5,0.5-2.9,1.3-4.2,2.4c-1.2,1-2.1,2.1-2.8,3.5
	c-0.7,1.3-1,2.8-1,4.3s0.3,2.9,1,4.2s1.7,2.5,2.8,3.5c1.2,1,2.6,1.8,4.1,2.4c1.6,0.6,3.3,0.9,5.1,0.9h4
	C435.7,43.3,436.3,43.4,436.8,43.5z"/>
<path class="st0" d="M434,69h-4.4c-2.1,0-4.1-0.3-6.1-1c-1.8-0.6-3.5-1.6-5-2.8s-2.7-2.6-3.5-4.3c-0.9-1.6-1.3-3.5-1.3-5.3
	c0-0.7,0.5-1.5,1.2-1.5h1.5c0.7,0,1.2,0.5,1.2,1.2l0,0l0,0c0,1.4,0.3,2.7,0.9,3.9s1.5,2.2,2.5,3.1c1.1,0.9,2.4,1.7,3.8,2.1
	c1.5,0.5,3.1,0.8,4.7,0.8h4.5c1.6,0,3.2-0.3,4.7-0.8c1.4-0.5,2.7-1.2,3.8-2.1c1-0.9,1.9-1.9,2.5-3.1c0.6-1.1,0.9-2.4,0.9-3.6
	c0-1.3-0.3-2.5-0.9-3.7s-1.5-2.3-2.5-3.1c-1.1-0.9-2.4-1.7-3.8-2.1c-1.5-0.5-3.1-0.8-4.7-0.8c-1.6,0.1-3.2,0.1-4.8-0.1
	c-1.1-0.1-2.2-0.3-3.3-0.6c-0.9-0.2-1.7-0.5-2.5-0.9c-2.3-1.3-4.2-3-5.9-5c-1.5-2-2.3-4.4-2.2-6.8c0-1.9,0.4-3.7,1.3-5.3
	s2-3.1,3.5-4.3s3.2-2.2,5-2.9c2-0.7,4-1,6.1-1h1.3c2,0,4,0.3,5.9,1c1.8,0.6,3.4,1.5,4.9,2.7c1.4,1.1,2.6,2.5,3.5,4
	c0.9,1.6,1.4,3.3,1.5,5.1c0,0.7-0.5,1.3-1.2,1.3H447h-1.5c-0.7,0-1.2-0.5-1.2-1.2c-0.1-1.2-0.4-2.4-1.1-3.5s-1.5-2.2-2.5-3
	c-1.1-0.9-2.4-1.6-3.7-2c-1.5-0.5-3-0.7-4.5-0.7h-1.3c-1.6,0-3.2,0.3-4.7,0.8c-1.4,0.5-2.7,1.2-3.8,2.1c-1,0.9-1.9,1.9-2.5,3.1
	c-0.6,1.1-0.9,2.4-0.9,3.7s0.3,2.5,0.9,3.6c0.6,1.2,1.5,2.2,2.5,3.1c1.1,0.9,2.4,1.7,3.8,2.1c1.5,0.5,3.1,0.8,4.7,0.8h4.1
	c0.6,0,1.3,0.1,1.9,0.2c1.7,0.3,3.4,0.8,5,1.6c1.5,0.7,2.9,1.7,4,2.9s2.1,2.5,2.7,4c1.4,3.2,1.3,7-0.3,10.1c-0.8,1.6-2,3.1-3.4,4.2
	c-1.5,1.2-3.2,2.2-5,2.8C438.2,68.6,436.1,69,434,69z"/>
<path class="st1" d="M108,110.4c0,3.3-2.7,6-6,6h-9.2l0.1-0.9V94.6h8c3.3,0,6,2.7,6,6c0,1.7-0.7,3.3-2,4.5
	C106.8,106.2,108,108.2,108,110.4z M104.6,100.6c0-2.1-1.7-3.7-3.7-3.7h-5.8v7.5h5.8C102.9,104.3,104.6,102.7,104.6,100.6
	L104.6,100.6L104.6,100.6z M105.7,110.4c0-2.1-1.7-3.7-3.7-3.7h-6.9v7.5h6.9C104,114.1,105.7,112.4,105.7,110.4z"/>
<path class="st1" d="M131.4,94.6h16.3v2.3h-7v19.5h-2.3V96.9h-7V94.6z"/>
<path class="st1" d="M168.7,105.4c0,6-4.9,10.8-10.8,10.8c-6,0-10.8-4.9-10.8-10.8c0-6,4.9-10.8,10.8-10.8
	C163.9,94.6,168.7,99.5,168.7,105.4z M166.5,105.4c0-4.7-3.9-8.5-8.6-8.5c-4.7,0-8.5,3.9-8.5,8.6c0,4.7,3.8,8.5,8.6,8.5
	C162.7,114,166.5,110.2,166.5,105.4L166.5,105.4L166.5,105.4z"/>
<path class="st1" d="M186.6,94.6h2.3v21.8h-1.8l-13.6-17.5v17.5h-2.3V94.6h1.8l13.6,17.5V94.6z"/>
<path class="st1" d="M191.3,94.6h14.4v2.3h-12.1v7.5h8.8v2.3h-8.8v7.5h12.1v2.3h-14.4V94.6z"/>
<path class="st1" d="M223.2,110.4c0,3.3-3.2,6-7,6h-1.9c-3.9,0-7-2.7-7-6v-0.2v-0.9h2.4v1c-0.1,2,2.1,3.7,4.7,3.7h1.9
	c2.6,0,4.7-1.7,4.7-3.7c0-2.1-2.1-3.7-4.7-3.7h-0.9c-1.3,0-2.6-0.2-3.8-0.8c-2.4-1.4-3.6-3.1-3.6-5.3c0-3.3,3.2-6,7-6h0.5
	c3.7,0,6.9,2.5,7,5.7l0.1,0.9h-2.4l-0.1-0.8c-0.2-2-2.2-3.5-4.7-3.5h-0.5c-2.6,0-4.6,1.7-4.6,3.7s1.9,3.7,4.4,3.7h1.1l0,0
	c0.5,0,1.1,0,1.6,0.1h0.1C220.6,104.7,223,107.2,223.2,110.4z"/>
<path class="st1" d="M243.5,105.5c0,6-4.9,10.9-10.9,10.9l0,0h-6.9V94.6h6.9C238.6,94.6,243.4,99.5,243.5,105.5z M241.2,105.5
	c0-4.8-3.9-8.6-8.6-8.6h-4.7v17.3h4.7C237.3,114.1,241.2,110.2,241.2,105.5z"/>
<path class="st1" d="M245.9,94.6h14.4v2.3h-12.1v7.5h8.8v2.3h-8.8v7.5h12.1v2.3h-14.4L245.9,94.6L245.9,94.6z"/>
<path class="st1" d="M274,94.6l9.6,21.8h-2.5l-3-6.7h-10l-3,6.7h-2.5l9.6-21.8L274,94.6L274,94.6z M277.1,107.4l-4-9.1l-4,9.1H277.1
	z"/>
<path class="st1" d="M290.5,105.9v10.5h-2.3v-10.5l-8.3-11.3h2.8l6.6,9l6.6-9h2.8L290.5,105.9z"/>
<path class="st1" d="M316.1,94.6h2.3v13.2c0,4.7-3.9,8.6-8.6,8.6c-4.4,0-8.1-3.3-8.5-7.7l0,0V94.6h2.3v13.3c0.1,3.5,2.9,6.3,6.4,6.2
	c3.4-0.1,6.1-2.8,6.2-6.2L316.1,94.6L316.1,94.6z"/>
<path class="st1" d="M338.6,105.5c0,6-4.9,10.9-10.9,10.9l0,0h-6.9V94.6h6.9C333.7,94.6,338.6,99.5,338.6,105.5z M336.3,105.5
	c0-4.8-3.9-8.6-8.6-8.6H323v17.3h4.7C332.5,114.1,336.3,110.2,336.3,105.5z"/>
<path class="st1" d="M349.3,94.6l9.6,21.8h-2.5l-3-6.7h-10l-3,6.7H338l9.6-21.8L349.3,94.6L349.3,94.6z M352.4,107.4l-4-9.1l-4,9.1
	H352.4z"/>
<path class="st1" d="M120.5,93.8c-6.4,0-11.7,3.7-11.7,8.3v5.6c0,4.6,5.2,8.3,11.7,8.3s11.7-3.7,11.7-8.3v-5.6
	C132.2,97.5,126.9,93.8,120.5,93.8z M120.5,95.7c5.4,0,9.8,2.9,9.8,6.4s-4.4,6.4-9.8,6.4s-9.8-2.9-9.8-6.5S115.1,95.7,120.5,95.7
	L120.5,95.7z M130.3,107.7c0,3.6-4.4,6.4-9.8,6.4s-9.8-2.9-9.8-6.4v-1.1c2.6,2.5,6.1,3.9,9.8,3.8c4.1,0,7.7-1.5,9.8-3.8V107.7z"/>
<path class="st1" d="M114.8,103.2c-0.5-0.1-1,0.3-1,0.8c-0.1,0.5,0.3,1,0.8,1c0,0,0,0,0.1,0c0,0,0.1,0,0.2,0h1.2v0.7
	c0,0.5,0.4,0.9,1,0.9c0.5,0,0.9-0.4,0.9-0.9V105h5.2v0.7c0,0.5,0.4,0.9,1,0.9c0.5,0,0.9-0.4,0.9-0.9V105h1.2c0.5,0.1,1-0.3,1-0.8
	c0.1-0.5-0.3-1-0.8-1c0,0,0,0-0.1,0c0,0-0.1,0-0.2,0H125v-2.7h1.2c0.5,0,0.9-0.4,0.9-1c0-0.5-0.4-0.9-0.9-0.9H125v-0.5
	c0-0.5-0.5-0.9-1-0.9s-0.9,0.4-0.9,0.9l0,0v0.5h-5.2v-0.5c0-0.5-0.5-0.9-1-0.9s-0.9,0.4-0.9,0.9v0.5h-1.2c-0.5,0-0.9,0.5-0.9,1
	s0.4,0.9,0.9,0.9h1.2v2.7H114.8z M117.9,100.5h5.2v2.7h-5.2V100.5z"/>
<g>
	<path class="st0" d="M414,82c0.4,0.5,0.6,1.2,0.6,1.9s-0.2,1.4-0.5,2c-0.4,0.6-0.9,1-1.5,1.3c-0.7,0.3-1.4,0.5-2.3,0.5h-6V74.9h6
		c0.7,0,1.3,0.1,1.9,0.4c0.5,0.3,1,0.7,1.3,1.2s0.4,1.1,0.4,1.8c0,0.6-0.1,1.1-0.4,1.5s-0.7,0.8-1.2,1.1C413,81,413.6,81.4,414,82z
		 M410.6,79.5c0.3-0.3,0.5-0.6,0.5-1s-0.2-0.8-0.5-1c-0.3-0.3-0.7-0.4-1.2-0.4h-2.3v2.8h2.2C409.9,79.9,410.3,79.8,410.6,79.5z
		 M411.2,84.9c0.3-0.3,0.5-0.7,0.5-1.1c0-0.5-0.2-0.8-0.5-1.1s-0.8-0.4-1.3-0.4h-2.8v3.1h2.8C410.5,85.3,410.9,85.2,411.2,84.9z"/>
	<path class="st0" d="M416.7,74.8h9v2.3h-6.2V80h5.6v2.3h-5.6v3h6.3v2.3h-9.1L416.7,74.8L416.7,74.8z"/>
	<path class="st0" d="M430.8,87.6V77.1H427v-2.3h10.5v2.3h-3.8v10.5H430.8z"/>
	<path class="st0" d="M436.4,87.6l5.4-12.8h2.6l5.4,12.8h-3l-0.9-2.3h-5.6l-0.9,2.3H436.4z M445,83l-1.9-4.8l-1.9,4.8H445z"/>
</g>
</svg>
