<?xml version="1.0" encoding="utf-8"?>
<!-- Generator: Adobe Illustrator 23.0.1, SVG Export Plug-In . SVG Version: 6.00 Build 0)  -->
<svg version="1.1" id="Capa_1" xmlns="http://www.w3.org/2000/svg" xmlns:xlink="http://www.w3.org/1999/xlink" x="0px" y="0px"
	 viewBox="0 0 361 54.3" style="enable-background:new 0 0 361 54.3;" xml:space="preserve">
<style type="text/css">
	.st0{fill:#3F3F3F;}
	.st1{fill:#3E3E3E;}
</style>
<g>
	<path class="st0" d="M326.3,49.1c0.3,0.4,0.4,0.8,0.4,1.3c0,0.5-0.1,1-0.4,1.4c-0.2,0.4-0.6,0.7-1,0.9s-1,0.3-1.6,0.3h-4.1v-8.9
		h4.1c0.5,0,0.9,0.1,1.3,0.3c0.4,0.2,0.7,0.5,0.9,0.8c0.2,0.4,0.3,0.8,0.3,1.2c0,0.4-0.1,0.7-0.3,1c-0.2,0.3-0.5,0.6-0.8,0.8
		C325.6,48.5,326,48.8,326.3,49.1z M324,47.4c0.2-0.2,0.3-0.4,0.3-0.7s-0.1-0.5-0.3-0.7c-0.2-0.2-0.5-0.3-0.8-0.3h-1.6v1.9h1.5
		C323.5,47.7,323.8,47.6,324,47.4z M324.4,51.2c0.2-0.2,0.4-0.5,0.4-0.8c0-0.3-0.1-0.6-0.4-0.8c-0.2-0.2-0.5-0.3-0.9-0.3h-1.9v2.2
		h1.9C323.9,51.5,324.2,51.4,324.4,51.2z"/>
	<path class="st0" d="M328.2,44.2h6.2v1.6h-4.3v2h3.9v1.6h-3.9v2.1h4.4v1.6h-6.3V44.2z"/>
	<path class="st0" d="M338,53.1v-7.3h-2.7v-1.6h7.2v1.6h-2.7v7.3H338z"/>
	<path class="st0" d="M341.9,53.1l3.8-8.9h1.8l3.8,8.9h-2.1l-0.6-1.6h-3.9l-0.6,1.6H341.9z M347.8,49.9l-1.3-3.3l-1.3,3.3H347.8z"/>
</g>
<g>
	<g>
		<path class="st1" d="M28.7,34c0,4.3-3.5,7.7-7.7,7.7H9.2l0.1-1.1V13.7h10.3c4.3,0,7.7,3.5,7.7,7.7c0,2.2-0.9,4.3-2.6,5.7
			C27.2,28.6,28.7,31.1,28.7,34z M24.4,21.4c0-2.6-2.2-4.8-4.8-4.8h-7.4v9.6h7.4C22.2,26.2,24.4,24.1,24.4,21.4
			C24.4,21.4,24.4,21.4,24.4,21.4L24.4,21.4z M25.8,34c0-2.6-2.1-4.8-4.8-4.8h-8.8v9.6H21C23.6,38.7,25.8,36.6,25.8,34z"/>
		<path class="st1" d="M21,42H9.2c-0.1,0-0.2,0-0.3-0.1c-0.1-0.1-0.1-0.2-0.1-0.3l0.1-1.1l0-26.8c0-0.2,0.2-0.4,0.4-0.4h10.3
			c2.2,0,4.2,0.9,5.7,2.4c1.5,1.5,2.4,3.6,2.4,5.7c0,2.1-0.9,4.2-2.3,5.7c2.3,1.5,3.7,4.1,3.7,6.8c0,0,0,0,0,0
			C29.1,38.4,25.4,42,21,42z M9.6,41.3H21c4,0,7.3-3.3,7.3-7.3c0-2.7-1.5-5.1-3.8-6.4c-0.1-0.1-0.2-0.2-0.2-0.3c0-0.1,0-0.2,0.1-0.3
			c1.6-1.4,2.5-3.4,2.5-5.5c0-2-0.8-3.8-2.1-5.2c-1.4-1.4-3.2-2.2-5.2-2.2H9.6v26.5L9.6,41.3z M21,39.1h-8.8c-0.2,0-0.4-0.2-0.4-0.4
			v-9.6c0-0.2,0.2-0.4,0.4-0.4H21c2.8,0,5.2,2.3,5.1,5.2l0,0C26.1,36.8,23.8,39.1,21,39.1z M12.5,38.3H21c2.4,0,4.4-2,4.4-4.4
			c0-2.4-2-4.4-4.4-4.4h-8.5V38.3z M25.8,34L25.8,34L25.8,34z M19.6,26.6C19.6,26.6,19.6,26.6,19.6,26.6h-7.4
			c-0.2,0-0.4-0.2-0.4-0.4v-9.6c0-0.2,0.2-0.4,0.4-0.4h7.4c0,0,0,0,0,0c2.8,0,5.2,2.3,5.2,5.1c0,0,0,0,0,0v0c0,1.4-0.5,2.7-1.5,3.7
			C22.3,26,21,26.6,19.6,26.6z M12.5,25.8h7.1c0,0,0,0,0,0c1.2,0,2.3-0.5,3.1-1.3c0.8-0.8,1.3-1.9,1.3-3.1l0.4,0l-0.4,0
			c0-2.4-2-4.4-4.4-4.4c0,0,0,0,0,0h-7.1V25.8z"/>
	</g>
	<g>
		<path class="st1" d="M58.8,13.7h20.9v2.9h-9v25h-2.9v-25h-9L58.8,13.7z"/>
		<path class="st1" d="M70.7,42h-2.9c-0.2,0-0.4-0.2-0.4-0.4V17h-8.6c-0.1,0-0.2,0-0.3-0.1s-0.1-0.2-0.1-0.3l0-2.9
			c0-0.2,0.2-0.4,0.4-0.4h20.9c0.2,0,0.4,0.2,0.4,0.4v2.9c0,0.2-0.2,0.4-0.4,0.4h-8.6v24.7C71.1,41.9,70.9,42,70.7,42z M68.2,41.3
			h2.1V16.6c0-0.2,0.2-0.4,0.4-0.4h8.6v-2.2H59.2l0,2.2h8.6c0.2,0,0.4,0.2,0.4,0.4V41.3z"/>
	</g>
	<g>
		<path class="st1" d="M106.7,27.6c0,7.7-6.2,13.9-13.9,13.8c-7.7,0-13.9-6.2-13.8-13.9c0-7.7,6.2-13.9,13.9-13.8
			C100.5,13.8,106.7,20,106.7,27.6z M103.8,27.6c0-6.1-5-11-11-10.9c-6.1,0-11,5-10.9,11c0,6.1,4.9,10.9,11,10.9
			C98.9,38.6,103.8,33.7,103.8,27.6C103.8,27.6,103.8,27.6,103.8,27.6L103.8,27.6z"/>
		<path class="st1" d="M92.8,41.8C92.8,41.8,92.8,41.8,92.8,41.8c-3.8,0-7.4-1.5-10.1-4.2c-2.7-2.7-4.2-6.3-4.2-10.1
			c0-7.8,6.4-14.2,14.2-14.2c0,0,0,0,0,0c7.8,0,14.2,6.4,14.2,14.3c0,0,0,0,0,0C107,35.5,100.7,41.8,92.8,41.8z M92.8,14.1
			c-7.4,0-13.5,6-13.5,13.5c0,3.6,1.4,7,3.9,9.5c2.5,2.6,5.9,4,9.5,4c0,0,0,0,0,0c7.4,0,13.5-6,13.5-13.5
			C106.3,20.2,100.3,14.1,92.8,14.1C92.8,14.1,92.8,14.1,92.8,14.1z M106.7,27.6L106.7,27.6L106.7,27.6z M92.8,39
			c-6.2,0-11.3-5.1-11.4-11.3c0-6.3,5.1-11.4,11.3-11.4c3,0,5.9,1.2,8,3.3c2.2,2.1,3.3,5,3.4,8v0v0c0,3-1.2,5.9-3.3,8
			C98.7,37.8,95.9,39,92.8,39z M92.8,17C92.8,17,92.8,17,92.8,17c-5.9,0-10.6,4.8-10.6,10.7c0,5.8,4.8,10.6,10.6,10.6
			c2.8,0,5.5-1.1,7.5-3.1c2-2,3.1-4.7,3.1-7.5l0.4,0l-0.4,0c0-2.8-1.1-5.5-3.1-7.5C98.3,18.1,95.7,17,92.8,17z"/>
	</g>
	<g>
		<path class="st1" d="M129.7,13.7h2.9v28h-2.3l-17.5-22.4v22.4h-2.9v-28h2.3l17.5,22.4V13.7z"/>
		<path class="st1" d="M132.6,42h-2.3c-0.1,0-0.2-0.1-0.3-0.1l-16.8-21.6v21.3c0,0.2-0.2,0.4-0.4,0.4h-2.9c-0.2,0-0.4-0.2-0.4-0.4
			v-28c0-0.2,0.2-0.4,0.4-0.4h2.3c0.1,0,0.2,0.1,0.3,0.1L129.3,35V13.7c0-0.2,0.2-0.4,0.4-0.4h2.9c0.2,0,0.4,0.2,0.4,0.4v28
			C133,41.9,132.8,42,132.6,42z M130.4,41.3h1.8V14.1h-2.2v22c0,0.2-0.1,0.3-0.3,0.4c-0.2,0.1-0.3,0-0.4-0.1L112,14.1h-1.8v27.2h2.2
			v-22c0-0.2,0.1-0.3,0.3-0.4c0.1-0.1,0.3,0,0.4,0.1L130.4,41.3z"/>
	</g>
	<g>
		<path class="st1" d="M135.7,13.7h18.4v2.9h-15.5v9.6H150v2.9h-11.3v9.6h15.5v2.9h-18.4V13.7z"/>
		<path class="st1" d="M154.2,42h-18.4c-0.2,0-0.4-0.2-0.4-0.4v-28c0-0.2,0.2-0.4,0.4-0.4h18.4c0.2,0,0.4,0.2,0.4,0.4v2.9
			c0,0.2-0.2,0.4-0.4,0.4H139v8.8H150c0.2,0,0.4,0.2,0.4,0.4v2.9c0,0.2-0.2,0.4-0.4,0.4H139v8.8h15.1c0.2,0,0.4,0.2,0.4,0.4v2.9
			C154.5,41.9,154.4,42,154.2,42z M136.1,41.3h17.7v-2.2h-15.1c-0.2,0-0.4-0.2-0.4-0.4v-9.6c0-0.2,0.2-0.4,0.4-0.4h10.9v-2.2h-10.9
			c-0.2,0-0.4-0.2-0.4-0.4v-9.6c0-0.2,0.2-0.4,0.4-0.4h15.1v-2.2h-17.7V41.3z"/>
	</g>
	<g>
		<path class="st1" d="M176.6,34c0,4.3-4.1,7.7-9,7.7h-2.4c-5,0-9-3.4-9-7.7v-0.2l0-1.1h3.1l0,1.3c-0.1,2.6,2.7,4.8,6,4.8h2.4
			c3.3,0,6-2.2,6-4.8c0-2.7-2.7-4.8-6-4.8h-1.1c-1.7,0-3.4-0.3-4.9-1c-3.1-1.8-4.6-4-4.6-6.8c0-4.2,4.1-7.7,9-7.7h0.7
			c4.8,0,8.8,3.2,9,7.3l0.1,1.2h-3.1l-0.1-1.1c-0.2-2.5-2.8-4.5-6-4.5H166c-3.3,0-5.9,2.2-5.9,4.8c0,2.6,2.5,4.7,5.6,4.8h1.4v0
			c0.7,0,1.4,0,2,0.1h0.1C173.3,26.7,176.4,29.9,176.6,34z"/>
		<path class="st1" d="M167.6,42h-2.4c-5.2,0-9.4-3.6-9.4-8.1l0-1.3c0-0.2,0.2-0.4,0.4-0.4h3.1c0.1,0,0.2,0,0.3,0.1
			c0.1,0.1,0.1,0.2,0.1,0.3l0,1.3c0,0.9,0.4,1.9,1.1,2.6c1.1,1.1,2.8,1.8,4.5,1.8h2.4c3.1,0,5.6-2,5.6-4.4c0-2.4-2.5-4.4-5.6-4.4
			h-1.1c-1.8,0-3.5-0.3-5.1-1c-3.2-1.9-4.8-4.2-4.8-7.1c0-4.5,4.2-8.1,9.4-8.1h0.7c5,0,9.2,3.4,9.4,7.7l0.1,1.2c0,0.1,0,0.2-0.1,0.3
			c-0.1,0.1-0.2,0.1-0.3,0.1h-3.1c-0.2,0-0.4-0.2-0.4-0.3l-0.1-1.1c-0.2-2.3-2.6-4.1-5.6-4.1H166c-3.1,0-5.6,2-5.6,4.4
			c0,2.4,2.4,4.4,5.3,4.4h1.4c0.1,0,0.1,0,0.2,0c0.7,0,1.3,0,1.9,0.1l0.1,0c4.2,0.3,7.5,3.8,7.7,7.9c0,0,0,0,0,0
			C177,38.4,172.8,42,167.6,42z M156.6,33.1l0,0.7l0,0.1c0,4,3.9,7.3,8.7,7.3h2.4c4.8,0,8.7-3.3,8.7-7.3c-0.2-3.8-3.2-6.9-7-7.2
			l-0.1,0c-0.7-0.1-1.4-0.1-2-0.1c-0.1,0-0.1,0-0.2,0h-1.3c-3.3-0.1-6-2.4-6-5.2c0-2.8,2.8-5.1,6.3-5.1h0.7c3.4,0,6.1,2.1,6.4,4.8
			l0.1,0.7h2.3l-0.1-0.8c-0.2-3.9-4-7-8.7-7H166c-4.8,0-8.7,3.3-8.7,7.3c0,2.7,1.4,4.7,4.4,6.4c1.5,0.6,3.1,0.9,4.7,0.9h1.1
			c3.5,0,6.4,2.3,6.4,5.2c0,2.8-2.9,5.1-6.4,5.1h-2.4c-2,0-3.8-0.7-5-2c-0.9-0.9-1.3-2-1.3-3.2l0-0.9H156.6z"/>
	</g>
	<g>
		<path class="st1" d="M202.6,27.7c0,7.7-6.2,14-14,14c0,0,0,0,0,0h-8.9v-28h8.9C196.4,13.7,202.6,19.9,202.6,27.7z M199.7,27.7
			c0-6.1-5-11.1-11.1-11.1h-6v22.2h6C194.8,38.7,199.7,33.8,199.7,27.7z"/>
		<path class="st1" d="M188.7,42h-8.9c-0.2,0-0.4-0.2-0.4-0.4v-28c0-0.2,0.2-0.4,0.4-0.4h8.9c7.9,0,14.3,6.4,14.3,14.3v0
			C203,35.6,196.6,42,188.7,42z M180.1,41.3h8.5c7.5,0,13.6-6.1,13.6-13.6c0,0,0,0,0,0c0-7.5-6.1-13.6-13.6-13.6h-8.5V41.3z
			 M188.6,39.1h-6c-0.2,0-0.4-0.2-0.4-0.4V16.6c0-0.2,0.2-0.4,0.4-0.4h6c6.3,0,11.4,5.1,11.4,11.4C200.1,34,195,39.1,188.6,39.1z
			 M183,38.4h5.6c5.9,0,10.7-4.8,10.7-10.7c0-5.9-4.8-10.7-10.7-10.7H183V38.4z"/>
	</g>
	<g>
		<path class="st1" d="M205.7,13.7h18.4v2.9h-15.5v9.6H220v2.9h-11.3v9.6h15.5v2.9h-18.4V13.7z"/>
		<path class="st1" d="M224.2,42h-18.4c-0.2,0-0.4-0.2-0.4-0.4v-28c0-0.2,0.2-0.4,0.4-0.4h18.4c0.2,0,0.4,0.2,0.4,0.4v2.9
			c0,0.2-0.2,0.4-0.4,0.4H209v8.8H220c0.2,0,0.4,0.2,0.4,0.4v2.9c0,0.2-0.2,0.4-0.4,0.4H209v8.8h15.1c0.2,0,0.4,0.2,0.4,0.4v2.9
			C224.5,41.9,224.4,42,224.2,42z M206.1,41.3h17.7v-2.2h-15.1c-0.2,0-0.4-0.2-0.4-0.4v-9.6c0-0.2,0.2-0.4,0.4-0.4h10.9v-2.2h-10.9
			c-0.2,0-0.4-0.2-0.4-0.4v-9.6c0-0.2,0.2-0.4,0.4-0.4h15.1v-2.2h-17.7V41.3z"/>
	</g>
	<g>
		<path class="st1" d="M241.8,13.7l12.3,28h-3.2l-3.8-8.6h-12.9l-3.8,8.6h-3.2l12.3-28H241.8z M245.8,30.1l-5.1-11.7l-5.2,11.7
			H245.8z"/>
		<path class="st1" d="M254.1,42h-3.2c-0.1,0-0.3-0.1-0.3-0.2l-3.7-8.4h-12.4l-3.7,8.4c-0.1,0.1-0.2,0.2-0.3,0.2h-3.2
			c-0.1,0-0.2-0.1-0.3-0.2c-0.1-0.1-0.1-0.2,0-0.4l12.3-28c0.1-0.1,0.2-0.2,0.3-0.2h2.2c0.1,0,0.3,0.1,0.3,0.2l12.3,28
			c0.1,0.1,0,0.2,0,0.4C254.3,42,254.2,42,254.1,42z M251.1,41.3h2.3l-11.9-27.2h-1.7l-12,27.2h2.3l3.7-8.4c0.1-0.1,0.2-0.2,0.3-0.2
			h12.9c0.1,0,0.3,0.1,0.3,0.2L251.1,41.3z M245.8,30.5h-10.3c-0.1,0-0.2-0.1-0.3-0.2c-0.1-0.1-0.1-0.2,0-0.4l5.2-11.7
			c0.1-0.1,0.2-0.2,0.3-0.2c0,0,0,0,0,0c0.1,0,0.3,0.1,0.3,0.2l5.1,11.7c0.1,0.1,0,0.2,0,0.4C246.1,30.4,245.9,30.5,245.8,30.5z
			 M236.1,29.7h9.1l-4.5-10.4L236.1,29.7z"/>
	</g>
	<g>
		<path class="st1" d="M263,28.2v13.5H260V28.2l-10.6-14.5h3.6l8.4,11.5l8.4-11.5h3.6L263,28.2z"/>
		<path class="st1" d="M263,42H260c-0.2,0-0.4-0.2-0.4-0.4V28.3l-10.5-14.4c-0.1-0.1-0.1-0.3,0-0.4c0.1-0.1,0.2-0.2,0.3-0.2h3.6
			c0.1,0,0.2,0.1,0.3,0.2l8.1,11.1l8.1-11.1c0.1-0.1,0.2-0.2,0.3-0.2h3.6c0.1,0,0.3,0.1,0.3,0.2c0.1,0.1,0.1,0.3,0,0.4l-10.5,14.4
			v13.4C263.3,41.9,263.2,42,263,42z M260.4,41.3h2.2V28.2c0-0.1,0-0.2,0.1-0.2l10.2-13.9h-2.7l-8.3,11.4c-0.1,0.1-0.2,0.2-0.3,0.2
			l0,0c-0.1,0-0.2-0.1-0.3-0.2l-8.3-11.4h-2.7l10.2,13.9c0,0.1,0.1,0.1,0.1,0.2V41.3z"/>
	</g>
	<g>
		<path class="st1" d="M295.8,13.7h2.9v17c0,6.1-5,11-11,11c-5.6,0-10.4-4.3-10.9-9.9h0V13.7h2.9v17.1c0.1,4.5,3.7,8,8.2,8
			c4.4-0.1,7.9-3.6,8-7.9V13.7z"/>
		<path class="st1" d="M287.7,42C287.7,42,287.7,42,287.7,42c-5.8,0-10.7-4.3-11.3-10.1c0-0.1-0.1-0.1-0.1-0.2V13.7
			c0-0.2,0.2-0.4,0.4-0.4h2.9c0.2,0,0.4,0.2,0.4,0.4v17.1c0,2.1,0.9,4,2.3,5.4c1.5,1.4,3.4,2.2,5.5,2.2c4.2-0.1,7.5-3.4,7.6-7.6
			V13.7c0-0.2,0.2-0.4,0.4-0.4h2.9c0.2,0,0.4,0.2,0.4,0.4v17C299.1,36.9,293.9,42,287.7,42z M277.1,31.6c0,0,0,0.1,0,0.1
			c0.6,5.4,5.1,9.5,10.6,9.6c0,0,0,0,0,0c2.8,0,5.5-1.1,7.5-3.1c2-2,3.1-4.7,3.1-7.5V14.1h-2.1v16.8c-0.1,4.6-3.8,8.2-8.3,8.3
			c-2.2,0-4.4-0.8-6-2.4c-1.6-1.6-2.5-3.7-2.6-6V14.1h-2.2V31.6z"/>
	</g>
	<g>
		<path class="st1" d="M324.7,27.7c0,7.7-6.2,14-14,14c0,0,0,0,0,0h-8.9v-28h8.9C318.4,13.7,324.7,19.9,324.7,27.7z M321.8,27.7
			c0-6.1-5-11.1-11.1-11.1h-6v22.2h6C316.9,38.7,321.8,33.8,321.8,27.7z"/>
		<path class="st1" d="M310.7,42h-8.9c-0.2,0-0.4-0.2-0.4-0.4v-28c0-0.2,0.2-0.4,0.4-0.4h8.9c7.9,0,14.3,6.4,14.3,14.3v0
			c0,3.8-1.5,7.4-4.2,10.2S314.6,42,310.7,42z M302.2,41.3h8.5c3.6,0,7.1-1.4,9.6-4c2.6-2.6,4-6,4-9.6c0,0,0,0,0,0
			c0-7.5-6.1-13.6-13.6-13.6h-8.5V41.3z M310.7,39.1h-6c-0.2,0-0.4-0.2-0.4-0.4V16.6c0-0.2,0.2-0.4,0.4-0.4h6
			c6.3,0,11.4,5.1,11.4,11.4v0C322.2,34,317.1,39.1,310.7,39.1z M305.1,38.4h5.6c5.9,0,10.7-4.8,10.7-10.7c0,0,0,0,0,0
			c0-5.9-4.8-10.7-10.7-10.7h-5.6V38.4z"/>
	</g>
	<g>
		<path class="st1" d="M338.5,13.7l12.3,28h-3.2l-3.8-8.6h-12.9l-3.8,8.6H324l12.3-28H338.5z M342.5,30.1l-5.1-11.7l-5.2,11.7H342.5
			z"/>
		<path class="st1" d="M350.7,42h-3.2c-0.1,0-0.3-0.1-0.3-0.2l-3.7-8.4h-12.4l-3.7,8.4c-0.1,0.1-0.2,0.2-0.3,0.2H324
			c-0.1,0-0.2-0.1-0.3-0.2c-0.1-0.1-0.1-0.2,0-0.4l12.3-28c0.1-0.1,0.2-0.2,0.3-0.2h2.2c0.1,0,0.3,0.1,0.3,0.2l12.3,28
			c0.1,0.1,0,0.2,0,0.4C351,42,350.9,42,350.7,42z M347.8,41.3h2.3l-11.9-27.2h-1.7l-12,27.2h2.3l3.7-8.4c0.1-0.1,0.2-0.2,0.3-0.2
			h12.9c0.1,0,0.3,0.1,0.3,0.2L347.8,41.3z M342.5,30.5h-10.3c-0.1,0-0.2-0.1-0.3-0.2c-0.1-0.1-0.1-0.2,0-0.4l5.2-11.7
			c0.1-0.1,0.2-0.2,0.3-0.2c0,0,0,0,0,0c0.1,0,0.3,0.1,0.3,0.2l5.1,11.7c0.1,0.1,0,0.2,0,0.4C342.7,30.4,342.6,30.5,342.5,30.5z
			 M332.8,29.7h9.1l-4.5-10.4L332.8,29.7z"/>
	</g>
	<g>
		<path class="st1" d="M44.8,12.6c-8.3,0-15,4.8-15,10.7v7.2c0,5.9,6.7,10.7,15,10.7s15-4.8,15-10.7v-7.2
			C59.8,17.4,53.1,12.6,44.8,12.6z M44.8,15.1c6.9,0,12.5,3.7,12.5,8.3s-5.6,8.3-12.5,8.3s-12.5-3.7-12.5-8.3S37.9,15.1,44.8,15.1
			L44.8,15.1z M57.4,30.5c0,4.6-5.6,8.3-12.5,8.3s-12.5-3.7-12.5-8.3v-1.4c3.3,3.3,7.9,5,12.5,4.9c5.2,0,9.9-1.9,12.5-4.9V30.5z"/>
		<path class="st1" d="M44.8,41.5c-8.5,0-15.4-5-15.4-11v-7.2c0-6.1,6.9-11,15.4-11c8.5,0,15.4,5,15.4,11v7.2
			C60.2,36.6,53.3,41.5,44.8,41.5z M44.8,13c-8.1,0-14.6,4.6-14.6,10.3v7.2c0,5.7,6.6,10.3,14.6,10.3c8.1,0,14.6-4.6,14.6-10.3v-7.2
			C59.4,17.6,52.9,13,44.8,13z M44.8,39.1c-7.1,0-12.9-3.9-12.9-8.6v-1.4c0-0.2,0.1-0.3,0.2-0.3c0.1-0.1,0.3,0,0.4,0.1
			c3.3,3.2,7.7,4.9,12.3,4.8c5,0,9.6-1.8,12.3-4.7c0.1-0.1,0.3-0.2,0.4-0.1c0.1,0.1,0.2,0.2,0.2,0.3v1.4
			C57.7,35.3,51.9,39.1,44.8,39.1z M32.6,30v0.5c0,4.3,5.5,7.9,12.2,7.9c6.7,0,12.2-3.5,12.2-7.9v-0.4c-2.9,2.7-7.3,4.3-12.2,4.3
			C40.4,34.5,36,32.9,32.6,30z M44.8,32c-7.1,0-12.9-3.9-12.9-8.7c0-4.8,5.8-8.6,12.9-8.6c0,0,0.1,0,0.1,0c7.1,0,12.8,3.9,12.8,8.6
			C57.7,28.1,51.9,32,44.8,32z M44.7,15.4c-6.7,0-12,3.6-12,7.9c0,4.4,5.5,7.9,12.2,7.9c6.7,0,12.2-3.5,12.2-7.9
			c0-4.3-5.5-7.9-12.2-7.9C44.8,15.5,44.7,15.5,44.7,15.4z"/>
	</g>
	<g>
		<path class="st1" d="M37.5,24.7c-0.7-0.1-1.3,0.4-1.3,1.1c-0.1,0.7,0.4,1.3,1.1,1.3c0,0,0,0,0.1,0c0.1,0,0.1,0,0.2,0H39v0.9
			c0,0.7,0.6,1.2,1.2,1.2c0.6,0,1.2-0.5,1.2-1.2v-0.9h6.7V28c0,0.7,0.6,1.2,1.2,1.2c0.6,0,1.2-0.5,1.2-1.2v-0.9h1.5
			c0.7,0.1,1.3-0.4,1.3-1.1c0.1-0.7-0.4-1.3-1.1-1.3c0,0,0,0-0.1,0c-0.1,0-0.1,0-0.2,0h-1.5v-3.4h1.5c0.7,0,1.2-0.6,1.2-1.3
			c0-0.6-0.5-1.2-1.2-1.2h-1.5v-0.7c0-0.7-0.6-1.2-1.3-1.2c-0.6,0-1.2,0.5-1.2,1.2l0,0v0.7h-6.7v-0.7c0-0.7-0.6-1.2-1.3-1.2
			c-0.6,0-1.2,0.5-1.2,1.2v0.7h-1.5c-0.7,0-1.2,0.6-1.2,1.3c0,0.6,0.5,1.2,1.2,1.2H39v3.4L37.5,24.7z M41.5,21.3h6.7v3.4h-6.7V21.3z
			"/>
		<path class="st1" d="M40.2,29.6c-0.4,0-0.8-0.2-1.1-0.4c-0.3-0.3-0.5-0.7-0.5-1.1v-0.5h-1.1c-0.1,0-0.1,0-0.2,0
			c-0.5,0-0.9-0.3-1.1-0.6c-0.3-0.3-0.4-0.7-0.3-1.2c0-0.4,0.3-0.8,0.6-1.1c0.3-0.3,0.7-0.4,1.1-0.3h1.1v-2.7h-1.1
			c-0.9,0-1.5-0.7-1.6-1.6c0-0.9,0.7-1.6,1.6-1.6h1.1v-0.3c0-0.9,0.7-1.5,1.6-1.6c0.4,0,0.8,0.1,1.1,0.4c0.3,0.3,0.5,0.7,0.5,1.1
			v0.3h6v-0.3c0-0.9,0.7-1.5,1.6-1.6c0.4,0,0.8,0.1,1.1,0.4c0.3,0.3,0.5,0.7,0.5,1.1v0.3h1.1c0.9,0,1.5,0.7,1.6,1.6
			c0,0.9-0.7,1.6-1.6,1.6H51v2.7h1.1c0.1,0,0.1,0,0.2,0c0.9,0.1,1.6,0.9,1.5,1.8c0,0.4-0.3,0.8-0.6,1.1c-0.3,0.3-0.7,0.4-1.2,0.3
			l-1.1,0V28c0,0.9-0.7,1.5-1.6,1.6c-0.9,0-1.6-0.7-1.6-1.6v-0.5h-6v0.6C41.8,28.9,41.1,29.6,40.2,29.6
			C40.3,29.6,40.2,29.6,40.2,29.6z M39,26.8c0.2,0,0.4,0.2,0.4,0.4v0.9c0,0.2,0.1,0.4,0.3,0.6c0.2,0.2,0.4,0.2,0.6,0.2
			c0.5,0,0.8-0.4,0.8-0.8v-0.9c0-0.2,0.2-0.4,0.4-0.4h6.7c0.2,0,0.4,0.2,0.4,0.4V28c0,0.5,0.4,0.8,0.9,0.8c0.4,0,0.8-0.4,0.8-0.8
			v-0.9c0-0.2,0.2-0.4,0.4-0.4h1.5c0.3,0,0.5,0,0.7-0.2s0.3-0.3,0.3-0.6c0-0.5-0.3-0.9-0.8-0.9c-0.1,0-0.1,0-0.2,0l-1.6,0
			c-0.2,0-0.4-0.2-0.4-0.4v-3.4c0-0.2,0.2-0.4,0.4-0.4h1.5c0.5,0,0.8-0.4,0.8-0.9c0-0.4-0.4-0.8-0.8-0.8h-1.5
			c-0.2,0-0.4-0.2-0.4-0.4v-0.7c0-0.2-0.1-0.4-0.3-0.6c-0.2-0.2-0.4-0.3-0.6-0.2c-0.4,0-0.8,0.4-0.8,0.8v0.7c0,0.2-0.2,0.4-0.4,0.4
			h-6.7c-0.2,0-0.4-0.2-0.4-0.4v-0.7c0-0.2-0.1-0.4-0.3-0.6c-0.2-0.2-0.4-0.2-0.6-0.2c-0.4,0-0.8,0.4-0.8,0.8v0.7
			c0,0.2-0.2,0.4-0.4,0.4h-1.5c-0.5,0-0.8,0.4-0.8,0.9c0,0.4,0.4,0.8,0.8,0.8H39c0.2,0,0.4,0.2,0.4,0.4v3.4c0,0.2-0.2,0.4-0.4,0.4
			h-1.5c0,0,0,0,0,0c-0.2,0-0.4,0-0.6,0.2c-0.2,0.1-0.3,0.3-0.3,0.6c0,0.2,0,0.4,0.2,0.6c0.1,0.2,0.3,0.3,0.6,0.3c0.1,0,0.1,0,0.2,0
			L39,26.8z M48.2,25.1h-6.7c-0.2,0-0.4-0.2-0.4-0.4v-3.4c0-0.2,0.2-0.4,0.4-0.4h6.7c0.2,0,0.4,0.2,0.4,0.4v3.4
			C48.6,24.9,48.4,25.1,48.2,25.1z M41.8,24.3h6v-2.7h-6V24.3z"/>
	</g>
</g>
</svg>
