<?xml version="1.0" encoding="utf-8"?>
<!-- Generator: Adobe Illustrator 23.0.1, SVG Export Plug-In . SVG Version: 6.00 Build 0)  -->
<svg version="1.1" id="Capa_1" xmlns="http://www.w3.org/2000/svg" xmlns:xlink="http://www.w3.org/1999/xlink" x="0px" y="0px"
	 viewBox="0 0 361 54.3" style="enable-background:new 0 0 361 54.3;" xml:space="preserve">
<style type="text/css">
	.st0{fill:#3F3F3F;}
	.st1{fill:none;}
	.st2{font-family:'Adlinnaka-BoldDemo';}
	.st3{font-size:12px;}
	.st4{fill:#3E3E3E;}
</style>
<g>
	<path class="st0" d="M39.6,2.3v36.2h-1V20.9H12.1v17.6l-1,0.2V2.3h1v17.6h26.6V2.3H39.6z"/>
	<path class="st0" d="M11.1,39.8c-0.6,0-1.1-0.5-1.1-1.2V2.3c0-0.7,0.5-1.2,1.2-1.2l0,0h1c0.7,0,1.2,0.5,1.2,1.2v0v16.4h24.1V2.3
		c0-0.7,0.5-1.2,1.2-1.2l0,0h1c0.7,0,1.2,0.5,1.2,1.2v0v36.2c0,0.7-0.5,1.2-1.2,1.2l0,0h-1c-0.7,0-1.2-0.5-1.2-1.2l0,0V22.1H13.3
		v16.4c0,0.6-0.4,1.1-1,1.2l-1,0.2L11.1,39.8z"/>
	<path class="st0" d="M45.7,3.3v16.6h15.9v1H45.7v16.6h21.8v1H44.7V2.3h22.8v1L45.7,3.3z"/>
	<path class="st0" d="M67.5,39.7H44.7c-0.7,0-1.2-0.5-1.2-1.2l0,0V2.3c0-0.7,0.5-1.2,1.2-1.2l0,0h22.8c0.7,0,1.2,0.5,1.2,1.2v0v1
		c0,0.7-0.5,1.2-1.2,1.2l0,0H46.8v14.2h14.8c0.7,0,1.2,0.5,1.2,1.2l0,0v1c0,0.7-0.5,1.2-1.2,1.2c0,0,0,0,0,0H46.8v14.2h20.6
		c0.7,0,1.2,0.5,1.2,1.2l0,0v1C68.6,39.2,68.1,39.7,67.5,39.7z"/>
	<path class="st0" d="M95.4,37.5v1H72.5V2.3h1v35.2H95.4z"/>
	<path class="st0" d="M95.4,39.7H72.5c-0.6,0-1.2-0.5-1.2-1.2c0,0,0,0,0,0V2.3c0-0.6,0.5-1.2,1.2-1.2c0,0,0,0,0,0h1
		c0.7,0,1.2,0.5,1.2,1.2v0v34h20.8c0.7,0,1.2,0.5,1.2,1.2l0,0v1C96.6,39.2,96.1,39.7,95.4,39.7z"/>
	<path class="st0" d="M100.5,38.5V2.3h14.6c2.5,0,4.8,1,6.5,2.7c0.8,0.9,1.5,1.9,2,3c0.5,1.1,0.7,2.4,0.7,3.6c0,1.2-0.2,2.5-0.7,3.6
		c-0.5,1.1-1.2,2.1-2,2.9c-0.8,0.9-1.8,1.5-2.9,2c-1.1,0.5-2.4,0.7-3.6,0.7h-13.6v17.6H100.5z M101.5,19.9h13.6
		c1.1,0,2.2-0.2,3.2-0.6c1-0.4,1.9-1,2.6-1.8c0.7-0.8,1.3-1.7,1.8-2.6c0.4-1,0.7-2.1,0.7-3.2c0-1.1-0.2-2.2-0.7-3.2
		c-0.4-1-1-1.9-1.8-2.7c-0.7-0.8-1.6-1.4-2.6-1.8c-1-0.4-2.1-0.7-3.2-0.7h-13.6L101.5,19.9z"/>
	<path class="st0" d="M101.5,39.7h-1c-0.7,0-1.2-0.5-1.2-1.2l0,0V2.3c0-0.7,0.5-1.2,1.2-1.2l0,0h14.6c1.4,0,2.8,0.3,4.1,0.8
		c1.2,0.5,2.4,1.3,3.3,2.3c0.9,1,1.7,2.1,2.2,3.3c0.6,1.3,0.8,2.7,0.8,4.1c0,1.4-0.3,2.8-0.8,4.1c-0.5,1.2-1.3,2.4-2.2,3.3
		c-1,0.9-2.1,1.7-3.3,2.2c-1.3,0.6-2.7,0.8-4.1,0.8h-12.4v16.4C102.7,39.1,102.1,39.7,101.5,39.7C101.5,39.7,101.5,39.7,101.5,39.7z
		 M102.7,18.7h12.4c0.9,0,1.9-0.2,2.7-0.6c0.8-0.4,1.6-0.9,2.2-1.5c0.6-0.7,1.2-1.4,1.5-2.3c0.4-0.9,0.6-1.8,0.6-2.7
		c0-1-0.2-1.9-0.6-2.8c-0.4-0.9-0.9-1.6-1.5-2.3c-0.6-0.6-1.4-1.2-2.2-1.6c-0.9-0.4-1.8-0.6-2.7-0.6h-12.4V18.7z"/>
	<path class="st0" d="M146.2,20.1c1,0.2,2,0.6,2.9,1.1c0.9,0.6,1.7,1.2,2.4,2c0.7,0.8,1.2,1.7,1.6,2.7c0.4,1,0.6,2.1,0.6,3.2
		c0,1.2-0.2,2.5-0.7,3.6c-0.5,1.1-1.1,2.1-2,2.9c-0.8,0.8-1.8,1.5-2.9,2c-1.1,0.5-2.4,0.7-3.6,0.7h-14.9V2.3h13c2.5,0,4.8,1,6.6,2.7
		c0.8,0.9,1.5,1.9,2,3c0.5,1.1,0.7,2.4,0.7,3.6c0,1.8-0.5,3.6-1.5,5.1C149.2,18.2,147.8,19.4,146.2,20.1z M130.4,19.9h12
		c1.1,0,2.2-0.2,3.2-0.6c1-0.4,1.9-1,2.6-1.8c0.8-0.8,1.4-1.7,1.8-2.6c0.4-1,0.7-2.1,0.7-3.2c0-1.1-0.2-2.2-0.7-3.2
		c-0.4-1-1-1.9-1.8-2.7c-0.7-0.8-1.6-1.4-2.6-1.8c-1-0.4-2.1-0.7-3.2-0.7h-12L130.4,19.9z M147.6,36.9c1-0.4,1.9-1,2.6-1.8
		c0.8-0.8,1.4-1.7,1.8-2.7c0.4-1,0.7-2.1,0.6-3.2c0-1.1-0.2-2.2-0.6-3.2c-0.4-1-1-1.9-1.8-2.7c-0.8-0.8-1.7-1.4-2.6-1.8
		c-1-0.4-2.1-0.7-3.2-0.7h-14v16.7h14C145.5,37.5,146.6,37.3,147.6,36.9L147.6,36.9z"/>
	<path class="st0" d="M144.3,39.7h-14.9c-0.7,0-1.2-0.5-1.2-1.2V2.3c0-0.7,0.5-1.2,1.2-1.2h13c2.8,0,5.5,1.1,7.4,3.1
		c0.9,1,1.7,2.1,2.2,3.3c0.6,1.3,0.8,2.7,0.8,4.1c0,2.1-0.6,4.1-1.7,5.8c-0.6,0.9-1.3,1.7-2.2,2.4c0.3,0.1,0.5,0.3,0.8,0.4
		c1,0.6,1.9,1.4,2.7,2.3c0.8,0.9,1.4,2,1.8,3.1c0.4,1.2,0.6,2.4,0.6,3.6c0,1.4-0.3,2.8-0.8,4.1c-1.1,2.5-3,4.5-5.5,5.5
		C147.1,39.4,145.7,39.7,144.3,39.7z M131.6,36.4h12.8c1,0,1.9-0.2,2.8-0.6c0.8-0.4,1.6-0.9,2.3-1.5c0.6-0.7,1.2-1.4,1.5-2.3
		c0.4-0.9,0.6-1.8,0.6-2.7c0-1-0.2-1.9-0.6-2.8c-0.4-0.9-0.9-1.6-1.5-2.3c-0.6-0.7-1.4-1.2-2.3-1.5c-0.9-0.4-1.8-0.6-2.8-0.6h-12.8
		V36.4z M131.6,18.7h10.9c0.9,0,1.9-0.2,2.7-0.6c0.8-0.4,1.6-0.9,2.2-1.5c0.6-0.7,1.2-1.4,1.5-2.3c0.4-0.9,0.6-1.8,0.6-2.7
		c0-1-0.2-1.9-0.6-2.8c-0.4-0.9-0.9-1.6-1.5-2.3c-0.6-0.7-1.4-1.2-2.2-1.6c-0.9-0.4-1.8-0.6-2.7-0.6h-10.9V18.7z"/>
	<path class="st0" d="M186.5,2.3v22.3c0,1.9-0.4,3.7-1.1,5.4c-0.7,1.7-1.7,3.2-3,4.4c-1.3,1.3-2.8,2.3-4.4,3
		c-3.5,1.5-7.4,1.5-10.8,0c-3.3-1.4-6-4.1-7.4-7.4c-0.7-1.7-1.1-3.6-1.1-5.4V2.3h1v22.3c0,1.7,0.3,3.4,1,5c0.7,1.5,1.6,2.9,2.8,4.1
		c1.2,1.2,2.6,2.1,4.1,2.8c3.2,1.3,6.8,1.3,10.1,0c1.5-0.7,2.9-1.6,4.1-2.8c1.2-1.2,2.1-2.6,2.8-4.1c0.7-1.6,1-3.3,1-5l0,0V2.3
		H186.5z"/>
	<path class="st0" d="M172.6,39.7c-2,0-4-0.4-5.9-1.2c-1.8-0.8-3.4-1.9-4.8-3.2c-1.4-1.4-2.5-3-3.2-4.8c-0.8-1.9-1.2-3.9-1.2-5.9
		V2.3c0-0.7,0.5-1.2,1.2-1.2h1c0.7,0,1.2,0.5,1.2,1.2v22.3c0,1.6,0.3,3.1,0.9,4.6c0.6,1.4,1.5,2.7,2.5,3.8c3.4,3.4,8.5,4.4,12.9,2.5
		c2.8-1.2,5.1-3.5,6.3-6.3c0.6-1.4,0.9-2.8,0.9-4.3c0-0.1,0-0.2-0.1-0.3V2.3c0-0.7,0.5-1.2,1.2-1.2h1c0.7,0,1.2,0.5,1.2,1.2v22.3
		c0,2-0.4,4-1.2,5.9c-0.8,1.8-1.9,3.4-3.2,4.8c-1.4,1.4-3,2.5-4.8,3.2C176.6,39.3,174.6,39.7,172.6,39.7z"/>
	<path class="st0" d="M217.8,3.3h-12.6v35.2h-1V3.3h-12.6v-1h26.2L217.8,3.3z"/>
	<path class="st0" d="M205.1,39.7h-1c-0.6,0-1.1-0.5-1.1-1.2v-34h-11.4c-0.6,0-1.2-0.5-1.2-1.2c0,0,0,0,0,0v-1
		c0-0.7,0.5-1.2,1.2-1.2h26.2c0.7,0,1.2,0.5,1.2,1.1c0,0,0,0,0,0v1c0,0.7-0.5,1.2-1.2,1.2h-11.5v34
		C206.3,39.2,205.8,39.7,205.1,39.7z"/>
	<path class="st0" d="M249.1,3.3h-12.7v35.2h-1V3.3h-12.6v-1h26.2V3.3z"/>
	<path class="st0" d="M236.4,39.7h-1c-0.7,0-1.2-0.5-1.2-1.2v-34h-11.4c-0.7,0-1.2-0.5-1.2-1.2v-1c0-0.7,0.5-1.2,1.2-1.2h26.2
		c0.7,0,1.2,0.5,1.2,1.2v1c0,0.7-0.5,1.2-1.2,1.2h-11.5v34C237.6,39.2,237.1,39.7,236.4,39.7C236.4,39.7,236.4,39.7,236.4,39.7z"/>
	<path class="st0" d="M319.3,2.3v36.2h-1L291.3,4v34.5h-1V2.3h1l27,34.5V2.3H319.3z"/>
	<path class="st0" d="M319.3,39.7h-1c-0.4,0-0.7-0.2-0.9-0.5L292.5,7.5v31c0,0.7-0.5,1.2-1.2,1.2h-1c-0.7,0-1.2-0.5-1.2-1.2V2.3
		c0-0.7,0.5-1.2,1.2-1.2h1c0.4,0,0.7,0.2,0.9,0.4l24.9,31.8V2.3c0-0.7,0.5-1.2,1.2-1.2h1c0.7,0,1.2,0.5,1.2,1.2v36.2
		C320.4,39.1,319.9,39.7,319.3,39.7z"/>
	<path class="st0" d="M340.9,20.1c1.2,0.2,2.4,0.6,3.6,1.1c1,0.5,2,1.2,2.8,2c0.8,0.8,1.4,1.8,1.9,2.8c0.5,1,0.7,2.1,0.7,3.3
		c0,1.3-0.3,2.5-0.9,3.6c-0.6,1.1-1.4,2.1-2.4,2.9c-1.1,0.9-2.3,1.5-3.5,2c-1.4,0.5-2.9,0.7-4.3,0.7h-3.3c-1.5,0-2.9-0.2-4.3-0.7
		c-1.3-0.5-2.5-1.1-3.5-2c-1-0.8-1.8-1.8-2.4-2.9c-0.6-1.1-0.9-2.4-0.9-3.6V29h1.2v0.2c0,1.1,0.3,2.2,0.8,3.2c0.5,1,1.3,1.9,2.1,2.6
		c0.9,0.8,2,1.4,3.2,1.8c1.2,0.4,2.5,0.7,3.9,0.7h3.3c1.3,0,2.6-0.2,3.9-0.7c1.2-0.4,2.2-1,3.2-1.8c0.9-0.7,1.6-1.6,2.1-2.6
		c0.5-1,0.8-2.1,0.8-3.2c0-1.1-0.3-2.2-0.8-3.2c-0.5-1-1.2-1.9-2.1-2.7c-0.9-0.8-2-1.4-3.2-1.8c-1.2-0.4-2.6-0.7-3.9-0.7
		c-1.2,0.1-2.4,0.1-3.6-0.1c-0.8-0.1-1.6-0.2-2.4-0.4c-0.6-0.1-1.2-0.3-1.8-0.6c-1.6-0.9-3-2.1-4.1-3.5c-1-1.3-1.5-3-1.5-4.6
		c0-1.3,0.3-2.5,0.9-3.6c0.6-1.1,1.4-2.2,2.4-3c1-0.9,2.2-1.5,3.5-2c1.4-0.5,2.8-0.7,4.3-0.7h1c1.4,0,2.9,0.3,4.2,0.7
		c1.2,0.4,2.4,1.1,3.5,1.9c1,0.8,1.8,1.7,2.4,2.8c0.6,1.1,0.9,2.2,1,3.4h-1.2c-0.1-1.1-0.4-2.1-0.9-3.1c-0.6-1-1.3-1.8-2.1-2.5
		c-0.9-0.7-2-1.3-3.1-1.7c-1.2-0.4-2.5-0.6-3.8-0.6h-1c-1.3,0-2.6,0.2-3.9,0.7c-1.2,0.4-2.2,1-3.2,1.8c-0.9,0.7-1.6,1.6-2.1,2.7
		c-0.5,1-0.8,2.1-0.8,3.2c0,1.1,0.3,2.2,0.8,3.2c0.5,1,1.3,1.9,2.1,2.6c0.9,0.8,2,1.4,3.1,1.8c1.2,0.4,2.6,0.7,3.9,0.6h1.6h1.4
		C340.1,19.9,340.5,20,340.9,20.1z"/>
	<path class="st0" d="M338.8,39.7h-3.3c-1.6,0-3.2-0.3-4.7-0.8c-1.4-0.5-2.7-1.2-3.9-2.2c-1.1-0.9-2-2-2.7-3.3c-0.7-1.3-1-2.7-1-4.2
		c0-0.7,0.5-1.3,1.2-1.4h1.2c0.6,0,1.1,0.5,1.2,1.1c0,1,0.2,2,0.6,2.9c0.5,0.9,1.1,1.6,1.9,2.3c0.8,0.7,1.8,1.2,2.8,1.6
		c1.1,0.4,2.3,0.6,3.5,0.6h3.3c1.2,0,2.4-0.2,3.5-0.6c1-0.3,1.9-0.9,2.8-1.6c0.8-0.6,1.4-1.4,1.9-2.3c0.4-0.8,0.7-1.7,0.6-2.7
		c0-0.9-0.2-1.9-0.7-2.7c-0.5-0.9-1.1-1.7-1.8-2.3c-0.8-0.7-1.8-1.2-2.8-1.6c-1.1-0.4-2.3-0.6-3.5-0.6c-1.2,0.1-2.5,0-3.7-0.1
		c-0.9-0.1-1.7-0.2-2.5-0.5c-0.7-0.2-1.4-0.4-2-0.7c-1.7-1-3.3-2.3-4.5-3.9c-1.2-1.5-1.8-3.4-1.7-5.3c0-1.4,0.3-2.9,1-4.2
		c0.7-1.3,1.6-2.4,2.7-3.3c1.2-1,2.5-1.7,3.9-2.2c1.5-0.5,3.1-0.8,4.7-0.8h1c1.6,0,3.1,0.2,4.6,0.8c1.4,0.5,2.7,1.2,3.8,2.1
		c1.1,0.9,2,1.9,2.7,3.2c0.7,1.2,1.1,2.6,1.2,4c0,0.3-0.1,0.6-0.3,0.9c-0.2,0.2-0.5,0.4-0.9,0.4h-1.2c-0.6,0-1.1-0.5-1.2-1.1
		c-0.1-0.9-0.3-1.8-0.8-2.5c-0.5-0.8-1.1-1.6-1.9-2.2C342.9,5.8,342,5.3,341,5c-1.1-0.4-2.2-0.6-3.4-0.6h-1c-1.2,0-2.4,0.2-3.5,0.6
		c-1,0.4-2,0.9-2.8,1.6c-0.8,0.6-1.4,1.4-1.9,2.3c-0.4,0.8-0.7,1.8-0.7,2.7c0,0.9,0.2,1.8,0.6,2.7c0.5,0.9,1.1,1.6,1.9,2.3
		c0.8,0.7,1.8,1.2,2.8,1.6c1.1,0.4,2.3,0.6,3.5,0.6h1.6h1.5c0.5,0,1,0.1,1.5,0.1c1.3,0.2,2.6,0.6,3.8,1.2c1.2,0.6,2.2,1.3,3.2,2.3
		c0.9,0.9,1.6,2,2.1,3.1c0.5,1.2,0.8,2.5,0.8,3.8c0,1.4-0.3,2.9-1,4.1c-0.6,1.3-1.6,2.4-2.7,3.3c-1.2,0.9-2.5,1.7-3.9,2.2
		C342,39.4,340.4,39.7,338.8,39.7z"/>
</g>
<path class="st0" d="M267.2,1.7c-10.9,0-19.7,6.3-19.7,14v9.4c0,7.7,8.8,14,19.7,14s19.7-6.3,19.7-14v-9.4
	C286.9,8,278,1.7,267.2,1.7z M267.2,4.9c9.1,0,16.5,4.9,16.5,10.8s-7.4,10.8-16.5,10.8s-16.5-4.9-16.5-10.8S258.1,4.9,267.2,4.9z
	 M283.6,25.1c0,6-7.4,10.8-16.5,10.8s-16.5-4.9-16.5-10.8v-1.8c3.5,3.8,9.6,6.4,16.5,6.4s13-2.5,16.5-6.4V25.1z"/>
<path class="st0" d="M257.6,17.5c-0.9,0-1.6,0.7-1.6,1.6s0.7,1.6,1.6,1.6h2v1.2c0,0.9,0.7,1.6,1.6,1.6s1.6-0.7,1.6-1.6v-1.2h8.8v1.2
	c0,0.9,0.7,1.6,1.6,1.6s1.6-0.7,1.6-1.6v-1.2h2c0.9,0,1.6-0.7,1.6-1.6s-0.7-1.6-1.6-1.6h-2V13h2c0.9,0,1.6-0.7,1.6-1.6
	c0-0.9-0.7-1.6-1.6-1.6c0,0,0,0,0,0h-2V8.9c0-0.9-0.7-1.6-1.6-1.6s-1.6,0.7-1.6,1.6v0.9h-8.8V8.9c0-0.9-0.7-1.6-1.6-1.6
	s-1.6,0.7-1.6,1.6v0.9h-2c-0.9,0-1.6,0.7-1.6,1.6c0,0.9,0.7,1.6,1.6,1.6h2v4.5L257.6,17.5z M262.8,13h8.8v4.5h-8.8V13z"/>
<rect x="318.6" y="43.7" class="st1" width="60.2" height="14.7"/>
<text transform="matrix(1 0 0 1 318.6344 53.0626)" class="st0 st2 st3">BETA</text>
</svg>
