<svg xmlns="http://www.w3.org/2000/svg" viewBox="0 0 48 48"><title>Conversaciones</title><path d="M31.93,2H16.34C9.66,2,1.49,8.65,1.49,16.46V20c-.16,5.84,3.14,10.63,9.56,13.87a35.09,35.09,0,0,0,7.62,2.7V44h0a2,2,0,0,0,.07.49.93.93,0,0,0,0,.13,2.17,2.17,0,0,0,.19.41s0,0,0,0v0a1.93,1.93,0,0,0,.29.35l.11.08a1.57,1.57,0,0,0,.26.19l.13.07a1.66,1.66,0,0,0,.31.12l.12,0a2.14,2.14,0,0,0,.45,0h0a2,2,0,0,0,.49-.07l.12,0a2,2,0,0,0,.42-.19l0,0,0,0h0L38.59,34.89l0,0,.07,0A20.51,20.51,0,0,0,46.49,22.6a3,3,0,0,0,0-.31V15.46C46.51,8.09,35.92,2,31.93,2ZM42.51,22.11a16.57,16.57,0,0,1-6.16,9.47l-13.67,8.8V34.92s0,0,0-.06a1.11,1.11,0,0,0,0-.19.76.76,0,0,0,0-.21.75.75,0,0,0-.05-.16,1.72,1.72,0,0,0-.07-.21L22.42,34l-.11-.19-.11-.13-.14-.16-.13-.11-.17-.13-.16-.08a1.11,1.11,0,0,0-.19-.09L21.24,33A.83.83,0,0,0,21,33H21c-.16,0-15.77-2.52-15.49-12.9V16.46C5.49,11.88,10.76,6,16.34,6H31.93C34.5,6,42.51,11,42.51,15.46Z"/></svg>
