<svg version="1.1" xmlns="http://www.w3.org/2000/svg" xmlns:xlink="http://www.w3.org/1999/xlink" width="14" height="14" viewBox="0 0 14 14">
<path d="M13.75 7q0 1.375-0.535 2.625t-1.438 2.152-2.152 1.438-2.625 0.535-2.625-0.535-2.152-1.438-1.438-2.152-0.535-2.625q0-1.664 0.758-3.113t2.070-2.387 2.922-1.18v1.781q-1.727 0.352-2.863 1.727t-1.137 3.172q0 1.016 0.398 1.941t1.066 1.594 1.594 1.066 1.941 0.398 1.941-0.398 1.594-1.066 1.066-1.594 0.398-1.941q0-1.797-1.137-3.172t-2.863-1.727v-1.781q1.609 0.242 2.922 1.18t2.070 2.387 0.758 3.113z"></path>
</svg>
