<svg xmlns="http://www.w3.org/2000/svg" viewBox="0 0 48 48"><title>helpbutons_Icon_stencil_04_EXPANDED</title><path d="M24,29.53A5.53,5.53,0,1,1,29.53,24,5.54,5.54,0,0,1,24,29.53Zm0-9.06a3.53,3.53,0,1,0,2.49,1A3.53,3.53,0,0,0,24,20.47Z"/><path d="M14.75,15.75a1,1,0,0,1-.71-.29A1,1,0,0,1,14,14,14,14,0,0,1,24,9.92a1,1,0,0,1,0,2,12,12,0,0,0-8.54,3.54A1,1,0,0,1,14.75,15.75Z"/><path d="M37.08,25a1,1,0,0,1-1-1,12,12,0,0,0-3.54-8.54,1,1,0,0,1,0-1.41,1,1,0,0,1,1.42,0,14,14,0,0,1,4.12,10A1,1,0,0,1,37.08,25Z"/><path d="M24,38.08a1,1,0,0,1,0-2,12,12,0,0,0,8.54-3.53A1,1,0,1,1,34,34,14,14,0,0,1,24,38.08Z"/><path d="M37,12a1,1,0,0,1-.71-.29A17.29,17.29,0,0,0,24,6.6a1,1,0,0,1,0-2,19.29,19.29,0,0,1,13.72,5.68A1,1,0,0,1,37,12Z"/><path d="M37,38a1,1,0,0,1-.7-1.71A17.32,17.32,0,0,0,41.4,24a1,1,0,0,1,2,0,19.29,19.29,0,0,1-5.68,13.72A1,1,0,0,1,37,38Z"/><path d="M24,43.4a19.27,19.27,0,0,1-13.72-5.68,1,1,0,0,1,0-1.42,1,1,0,0,1,1.41,0A17.29,17.29,0,0,0,24,41.4a1,1,0,1,1,0,2Z"/><path d="M42.4,25H37.08a1,1,0,0,1,0-2H42.4a1,1,0,1,1,0,2Z"/><path d="M24,11.92a1,1,0,0,1-1-1V5.6a1,1,0,0,1,2,0v5.32A1,1,0,0,1,24,11.92Z"/><path d="M14.75,15.75a1,1,0,0,1-.71-.29L10.28,11.7a1,1,0,0,1,1.37-1.47l.1.1L15.46,14a1,1,0,0,1,0,1.42A1,1,0,0,1,14.75,15.75Z"/><path d="M37,38a1,1,0,0,1-.7-.29L32.54,34A1,1,0,0,1,34,32.54l3.76,3.77a1,1,0,0,1,0,1.41A1,1,0,0,1,37,38Z"/><path d="M11.69,37.72l-1.41-1.41,3.08-3.08A14,14,0,0,1,9.92,24a1,1,0,0,1,2,0,12,12,0,0,0,3.54,8.54,1,1,0,0,1,0,1.42Z"/><path d="M33.25,15.75a1,1,0,0,1-.71-.29,1,1,0,0,1,0-1.42l3.77-3.76a1,1,0,0,1,1.41,1.41L34,15.46A1,1,0,0,1,33.25,15.75Z"/><path d="M10.92,25H5.6a1,1,0,0,1-1-1,19.31,19.31,0,0,1,5.68-13.72,1,1,0,0,1,1.42,0,1,1,0,0,1,0,1.41A17.28,17.28,0,0,0,6.62,23h4.3a1,1,0,1,1,0,2Z"/><path d="M24,43.4a1,1,0,0,1-1-1V37.09a1,1,0,0,1,2,0V42.4A1,1,0,0,1,24,43.4Z"/></svg>