<svg xmlns="http://www.w3.org/2000/svg" viewBox="3 4 42 42"><title>Desde_Hasta</title><path d="M28.14,23.93a1,1,0,0,0-.05-.24l0-.1a1.21,1.21,0,0,0-.2-.3l-5.4-5.4A1,1,0,0,0,21,19.31L24.74,23H16.36a6.4,6.4,0,1,0,0,2h8.38L21,28.69a1,1,0,0,0,0,1.42,1,1,0,0,0,1.42,0l5.4-5.4s0,0,0,0a1,1,0,0,0,.19-.3h0v0a.85.85,0,0,0,.06-.31ZM10.05,28.4a4.4,4.4,0,1,1,4.4-4.4A4.4,4.4,0,0,1,10.05,28.4Z"/><path d="M38,17.6a6.4,6.4,0,1,0,6.4,6.4A6.41,6.41,0,0,0,38,17.6Zm0,10.8a4.4,4.4,0,1,1,4.4-4.4A4.4,4.4,0,0,1,38,28.4Z"/></svg>
