<svg version="1.1" xmlns="http://www.w3.org/2000/svg" xmlns:xlink="http://www.w3.org/1999/xlink" width="18" height="14" viewBox="0 0 18 14">
<path d="M11.227 7.133q0 1.625-0.68 2.895t-1.937 1.984-2.883 0.715q-1.164 0-2.227-0.453t-1.828-1.219-1.219-1.828-0.453-2.227 0.453-2.227 1.219-1.828 1.828-1.219 2.227-0.453q2.234 0 3.836 1.5l-1.555 1.492q-0.914-0.883-2.281-0.883-0.961 0-1.777 0.484t-1.293 1.316-0.477 1.816 0.477 1.816 1.293 1.316 1.777 0.484q0.648 0 1.191-0.18t0.895-0.449 0.613-0.613 0.383-0.648 0.168-0.578h-3.25v-1.969h5.406q0.094 0.492 0.094 0.953zM18 6.18v1.641h-1.633v1.633h-1.641v-1.633h-1.633v-1.641h1.633v-1.633h1.641v1.633h1.633z"></path>
</svg>
