<svg xmlns="http://www.w3.org/2000/svg" viewBox="0 0 48 48"><title>helpbutons_Icon_stencil_04_EXPANDED</title><path d="M35.81,28.74a1,1,0,0,0-.05-.25,5.23,5.23,0,0,0,.61-2.86V18.38a1,1,0,0,0-.79-1L23.75,14.94V9.22c0-3-1.57-4.67-4.31-4.67-3,0-3.94,3-4,4.67v11h-.11c-2.95,0-3.73,2.84-3.73,4.34v9.26a5.81,5.81,0,0,0,1.46,3.94,5.41,5.41,0,0,0,3.56,1.55v3.15a1,1,0,0,0,1,1h14.7a1,1,0,0,0,1-1V38.78A4.2,4.2,0,0,0,34.41,38a5.75,5.75,0,0,0,1.4-3.82ZM17.45,9.25c0-.11.1-2.7,2-2.7,1.2,0,2.31.32,2.31,2.67v9.41a1,1,0,0,0,2,0V17L34.37,19.2v6.48c0,.05,0,.09,0,.13a2.88,2.88,0,0,1-.6,2,3.49,3.49,0,0,1-2.74.94H26.83A3.76,3.76,0,0,1,24.4,28a1.85,1.85,0,0,1-.49-.76h1.9a3.57,3.57,0,0,0,3.6-3.49,3.47,3.47,0,0,0-3.67-3.57H17.45ZM33,36.62a2.75,2.75,0,0,1-2.07.74,1,1,0,0,0,0,2c.15,0,.29,0,.44,0v2.13H18.63V39.36h5.62a1,1,0,0,0,0-2H17.36a3.77,3.77,0,0,1-2.83-1,3.8,3.8,0,0,1-.92-2.52V24.55c0-.09,0-2.34,1.73-2.34h10.4a1.5,1.5,0,0,1,1.67,1.57c0,1.36-1.59,1.49-1.6,1.49H19a1,1,0,0,0-.44,1.9c.05,0,5.38,2.69,5.2,6.69a1,1,0,1,0,2,.09A6.68,6.68,0,0,0,25,30.54a6.77,6.77,0,0,0,1.72.25H31a6.63,6.63,0,0,0,2.77-.56v4A3.75,3.75,0,0,1,33,36.62Z"/></svg>