<?xml version="1.0" encoding="utf-8"?>
<!-- Generator: Adobe Illustrator 23.0.1, SVG Export Plug-In . SVG Version: 6.00 Build 0)  -->
<svg version="1.1" id="Capa_1" xmlns="http://www.w3.org/2000/svg" xmlns:xlink="http://www.w3.org/1999/xlink" x="0px" y="0px"
	 viewBox="0 0 48 48" style="enable-background:new 0 0 48 48;" xml:space="preserve">
<path d="M19.5,34.9C11,34.9,4.1,28,4.1,19.5S11,4.1,19.5,4.1S34.9,11,34.9,19.5l0,0C34.9,28,28,34.9,19.5,34.9z M19.5,6.1
	c-7.4,0-13.4,6-13.4,13.4s6,13.4,13.4,13.4s13.4-6,13.4-13.4l0,0C32.9,12.1,26.9,6.1,19.5,6.1z"/>
<path d="M42.9,43.9c-0.3,0-0.5-0.1-0.7-0.3l-9-9c-0.4-0.4-0.3-1.1,0.1-1.4c0.4-0.3,0.9-0.3,1.3,0l9,9c0.4,0.4,0.4,1,0,1.4
	C43.4,43.8,43.2,43.9,42.9,43.9z"/>
<path d="M25.5,18.5h-5v-5c0-0.5-0.4-1-1-1h-0.1c-0.5,0-1,0.4-1,1v5h-5c-0.5,0-1,0.4-1,1v0.1c0,0.5,0.4,1,1,1h5v5c0,0.6,0.5,1,1,1
	h0.1c0.5,0,1-0.4,1-1v-5h5c0.6,0,1-0.5,1-1v-0.1C26.5,19,26.1,18.5,25.5,18.5z"/>
</svg>
