<?xml version="1.0" encoding="utf-8"?>
<!-- Generator: Adobe Illustrator 23.0.1, SVG Export Plug-In . SVG Version: 6.00 Build 0)  -->
<svg version="1.1" id="Capa_1" xmlns="http://www.w3.org/2000/svg" xmlns:xlink="http://www.w3.org/1999/xlink" x="0px" y="0px"
	 viewBox="0 0 48 48" style="enable-background:new 0 0 48 48;" xml:space="preserve">
<title>lista</title>
<path d="M22.4,23H6c-0.6,0-1-0.4-1-1V6c0-0.6,0.4-1,1-1h16.4c0.6,0,1,0.4,1,1v16C23.4,22.6,23,23,22.4,23z M7,21h14.4V7H7V21z"/>
<path d="M22.4,43H6c-0.6,0-1-0.4-1-1V26c0-0.6,0.4-1,1-1h16.4c0.6,0,1,0.4,1,1v16C23.4,42.6,23,43,22.4,43z M7,41h14.4V27H7V41z"/>
<path d="M14,39c-2.8,0-5-2.2-5-5s2.2-5,5-5s5,2.2,5,5S16.8,39,14,39z M14,31c-1.7,0-3,1.3-3,3s1.3,3,3,3s3-1.3,3-3S15.7,31,14,31z"
	/>
<path d="M14,19c-2.8,0-5-2.2-5-5s2.2-5,5-5s5,2.2,5,5S16.8,19,14,19z M14,11c-1.7,0-3,1.3-3,3s1.3,3,3,3s3-1.3,3-3S15.7,11,14,11z"
	/>
<path d="M41.9,7.4H27.3c-0.6,0-1-0.5-1-1v0c0-0.6,0.5-1,1-1h14.6c0.6,0,1,0.5,1,1v0C42.9,7,42.5,7.4,41.9,7.4z"/>
<path d="M41.9,12.2H27.3c-0.6,0-1-0.5-1-1v0c0-0.6,0.5-1,1-1h14.6c0.6,0,1,0.5,1,1v0C42.9,11.7,42.5,12.2,41.9,12.2z"/>
<path d="M34.5,16.8h-7.2c-0.6,0-1-0.5-1-1v0c0-0.6,0.5-1,1-1h7.2c0.6,0,1,0.5,1,1v0C35.5,16.4,35.1,16.8,34.5,16.8z"/>
<path d="M41.9,27.2H27.3c-0.6,0-1-0.5-1-1v0c0-0.6,0.5-1,1-1h14.6c0.6,0,1,0.5,1,1v0C42.9,26.7,42.5,27.2,41.9,27.2z"/>
<path d="M41.9,31.9H27.3c-0.6,0-1-0.5-1-1v0c0-0.6,0.5-1,1-1h14.6c0.6,0,1,0.5,1,1v0C42.9,31.5,42.5,31.9,41.9,31.9z"/>
<path d="M34.5,36.6h-7.2c-0.6,0-1-0.5-1-1l0,0c0-0.6,0.5-1,1-1h7.2c0.6,0,1,0.5,1,1l0,0C35.5,36.1,35.1,36.6,34.5,36.6z"/>
</svg>
