<svg xmlns="http://www.w3.org/2000/svg" viewBox="10 10 28 28"><title>helpbutons_Icon_stencil_04_EXPANDED</title><path d="M17.6,24A6.4,6.4,0,1,0,24,17.6,6.41,6.41,0,0,0,17.6,24Zm10.8,0A4.4,4.4,0,1,1,24,19.6,4.4,4.4,0,0,1,28.4,24Z"/><path d="M13.44,21.52a.86.86,0,0,0,.32.05,1,1,0,0,0,.94-.68,10.25,10.25,0,0,1,.74-1.66,1,1,0,0,0-1.75-1,11.37,11.37,0,0,0-.88,2A1,1,0,0,0,13.44,21.52Z"/><path d="M15.37,32.05A12.43,12.43,0,0,0,17,33.5a1,1,0,0,0,.59.2,1,1,0,0,0,.6-1.81,10.34,10.34,0,0,1-1.36-1.2,1,1,0,0,0-1.41-.05A1,1,0,0,0,15.37,32.05Z"/><path d="M24,14.2a9.91,9.91,0,0,1,1.81.17H26a1,1,0,0,0,.18-2A12.08,12.08,0,0,0,24,12.2a1,1,0,0,0,0,2Z"/><path d="M13.7,28.26a.79.79,0,0,0,.3-.05A1,1,0,0,0,14.65,27a9.8,9.8,0,0,1-.38-1.77,1,1,0,1,0-2,.24,11.08,11.08,0,0,0,.46,2.13A1,1,0,0,0,13.7,28.26Z"/><path d="M22.14,33.62a1,1,0,0,0-.37,2,11.24,11.24,0,0,0,2.17.21h0a1,1,0,0,0,0-2A9.11,9.11,0,0,1,22.14,33.62Z"/><path d="M17.74,16.2a1,1,0,0,0,.58-.19,10.58,10.58,0,0,1,1.56-.91A1,1,0,1,0,19,13.29a10.75,10.75,0,0,0-1.88,1.1,1,1,0,0,0-.24,1.39A1,1,0,0,0,17.74,16.2Z"/><path d="M29.73,32a9.21,9.21,0,0,1-1.57.92,1,1,0,0,0-.48,1.33,1,1,0,0,0,.91.58.9.9,0,0,0,.42-.1,12.16,12.16,0,0,0,1.88-1.1,1,1,0,0,0,.23-1.4A1,1,0,0,0,29.73,32Z"/><path d="M33.72,22.76a1,1,0,0,0,1,.87h.13a1,1,0,0,0,.87-1.12,11.94,11.94,0,0,0-.48-2.13,1,1,0,1,0-1.9.61A9.64,9.64,0,0,1,33.72,22.76Z"/><path d="M33.31,27.06a10.16,10.16,0,0,1-.72,1.66A1,1,0,0,0,33,30.08a1.07,1.07,0,0,0,.49.12,1,1,0,0,0,.87-.52,11.1,11.1,0,0,0,.87-2,1,1,0,0,0-.64-1.26A1,1,0,0,0,33.31,27.06Z"/><path d="M31.13,17.28a1,1,0,0,0,.73.31,1,1,0,0,0,.68-.27,1,1,0,0,0,0-1.42A12.35,12.35,0,0,0,31,14.46a1,1,0,1,0-1.18,1.62A9.66,9.66,0,0,1,31.13,17.28Z"/></svg>
