<svg xmlns="http://www.w3.org/2000/svg" viewBox="0 0 48 48"><title>helpbutons_Icon_stencil_04_EXPANDED</title><path d="M40.52,19.83c-.66.39-1.64,1-2.79,1.6a1,1,0,0,0-.79-.41,1,1,0,0,0-1,1v.41c-3.65,2-8,4.45-9.34,5.17L24.94,27c.65-.19,1.24-.35,1.67-.49A3.72,3.72,0,0,0,29.22,22C28.75,20.33,27,19,24.15,19.8a53.69,53.69,0,0,1-5.48.9,1,1,0,0,0-1-.87,1,1,0,0,0-1,1v.11c-3.32.4-6.49.71-6.9.75H2.34a1,1,0,0,0-1,1v11a1,1,0,0,0,1,1H7.6l19.11,3.69a.62.62,0,0,0,.19,0,1.06,1.06,0,0,0,.57-.17c.66-.46,16.28-11.28,18.17-12.75,1.25-1,1.37-2.83.28-4.42A3.92,3.92,0,0,0,40.52,19.83Zm3.89,4.07C42.72,25.22,29,34.7,26.68,36.34L7.88,32.71l-.19,0H3.34v-9H9.93c.48-.05,11.67-1.13,14.74-2,1.39-.38,2.38-.08,2.63.79A1.74,1.74,0,0,1,26,24.61c-2.36.74-9.28,2.44-9.35,2.46A1,1,0,1,0,17.15,29c.15,0,2.16-.53,4.36-1.1l4.85,1.72a1,1,0,0,0,.81-.06c.12-.06,11.14-6.11,14.36-8a2,2,0,0,1,2.74.63C44.67,22.77,44.83,23.58,44.41,23.9Z"/><path d="M16.69,17a1,1,0,0,0,2,0V15.44a1,1,0,0,0-2,0Z"/><path d="M17.69,12.6a1,1,0,0,0,1-1,1,1,0,0,0,0-2h-1a1,1,0,0,0-1,1v1A1,1,0,0,0,17.69,12.6Z"/><path d="M25.05,11.6a1,1,0,0,0,0-2H23.23a1,1,0,0,0,0,2Z"/><path d="M29.59,11.6H31.4a1,1,0,0,0,0-2H29.59a1,1,0,0,0,0,2Z"/><path d="M37.94,10.6a1,1,0,0,0-1-1h-1a1,1,0,0,0,0,2,1,1,0,1,0,2,0Z"/><path d="M36.94,14.94a1,1,0,0,0-1,1v1.73a1,1,0,0,0,2,0V15.94A1,1,0,0,0,36.94,14.94Z"/></svg>