<svg xmlns="http://www.w3.org/2000/svg" viewBox="0 0 48 48"><title>helpbutons_Icon_stencil_04_EXPANDED</title><path d="M15,27.25a1,1,0,0,0,1-1V19.66l2.79,2.8a1,1,0,0,0,1.42,0L23,19.66v6.59a1,1,0,0,0,2,0v-9a1,1,0,0,0-.62-.92,1,1,0,0,0-1.09.21l-3.79,3.8-3.79-3.8a1,1,0,0,0-1.09-.21,1,1,0,0,0-.62.92v9A1,1,0,0,0,15,27.25Z"/><path d="M42,16.25H38.5v-3.5a1,1,0,0,0-1-1H34V8.25a1,1,0,0,0-1-1H6a1,1,0,0,0-1,1v22.5a1,1,0,0,0,1,1H9.5v3.5a1,1,0,0,0,1,1H14v3.5a1,1,0,0,0,1,1H42a1,1,0,0,0,1-1V17.25A1,1,0,0,0,42,16.25Zm-1,4.5H38.5v-2.5H41Zm-4.5-4.5H34v-2.5h2.5ZM7,9.25H32v2.5H7Zm0,4.5H32v3.5h0v12.5H7Zm4.5,18H33a1,1,0,0,0,1-1V18.25h2.5v3.5h0v12.5h-25Zm4.5,7v-2.5H37.5a1,1,0,0,0,1-1V22.75H41v16Z"/></svg>