<svg xmlns="http://www.w3.org/2000/svg" viewBox="0 0 48 48"><title>Lugar</title><path d="M34.72,26.77a1,1,0,0,1-.56-.17,1,1,0,0,1-.27-1.39,11.93,11.93,0,1,0-20.62-1.45,1,1,0,0,1-1.8.87,13.74,13.74,0,0,1-1.4-6.09,13.93,13.93,0,1,1,25.48,7.79A1,1,0,0,1,34.72,26.77Z"/><path d="M24,43.39h0a1,1,0,0,1-.84-.47L11.53,24.74a1,1,0,0,1,1.69-1.08L24,40.54,34,25.1a1,1,0,1,1,1.68,1.09L24.84,42.93A1,1,0,0,1,24,43.39Z"/><path d="M24,24.59a6,6,0,1,1,6-6.05A6.06,6.06,0,0,1,24,24.59ZM24,14.5a4,4,0,1,0,4,4A4,4,0,0,0,24,14.5Z"/></svg>
