<svg id="Capa_1" data-name="Capa 1" xmlns="http://www.w3.org/2000/svg" viewBox="0 0 48 48"><title>helpbutons_Icon_stencil_05_EXPANDED</title><path d="M18.13,23.31a1,1,0,0,0,0,2h1.81v1.81a1,1,0,0,0,2,0V25.31h4.12v1.81a1,1,0,0,0,2,0V25.31h1.81a1,1,0,0,0,0-2H28.06V19.18h1.81a1,1,0,0,0,0-2H28.06v-1.8a1,1,0,1,0-2,0v1.8H21.94v-1.8a1,1,0,1,0-2,0v1.8H18.13a1,1,0,0,0,0,2h1.81v4.13Zm3.81-4.13h4.12v4.13H21.94Z"/><path d="M12.18,17.76a1,1,0,0,0,1-1V13.57a1,1,0,0,0-2,0v3.19A1,1,0,0,0,12.18,17.76Z"/><path d="M35.82,12.57a1,1,0,0,0-1,1v3.19a1,1,0,0,0,2,0V13.57A1,1,0,0,0,35.82,12.57Z"/><path d="M35.82,21.61a1,1,0,0,0-1,1,10.82,10.82,0,0,1-21.64,0,1,1,0,0,0-2,0,12.82,12.82,0,0,0,25.64,0A1,1,0,0,0,35.82,21.61Z"/></svg>