<svg id="Capa_1" data-name="Capa 1" xmlns="http://www.w3.org/2000/svg" width="16.9333mm" height="16.9333mm" viewBox="0 0 48 48"><title>telegram</title><g id="QPPnCm.tif"><path d="M43.8841,8.5216V9.5732a2.343,2.343,0,0,0-.0845.2655q-.9145,4.6823-1.8257,9.3653-1.9427,9.95-3.892,19.8993a3.635,3.635,0,0,1-5.6548,2.0756Q30.7225,39.87,29.018,38.561q-1.8339-1.4062-3.6765-2.8155c-.1239.1067-.2211.1865-.314.271-1.3315,1.21-2.6566,2.428-3.9951,3.6306a2.3282,2.3282,0,0,1-3.5609-.4525,7.0669,7.0669,0,0,1-.7295-1.6488q-1.3247-4.2077-2.5915-8.4332a.8347.8347,0,0,0-.613-.6265C11.3472,27.769,9.17,27.011,6.98,26.2948a3.9447,3.9447,0,0,1-2.8637-2.6689V22.67a3.7032,3.7032,0,0,1,2.2717-2.2791q8.73-3.6706,17.4571-7.3484,7.8285-3.2918,15.66-6.5758c2.2351-.94,4.02.19,4.347,2.0205C43.8543,8.5,43.873,8.51,43.8841,8.5216ZM25.1548,31.7593c.1354.0995.2383.1724.3383.2491Q29.7024,35.234,33.911,38.46c.7656.5867,1.097.46,1.2778-.4661q2.556-13.0918,5.1176-26.1827c.1607-.8224.3147-1.6461.4943-2.5872L7.542,23.23c.2724.1009.4032.1531.5365.198,2.6519.8938,5.3066,1.78,7.9536,2.6882A.972.972,0,0,0,16.9565,26q8.8817-5.52,17.7768-11.0183a3.1013,3.1013,0,0,1,.7724-.3547c.1341-.038.3952.0212.4437.1159a.6236.6236,0,0,1-.02.52,2.6882,2.6882,0,0,1-.5153.5578Q28.32,22.4374,21.2165,29.045a1.421,1.421,0,0,0-.4633.895c-.1708,1.165-.361,2.3272-.5416,3.4907-.1642,1.0577-.3256,2.1159-.5062,3.2907Z"/></g></svg>