<svg xmlns="http://www.w3.org/2000/svg" viewBox="0 0 48 48"><title>Info</title><path d="M42.24,43.24H5.76a1,1,0,0,1-1-1V5.76a1,1,0,0,1,1-1H42.24a1,1,0,0,1,1,1V42.24A1,1,0,0,1,42.24,43.24Zm-35.48-2H41.24V6.76H6.76Z"/><path d="M24,38.68A14.68,14.68,0,1,1,38.68,24,14.69,14.69,0,0,1,24,38.68Zm0-27.36A12.68,12.68,0,1,0,36.68,24,12.7,12.7,0,0,0,24,11.32Z"/><path d="M27.65,30.3H25V20.35a1,1,0,0,0-1-1H20.35a1,1,0,0,0,0,2H23v9H20.35a1,1,0,1,0,0,2h7.3a1,1,0,1,0,0-2Z"/><path d="M24,18.21a1.25,1.25,0,0,1-.57-.13,1.21,1.21,0,0,1-.49-.31,1.76,1.76,0,0,1-.33-.49,1.6,1.6,0,0,1-.11-.57,1.45,1.45,0,0,1,0-.3,1.61,1.61,0,0,1,.09-.29,2,2,0,0,1,.13-.25,1.37,1.37,0,0,1,.19-.22,1.53,1.53,0,0,1,2.12,0,1.37,1.37,0,0,1,.19.22l.14.25c0,.09.06.2.08.29a1.45,1.45,0,0,1,0,.3,1.5,1.5,0,0,1-1.5,1.5Z"/></svg>
