<svg xmlns="http://www.w3.org/2000/svg" viewBox="0 0 48 48"><path d="M43.19,43H4.81a1,1,0,0,1-1-1V11.57a1,1,0,0,1,1-1H15.05V6a1,1,0,0,1,1-1H32a1,1,0,0,1,1,1v4.59H43.19a1,1,0,0,1,1,1V42A1,1,0,0,1,43.19,43ZM5.81,41H42.19V12.57H32a1,1,0,0,1-1-1V7H17.05v4.59a1,1,0,0,1-1,1H5.81Z"/><path d="M24,37.79A11.41,11.41,0,1,1,35.4,26.38,11.42,11.42,0,0,1,24,37.79ZM24,17a9.41,9.41,0,1,0,9.4,9.4A9.41,9.41,0,0,0,24,17Z"/><path d="M37.62,20a2.5,2.5,0,1,1,2.5-2.5A2.5,2.5,0,0,1,37.62,20Zm0-3a.5.5,0,1,0,.5.5A.51.51,0,0,0,37.62,17Z"/></svg>
