<svg xmlns="http://www.w3.org/2000/svg" viewBox="0 0 48 48"><title>helpbutons_Icon_stencil_04_EXPANDED</title><path d="M24,45.16a1,1,0,0,1-1-1V33.81a1,1,0,0,1,2,0V44.16A1,1,0,0,1,24,45.16Z"/><path d="M45,25H33.81a1,1,0,0,1,0-2H45a1,1,0,0,1,0,2Z"/><path d="M14.18,25H3a1,1,0,0,1,0-2H14.18a1,1,0,0,1,0,2Z"/><path d="M39.61,21a1,1,0,0,1-1-.75A15.14,15.14,0,0,0,27.78,9.37a1,1,0,1,1,.5-1.93,17.1,17.1,0,0,1,12.3,12.28,1,1,0,0,1-1,1.25Z"/><path d="M28,40.61a1,1,0,0,1-1-.75,1,1,0,0,1,.72-1.21A15.14,15.14,0,0,0,38.63,27.78a1,1,0,1,1,1.93.5,17.08,17.08,0,0,1-12.28,12.3A1.07,1.07,0,0,1,28,40.61Z"/><path d="M20,40.61a1.07,1.07,0,0,1-.25,0A17.08,17.08,0,0,1,7.44,28.28a1,1,0,1,1,1.93-.5A15.14,15.14,0,0,0,20.22,38.65a1,1,0,0,1,.72,1.21A1,1,0,0,1,20,40.61Z"/><path d="M8.39,21a1,1,0,0,1-1-1.25A17.08,17.08,0,0,1,19.72,7.44a1,1,0,1,1,.5,1.93A15.14,15.14,0,0,0,9.35,20.22,1,1,0,0,1,8.39,21Z"/><path d="M24,14.92a1,1,0,0,1-1-1V3.84a1,1,0,0,1,2,0V13.92A1,1,0,0,1,24,14.92Z"/></svg>