<svg xmlns="http://www.w3.org/2000/svg" viewBox="0 0 48 48"><title>helpbutons_Icon_stencil_04_EXPANDED</title><path d="M40.52,20.68c-.66.39-1.67,1-2.83,1.62a12.62,12.62,0,0,0,.17-1.95,11.48,11.48,0,0,0-2.46-7.13L37,13.4h.11a1,1,0,0,0,.12-2l-4.46-.52h0a1,1,0,0,0-.34,0l-.1,0-.11,0a.57.57,0,0,0-.13.08l-.06,0a1.18,1.18,0,0,0-.23.27v0a.87.87,0,0,0-.1.31l0,0s0,0,0,0,0,0,0,.08V16.2a1,1,0,1,0,2,0v-2a9.52,9.52,0,0,1,2.22,6.14,9.68,9.68,0,0,1-.59,3.3c-3.5,2-7.43,4.12-8.67,4.8l-1.66-.6,1.67-.48a3.72,3.72,0,0,0,2.61-4.56c-.47-1.63-2.23-2.94-5.07-2.17s-13.57,1.82-14.36,1.9H2.34a1,1,0,0,0-1,1v11a1,1,0,0,0,1,1H7.6l19.11,3.69.19,0a1,1,0,0,0,.57-.18c.66-.46,16.28-11.28,18.17-12.74,1.25-1,1.37-2.83.28-4.43A3.91,3.91,0,0,0,40.52,20.68Zm3.89,4.07C42.72,26.06,29,35.55,26.68,37.19L7.88,33.56a.58.58,0,0,0-.19,0H3.34v-9H9.93c.48,0,11.67-1.13,14.74-2,1.39-.37,2.38-.08,2.63.79A1.75,1.75,0,0,1,26,25.46c-2.36.73-9.28,2.44-9.35,2.46a1,1,0,0,0-.73,1.21,1,1,0,0,0,1,.76,1,1,0,0,0,.24,0l4.36-1.1,4.85,1.72a1,1,0,0,0,.81-.07c.08,0,4.78-2.62,8.95-4.94a1,1,0,0,0,.7-.4c2-1.09,3.71-2.08,4.71-2.67a2,2,0,0,1,2.74.63C44.67,23.62,44.83,24.42,44.41,24.75Z"/><path d="M14.77,19.65l0,.05a1.09,1.09,0,0,0,.08.15A.61.61,0,0,1,15,20l.12.11.1.08,0,0a.75.75,0,0,0,.13.06l.1,0a1.09,1.09,0,0,0,.25,0h0a.81.81,0,0,0,.31-.06h0l.06,0,.15-.07,4.08-2.72a1,1,0,1,0-1.12-1.66l-2,1.34a9.57,9.57,0,0,1,9-6.34,9,9,0,0,1,1.48.12A1,1,0,0,0,28.89,10a1,1,0,0,0-.84-1.14,11.89,11.89,0,0,0-1.79-.14,11.54,11.54,0,0,0-10.73,7.19l-.66-1.76a1,1,0,1,0-1.87.69Z"/></svg>