<svg xmlns="http://www.w3.org/2000/svg" viewBox="0 0 48 48"><title>helpbutons_Icon_stencil_04_EXPANDED</title><path d="M30.31,42.94h-19a6.38,6.38,0,0,1-6.37-6.38V15.91a6.38,6.38,0,0,1,6.37-6.37H29.21a1,1,0,0,1,0,2H11.29a4.37,4.37,0,0,0-4.37,4.37V36.56a4.38,4.38,0,0,0,4.37,4.38h19a4.38,4.38,0,0,0,4.37-4.38V20.24a1,1,0,0,1,2,0V36.56A6.38,6.38,0,0,1,30.31,42.94Z"/><path d="M23.64,24.8a1,1,0,0,1-.72-.3,1,1,0,0,1,0-1.42L41.39,5.34a1,1,0,0,1,1.41,0,1,1,0,0,1,0,1.42L24.33,24.53A1,1,0,0,1,23.64,24.8Z"/></svg>