<svg xmlns="http://www.w3.org/2000/svg" viewBox="0 0 48 48"><title>helpbutons_Icon_stencil_04_EXPANDED</title><path d="M24,43A19,19,0,1,1,43,24,19.06,19.06,0,0,1,24,43ZM24,7A17,17,0,1,0,41,24,17,17,0,0,0,24,7Z"/><path d="M24,35.09c-5.87,0-9.21-5.25-9.35-5.47a1,1,0,0,1,1.7-1.06s2.91,4.53,7.65,4.53,7.62-4.49,7.65-4.53a1,1,0,1,1,1.7,1.06C33.21,29.84,29.87,35.09,24,35.09Z"/><path d="M20.37,23.28a1,1,0,0,1-1-1V16.15a1,1,0,0,1,2,0v6.13A1,1,0,0,1,20.37,23.28Z"/><path d="M27.63,23.28a1,1,0,0,1-1-1V16.15a1,1,0,0,1,2,0v6.13A1,1,0,0,1,27.63,23.28Z"/></svg>