<svg id="Capa_1" data-name="Capa 1" xmlns="http://www.w3.org/2000/svg" width="53.908mm" height="51.2339mm" viewBox="0 0 152.81 145.23"><title>helpbuttons</title><path d="M76.41.55C34.6357.55.65,24.5275.65,54V91.28c0,29.45,33.9858,53.4092,75.76,53.4092,41.7685,0,75.75-23.959,75.75-53.4092V54C152.16,24.5275,118.1787.55,76.41.55Zm0,98.7C39.1074,99.25,8.76,78.9513,8.76,54c0-25.0063,30.3476-45.35,67.65-45.35S144.06,28.9713,144.06,53.95,113.7119,99.25,76.41,99.25ZM144.06,77.9728V91.28c0,24.9785-30.3477,45.3-67.6494,45.3S8.76,116.2589,8.76,91.28v-13.3c12.7939,17.9727,38.6567,29.34,67.65,29.34C105.3818,107.32,131.2461,95.9484,144.06,77.9728Z"/><path d="M105.541,44.69a4.05,4.05,0,0,0-.001-8.1H98.76V32.9992a4.0511,4.0511,0,0,0-4.05-4.0474h-.003A4.0564,4.0564,0,0,0,90.66,33v3.58H62.15v-3.581a4.05,4.05,0,0,0-4.05-4.0474h-.0029A4.0569,4.0569,0,0,0,54.05,33v3.58H47.269a4.05,4.05,0,0,0,.001,8.1h6.78V60.0807l-6.873.0024a4.06,4.06,0,0,0-3.7989,4.3057A4.0863,4.0863,0,0,0,47.27,68.19h6.78v4.499a4.0564,4.0564,0,0,0,4.0474,4.0532H58.1A4.0561,4.0561,0,0,0,62.15,72.69v-4.5H90.66v4.499a4.0558,4.0558,0,0,0,4.0468,4.0532h.003A4.0564,4.0564,0,0,0,98.76,72.69V68.19l6.874-.0025a4.06,4.06,0,0,0,0-8.104L98.76,60.08V44.69Zm-14.8808,0V60.08H62.15V44.69Z"/></svg>