<?xml version="1.0" encoding="utf-8"?>
<!-- Generator: Adobe Illustrator 23.0.1, SVG Export Plug-In . SVG Version: 6.00 Build 0)  -->
<svg version="1.1" id="Capa_1" xmlns="http://www.w3.org/2000/svg" xmlns:xlink="http://www.w3.org/1999/xlink" x="0px" y="0px"
	 viewBox="0 0 48 48" style="enable-background:new 0 0 48 48;" xml:space="preserve">
<title>Info</title>
<path d="M32.8,41.2H25V15.8c0-0.6-0.4-1-1-1h-7.8c-0.6,0-1,0.4-1,1c0,0.6,0.4,1,1,1H23v24.5h-9.1c-0.6,0-1,0.4-1,1c0,0.6,0.4,1,1,1
	c0,0,0,0,0,0h18.9c0.6,0,1-0.4,1-1S33.4,41.3,32.8,41.2L32.8,41.2z"/>
<path d="M24,7.7c-0.2,0-0.4,0-0.6-0.1c-0.2-0.1-0.4-0.2-0.5-0.3c-0.1-0.1-0.2-0.3-0.3-0.5c-0.1-0.2-0.1-0.4-0.1-0.6
	c0-0.1,0-0.2,0-0.3c0-0.1,0.1-0.2,0.1-0.3c0-0.1,0.1-0.2,0.1-0.2c0.1-0.1,0.1-0.2,0.2-0.2c0.6-0.6,1.5-0.6,2.1,0
	c0.1,0.1,0.1,0.1,0.2,0.2l0.1,0.2c0,0.1,0.1,0.2,0.1,0.3c0,0.1,0,0.2,0,0.3C25.4,7.1,24.8,7.7,24,7.7L24,7.7z"/>
</svg>
