<svg id="Capa_1" data-name="Capa 1" xmlns="http://www.w3.org/2000/svg" width="16.9333mm" height="16.9333mm" viewBox="0 0 48 48"><title>menu</title><path d="M42.43,15.3522H5.57a1,1,0,0,1-1-1C4.57,5.5485,15.6592,4.53,24,4.53s19.43,1.0181,19.43,9.8218A1,1,0,0,1,42.43,15.3522Zm-35.7979-2H41.3682C40.9512,10.173,38.1123,6.53,24,6.53S7.0488,10.173,6.6318,13.3522Z"/><path d="M24,43.39c-8.3408,0-19.43-.9952-19.43-9.5967a1,1,0,0,1,1-1H42.43a.9994.9994,0,0,1,1,1C43.43,42.3946,32.3408,43.39,24,43.39ZM6.6445,34.7931C7.3374,39.2872,12.9019,41.39,24,41.39s16.6621-2.1026,17.3555-6.5967Z"/><path d="M40.3516,25.86H7.6484a4.6524,4.6524,0,0,1,0-9.3047H40.3516a4.6524,4.6524,0,0,1,0,9.3047ZM7.6484,18.5548a2.6524,2.6524,0,0,0,0,5.3047H40.3516a2.6524,2.6524,0,0,0,0-5.3047Z"/><path d="M43.8486,32.0118a.9967.9967,0,0,1-.707-.2929l-2.4023-2.4024L37.96,31.7374a1.005,1.005,0,0,1-.3379.1934,1.1359,1.1359,0,0,1-1.11-.2119l-2.4023-2.4024L31.33,31.7374a.99.99,0,0,1-.3408.1944,1.133,1.133,0,0,1-1.1084-.2129l-2.4024-2.4024-2.78,2.4209a1.0009,1.0009,0,0,1-.3374.1934,1.1372,1.1372,0,0,1-1.11-.2119l-2.4024-2.4024-2.78,2.4209a.9956.9956,0,0,1-.3388.1944,1.1471,1.1471,0,0,1-1.1094-.2129l-2.4023-2.4024-2.78,2.4209a.996.996,0,0,1-.3389.1944A1.1469,1.1469,0,0,1,9.99,31.7189L7.5879,29.3165l-2.78,2.4209A1,1,0,1,1,3.4946,30.23l3.4839-3.0342a.9979.9979,0,0,1,1.3638.0469l2.4263,2.4268,2.84-2.4737a.9979.9979,0,0,1,1.3638.0469l2.4267,2.4268,2.84-2.4737a.9978.9978,0,0,1,1.3637.0469l2.4263,2.4268,2.8394-2.4737a.9993.9993,0,0,1,1.3642.0469l2.4268,2.4268,2.84-2.4737a.9994.9994,0,0,1,1.3643.0469L37.29,29.6691l2.8389-2.4737a.9994.9994,0,0,1,1.3643.0469l3.0625,3.0625a1,1,0,0,1-.7071,1.707Z"/></svg>