<?xml version="1.0" encoding="utf-8"?>
<!-- Generator: Adobe Illustrator 23.0.1, SVG Export Plug-In . SVG Version: 6.00 Build 0)  -->
<svg version="1.1" id="Capa_1" xmlns="http://www.w3.org/2000/svg" xmlns:xlink="http://www.w3.org/1999/xlink" x="0px" y="0px"
	 viewBox="0 0 48 48" style="enable-background:new 0 0 48 48;" xml:space="preserve">
<path d="M39,26.4c-1.6,0-3,0.7-4,1.9l-6.4-3.8c0.1-0.4,0.2-0.8,0.2-1.3c0-0.7-0.2-1.4-0.4-2.1l6.7-4.1c0.9,1.1,2.4,1.9,4,1.9
	c2.8,0,5.2-2.3,5.2-5.2S41.9,8.7,39,8.7s-5.2,2.3-5.2,5.2c0,0.5,0.1,1,0.3,1.5l-6.9,4.2c-0.7-0.7-1.6-1.2-2.6-1.3l-0.3-6.3
	c2.3-0.5,4.1-2.6,4.1-5.1c0-2.8-2.3-5.2-5.2-5.2c-2.8,0-5.2,2.3-5.2,5.2c0,2.5,1.8,4.6,4.2,5.1l0.3,6.3c-0.9,0.2-1.7,0.6-2.4,1.2
	L14,15.2c0.3-0.6,0.4-1.3,0.4-2c0-2.8-2.3-5.2-5.2-5.2s-5.2,2.3-5.2,5.2s2.3,5.2,5.2,5.2c1.4,0,2.7-0.6,3.6-1.5l6.2,4.1
	c-0.3,0.7-0.5,1.4-0.5,2.3c0,0.7,0.1,1.4,0.4,2l-6.2,3.2c-0.9-1-2.3-1.7-3.8-1.7c-2.8,0-5.2,2.3-5.2,5.2s2.3,5.2,5.2,5.2
	s5.2-2.3,5.2-5.2c0-0.6-0.1-1.2-0.3-1.8l6.2-3.3c0.7,0.7,1.6,1.2,2.7,1.4v7.8c-2.6,0.3-4.6,2.5-4.6,5.1c0,2.8,2.3,5.2,5.2,5.2
	c2.8,0,5.2-2.3,5.2-5.2c0-2.4-1.6-4.3-3.8-4.9v-7.9c1.3-0.3,2.4-1,3.1-2l6.3,3.7c-0.1,0.5-0.3,1-0.3,1.5c0,2.8,2.3,5.2,5.2,5.2
	s5.2-2.3,5.2-5.2S41.9,26.4,39,26.4z M39,10.7c1.7,0,3.2,1.4,3.2,3.2S40.8,17,39,17s-3.2-1.4-3.2-3.2S37.3,10.7,39,10.7z M9,35.1
	c-1.7,0-3.2-1.4-3.2-3.2s1.4-3.2,3.2-3.2s3.2,1.4,3.2,3.2S10.7,35.1,9,35.1z M20.1,6.8c0-1.7,1.4-3.2,3.2-3.2s3.2,1.4,3.2,3.2
	S25,10,23.3,10S20.1,8.6,20.1,6.8z M9.2,16.4c-1.7,0-3.2-1.4-3.2-3.2S7.5,10,9.2,10s3.2,1.4,3.2,3.2S11,16.4,9.2,16.4z M26.4,41.2
	c0,1.7-1.4,3.2-3.2,3.2s-3.2-1.4-3.2-3.2s1.4-3.2,3.2-3.2S26.4,39.4,26.4,41.2z M23.7,26.4c-1.7,0-3.2-1.4-3.2-3.2
	c0-1.7,1.4-3.2,3.2-3.2c1.7,0,3.2,1.4,3.2,3.2C26.8,25,25.4,26.4,23.7,26.4z M39,34.7c-1.7,0-3.2-1.4-3.2-3.2s1.4-3.2,3.2-3.2
	s3.2,1.4,3.2,3.2S40.8,34.7,39,34.7z"/>
</svg>
