<svg xmlns="http://www.w3.org/2000/svg" viewBox="0 0 48 48"><title>Mensajes</title><path d="M41.23,37.28H24.14a1,1,0,0,1,0-2H39.57L36.78,30a1,1,0,0,1-.11-.56c0-.13,1.17-12.8-4.49-19A10.56,10.56,0,0,0,24,7a1,1,0,0,1,0-2,12.49,12.49,0,0,1,9.67,4.07c5.8,6.39,5.18,18.17,5,20.26l3.43,6.5a1,1,0,0,1,0,1A1,1,0,0,1,41.23,37.28Z"/><path d="M23.86,37.28H6.77a1,1,0,0,1-.86-.48,1,1,0,0,1,0-1l3.43-6.5c-.17-2.09-.79-13.87,5-20.26A12.49,12.49,0,0,1,24,5a1,1,0,0,1,0,2,10.59,10.59,0,0,0-8.19,3.41c-5.65,6.24-4.49,18.9-4.48,19a1,1,0,0,1-.11.56l-2.79,5.3H23.86a1,1,0,0,1,0,2Z"/><path d="M24,43a6.74,6.74,0,0,1-6.74-6.74,1,1,0,0,1,2,0,4.74,4.74,0,1,0,9.48,0,1,1,0,0,1,2,0A6.75,6.75,0,0,1,24,43Z"/></svg>
