<svg xmlns="http://www.w3.org/2000/svg" viewBox="0 0 48 48"><title>helpbutons_Icon_stencil_04_EXPANDED</title><path d="M40.52,19.83l-2.58,1.48V10.6a1,1,0,0,0-1-1H17.69a1,1,0,0,0-1,1V21c-3.32.39-6.49.7-6.9.74H2.34a1,1,0,0,0-1,1v11a1,1,0,0,0,1,1H7.6l19.11,3.7h.19a1.06,1.06,0,0,0,.57-.17c.66-.46,16.28-11.28,18.17-12.75,1.25-1,1.37-2.83.28-4.42A3.92,3.92,0,0,0,40.52,19.83ZM18.69,11.6H35.94V22.43c-3.65,2-8,4.45-9.34,5.17L24.94,27c.65-.18,1.24-.35,1.67-.49A3.72,3.72,0,0,0,29.22,22C28.75,20.33,27,19,24.15,19.8a53.58,53.58,0,0,1-5.46.9ZM44.41,23.9C42.72,25.22,29,34.7,26.68,36.34L7.88,32.71l-.19,0H3.34v-9H9.93c.48-.05,11.67-1.13,14.74-2,1.39-.38,2.37-.08,2.63.79A1.74,1.74,0,0,1,26,24.61c-2.36.74-9.28,2.44-9.35,2.46a1,1,0,0,0,.24,2,1.05,1.05,0,0,0,.24,0c.15,0,2.16-.53,4.37-1.1l4.84,1.72a1,1,0,0,0,.81-.06c.11-.06,11.14-6.11,14.36-8a2,2,0,0,1,2.74.63C44.67,22.77,44.83,23.58,44.41,23.9Z"/></svg>