<svg xmlns="http://www.w3.org/2000/svg" viewBox="0 0 48 48"><title>helpbutons_Icon_stencil_04_EXPANDED</title><path d="M19.24,14.55h-4.5a1,1,0,1,0,0,2h3.5v8a1,1,0,0,0,2,0v-9A1,1,0,0,0,19.24,14.55Z"/><path d="M42.26,18H33.74V6.55a1,1,0,0,0-1-1h-27a1,1,0,0,0-1,1v22.5a1,1,0,0,0,1,1h8.52v11.4a1,1,0,0,0,1,1h27a1,1,0,0,0,1-1V19A1,1,0,0,0,42.26,18Zm-1,2v2.5H33.74V20ZM6.74,7.55h25v2.5h-25Zm0,4.5h25v16h-25Zm9.52,28.4V30.05h16v1.4h-8a1,1,0,0,0-1,1V37a1,1,0,0,0,1,1h9a1,1,0,1,0,0-2h-8v-2.5h8a1,1,0,0,0,1-1V28a1,1,0,0,0-.52-.86V24.45h7.52v16Z"/></svg>