<svg id="Capa_1" data-name="Capa 1" xmlns="http://www.w3.org/2000/svg" viewBox="0 0 361.02 40.96"><defs><style>.clsf-1{isolation:isolate;}.clsf-2{fill:#3f3f3f;}</style></defs><title>logo</title><g class="clsf-1"><path class="clsf-2" d="M39.63,2.31V38.5h-1V20.88H12.1V38.5l-1,.15V2.31h1V19.92H38.67V2.31Z"/><path class="clsf-2" d="M11.13,39.83A1.19,1.19,0,0,1,10,38.65V2.31a1.18,1.18,0,0,1,1.18-1.18h1a1.18,1.18,0,0,1,1.18,1.18V18.74H37.49V2.31a1.18,1.18,0,0,1,1.18-1.18h1a1.18,1.18,0,0,1,1.18,1.18V38.5a1.18,1.18,0,0,1-1.18,1.18h-1a1.18,1.18,0,0,1-1.18-1.18V22.07H13.28V38.5a1.2,1.2,0,0,1-1,1.17l-1,.15Z"/><path class="clsf-2" d="M45.65,3.27V19.92H61.59v1H45.65V37.54H67.47v1H44.69V2.31H67.47v1Z"/><path class="clsf-2" d="M67.47,39.68H44.69a1.18,1.18,0,0,1-1.18-1.18V2.31a1.18,1.18,0,0,1,1.18-1.18H67.47a1.18,1.18,0,0,1,1.18,1.18v1a1.18,1.18,0,0,1-1.18,1.18H46.83V18.74H61.59a1.18,1.18,0,0,1,1.18,1.18v1a1.18,1.18,0,0,1-1.18,1.19H46.83V36.36H67.47a1.18,1.18,0,0,1,1.18,1.18v1A1.18,1.18,0,0,1,67.47,39.68Z"/><path class="clsf-2" d="M95.45,37.54v1H72.52V2.31h1V37.54Z"/><path class="clsf-2" d="M95.45,39.68H72.52a1.17,1.17,0,0,1-1.17-1.18V2.31a1.17,1.17,0,0,1,1.17-1.18h1a1.18,1.18,0,0,1,1.18,1.18V36.36H95.45a1.18,1.18,0,0,1,1.18,1.18v1A1.18,1.18,0,0,1,95.45,39.68Z"/><path class="clsf-2" d="M100.51,38.5V2.31h14.58A9.22,9.22,0,0,1,121.64,5a9.73,9.73,0,0,1,2,3,9,9,0,0,1,.73,3.62,9,9,0,0,1-.73,3.62,9.4,9.4,0,0,1-2,2.94,9.21,9.21,0,0,1-2.93,2,9,9,0,0,1-3.62.73H101.48V38.5Zm1-18.58h13.61a7.81,7.81,0,0,0,3.21-.65,8.23,8.23,0,0,0,2.61-1.8,9,9,0,0,0,1.77-2.63,7.89,7.89,0,0,0,.66-3.22,8,8,0,0,0-.66-3.23,8.71,8.71,0,0,0-1.77-2.66,8.23,8.23,0,0,0-2.61-1.8,7.81,7.81,0,0,0-3.21-.66H101.48Z"/><path class="clsf-2" d="M101.48,39.68h-1a1.18,1.18,0,0,1-1.18-1.18V2.31a1.18,1.18,0,0,1,1.18-1.18h14.58a10.28,10.28,0,0,1,4.09.83,10.46,10.46,0,0,1,3.31,2.26,11,11,0,0,1,2.21,3.31,10.18,10.18,0,0,1,.83,4.09,10.11,10.11,0,0,1-.83,4.09,10.59,10.59,0,0,1-2.22,3.3,10.68,10.68,0,0,1-3.3,2.23,10.28,10.28,0,0,1-4.09.83H102.65V38.5A1.17,1.17,0,0,1,101.48,39.68Zm1.17-20.94h12.44a6.59,6.59,0,0,0,2.74-.56,7.11,7.11,0,0,0,2.24-1.54,7.8,7.8,0,0,0,1.53-2.28,6.71,6.71,0,0,0,.56-2.74,7,7,0,0,0-.56-2.77,7.77,7.77,0,0,0-1.53-2.3A7.45,7.45,0,0,0,117.83,5a6.75,6.75,0,0,0-2.74-.56H102.65Z"/><path class="clsf-2" d="M146.17,20.08a8.88,8.88,0,0,1,2.93,1.13,9.78,9.78,0,0,1,2.38,2.05A9.09,9.09,0,0,1,153.05,26a9.35,9.35,0,0,1,.56,3.24,9,9,0,0,1-.74,3.62,9.21,9.21,0,0,1-2,2.93,9.4,9.4,0,0,1-2.94,2,9.15,9.15,0,0,1-3.62.73H129.41V2.31h13A9.27,9.27,0,0,1,149,5a9.88,9.88,0,0,1,2,3,9,9,0,0,1,.73,3.62,8.92,8.92,0,0,1-1.54,5.12A9.23,9.23,0,0,1,146.17,20.08Zm-15.79-.16h12a7.89,7.89,0,0,0,3.22-.65,8.3,8.3,0,0,0,2.6-1.8A9,9,0,0,0,150,14.84a7.89,7.89,0,0,0,.66-3.22A8,8,0,0,0,150,8.39a8.71,8.71,0,0,0-1.77-2.66,8.3,8.3,0,0,0-2.6-1.8,7.89,7.89,0,0,0-3.22-.66h-12Zm17.2,17a8.36,8.36,0,0,0,2.64-1.8A8.82,8.82,0,0,0,152,32.45a7.84,7.84,0,0,0,.65-3.21A8,8,0,0,0,152,26a8.84,8.84,0,0,0-1.77-2.66,8.36,8.36,0,0,0-2.64-1.8,8.19,8.19,0,0,0-3.24-.66h-14V37.54h14A8,8,0,0,0,147.58,36.88Z"/><path class="clsf-2" d="M144.34,39.68H129.41a1.18,1.18,0,0,1-1.18-1.18V2.31a1.18,1.18,0,0,1,1.18-1.18h13a10.32,10.32,0,0,1,7.4,3.09A10.91,10.91,0,0,1,152,7.53a10.14,10.14,0,0,1,.83,4.09,10.17,10.17,0,0,1-1.74,5.78,10.79,10.79,0,0,1-2.19,2.37c.27.14.53.28.79.44a10.68,10.68,0,0,1,2.67,2.3,10.44,10.44,0,0,1,1.77,3.08,10.72,10.72,0,0,1,.63,3.65,10.24,10.24,0,0,1-.83,4.09,10.42,10.42,0,0,1-5.53,5.52A10.24,10.24,0,0,1,144.34,39.68Zm-12.78-3.32h12.78a7,7,0,0,0,2.77-.56,7.19,7.19,0,0,0,2.26-1.54A7.56,7.56,0,0,0,150.91,32a6.66,6.66,0,0,0,.55-2.73,6.76,6.76,0,0,0-.56-2.77,7.46,7.46,0,0,0-1.53-2.3,6.87,6.87,0,0,0-2.26-1.54,7,7,0,0,0-2.77-.56H131.56Zm0-17.62h10.86a6.59,6.59,0,0,0,2.74-.56,7,7,0,0,0,2.24-1.54,7.8,7.8,0,0,0,1.53-2.28,6.75,6.75,0,0,0,.56-2.74,7,7,0,0,0-.56-2.77,7.9,7.9,0,0,0-1.53-2.3A7.33,7.33,0,0,0,145.16,5a6.75,6.75,0,0,0-2.74-.56H131.56Z"/><path class="clsf-2" d="M186.5,2.31V24.58A13.69,13.69,0,0,1,185.42,30a14,14,0,0,1-3,4.42,13.8,13.8,0,0,1-4.43,3,14,14,0,0,1-10.83,0A14,14,0,0,1,159.76,30a13.53,13.53,0,0,1-1.09-5.42V2.31h1V24.58a12.71,12.71,0,0,0,1,5,13,13,0,0,0,2.79,4.12,13.16,13.16,0,0,0,4.12,2.79,13.06,13.06,0,0,0,10.07,0,13.21,13.21,0,0,0,4.13-2.79,13,13,0,0,0,2.78-4.12,12.54,12.54,0,0,0,1-5h0V2.31Z"/><path class="clsf-2" d="M172.59,39.68a14.93,14.93,0,0,1-5.89-1.18,15.41,15.41,0,0,1-4.79-3.24,15.23,15.23,0,0,1-3.24-4.8,14.67,14.67,0,0,1-1.18-5.88V2.31a1.18,1.18,0,0,1,1.18-1.18h1a1.18,1.18,0,0,1,1.18,1.18V24.58a11.45,11.45,0,0,0,.92,4.57,11.87,11.87,0,0,0,2.53,3.75,11.73,11.73,0,0,0,12.89,2.54,11.87,11.87,0,0,0,6.3-6.29,11.64,11.64,0,0,0,.91-4.26,1.06,1.06,0,0,1-.05-.31V2.31a1.18,1.18,0,0,1,1.18-1.18h1a1.18,1.18,0,0,1,1.18,1.18V24.58a14.67,14.67,0,0,1-1.18,5.88,15.31,15.31,0,0,1-3.23,4.8,15.57,15.57,0,0,1-4.8,3.24A14.92,14.92,0,0,1,172.59,39.68Z"/><path class="clsf-2" d="M217.78,3.27H205.13V38.5h-1V3.27h-12.6v-1h26.21Z"/><path class="clsf-2" d="M205.13,39.68h-1A1.18,1.18,0,0,1,203,38.5v-34H191.57a1.17,1.17,0,0,1-1.18-1.18v-1a1.18,1.18,0,0,1,1.18-1.18h26.21A1.18,1.18,0,0,1,219,2.31v1a1.18,1.18,0,0,1-1.18,1.18H206.31V38.5A1.18,1.18,0,0,1,205.13,39.68Z"/><path class="clsf-2" d="M249.06,3.27H236.4V38.5h-1V3.27H222.84v-1h26.22Z"/><path class="clsf-2" d="M236.4,39.68h-1a1.18,1.18,0,0,1-1.18-1.18v-34H222.84a1.18,1.18,0,0,1-1.18-1.18v-1a1.18,1.18,0,0,1,1.18-1.18h26.22a1.18,1.18,0,0,1,1.18,1.18v1a1.18,1.18,0,0,1-1.18,1.18H237.58V38.5A1.18,1.18,0,0,1,236.4,39.68Z"/><path class="clsf-2" d="M319.26,2.31V38.5h-1L291.27,4V38.5h-1V2.31h1l27,34.52V2.31Z"/><path class="clsf-2" d="M319.26,39.68h-1a1.2,1.2,0,0,1-.93-.45L292.45,7.46v31a1.18,1.18,0,0,1-1.18,1.18h-1a1.18,1.18,0,0,1-1.18-1.18V2.31a1.18,1.18,0,0,1,1.18-1.18h1a1.2,1.2,0,0,1,.93.45L317.07,33.4V2.31a1.18,1.18,0,0,1,1.18-1.18h1a1.18,1.18,0,0,1,1.18,1.18V38.5A1.18,1.18,0,0,1,319.26,39.68Z"/><path class="clsf-2" d="M340.94,20.08a12.23,12.23,0,0,1,3.56,1.11,10.3,10.3,0,0,1,2.83,2A9.42,9.42,0,0,1,349.2,26a8.08,8.08,0,0,1,.68,3.27,7.94,7.94,0,0,1-.86,3.62,8.91,8.91,0,0,1-2.37,2.93,11.93,11.93,0,0,1-3.54,2,12.88,12.88,0,0,1-4.34.73h-3.34a12.72,12.72,0,0,1-4.29-.73,11.93,11.93,0,0,1-3.54-2,9.27,9.27,0,0,1-2.4-2.93,7.71,7.71,0,0,1-.88-3.62V29h1.16v.21a6.72,6.72,0,0,0,.79,3.21,8.52,8.52,0,0,0,2.14,2.63,10.53,10.53,0,0,0,3.16,1.8,11.1,11.1,0,0,0,3.86.66h3.34a11.25,11.25,0,0,0,3.88-.66,10.06,10.06,0,0,0,3.16-1.8,8.75,8.75,0,0,0,2.12-2.63,6.84,6.84,0,0,0,.79-3.21,7,7,0,0,0-.79-3.24,8.75,8.75,0,0,0-2.12-2.66,10.06,10.06,0,0,0-3.16-1.8,11.49,11.49,0,0,0-3.88-.66,21.08,21.08,0,0,1-3.56-.07,16.25,16.25,0,0,1-2.35-.43,8.07,8.07,0,0,1-1.77-.61A14.12,14.12,0,0,1,327,16.23a7.46,7.46,0,0,1-1.49-4.61A7.75,7.75,0,0,1,326.37,8a9.72,9.72,0,0,1,2.4-3,11.59,11.59,0,0,1,3.53-2,12.48,12.48,0,0,1,4.29-.74h1A12.87,12.87,0,0,1,341.8,3a11.88,11.88,0,0,1,3.46,1.88,9.85,9.85,0,0,1,2.42,2.81,7.7,7.7,0,0,1,1,3.44h-1.17a6.88,6.88,0,0,0-.94-3.06,8.75,8.75,0,0,0-2.15-2.51,9.81,9.81,0,0,0-3.08-1.67,11.61,11.61,0,0,0-3.75-.61h-1a11.11,11.11,0,0,0-3.87.66,10.71,10.71,0,0,0-3.17,1.8,8.58,8.58,0,0,0-2.15,2.66,7,7,0,0,0-.78,3.23,6.87,6.87,0,0,0,.78,3.22,8.83,8.83,0,0,0,2.15,2.63,10.6,10.6,0,0,0,3.15,1.8,11.15,11.15,0,0,0,3.87.65h1.61l1.44,0A9,9,0,0,1,340.94,20.08Z"/><path class="clsf-2" d="M338.77,39.68h-3.34a13.71,13.71,0,0,1-4.69-.8,13.38,13.38,0,0,1-3.89-2.18,10.43,10.43,0,0,1-2.69-3.3,8.83,8.83,0,0,1-1-4.16,1.37,1.37,0,0,1,1.18-1.39h1.16A1.18,1.18,0,0,1,326.66,29a5.91,5.91,0,0,0,.65,2.87,7.46,7.46,0,0,0,1.86,2.27,9.29,9.29,0,0,0,2.8,1.6,10.06,10.06,0,0,0,3.46.59h3.34a10.21,10.21,0,0,0,3.48-.59A8.73,8.73,0,0,0,345,34.18a7.59,7.59,0,0,0,1.85-2.28,5.66,5.66,0,0,0,.65-2.66,5.76,5.76,0,0,0-.66-2.7,7.48,7.48,0,0,0-1.83-2.3,9.09,9.09,0,0,0-2.8-1.59,10.21,10.21,0,0,0-3.48-.58,22.05,22.05,0,0,1-3.71-.09,17,17,0,0,1-2.52-.46,9.34,9.34,0,0,1-2-.69A15.34,15.34,0,0,1,326,16.94a8.61,8.61,0,0,1-1.73-5.32,8.89,8.89,0,0,1,1-4.16A10.73,10.73,0,0,1,328,4.14a12.76,12.76,0,0,1,3.89-2.2,13.56,13.56,0,0,1,4.69-.81h1a13.92,13.92,0,0,1,4.58.75A12.89,12.89,0,0,1,346,3.94a11,11,0,0,1,2.71,3.15,8.79,8.79,0,0,1,1.2,4,1.25,1.25,0,0,1-.32.88,1.23,1.23,0,0,1-.86.37h-1.17a1.19,1.19,0,0,1-1.18-1.11,5.58,5.58,0,0,0-.78-2.54,7.8,7.8,0,0,0-1.87-2.18A8.71,8.71,0,0,0,341,5a10.34,10.34,0,0,0-3.36-.55h-1a10.07,10.07,0,0,0-3.47.59,9.44,9.44,0,0,0-2.81,1.6,7.11,7.11,0,0,0-1.85,2.29,5.61,5.61,0,0,0-.66,2.69,5.67,5.67,0,0,0,.65,2.67,7.44,7.44,0,0,0,1.86,2.27,9.26,9.26,0,0,0,2.8,1.6,10,10,0,0,0,3.46.58h1.61l1.48,0a11.14,11.14,0,0,1,1.46.14A13.56,13.56,0,0,1,345,20.13a11.47,11.47,0,0,1,3.16,2.26,10.68,10.68,0,0,1,2.1,3.1,9.23,9.23,0,0,1,.78,3.75,9,9,0,0,1-1,4.15,10.14,10.14,0,0,1-2.67,3.31,13.45,13.45,0,0,1-3.88,2.18A14,14,0,0,1,338.77,39.68Z"/></g><path class="clsf-2" d="M267.18,1.66c-10.85,0-19.67,6.3-19.67,14v9.41c0,7.74,8.82,14,19.67,14s19.67-6.29,19.67-14V15.7C286.85,8,278,1.66,267.18,1.66Zm0,3.2c9.08,0,16.47,4.86,16.47,10.84s-7.39,10.83-16.47,10.83-16.47-4.86-16.47-10.83S258.1,4.86,267.18,4.86Zm16.47,20.25c0,6-7.39,10.83-16.47,10.83s-16.47-4.86-16.47-10.83V23.35c3.51,3.84,9.58,6.38,16.47,6.38s12.95-2.54,16.47-6.38Z"/><path class="clsf-2" d="M257.61,17.53a1.6,1.6,0,0,0,0,3.2h2v1.19a1.6,1.6,0,1,0,3.2,0V20.73h8.82v1.19a1.6,1.6,0,1,0,3.2,0V20.73h2a1.6,1.6,0,1,0,0-3.2h-2V13h2a1.6,1.6,0,1,0,0-3.2h-2v-.9a1.6,1.6,0,0,0-3.2,0v.9h-8.82v-.9a1.6,1.6,0,1,0-3.2,0v.9h-2a1.6,1.6,0,0,0,0,3.2h2v4.52ZM262.77,13h8.82v4.52h-8.82Z"/></svg>
