<?xml version="1.0" encoding="utf-8"?>
<!-- Generator: Adobe Illustrator 22.1.0, SVG Export Plug-In . SVG Version: 6.00 Build 0)  -->
<svg version="1.1" id="Layer_1" xmlns="http://www.w3.org/2000/svg" xmlns:xlink="http://www.w3.org/1999/xlink" x="0px" y="0px"
	 viewBox="0 0 1920 1080" style="enable-background:new 0 0 1920 1080;" xml:space="preserve">
<style type="text/css">
	.st0{fill:#383838;}
	.st1{fill:#FEDE03;}
</style>
<g>
	<g>
		<path class="st0" d="M1-7c2.3-0.4,3.1,1.7,4.3,2.8c158,142.9,315.9,285.9,473.7,428.9c3.4,3.1,5.7,4.6,8.2-0.7
			c0.7-1.4,2.1-2.5,3.5-4.2c1,13-3.8,25.3-1.6,38.2c2.2-1.8,4-3.5,6-4.8c2.1-1.4,4.2-1,5.8,1c1.5,1.8,1.7,3.9,0,5.4
			c-16.1,14.1-18,34.6-23.9,53.2c-3.5,10.9-4.3,22.4-2.7,33.6c2,14.3,7.5,26.4,20.8,35.1c24,15.6,47.7,12.3,71.5,1.2
			c6.8-3.2,11.3-9.9,15.8-15.8c1.8-2.4,1.6-6.5,4.1-9.5c1.1-1.3,0.4-3.9-0.5-5.8c-5-10.4-13.8-16.8-23.3-22.5
			c-2-1.2-4.5-0.5-6.9-0.3c-7,0.8-13.8,0.7-20.4-2.6c-8.9-4.5-14.7-15.8-11.8-25.2c4.9-15.6,14.1-27.8,29-35.2
			c2.3-1.2,4.9-2.2,6.7,0.5c2,3.1-0.8,4.3-3,5.6c-12.1,7.2-20.6,17.3-25,30.6c-2.4,7.1,4.2,16.9,11.7,18c0.3,0,0.7,0,1,0
			c3.3-0.1,7,0.7,9.9-0.4c3.4-1.4,1.7-5.9,2.7-8.9c8.4-25.4,16.5-51,24.8-76.4c4.5-14,5.5-28.8,10.2-42.7
			c7.9-23.7,15.7-47.4,28.9-68.8c1.9-3.1,3.5-5.9-2-7.4c-2.2-0.6-3.9-3-6.2-4.8c5.8,0.5,11,0.8,15.5-2.8c1.4-1.1,3.2-0.6,4.8-0.7
			c4.5-0.4,6.1-3.3,4-7.2c-1.2-2.2-2.4-4.4-2.6-7c-0.1-1.7-1-3.9,1.1-5c2.2-1.2,3.9,0.4,5.1,1.9c4,4.9,8,9.8,11.7,14.9
			c5.5,7.7,11.7,14.3,20.7,18.1c11.8,5,22.7,1.3,30.6-8.8c8.4-10.7,8.7-20.7,2.3-32.1c-4.4-7.8-7.5-16.4-12.3-23.9
			c-5.6-8.8-13.5-15.5-23-20.1c-2.7-1.3-5.7-2-8.2-3.5c-13.3-7.9-27.7-8.2-42.5-6.5c-0.7,0.1-1.4,0.2-2,0.1
			c-12.9-2.3-19.2,6.8-25.8,15c-15.9,20-21.7,44-25.7,68.4c-0.9,5.8-3.3,10.9-4.4,16.5c-1.4,7.1-2,14.1-1.7,21.3
			c0.2,5-2.3,8.2-6.4,8.5c-4,0.3-7.1-2.7-7.5-7.6c-0.7-9-0.5-18,2.9-26.6c1.4-3.4,0.6-5.5-2.3-8C487.1,264,427.5,211.5,367.9,159
			C247.2,52.8,126.4-53.5,5.7-159.8C4.3-161,3.2-162.9,1-163c0-6.7,0-13.3,0-20c1.9-1,2.5,1,3.4,1.8c45,39.6,89.9,79.3,134.8,119
			c28.1,24.8,56.3,49.6,84.4,74.4c16.8,14.8,33.6,29.6,50.4,44.4c23.1,20.2,46.2,40.4,69.3,60.6c17.9,15.8,35.8,31.7,53.7,47.4
			c21,18.5,42.2,37,63.2,55.5c13.1,11.5,26,23.2,39.1,34.7c16.9,15,33.8,29.9,50.8,44.8c4.3,3.8,4.7,3.4,6.2-2.7
			c2.8-11.6,5.2-23.5,10.3-34.2c5-10.7,11.5-20.8,18.7-30.2c3.2-4.2,7.4-7.7,11.3-11.4c3-2.9,6.9-4.6,11-4.8
			c5.8-0.2,11.5-1.7,17.3-1.9c13-0.4,26.2-0.3,38.3,5.9c1.1,0.5,1.7,1.4,3-0.5c8.6-13.5,16.3-15.1,30.9-13.3
			c19.2,2.3,35.6,10.7,48.8,24.9c1.9,2.1,3.6,2.3,6.5,1.1c20.9-8.7,41.5-9.9,61.4,3.1c3.6,2.3,7.4,4.3,11.2,6.2
			c15.2,7.8,22.6,21.2,26,37.1c3.7,17.6,1.4,33.9-12.4,47.1c-2.5,2.4-3.2,5.8-2.2,9.1c0.5,1.7,0.7,3.1,0,4.8
			c-7.5,16.8-12.2,34.7-19.3,51.6c-1.5,3.6-2.3,7.6-4.4,10.9c-3.5,5.6-0.4,11.9-2.4,17.6c-0.2,0.4,0.7,1.4,1.3,1.9
			c8.7,7.2,8.1,17.1,7.2,26.6c-2.7,28.3-16.7,51.4-34.9,72.2c-8.6,9.8-18.8,17.9-30.8,23.8c-9.2,4.5-19.7,1.3-24.6-6.2
			c-1.6-2.5-3.2-3-5.7-2c-2.4,0.9-5.3,1.1-7.4,0.2c-7.7-3.2-13.2,1-19.1,4.5c-6.6,4-13.8,6.6-20.8,9.5
			c-16.8,6.9-33.3,14.5-50.9,19.4c-8.3,2.3-16.7,3.6-25-0.2c-0.7-0.3-1.2-1.4-2.1-0.6c-5.3,4.7-12.3,7.3-16.5,13.4
			c-4.3,6.1-10.6,9.2-17.2,12.5c-17.3,8.6-35.6,7.2-53.9,6.8c-2.3,0-4.8-0.9-6.8-2c-10.2-5.7-21.6-10.1-28.5-20.1
			c-7.4-10.8-12.7-22.3-13.7-36.1c-1.8-23.9,4.7-45.9,12.7-67.8c1.2-3.3,2.9-6.6,5.1-9.4c2-2.6,2.7-4.9,1.5-7.9
			c-0.5-1.2-1.3-2.6-1.1-3.7c2.7-13-8.3-17.1-15.3-23.8c-5.3-5.2-10.9-10.1-16.3-15.1c-8.5-7.8-17-15.5-25.5-23.3
			c-6.5-5.9-12.9-11.8-19.4-17.6c-8.3-7.5-16.5-14.9-24.8-22.5c-6.8-6.2-13.6-12.5-20.4-18.8c-8.1-7.4-16.3-14.8-24.4-22.2
			c-6.7-6.1-13.3-12.3-20.1-18.4c-8.5-7.7-17.2-15.2-25.7-22.9c-5.8-5.2-11.4-10.6-17.1-15.8c-5-4.6-9.7-9.4-14.8-13.9
			c-9.8-8.5-19.6-17.1-29-26c-8.5-8.1-17.3-15.8-25.9-23.7c-8.4-7.8-16.9-15.4-25.6-23c-12.4-10.8-24.4-22.2-36.6-33.3
			c-13.4-12.1-27-24-40-36.5c-9.9-9.5-20.1-18.6-30.3-27.8c-12.2-11-24-22.4-36.6-33C25,32.2,19.2,26.2,13.1,20.6
			C9.2,17,5.1,13.5,1,10C1,4.3,1-1.3,1-7z M687.9,454c-2.9,8.6-6.7,17-7.4,26.3c-0.1,1.8-0.4,3.7-0.2,5.5c0.2,3.3-1.3,6.9,2,9.8
			c6.7,5.8,13.1,11.8,19.7,17.7c4.5,4,9.6,7.2,15.1,9.6c3.5,1.5,5.4,1.9,5.1-3.2c-0.5-9.2,0.4-18.2,2.5-27.3
			c6.2-26.9,22.7-47.4,40.7-67.1c2.1-2.3,4.8-4.7,8.1-4.4c5.9,0.6,10.6-3,16.8-3.4c-1.1-1.2-1.6-1.9-2.1-2.4
			c-10.2-9.3-22.1-16-34.1-22.4c-4.3-2.3-9-2-13.7-1.5c-11.3,1.4-19.9,8.4-27,15.8C700.7,420,693.1,436.6,687.9,454z M824.9,334.9
			c-7.2,1.2-14.3,2.7-21.7,1.2c-10.7-2.1-17.3-8.4-19-19.1c-0.3-1.9-1.1-2-2.6-2c-3.4,0.1-6.7,1.4-9.8,1.9
			c-4.9,0.8-7.1,3.7-10.2,6.4c-10.3,8.9-22,10.3-34.5,5.5c-5.3-2-8.8-6.5-12.2-11.4c-1.6,2.4-2.7,4.3-4,6
			c-5.3,6.8-12,12.6-20.7,12.4c-10.9-0.3-15.7,5.3-18.6,14.4c-0.6,1.9-1.6,3.7-2.3,5.5c-6.9,19.3-13.1,38.8-23.3,56.7
			c-1.4,2.4-2.1,5.2-3.1,7.9c-4.1,10.4-5.5,21.6-10.4,31.7c-3,6-5,12.4-6.2,18.9c-1.5,8.3-4.6,15.9-8.1,23.5
			c-4.7,10.5-6.4,22-9.5,33c-2.2,8-1,16.9-1.6,25.3c-0.2,2.3,0.5,2.9,2.6,2.9c3.6,0,6.9-1,10.2-2c25.3-7.6,48.4-20.9,74.4-27.8
			c-7.8-7-15.1-13.7-22.6-20.2c-4.1-3.5-5.8-7.5-6.1-12.9c-0.9-15,3-29,8.1-42.8c9.3-25.3,19.7-49.6,44.5-64.7
			c14.9-9.1,29.4-11.9,45-3.7c12.2,6.4,24,13.4,34.5,22.7c9.3-23.1,18.4-45.9,27.6-68.7c0.5-0.3,0.8-0.6,0.2-1.1
			C825.4,334.2,825.1,334.7,824.9,334.9z M593.8,545.8c-1.1-17.5,6.2-33,10.1-49.1c0.5-1.9,1-3.9,2-5.6c5.1-8.4,7.9-17.5,9.8-27
			c1-5.2,3.4-10.1,5.1-15.1c7.8-22.8,15.9-45.4,26.4-67.2c7.3-15,10.9-31.8,20-46.1c0.9-1.5,1-2.3-0.8-3c-10.1-4-16.3-12.2-22-20.9
			c-0.5-0.8-0.9-2.8-2.4-1.4c-2,1.9-4.9,2.7-5.5,6.1c-1.2,6.8-4.3,13-7.8,18.8c-12.1,20-18.9,42.1-25.7,64.2
			c-4.9,15.7-6.6,32.2-12.1,47.8c-8.1,23.2-15.9,46.6-23.8,69.9c-0.7,1.9-1.8,3.5,1.1,5.3C578,528.7,587.8,534.9,593.8,545.8z
			 M736.5,512.3c0,4.8-0.7,10.7,3.1,15.8c2.4,3.3,5,4.6,8.9,2c4.4-3,9-5.6,13.2-9c15.8-12.8,26.3-29.4,35-47.3
			c5.3-10.8,7.2-22.4,7.2-34.4c0-4.7-2.1-7.4-6.7-8.5c-5.1-1.2-10.2-0.9-15.4-1c-4-0.1-7,1.5-9.4,4.6c-6.6,8.4-13.3,16.6-19,25.6
			C743.3,475.8,737,492.6,736.5,512.3z M689.5,215.6c-4.9-0.9-9.2,1.7-13.2,5.2c-2.9,2.5-3.2,3.7,0.9,5.8
			c11.9,6.3,22.1,14.8,28.9,26.7c3.8,6.8,7,14,10.2,21.1c4,9,8.3,18,6.7,28.2c-0.4,2.6,0.3,4.4,1.7,6.4c6.9,9.9,20.5,10.7,29.1,2.1
			c6.5-6.5,8-14,6.9-22.8c-1.6-13.5-3.2-26.9-12.4-37.7c-3.1-3.7-6.8-6.6-9.9-10.5C726.1,224.9,709.8,216.7,689.5,215.6z
			 M757.7,243.1c7.1,7.6,10.9,15.6,13.3,24.4c0.6,2.1,1.4,2.5,3.5,1.9c3.8-1,7.5,0.2,10.2,2.6c11,9.6,19.7,22.7,15.4,38.9
			c-2.1,7.9,0.4,10.7,8.7,11c15.2,0.5,26.4-8.9,28.6-24c2.7-18.5-5.2-35.1-21.3-44.5c-5-2.9-10.2-5.6-15.2-8.5
			C787.1,237.1,773,239.1,757.7,243.1z M774.9,282.5c0,7.1,0.9,13.1-0.3,18.8c-1.2,5.6,0.7,6.2,5.1,5.6c0.7-0.1,1.3-0.1,2,0
			c3.9,0.6,5-1.7,4.8-4.9C786.1,293.9,781,288.5,774.9,282.5z"/>
		<path class="st0" d="M1921,307c-13.8,2.1-27.3,5.8-40.9,8.6c-83.8,17.4-166.6,39.5-250,58.7c-27.6,6.3-55.3,11.8-83.1,16.8
			c-1.5,0.3-2.9,0.6-4.4,1c-1.1,0.1-2.3,0.2-3.4,0.4c-11.3,1.8-22.6,3.9-34,5.1c-4,0.4-8.2-0.2-12.1,1.4l0.1,0
			c-1-0.5-1.9-0.4-2.9-0.1c-6.6,0.1-13.2,0.1-19.8,0.2c-8.4-0.3-16.7-0.5-25.1-0.8c-20.9-1.4-41.9-1.7-62.7-5.2
			c-14.6-2.5-29.2-5.1-43.8-7.5c-20.5-3.3-38.3,1.3-52.1,17.8c-8.9,10.6-9.3,33.4-0.8,44.4c2.6,3.3,4.7,4.8,9.3,1.9
			c12-7.4,24.8-13,39.5-11.8c3,0.2,5.9,0.7,8.3,3.1c-1.6,2.3-3.9,2.8-6.3,3.4c-9.6,2.4-18.5,6.5-26.8,11.8c-2.6,1.6-5.6,2.8-6.2,6.6
			c-0.3,1.9-2.4,2.5-4.3,2.9c-10.1,2.3-20.9,13.6-22.3,23.7c-0.6,4.8-0.2,9.6-0.3,14.5c-0.1,3.2,1.5,3.4,4.1,2.9
			c8.4-1.6,16.1-5.1,24.1-8.1c3.6-1.3,7.2-2.6,10.9-3.7c2.7-0.8,5.2,0.1,6.1,2.9c0.9,2.9-1.9,3.4-3.8,4.2
			c-14.2,5.8-28.2,12.3-43.4,14.7c-23.8,3.7-47.4,10.9-71.7,8.1c-17.4-2-34.7-6.3-51.2-12.6c-15.4-5.8-31.6-9.3-45.9-18
			c-6.4-3.9-13-7.4-19.5-11c-7.3-4-14-3.3-20.2,2.3c-10.5,9.5-15.8,21.4-17.3,35.4c-2.2,20.8,9.4,34.3,23.9,46.1
			c23,18.8,49.8,28.6,79,33.3c47.1,7.5,92.1-0.5,136.2-16.3c39.1-14,76.9-31.4,115.7-46.5c15.6-6.1,31.6-11.2,47.9-15.1
			c-8.9,7.6-19,13.3-29.1,19.1c-0.7,0.4-1.9,0.2-2.2,1.6c1.1,0,2.2,0.4,3.2-0.4c3.6-0.8,7.1-1.7,10.7-2.3c1.5-0.3,3.8-0.9,4.4,1
			c0.5,1.5-1.4,2.5-2.7,3.2c-8.3,4.3-17,7.6-26.1,9.6c-2.9,0.6-6.1,1.3-8.9-0.5c-1.4-0.9-2.5-0.2-3.7,0.4
			c-4.6,2.3-10.2,3.6-13.6,7.1c-3.7,3.7-0.5,9.7-1.4,14.7c-0.2,1.3,0,2.7-0.2,4c-2,13.2,3.8,22.3,15,28.3
			c12.7,6.8,25.1,14.9,39.8,16.5c29.3,3.1,57.1-1.7,82.1-18.1c16.1-10.6,25.4-26.4,32.2-43.9c0.5-1.3,0.3-2.5,0.2-3.9
			c-1.2-9.3,0.3-18.6-0.2-27.9c-0.2-3.4,1.7-6.1,5.1-7.2c3.2-1,3.9-2.8,3.1-6c-0.6-2.3-1.6-5.8,0.5-6.9c2.8-1.6,6.1,0.4,7.8,2.9
			c2.7,3.7,5.3,3.4,9.2,2c31.1-11.4,63.4-17.8,95.9-23c40.8-6.5,81-15.3,121.4-23.7c41.2-8.5,82.6-16,124-23.3c1-0.2,2-0.1,3-0.2
			c0,5,0,10,0,15c-7.9,0.1-15.6,2.3-23.3,3.6c-15.2,2.4-30.2,5.4-45.3,8.2c-14,2.6-28,5.4-42,8.2c-14.6,2.9-29.2,6-43.8,8.9
			c-12.5,2.5-25.1,4.7-37.5,7.5c-13.9,3.1-28.1,4.5-42,7.8c-9,2.2-18.3,3.1-27.3,4.4c-15,2.1-29.7,5.1-44.5,8.2
			c-13.3,2.8-26.1,7.6-39.2,11.3c-1.6,0.4-1.9,1.5-2,3c-0.8,33.6-13.9,61.8-38.8,84c-14.6,13.1-32.7,19.6-51.7,24
			c-16,3.7-32.2,3.4-48.4,2.8c-7.6-0.3-15.1-2.9-21.9-6.3c-9.9-5-20.2-9.3-29.4-15.7c-8.8-6.1-14.9-14.6-17.4-24.6
			c-1.4-5.8-1-12.4,0.5-18.5c0.6-2.4-1.1-4.9,1.1-7.3c-5.3-0.7-9.1,2.5-13,4.4c-11,5.2-22.2,9.7-33.4,14.4
			c-21,9-42.4,16.6-64.5,22.3c-7.6,1.9-15.4,3.3-23.1,4.9c-22.6,5-45.4,4-68.1,3.6c-10.7-0.2-21.3-2.6-31.7-5.3
			c-8.1-2.1-16.5-3.4-24.4-6.5c-17.2-6.8-33.2-15.7-47.5-27.4c-10.7-8.8-20.4-19-25.3-32.2c-2.9-7.7-5.4-15.7-3.4-24.6
			c1.4-6.2,0.8-12.7,3.3-18.9c5.4-13.3,11.8-25.6,24.7-33.3c10-6,19.9-5.7,29.9-0.3c12.2,6.5,23.5,14.6,36.5,19.5
			c19.3,7.3,38.5,14.9,58.5,20.6c14.2,4,28.1,6.5,42.6,4.6c10.8-1.4,21.5-3.6,32.2-5.4c1.3-0.2,1.9-0.1,1.8-2.5
			c-0.2-6.8-2.5-13.4-0.5-20.5c2.5-8.7,5.9-16.6,12.7-22.5c3.4-2.9,3.5-4.6,0.3-8c-5.2-5.6-8-12.5-8.9-20.5
			c-0.9-8.5-1.5-16.9,0.2-25.3c1.2-6.2,5-11,8.8-15.5c7.7-9.1,17-16.6,28.5-20.6c3.9-1.4,7.9-2,12-2.3c14.7-1.2,29,1.2,43.4,4
			c18,3.5,36.1,6.3,54.4,7.4c22.2,1.3,44.4,2.7,66.7,2.1c22.1-0.5,43.9-4.1,65.6-8.3c27.5-5.2,54.9-10.8,82.2-17.1
			c25.5-5.9,50.9-12.2,76.2-18.9c25.6-6.8,51.4-13,77.2-19c32.3-7.6,64.8-14.5,97-22.3c11.9-2.9,24.3-4.1,35.8-8.7
			c1.7-0.7,4-0.1,6-0.1C1921,296.3,1921,301.7,1921,307z"/>
		<path class="st0" d="M605,1272c0.8-2.9,1.7-5.7,2.6-8.7c-2.1-0.4-4-0.2-6.1,0.2c-0.6-9.4,5.7-15.6,11.2-22.2
			c12.7-15.3,28.5-27.1,44.7-38.3c13.1-9.1,24.4-20.2,35.1-31.8c11-11.9,15-26.9,16.4-42.5c1-10.9,0.9-22,1.3-32.9
			c0.1-3.4,0.1-6.8,3.7-8.6c0.9-0.5,0.9-1.2,1-2.1c2.1-18.6-5.7-33-25.3-35.6c-3.9-0.5-7.9-0.7-11.4-3.1c-7.5-4.9-6.3-12.2-5.5-19.3
			c1.2-9.9,4.1-19.5,3.5-29.7c-0.4-6.6-2.9-9.2-9.4-9.4c-5.2-0.1-10.2,0.6-15.2,2.3c-11.4,3.9-21.8,0.7-31-6
			c-4.5-3.3-6.4-8.7-6.5-14.5c-0.4-18.9,3.6-37,11.1-54.3c11.8-27.4,19.5-56.1,26.3-85.2c3.3-14.1,7.1-28,6-42.8
			c-1.2-15.4-2.3-30.9-6.2-45.9c-6-23-20.2-40.1-38.9-53.9c-5.3-3.9-11.2-4.8-17.4-2.1c-0.9,0.4-1.9,0.8-2.9,0.9
			c-10.1,0.7-12.9,7.8-14.4,16.2c-4.9,27.8-4.9,55.5,0.8,83.3c4.7,23.2,5.4,46.6-1.3,69.7c-10.9,38-18.3,77.1-31.6,114.4
			c-2,5.6-4.2,11.2-6.3,16.8c-1.2,3-2.9,5.8-6.6,6c-2.3,0.2-2.3,2.2-2.9,3.5c-7,15.1-13.8,30.3-20.8,45.4c-1,2.1-2.2,4.1-3.6,6
			c-1.2,1.6-2.9,2.2-4.9,1.4c-1.9-0.7-3.1-1.9-3.3-4c-0.2-2.4,0-4.6,1-6.8c2.8-6.4,5.5-12.8,8.4-19.7c-9.3,0.4-17.5,2.5-24,8.7
			c-6.4,6.1-11.8,13.1-16,20.9c-11.8,22-20.2,45.2-24.2,69.9c-1.4,8.6-2.6,17.1-0.7,25.8c1.6,7.6,5.1,13.5,12.7,16.6
			c5.8,2.4,11.5,5.2,17,8.2c12.1,6.7,15.2,21.5,6.6,32.4c-2.7,3.4-4.3,7-5,11.1c-3.6,20.4-10,40-16.5,59.6c-4.3,0-8.7,0-13,0
			c2.1-6.9,4.2-13.8,6.4-20.7c4.5-13.9,8.7-27.8,11.7-42.1c1.3-6.2,2.7-12.5,5.1-18.3c2-4.9,0-6.9-3.6-9c-6.9-4-14.5-6.5-21.3-10.9
			c-9.8-6.4-13.2-15.8-15.3-26.5c-2.3-11.8,0.8-23,2.9-34.4c2.3-12.9,5.5-25.4,10.3-37.5c5.7-14.4,11.4-29,20.7-41.6
			c8.1-11,17.4-20.9,32-23.4c2.1-0.4,4.3-0.5,6.4-0.7c7.2-0.7,14.2-1.5,17.8-9.4c4.4-9.5,11.5-17.7,14.5-27.8
			c5.9-20.1,11.8-40.2,16.3-60.6c3.4-15.4,7.5-30.6,11.3-45.9c1.8-7.4,4.5-14.6,5.8-22.1c2-11.6,3.2-23.3,0.4-35.2
			c-1.4-5.7-0.7-11.9-2.1-17.8c-1.7-6.9-2.9-14-4-21.1c-0.4-2.7-0.1-5.6-0.1-8.4c0-12.5-0.8-25,0.2-37.4c0.8-11,2-22.1,6.1-32.5
			c3.1-7.7,8.2-14,17.3-15.7c4.8-0.9,9.4-3,14.2-3.9c11.6-2.2,21.5,2.4,30,9.5c22.9,19.2,39,42.6,43.3,73.1
			c2.5,18.2,5.3,36.3,3.8,54.7c-0.8,9.9-3.9,19.4-6.1,29.1c-6.3,27.2-13.8,54.1-24,80.1c-3.8,9.8-8.6,19.2-10.3,29.7
			c-1.1,6.5-2.3,13-2.5,19.6c-0.2,7.1,1.6,9.1,8.6,10.1c3,0.4,6,0.5,8.8-0.9c8.9-4.2,18.5-3.1,27.6-1.9c8.1,1.1,15.8,11.5,17,19.3
			c1.7,11.5-0.4,22.7-2.6,33.9c-1.4,6.8-1.1,7.3,5.7,8.5c31,5.6,44,37.5,29,62.4c-2.9,4.8-3.2,9.5-2.6,15
			c2.8,28.8-3.1,54.7-23.9,76.5c-13.8,14.4-29.4,26.3-45.3,37.9c-10.7,7.9-20.4,17-29.8,26.3c-0.9,0.9-1.9,2-2.2,3.2
			c-1.5,5.5-2.8,11.1-4.2,16.7C612.3,1272,608.7,1272,605,1272z"/>
		<path class="st0" d="M1047.1,781.9c-5-0.6-8.8-4-12.7-6.6c-50.2-33-89.3-76.4-119.4-128.2c-7.3-12.6-12.1-26.2-16-40.2
			c-2.1-7.6-0.6-15.3-1.1-22.9c-0.6-8,1.3-16-3.6-23.8c-3.9-6.2-5.3-13.9-8.3-20.8c-2.9-6.7-8.6-10.1-15.8-10.4c-4-0.2-8,0.1-12,0.5
			c-6.8,0.8-11.6,4.4-14.6,10.7c-7.7,16.2-10.6,32.7-5.6,50.3c3.6,12.5,4.6,25.6,9.4,37.7c6.4,16.1,15.1,30.7,26,44.1
			c0.6,0.8,1.4,1.5,1.9,2.3c21.6,35.4,50.5,65.7,71.4,101.6c0.4,0.7,0.9,1.4,1.3,2.1c1.4,2.9,3.1,5.8-0.2,8.5
			c-2.3,2-4.6,1.5-8.3-1.9c-5.9,9.4-13.9,16.8-22.5,23.7c-6.8,5.4-13.6,10.8-18.2,18.3c-6.1,10-7,20.3-1.7,30.8
			c3.1,6.1,6.6,12,10.2,17.7c5.3,8.2,4,16.1-4.8,19c-17.2,5.6-21.8,19.1-23.5,34.8c-1.7,15.2-2.4,30.5-2.2,45.9
			c0.1,4.2,1.4,7.7,4,10.9c9,11,19.6,19,34.7,18.7c3.5-0.1,6.9-0.6,11.2-2.3c-5.8-4.4-10.5-9.3-17.1-11.4c-5-1.6-7.2-4.5-6.3-8.5
			c0.9-4.1,4.2-5.9,9.3-5.4c5,0.5,9.1,2.9,13.1,5.7c17.2,12.1,32.6,26.4,48.2,40.4c43.8,39.1,88.8,77,129.9,119.1
			c39.8,40.7,77.3,83.6,114.1,127.1c0.6,0.7,1.7,1.3,0.8,2.4c-7,0-14,0-21,0c-6.5-9.5-14.7-17.6-22-26.5
			c-9.5-11.6-20-22.3-29.6-33.8c-7.5-9-16.1-16.9-23.8-25.8c-9.6-11.1-20.2-21.2-30.1-32c-10.1-11.1-21.6-20.9-32.4-31.3
			c-10.9-10.5-22.5-20.2-33.5-30.6c-11-10.4-22.5-20.2-33.6-30.4c-12-11-24.1-22-36.5-32.6c-6.7-5.7-13.1-11.9-19.7-17.7
			c-1.7-1.5-3.3-1.9-5.6-0.2c-9.4,6.7-32.3,5.6-43-3.5c-1.4-1.2-2.8-2.1-5-2.9c1.4,3.9,2.6,7.3,4.1,11.7c-5.8-2.9-9.5-6.6-12.6-11.2
			c-6.2-9.3-9.8-19.5-11.5-30.7c-2.1-13.5,0.3-26.8,0-40.1c-0.2-9.3,1.3-18.4,4.2-27c3.4-10.1,9.8-18.5,19.8-23.1
			c4.5-2.1,3.4-4.2,1.5-7.2c-3.9-6.3-8.6-12.4-10.2-19.7c-2.8-12.4-2.5-24.9,4.2-36.3c7.2-12.5,18.4-20.9,29.9-29.2
			c5.8-4.3,11.3-9.5,15.2-15.8c1.9-3,1.3-5.9-0.8-8.8c-7.1-9.7-14.3-19.4-21.1-29.4c-1.3-1.8-2.7-3.2-4.2-4.7
			c-10.4-10.3-18.8-22.1-26.6-34.5c-8.2-13-19.2-23.9-27.5-36.9c-8.5-13.2-16.1-26.9-20-42.2c-2.8-11.2-6.7-22.3-8.1-33.6
			c-1.9-15.2-1.1-30.7,5.5-45.2c2.5-5.4,4.8-10.8,8.5-15.7c4-5.2,8.8-8.5,14.8-9.9c12.6-2.8,25.1-3.6,36.9,3.4
			c6.7,3.9,9.1,11.1,13.5,16.8c1.8,2.3,3,4.8,5.7,6.5c3.5,2.3,3.4,6.5,3.7,10.3c0.7,9.1,0.8,18.3-0.2,27.3
			c-1.7,15.9,2.6,30.3,9.3,44.4c10.7,22.3,25.1,42.1,40,61.7c19.9,26.3,43.7,49,67.9,71.3c8.2,7.5,15.9,15.5,21.9,25L1047.1,781.9z"
			/>
		<path class="st0" d="M1384,1272c-15.6-16.7-32-32.4-48.2-48.5c-40.8-40.6-82.2-80.8-121.3-123.1c-24.8-26.8-48.2-54.8-65.3-87.3
			c-0.3-0.6-0.5-1.2-2-1.2c-0.2,8.4-2.3,16.9-0.8,25.1c-7.4-10.6-10.1-21-9.7-40.4c0.1-5.9-0.4-11.5-2.5-17.1
			c-2.4-6.5-3.1-13.3-1.5-20.1c1.2-4.8,3.3-6.1,7.9-4.4c2,0.7,2.5,0.3,3-1.5c9-31.7,25-60.5,38.1-90.4c7.5-17.2,5.6-32.7-5.7-47.8
			c-12.8-17-29.7-28.4-48.7-37.1c-7.3-3.3-15.1-3.6-23-3.6c-2.4,0-3.6,1.1-4.4,3.1c-2.9,7-7.1,13.1-10.9,19.6
			c-2,3.5-3.5,7.4-0.3,11.3c0.7,0.9,1.2,2.4,0.4,3.3c-3.4,3.4-0.2,4.8,1.7,6.7c9,9,19,16.7,28.8,24.7c2.1,1.7,6,3.6,3.7,7.1
			c-2.1,3.2-5.5,1-8.2,0c-3.5-1.2-6.5-3.3-9.4-5.5c-12.7-9.6-23.8-20.8-33.7-33.3c-2.2-2.8-4.6-5.7-4-9.8c0.3-2.1-1.6-3.2-2.7-4.5
			c-4.2-4.8-8.4-9.4-12.5-14.2c-1.1-1.3-2.7-2.6-2-4.5c6.4,5.9,12.8,11.8,19.4,17.9c6.5-7.2,11.6-16,15.9-25.4
			c3.7-8.2,6.6-11.9,16.6-12.1c16.6-0.3,31.8,4,46.1,12.4c15.9,9.3,29.9,20.6,40.9,35.6c14.9,20.4,16.3,41.6,6.1,64.3
			c-10.7,23.9-22.6,47.2-31.9,71.7c-5.1,13.6-8.8,27.5-12.6,41.4c-0.6,2.2-0.4,4.5,0.8,6.7c12.4,23.2,27,45,43.8,65.2
			c41.6,50.2,89.6,94.3,135.6,140.2c23.9,23.9,48.1,47.4,71.9,71.3c1.1,1.1,3.2,1.8,2.6,4C1398.7,1272,1391.3,1272,1384,1272z"/>
		<path class="st1" d="M975,973.9c-1.8-8.8-6.2-16.7-9.2-25.1c-2.5-7-2.2-14.4-0.2-21.6c0.6-2.2,1.2-4.6,1.2-6.8
			c-0.1-6.2,1.4-11.7,5.7-16.4c1.9-2.1,2.2-4.1-1-6.9c-4.3-3.8-8.2-7.6-13.9-9.4c-2.8-0.9,0.4-2.2,0.4-3.4c0.2-4.9,3-6.8,7.5-5.7
			c2.2,0.5,4.1,0.6,6.2-0.6c3.1-1.8,6.4-1.2,9.7-0.3c3.7,1.1,4.5-0.4,3.4-3.7c-1.6-4.7-3-9.6-4.8-14.2c-2-4.8,0.8-8.3,3.2-11.5
			c2-2.6,5.7-0.7,7,0.5c4,3.7,9.5,6.1,11,12.3c0.7,3.2,3,3.9,6.5,2.7c8.2-2.7,16.5-4.1,24.7,0.9c9,5.5,18.4,11.1,21.7,21.7
			c4.1,12.9,5.9,26-2.8,38.1c-1.3,1.8-1.8,4.1-5.2,3.3c-2.1-0.5-3.3,1.7-2,3.7c1.6,2.5,3.2,4.9,7,4.6c2.6-0.2,5.5,0.1,7.7,2.3
			c2,2,3.6-0.2,5.2-0.9c1.9-0.8,3.7-3,5.8-0.9c2.2,2.2,1.8,4.7,0,7.2c-3.4,4.7-6.8,9.4-10.3,14.1c-2.8,3.8-7.1,2.8-10.7,2.3
			c-5.2-0.7-10.7-0.2-15.7-2.5c-0.9,2.6-0.5,4.9-0.3,7.2c-2,1-0.9,2.3-0.4,3.7c0.9-1.3,0.5-2.6,0.4-3.8c1.4,3.9,2.4,8,3.1,12.1
			c-0.4,0-0.7,0-1.1,0c0.3-0.9,0.4-1.9-0.6-3.1c-0.2,1.4-0.7,2.3,0.7,3c-0.2,1-0.2,1.9,0.5,2.8c0.8-0.8,0.5-1.8,0.4-2.8
			c1.8,4.4,3.2,9,5.4,13.3c5.4,10.8,9.9,22.2,20.6,29.3c2.9,1.9,2.7,2.7,1.8,3.5c-2.9,2.8-1.2,11.7-9.6,7.1
			c-11.4-6.3-23-12.5-34.4-18.9c-3.6-2-7.1-4.3-11.1-5.7c-10.4-3.7-18.9-10.1-25.8-18.6c0,0,0.1,0.1,0.1,0.1
			c-2.2-5.6-5.9-10.6-8.1-16.4C975,971.8,975,972.9,975,973.9L975,973.9z M1031.6,964.5c0.8-3.1,0.9-4.9,0-7
			C1030.5,959.6,1031,961.4,1031.6,964.5z M1033.3,970.4c-0.1,0.6-0.2,1-0.1,1.5c0,0.2-0.1,1.3,0.7,0.5c0.2-0.3,0.2-0.9,0.1-1.4
			C1033.9,970.8,1033.6,970.7,1033.3,970.4z M1036.9,982.2c-0.1-0.3-0.2-0.5-0.3-0.8c-0.1,0.1-0.3,0.2-0.3,0.3
			c0,0.3,0.1,0.6,0.1,0.9C1036.5,982.4,1036.7,982.3,1036.9,982.2z"/>
		<path class="st1" d="M840.7,173.2c-5.7-1.5-11.2,0.7-16.5-1.4c-1.7-0.7-2.8,0.7-3.3,2.7c-1.1,5-2.4,9.9-3.8,14.8
			c-1.2,4.4-5.6,8-8.6,7.3c-5-1.3-7.3-5.4-6-11.1c6-26.8,15-52.7,25-78.2c1.3-3.3,2.5-6.7,3.7-10c1.4-4.2,4.3-6.1,8.7-5.3
			c3.1,0.6,5,5.3,3.6,9.6c-4,12.9-8.2,25.7-12.3,38.6c-1.6,4.9-3,9.7-4.7,14.6c-0.9,2.4-0.4,3.5,2.3,3.3c5.1-0.4,10.3-0.7,15.4-1.1
			c2.7-0.2,4-2.2,4.8-4.4c5.2-13.9,11.1-27.4,17.9-40.6c1.1-2.2,2.3-4.3,3.7-6.3c1.4-2,2.9-4.5,5.8-3.2c2.9,1.3,4.1,4.1,3.1,7.1
			c-2.3,7-4.9,14-7.4,20.9c-2.3,6.5-4.7,13-7.1,19.5c-1.3,3.4,0,4.4,3.3,4c5.6-0.7,8.7,1.1,10.1,5.5c1.3,4.3-1.1,9.5-5.5,11.5
			c-3.7,1.7-7.7,2.9-11.6,1.9c-3.8-1-4.5,0.9-5.2,3.5c-1.8,7.2-4.8,14-5.7,21.5c-0.3,2.7-1.1,5.3-3.7,7.2c-2.8,2-5.4,2.8-8,0.7
			c-2.9-2.3-5.6-4.8-4.6-9.5C836,188.5,838.3,180.8,840.7,173.2z"/>
		<path class="st1" d="M889.8,185.6c0.7-7.5,3.8-13.4,6.7-19.1c7.7-15.3,14-31.2,21.3-46.7c1.5-3.2,3.7-6.2,5.3-9.4
			c1.6-3.3,4-5.1,7.4-3.9c4,1.4,4.2,5.1,3.2,8.4c-1.5,5.2-3.6,10.3-5.5,15.3c-6.3,16.5-13.2,32.7-21.1,48.5c-1.3,2.6-2.3,5.5-3,8.3
			c-1.1,4.5-4,6.5-8.4,5.8C891.3,192.1,890.9,188.1,889.8,185.6z"/>
		<path class="st1" d="M590.8,153.1c6.5,0.4,14.5,2,21.4,7.1c1.2,0.9,2.6,1.8,3.1,3.1c0.6,1.5,2.3,3.3,1,4.9c-1.3,1.5-3,0.1-4.6-0.3
			c-7-1.8-13.5-5.5-21.1-5.7c-9.9-0.2-17.1,5.1-24.2,10.8c-2.2,1.8-4.1,3.9-6,6c-1.8,1.9-3.9,2.4-5.7,0.7c-1.5-1.4-2.1-3.5-0.6-5.8
			C562.2,161.1,573.1,153,590.8,153.1z"/>
		<path class="st1" d="M617.1,189.7c-3.8,3.1-7.8,4.4-12,5.3c-11.1,2.4-21.3,6.8-30.5,13.6c-2.3,1.7-4.4,3.4-5.8,5.9
			c-1.4,2.5-2.7,4.8-6.4,2.4c-3.6-2.4-2.3-5-1-7.5c4.6-8.9,12.5-14,21.4-17.7C593.7,187.2,604.9,184.6,617.1,189.7z"/>
		<path class="st1" d="M1126.2,440.8c-0.5,1.2-0.8,2.7-1.6,3.9c-1.4,2.2-2.8,3.2-4.5,0c-4-7.3-7.1-15-10.1-22.8
			c-3.4-8.7-7.2-17.2-13.8-24.1c-1.2-1.2-2.3-2.5-1.3-4.4c1.2-2.4,2.9-0.7,4.3-0.4c8.2,1.6,12.6,7.8,15.7,14.6
			c4.5,9.8,8.9,19.7,10.8,30.4C1125.7,438.9,1125.9,439.7,1126.2,440.8z"/>
		<path class="st1" d="M1060.2,413.4c5.2,0.4,10.8,1.9,15.5,5.3c5.9,4.2,11.6,8.7,16.5,14.2c0.7,0.7,1.4,1.4,1.9,2.3
			c1.5,2.4,1.3,5.1-0.5,6.9c-1.9,1.9-4.6,0.4-6.2-0.8c-4.1-3-8-6.4-11.8-9.8c-4.5-4.1-9.8-6.5-15.4-8.3c-2.2-0.7-4.6-1.1-6.6,0.6
			c-1.3,1.1-2.7,2-3.7,0.3c-0.8-1.3-2-2.8-1.2-4.9C1050.6,413.9,1055.1,413.7,1060.2,413.4z"/>
		<path class="st1" d="M883.8,231c-6.1,0.5-9.8-6.2-10.6-13.3c-0.5-4.1,4.3-7.6,9.6-7.6c5.2,0.1,9,4.4,9.1,10.4
			C892,227.4,889.3,231,883.8,231z"/>
		<path class="st1" d="M983,986.9c-0.2,0.5-0.5,0.9-0.7,1.4c-0.8-0.6-1.1-1.4-1.2-2.4L981,986C981.7,986.4,982.4,986.7,983,986.9
			L983,986.9z"/>
		<path class="st1" d="M976,976.9c-1.1-0.8-0.8-2-1-3c0,0-0.1,0.1-0.1,0.1C976.2,974.7,975.7,976,976,976.9L976,976.9z"/>
		<path class="st1" d="M980,985c-0.3-0.7-0.6-1.3-1-2c0,0-0.1,0.1-0.1,0.1C979.9,983.4,979.9,984.2,980,985L980,985z"/>
		<path class="st1" d="M979,983c-0.9-0.4-0.9-1.2-1-2c0,0-0.1,0.1-0.1,0.1C978.3,981.7,978.6,982.4,979,983L979,983z"/>
		<path class="st1" d="M978.1,981c-1-0.3-0.9-1.2-1-2c0,0-0.1,0.1-0.1,0.1C977.3,979.7,977.6,980.4,978.1,981L978.1,981z"/>
		<path class="st1" d="M977.1,979c-1-0.4-0.8-1.3-1-2c0,0-0.1,0.1-0.1,0.1C976.9,977.4,976.8,978.3,977.1,979L977.1,979z"/>
		<path class="st0" d="M1047,782c0.2,0.2,0.3,0.4,0.5,0.7c-0.2,0-0.4,0.1-0.5,0c-0.4-0.3-0.4-0.5,0.1-0.7
			C1047.1,781.9,1047,782,1047,782z"/>
		<path class="st1" d="M981.1,986c-0.3-0.3-0.7-0.7-1-1c0,0-0.1,0.1-0.1,0.1C980.3,985.4,980.6,985.7,981.1,986L981.1,986z"/>
		<path class="st1" d="M1445.2,398.3c8.4,0.3,16.7,0.5,25.1,0.8c-18.4,8.3-33.3,20.1-39.9,40.2c-1.9,5.7-2.7,11.4-2.1,17.2
			c0.2,2-0.4,6.8,4.2,2.6c1.1-1,3.2-1,3.8,0.5c0.7,1.7,0.4,3.8-2.2,4c-3.5,0.1-2.6,1.8-1.7,3.9c4.1,10.2,13.4,13.3,22.6,16.4
			c21.1,7.3,43,9.7,65,8c26.2-2.1,47.5-14.7,62.9-36.2c7.9-11.1,3.3-23.1-9.8-27.4c4.9-0.3,8.8-3.1,13.5-2.8
			c15.7,0.8,23.5,13.2,16.4,27.2c-14.4,28.5-36.6,47.8-68.3,55.2c-5.9,1.4-11.7,2.3-17.8,2c-9.3-0.4-18.8,0.2-27.9-1.3
			c-22.2-3.8-43.9-9.7-63.6-21c-1-0.6-2.1-1.1-2.2-2.5l-0.1,0.1c0.2-0.3,0.5-0.5,0.7-0.8c-0.2-0.1-0.5-0.2-0.7-0.3
			c0,0,0.1,0.1,0.1,0.1c0-0.7-0.3-1.2-1.1-1.1l0.1,0.1c0.1-1.6-0.2-2.8-2.1-3.1c0,0,0.1,0.1,0.1,0.1c-2.1-5.5-4.2-11-6.6-17.1
			c-1.3,3.1,0.9,4.9,0.5,7l0.1-0.1c-3.9-8-3-16.4-0.6-24.2c5.7-17.9,15.1-33.7,29.9-45.8C1444.1,399.5,1444.6,398.9,1445.2,398.3z"
			/>
		<path class="st1" d="M1492.9,399c3.9-1.6,8.1-1,12.1-1.4c11.4-1.2,22.7-3.3,34-5.1c1.1-0.2,2.3-0.3,3.4-0.4
			c6.3,6.9,7.1,13.1,2.4,22.1c-1.6,3.1-3.6,6-5.5,8.9c-1.8,2.7-4.4,4.8-7.4,7.4c1.6,0.6,2.5,1,3.4,1.3c8.7,2.9,12,12,7,20
			c-6,9.6-16,12.6-26.1,14.9c-5.2,1.2-10.5,1.8-15.8,2c-5.8,0.2-12.3-2-14.9-6.2c-2.9-4.6-3.8-11.6-0.2-17.4c1.4-2.2,2.6-4.5,3.5-7
			c1-2.7,2.9-4.9,5.9-6.2c10.1-4.3,20-9.1,29.5-14.5c5.2-3,7.2-6.1,6.1-11.2c-1.1-4.9-4.9-5.9-9.1-6.3
			C1511.9,399,1502.5,398,1492.9,399z M1517.8,440.9c-3.6,1.3-7.3,2.5-10.8,3.9c-2.1,0.8-4.2,2-6.2,3.1c-1,0.6-1.9,1.5-1.1,2.9
			c0.7,1.1,1.4,2.6,3.1,1.8c3.4-1.6,6.4,0.2,9.5,1.2c1.2,0.4,2.2,0.5,3.3,0.2c4.9-1.2,9.4-3.2,13.7-5.8c2.7-1.6,2.8-3.4-0.3-4.5
			C1525.4,442.6,1521.7,441.9,1517.8,440.9z"/>
		<path class="st1" d="M1416,474.9c-1.7-1.2-1.9-3.1-2-5c0,0-0.1,0.1-0.1,0.1C1415.4,471.4,1415.9,473.1,1416,474.9L1416,474.9z"/>
		<path class="st1" d="M1420,482c-1.6-0.3-2-1.6-2-3c0,0-0.1,0.1-0.1,0.1c0.7,0.3,1.4,0.7,2.1,1c0,0-0.1-0.1-0.1-0.1
			C1420,480.6,1420,481.3,1420,482C1420,482,1420,482,1420,482z"/>
		<path class="st1" d="M1490.1,398.9c1-0.3,2-0.4,2.9,0.1C1492,400.6,1491.1,399.5,1490.1,398.9z"/>
		<path class="st1" d="M1418,479c-1.1-0.3-1-1.1-1-2l-0.1,0.1C1417.9,477.4,1418,478.2,1418,479L1418,479z"/>
		<path class="st1" d="M1417,477c-1.2-0.2-1-1.2-1-2c0,0-0.1,0.1-0.1,0.1C1416.9,475.4,1417,476.2,1417,477L1417,477z"/>
		<path class="st1" d="M1423,485c-0.7,0-1.1-0.3-1-1l-0.1,0.1c0.4,0,0.7,0,1.1,0l-0.1-0.1C1423,484.3,1423,484.7,1423,485L1423,485z
			"/>
		<path class="st1" d="M1422,484c-0.7,0.1-1.1-0.3-1-1l-0.1,0.1c0.4,0,0.7,0,1.1,0c0,0-0.1-0.1-0.1-0.1
			C1422,483.3,1422,483.7,1422,484L1422,484z"/>
		<path class="st1" d="M1421,483c-0.7,0.1-1-0.3-1-1c0,0-0.1,0.1-0.1,0.1C1420.3,482.4,1420.6,482.7,1421,483L1421,483z"/>
		<path class="st1" d="M605.1,1071.8c-4.9,2.6-8.8,4.6-9,10.4c-0.1,2.3-0.9,6-5.3,4.8c-1.6-0.5-1.8,1-2.2,2.1
			c-2.4,6.9-4.6,13.9-7.2,20.8c-0.9,2.3-0.4,3.2,2,3.8c3.9,0.9,7.7,1.9,10.8,4.7c2,1.8,3.4,3.1,1.9,6.5c-3.5,7.8-3.5,8.2-11.3,5.3
			c-9.4-3.5-9.5-3.5-13.2,6.1c-3.4,8.7-6.7,17.4-9,26.5c-0.8,3.3-2.2,3.6-4.7,1.9c-0.3-0.2-0.6-0.3-0.9-0.5
			c-10.3-6.2-10.3-6.2-6.1-17.7c2.3-6.2,4.6-12.5,7.3-18.6c1.2-2.8,0.7-4.2-2-5.4c-7.3-3.3-9.2-9.8-4.1-16.5
			c2.3-3.1,5.9-1.3,8.2-0.2c4.9,2.6,6.1,0.4,7.4-3.7c3-9.2,6.3-18.3,8.2-27.8c2.3-11.8,11-19.6,17.2-28.9c2-3,8.3-2.7,12.9,0.4
			c7.5,5.1,12.9,12.1,16.1,20.5c2.3,6-1.8,19.4-6.8,22.8c-2.4,1.7-4.6-1-6.8-1.8c-2.5-0.9-4.8-2.9-3.5-6.7
			C605.7,1078,605.1,1075.2,605.1,1071.8z"/>
		<path class="st1" d="M625.5,1214.3c-2.8,2.9-5.7,4.1-9.3,3.8C618.7,1212.1,618.7,1212.1,625.5,1214.3z"/>
		<path class="st1" d="M687.9,454c5.2-17.4,12.7-34,25.4-47c7.1-7.3,15.7-14.4,27-15.8c4.7-0.6,9.3-0.8,13.7,1.5
			c12.1,6.4,24,13.1,34.1,22.4c0.6,0.5,1.1,1.2,2.1,2.4c-6.2,0.4-10.9,4-16.8,3.4c-3.3-0.3-6,2-8.1,4.4
			c-18,19.6-34.5,40.2-40.7,67.1c-2.1,9-3,18.1-2.5,27.3c0.3,5.1-1.6,4.8-5.1,3.2c-5.5-2.5-10.6-5.6-15.1-9.6
			c-6.6-5.9-13-11.9-19.7-17.7c-3.3-2.9-1.8-6.5-2-9.8c-0.1-1.8,0.2-3.6,0.2-5.5c3.1,1.4,2.3-1.3,2.6-2.6
			C684.8,469.8,686.3,461.9,687.9,454z"/>
		<path class="st1" d="M736.5,512.3c0.5-19.7,6.7-36.5,16.7-52c5.7-9,12.5-17.2,19-25.6c2.4-3.1,5.4-4.7,9.4-4.6
			c5.1,0.1,10.3-0.3,15.4,1c4.6,1.1,6.7,3.8,6.7,8.5c0,12-1.9,23.6-7.2,34.4c-8.7,17.9-19.2,34.6-35,47.3c-4.2,3.4-8.8,6-13.2,9
			c-3.8,2.6-6.5,1.2-8.9-2C735.9,523,736.6,517.1,736.5,512.3z"/>
	</g>
</g>
</svg>
