<?xml version="1.0" encoding="utf-8"?>
<!-- Generator: Adobe Illustrator 22.1.0, SVG Export Plug-In . SVG Version: 6.00 Build 0)  -->
<svg version="1.1" id="Layer_1" xmlns="http://www.w3.org/2000/svg" xmlns:xlink="http://www.w3.org/1999/xlink" x="0px" y="0px"
	 viewBox="0 0 1920 1080" style="enable-background:new 0 0 1920 1080;" xml:space="preserve">
<style type="text/css">
	.st0{fill:#444444;}
	.st1{fill:#464646;}
	.st2{fill:#FEDD03;}
</style>
<g>
	<g>
		<path class="st0" d="M1350.5,664.8c10.6,0,21.3,0,31.9,0c3.5,0,7,0.2,10.3,1.7c10.3,4.7,21.4,6,32.4,6.7
			c12.4,0.8,24.4,3.1,36.1,7.7c9.3,3.7,19.7,2.9,29.2,6c1.7,0.5,4.8-0.2,4.7,2.7c-0.1,2.7-3,3.2-5,3.6c-8.2,1.7-16.4,0.5-24.7-0.6
			c-9.8-1.3-18.8-5.8-28.6-6.8c-4-0.4-8.2-1-12.2-1c-12.7,0-24.7-2.8-36.3-7.4c-4.4-1.7-8.8-1-13.2-0.9c-8.3,0.1-16.6,0.5-24.9,0.6
			c-5.9,0.1-11.1-5-8.9-9.2c0.6-1,0.9-1.8,2.1-2.3c0.7-0.3,1.7-1.2,1.6-1.5c-2.7-7.9,3.9-12.4,6.9-17.8c6.7-12.3,8.2-25.4,7.1-38.7
			c-0.8-9.1-3.3-18.1-5.3-27.1c-0.5-2.3-2-4.3-3.9-5.8c-14.7-12.2-31.9-14.1-49.8-10.7c-12.9,2.5-20.7,12-27.3,23.1
			c-11.4,19.2-16.5,39.6-15.7,61.8c0,1-0.3,2.3-0.9,3.1c-3.4,4.7-10.7,5.2-14.6,0.9c-2-2.3-3-2.9-5.2-0.1c-2.9,3.8-7.4,2.8-11.3,2.2
			c-3.1-0.4-3.1-3.3-2.7-5.7c0.4-3.1,3-1.6,4.6-1.6c1.8,0,3.6,1.3,6,0.1c-2.7-1.9-2.5-4.2-0.5-6.1c2.1-1.9,4.9-1.6,7-0.3
			c3,1.9,5.7,4.3,8.9,6.6c0.3-6.1,0.6-11.8,1-17.5c0.6-9.9,3.1-19.3,6.4-28.5c4.5-12.3,11.6-23.1,19.5-33.5
			c4.6-6,11.4-8.8,18.1-11.4c10.9-4.3,22.2-2.6,33.5-2.2c11.7,0.4,20.9,6.8,29.8,13.5c4.2,3.2,6,8.3,7,13.6c0.3,1.5,0,6,4,2.3
			c0.7-0.6,1.8-0.5,2.6,0.2c6.5,5.2,13.4,0.6,20.1,0.8c2.9,0.1,2.5-3.6,2.8-5.2c2.5-14.3,7.4-27.8,14.3-40.4
			c11.3-20.8,26.9-30.2,51.7-27.1c3.5,0.4,6.8,1.1,10.2,2c9.9,2.8,15.5,9.4,18,19.1c0.4,1.7,0.4,3.3,2.7,3.1
			c9.8-1.2,16.5,5.1,23.3,10.3c15.2,11.7,25.1,26.8,27,46.3c0.2,2.1,1.2,2,2.7,2.3c8,1.6,15.9,0.9,23.6-1.5
			c11.4-3.5,23-5.3,34.8-4.7c16,0.8,31.9-2.7,47.9-2.1c16.8,0.6,33.6,1,50.3,1.5c0.3,0,0.7,0,1,0c3.7,0.9,8.4,0.6,8.9,6.1
			c0.3,3.9-2.2,6.1-8.6,6.8c-2.6,0.3-3.1,1.1-3.1,3.5c0.4,18.3,0.8,36.5,1.1,54.8c0,2.5,1.1,3.2,3.2,3.8c5.6,1.7,11,3.7,16.5,5.7
			c2.2,0.8,4.3,1.8,6.3,3.3c4.1,3.2,4.7,6.4,1.8,10c-2.6,3.3-8.2,4.2-10.7,1c-2.4-3.1-5.8-3-8.7-4.5c-2.6-1.3-3.4-0.5-2.7,2.6
			c3,13.1,6.5,26.2,6.3,39.6c-0.5,26.6-3.1,53.1-3.1,79.8c0,13.9,0.1,27.8,2.6,41.5c0.9,4.7,0.1,8.7-4.4,11c-4.2,2.1-8,1.9-12.1-1.6
			c-4-3.4-9.6-3.7-14.6-5.1c-7.9-2.3-15.4-5.9-23.5-7.7c-8.6-1.9-17-0.2-26.1-1.2c5.1,6,5.3,9.1,1.2,15.6
			c-4.8,7.5-10.8,13.7-18.5,18.2c-0.9,0.5-2.6,0.8-2.3,1.9c0.3,1,1.5,1.9,2.7,2.4c8.7,3.8,17.7,7,25.9,11.7
			c21.4,12.2,44.7,20,67.6,28.6c17.6,6.6,35.6,12.3,52.7,20.4c6.1,2.9,12.5,2.3,18.9,1.8c1.2-0.1,2.5-0.4,3.9,0.7
			c-5,7-9.7,14.3-15.2,21c-2.6,3.2-7,4.8-10.6,6.9c-12.8,7.4-24.2,16.8-36.3,25.2c-18.8,13-36.2,28-54.8,41.2
			c-3.2,2.3-7.3,3.7-7.3,9.1c0,3.3-4.8,5.2-8.8,4.3c-0.6-0.1-1.4-0.9-1.6-0.8c-5.7,3.6-8.3-0.9-12.6-3.4
			c-9.4-5.3-17.8-13.2-28.7-15.2c-10.6-1.9-18.2-9.3-27.9-12.7c-10.1-3.6-18.2-10.9-27.8-15.4c-13.4-6.2-25.5-15-39.4-20.3
			c-17.2-6.6-34.9-11.6-52.2-17.7c-13-4.6-26.1-9-38.9-14.4c-12.4-5.2-24.4-11.7-37.7-14.6c-10-2.2-19.9-4.7-29.6-8.4
			c-6.4-2.4-12.5-5.5-18.4-8.8c-10.3-5.9-21.7-8.9-33.1-11.4c-11.5-2.5-21.8-8-32.6-12.2c-5.6-2.2-11.1-4.8-17.2-5.2
			c-3.4-0.2-5.6-2.4-6.1-4.9c-0.6-2.5-1.2-5.5,1.7-8.2c8.2-7.6,18.2-12.6,27.1-19.2c6.7-4.9,13.4-9.8,20.4-14.8
			c-3.8-2.6-8.4-2.3-12.3-2.7c-9.1-0.9-17.4-3.9-25.9-6.7c-6.5-2.2-13.2-2.7-19.8-4.1c-2.7-0.6-6.3-0.6-5.9-5.1
			c0.2-2.8,1.5-4.1,4.3-3.7c9.8,1.1,19.5,2.5,28.7,6.1c11.2,4.4,23.2,4.8,34.9,6.8c9.7,1.6,19.5,2.7,29.2,4.4
			c6.7,1.1,13.4,0.2,20.1,1.2c5.5,0.8,10.9,1.9,16.1,4.1c8.5,3.6,17.7,3.4,26.6,4.8c0.5,0.1,1.1-0.1,1.4,0.1
			c10.7,6.3,23.8,3.3,34.7,9.1c2.8,1.5,6.4-0.2,9.4,1.3c6.2,3.1,12.8,1.9,19.3,1.9c3.4,0,6.7,0.2,10,1c4,1,5.1-1.5,5.8-4.5
			c0.9-4.1,1.3-8.3,1.7-12.4c2.4-23,8.4-45.2,14.3-67.4c2.1-7.8,2.5-16.1,4-24.1c1.6-8.6,3.7-17,5.4-25.6c1.3-6.4,3.4-12.4,5.5-18.5
			c0.8-2.3,2-5.2,5.3-4.1c3.3,1.1,5.3,3.9,4.7,7.4c-0.6,3.4-2,6.7-2.8,10.1c-0.3,1.1-1.9,2.4-0.2,3.3c1.5,0.8,2.4-0.6,3.5-1.6
			c2.1-2.1,4.1-4.3,6.7-6c7.7-5.1,18.1-1.5,20.4,7.3c3,11.9,6.1,23.9,8.8,35.9c2.6,11.4-2.8,18.5-14.8,20.1
			c-1.4,0.2-2.3,0.7-3.3,1.7c-4.5,4.7-9.7,5.4-15.2,2c-4.8-2.9-9-6.3-11.5-11.4c-0.7-1.3-1.7-2.7-3.1-2.4c-1.5,0.3-1.5,2.1-1.8,3.5
			c-2.2,9.4-4.4,18.8-6.9,28.1c-0.7,2.7,0,4,2.3,4.5c19.9,4.7,38.3,14.2,58.6,17.3c9.1,1.4,18.3,2.2,27.4,3.2
			c25.2,2.7,50.4,2.7,75.7,2.9c2.5,0,5.2,0.4,7.5,1.4c12,4.8,24.7,7.6,36.2,13.6c-4.4-25.8-2.3-51.9-2.5-77.8
			c-0.1-12.5,2.3-24.9,2.2-37.4c-0.1-9.8-2.1-19.2-3.8-28.7c-0.8-4.9-1.9-9.8-2.3-14.7c-0.7-6.9-4.8-10.8-11.7-10.5
			c-6.1,0.2-12.1-1.4-18.2-1.5c-8.1-0.2-15.8-2.7-24-3.1c-13.6-0.7-27.2-0.4-40.8-1c-8.4-0.3-16.7-2.5-25-3.9
			c-5.8-0.9-11.6-1.9-17.4-2.8c-7.2-1.2-14.6-1.8-21.4-4.8c-3-1.3-5.8-2.4-7.4,2.4c-1.2,3.5-5.1,4.1-8.2,3.1c-3.1-1-4.7-4-3.9-7.4
			c0.5-2.1,0.3-3.6-2-2.7c-2.8,1.1-4.5,0.3-5.3-2c-0.9-2.8,0.4-5.3,3-6.7c1.6-0.9,3.4-1.7,5.2-1.8c4.2-0.3,5.9-3.2,7-6.5
			c3.5-11,6.5-22,6.2-33.7c-0.6-21.8-11.5-37.3-29.5-48.5c-1.1-0.7-2.2-1.3-3.2-2c-5-3-7-2.4-8.6,3.1c-1.1,3.8-3.2,5.4-7,4
			c-1.9-0.7-2.9,0.3-4.1,1.4c-16.3,15.2-27.3,33.3-31.5,55.3c-1.4,7.2-3,14.3-2.9,21.7c0.1,4.7-2.8,7.7-7.7,7.9
			c-5.6,0.3-11.2,0.1-16.8,0.2c-12,0.2-24,0.4-35.9,0.9c-3.5,0.1-4.9-1.9-5.6-4.5c-0.9-3.3,1.2-4.7,4.2-4.9c8-0.5,16-1,23.9-1.3
			c8.4-0.3,16.8-0.6,25.1-0.6c2.8,0,3.3-1,3.4-3.5c0.8-21.3,6.8-41.1,18.4-59.1c1.9-2.9,3.8-5.8,6.1-8.4c3.7-4.3,0.7-8.2-0.9-11.9
			c-1.3-3.1-3.6-6-8-5c-2.1,0.5-4.8-1-6.2,2.1c-0.2,0.5-1,0.9-1.6,0.4c-3.8-3.3-4.5,0.3-5.9,2.5c-6.5,10.5-7.1,21.9-4.8,33.7
			c0.4,2.3,1.5,4.8,4.9,3.4c1.3-0.5,2.7-0.5,3.4,0.8c0.7,1.2,0.1,2.5-0.7,3.6c-2,2.8-5,5.4-8.1,5.1c-3.2-0.4-5.9-2.8-7.4-6.7
			c-6-16.3-2.2-31.1,6.1-45.3c1.6-2.7,3.2-5.4,5.1-7.9c3.3-4.5,8.6-5,12.6-1.2c1,1,1.9,1.1,2.9,0.9c8.8-1.4,13.5,2.8,17.4,10.8
			c1.1,2.3,1.2,3,3.7,1.2c2.6-1.9,4.7-4.2,6.9-6.5c3-3.2-0.2-12.5-4.9-15.2c-4.4-2.5-8.9-3.8-14-3.8c-5.6,0.1-11.1-0.6-16.6,0.8
			c-10.9,2.6-17.6,10.3-22.8,19.4c-6.6,11.6-11.8,23.8-15.2,36.8c-0.4,1.6-0.5,3.1,0.1,4.7c2.4,6.2,0.1,10.8-6.1,10.1
			c-9.4-1.1-18.8,2.7-28-1c-3.1-1.3-1.9,1.9-1.7,2.6c2.2,7.3,1.6,14.9,1.8,22.3c0.2,13.4-4,25.2-11.3,36.2
			C1354.7,658.5,1352.4,661.9,1350.5,664.8z M1655.8,1022.5c0.4-0.3,0.7-0.5,1.1-0.8c0.8-0.5,1.7-0.9,2.4-1.5
			c22.5-16.9,44.7-34.3,67.7-50.6c9.3-6.6,18.7-13.1,29.1-19.3c-9.1-4.2-17.2-8.5-25.9-11.7c-19.9-7.4-39.9-14.7-59.7-22.3
			c-22.5-8.6-42.5-22.2-64.5-31.7c-3.3-1.4-6.4-3.7-9-6.3c-2.8-2.7-2.8-5.3-0.2-8.3c2.1-2.5,4.6-4.3,7.5-5.8
			c10.8-5.8,16.7-16.3,25.2-26.3c-7.4,0-13.8,0.1-20.3-0.1c-3-0.1-5.2-0.4-4.4,3.9c0.4,1.9-1.5,3.5-2.9,4.7
			c-7.6,6.7-16.5,10.9-26.4,13c-2.5,0.5-5.1,0.5-7.6-0.3c-4.3-1.3-6.4-4.1-5.8-8.5c0.6-4.5,1.6-8.9,4.1-12.7c1.9-2.9,1.8-3.8-2-4.2
			c-14.1-1.4-27.7-5-40.9-9.9c-11.5-4.2-23.1-8.4-34.6-13.7c-1.1,5.7-2,11.1-3.3,16.4c-0.8,3,0.3,3.4,2.9,3.5
			c8.2,0.3,16.2,1.7,23.6,5.6c4.1,2.1,8.1,6.5,12,6.3c4.2-0.2,8.2-4.5,12.3-7c4-2.5,8.1-3.9,12.7-2c1.9,0.8,4.7,0.9,4.6,3.4
			c-0.1,2.3-2.9,2.9-4.9,3.2c-8.6,1.2-14.8,6.9-21.1,11.8c-5.7,4.5-6.4,5.4-12.1,1.1c-8.9-6.7-19-9.8-29.9-10.4
			c-1.3-0.1-3-0.3-2.8,1.5c0.7,9.8-8.6,19-1.8,29.1c0.2,0.2,0.1,0.6,0.1,0.9c-0.2,2.2,1,2.3,2.7,1.8c9.1-3.2,18.9-3.2,28.3-5
			c3.3-0.6,11.2,2.6,12.8,5c2.7,4.1,0.1,7.3-1.9,10.5c-7.1,11.4-14.6,22.5-22.6,33.4c-4.3,5.8-9.2,11.1-14.9,15.5
			c-3.8,3-8.3,2.7-11.2-0.6c-2.7-3.2-2.5-7.5,0.8-10.8c1.2-1.2,2.6-2.3,3.9-3.5c10.5-9.7,18.3-21.6,27.5-33.5
			c-3,0.2-5.1,0.3-7.1,0.5c-7.2,0.8-14.1,2.9-21,4.7c-8.1,2.1-11.3-0.9-10.1-9.2c0.6-4,2.5-7.9,1-12.2c-1.3-3.6-3.5-2.6-4.5-0.7
			c-3.7,6.8-10.5,10.7-15.2,16.6c-7.1,8.9-14.2,17.7-21.5,26.4c-3.2,3.9-7.3,4.4-10.5,1.9c-3.4-2.8-3.4-6.8,0.2-10.9
			c10-11.6,18.6-24.5,29.8-35c0.1-0.1-0.1-0.6-0.3-1.2c-6.1,0.9-10.8-4.4-16.9-4.2c-3.8,0.1-7.3-0.9-10.6-2.7
			c-2.5-1.4-5-1.9-7.8-1.8c-5.4,0.3-10.5-0.6-15.4-3c-1.5-0.7-2.8-1.4-4.3,0.2c-3.8,4.1-7.6,8-11.9,12.4c9.6,3.9,18.6,7.2,27.9,9.7
			c5.1,1.3,8,5.2,7,9.7c-1.1,4.9-5.3,7.3-10.6,6.1c-7.8-1.7-15.1-5.3-22.7-7.5c-4.7-1.4-9.1-6.4-13.3-4.9
			c-4.2,1.4-7.1,6.6-10.6,10.1c-3.2,3.1-7.3,3.4-10.3,0.7c-3.1-2.8-3.2-7.3-0.1-10.7c2.2-2.4,4.4-4.7,6.8-6.7c2.4-2,2.4-3.1-0.5-4.6
			c-7.7-4.2-16.2-6-24.5-8.1c-1.2-0.3-2.2,0.1-3.1,0.8c-4.1,3.2-9.1,5.4-12.3,9.8c-2,2.8-5,3.5-8.1,1.8c-3.2-1.8-4.1-4.5-3-8.2
			c1.1-3.9,4.3-6,6.5-8.4c-7.7-6-14.4-4.6-20.6,2.2c-1.7,1.9-4.1,3.1-6.2,4.6c-4.5,3.1-9,6.2-14.2,9.8c13.6,4.5,25.4,11.3,38.4,14.5
			c11.8,3,23.4,6.5,34,12.7c13.5,7.8,27.8,13.6,42.9,17.8c10.8,3,21.3,6.9,31.3,12c16.5,8.5,33.6,15.5,51.4,21
			c33.6,10.3,66,23.3,96.1,41.6c15.8,9.6,31.7,19.2,49.8,24.1c1.4,0.4,2.6,1.4,3.9,1.8c8,2.5,13.9,9.2,22.1,11.3
			c0.5,0.6,1.2,0.8,1.9,0.4c-0.3-0.4-0.6-0.9-0.9-1.3c-3.1-4.2-2.2-8.5-0.1-12.6c2.9-5.6,7.2-10.2,11-15.1c5-6.5,5-6.4-2.3-9.5
			c-1.3-0.6-2.8-0.9-3.9-1.8c-2.5-1.9-4.6-1.2-7,0.2c-3.6,2.1-7.1,4.2-11.3,5.1c-8.4,1.8-12.9-2.6-10.6-10.7
			c-3.7,0.9-7.1,0.5-9.3-2.9c-2.1-3.3-1.2-6.4,0.7-9.4c1.4-2.3,2.8-4.7,4.3-6.9c4.2-6.3,8.5-12.5,13.3-19.6
			c-5.9,2.1-10.6,3.9-15.5,5.3c-9.9,2.9-14.9-1.3-14.1-11.5c0.3-3.6-0.4-6.9-2.3-10.4c-1.1,1.7-2,3-2.8,4.3
			c-5.7,9.5-11.5,18.9-18,27.8c-1.2,1.7-2.4,3.4-4.2,4.5c-2,1.4-4.1,1.9-6.2,0.3c-1.9-1.4-2.2-3.3-1.6-5.6c0.9-3.4,2.6-6.5,4.3-9.6
			c5-8.9,10-17.9,15.3-26.6c3.5-5.9,7.4-11.6,11.4-17.2c2.6-3.7,6.5-3.3,10-2c3.2,1.2,4.7,4.4,3.5,7.5c-1.2,3.3-0.4,5.8,0.8,8.6
			c1.2,2.8,2.5,5.6,3.3,8.5c1,3.7,2.2,4.6,6.2,3c8.1-3.4,15.9-7.6,24.5-9.6c3.8-0.9,7.9-1.3,10.3,2.8c2.2,3.7,1.2,7.2-0.9,10.8
			c-9.2,15.7-18.9,31-29.7,45.7c3.7,0.8,6.4-1,9.1-2.7c18.6-11.3,37.7-21.6,56.7-32.2c3.2-1.8,6.6-1.7,9.4,0.8
			c2.7,2.4,3.6,5.6,1.6,8.7c-6.1,9.6-9.7,20.5-16.2,29.9c-1.8,2.6-3.6,5-3.3,8.7c0.2,2.5-1.7,4.3-4,5.5c-1.4,0.7-2.9,1.2-3.9,2.6
			c-3.9,5.3-7.8,10.5-11.7,15.7c-0.3,0.3-0.6,0.7-0.9,1c-0.1,0.4-0.4,1-0.3,1.1C1655.1,1023.5,1655.5,1023.1,1655.8,1022.5z
			 M1628.3,620.7c2.8,10.2,2.5,20.3,2.3,30.4c0,1.6-0.8,3.6,2.2,3.7c17.1,0.5,33.9,5,51,5.4c2.5,0.1,3.3,0.1,3.1-2.9
			c-1.4-17.3-0.9-34.6-0.1-51.8c0.2-3.3-0.8-4.2-3.9-4.3c-10.6-0.2-21.1-0.3-31.7-0.8c-15.7-0.6-31.2,2.8-47,2
			c-11.2-0.6-22.4,0.3-33.3,3.4c-9.1,2.6-18.3,3.2-27.5,0.6c-2.3-0.6-2.8,0.1-2.9,2.2c-0.3,11.2-3.3,21.8-7.2,32.1
			c-0.8,2.2-0.4,3.1,1.9,3.7c17,4.8,34.8,4.7,53.2,8.3c-3.8-5.1-2.9-9.7-2.4-14.3c0.4-3.5,0.9-7,1.6-10.4c0.4-2.1,0.4-3.5-1.6-4.9
			c-2.3-1.5-3-4.8-1.2-6.3c3.4-2.7,5.9-6.7,10.1-8.2c1.9-0.7,4.2-0.9,5.6,0.3c3.6,3.1,7.1,1.6,10.8,0.7c2.3-0.6,4.6-1.3,7-1.6
			c7.3-0.8,14.6-2.6,21.5,1.5c2.9,1.7,3.9,4.3,2.9,7.4c-1.1,3.3-3.8,4.8-7.2,4C1633.3,620.5,1631.1,620,1628.3,620.7z M1527.8,722.1
			c-6.4,6.5-12.5,11.3-18.6,16.3c-1.9,1.6-5.2,1.8-5.9,4.4c-0.8,3,2.9,3.7,4.1,5.8c2.8,4.8,5.6,9.6,9.3,13.9c1.1,1.3,2.2,3,4.3,1.7
			c2.8-1.7,6-2.1,9.2-2.3c2.4-0.1,2.5-1.2,2.2-3.1C1530.3,747.1,1528,735.4,1527.8,722.1z M1621,621.1c-1.6,0.2-2.7,0.2-3.8,0.4
			c-9.8,1.8-9.4,1.8-10.9,11.5c-1.1,7.1,1.3,15.2-6.6,21.7c5.8,0,10.3-0.2,14.7,0.1c3.3,0.2,4-0.9,3.8-4
			C1617.9,641.1,1617.8,631.3,1621,621.1z M1379.2,852.1c-6.9-0.6-13.2-2.1-19.3-4.5c-3.4-1.4-7-2.2-10.6-2.9
			c-1.4-0.3-3.8-1.8-4.3,0.8c-0.4,1.9-1.1,4.5,2.7,5.3c4,0.8,8.6,1.9,11.5,4.5c7.7,6.9,13.6,4.1,19.4-2.2
			C1378.7,853,1378.8,852.9,1379.2,852.1z M1599.1,837.1c-4.7-0.4-9.5-0.9-14.2-1.2c-1.1-0.1-3.1-0.5-3.1,0.4c0.1,4.3-3,3.2-5.3,3.6
			c-1.9,0.4-5.3,6.3-4.2,8.3c1.4,2.6,3.8,0.7,5.7,0.1C1585.5,845.6,1592.2,841.3,1599.1,837.1z M1656.2,980.4
			c8.1,3.3,10.4,1.9,12.7-7.2C1664.7,975.6,1660.7,977.8,1656.2,980.4z M1331.8,843.7c-5.8-0.8-11.6-1.5-17.3-2.3
			C1320.8,845.6,1328.5,846.3,1331.8,843.7z"/>
		<path class="st0" d="M911,103.1c0.1-5.8,0.5-11.5,0.3-17.3C911,78.7,913,72,914.2,65c1.2-6.5,0.9-13.4,4.1-19.4
			c3.1-5.8,5.6-11.7,11.2-16.2c5.2-4.1,9.3-9.8,14.6-14c1.2-1,1.9-2.4,3.9-2.4c5.6,0.1,10.1-3,13.6-6.5c5.2-5.3,11.7-7,18.2-7.6
			c11.7-1.1,23.7-0.8,34.7,4.2c19.3,8.7,32.4,23,36.3,44.4c3.2,18.1,1.9,36.3,1.1,54.4c-0.2,3.7,0.2,7.3-0.9,10.9
			c-0.8,2.6,1.1,2.7,3.1,2.7c30.5-0.9,61,1,91.5,1.5c24.9,0.4,49.8,1,74.7,1.6c14.2,0.3,28.1,4,42.3,3.9c8.3-0.1,16.6-0.7,24.9-1
			c1.6-0.1,3.1,0,4.7,0.5c6.1,1.8,6.4,2.9,5.2,9.1c-1.2,6.2-1.3,12.6-2.2,18.9c-1.6,11.5-2.4,23.1-4.2,34.6
			c-1.7,11-1.6,21.9-1.8,32.9c-0.7,38.8,1.3,77.5,2.4,116.2c0.5,15.9,1,31.9-1.3,47.7c-1.6,10.7-3.9,21.2-5.2,31.9
			c-0.3,2.3-0.6,4.3,0.5,6.4c1.8,3.2,0.3,6.1-1.7,8.3c-2,2.2-5.2,3.9-8.1,2.9c-6.1-2.2-12.1-2-18.2-0.6c-7.6,1.7-15.2,2-22.9,1.5
			c-11.2-0.8-22.5-1.3-33.7-0.5c-19.9,1.5-39.9,0-59.8,0.9c-10.6,0.5-21.3,1.2-31.8,4.1c-3.7,1-8.1,2.5-12.3,0.6
			c-2-0.9-3.8-0.2-3.9,2.6c-0.1,4.7-1.7,9-4.4,13.4c10.1,1.5,19.7,3.2,29.4,4.2c17.3,1.8,34.6,3.5,51.9,4.7c6.5,0.5,13,1.1,19.4,2.1
			c5.5,0.9,10.3,4.5,16.3,3.4c1.6-0.3,2.1,0.3,3.2-1.7c1.4-2.7,1.8-7.8,6.8-6.3c4,1.2,3.2,5.6,3.2,8.6c0.2,13.8,0.1,27.6,0.1,41.3
			c0,1.7,0,3.5,0.4,5.3c2.4-5,4.5-10.1,6.7-15.2c5.3-11.7,14.4-19.4,25-25.9c6.8-4.1,13.7-7.3,21.6-8.2c12.9-1.5,22.2,4.7,28.8,15
			c5.6,8.6,9.8,18,11.9,28.3c0.6,3.1,3.8,5.1,4.2,8.3c0.1,0.4,0.6,0.7,1.5,0.4c3.3-1.2,4.3-0.8,4.6,2.1c1,9.3,2.3,18.7-2.7,27.5
			c-1.1,1.9-1.8,4.1-3.7,5.4c-2.6,1.8-5,1.2-5.4-1.7c-0.5-3.6-2.6-3.4-5-3.2c-3,0.2-3.9-0.6-1.5-3c2-2.1,1.2-5,2.1-7.5
			c0.8-2.2-2.2-2.7-3.8-2.8c-2.9-0.1-3.7-1.3-1.8-3.3c4.7-5,3.3-11.3,2.6-16.6c-1.4-10.2-5.2-19.9-10.6-28.9
			c-5.1-8.5-15.8-13.7-25.1-10.2c-11.6,4.4-22.9,10-30.1,20.7c-6.7,10.1-11.6,21.2-12.9,33.4c-0.5,4.7-2.4,6-6.9,4.3
			c0,14.6-0.2,28.6,0.1,42.7c0.2,10.4-0.8,20.8-1,31.2c0,1.3,0.6,3.2-1.5,3.6c-1.7,0.3-1.7-1.4-2.5-2.4c-1.5-1.9-2.4-3.8-2.5-6.4
			c-1.3-39.3-0.7-78.5,0-117.8c0.1-5.3-1.9-7.7-6.5-8.9c-1.2,6.9-3.5,9.4-8.8,9.2c2.5-4.9,1.6-6.8-3.6-7.5
			c-13.4-1.6-26.9-2-40.5-1.9c-7,0-14.1-1.2-21.1-1.6c-7.4-0.5-14.7-1.3-21.9-2.3c-7.5-1-15-1.9-22.4-3.3
			c-8.1-1.6-16.4-2.9-24.5-4.4c-8.2-1.5-16.3-3.4-24.5-4.3c-7.4-0.9-14.6-2.2-21.9-3.4c-7.7-1.2-15.5-1.7-23.1-2.7
			c-10.1-1.3-20.4-1.3-30.5-1.5c-26.1-0.4-52.2,0.7-78.3,0.4c-8.5-0.1-16.7-0.7-24.8-3.2c-3.9-1.2-4.7-4.2-4-7.4
			c0.8-3.4,3.5-4.8,7.3-4c3.4,0.7,6.9,1,10.4,1.3c1.9,0.2,3.5-0.5,3.3-2.9c-0.2-5.1-0.5-10.2-0.6-15.4c0-2.2-0.9-3.2-3.1-3.2
			c-2,0-3.9,0-4.2,2.7c-0.3,3.2-0.7,6.3-0.9,9.5c-0.1,1.6-0.7,3.1-1.7,4.4c-0.9,1.1-2.1,1.4-3.4,0.7c-1.3-0.7-2.2-1.8-1.3-3
			c0.9-1.2,0.3-2.6,0.9-3.6c1.5-2.7,2.4-6.3-0.1-7.8c-2.6-1.7-6.5-1.3-9.5,0.5c-6.4,3.7-13.5,4.6-20.6,5.3c-3.5,0.3-7,0.7-10.4,0.9
			c-4.6,0.4-9.6-0.8-14.1-2.2c-2.4-0.8-4.6-1.2-6.9-1.2c-34.7,0-69.5,0.1-104.2,0c-11,0-21.9,3.1-33,2c-9-0.9-18.2,0.9-27.2-2.3
			c-3.5-1.3-4.9-2.8-4.8-6.3c0.3-8.5,1.3-17,0.5-25.4c-1.2-12.9,0.5-25.6,1.7-38.3c2.3-25.2,1.7-50.4,2.5-75.6
			c0.3-10.1,0.8-20.3,1.2-30.4c1.3-27.5,2.1-54.9,2.8-82.4c0.1-5.4-0.2-10.7,0.9-16c0.2-0.9-0.1-1.8,0.7-2.6
			c5.5-5.2,8.9-12.1,13.8-17.9c1.5,1.8,0.1,3.9,1.3,5.8c7-4.1,12.7-9.9,19.2-14.6c10.5-7.5,20.8-15.2,31.5-22.3
			c3-1.9,7-2.9,11.3-0.4c2.8,1.6,6.8,1.2,10.2,1.6c31.7,3.4,63.5,3,95.3,2.5c14.2-0.2,28.5-0.5,42.6,0.7c14.3,1.2,28.6,2.9,43.1,2.4
			C910.3,104.1,911,104.3,911,103.1z M1160.6,135.6c-1.4,5.1-3.6,7.5-8.6,6.8c-10.2-1.5-20.3-3.5-30.2-6c-3.3-0.8-6.2-2-9.6-0.6
			c-3.1,1.3-6.5,1.2-9.3-0.4c-4-2.2-7.9-1.9-12.1-0.9c-12.8,2.9-25.7,3.4-38.6,0.9c-13.4-2.5-26.8-5.5-40.4-7.4
			c-7-0.9-14.3,1.7-21-0.3c-10.2-3-20.3-3.7-30.7-2.9c-2.5,0.2-5.1-0.2-7.7-0.4c-11-1-21.9-2.5-33-2.2c-2,0.1-3.8-0.4-4.5,2.2
			c-0.2,0.9-1.2,1.5-2.3,1.3c-0.9-0.2-1.5-1-1.3-1.8c1-3.9-1.6-3.1-3.8-3.2c-13.9-0.6-27.9,1-41.7-1.3c-6-1-11.9-2.3-18.1-2.3
			c-10.1,0-20.1-0.3-30.2-0.3c-34.1,0-68.2,0.4-101.8-7.1c-1.3-0.3-2.5-0.4-3.7,0.4c-4.8,3.3-9.9,6.4-14.3,10.9
			c0.8,0.4,1.5,0.7,2.1,1.1c2.3,1.3,3.9,3.4,2.9,5.9c-0.9,2.5-3.3,0.8-5,0.7c-5.7-0.2-11.2,0.3-15.8,4.1c-5.6,4.6-11.2,9-16.8,13.6
			c-1.4,1.1-2.9,2.6-4.6,2.3c-5.5-1.1-5,2.4-5,5.9c0.4,43.4,0,86.7-2.2,130c-1.2,23.6-0.5,47.3-1.9,71c-0.7,13.2-3.2,26.4-0.6,39.7
			c1,5.3,5.3,10,2.7,16.8c7.6-5.2,13.9-10,20.3-15.9c-2-0.9-4.9-0.7-4.3-3.3c0.5-2.2,2.9-1.5,4.5-1.9c0.8-0.2,1.6-0.1,2.4-0.2
			c3.4-0.2,6.3-0.7,7.8-4.8c1.2-3.2,5.7-3.6,8.2-1.4c0.9,0.8,1.6,1.8,1.4,2.9c-0.3,1.8-1.7,0.8-2.7,0.6c-3.1-0.5-3.4,1.8-3.5,3.9
			c-0.2,2.9,2.1,1.5,3.4,1.6c2.4,0.2,4.7-0.6,7-1.5c4-1.4,7.9-3,13-3.4c-9.1,6.6-18.1,10.6-28.8,8.5c-1.5-0.3-3.1-1.1-4.6,0.2
			c-5.4,4.6-10.9,9.2-16.9,14.3c7.7,0.7,14.6-0.3,21.6-0.9c23.3-2,46.7,0,70.1-2.1c5-0.4,10.1,1.6,15.3,0.3c4.5-1.1,9-2.1,13.7-2.5
			c7.5-0.6,15-0.7,22.4-2.4c12.6-3,25.2-4.5,38.1-2c2.8,0.6,5.3,2.1,8.3,2c6.2-0.1,12.5,0.1,18.7,0.2c7.5,0.2,8.5-0.9,7.1-8.5
			c-0.1-0.8-0.8-1.6-0.7-2.3c0.3-2.1,2.2-3.8,3.5-2.2c3.1,3.8,7,3,10.9,3.2c1,0,2.1,0.1,2.3,1.2c0.2,1-0.6,1.8-1.3,2.4
			c-2.2,1.9-5,2.5-7.7,2c-3.6-0.6-3.5,1.2-3.2,3.8c0.2,2,1.6,2.5,3,3.3c3.5,2.3,4.8,6.9,1.8,8.9c-4.2,2.8-3.2,6.3-3.1,10
			c0.1,4.1,0.7,8.3-1.5,12.3c6.9,0,13.4,0,19.9,0c1.9,0,2.9-0.4,2.9-2.6c-0.2-7.4,0.4-14.7-0.5-22.1c-0.7-5.6-1.7-11.1-2.5-16.6
			c-0.2-1.2-0.5-2.7,0.9-3.4c1.5-0.8,2.7,0.3,3.8,1.2c2.4,2,2.3,4.9,2.8,7.5c0.5,2.7,1.4,3.7,4.4,3.5c18.6-1.2,37.2-0.9,55.7-0.6
			c6.6,0.1,13.2,0,19.7,1.1c22.8,3.8,45.9,4.8,68.4-0.1c9.2-2,16.9-0.3,25.1,2.2c1.3,0.4,3.1,1,3.7,2c0.9,1.7-2.2,1.6-2.5,3.2
			c1.7,0.6,2.9,2,4.4-0.6c2.2-3.8,4.9-3.7,7,0.2c0.7,1.3,0.9,2.7,2.9,2.1c5.2-1.6,9.8,0.4,14.4,2.3c2.8,1.2,5.6,2.3,8.8,1.5
			c9.3-2.4,19-2.1,28.4-4.2c4.5-1,9.2,0.1,13.8,1.1c10.9,2.2,21.8,0.7,33.6,0c-3.5-3.5-7.1-4.1-10.7-4.3
			c-11.2-0.5-22.4-1.6-33.6-1.1c-3.4,0.2-6.9,0.6-10.1-0.2c-19.3-5.3-39.6-2.3-59-6.7c-1.7-0.4-3.5-0.5-5.3-0.4
			c-5.2,0.3-10.2-0.6-15.1-2.5c-3.8-1.5-7.7-1.8-11.8-1.5c-7.1,0.5-14.1,0.2-20.7-3c-3.2-1.6-6.7-2-10.3-1.9
			c-9.3,0.1-18.6,0.7-27.8-1.2c-9.1-1.8-18.2-1.2-27.3-0.4c-7.7,0.6-15.3,0.2-22.8-1.8c-11-2.9-21.8-5.9-33.5-5.2
			c-16.3,1-32.7,0.9-49,1.2c-7.5,0.1-15-0.5-22.5-1.7c-6.8-1.1-13.3-3.7-20.3-3.5c-16.3,0.5-32.7,0.7-48.9,2.4
			c-16.4,1.7-32.7,4.5-49.3,3.3c-4.2-0.3-8.3-1-12.2-2.5c-1-0.4-2.5-0.6-1.9-2.2c0.5-1.5,1.8-0.8,2.8-0.5
			c11.8,3.5,23.9,3.2,35.7,1.5c23.5-3.5,46.9-6.9,70.6-7.5c5.6-0.2,11.2,0.3,16.7,1.3c13.6,2.6,27.3,3.3,41.1,2.6
			c17.3-0.9,34.7-1.5,51.6,2.8c17,4.3,33.9,7.1,51.6,6.7c16-0.4,31.9,3,47.9,2c1.7-0.1,3.6,0.2,5.2,0.8c8.3,3.4,16.9,3.3,25.6,2.2
			c2.4-0.3,4.9-0.4,7.1,0.4c7.3,2.6,15.1,2.3,22.6,3.5c19.8,3.3,39.9,2,59.6,5.9c13.2,2.7,27.1,1.6,40.7,2
			c6.5,0.2,12.3,1.8,17.2,6.2c2.3,2,4.9,2.7,7.9,2.8c5,0.2,10.2-2.4,14.7-0.9c7.2,2.4,14-0.7,21.1,0.5c8.1,1.4,16-2.1,24-3.3
			c1.9-0.3,2.8-1,2.9-3c0.4-4.1,0.7-8.3,1.6-12.3c3-13,4.6-26,5-39.4c0.8-25.8-2.9-51.5-2.1-77.3c0.1-5.1-0.3-10.2-0.3-15.4
			c-0.4-32.1-2-64.3,4.1-96.2c0.8-4.4,2.6-9.1,0.3-13.7c-2.6-5.3-3.1-10.1,3-13.5c1-0.5,1.8-1.7,1.2-2.9c-0.6-1.3-2-0.8-3-0.6
			c-5.7,0.8-11.4,0.9-17.2,0.7c-19.1-0.6-38-6-57.3-2.9c-11.2,1.8-22.2-1.9-33.4-2.3c-11-0.4-22.1-1-34.2-1.6
			C1145.6,137.1,1152.9,137,1160.6,135.6z M1043.8,84.4c0-5.9-0.1-11.9,0-17.8c0.2-8.6-0.9-17-3.7-25.1c-2-5.9-4.1-11.8-8.8-16.3
			C1020.5,15.1,1008.9,7.1,993,7c-8.8,0-17.3-0.4-24.7,5.3c-3,2.3-5.9,4.9-9.1,7.1c-12.8,9.1-18.4,22-20.7,37
			c-2.5,16.5-3.2,33.1-2.3,49.7c0.1,1.2-0.5,2.7,1.6,2.6c7.7-0.3,15.1,2.4,22.9,2.2c7-0.2,14.2-2.1,21-0.1c9.3,2.8,18.5,3.2,28,2
			c1.9-0.2,4-0.4,5.7,0.2c8.7,2.9,17.8,1.1,26.6,2.5c1.7,0.2,2.5-0.2,2.1-2C1042.2,103.9,1044.3,94.1,1043.8,84.4z M954.2,438.1
			c29.2-1.9,58.1,0.4,86.8,6c3.2,0.6,4.5,0.4,4.3-3.5c-0.5-8-0.2-16,1.3-23.9c0.3-1.7,0.1-2.4-1.8-2.3c-17.1,1.3-34.3-0.5-51.3,2.1
			c-14.9,2.2-29.9,3-45,2.4c-9.1-0.4-18-2.9-27.2-2.2c-2.8,0.2-5.5,0-7.3-2.6c-1-1.5-2.6-1.4-3.9-1c-1.7,0.5-0.7,2.2-0.7,3.3
			c0,6.1,0.3,12.2,0,18.2c-0.1,3,0.4,3.7,3.5,3.6C926.7,438,940.4,438.1,954.2,438.1z M950.5,14.8c-1.5-0.7-2.3,0.5-3.2,1.3
			c-6.5,5.2-11.8,11.7-16.9,18.2c-4.1,5.3-8,11.2-9,17.8c-2.3,16.1-6.6,31.9-5.3,48.4c0.7,9-1.8,8.1,8.6,8.5c4,0.2,4.8-1.4,5-4.9
			c0.3-5.5-1.1-10.8-2-16.1c-1.8-9.9,1.3-19.4,2.1-29.1c1.4-16.7,6.5-31.6,20-42.6C950.1,15.9,950.8,15.6,950.5,14.8z M1069.2,434.8
			c0,0,0.1,0,0.1,0c0-2.2-0.4-4.6,0.1-6.7c1.2-5.1,0-8.4-5.5-9.6c-2.1-0.5-3.7-2.4-5.2-4.1c-0.6-0.7-1-1.9-2.2-1.5
			c-1.2,0.4-0.8,1.6-1,2.5c-1.3,6.2-1.2,12.4-1.5,18.6c-0.6,12.9-0.5,12.9,12.6,14.6c2.2,0.3,2.8,0,2.6-2.3
			C1069,442.5,1069.2,438.7,1069.2,434.8z M1073.7,449.8c3,0.5,5.4,1,7.8,1.4c1.2,0.2,2.1,0.3,2.3-1.4c0.8-8.4,2.5-16.7,2.1-25.3
			c-0.2-4.6-3.9-3.3-6.3-3.8c-3.2-0.6-2.3,2.2-2.4,3.9C1076.7,433,1078,441.6,1073.7,449.8z M646.1,391.5c-5.2,3.4-5.8,6.5-3.4,17.9
			C645.3,407.8,647.5,396.9,646.1,391.5z M815.4,406.6c8.1-2,16.7,1.1,24.7-2.1C831.7,403.8,823.4,404.2,815.4,406.6z M1103,422.9
			c-2-2-4.3-2.3-6.7-2.3c-1.2,0-2.3,0.1-2.2,1.7c0.1,1.4,1,1.2,2,1.1C1098.4,423.2,1100.7,423.1,1103,422.9z M813.8,406.9
			c-5,0.2-9.1,1.5-14.4,2.5C805,410.3,809.3,410.2,813.8,406.9z M1071.7,413.1c-3.6-2.6-3.6-2.6-6.2-1.6
			C1067.2,412.5,1068.7,413.9,1071.7,413.1z"/>
		<path class="st0" d="M515.7,577.2c-2.3,5.8-2.2,12.1-3.2,18.2c-0.8,5-1.3,10.1-1.9,15.1c-0.3,2.6-1.6,4.1-4.3,4.1
			c-2.8-0.1-3.2-2.6-3.4-4.4c-0.8-6.3,0.5-12.5,1.4-18.8c1.2-7.3,2.3-14.7,3.4-22c1-6.7,2-13.5,2.9-20.2c0.3-2.5-0.1-5.1-0.1-7.6
			c0-3.5-0.1-6.9,1-10.4c0.6-1.9,0.9-2.9,2.9-2.8c2,0.1,2.9,1.4,2.8,3.2c-0.4,4.4,2.5,4.7,5.5,4.3c10.7-1.3,21.4-1.1,32,0.2
			c11.7,1.5,23.3,1.2,35,0.7c13.3-0.5,26.3,0.2,39.4,2.6c12.7,2.3,25.9,1,38.8,1c3.2,0,6.7,0.8,9.5-0.2c3.3-1.1,1.1-5.2,2.4-7.9
			c4.9-10.1,8.4-20.9,16.2-29.4c6.2-6.9,14.3-9.6,23.1-10c4.9-0.3,9.9-0.7,14.8,0.9c2.7,0.9,4.5-1.2,6.3-2.4
			c21.4-14.7,43.7-28,67.2-39.2c7.9-3.8,16.1-6.9,25.2-6.5c2.3,0.1,4.4,0.6,6.3,1.9c1.9,1.4,1.6,3.4,1.4,5.3
			c-0.1,1.4-1.1,2.3-2.6,2.3c-12.6-0.1-23.6,5.3-34.2,11c-14.1,7.5-27.7,15.8-41.4,23.9c-5.9,3.5-11.5,7.8-17.4,11.3
			c-3,1.8-4.1,4.1-4.2,7.3c-0.3,8.1-0.6,16.3-1,24.4c-0.1,2,0.4,4.4-2.6,4.9c-2.1,0.3-1.2,2-1.2,3.1c-1.1,22.2-1,44.5-0.7,66.8
			c0.2,16.2,0.2,32.4,0.9,48.5c1.5,33.7,1.7,67.4,1.9,101c0.2,31.6,0,63.1,0.2,94.7c0.2,22.4,0.7,44.8,1.6,67.1
			c0.4,11,1.8,21.9,2.8,32.8c0.2,2.8,1.3,4,4.6,4.5c13.9,2,27.4,6.3,40.8,10.4c26.5,7.9,53,16,78.7,26.1c6.5,2.6,13.1,5.2,19.9,9.5
			c-5.7,0.2-9.5-2.6-14.1-3.2c-8.9-1.2-17.7-3.8-26.5-5.6c-14.4-2.9-28.4-7.6-42.4-11.7c-18-5.3-36-10.8-54-16
			c-2.4-0.7-5.5-1.4-5.3,3.3c0.1,3.7-1.9,6.4-5.7,7.2c-4.4,0.9-7-1.6-8.2-5.3c-1.4-4.6-2.4-9.5-3.1-14.3c-1.2-8-2.4-16-2.9-24
			c-0.8-12.5-1-25.1-1.2-37.6c-0.1-3.9-0.6-5.3-4.7-3.1c-7.5,4-15.2,7.7-22.8,11.6c-0.7,0.4-2.7,0.2-1.5,2.4c2,3.6-0.4,5.7-3.4,7
			c-13.6,6-26.3,13.6-39.1,21.1c-10.9,6.4-22.2,11.9-33.9,16.6c-10.1,4-18.4,11.1-26.9,17.7c-8.6,6.6-18.6,10.8-27.7,16.4
			c-13.7,8.4-26.5,18-39.8,27c-10.2,6.8-20.7,12.9-31.7,18.2c-14,6.8-27.1,15.2-40,23.9c-5.5,3.7-11.2,7.1-17.2,9.8
			c-4.3,2-8.5,4.3-11.9,7.9c-2.4,2.5-5,2.6-7.6,0.2c-2.9-2.7-0.9-4.6,0.9-6.7c3.4-3.8,7.3-6.7,11.9-8.8c9.9-4.6,19.2-10.3,28.2-16.4
			c11.4-7.7,23.4-14.5,36-20.1c17.3-7.8,32.9-18.6,48.4-29.3c11-7.5,22-14.9,33.9-20.9c8.2-4.1,15.2-10,22.6-15.4
			c7.9-5.8,16.3-10.6,25.6-13.9c14.3-5,26.4-14.4,39.7-21.2c3.1-1.6,6.2-3.4,9.1-5.3c1.9-1.2,5.9-1.3,2.8-5.4
			c-0.9-1.2,0.6-2.7,2.1-3.1c5.8-1.5,10.2-5.3,15-8.4c8.9-5.8,18.1-10.9,27.9-15c2.4-1,3.4-2.1,3.4-4.9
			c-0.1-40.4-0.1-80.7-0.1-121.1c0-2.2,0.3-4.1-2.9-4.2c-1.7,0-2.9-1.5-3-3.3c-0.1-2,1.2-3.6,3-3.7c2.9-0.1,2.9-1.6,2.9-3.7
			c-0.1-7-0.1-14.1,0-21.1c0.1-3.1-1.1-3.7-4-3.6c-10.8,0.2-21,3-30.4,8c-10.4,5.6-21.5,9.1-33,11.3c-7.2,1.3-14.5,2.7-21.5,4.8
			c-2.9,0.9-6,1.4-9,0.3c-1.7-0.6-3.6-1.4-3.6-3.4c0-2.2,2.2-2.6,3.8-3c11-2.7,21.8-6.3,33-8.1c8.8-1.4,16.9-4.7,24.8-8.8
			c11.5-6,23.6-10,36.7-9.6c2.3,0.1,3-0.5,3-2.8c-0.2-12.5-0.3-25-0.3-37.5c0-2.3-0.6-3.2-3.1-2.7c-14.1,2.6-28.4,1.9-42.7,1.6
			c-15.1-0.3-30.1,1.3-45.1,1.3c-3.6,0-7.6,0.8-10,4.8c-2.1,3.4-7.9,3.5-11.3,0.9c-0.7-0.5-1.2-1-1-1.9c0.2-0.9,1.1-1.1,1.9-1.2
			c1.1-0.1,2.3,0.1,3.4-0.1c3.2-0.5,6-1.2,4.6-5.7c-0.6-2.1-0.4-4.5-0.3-6.7c0.5-12.2-1.8-24.3-2.3-36.4c-0.4-11.4-3.5-22-6.6-32.6
			c-1.3-4.5-3-8.8-5.5-12.7c-4.1-6.4-9.6-9.8-17.4-10.1c-17.1-0.6-17.1-0.8-27.7,12.9c-3.2,4.2-6.2,8.6-9.2,12.9
			c-1.4,2-2.3,4.1-2,6.7c0.3,3-1.3,4.8-4.3,5.3c-2.9,0.4-3.8-1.1-4.9-3.8c-2.5-5.7,0.4-10.2,2.9-14.4c4.8-8.1,10.9-15.3,16.8-22.6
			c3-3.7,7-6.4,11.9-6.6c9.7-0.4,19.4-1.7,28.8,2.4c2.7,1.2,4.9,2.8,7.1,4.7c1,0.8,1.9,3.1,3.3,1.9c1.5-1.3-0.6-2.7-1.3-4
			c6.6-4.5,10.6-2.8,11.3,5.1c0.3,3.4,0.5,5.6,5.5,4.7c4.6-0.8,9.5,1.5,14.2,3.1c9.7,3.2,16.1,9.8,20.6,18.6c1.9,3.6,1.5,7.4-0.5,11
			c-1.9,3.4-5.7,6.9-5.6,10.2c0.1,3.3,4.4,6.3,6.4,9.6c2.3,3.8,4.4,7.8,5.9,11.9c2.3,6.5,2.3,13.1-2.4,19.5c3.5,0.9,6.7,0.3,9.7,0.2
			c2.5-0.1,2.7-2.3,3-4.1c2.7-15.7,5.5-31.3,9.4-46.8c1.5-5.8,2.1-11.8,3.2-17.7c0.6-3.1,1.7-5.3,5.6-5.7c3.9-0.3,7.7-1.4,11.4-2.7
			c5.4-1.8,7.8-1.3,11,3.1c0.6,0.9,1.2,1.9,1.9,2.7c0.5,0.7,0.5,2.1,1.9,1.6c1-0.3,0.7-1.3,0.7-2.1c0.4-11.2,1.2-22.4,0.9-33.6
			c-0.2-8.4,1.4-16.5,2.3-24.7c0.5-4.4,0.8-8.9,2.5-13.2c0.6-1.6-0.4-2.3-2-2.2c-1.9,0.1-4.4,0.4-4.9-1.5c-0.4-1.5,1.9-2.7,3.1-3.9
			c0.5-0.5,1.4-0.6,1.8-1.2c-12.7-3-22.8,3-27.8,12.4c-3.9,7.4-7.6,14.9-10.3,22.8c-0.8,2.2-1,4.2,0.8,6.2c1.8,1.9,1.6,4.2,0.1,6.5
			c-1.7,2.5-4.5,2.6-6.4,1.6c-2.5-1.4-4.9-1.1-7.4-1.1c-14.6-0.2-29.1,0.1-43.7-0.6c-4.6-0.2-9.5-0.7-14-2.7c-2.7-1.2-5.7-1-8.5-1
			c-17.3,0.3-34.6,1.8-51.7-0.3c-11.4-1.4-22.7-1.8-34-2.5c-4.6-0.3-7.1,2.7-4.5,6.3c2.6,3.7,1.2,6.8,0.7,10.3
			C515.6,566.1,516.5,571.8,515.7,577.2z M638.7,656.9c0.5,0,1,0,1.4,0c3.3-0.1,7.1,0.7,9.9-0.9c2.3-1.4-0.3-4.8,0.8-7.1
			c0.3-0.7,0.7-1.5,0.9-2.2c0.7-2.4,0.8-4.9-0.2-7.1c-2.1-4.3-4.1-8.7-6.8-12.7c-2.2-3.3-5.6-5.3-9.9-3.5c-2,0.8-3.6,0.3-5.4-0.8
			c-2.1-1.4-3.2-0.6-3.2,1.9c0,2.2-0.3,4.4,0.3,6.7c1.4,5.3,1.8,10.7,2,16.2C629,656.9,628.9,656.9,638.7,656.9z M721,626.5
			c0.1-3.8,1.3-7.6-0.6-10.9c-4.2-7.2-7.7-14.7-10.7-22.4c-1.1-2.8-2.3-3.8-5.5-3.3c-3.3,0.5-3.2,2.4-3.3,4.7
			c-0.1,1.7-0.4,3.5-0.6,5.2c-0.9,9.1-3.4,18-4.9,27.4C704.1,626.1,712.4,623.4,721,626.5z M647.9,597.8c-0.3-0.5-0.7-1.3-1.2-2.1
			c-4.3-8.2-12.1-10.8-20.2-12.8c-1.8-0.4-4.3-2.2-5.3-0.6c-1.2,2.1-2.3,4.7-1.2,7.6c1.4,3.6,2.4,7.3,3.3,11c0.9,3.4,0.4,7.9,2.5,10
			c2.3,2.2,6.3-1.3,9.8-1c0.2,0,0.3,0,0.5,0C641.7,609.6,647.6,603.7,647.9,597.8z M706,655c0-0.2,0-0.4,0-0.7
			c4.3,0,8.6-0.1,12.9,0.1c2.2,0.1,2.8-0.7,2.7-2.7c-0.2-4.3-0.2-8.6-0.3-12.9c0-1.5-0.3-2.3-2.2-2.1c-4.4,0.5-8.9,0.5-13.3,1.2
			c-4.2,0.7-9.8-1.3-12.3,1.6c-2.4,2.8-1.9,8.2-2.6,12.4c0,0.2-0.1,0.3-0.1,0.5c-0.9,2.3,0.3,2.7,2.3,2.7
			C697.4,655,701.7,655,706,655z"/>
		<path class="st0" d="M587.4,646.4c-0.5,1.5,0.6,2.4,1.2,3.5c8.1,15.2,16.2,30.4,24.3,45.7c1.1,2.1,1.9,2.4,3.9,1.1
			c3.7-2.4,7.8-3.9,12.2-3.9c12.8,0,24.5-3.7,35.7-9.6c4-2.1,8.3-3.4,12.9-3c2.6,0.2,4.6-1.2,6.7-2.2c2.9-1.5,5.8-2.7,9.1-2
			c2.3,0.5,3.9,1.5,3.7,4.1c0,0.5-0.1,1-0.1,1.5c-0.4,0.7-0.7,1.8-1.2,1.9c-6.1,1.2-11.1,5.8-17.6,5.8c-3.8,0-7.2,0.8-10.6,2.5
			c-12.7,6.7-26.1,10.4-40.6,9.5c-0.6,0-1.3,0-1.9,0.1c-8.8,1.1-9.4,2-6.4,10.2c1.5,4.2,2.8,8.5,3.6,12.9c0.6,3.2-0.7,5.5-3.9,6
			c-3,0.5-4.8-1.3-5.4-4.2c-7.3-32.8-24.9-60.7-42.1-88.8c-0.2-0.3-0.4-0.5-0.5-0.8c-4.6-12.4-15.1-17.9-26.3-22.7
			c-4.4-1.9-8.5-1.5-12.5,0.5c-7.2,3.6-13.7,8.2-19.7,13.7c-5.1,4.7-6.2,11.1-7,17.4c-0.7,6.1-1,12.1-2.4,18.2
			c-1.7,7.5-0.8,15.6,1,23.4c3.7,15.5,9.2,30.3,15.4,44.9c2.4,5.7,4.6,11.6,6.6,17.5c1.1,3.2,1.7,6.6-1.5,9.3
			c-0.2,0.2-0.7,0.5-0.7,0.6c2.5,7-4.1,6.7-7.3,9c-3.7,2.6-7.9,4.6-12.4,4.7c-7,0-13.5,1.9-20.1,4c-3,1-6.3,1.7-9.4,1.6
			c-11.5-0.6-22.2,2.7-32.6,6.9c-16.3,6.6-34,7.8-50.7,12.8c-17.4,5.2-35.1,8.8-52.6,13.3c-2,0.5-3.9,1.4-6,1.8
			c-2.8,0.6-2.8,1.9-1.5,4c1,1.6,1.9,3.4,2.5,5.2c0.9,3,2.1,4.8,5.9,4.5c3.3-0.3,5.7,2.2,6.8,5.3c1.2,3.2,1,6.9-1.9,8.8
			c-3.4,2.3-2.4,4.5-1.4,7.3c10.2,30,23.6,58.8,33.7,88.8c11,32.7,23,65.1,30.7,98.9c1.9,8.3,3.1,16.7,4.4,25c0.5,3.5-1.2,6-4.5,6.9
			c-3.1,0.9-5.6,0.1-7.6-3c-2.9-4.5-2.1-9.7-2.9-14.5c-1.8-10-4-19.8-6.7-29.6c-7.8-29-17.8-57.3-27.2-85.8
			c-2.4-7.1-4.9-14.2-7.5-21.3c-0.6-1.7-1-3.8-3.7-3.4c-1.8,0.2-2.6,0.7-2.2,2.6c0.9,4.2,1.7,8.4,2.3,12.6c0.6,3.8,1,7.7-1.3,11.1
			c-1.4,2-14.3,6.5-16.4,5.4c-2.1-1.1-4.1-2.5-3.9-5.8c0.4-6.2,0.2-12.4,0.2-18.6c0-1.2,0-2.7-2.1-2.1c-10.7,3.2-21.7,3.5-32.8,3.6
			c-12.8,0.1-12.7,0.5-11,13.3c0.5,3.5,0.4,7,0.3,10.6c-0.1,5.1-3.5,8-8.8,7.7c-4.1-0.3-6.7-3.8-6.3-8.7c0.4-4.8-1.7-9.3-1.3-14.1
			c0.2-2.2-1.8-3.7-4.7-2.8c-7.1,2.2-14.4,4-21.9,4.6c-3.3,0.3-6.7,0.5-8.9-2.8c-1.2-1.8-3.5-2.9-2.2-6c1.4-3.3,3.2-5.6,6.8-5.3
			c8.4,0.5,15.6-3.9,23.6-5.2c5.4-0.9,5.3-5.7,4.7-9.8c-1.7-11.3-2.2-22.6-1.9-34c0.1-5.7-0.2-5.5-6.1-4.6c-5.1,0.8-10.1,4-15.5,1.3
			c-3.9-1.9-8.1-3.5-11.8-5.8c-1.8-1.2-3.2-3.6-2.1-6.3c1.3-3.1,4.3-4.7,7-4.6c8.5,0.1,16.5-2.7,24.7-4c2.6-0.4,3.6-1.9,3.7-4.9
			c0.2-6.9,0.9-13.8,1.9-20.6c0.7-4.2,4.3-5.2,8-4.6c2.6,0.5,3.9,2.6,4.5,5.4c1.1,5.2,0.4,10.2,0,15.4c-0.5,6.4,1,7.7,6.7,5
			c11.3-5.4,23.4-7.1,35.6-8.7c4.6-0.6,5.7-2.3,3.6-6.3c-1.5-2.9-1.5-7.1-6.4-7.8c-2.1-0.3-3.8-3.1-2.9-5.8c0.8-2.5,2.8-4.9,5.4-4.5
			c7.4,0.9,13.7-2.6,20.6-4.1c17.6-3.8,34.9-8.6,52.2-13.3c16.2-4.3,33.1-6.2,48.8-12.6c10.2-4.2,20.9-6.3,32-6.1
			c5.8,0.1,11.7-0.9,16.6-4.6c1-0.8,1.8-0.2,2.7-0.1c6.9,0.8,13.6,0.2,19.9-2.9c2.6-1.3,5.4-1.6,7.8-2c-5.2-12-10.5-23.9-15.5-36.1
			c-3.9-9.7-7.1-19.7-9.8-29.8c-3.2-11.8-3.8-23.7-1.7-35.7c0.9-5.4-2.4-13.5-7.2-16.4c-8.8-5.3-14.5-4.8-22,2.4
			c-4.3,4.1-8.3,8.4-12.6,12.5c-10.2,9.7-10.3,21.4-8.1,34.4c2.3,13.6,5.3,27.1,7,40.8c0.5,3.9-0.1,8-0.7,11.9
			c-0.7,5.2-3.8,6.2-8.2,3.4c-3.7-2.4-7.3-0.1-10.7,1c-4.7,1.6-9.4,3.2-14.4,3c-5.4-0.2-10.4,0.6-15,3.4c-1.3,0.8-2.9,1.8-4.4,1.7
			c-12-0.7-22.2,8.4-34.5,6.3c-1-0.2-2.6-0.4-3.1,0.7c-2,4.4-6.2,3.8-9.7,4.5c-8.9,1.7-17.9,2.8-27.1,3c-16.8,0.3-33.5,0.7-50.3,0.6
			c-7.7,0-15.4,1.7-23,3.6c-3.2,0.8-6.6,0.2-10,0.2c-11.5,0.1-23.1,0.1-34.6,0.1c-4.7,0-9.2,1.6-14,0c-2.8-0.9-3-2.3-3.1-4.4
			c-0.1-2.8,1.7-3.3,4.1-3.3c9.7,0,19.5-0.4,29.2-0.3c13.5,0.1,27.2-0.2,40.5-2.9c10.1-2,20.4-2.6,30.5-1.4
			c11.1,1.3,22-1.5,33.1-0.6c2.2,0.2,1.9-1.1,1.8-2.7c-0.5-14.9,0.3-29.7,3.9-44.3c0.3-1.1,0.6-2.2,0.9-3.2c1.1-3.4,3.5-5,7-4.4
			c3.3,0.6,4.9,2.9,4.7,6.2c-0.6,13.1-0.3,26.2-0.2,39.4c0.1,4.4,1,5.1,5.1,3.7c6.4-2.1,13.1-3.1,19.9-3.2c4.5,0,6.2-1.6,5.6-6.3
			c-1-8.4-1.2-16.9,0-25.4c0.1-0.8,0.2-1.6,0.3-2.4c0.6-3.2,2.2-5.5,5.8-5.1c3.2,0.3,4.5,2.6,4.6,5.7c0.5,8.9,1.4,17.9,1.2,26.8
			c-0.2,0.6-0.1,1,0.7,0.8c6-0.9,12-1.3,17.3-4.8c2.2-1.5,5-1.1,7.5-1c6.2,0.1,12.1-1.1,17.7-3.5c2.7-1.2,5.5-1.7,8.4-1.7
			c2.2,0,3.3-0.3,2.8-2.9c-2.8-12.5-5.8-24.9-7.7-37.6c-0.3-1.7-1.5-1.7-2.9-1.8c-9.4-0.8-18.7-1.5-28.2-1.6
			c-17.7-0.1-35.5-1.7-53.2-3.1c-9.1-0.7-18.2-0.4-27.4-0.6c-4.8-0.1-9.7,0.3-14.3-1c-3.9-1.1-4,0.5-4,3.6c0,17.3,0.9,34.6-0.6,51.9
			c-0.4,4.5-1.1,8.9-3.4,12.9c-1.2,2.2-3.3,4.3-5.7,3.5c-1.9-0.6-2.9-3.2-2.6-5.6c0.6-4.3,0.9-8.6,1.8-12.9c0.8-3.9,0.8-8,0.9-11.9
			c0.5-19.2,0.8-38.4,1.2-57.6c0.1-4.9,2-6.3,5.6-4.8c2.5,1,2,3,2,4.8c0.1,7.1,0.6,7.6,7.5,7.9c1.6,0.1,3.2,0.2,4.8,0.1
			c20.5-0.9,40.9,1.2,61.4,1.8c7.2,0.2,14.2,2.3,21.4,1.6c0.6,0,1.3,0,1.9,0c6.8-0.3,13.5-0.5,20.3-0.8c2.8-0.1,4.6,2.4,7.6,2.1
			c2.3-0.2,3.2-0.7,2.9-3c-2.6-20.4,11.1-32.4,23.6-44.8c2.3-2.3,4.6-4.7,7.2-6.6c7.9-5.6,16.5-5.7,25.1-2.4c4.1,1.6,8,3.7,11.8,6.7
			c3.3-11.7,12.9-17.1,21.9-23.1c4-2.6,7.9-5.4,12.8-6.3c5.4-1,10.5-0.3,15.9,1.7c13.6,5,23.4,13.7,30.3,26.3
			c2.1,3.8,4,8.2,8.2,10.5c0,0,0-0.1,0-0.1C585.4,645.3,586.3,645.9,587.4,646.4L587.4,646.4z M328.9,845.5
			c-15.7,5-31.9,5.5-46.8,11.9c-2.8,1.2-3.7,2-3.5,4.8c0.8,12.4,1.6,24.9,2.1,37.3c0.2,3.8,1.4,3.8,4.6,3
			c13.8-3.3,27.2-8.3,41.4-9.8c2.1-0.2,2.2-1.2,2.1-2.8C327.9,875.4,326.7,860.7,328.9,845.5z"/>
		<path class="st0" d="M1095.1,564.7c3.6-1.5,7.5-0.8,11.2-1.8c1.2-0.3,2.9-0.7,3.6,0.5c2.2,3.3,3.5,1,5.1-0.5
			c2.6-2.7,7.1-2.2,7.7,1.3c0.5,3.2,2.2,2.5,3.9,2.5c5.4,0,10.8-1.7,16.1,0c14.9,4.9,30,9.2,39.8,23.1c4.3,6.2,10.1,11.4,14,17.8
			c4,6.7,6.2,14.4,8.9,21.9c7,19.4,9.9,39.4,8.8,60c-1.2,22-4.3,43.5-14.4,63.4c-3.5,6.9-7.2,13.7-10.6,20.6c-1.9,4-6.4,5.8-9.2,9.4
			c-9,11.3-20,20.6-31.6,29c-3.2,2.3-6.9,3.8-10.8,4.7c-4.6,1.1-8.8,2.4-12.5,6c-3.2,3.1-8,3.4-12.3,4.3c-11.4,2.4-22.7,5.5-34,8.5
			c-11.2,2.9-22.5,5.5-34.4,4.7c-10.1-0.7-19.9-2.8-29.8-4.6c-9.1-1.7-17.1-6-25.7-7.7c-8-1.6-11.6-6.5-15.3-12.3
			c-2.4-3.8-5.4-7.2-9.4-9.1c-7.1-3.3-10.5-9-12.1-16c-1.7-7.3-4.2-14.1-8.4-20.4c-6.3-9.4-7.5-20.4-7.8-31.2
			c-0.2-6.6-2-12.9-2.2-19.5c-0.4-11.9-0.9-23.8,0.2-35.5c1.2-12,4.5-23.8,9-35.1c3.4-8.4,7.2-16.7,9.7-25.5
			c2.4-8.6,7.6-15.8,12.7-22.9c3.9-5.4,8.2-10.4,12.4-15.4c3.2-3.8,7.2-6.4,12.1-7.6c0.9-0.2,2.6-0.3,2.5-1.7
			c-0.2-5.6,4-5.8,7.8-6.8c17.9-4.8,36-8.5,54.7-7.4c6.1,0.3,12.5-0.1,17.9,3.9c0.6,0.5,1.1,1,1.9,1.8c-2.3,1.5-5.4-0.5-7,2.1
			c0.8,0.8,1.8,0.5,2.7,0.5c-0.3,2.7-2.4,1.3-3.7,1.4c-6.9,0.5-13.6-1.5-20.5-1.6c-13.9-0.2-27.3,3.3-40.7,6.2
			c-2.5,0.5-5.7,0.1-5.2,4.5c0.1,1.3-1.5,2.5-2.8,3.1c-8.6,3.6-13.2,11.3-18.8,18c-11,13.1-19.2,27.5-22.4,44.5
			c-0.9,4.9-2.6,9.6-3.9,14.3c-6.2,23.2-9.9,46.5-5.2,70.5c3.6,18.1,9.1,34.9,22.5,48.3c3.4,3.4,6.4,7.1,9.3,11
			c4.3,5.9,9.9,9.9,16.8,12.1c5.4,1.8,10.3,4.4,14.6,8c5.7,4.7,12.3,6.5,19.6,6.4c9.8,1.5,19.7,2.3,29.5,0.1c8.9-2.1,17.9-3,27-2.7
			c4.9,0.1,9.7-0.5,14.6-1.9c-14.5-7.3-30.1-13.1-37.3-29.4c-9.7-16.9-15-35.3-18-54.4c-0.3-6.5-0.9-13-0.9-19.5
			c-0.2-14.6,3.4-28.6,6.6-42.7c0.2-0.6,0.5-1.2,0.6-1.8c2.5-17.2,8-33.5,14.2-49.7c4.8-12.6,10.8-24.4,19.9-34.2
			c5-5.3,10.2-12.4,19.7-9.6c0.7,0.2,1.8-0.9,3-1.5C1104.3,566.1,1099.4,566.3,1095.1,564.7z M1175.9,605.1c0.5-1-0.5-1.1-0.9-1.6
			c-5.6-6.2-12.1-10.7-20.1-13.3c-6.3-3.7-13.1-5-20.3-4.4c-1.9,0.2-3.8,0.1-5.8,0c-1.5-0.1-3.8,0.1-3.8-1.9c-0.1-2.1,2.2-1.9,3.7-2
			c6.1-0.5,12.3-0.9,19.2-1.3c-1.3-0.8-2.1-1.3-2.9-1.7c-7-4-14.7-2-22.1-2.8c-3.2-0.3-6.2-0.1-6.7-4.3c-0.1-0.7-0.5-1.1-1.2-1.3
			c-1.6-0.3-7.8,4.4-8.1,6.2c-0.3,1.7,0.2,4.6-1.6,4.5c-2.7-0.1-0.6-3.2-1.4-4.7c-0.1-0.1-0.1-0.3-0.2-0.4
			c-5.7,0.9-10.3,3.8-13.3,8.3c-2.9,4.4-5.8,8.8-8.7,13.2c-5.3,8-8.3,16.9-9.7,26.4c-1,7.3-2.2,14.6-3.4,21.8
			c-3.1,18-7.2,35.9-8,54.1c-1.2,26.1,4.4,50.7,17,73.9c4.8,8.9,11.5,14.7,20.8,17.7c3.8,3.2,8,4.2,13,3.3c4.4-0.8,8.9-0.9,13.3-1.5
			c8.7-1.2,17.4-1.8,25.3-6.5c16.9-10,27.3-25.4,35.7-42.2c9.2-18.3,12.4-38.2,13-58.5c0.3-12.1,1.6-24.4-2.8-36.1
			c-1-3.8-2-7.7-2.9-11.5c-2.4-9.9-5.3-19.6-11.4-28.1c-1.5-2.1-2.7-4.6-5.6-5.3L1175.9,605.1z M1034.5,827.1
			c-12.1,0.3-23.5-1.9-33.3-9.8c-3.4-2.8-7.7-3.9-11.7-5.4c-6.7-2.5-12.6-6.1-17.3-11.7c-5.4-6.5-10.9-13-16.4-19.4
			c-0.2,0.1-0.4,0.1-0.6,0.2c0.2-0.1,0.5-0.2,0.7-0.3c0.7,7,1.4,14.5,8.3,18.2c7.3,4,12.8,9.3,16.8,16.5c1.8,3.2,4.2,5.4,8.3,5.4
			c3.2,0,6.2,1.3,9.1,2.8c4.1,2.2,8.7,2.9,13.2,3.8c7.5,1.6,15,0.4,22.5,1.6c4,0.4,8,0.1,13.1-1.8
			C1042.1,827.1,1038.3,827.1,1034.5,827.1z M1143.1,807.2c-6.2,0.9-12.4,1.8-18.6,2.7c0.1,0.5,0.1,1,0.2,1.5
			C1131.4,813.8,1137.1,809.6,1143.1,807.2z"/>
		<path class="st0" d="M499.8,928.9c-9.1,3.9-17.1,8.6-25.3,12.9c-1.7,0.9-2.2,1.9-1.8,3.8c2.2,9.8,0.7,20.1,5.7,29.5
			c2.1,3.9-1.9,8.3-6.6,8.2c-1.5-0.1-2.9-0.6-4.6,0.3c-5,2.5-8.1,1.1-9.7-4.4c-2.1-7-4.1-14.1-6-21.2c-0.7-2.6-1.3-3.9-4.4-2.2
			c-3.8,2-8.1,2.6-12.5,2.8c-5.3,0.2-9.6-3.1-10.5-8c-0.9-5.1,2.2-9.7,7.6-11.1c13.4-3.6,13.4-3.6,9.8-16.9
			c-2.8-10.2-6.1-20.2-9.9-30.2c-4.5,2.1-8,5.6-12.5,7.4c-4.8,1.9-9,1-11.3-2.9c-2.3-3.9-1.1-8,3.1-11.2c4.7-3.6,9.3-7.3,14.2-10.7
			c2.3-1.6,1.9-3.3,1.5-5.4c-1.4-7.2-3.9-14.3-2.3-21.8c0.1-0.7,0.2-1.3-0.4-1.7c-5-3.6-1.5-6.7,0.8-9.5c1.2-1.5,2.5-2.9,3.3-4.6
			c0.9-2.1,2.4-3.5,4.8-3.3c2.7,0.2,3.8,2.2,4.3,4.5c1.8,8.8,4.3,17.4,7,25.9c1.1,3.5,2.1,3.9,5.5,2.2c7.4-3.7,15.1-6.9,22.8-9.9
			c2.5-1,2.6-2,2-4.2c-1.3-4.9-2.3-10-3.4-15c-1-4.7,1.1-9.4,4.6-10.4c3.6-1.1,8.6,1.8,10.2,6.1c1.6,4.5,3,9.1,4.4,13.7
			c0.6,2.1,1.1,3.3,3.9,2.2c4.2-1.8,8.9-2.5,13.1-4.5c5.2-2.5,11,0,13.1,5.2c2.1,5-0.1,10.3-5.3,12.8c-4.9,2.4-10.2,3.6-15.4,5.1
			c-2.2,0.6-2.7,1.5-2,3.7c3.7,11.6,8.3,22.8,12.7,34.1c0.7,1.8,1.5,2.3,3.6,1.6c7.6-2.5,14.9-5.6,21.8-9.7c6-3.5,12.3-2,15.3,3.4
			c3,5.5,0.9,11.4-5.2,14.9c-7.9,4.5-16.3,8.2-24.9,10.9c-2.2,0.7-2.6,1.4-2.1,3.6c1.5,7,2.7,14.1,3.9,21.2
			c0.9,5.2-2.4,10.1-7.4,11.3c-5.2,1.2-10.5-1.8-11.7-7.3c-1.2-5.3-1.8-10.7-2.7-16.1C500.7,932.4,500.3,930.8,499.8,928.9z
			 M493,907.9c-0.1-0.4-0.3-0.8-0.4-1.3c-4.5-11.6-8.7-23.3-11.9-35.4c-0.7-2.7-2.3-2.1-4-1.4c-7.5,3.2-15,6.4-22.5,9.5
			c-2.4,1-2.8,2.4-1.9,4.9c4.3,11.9,8.6,23.7,12.7,35.7c0.9,2.7,1.9,2.5,4.1,1.3c7.1-3.9,14.4-7.5,21.7-11.2
			C491.7,909.6,493,909.5,493,907.9z"/>
		<path class="st0" d="M1656.8,752.2c0,4.5,0.2,9-0.1,13.4c-0.2,3.8,2.1,4.7,4.7,3.6c2.2-0.9,4.4-0.9,6.5-1.1
			c3.8-0.5,6.8,1.3,8.2,5.1c1.4,3.6,0.4,6.5-2.4,9c-3.4,3-6.8,5.6-11.9,4.6c-2.8-0.6-4.2,0.9-3.6,3.9c0.5,3,0.1,6,0.9,9
			c1.2,4.5-3.4,10.5-7.7,10.9c-4.4,0.4-9-4.3-9.3-9.2c-0.4-5.1-0.8-10.3-2.1-15.2c-0.6-2.5-4.1-2.3-6.4-2.5c-8-0.5-16-0.5-23.9-1.8
			c-2-0.3-2.2,1.3-2.2,2.8c-0.1,6.4-1.1,12.7-1.9,19c-0.8,6.1-4,8.8-9.3,7.8c-3.4-0.7-6.3-6.4-5-10.5c1.9-6.2,1.4-12.7,2.1-19
			c0.2-1.4-1.7-2.4-3.3-2.1c-5.1,0.8-10.1-1.4-15.1-1c-3.9,0.3-5.7-2.2-6.8-4.8c-1.4-3.4,1-8.3,4.4-9.2c6.3-1.8,12.8-2.4,19.3-1.8
			c2.9,0.3,4.3-0.5,4.2-2.8c-0.4-9.6,2.7-19,1.9-28.7c-0.2-1.9-0.3-2.5-2.5-2.8c-3.9-0.5-7.8-1.5-11.5-3c-2.9-1.1-5.7-3.4-4.9-7
			c0.9-4,3.5-6.8,7.9-6.8c3.3,0,6.7,0.4,10,0.7c2.5,0.3,3.4-0.4,3-3.2c-0.9-6.2,1.6-12.2,1-18.5c-0.2-2.5,1.1-5.6,5.1-5.4
			c3.6,0.2,4.7,2.7,5,5.4c0.6,6,1.2,12.1,0.9,18.2c-0.2,4.6,1.4,5.5,5.6,5.5c7.2,0,14.3,0.6,21.5,1.1c3.3,0.3,5.3-1,5.2-4.3
			c-0.1-3.8,2-7,2.2-10.8c0.2-2.9,2.9-5.3,6.5-5c4,0.3,7.3,4,7,7.7c-0.2,2.8-0.9,5.6-1.4,8.4c-0.5,3.1-0.2,5.1,4,4.7
			c4.6-0.4,9.3,0,13.9,0.1c6.6,0.2,10.2,3.8,10,10c-0.2,5.6-4.4,8.7-10.9,8.4c-5-0.3-9.9-0.2-14.9-0.6c-3.4-0.3-4,1.2-3.9,4.1
			C1656.9,743.2,1656.7,747.7,1656.8,752.2C1656.8,752.2,1656.8,752.2,1656.8,752.2z M1611.5,747.6c-0.2,0-0.4,0-0.6,0
			c-0.3,4.5-0.4,8.9-1,13.4c-0.4,2.8,0.3,3.6,3.1,3.7c8.1,0.2,16.3,0.5,24.3,1.7c2,0.3,2.8-0.2,2.9-2.4c0.1-9.1,0.5-18.2,0.8-27.3
			c0.1-2-0.6-2.8-2.7-3c-7.9-0.7-15.9-1.5-23.8-2.5c-2.8-0.4-3.2,0.7-3.2,3.1C1611.6,738.7,1611.5,743.1,1611.5,747.6z"/>
		<path class="st0" d="M601,851.5c3.4,8.9,6.9,17.6,10.2,26.4c1.6,4.2,3.2,8.3,3.6,12.9c0.4,4.7-1.3,8-5.1,9c-3.7,1-7.2-0.8-8.8-5.4
			c-6.1-16.8-12.5-33.5-17.8-50.7c-4.1-13.5-7.9-27-9.6-41.1c-0.7-6.2,2.2-9.4,8.2-8.5c1.4,0.2,2.1-0.4,2.9-1.1
			c5.3-5.2,11.9-6.3,18.7-5.2c8.8,1.5,16.9,5.2,23.6,11c6.8,5.8,7.1,13.5,4.9,21.6c-1.7,5.9-4.8,11.2-8.6,16c-1.6,2-1.6,2.6,1.1,3.3
			c8.7,2.3,17,5.5,23.7,12c2.4,2.4,3.7,5.3,4.5,8.3c0.9,3.3-0.5,6.1-3.5,7.7c-2.9,1.7-6.5,1.9-8.4-0.8
			c-7.9-10.9-20.2-12.1-31.7-14.9C606.6,851.5,604.1,850.6,601,851.5z M599.3,800.2c-9.3-0.2-12.8,4.2-10.8,11.4
			c1.9,6.8,4,13.4,5.8,20.2c0.9,3.5,2.7,3.7,5.6,2.6c9.8-3.7,15.2-11.2,18-20.9c0.6-1.9,0.6-4-1.2-5.2
			C610.7,804.4,604.7,800.8,599.3,800.2z"/>
		<path class="st0" d="M1346.7,729.2c9.7-6.6,18-14.2,26.7-21.2c3.3-2.7,6.5-5.9,11.3-5.9c3.7,0,6.2,1.7,7.3,5
			c1.1,3.2,0.5,6.3-2.4,8.5c-12.2,9.4-24,19.4-38.3,25.9c-2.6,1.2-2.9,2.6-1.5,5c10,17.8,14.8,37.4,19.3,57
			c1.1,4.9-1.3,9.2-5.3,10.1c-5.7,1.3-9.2-0.9-11-6.1c-4.5-13.1-6.5-26.9-10.4-40.1c-0.3-0.9-0.8-1.7-1-2.5c-0.2-0.9,0.3-2.1-1.3-2
			c-1.1,0.1-0.8,1.2-0.9,1.9c-1,7.6-1.9,15.1-3,22.7c-0.6,3.9-2.5,7.2-6.6,7.8c-4.2,0.7-8.6,0.9-10.8-4.4c-1.2-2.9-0.7-5.7-0.4-8.3
			c0.6-7.2,1.9-14.3,3.1-21.4c1.9-11.6,4.7-23.1,8.3-34.4c2.3-7.2,4.3-14.4,6.8-21.6c1.7-5,4.9-6.7,8.9-5.6
			c4.2,1.2,5.5,6.7,4.9,10.7C1349.5,716.4,1348,722.6,1346.7,729.2z"/>
		<path class="st0" d="M1421.4,718.4c1.6,9.5,0.2,18.7-1.9,27.8c-0.8,3.6-0.5,5.6,3.9,6.1c5,0.5,10,1.9,15,2.7
			c4.4,0.8,6.2,3.8,6.3,7.7c0.2,3.9-3.2,7.1-7.3,7.5c-6.6,0.6-12.7-1.4-18.7-3.6c-2-0.7-2.9-0.8-3.4,1.7c-2.1,9.2-4.5,18.4-7,27.6
			c-0.9,3-0.3,4.2,2.8,4.3c3.8,0.1,7.7,0.1,11.5,0.2c0.3,0,0.8,0.1,0.9-0.1c4.1-6.2,6.7,0.4,9.5,1.6c4.6,1.9,5.8,7.3,3.7,11.8
			c-2.1,4.5-7,6.7-11.7,5.3c-2.8-0.9-5.7-0.4-8.6-0.4c-7.4,0-14.8-0.2-22-1.8c-4.6-1-6.7-4.8-6.7-9.1c-0.1-6.2,1.4-12.2,3.1-18.2
			c3.7-12.9,7.5-25.7,10.4-38.7c1.9-8.4,3.9-16.8,5.7-25.3c0.2-1.1,0.4-2.3,0.1-3.3c-0.3-1.5,0-2.6,0.6-4c2-4.7,8-6.1,8.9-12.1
			c0.2-1.7,5.4-3.2,9-1.8c9.6,3.7,19.7,5.7,29.9,6.8c3.9,0.4,7.2,4.8,6.7,8.5c-0.5,4.4-4.1,7.8-8.1,7.8
			C1442.4,727.3,1431.6,724.1,1421.4,718.4z"/>
		<path class="st0" d="M648.5,800.6c0.6-10.9,1.1-20.4,4.3-29.7c3.2-9.6,6.2-11.8,16.2-11.7c0.3,0,0.7,0.2,0.9,0.1
			c14.5-5.6,25.1,2.7,34.3,11.2c14.2,13.2,15.7,30.3,10.5,48.3c-0.4,1.5-1,3.1-1.7,4.5c-2.6,5.2-4.7,10-0.7,15.8
			c2.2,3.2-0.5,10.6-3.9,12.4c-11.6,5.9-23.8,8.3-35.9,2.1c-10-5.1-15.5-14.7-19.5-24.7C649.3,819.5,647.1,809.7,648.5,800.6z
			 M661.7,795.5c-1.3,20.2,6.1,32.7,14.8,41.5c5.5,5.6,12.4,4.7,18.8,2.4c5.3-1.9,6.6-7.8,7.2-12.4c0.9-5.8,1.2-11.7,1.8-17.6
			c1.9-19.2-5.5-32.6-21.6-39.1c-0.9-0.4-2.4-1.8-2.8-0.3c-1.3,4.6-3.4,1.8-5.3,0.9c-6.2-3.3-8.5-2.3-10.5,4.2
			C662.2,781.8,662.2,788.7,661.7,795.5z"/>
		<path class="st0" d="M885.1,995.4c-2.9-0.2-6.1-1.3-7-5.4c-0.9-4.3,1.2-6.7,5.4-7.9c11.6-3.5,22.6-8.5,33.8-13.2
			c5-2.1,10.5-2.4,15.8-3.2c1-0.2,2.8-0.5,2.9,0.8c0.7,5.5,4.1,2.7,6.2,1.9c13.1-4.8,26-9.9,39.1-14.7c8.2-2.9,16.7-4.8,25.3-6
			c3.1-0.4,6,0.5,7.6,3.7c2.2,4.2,0.6,7.9-1.7,11.1c-2.8,3.8-7,5.8-11.3,7.6c-2.4,1-4.3-0.5-5.9-2c-1.9-1.8-3.4-1.6-5.9-0.9
			c-16.5,4.7-32.2,11.9-48.7,16.6C922.9,989,904.9,994.7,885.1,995.4z"/>
		<path class="st1" d="M183,828.1c-0.4,21.9-0.5,43.8,1.4,65.7c1.2,13.2,1.6,26.4,3.3,39.5c1.2,9.9,2.5,19.9,3,29.7
			c0.6,10.5,1.6,21.2,0.7,31.9c-0.3,4.5-0.1,9,0.6,13.4c0.5,3.4,0.1,6.1-4.2,6.3c-4.5,0.2-5.1-2.9-5.1-6.2
			c-0.1-10.6-0.1-21.1-0.3-31.7c-0.1-3.4,0.3-7.1-2-10.1c-1.2-1.7,0.4-2.9,0.4-4.5c0-6.6-1.3-13.1-1.7-19.6c-0.3-4.7-1.4-9.3-1.2-14
			c0.2-4.8-1-9.6-1.8-14.4c-0.8-4.7-0.7-9.5-0.8-14.1c-0.1-6.6-1.5-13.1-1.4-19.6c0.3-21,0.6-41.9,0.8-62.9
			c0.1-7.3-0.1-14.5,0.2-21.8c0.4-8.6,1.2-17.2,2-25.9c0.1-1.6,1-3.9,2.7-3.9c2.2-0.1,2.9,2.1,2.9,4.2c0.2,11.2,1,22.4,0.5,33.6
			c-0.2,4.1-0.7,8,2.1,12.3c2.6,3.9,2.4,9.7,3.2,14.7c0.9,5.5,1.4,11,2.1,16.5c0,0.3,0,0.6,0,1c0.1,3,0.3,6.1,0.2,9.1
			c0,1.3,0.3,3.2-1.8,3.3c-1.8,0-1.8-1.9-2.4-3c-0.2-0.4-0.1-0.9-0.1-1.4c0.6-9.5-1.3-18.7-2.1-28.1c0.2-2.2-0.6-4.3-1.5-7.1
			C183,823.9,183,826,183,828.1z"/>
		<path class="st0" d="M1285.5,745.2c-4.9,0.6-9.6-1.1-14.1-2.4c-3.1-0.9-4.2-0.3-4.7,2.4c-2.4,11.6-4.9,23.2-7,34.8
			c-0.7,3.7-2,6.8-5.6,8.1c-2.6,1-5.6,0.4-7.5-1.6c-2.6-2.7-2.5-5.7-1.4-9.5c3.1-10.9,5.2-22.1,7.9-33.1c2.5-10,5.3-20,7.9-30
			c1.3-5,2.3-10,2-15.3c-0.2-3.2,0.6-7,3.5-9.5c0.7-0.6,2-1.1,2.7-0.9c9.1,3.9,18.2-0.1,27.3,0.3c3.9,0.2,6.7,1.7,9.1,4.4
			c2,2.3,3.1,5,1,7.8c-2.1,2.8-4.7,4.4-8.4,3.3c-6.6-1.9-13.3-0.6-19.9-0.8c-1.9,0-3.1,1.3-3.3,3.4c-0.4,6.5-1.9,12.8-3.7,19.1
			c-0.8,2.9,0.4,4.2,3.2,4.3c4.2,0.2,8.3,0.2,12.5,0.4c6,0.2,9.2,2.8,9.2,7.4c0,4.7-3.1,7.2-9.1,7.3
			C1286.4,745.2,1285.9,745.2,1285.5,745.2z"/>
		<path class="st1" d="M1171.6,903.7c4.2-1.2,8.4-2.5,12.6-3.4c5.5-1.2,7.2-3,7.2-8.6c0-10.6,0.9-21.1,1.7-31.6
			c0.7-9.5,2-19,2.3-28.6c0.2-8.9-0.4-18.5,2.2-26.6c4.5-13.8,0.4-27.5,2.6-41c0.2-1.3-0.6-3.1,1.2-3.7c1.7-0.6,3,0.7,4.1,2
			c3.2,3.8,2.3,8.5,2.8,12.8c0.6,4.7,0.1,9.6,0.4,14.4c0.2,2.8-1.5,6.2,2.4,8c0.4,0.2,0.3,1.5,0.3,2.3c-0.8,9.7-1.7,19.3-2.5,29
			c-0.7,7.9-1.4,15.9-2.1,23.8c-1.5,17.3-3.2,34.5-6.8,51.5c-0.2,1.1-0.5,2.2-1,3.1c-0.7,1.5-1.5,2.9-3.4,2.8
			c-2.3-0.1-2.9-2.3-2.9-3.7c0-2.9-0.8-2.8-3.5-3.1C1182.9,902,1177.7,906.4,1171.6,903.7z"/>
		<path class="st1" d="M203.4,1013.7c-3.1-0.1-5.1,0.4-6.4-1.6c-1-1.7-3.6-2.6-2.8-5.1c0.9-2.8,3.5-1.7,5.3-1.9
			c13.4-1.2,26-5.6,38.2-10.8c16.5-7.1,33.9-10.4,51.5-13.1c11.5-1.7,22-6.7,33-10.1c7.5-2.3,15.2-4.2,22.9-6.3
			c0.9-0.2,1.9,0,2.9,0.1c2.8,0.2,5.7,0.5,6.2,3.9c0.6,3.7-2.6,5.7-5,5.9c-17.6,1.7-33,10.5-49.9,14.3c-11.6,2.6-23.5,3.9-35.1,6.5
			c-10.3,2.3-20,6.7-29.8,10.4C224,1009.9,213.1,1011.9,203.4,1013.7z"/>
		<path class="st1" d="M1277,621.5c0.2-14,5.4-27.9,19.2-35.7c7.1-4,13.3-10.1,22.2-11c12.8-1.3,25.2,7.7,23.1,22.9
			c-3.3,24.3-19,36.6-40.3,43.4C1292.5,643.9,1275.4,633.8,1277,621.5z M1285.2,619.6c-1.7,5.5,2.1,8.4,6.9,10.8c4,2,8,2.2,12,0.4
			c5.7-2.5,11.1-5.7,15.8-9.8c7.3-6.5,12-14.5,12.6-24.5c0.6-9.5-8.7-16.4-17.8-13.4c-0.4,0.1-1,0.5-1,0.7c0.6,4.4-3.2,3.3-5.2,3.8
			c-2.5,0.6-5.1,0.9-7.2,2.5C1291.7,597.2,1285,606,1285.2,619.6z"/>
		<path class="st0" d="M577.5,694.2c0,3.4,0.3,6.7-0.1,10.1c-0.7,5.8-4.1,8.5-10,8.7c-12.4,0.5-23.3-4.5-33-11.2
			c-13-9-16.4-33.1-6.5-45.4c6.6-8.2,14-11,23.6-5.9C568.8,659.9,578.3,674.1,577.5,694.2z M569.1,694.3
			c-0.1-16.4-8.8-29.9-22.8-35.5c-5.1-2.1-12.4-0.9-14.6,2.5c-3,4.7-4.1,9.8-2.4,15.2c1.6,5.4,3.8,10.5,6.6,15.4
			c0.9,1.5,1.8,3.2,3.4,4c7.2,3.7,14.5,7.6,22.7,8.9c6.8,1.1,7.2,0.6,7.2-6.1C569.1,697.2,569.1,695.8,569.1,694.3z"/>
		<path class="st1" d="M1502.2,593.7c0.2,16.4-8.6,27.9-21.1,36.9c-6.7,4.8-14.4,0.6-19.3-5.9c-10-13.4-6.7-26.6,0.8-39.6
			c2.7-4.7,6.4-8.8,8.3-14c2.8-7.8,15.7-7.5,20.9-2.6C1499,575.5,1502.5,583.8,1502.2,593.7z M1492.9,593.9
			c0.5-6.1-1.2-11.7-5.3-16.4c-3.5-4-8.2-4-11.6,0.1c-5.6,6.9-10,14.5-11.5,23.4c-1.2,6.8-1,13.5,4,19c2.3,2.5,5.2,5.5,8.6,2.7
			C1485.9,615.1,1493.6,606.8,1492.9,593.9z"/>
		<path class="st1" d="M859.7,928.5c-3.9-4.2-4.5-9.6-6.7-14.5c-4-9-6.3-18.6-7.5-28.3c-0.6-4.9-1.7-9.8-1.2-15
			c0.5-5.9-0.8-11.9-0.9-17.9c-0.6-29.8-1.3-59.6-3-89.3c-1.2-20.7-1.1-41.5-0.9-62.2c0-1.9,0.1-3.8,0.2-5.8c0-1,0.1-2,1.5-2
			c1.1,0,1.2,0.8,1.3,1.6c0.2,1.9,0.7,3.8,0.7,5.7c0.3,7.8,0.4,15.6,0.9,23.5c2.7,38.2,3.3,76.4,5,114.6c0.7,14.9,0.9,29.8,2.2,44.6
			c0.8,9.3,3.3,18.4,5,27.5C857.3,916.8,858.5,922.7,859.7,928.5z"/>
		<path class="st1" d="M1183.1,913.7c-8.9,3.7-17.1,7.4-25.4,10.4c-27.8,10.2-57,15.8-85.3,24.2c-10.7,3.1-21.6,5.3-32.5,7.2
			c-3.2,0.5-7.1-0.2-10.2-2.2c-1-0.6-2.2-1.6-1.9-3.1c0.3-1.5,1.7-1.9,3-1.9c15.9,0.4,30.4-5.8,45.3-9.8
			c33.7-9,67.5-17.8,101.5-25.6C1179.1,912.6,1180.7,912.2,1183.1,913.7z"/>
		<path class="st1" d="M1259.8,549.1c-6.9,0.1-13.1-4.8-14.5-11.5c-2.9-13.6,1.3-25.5,9.3-36.2c2.6-3.5,7.6-4,11.3-3.6
			c6.5,0.7,19.1,9,20.2,18.1c1.1,8.6-2.9,15.7-8.2,22.1C1273.2,543.8,1268,549,1259.8,549.1z M1254.6,528.3c0,1,0,1.9,0,2.9
			c0.1,3.1,0.3,6.3,3.7,7.7c3.3,1.4,5.8-0.5,8.1-2.6c2.5-2.4,4.8-5.2,6.6-8.2c2.3-3.7,4.5-7.8,2.5-12.1c-2.2-4.9-7.8-5.8-12-8.5
			c-1.8-1.2-2.8,1-3.5,2.3C1256.7,515.4,1254.5,521.5,1254.6,528.3z"/>
		<path class="st1" d="M846.8,656.6c-1.4-4.3-0.4-8.8-0.5-13.1c-0.8-48.4-1.5-96.7-2.2-145.1c-0.1-5.6,0.1-11.2,0-16.8
			c0-2.1,1.1-3.7,1.9-5.3c0.8-1.5,3-1.8,4.6-1.3c2.2,0.7,2.3,2.9,2.1,4.8c-1.3,13.4-0.7,26.9-1.2,40.3c-1,29.1-2.1,58.3-2.9,87.4
			c-0.4,16.3-0.1,32.7-0.1,49C848.1,656.6,847.4,656.6,846.8,656.6z"/>
		<path class="st1" d="M1149.5,876.9c-5.8,0.2-11.5-3.8-11.8-9.5c-0.4-6.3-1-12.7,2.6-18.8c2.3-3.9,5.5-4.5,9.2-4
			c1.7,0.2,3.5,1,4.1,2.9c0.7,2.1-0.9,3.2-2.2,4.4c-2,1.8-3.6,9.5-2.4,11.9c0.9,1.6,2.1,1,3,0.1c7.2-6.3,13.2-13.6,16-22.9
			c0.9-3,1.7-2.3,3.4-1.3c3.3,2.1,4.8,5.3,4.2,9c-2.2,11.8-9.6,20.2-19.1,26.9C1154.5,876.9,1151.7,877,1149.5,876.9z"/>
		<path class="st1" d="M493.3,703.2c0.2,3.8-1.3,7-2.9,10.4c-2.7,5.6-11.6,7.5-16.2,2.6c-6.4-6.7-8.6-14.8-7.1-24
			c0.7-4.4,0.7-9,3.2-13c1.4-2.4,3-4,5.9-3.9c1.9,0.1,4.1-0.6,5.1,1.6c1,2.1-1.7,2.3-2.4,3.6c-0.7,1.2-1.9,2.4-2.1,3.7
			c-1.5,7.7-2,15.4,1.9,22.7c0.6,1.2,1.3,2.1,2.8,2.1c2.1-0.1,1.4-1.9,1.7-2.8c2-6.4,2.5-12.8-2.1-18.5c-0.8-1-2-2-0.8-3.2
			c1.2-1.1,2.2,0.1,3.3,0.8C494.7,693.3,493.1,694.2,493.3,703.2z"/>
		<path class="st1" d="M901.9,503.3c0.3,3.7-0.6,7.7-2.5,11.4c-2.9,5.9-5.5,7.3-11.6,6.5c-3.9-0.5-9.5-6.1-9.9-10.1
			c-0.5-5.4,0.2-10.5,2.9-15.4c0.9-1.6,2.2-2.2,3.4-3c1.2-0.7,3.7,0.9,3.9-1.3c0.1-1.3-2.2-1.6-3.6-2.1c-1.7-0.6-3.4-1.8-2.6-3.9
			c0.8-2,2-4.3,4.6-4c2.3,0.3,4.7,0.5,6.7,1.9C900.3,488,902.1,494.9,901.9,503.3z M893,502.6c-1.2-1.8,1.5-5.6-2.7-5.8
			c-3.7-0.2-4.6,2.8-4.8,5.8c-0.2,2.5-0.5,5.1,0.9,7.4c0.8,1.3,1.8,2.5,3.3,2.5c1.8,0,1.9-1.9,2.2-3.2
			C892.5,507.2,892.7,505,893,502.6z"/>
		<path class="st1" d="M586.5,643.9c0,0,0,0.1,0,0.1c4.5-11,7.1-22.2,5-34.1c-1.2-6.6-2.9-7.6-9.1-5.6c-0.3,0.1-0.6,0.3-0.9,0.4
			c-2.2,0.2-5,2.9-6.3-0.2c-1.2-2.8,1.5-5,3.8-6.5c7.2-4.6,16-2.1,19,6c4.5,12.3,4.2,24.7-0.5,37c-1.9,4.9-5.9,5.1-10.1,5.4
			c0,0,0,0,0,0C588.9,644.9,586.9,644.7,586.5,643.9z"/>
		<path class="st1" d="M1169.3,529.9c-6.1,0.1-10.5-5-10.6-11.2c-0.1-5.7,0.2-11.1,2.9-16.4c1.4-2.8,3.3-3.3,6.1-3.2
			c2.8,0.1,4.6,1.1,5.3,3.8c0.6,2.5,1.4,4.5,4.9,4.2c1.9-0.1,3.6,1.6,4.4,3.7C1185.1,518.4,1177.4,529.8,1169.3,529.9z M1174.7,512
			c-6.9,4.3-6.9,4.3-4.2,7.7C1172.4,517.6,1173.7,515.3,1174.7,512z"/>
		<path class="st1" d="M701.1,538.4c1.5-9.1,3.8-17.9,11.9-23.7c2.7-1.9,5.8-2.8,8.5,0.2c1.1,1.2-0.2,8.9-1.6,9.9
			c-0.4,0.3-1,0.6-1.3,0.4c-4.8-2.4-5,1.8-6.3,4.3c-3.3,6.1-2.3,13-3.6,19.5c-0.6,2.8-0.7,5.7-1.1,8.5c-0.1,0.9,0,2-1.3,2.3
			c-1.2,0.3-1.8-0.5-2.4-1.3c-3.4-4.4-3.9-9.6-3.3-14.9C700.8,541.9,701.1,540.2,701.1,538.4z"/>
		<path class="st1" d="M1241.5,577c5-1.2,9.9,3.6,15.9,4.3c2.4,0.3,1.6,7.5-1.5,9.4c-3.9,2.5-8.3,4.6-12.9,1.6
			c-2.7-1.8-5.5-1-8.3-1.1c-3.5-0.1-8.3-3.5-8.7-6.5c-0.4-2.8,3.5-6.8,7.5-7.4C1235.6,577.2,1237.8,577.2,1241.5,577z"/>
		<path class="st0" d="M897.6,920.4c2.7-2,5.8-3.2,8.6-0.7c2.7,2.3,1.7,5.6,0.7,8.4c-1.6,4.4-4,8.3-7.5,11.4
			c-2.8,2.5-6.2,2.6-9.2,1.2c-3-1.4-5.2-3.9-4.4-7.9c0.8-3.6-1.4-7.4,1-11.1c2.6-3.9,5.5-4.5,9.5-1.3c-0.1,2.3-0.3,4.6-0.4,7.1
			C898.6,925.4,898.7,923.1,897.6,920.4z"/>
		<path class="st1" d="M1224.2,724.2c-4.6-0.4-8.7,1-10.8-3.8c-1.3-3,0.2-7.1,3.3-7.5c3.3-0.5,6.6-0.7,9.9-0.8
			c4.5-0.1,7.7,2.7,7.5,6.2c-0.1,3.4-3.5,6-7.8,6C1225.4,724.2,1224.2,724.2,1224.2,724.2z"/>
		<path class="st1" d="M697,681.5c0-0.5,0.1-1,0.1-1.5c2.2,0,4.2,0,5.5,2.5c2.5,4.8,5.2,9.5,7.8,14.3c0.5,0.9,1.3,2.2,0.1,3
			c-1.2,0.8-2.1-0.4-2.8-1.2c-2.7-2.8-4.2-6.3-5.9-9.8C700.5,686.2,699.8,683.1,697,681.5z"/>
		<path class="st1" d="M815.4,406.6c8.1-2.3,16.3-2.8,24.7-2.1C832.1,407.6,823.5,404.6,815.4,406.6z"/>
		<path class="st2" d="M1195.8,649.9c4.4,11.8,3.1,24,2.8,36.1c-0.6,20.3-3.8,40.2-13,58.5c-8.5,16.9-18.8,32.3-35.7,42.2
			c-7.9,4.7-16.6,5.4-25.3,6.5c-4.4,0.6-8.9,0.7-13.3,1.5c-4.9,0.9-9.2-0.1-13-3.3c1.9-2.6-0.6-3.5-1.9-4.5
			c-5.2-3.8-8.6-9-11.6-14.5c-1.5-2.6-2.4-5.7-4.9-7.6c-7.2-5.6-11.1-13.2-12.8-21.9c-5.2-27.3-4.9-54.3,4.8-80.8
			c1.2-3.3,2.1-6.5,1.9-10.2c-0.4-5.6,1.5-10.6,4-15.6c4.2-8.4,10-15.9,13.4-24.8c4.1-10.6,12.9-17.2,23-20.9
			c9.5-3.5,19.2-0.8,28.3,2.9c1.4,0.6,2.5,1.3,3.9,0.1c2.4-2,5.6-2.3,8.3-3.6c7.9,2.5,14.5,7.1,20.1,13.3c0.3,0.5,0.6,1.1,0.9,1.6
			l-0.1-0.1C1182.5,619.9,1187.1,635.8,1195.8,649.9z M1165.3,657.1c-0.4-2.4-0.8-4.8-1.4-8c-3.2,4.6-0.3,7.7,1.1,11
			c-0.8,11.3-2.4,22.6-4.2,33.8c-1.7,10.3-3.7,20.5-5.2,30.7c-0.9,5.7,2.4,9.8,7.4,10.4c5.2,0.5,9-2.6,9.8-8.2
			c0.5-3.2,0.8-6.4,1.4-9.5c5-23.4,6.6-47.2,6.9-71c0-4.8-2.4-8.1-6.1-8.4c-3.9-0.3-6.7,2.3-7.6,7
			C1166.8,648.9,1166.1,653,1165.3,657.1z M1126.9,712c0,6.5,0,12.9,0,19.2c0,5.4,3.2,9.2,8.1,9.4c4.9,0.2,8.5-3.3,8.9-8.7
			c0.1-1.6,0.1-3.2,0.1-4.8c0.7-27.9-1.7-55.6-2.7-83.5c-0.1-4.1-1-7.9-6-8.4c-3.6-0.4-5.8,2.5-6.5,8c-0.1,0.6,0,1.3-0.1,1.9
			c-1.1,12.8-1.6,25.6-1,38.4c0.4,7.8-0.6,13.6-8.4,17.5c-4.3,2.1-7.6,6.4-11.9,10.1c0.1-15.2-0.3-29.6,0.6-44
			c0.6-9.9,1-19.8,0.1-29.7c-0.4-4.6-3.2-7.5-6.8-7.1c-4.1,0.4-6.1,2.8-6.4,7c-0.5,6.7-1.3,13.4-2.2,20c-3.8,30.9-3.5,61.9-3.5,93
			c0,5.1,4.2,8.7,9.1,8.5c4.9-0.2,8.6-4,8.7-9.1c0.1-5.3,0.2-10.5,0-15.8c-0.1-4.6-0.3-8.8,5.6-10.3c2.1-0.5,3.6-3,5.4-4.6
			C1121.1,716.7,1123.6,713.8,1126.9,712z M1158.7,759c0-6.4-4.4-10.6-9-8.5c-3.2,1.4-6.8,9.5-5.7,12.8c1.2,3.7,3.9,5.4,7.7,5
			C1156,768,1158.7,764.3,1158.7,759z"/>
		<path class="st2" d="M1029.7,816.3c-4.9-7.6-13.8-7.6-20.8-11.1c-13.3-6.7-21.7-18.1-28.9-30.5c-3.8-6.5-7.1-13.2-9.7-20.3
			c-0.8-2.1-2-3.8-4-5.2c-4.8-3.5-5.8-9.4-8.1-14.4c-9.8-21.6-7.5-43.7-1.9-65.7c3.4-13.5,7.2-27,15.4-38.5
			c5.2-7.4,11.3-14.3,21.5-15.1c7.8-0.6,14.1,3.1,16.5,10.6c0.7,2.3,1.4,3.7,4.1,4.3c5.6,1.2,6.9,6.1,8.2,11.2
			c1.7-2.3,2.8-4.7,5.2-5.9c7.8-3.7,14.8-3,17.8,5.9c2.7,7.9,4.6,15.9,5.9,24.2c-3.1,14.1-6.7,28.2-6.6,42.7
			c0.1,6.5,0.6,13,0.9,19.5c-1.1,4.8-2.5,9.6-5,13.9c-1,1.8-1,3.4-0.5,5.4c2.8,10,9.3,18.2,13.1,27.6c1.9,4.7,4.9,7.8,10.3,7.5
			c7.2,16.3,22.7,22.1,37.3,29.4c-4.9,1.5-9.7,2.1-14.6,1.9c-9.1-0.3-18.1,0.7-27,2.7C1049.4,818.6,1039.6,817.8,1029.7,816.3z"/>
		<path class="st1" d="M1034.2,828.9c0.5-0.5,1-1.1,0.3-1.8c3.8,0,7.6,0,12.8,0C1042.2,829,1038.2,829.3,1034.2,828.9z"/>
		<path class="st0" d="M1547.3,957.3c-4.5-0.4-6.9-3.2-6.9-7.5c0-4.9-2.7-6.3-6.6-8.6c-8.6-4.8-16.1-6.2-23.6,1.6
			c-0.8,0.9-2.2,1.2-3.4,1.7c-3.2,1.5-6,0.7-8.2-1.9c-2.2-2.7-2.1-5.6-0.1-8.4c2.7-3.7,6.4-6.2,10.1-8.7
			c16.6-11.1,32.8-22.8,48.3-35.5c3.2-2.7,6.6-3.3,10.1-0.9c3.6,2.4,5.4,5.7,4,10.3c-3.5,11.8-7.4,23.5-11.4,35.1
			c-2.1,6-3.7,12.2-5.6,18.3C1553.1,955.8,1550.7,957.2,1547.3,957.3z M1535.1,926.3c2.9,0.8,5,1.3,7,2.1c1.6,0.6,2.3,0.4,2.9-1.2
			c1.2-3.4,2.5-6.7,4.1-11.1C1544,919.8,1539.9,922.8,1535.1,926.3z"/>
		<path class="st1" d="M1231.5,203.6c-4.2-1.3-6.2-3.9-9.5-6.4c0.3,5.3,0.5,9.9,0.8,14.5c0.1,1.6,1.6,1.2,2.6,1.5
			c3.4,0.9,6.6-0.4,9.9-1.3c8.8-2.4,15.7,4,13.6,12.7c-4.3,17.6-2.9,35.4-2.4,53.1c0.6,21.1,1.9,42.2,1.4,63.4
			c-0.2,11.7-1.5,23.3-3.3,34.9c-0.4,2.6-0.5,4.4,2.3,5.3c1.3,0.4,2.4,1.2,2,2.8c-0.4,1.8-2.1,2.2-3.4,1.7c-2.2-0.8-3.1-0.4-4.3,1.8
			c-1.5,2.7-4.2,4.6-7.5,4.2c-3.3-0.4-4.3-2.9-4.1-6c0.2-1.8-1.2-1.6-2.3-1.5c-2.1,0.2-4.2,0.1-6.2,0.7c-7.2,2.4-14.5,2.7-21.9,1.8
			c-13.2-1.6-26.7,1.3-39.8-1.7c-10.3-2.4-20.6-2.5-31-1.1c-21.6,3.1-42.8-0.4-64-4.1c-13.3-2.3-26.6-4.1-40.1-3.5
			c-41.4,2-82.1-3.6-122.5-12c-31.5-6.5-63.5-7.9-95.6-7.3c-1.5,0-2.7,0.5-4.1,1.1c-4.5,1.8-9.1,3.3-13.5-0.4
			c-1.2-1-2.8-0.5-4.2-0.5c-10.1-0.1-20.2-0.2-30.3-0.3c-1.7,0-3.5,0.1-5.2-0.8c-2.2-1.1-3.7-2.7-3.7-5.2c0-2.3,1.2-4.2,3.4-4.8
			c2.8-0.8,3.1-2.5,3-4.9c-0.3-12.7-2.5-25.2-3.9-37.7c-3.1-27.8-3.5-55.7-2-83.5c0.7-13-2.3-25.4-4.3-38c-1.6-10.1-1.9-20,0.5-30
			c0.6-2.3,1.3-4.1,4.3-4c-2.9,1.9-2.4,4.5-2,7.1c0.4,3.5,0.6,7,1.1,10.5c0.2,1.3-0.4,3.4,1.4,3.6c1.7,0.3,1.1-2.4,2.8-3.2
			c0.7,1.6,0.1,4.1,3.3,3.9c20.5-1.4,40.5,2.5,60.4,6.5c4.1,0.8,8.2,1.2,12.4,1.7c4,0.5,7.6,1,11.2-2.2c2.9-2.5,6.7-1.5,10,0.3
			c4.6,2.5,9,5.5,14.6,5.7c0.7,0,1.7,0.1,1.7,1.2c0,1.3-2.2,0.5-2.1,2.4c4.5,1.4,9.1,3,14.2,3.5c0.1-1.9-2.4-1.7-2.3-3.2
			c0.2-0.9,0.9-0.9,1.4-0.7c5.1,2.3,10.3,3.2,15.8,3.2c0.7,0,3.3,2,5.4,2.1c1.7,0.1,3.5,0,5.4,0c-2-1.1-4.5-0.2-6.6-2.6
			c2.7-1.2,5.2-1.6,7.7-0.7c5.1,2,10.2,2.1,15.5,1.8c5.3-0.3,10,2.9,15.4,3.2c9.7,0.5,19.5,1.5,29.2,2.4c3.5,0.3,6.6-0.9,9.7-2.3
			c3.8-1.7,7.7-3.3,11.8-4.1c3.1-0.6,6.3-1.1,10.4,1.5c-8.5-0.4-15.2,1.5-22.8,5.3c20.8,1.2,40.3,4.8,60-0.6c0,0.6,0.1,1.1,0.1,1.7
			c-4.5,1-9.1,2.1-14.4,3.3c4.5,2.6,8.4,1.1,11.9,0.4c7.9-1.6,16.1-1.3,23.9-4.1c2.6-0.9,6,0.3,9,0.8c12.2,2.3,24.6,2,36.9,2.1
			c8.5,0.1,17,0.2,25.5-0.2c12.1-0.6,23.9,0.3,35.3,5.1c5.3,2.3,11.2,2.5,17,2.4c7.9-0.1,15.6,0.3,23.1,3.2c3.2,1.3,6.8,2.8,9.5-1.9
			c1.2-2.2,4,0.3,6.2,0c4.6-0.5,2.4-4.3,3.3-6.6c0.5-1.2,0.6-3.6-2-3.3c-2.7,0.3-5.6,0.4-7.8,1.7c-2,1.2-2.9,1.2-4.9,0.2
			c-3.7-1.9-8.1-1.1-12.1-1.8c-18.8-3.1-37.9-3.5-56.9-5.7c-5.4-0.6-10.7-2-15.8-3.9c-8.7-3.1-17.7-4.7-26.9-4.2
			c-20.5,1.2-40.5-0.6-60.4-5.9c-12.8-3.5-26.1-2.1-39.2-1.2c-31.5,2.2-63,3.4-94.6,0.6c-22.3-2-44.4-6.4-66.5-9.9
			c-21.5-3.4-42.9-7.4-64.3-11.3c-3.9-0.7-7.8-1.7-11.5-3.4c-1.5-0.7-2.9-1.7-2.7-3.6c0.2-1.8,1.1-3.3,3.1-3.7
			c0.9-0.2,2.1,0.1,2.3-1.2c0.3-1.6,0.6-3,2.6-2.5c1.8,0.4,1.8,2.1,2.1,3.5c0.4,2.1,1.6,2.8,3.6,3.1c44.3,7.1,88.3,15.7,132.8,20.8
			c29.8,3.4,59.8,3.3,89.7,0.9c19.2-1.5,38.4-1.6,57.2,4c14,4.2,28.5,3.9,42.9,3.9c11.5,0,22.6,1.5,33.5,5.2
			c13.9,4.8,28.7,4.5,43.1,6.5c7.3,1,14.7,1.4,21.9,2.5c9.6,1.4,19.1,1.6,28.7,0.3c4.6-0.6,8.6,0.3,12,3.4c2.5,2.3,5.1,3.1,8.4,1.9
			c2.7-1.1,5.4-0.3,8,0.5c2.2,0.7,4.1,1.5,6.4,0.5c1-0.4,2.3-0.5,3,0.8c0.7,1.3,0.1,2.4-0.7,3.5c-1.6,2.2-4.1,2.4-6.3,3
			c-6.5,1.7-13.5,0.1-20,2.4c-1,0.4-2,0-2.3-1.1c-0.2-0.9,0.5-1.5,1.3-1.8C1227.7,204.9,1229.1,204.4,1231.5,203.6z M1065,199.9
			c1.3,2,2.1,3,2.7,4.1c0.6,1,2.1,2.2,0.9,3.3c-1.3,1.2-2.3-0.4-3.1-1.2c-3.4-3.3-7.3-4.3-11.9-3.6c-6.7,0.9-13.3,1.7-20,2.3
			c-7.4,0.7-14.8,1.1-20.6-4.9c-0.4-0.5-1.5-0.5-2.2-0.5c-13.2,0.5-26.2-1.9-39.3-2.1c-1.1,0-3-0.5-3.1,0.3
			c-0.7,5.6-3.9,2.3-6.3,1.9c-2.7-0.5-5.4-0.6-8.1-0.2c-8.2,1-16.2-1.8-24.3-1.3c-1.3,0.1-3-0.7-3.9-1.7c-1.9-2-4.1-2-6.6-1.9
			c-14.1,1-28.2,1.7-42.2,0c-9.1-1.1-18.1-3.2-25.6-8.8c-2.8-2.1-5.4-3-8.7-3c-9.1,0.1-18.3,0.1-27.3-1.5c-20.2-3.4-40.2-8.1-60.9-7
			c-3.2,0.2-4.3,0.5-4.3,4c0.2,14.7,0.5,29.5-0.1,44.2c-1.8,40.1,3.4,80,4.5,120c0.1,2.4,1,3.1,3.2,2.8c1.9-0.2,3.9-0.1,5.7-0.4
			c6.5-1.1,12.9-2.4,19.3-3.6c1.4-0.3,3.7-0.7,3.7,0.9c0.1,3.9,2.6,2.4,4.5,2.6c4.8,0.5,9.1-0.5,13.2-3.1c4.4-2.7,9.3-4.3,14.3-5.5
			c3.6-0.8,7.4-2.2,12.2-0.5c-7.9,3-15.2,4.7-22.6,8.7c1.6,0.2,2,0.3,2.5,0.3c37-1.3,73.5,2.9,109.7,10.2
			c27.8,5.6,55.8,9.8,84.3,9.1c25.9-0.7,51.4,1.3,76.9,6.2c18.4,3.5,37.1,5,55.9,2.5c5.2-0.7,10.5-0.1,15.8,0.7
			c24.4,3.7,48.9,6,73.5,6.8c3.1,0.1,4.2-0.8,4.5-3.7c1.3-11.1,3.1-22.2,3.2-33.4c0-12.7,0-25.3,0-38c0-28.2-2-56.6,5.1-84.8
			c-4.4,0.6-8.4,2.9-12.5,1.7c-3.8-1-4.5,0.1-4.6,3.8c-0.5,17.8-1.3,35.5-2.1,53.3c-0.9,19.2-4.2,38.2-4.2,57.5
			c0,12.2,1,24.3,1.3,36.5c0.1,2.2,0.2,4.6-2.9,4.4c-2.1-0.1-3.8-2-3.1-4c1.6-4.4,0.6-8.9,0.7-13.3c0.2-20.2,3.8-40.1,4-60.3
			c0.3-24,2.2-48,1.9-72c-0.1-7.5,0-7.5-7.4-9.7c-1.2-0.4-2.4-1-3.6-1.3c-8-2-15.6-5.5-24.2-5.5c-9.9,0.1-19.9-0.1-29.3-4.1
			c-6.9-3-14.1-3.7-21.6-3.6C1110,203.9,1087.9,204.9,1065,199.9z"/>
		<path class="st1" d="M707.6,182.4c0-5.3,0-10.5,0-15.8c0.5,8,2.3,16.1-0.3,24.1c-0.3,0.9-0.5,1.9-0.4,2.8
			c1,28.3-1.9,56.3-4.2,84.4c-1.8,22.5-1.8,45.1-1.8,67.7c0,4.6-0.1,9.3-0.9,13.9c-0.3,1.9-0.8,3.8-1.9,5.4c-0.7,1-1.6,2.3-3.1,1.7
			c-1.7-0.7-0.1-1.9-0.1-2.8c0.2-15.5,1.1-31.1,0.4-46.6c-1.1-25.3,1.4-50.2,4.1-75.2c1.8-16.7,2.8-33.5,1.9-50.4
			c-0.8-14.4,0-28.8,0.5-43.2c0-0.5,0-1,0.1-1.4c0.4-1.6-0.1-4.2,2.3-4c2,0.2,1.3,2.5,1.3,4.1c0,10.2-0.4,20.5,0.6,30.7
			c0.2,1.6,0.4,3.1,0.6,4.7C707,182.4,707.3,182.4,707.6,182.4z"/>
		<path class="st1" d="M678.2,238c-1.8-5.9-2-11.3-2.2-16.7c-0.5-12.8-2.2-25.5-4.6-38.1c-0.3-1.5-1.9-3.9,0.7-4.5
			c2-0.5,2.5,2,3.3,3.5c2.6,4.6,3.1,9.7,3.9,14.8c1.6,10.3,2.5,20.6,2.4,31.1C681.5,231.4,681.3,234.8,678.2,238z"/>
		<path class="st1" d="M1247.3,175.5c-4.8-0.1-9.7-0.6-12.1-5.3c-1.9-3.9-1-8.2,1.2-11.9c1.7-2.8,3.9-4.6,7.5-3.3
			c3.6,1.3,3.7,4.6,4,7.5c0.2,2-1.3,2.8-3.2,1.7c-0.9-0.5-1.9-1.9-2.5,0.2c-0.3,1-0.7,2.5,0.5,3c2.2,1,4.2,2.6,6.7,2.5
			c1.3-0.1,1.4-1.5,1.6-2.7c0.3-1.4-1.9-4,1.3-3.9c2.7,0.1,4,2.5,3.9,5.2C1256.1,173,1252.8,175.6,1247.3,175.5z"/>
		<path class="st1" d="M742.1,128.4c-0.1,6.2-2.5,10.1-6.5,10.5c-3.2,0.3-6.2-0.3-7.7-3.5c-1.8-3.8-1.8-7.7,0.8-11.3
			c1.3-1.8,3.2-3.2,5.3-3.9c3-1,6.3-2.5,6.7,3.1C740.8,124.8,742.3,126.6,742.1,128.4z M732.5,130.2c0.2,1-0.2,2.8,1.5,2.8
			c2,0,1.6-2,1.8-3.3c0.2-1.3,0.1-2.7-1.7-2.6C732.2,127.2,732.7,128.8,732.5,130.2z"/>
		<path class="st1" d="M668.4,225.1c-1.5-10.9-0.3-21.5-2.1-32c-0.9-4.9-2-9.7-2.9-14.5c-0.3-1.4-1.3-3.6,0.8-4.2
			c2.3-0.6,2.2,1.8,2.6,3.2c3.6,13.9,5.3,27.9,3.3,42.2C669.9,221.6,670.1,223.4,668.4,225.1z"/>
		<path class="st1" d="M740.7,262.1c-2.3-14.6-4.7-29.3-7-43.9c-0.6-3.6-1.2-7.3-1.7-10.9c-0.2-1.3-0.2-2.8,1.5-3
			c1.4-0.1,1.7,1.3,1.8,2.4C737.2,225,742,243.2,740.7,262.1z"/>
		<path class="st0" d="M1029.7,57.4c0.8,20.1-8.7,33.3-24.9,42.6c-4.1,2.3-8.5,2.9-13,2.2c-5.5-0.9-11-2.1-16.2-4.2
			c-7.5-3-11.4-8.6-12-16.5c-1.2-15.6,1.9-29.9,13.4-41.5c1-1,1.5-1.9,1.2-3.4c-0.4-1.7,0.2-3.6,1.6-4.2c3.9-1.9,5.2-5.9,7.6-8.9
			c4.7-6,11-5.9,17.5-4.2c13.8,3.6,24.3,17.5,24.9,32.5C1029.8,53.9,1029.7,56,1029.7,57.4z M1017.2,75.2c1.1-0.3,1.3-1.4,1.6-2.2
			c2.4-7.4,2.9-15.2,1.6-22.7c-2.2-12.8-10.4-21.1-20.7-22c-2.3-0.2-5.1-0.2-6,1.8c-0.8,1.8,1.8,3,3.1,4.2c1.7,1.7,3.6,3.2,5.6,4.5
			c6.3,3.7,9.2,9.9,12.4,16c3.4,6.7,2.2,13.6,2.6,20.5c-0.2,0-0.5,0-0.7,0c0.1,0.2,0.1,0.4,0.2,0.6
			C1016.9,75.7,1017.1,75.5,1017.2,75.2z M970.9,74.4c-0.4,6-0.6,12.1,6,15.2c6,2.8,12.5,4.1,19.1,4.1c2.7,0,6.9,0.2,5.2-5.2
			c-0.3-1,0.9-2.6,1.5-3.9c1.7-3.9,4.9-7.1,6-11.4c3.2-13-5.3-25.6-15.9-32.2c-0.8-0.5-1.9-0.7-2.8-0.5c-5.2,1-9.6,2.8-12.4,8.2
			C973.4,56.8,970.3,65,970.9,74.4z"/>
		<path class="st1" d="M1165.3,657.1c-0.1,1-0.1,2-0.2,3c-1.5-3.3-4.4-6.3-1.1-11C1164.5,652.2,1164.9,654.7,1165.3,657.1z"/>
		<path class="st0" d="M809.8,230.2c0.3-7,0.7-13.9,0.8-20.9c0-2.5-2.4-2.6-4.2-3c-1.3-0.2-2.8-0.4-3.1-1.8
			c-0.3-1.4,0.9-2.3,1.9-3.2c3.8-3.4,9-1.7,10.5,3.1c2.4,7.6,1.2,15.5,2.4,24.1c2.2-3.5,2.7-6.7,2.9-9.9c0.1-2.2,0.2-4.5,0.1-6.7
			c-0.1-11,1.8-9.8,11.3-12.4c3.7-1,6,0.7,6,4.6c0.1,6.7,0.3,13.5-0.2,20.1c-0.2,3.5,1.2,4.7,4.1,4.8c8.1,0.2,15.4,4.2,23.5,4.3
			c1.9,0,3.1,1.3,3.4,3.4c0.8,5.5,1.8,11,2.6,16.6c0.8,5.3-0.7,7-6.1,7.2c-5.2,0.1-10.2-0.6-15-2.3c-0.3,0.4-0.6,0.6-0.6,0.8
			c-0.4,7.1-0.4,7,6.5,8.7c3.8,0.9,7.6,0.6,11.5,0.8c2.6,0.2,5.1,0.3,7.2,2c1.1,5.9-0.2,12,2.2,17.7c-0.4,2.3,0.1,4.4,0.8,6.6
			c1.3,4.5,0.1,6.7-4.6,6.3c-6.8-0.5-13.6-1.8-20.3-3c-1.8-0.3-2.7-0.7-2.3,1.6c-0.3,9.6-0.5,19.2-0.9,28.8c-0.2,5-1.9,6.1-6.6,4.8
			c-1.5-0.4-3.1-1.1-4.5,0.4c-4.3,0.6-6.3-1.4-6.3-5.6c0-5.7-0.4-11.5-0.1-17.2c0.2-3.3-1-4.2-4-4.1c-5.3,0.2-10.5-0.7-15.3-3.1
			c-0.9-0.3-3-2.7-2.5,0.1c1.4,8.5-1,16.9-0.2,25.3c-1,5.6-3.6,9.1-9.9,8.7c-1.8-0.1-3.7,0.8-5.5,1.5c-4.7,1.8-7.3,0.6-7.9-4.5
			c-0.5-4.6-0.4-9.3-0.2-13.9c0.2-4.5,0.6-9,1.4-13.3c0.7-3.6-0.4-5.1-3.7-4.2c-5.1,1.4-10.1,0.5-15.2,0.3c-3.5-0.1-5.1-1.5-5.5-5.1
			c-0.4-3.8-1.3-7.5-0.8-11.4c0.8-5.1,4.1-8.1,9.4-8.3c5.4-0.2,10.9-0.5,16.3,0.5c1.5,0.3,3,0.6,3.1-1.6c0.3-4.6,1.5-9.1,0.5-14.3
			c-3.7,2.9-7,1.9-10.9,0.9c-4.3-1.1-9.2-0.7-13.7-0.6c-3.8,0.1-5.3-1.4-4.8-5.1c0.9-5.8,1.8-11.7,2.7-17.5c0.3-1.7,0.6-3.3,2.9-2.2
			c0.3,0.1,0.8,0.3,0.9,0.1c6.4-7.3,14.9-3.3,22.5-4.2c1.8,0.7,2.9,0.6,2.9-1.8c0.1-7.9,0.4-15.8,0.6-23.7c0.1-1.1,0.1-2.2,0.3-3.3
			c0.5-1.8-1.1-4.9,1.7-5c2.4-0.1,3.6,2.6,3.9,5.1c0.1,0.6,0.2,1.2,0.3,1.9c0.1,10.2,0.1,20.5,0.2,30.7c0,1.9,0.1,4-2.1,4.9
			c-1.9,0.8-3.4,0.1-4.4-1.7c-0.3-0.6-0.8-1.1-1.5-0.8c-4.9,2.1-10.1,0.8-15.1,1.1c-7.9,0.5-7.9,0.4-8.7,8.4
			c-0.5,4.7,0.5,5.9,5.3,5.2c4-0.5,7.5,0.2,11.1,1.8c2.2,1,4.8,2.8,7.3,2c4.8-1.4,5.7,1.3,6,4.9c0.5,5.6-0.4,11.2-1.3,16.7
			c-0.9,5.2-3.5,6.9-8,4.2c-4.9-2.9-9.8-2.4-14.8-1.7c-4.5,0.7-6.1,3.1-5.5,8.1c0.7,5.2,1.8,6.1,7.2,5.6c3.3-0.3,6.5-1.7,9.9-1.6
			c7,0.3,10.1,3.5,9.4,10.3c-0.7,7.5-1.2,15-1,22.5c0,1.1-0.5,3.3,1.3,2.9c2.5-0.6,6.3,0.3,6.1-4.6c-0.3-7.9,0.9-15.6,2.9-23.3
			c0.3-1.3,0.2-2.5-0.2-3.8c-0.8-2.2,0.3-3.6,1.9-5c1.7-1.5,3.4-1.4,5.3-0.4c2.7,1.4,5,3.5,8.2,3.7c4,1.3,8.2,0.7,12.3,1.2
			c6.5-3.2,8-2.2,7.6,5.1c0,0.8-0.2,1.6-0.2,2.4c0,5.6,0,11.2,0,16.8c0,1.6,0.2,3.7,2.2,3.7c2.1,0,1.4-2.1,1.4-3.3
			c-0.1-9.1,2.4-18,2.3-27.2c0-4.1,2.3-6.1,6.5-4.8c4.7,0.7,9.5-0.9,14.2,1c3.9,1.6,3-0.9,2.4-3.1c-0.1-3.7-0.2-7.3-0.2-11
			c0-1.9-0.4-3.1-2.7-2.9c-6,0.6-11.7-0.8-17.5-1.7c-4-0.7-4.9-2.4-5-5.6c-0.2-4.6,0.2-9.2-1.1-13.8c-0.8-2.7,1.4-4.1,4.1-3.9
			c2.4,0.2,4.7,1,7,1.5c1.8,1.1,4,1.2,6,1.5c3,0.5,4.7-0.2,3.8-3.7c-0.2-0.9-0.2-1.9-0.3-2.8c-0.5-2.6,1.1-6.4-2.9-7
			c-7.1-1.1-13.9-4.1-21.2-3.7c-2.2,0.1-4.7-0.9-5.2-2.8c-1-4-4-7.5-3-12.2c0.6-3.1,0.2-6.4,0.1-9.6c0-1.1,0.7-3-1.2-3.1
			c-2.1-0.1-1.7,1.9-1.7,3.3c0.2,6.6-0.6,13-3,19.3c-2.4,6.2-3.8,7.4-10.4,7.4c-1.9-1-3.7-2.1-5.6-3.1
			C809,233.9,809,232.1,809.8,230.2z"/>
		<path class="st2" d="M853.6,291.9c-4.3-1.3-6.6,0.7-6.5,4.8c0.1,9.1-2.4,18-2.3,27.2c0,1.2,0.8,3.4-1.4,3.3c-2,0-2.2-2.1-2.2-3.7
			c0-5.6,0-11.2,0-16.8c0-0.8,0.1-1.6,0.2-2.4c0.3-7.4-1.1-8.3-7.6-5.1c0-2.3,0-4.2-3.4-3.1c-2.8,1-5.9,1.3-8.9,1.9
			c-3.2-0.2-5.6-2.3-8.2-3.7c-1.9-1-3.6-1.1-5.3,0.4c-1.6,1.4-2.7,2.8-1.9,5c0.5,1.2,0.6,2.5,0.2,3.8c-2,7.6-3.1,15.4-2.9,23.3
			c0.2,4.9-3.7,4-6.1,4.6c-1.8,0.4-1.2-1.8-1.3-2.9c-0.2-7.5,0.3-15,1-22.5c0.7-6.9-2.4-10.1-9.4-10.3c-3.4-0.1-6.6,1.3-9.9,1.6
			c-5.4,0.5-6.5-0.4-7.2-5.6c-0.6-4.9,1-7.4,5.5-8.1c5.1-0.8,9.9-1.2,14.8,1.7c4.5,2.6,7.1,0.9,8-4.2c0.9-5.5,1.8-11.1,1.3-16.7
			c-0.3-3.5-1.3-6.3-6-4.9c-2.5,0.7-5-1-7.3-2c-3.7-1.6-7.2-2.3-11.1-1.8c-4.7,0.6-5.7-0.5-5.3-5.2c0.8-8,0.8-7.9,8.7-8.4
			c5.1-0.3,10.2,1,15.1-1.1c0.7-0.3,1.2,0.2,1.5,0.8c1,1.8,2.4,2.6,4.4,1.7c2.2-0.9,2.1-3,2.1-4.9c0-10.2-0.1-20.5-0.2-30.7
			c3.7,0.9,5.5,3.3,5.8,7c0.5,5.2,1.2,10.3,1.9,15.4c-0.8,1.9-0.8,3.8,0.2,5.6c-0.6,5.4,2.4,4.5,5.6,3.1c6.7,0,8.1-1.3,10.4-7.4
			c2.4-6.3,3.2-12.7,3-19.3c0-1.3-0.4-3.3,1.7-3.3c1.8,0.1,1.1,2,1.2,3.1c0.1,3.2,0.5,6.5-0.1,9.6c-1,4.7,2,8.2,3,12.2
			c0.5,1.9,2.9,2.9,5.2,2.8c7.4-0.3,14.1,2.6,21.2,3.7c4,0.6,2.4,4.4,2.9,7c-2.6,2.8-5.7,4.4-9.4,5c-2.3-0.5-4.6-1.2-7-1.5
			c-2.6-0.3-4.8,1.2-4.1,3.9c1.3,4.6,0.9,9.2,1.1,13.8c0.1,3.3,1,5,5,5.6c5.8,1,11.5,2.4,17.5,1.7c2.2-0.2,2.7,1,2.7,2.9
			c0,3.7,0.1,7.3,0.2,11C864.5,289.8,859,290.2,853.6,291.9z M807.7,276.3c0,1.9-0.3,3.9,0.1,5.7c0.4,2.1,1,5,3.8,4.8
			c4.7-0.4,9.1,1.5,13.7,1.1c1.2-0.1,2.6-0.5,3.6,0.7c1.4,1.8,3.2,3,5.4,1.8c2.7-1.5,3.5-4.6,3.1-7c-1.1-6.4-0.5-12.7-0.8-19.1
			c-0.1-2.1-1.3-4-0.2-6.5c1.6-3.5-0.9-7.2-4.8-7.5c-5.5-0.4-10.8,0.1-16,2.2c-2.5,1-4.3,2.7-5,5.4C809.2,264,807.5,270,807.7,276.3
			z"/>
		<path class="st0" d="M961,318.9c0.2-1.3,0.2-2.6,0.6-3.8c7.7-21.8,14-44.2,22.8-65.6c1.9-4.7,5.3-7.3,10.1-7.6
			c4.7-0.3,7,3,8.6,7.1c5.7,14.4,9.8,29.4,13.8,44.4c0.7,2.6,1.7,5.2,2.2,7.8c0.5,2.2,1.4,3.4,3.7,4.3c5.2,1.9,6.7,7.3,3.1,11.7
			c-1.5,1.8-1.4,3.2-0.9,5.1c0.8,2.9,1.5,5.9,2,8.9c0.8,5-2,9.1-6.7,10.1c-4.5,1-8.9-1.7-10.2-6.5c-0.7-2.6-1.4-5.3-1.8-7.9
			c-0.6-4-2-5.5-6.3-4.1c-3.9,1.3-8.1,1.8-12.2,2.7c-4.5,1-8.9,1.4-12.8-1.7c-1.2-1-2-0.6-2.7,0.5c-2.3,3.2-5.1,4.9-9,3.2
			C961.5,325.8,961.1,322.4,961,318.9z M979.6,313.4c7.6-2.1,14.1-3.9,20.8-5.7c1.8-0.5,2.3-1.2,1.8-3c-2.8-10.1-5.5-20.2-8.2-30.3
			c-0.3,0-0.7-0.1-1-0.1C988.6,287,984.3,299.7,979.6,313.4z"/>
		<path class="st0" d="M1117.3,254c-0.3,2.3-1.6,4.7-3.1,7c-4.3,6.5-8.5,13.1-13,19.6c-1.7,2.5-2,4.1,0.5,6.5
			c8.5,8,14.9,17.4,18.3,28.8c1.7,5.6-0.4,10.5-5.3,12.2c-5,1.6-9.8-0.9-11.5-6.5c-2.3-7.1-5.9-13.4-10.9-19c-2.7-3-3.5-2.2-5.2,0.7
			c-6.9,11.9-13.9,23.7-21,35.5c-3.3,5.4-8.9,6.8-13.4,3.8c-4.5-3-5.1-8.2-2.1-13.5c7.6-13.3,15.9-26.2,24.5-39
			c1.8-2.6,1.5-4.1-0.7-6.4c-6.9-7.1-13.1-14.9-18.9-22.9c-0.7-1-1.6-2.1-2-3.2c-1.5-3.7-2.7-7.6,1.6-10.2c4-2.5,6.8-0.2,9.5,2.7
			c6.4,6.7,13.2,13.1,19.6,19.8c2.2,2.4,3.3,1.9,4.9-0.5c4-6.2,8.5-12,13.5-17.4c1.8-2,4-3.3,6.3-4.2
			C1113.1,246.1,1117.3,249.2,1117.3,254z"/>
		<path class="st0" d="M918,291.6c-1,2.7-0.3,5-2.7,6.5c0.1-4.8-0.6-9.4,2.8-13.3c0.7-0.8,0.7-2.4,0.7-3.7c0.5-11.8,1.5-23.6,3-35.4
			c0.4-3.3-0.2-4.5-3.8-4.3c-6.1,0.4-12.2,0.1-18.2,0.2c-2.1,0-4.1-0.6-6-1.5c-2.1-1-3-2.8-2.8-5.1c0.2-2.8,2.1-4.3,4.6-4.8
			c7.2-1.4,14.4-2.9,21.7-3.7c11.4-1.2,22.9-2.7,34.4-0.4c4.9,1,9.4,2.9,13.9,5c4.9,2.3,6.7,7.1,4.6,11.5c-2.1,4.5-6.9,6.2-11.8,3.8
			c-6.8-3.5-13.9-5.4-21.7-5.1c-1.9,0.1-2.7,0.4-2.8,2.6c-0.5,25.1-1.2,50.2-1.8,75.3c-0.1,3.5,0.1,7,0,10.5
			c-0.2,5.1-3.4,8.3-8.1,8.3c-4.7,0-8-3.4-7.8-8.4C916.8,317.3,917.4,305,918,291.6z"/>
		<path class="st0" d="M1158.3,280.4c0.4,17.1-1.3,34.1-2.6,51.1c-0.2,2.6-1.3,5.3-2.6,7.7c-2.9,5.5-10.8,5.5-13.7,0.1
			c-1.6-2.9-2.7-6.2-2.4-9.6c2-21.8,4-43.5,6-65.3c0.2-2.4,0.9-4.7,1.5-7c0.9-3.2,2.8-5.4,6.5-5.3c3.6,0.1,5.5,2.2,6.3,5.5
			c0.5,1.8,0.9,3.7,0.9,5.6C1158.3,268.9,1158.3,274.7,1158.3,280.4z"/>
		<path class="st0" d="M1151.1,240.2c-3.3-0.5-6.3-2.1-7.9-5.6c-1.3-3-0.7-5.7,1.7-7.8c3-2.6,6.1-2.1,9.1,0.1
			c0.2,0.2,0.6,0.3,0.9,0.4c3.4,1.1,7.2,1.8,6.4,6.7C1160.8,237.2,1155.7,240.2,1151.1,240.2z"/>
		<path class="st2" d="M839.1,333.7c1.4-1.5,2.9-0.8,4.5-0.4c4.7,1.3,6.4,0.2,6.6-4.8c0.4-9.6,0.6-19.2,0.9-28.8
			c1.7,9.1,2.2,18.4,2.3,27.6C853.4,334.7,845.8,337.9,839.1,333.7z"/>
		<path class="st2" d="M877.5,288.3c-2.4-5.7-1.1-11.8-2.2-17.7C883.5,274.4,884.5,282.4,877.5,288.3z"/>
		<path class="st2" d="M795.8,209c-0.2,7.9-0.5,15.8-0.6,23.7c0,2.5-1.1,2.5-2.9,1.8c0.2-6.5-0.3-12.9,0.5-19.4
			C793.1,212.7,793.7,210.5,795.8,209z"/>
		<path class="st2" d="M810.6,329c-0.8-8.4,1.6-16.8,0.2-25.3c-0.4-2.8,1.6-0.4,2.5-0.1C812.6,312.1,812.7,320.7,810.6,329z"/>
		<path class="st0" d="M807.7,276.3c-0.3-6.3,1.4-12.3,2.9-18.4c0.7-2.7,2.4-4.4,5-5.4c5.2-2.1,10.5-2.6,16-2.2
			c3.9,0.3,6.4,4,4.8,7.5c-1.1,2.4,0.1,4.3,0.2,6.5c0.3,6.3-0.3,12.7,0.8,19.1c0.4,2.4-0.4,5.5-3.1,7c-2.2,1.2-3.9,0-5.4-1.8
			c-1-1.2-2.4-0.8-3.6-0.7c-4.6,0.4-9.1-1.5-13.7-1.1c-2.8,0.2-3.4-2.6-3.8-4.8C807.5,280.2,807.7,278.3,807.7,276.3z M816.9,278.6
			c3.1,0.2,6.2,0.3,9.4,0.5c2.2,0.2,2.7-1,2.3-2.9c0.5-4.2-0.3-8.5-0.2-12.7c0-2.6-0.8-4.4-2.5-4.6c-2.9-0.4-7.7-0.9-8.3,1.6
			C816.1,266.3,814.2,272.5,816.9,278.6z"/>
		<path class="st2" d="M816.9,278.6c3.9-0.8,7.8-1.6,11.6-2.4c0.5,1.9,0,3-2.3,2.9C823.1,278.9,820,278.8,816.9,278.6z"/>
	</g>
</g>
</svg>
