<?xml version="1.0" encoding="iso-8859-1"?>
<!-- Generator: Adobe Illustrator 23.0.1, SVG Export Plug-In . SVG Version: 6.00 Build 0)  -->
<svg version="1.1" id="_x31_f3a8" xmlns="http://www.w3.org/2000/svg" xmlns:xlink="http://www.w3.org/1999/xlink" x="0px" y="0px"
	 viewBox="0 0 36 36" style="enable-background:new 0 0 36 36;" xml:space="preserve">
<path style="fill:#D99E82;" d="M21.192,11.67C13.354,11.67,7,17.117,7,23.835c0,0.841,0.1,1.662,0.289,2.454
	c1.403,2.413,2.373,0.889,6.807-1.327c4.516-2.258,0,3.154-1.577,6.308c-0.485,0.97-0.222,1.791,0.441,2.463
	C15.283,35.155,18.12,36,21.192,36c7.838,0,14.192-5.446,14.192-12.165C35.385,17.117,29.031,11.67,21.192,11.67z M23.438,30.946
	c-0.311,1.061-1.94,1.517-3.637,1.018c-1.697-0.498-2.821-1.762-2.51-2.824c0.312-1.061,1.94-1.517,3.637-1.017
	C22.627,28.62,23.75,29.884,23.438,30.946z"/>
<circle style="fill:#5C913B;" cx="14.885" cy="17.865" r="2.365"/>
<circle style="fill:#226699;" cx="22.769" cy="16.288" r="2.365"/>
<circle style="fill:#DD2E44;" cx="29.865" cy="21.019" r="2.365"/>
<circle style="fill:#FFCC4D;" cx="29.077" cy="28.115" r="2.365"/>
<g>
	<g>
		<defs>
			<rect id="SVGID_1_" x="1" y="1" width="16.558" height="16.558"/>
		</defs>
		<g style="clip-path:url(#SVGID_2_);">
			<defs>
				<rect id="SVGID_3_" x="1" y="1" width="16.558" height="16.558"/>
			</defs>
			<path style="clip-path:url(#SVGID_4_);fill:#5DADEC;" d="M16.734,1.095L6.423,2.285C5.97,2.337,5.599,2.753,5.599,3.209v0.091
				V5.23v6.617c-0.419-0.171-0.885-0.269-1.38-0.269c-1.778,0-3.22,1.235-3.22,2.76c0,1.525,1.442,2.76,3.22,2.76
				s3.22-1.235,3.22-2.76V5.847l8.279-0.955v6.036c-0.419-0.171-0.885-0.269-1.38-0.269c-1.778,0-3.22,1.235-3.22,2.76
				c0,1.525,1.442,2.76,3.22,2.76s3.22-1.235,3.22-2.76V3.85V1.829C17.558,1.373,17.187,1.043,16.734,1.095"/>
		</g>
	</g>
</g>
</svg>
