<?xml version="1.0" encoding="iso-8859-1"?>
<!-- Generator: Adobe Illustrator 23.0.1, SVG Export Plug-In . SVG Version: 6.00 Build 0)  -->
<svg version="1.1" id="_x31_f6d2" xmlns="http://www.w3.org/2000/svg" xmlns:xlink="http://www.w3.org/1999/xlink" x="0px" y="0px"
	 viewBox="0 0 36 36" style="enable-background:new 0 0 36 36;" xml:space="preserve">
<polygon style="fill:#CCD6DD;" points="31,22 11,22 9,10 33,10 "/>
<path style="fill:#66757F;" d="M32.984,27h-22C9.89,27,9,26.109,9,25.016S9.906,23,11,23c0.002,0,0.004-0.001,0.007-0.001
	c0.003,0,0.005,0.001,0.008,0.001C11.07,23,31,23,31,23c0.489,0,0.906-0.354,0.986-0.836l2-12c0.049-0.29-0.033-0.586-0.224-0.811
	C33.573,9.129,33.294,9,33,9H9.817l-1.04-6.166C8.698,2.361,8.293,2.042,7.835,2.02C7.819,2.017,7.808,2,7.792,2H3
	C2.448,2,2,2.448,2,3s0.448,1,1,1h3.946l2.903,17.216C8.207,21.709,7,23.216,7,25.016C7,27.213,8.788,29,10.984,29h22
	c0.553,0,1-0.447,1-1S33.537,27,32.984,27z M30.82,17h-3.307l0.273-2h3.366L30.82,17z M25.494,17H22v-2h3.767L25.494,17z M20,17
	h-3.494l-0.273-2H20V17z M14.488,17h-3.307l-0.333-2h3.367L14.488,17z M11.847,21l-0.333-2h3.247l0.273,2H11.847z M17.053,21
	l-0.273-2H20v2H17.053z M22,21v-2h3.22l-0.273,2H22z M26.967,21l0.273-2h3.247l-0.333,2H26.967z M31.819,11l-0.333,2H28.06l0.273-2
	H31.819z M26.314,11l-0.273,2H22v-2H26.314z M20,11v2h-4.041l-0.273-2H20z M13.667,11l0.273,2h-3.427l-0.333-2H13.667z"/>
<g>
	<circle style="fill:#E1E8ED;" cx="14" cy="31" r="3"/>
	<path style="fill:#292F33;" d="M14,35c-2.206,0-4-1.794-4-4s1.794-4,4-4s4,1.794,4,4S16.206,35,14,35z M14,29c-1.103,0-2,0.897-2,2
		s0.897,2,2,2s2-0.897,2-2S15.103,29,14,29z"/>
</g>
<g>
	<circle style="fill:#E1E8ED;" cx="28" cy="31" r="3"/>
	<path style="fill:#292F33;" d="M28,35c-2.206,0-4-1.794-4-4s1.794-4,4-4s4,1.794,4,4S30.206,35,28,35z M28,29c-1.103,0-2,0.897-2,2
		s0.897,2,2,2s2-0.897,2-2S29.103,29,28,29z"/>
</g>
</svg>
