<?xml version="1.0" encoding="iso-8859-1"?>
<!-- Generator: Adobe Illustrator 23.0.1, SVG Export Plug-In . SVG Version: 6.00 Build 0)  -->
<svg version="1.1" id="_x31_f3fa" xmlns="http://www.w3.org/2000/svg" xmlns:xlink="http://www.w3.org/1999/xlink" x="0px" y="0px"
	 viewBox="0 0 36 36" style="enable-background:new 0 0 36 36;" xml:space="preserve">
<path style="fill:#C1694F;" d="M27.843,11.9c0.205-0.371,0.39-0.766,0.548-1.183c1.209-3.187,0.467-6.423-1.658-7.229
	c-1.588-0.602-3.499,0.326-4.868,2.164C21.468,4.511,21.317,3.443,21.773,3c-0.826,0-7.402,0-8.228,0
	C14,3.443,13.849,4.511,13.452,5.652c-1.369-1.838-3.28-2.766-4.868-2.164C6.459,4.294,5.716,7.53,6.925,10.717
	c0.158,0.418,0.344,0.812,0.548,1.183c-1.184,1.166-2.157,2.879-2.157,5.563c0,6.17,8.227,13.39,9.256,15.447
	c-0.126,0.045,6.297,0.045,6.171,0C21.773,30.852,30,23.633,30,17.462C30,14.779,29.027,13.066,27.843,11.9z M11.488,9.214
	c-0.382,0.382-1.333,0.768-2.377,1.418C9,10.434,8.897,10.226,8.812,10.001C8.195,8.377,8.575,6.729,9.657,6.318
	c0.931-0.354,2.076,0.329,2.772,1.559C12.094,8.462,11.756,8.946,11.488,9.214z M26.505,10.001
	c-0.085,0.225-0.188,0.433-0.299,0.632c-1.044-0.65-1.995-1.036-2.377-1.418c-0.268-0.268-0.606-0.753-0.94-1.337
	c0.695-1.23,1.841-1.913,2.772-1.559C26.742,6.729,27.122,8.377,26.505,10.001z"/>
<g>
	<path style="fill:#272B2B;" d="M18.546,31.747H16.63c-2.057,0-5.142,0.971-5.142,3.027c0,1.029,3.942,1.143,6.085,1.143
		c0.006,0,0.026,0,0.032,0c2.143,0,6.084-0.113,6.084-1.143C23.688,32.718,20.604,31.747,18.546,31.747z"/>
	<path style="fill:#272B2B;" d="M30,17.462c0-2.611-0.923-4.299-2.063-5.462H7.38c-1.14,1.163-2.063,2.852-2.063,5.462
		c0,1.481,0.481,3.022,1.216,4.538h22.251C29.519,20.484,30,18.943,30,17.462z"/>
	<path style="fill:#272B2B;" d="M23.688,1.373c0-1.011-3.808-1.159-5.972-1.164c-0.001,0-0.114,0-0.116,0
		c-2.164,0.005-5.972,0.152-5.972,1.164c0,2.013,3.796,2.942,5.887,2.982c0,0,0.285,0,0.285,0
		C19.893,4.314,23.688,3.385,23.688,1.373z"/>
</g>
<g>
	<path style="fill:#C1694F;" d="M13.031,20H10.46c-0.284,0-0.514-0.216-0.514-0.5s0.23-0.5,0.514-0.5H13v-4H9v1h2.488
		c0.284,0,0.514,0.216,0.514,0.5s-0.23,0.5-0.514,0.5H9.062C8.521,17,8,16.854,8,16.229v-1.315C8,14.188,8.604,14,8.888,14h4.143
		C13.729,14,14,14.479,14,14.915v4.114C14,19.646,13.542,20,13.031,20z"/>
	<path style="fill:#C1694F;" d="M27.031,20h-2.572c-0.283,0-0.514-0.216-0.514-0.5s0.231-0.5,0.514-0.5H27v-4h-4v1h2.488
		c0.283,0,0.514,0.216,0.514,0.5S25.771,17,25.488,17h-2.426C22.521,17,22,16.854,22,16.229v-1.315C22,14.188,22.604,14,22.889,14
		h4.143C27.729,14,28,14.479,28,14.915v4.114C28,19.646,27.542,20,27.031,20z"/>
	<path style="fill:#C1694F;" d="M20.031,20h-2.572c-0.283,0-0.514-0.216-0.514-0.5s0.231-0.5,0.514-0.5H20v-4h-4v1h2.488
		c0.283,0,0.514,0.216,0.514,0.5S18.771,17,18.488,17h-2.426C15.521,17,15,16.854,15,16.229v-1.315C15,14.188,15.604,14,15.889,14
		h4.143C20.729,14,21,14.479,21,14.915v4.114C21,19.646,20.542,20,20.031,20z"/>
</g>
</svg>
