<?xml version="1.0" encoding="iso-8859-1"?>
<!-- Generator: Adobe Illustrator 23.0.1, SVG Export Plug-In . SVG Version: 6.00 Build 0)  -->
<svg version="1.1" id="_x31_f973" xmlns="http://www.w3.org/2000/svg" xmlns:xlink="http://www.w3.org/1999/xlink" x="0px" y="0px"
	 viewBox="0 0 36 36" style="enable-background:new 0 0 36 36;" xml:space="preserve">
<circle style="fill:#FFCC4D;" cx="17" cy="19" r="17"/>
<ellipse style="fill:#664500;" cx="17.999" cy="26" rx="2" ry="2.5"/>
<path style="fill:#664500;" d="M8.111,21.383c-0.182,0-0.367-0.05-0.532-0.154c-0.467-0.294-0.607-0.911-0.313-1.379
	c0.916-1.453,3.701-3.938,7.69-2.962c0.536,0.131,0.864,0.673,0.733,1.209c-0.132,0.536-0.676,0.862-1.209,0.733
	c-3.604-0.882-5.502,2.056-5.521,2.086C8.768,21.218,8.443,21.383,8.111,21.383z"/>
<path style="fill:#664500;" d="M20.084,17.641c-0.29,0-0.576-0.125-0.774-0.366c-0.35-0.427-0.288-1.058,0.14-1.408
	c3.176-2.604,6.762-1.562,8.215-0.646c0.467,0.294,0.607,0.912,0.312,1.379c-0.293,0.465-0.908,0.607-1.376,0.315
	c-0.138-0.084-3.052-1.823-5.884,0.499C20.531,17.567,20.307,17.641,20.084,17.641z"/>
<path style="fill:#E2A62D;" d="M13.346,31.273c-0.068,0-0.137-0.009-0.205-0.028c-0.398-0.113-0.63-0.527-0.517-0.926
	c0.437-1.54,0.258-3.029-0.49-4.086c-0.497-0.702-1.205-1.131-1.943-1.178c-0.414-0.025-0.728-0.382-0.702-0.795
	s0.381-0.751,0.795-0.701c1.193,0.074,2.313,0.733,3.073,1.807c1.011,1.429,1.27,3.383,0.709,5.361
	C13.973,31.058,13.672,31.273,13.346,31.273z"/>
<path style="fill:#E2A62D;" d="M24.383,28.212c-0.142,0-0.285-0.04-0.412-0.124c-1.167-0.77-1.82-2.117-1.792-3.695
	c0.029-1.635,0.809-3.153,1.984-3.869c0.353-0.216,0.814-0.104,1.03,0.251c0.216,0.354,0.104,0.814-0.251,1.03
	c-0.735,0.448-1.244,1.499-1.264,2.614c-0.02,1.055,0.389,1.936,1.118,2.417c0.346,0.228,0.441,0.693,0.213,1.039
	C24.865,28.094,24.627,28.212,24.383,28.212z"/>
<path style="fill:#DD2E44;" d="M17.179,2.72c-0.043-0.049-0.11-0.076-0.189-0.091c0,0-15.924-3.023-16.613-2.415
	C-0.311,0.823,0.74,16.998,0.74,16.998c0.005,0.081,0.023,0.15,0.067,0.199c0.604,0.684,4.758-2.004,9.279-6.001
	C14.608,7.198,17.783,3.404,17.179,2.72z"/>
<path style="fill:#EA596E;" d="M0.349,0.271c-0.015,0.03-0.028,0.071-0.038,0.123C0.47,1.765,2.006,13.046,2.963,16.572
	c1.436-0.803,2.895-1.894,4.609-3.253C6.116,10.654,1.158,0.146,0.349,0.271z"/>
<g>
	<path style="fill:#3B88C3;" d="M29.902,29.229l-10.573-1.303c-1.13-0.102-3.117-0.112-3.015-1.902
		c0.093-1.623,2.04-1.373,3.479-1.16l10.638,1.774L29.902,29.229z"/>
	<path style="fill:#88C9F9;" d="M30.43,26.639l-4.222-0.724c-0.494-0.089-0.934,0.647-0.956,1.426
		c-0.025,0.866,0.227,1.304,0.726,1.406l4.144,0.512L30.43,26.639z"/>
	<path style="fill:#3B88C3;" d="M34.918,26.341l-2.622,2.411l-4.687-5.097l2.622-2.411c1.361-1.252,3.499-1.162,4.751,0.199
		l0.135,0.147C36.368,22.952,36.279,25.089,34.918,26.341z"/>
	
		<ellipse transform="matrix(0.7361 -0.6768 0.6768 0.7361 -9.8321 27.1873)" style="fill:#88C9F9;" cx="29.952" cy="26.203" rx="2.77" ry="3.462"/>
	
		<ellipse transform="matrix(0.7361 -0.6768 0.6768 0.7361 -9.8321 27.1873)" style="fill:#226699;" cx="29.952" cy="26.203" rx="1.385" ry="2.077"/>
</g>
<circle style="fill:#55ACEE;" cx="2.5" cy="33.5" r="1.5"/>
<circle style="fill:#55ACEE;" cx="29" cy="2" r="2"/>
<polygon style="fill:#EA596E;" points="4.864,29.246 2.526,23.63 0.412,29.675 "/>
<polygon style="fill:#EA596E;" points="26,5 22,6 23,2 "/>
<polygon style="fill:#77B255;" points="31.999,13 36,7.999 33,6 "/>
</svg>
