<?xml version="1.0" encoding="iso-8859-1"?>
<!-- Generator: Adobe Illustrator 23.0.1, SVG Export Plug-In . SVG Version: 6.00 Build 0)  -->
<svg version="1.1" id="_x31_f964" xmlns="http://www.w3.org/2000/svg" xmlns:xlink="http://www.w3.org/1999/xlink" x="0px" y="0px"
	 viewBox="0 0 36 36" style="enable-background:new 0 0 36 36;" xml:space="preserve">
<g>
	<path style="fill:#8899A6;" d="M19.164,7.785c-1.799,0-4.896,0-4.896,0h-0.88v18.246c3.91,0,6.517-0.652,7.424-4.571
		c0.504-2.178,1.084-8.038,1.084-11.626C21.896,8.619,20.962,7.785,19.164,7.785z"/>
	<path style="fill:#8899A6;" d="M7.453,7.785c1.799,0,4.896,0,4.896,0h1.039v18.246c-3.91,0-6.517-0.652-7.504-4.571
		c-0.546-2.168-1.123-8.038-1.123-11.626C4.761,8.619,5.655,7.785,7.453,7.785z"/>
	<path style="fill:#CCD6DD;" d="M21.894,9.414c0,1.35-2.04,2.444-8.509,2.444c-6.469,0-8.509-1.094-8.509-2.444
		c0-1.35,2.04-2.444,8.509-2.444C19.854,6.97,21.894,8.064,21.894,9.414z"/>
	<path style="fill:#CCD6DD;" d="M13.404,11.041l-7.5-0.65c0,4.562,0.719,9.372,1.095,10.799c0.431,1.635,1.827,1.57,6.388,1.581
		v0.001c0,0,0.009,0,0.016,0c0.007,0-0.016,0-0.016,0v-0.001c4.562-0.012,5.973,0.054,6.404-1.581
		c0.376-1.427,1.103-6.238,1.103-10.799L13.404,11.041z"/>
	<path style="fill:#55ACEE;" d="M13.388,16.256v8.472c4.562,0,5.865-0.652,6.423-3.537c0.157-0.81,0.526-2.655,0.765-4.934H13.388z"
		/>
	<path style="fill:#55ACEE;" d="M6.232,16.256c0.239,2.279,0.596,4.123,0.749,4.934c0.542,2.886,1.846,3.537,6.407,3.537v-8.472
		H6.232z"/>
	<path style="fill:#3B88C3;" d="M13.388,22.225c-2.969,0-5.376,0.583-5.376,1.303c0,0.006,0.003,0.012,0.004,0.018
		c0.911,0.919,2.49,1.181,5.372,1.181c2.876,0,4.455-0.261,5.37-1.175c0.001-0.008,0.005-0.016,0.005-0.024
		C18.764,22.809,16.357,22.225,13.388,22.225z"/>
	<ellipse style="fill:#88C9F9;" cx="13.385" cy="16.256" rx="7.178" ry="1.303"/>
	<path style="fill:#E1E8ED;" d="M23.787,3.182c0,0-4.314,1.073-4.447,1.106c-0.49,0.122-1.02,0.376-1.59,0.808
		c-1.071,0.81-1.289,1.91-1.464,2.516l-2.677,9.297h2.034l2.521-8.756c0.172-0.597,0.343-1.109,0.736-1.466
		c0.348-0.316,0.923-0.501,1.462-0.641l3.895-0.967c0.522-0.13,0.843-0.662,0.713-1.184C24.842,3.373,24.309,3.052,23.787,3.182z"/>
	<g>
		<path style="fill:#88C9F9;" d="M13.61,16.908l-1.741,6.046c-0.149,0.517,0.152,1.061,0.669,1.21
			c0.517,0.149,1.061-0.152,1.21-0.669l1.896-6.586H13.61z"/>
		<polygon style="fill:#744EAA;" points="13.806,17.349 13.422,17.559 13.245,18.176 14.591,20.567 15.097,18.81 14.275,17.35 		"/>
		<path style="fill:#DD2E44;" d="M19.843,4.162l-0.735,2.377c0.346-0.226,0.81-0.378,1.256-0.493l0.283-0.07l0.675-2.181
			C20.757,3.935,20.218,4.069,19.843,4.162z"/>
		<path style="fill:#744EAA;" d="M12.766,19.84l-0.506,1.758l1.279,2.271c0.094-0.105,0.168-0.23,0.21-0.374l0.364-1.263
			L12.766,19.84z"/>
		<polygon style="fill:#DD2E44;" points="14.723,13.042 14.217,14.8 15.116,16.399 15.424,16.467 15.832,16.256 16.069,15.434 		"/>
		<path style="fill:#DD2E44;" d="M24.137,3.163c-0.114-0.014-0.232-0.01-0.35,0.019c0,0-0.472,0.117-1.105,0.275l-0.675,2.181
			l1.477-0.367L24.137,3.163z"/>
		<polygon style="fill:#DD2E44;" points="15.207,11.361 16.553,13.752 17.059,11.994 15.713,9.603 		"/>
		<path style="fill:#DD2E44;" d="M17.723,5.119c-0.52,0.402-0.837,0.872-1.044,1.318l0.86,3.889l0.626-2.173
			c0.043-0.15,0.086-0.295,0.133-0.433L17.723,5.119z"/>
	</g>
	<path style="fill:#55ACEE;" d="M13.82,16.179l-0.397,1.38c0.713-0.001,1.401-0.02,2.05-0.056l0.381-1.324
		C15.243,16.494,13.968,16.298,13.82,16.179z"/>
	<path style="fill:#FFFFFF;" d="M20.957,9.941c-0.158-0.423-0.621-0.635-1.032-0.472c-2.35,0.923-4.591,1.244-6.54,1.263v1.624
		c2.172-0.022,4.62-0.376,7.111-1.355C20.909,10.838,21.116,10.364,20.957,9.941z"/>
	<path style="fill:#FFFFFF;" d="M5.813,9.941c0.158-0.423,0.621-0.635,1.032-0.472c2.35,0.923,4.59,1.244,6.54,1.263v1.624
		c-2.172-0.022-4.62-0.376-7.111-1.355C5.861,10.838,5.654,10.364,5.813,9.941z"/>
</g>
<g>
	<g>
		<defs>
			<rect id="SVGID_1_" x="6" y="5" width="29" height="29"/>
		</defs>
		<g style="clip-path:url(#SVGID_2_);">
			<defs>
				<rect id="SVGID_3_" x="6" y="5" width="29" height="29"/>
			</defs>
			<path style="clip-path:url(#SVGID_4_);fill:#EDB980;" d="M16.228,30.105c-3.049,3.049-6.664,3.092-7.927,1.829
				c-1.263-1.264-1.219-4.878,1.829-7.927L25.375,8.762c3.049-3.048,6.663-3.092,7.927-1.829c1.262,1.263,1.22,4.878-1.829,7.927
				L16.228,30.105z"/>
			<path style="clip-path:url(#SVGID_4_);fill:#E5A157;" d="M25.593,11.42c1.263,1.263,2.222,2.35,2.896,1.677
				c0.122-0.122,0.194-0.282,0.242-0.455c-0.015-0.035-0.029-0.07-0.034-0.11c-0.102-0.925-1.941-2.933-3.287-3.803
				C25.4,8.74,25.387,8.751,25.375,8.762l-1.187,1.187C24.54,10.384,25.044,10.872,25.593,11.42"/>
			<path style="clip-path:url(#SVGID_4_);fill:#E5A157;" d="M21.933,15.078c1.263,1.263,2.223,2.35,2.898,1.677
				c0.122-0.122,0.194-0.283,0.242-0.457c-0.014-0.035-0.029-0.069-0.033-0.109c-0.102-0.925-1.942-2.935-3.289-3.804l-1.222,1.222
				C20.881,14.043,21.386,14.531,21.933,15.078"/>
			<path style="clip-path:url(#SVGID_4_);fill:#E5A157;" d="M18.276,18.737c1.262,1.263,2.223,2.351,2.896,1.676
				c0.122-0.122,0.194-0.282,0.243-0.455c-0.015-0.035-0.029-0.07-0.034-0.11c-0.103-0.924-1.943-2.934-3.289-3.803l-1.222,1.222
				C17.223,17.702,17.727,18.189,18.276,18.737"/>
			<path style="clip-path:url(#SVGID_4_);fill:#E5A157;" d="M14.617,22.396c1.262,1.262,2.223,2.351,2.897,1.677
				c0.122-0.122,0.193-0.282,0.242-0.456c-0.015-0.035-0.029-0.07-0.033-0.11c-0.102-0.926-1.942-2.935-3.289-3.805l-1.222,1.223
				C13.564,21.361,14.068,21.848,14.617,22.396"/>
			<path style="clip-path:url(#SVGID_4_);fill:#E5A157;" d="M10.958,26.054c1.262,1.263,2.223,2.351,2.897,1.677
				c0.122-0.122,0.194-0.282,0.242-0.456c-0.015-0.035-0.029-0.069-0.034-0.109c-0.102-0.926-1.943-2.935-3.289-3.805l-0.644,0.645
				c-0.199,0.198-0.383,0.4-0.557,0.602C9.925,25.038,10.421,25.516,10.958,26.054"/>
			<path style="clip-path:url(#SVGID_4_);fill:#FFD983;" d="M26.025,8.168c-0.101,0.085-0.511,0.459-0.614,0.561
				c1.345,0.87,3.184,2.879,3.287,3.803c0.005,0.039,0.019,0.075,0.034,0.11c0.062,0.147,0.202,0.248,0.366,0.248
				c0.015,0,0.031-0.001,0.046-0.002c0.222-0.024,0.38-0.224,0.355-0.445C29.368,11.272,27.581,9.219,26.025,8.168"/>
			<path style="clip-path:url(#SVGID_4_);fill:#FFD983;" d="M22.334,11.804l-0.583,0.582c1.347,0.87,3.187,2.88,3.289,3.805
				c0.004,0.039,0.019,0.074,0.033,0.109c0.062,0.147,0.203,0.25,0.367,0.25c0.015,0,0.031-0.001,0.046-0.002
				c0.222-0.025,0.38-0.224,0.356-0.445C25.709,14.923,23.897,12.848,22.334,11.804"/>
			<path style="clip-path:url(#SVGID_4_);fill:#FFD983;" d="M18.675,15.462l-0.583,0.583c1.346,0.869,3.186,2.879,3.289,3.803
				c0.005,0.04,0.019,0.075,0.034,0.11c0.061,0.147,0.202,0.248,0.366,0.248c0.015,0,0.03-0.001,0.046-0.002
				c0.221-0.025,0.379-0.224,0.355-0.445C22.051,18.581,20.239,16.506,18.675,15.462"/>
			<path style="clip-path:url(#SVGID_4_);fill:#FFD983;" d="M15.017,19.12l-0.583,0.583c1.346,0.869,3.186,2.879,3.288,3.804
				c0.005,0.039,0.019,0.075,0.034,0.11c0.062,0.147,0.203,0.25,0.367,0.25c0.014,0,0.03-0.001,0.045-0.002
				c0.221-0.025,0.38-0.224,0.356-0.445C18.392,22.24,16.58,20.164,15.017,19.12"/>
			<path style="clip-path:url(#SVGID_4_);fill:#FFD983;" d="M11.358,22.779l-0.583,0.583c1.346,0.869,3.187,2.879,3.289,3.804
				c0.005,0.039,0.019,0.074,0.034,0.109c0.062,0.147,0.202,0.25,0.367,0.25c0.015,0,0.03-0.001,0.045-0.002
				c0.221-0.025,0.38-0.225,0.356-0.445C14.733,25.898,12.921,23.824,11.358,22.779"/>
		</g>
	</g>
</g>
<g>
	<g>
		<defs>
			<rect id="SVGID_5_" x="19" y="18" width="14" height="14"/>
		</defs>
		<g style="clip-path:url(#SVGID_6_);">
			<defs>
				<rect id="SVGID_7_" x="19" y="18" width="14" height="14"/>
			</defs>
			<path style="clip-path:url(#SVGID_8_);fill:#3E721D;" d="M32.611,20.296c0.931,2.35-0.559,7.989-4.083,10.306
				c-3.523,2.317-7.931,1.389-8.982-2.506c-0.649-2.406,1.085-4.17,4.609-6.486C27.678,19.294,31.693,17.979,32.611,20.296"/>
			<path style="clip-path:url(#SVGID_8_);fill:#3E721D;" d="M27.013,28.123c-2.537,1.768-5.945,2.003-7.182,0.226
				c-1.238-1.776,0.163-4.891,2.7-6.659c2.536-1.767,8.536-3.81,9.774-2.033C33.543,21.433,29.55,26.355,27.013,28.123"/>
			<path style="clip-path:url(#SVGID_8_);fill:#A6D388;" d="M26.706,28.336c-2.239,1.561-5.243,1.204-6.335-0.364
				c-1.092-1.567,0.184-4.344,2.423-5.903c2.238-1.56,7.878-3.603,8.971-2.035C32.857,21.601,29.889,26.324,26.706,28.336"/>
			<path style="clip-path:url(#SVGID_8_);fill:#C6E5B3;" d="M26.066,27.304c-1.752,1.221-3.865,1.216-4.72-0.01
				c-0.856-1.227-0.128-3.21,1.624-4.432c1.752-1.221,6.158-2.815,7.013-1.588C30.839,22.501,27.819,26.083,26.066,27.304"/>
			<path style="clip-path:url(#SVGID_8_);fill:#662113;" d="M23.341,22.856c1.353-0.907,2.871-0.581,3.81,0.387
				c0.557,0.574-0.342,2.093-1.696,3c-1.353,0.906-3.021,0.686-3.204,0.285C21.692,25.3,21.988,23.763,23.341,22.856"/>
			<path style="clip-path:url(#SVGID_8_);fill:#7C3225;" d="M24.083,23.097c0.587-0.394,1.328-0.319,1.654,0.168
				c0.326,0.486,0.114,1.201-0.473,1.594c-0.587,0.393-1.328,0.318-1.654-0.168C23.284,24.204,23.496,23.49,24.083,23.097"/>
		</g>
	</g>
</g>
</svg>
