<?xml version="1.0" encoding="iso-8859-1"?>
<!-- Generator: Adobe Illustrator 23.0.1, SVG Export Plug-In . SVG Version: 6.00 Build 0)  -->
<svg version="1.1" id="_x32_6ea" xmlns="http://www.w3.org/2000/svg" xmlns:xlink="http://www.w3.org/1999/xlink" x="0px" y="0px"
	 viewBox="0 0 36 36" style="enable-background:new 0 0 36 36;" xml:space="preserve">
<path style="fill:#BCBEC0;" d="M17,4v6c0,0.552,0.447,1,1,1s1-0.448,1-1V4V2V1c0-0.552-0.447-1-1-1s-1,0.448-1,1v1V4"/>
<polygon style="fill:#FFD983;" points="18,9 12.857,13 13,13 13,22 23,22 23,13 23.143,13 "/>
<path style="fill:#662113;" d="M19.999,15c0-1.104-0.896-2-1.999-2c-1.105,0-2,0.896-2,2c0,0.003,0,0.007,0,0.01V22h4L19.999,15
	L19.999,15z"/>
<path style="fill:#FFD983;" d="M17.999,18L4,26v1v1v7c0,0.553,0.448,1,1,1h26c0.553,0,1-0.447,1-1v-7v-1v-1L17.999,18z"/>
<path style="fill:#DD2E44;" d="M31.998,27c-0.168,0-0.339-0.042-0.495-0.132l-13.504-7.717L4.495,26.868
	c-0.478,0.276-1.09,0.107-1.364-0.372c-0.274-0.479-0.107-1.09,0.372-1.364l14-8c0.308-0.176,0.685-0.176,0.992,0l14,8
	c0.48,0.274,0.647,0.885,0.372,1.364C32.683,26.819,32.346,27,31.998,27z"/>
<path style="fill:#DD2E44;" d="M22.999,14c-0.219,0-0.439-0.072-0.624-0.219l-4.376-3.5l-4.374,3.5
	c-0.432,0.343-1.061,0.275-1.406-0.156c-0.345-0.432-0.275-1.061,0.156-1.406l4.999-4c0.365-0.292,0.884-0.292,1.25,0l5.001,4
	c0.431,0.345,0.501,0.974,0.156,1.405C23.583,13.871,23.293,14,22.999,14z"/>
<path style="fill:#662113;" d="M12.999,31c0-1.104-0.895-2-1.999-2c-1.105,0-2,0.896-2,2c0,0.003,0,0.007,0,0.01V36h4v-5H12.999z"/>
<path style="fill:#662113;" d="M19.999,29c0-1.104-0.896-2-1.999-2c-1.105,0-2,0.896-2,2c0,0.003,0,0.007,0,0.01V36h4L19.999,29
	L19.999,29z"/>
<path style="fill:#662113;" d="M26.999,31c0-1.104-0.896-2-1.999-2c-1.105,0-2,0.896-2,2c0,0.003,0,0.007,0,0.01V36h4L26.999,31
	L26.999,31z"/>
</svg>
