<?xml version="1.0" encoding="iso-8859-1"?>
<!-- Generator: Adobe Illustrator 23.0.1, SVG Export Plug-In . SVG Version: 6.00 Build 0)  -->
<svg version="1.1" id="_x31_f590-1f3fd" xmlns="http://www.w3.org/2000/svg" xmlns:xlink="http://www.w3.org/1999/xlink" x="0px"
	 y="0px" viewBox="0 0 36 36" style="enable-background:new 0 0 36 36;" xml:space="preserve">
<path style="fill:#D5AB88;" d="M32.375,16.219c-1.381-0.611-3.354,0.208-4.75,2.188c-0.917,1.3-1.187,3.151-2.391,3.344
	c-0.46,0.074-0.71-0.206-0.84-0.609c-0.137-0.68-0.107-1.731,0.147-3.201c0,0,0,0,0,0l2.74-12.315
	c0.218-0.941-0.293-1.852-1.523-2.149s-2.155,0.306-2.374,1.247l-2.446,11.166c0,0,0,0,0,0c-0.493,2.466-1.407,2.018-1.186-0.775
	c0,0,0-0.001,0-0.001l0.701-13.092c0.057-1.012-0.721-1.839-1.871-1.883c-1.15-0.044-1.979,0.646-2.038,1.657l-0.668,13.409
	c0,0,0,0,0,0c-0.143,2.707-1.112,1.687-1.322-0.274c0,0,0,0,0,0L13,4.083c-0.159-1.023-1.118-1.73-2.268-1.546
	c-1.15,0.185-1.845,1.136-1.686,2.159l1.495,9.914c0,0,0,0,0,0c0.593,3.785-0.182,4.833-1.458,0.723L7.489,9.308
	c-0.26-0.967-1.213-1.567-2.41-1.231c-1.197,0.336-1.713,1.299-1.454,2.266l1.558,5.663v0c0.651,4.077,0.651,5.686,0.651,8.493
	S7.125,36,17,36s11.906-10.031,12-10.666c0,0,0.123-1.48,1.156-2.865c1.469-1.969,2.5-3.156,3.125-3.866
	C33.598,18.244,33.906,16.896,32.375,16.219z"/>
<path style="fill:#B78B60;" d="M24.911,21.741c-0.3-0.122-0.554-0.436-0.584-1.119c-1.892,0.259-4.451,0.789-6.42,2.715
	c-2.556,2.499-2.992,5.2-2.971,7.007c0.017,1.457,0.812,2.147,1.045-0.012C16.274,27.605,18.263,22.189,24.911,21.741z"/>
</svg>
