<?xml version="1.0" encoding="iso-8859-1"?>
<!-- Generator: Adobe Illustrator 23.0.1, SVG Export Plug-In . SVG Version: 6.00 Build 0)  -->
<svg version="1.1" id="_x31_f5e3" xmlns="http://www.w3.org/2000/svg" xmlns:xlink="http://www.w3.org/1999/xlink" x="0px" y="0px"
	 viewBox="0 0 36 36" style="enable-background:new 0 0 36 36;" xml:space="preserve">
<path style="fill:#FA743E;" d="M35.838,23.159c0.003,0.553-0.443,1.002-0.998,1.003l-5,0.013c-0.552,0.002-0.999-0.446-1-0.997l0,0
	c-0.003-0.555,0.444-1.002,0.995-1.004l5-0.013C35.388,22.161,35.837,22.606,35.838,23.159L35.838,23.159z"/>
<path style="fill:#FA743E;" d="M34.251,17.67c0.238,0.499,0.025,1.095-0.475,1.333l-4.517,2.145
	c-0.498,0.236-1.094,0.023-1.33-0.476l0,0c-0.239-0.498-0.025-1.094,0.474-1.333l4.516-2.144
	C33.419,16.959,34.014,17.171,34.251,17.67L34.251,17.67z"/>
<path style="fill:#FA743E;" d="M34.278,28.657c0.234-0.501,0.02-1.096-0.48-1.33l-4.527-2.122c-0.501-0.235-1.095-0.02-1.33,0.48
	l0,0c-0.234,0.501-0.019,1.096,0.482,1.33l4.526,2.123C33.448,29.372,34.045,29.157,34.278,28.657L34.278,28.657z"/>
<path style="fill:#226699;" d="M27.979,14.875c-1.42-0.419-2.693-1.547-3.136-2.25C24.083,11.417,25,11.104,24.69,7.736
	C24.405,4.653,20.16,1.337,15,1c-2.346-0.153-4.786,0.326-7.286,1.693C1.294,6.204-1.25,13.625,3.708,20.792
	c4.47,6.46,0.276,9.379,0.276,9.379s0.166,1.36,2.914,3.188c2.749,1.827,6.121,0.588,6.121,0.588s1.112-3.954,4.748-3.59
	c2.606,0.384,6.266-0.129,7.191-1.024c0.865-0.837-0.151-1.886,0.539-4.224c-2.365-0.232-3.665-1.359-3.79-2.948
	c2.625,0.255,3.708-0.578,4.458-1.495c-0.021-0.54-0.075-1.686-0.127-2.454C28.36,17.54,29.25,15.25,27.979,14.875z"/>
</svg>
