<?xml version="1.0" encoding="iso-8859-1"?>
<!-- Generator: Adobe Illustrator 23.0.1, SVG Export Plug-In . SVG Version: 6.00 Build 0)  -->
<svg version="1.1" id="_x31_f474" xmlns="http://www.w3.org/2000/svg" xmlns:xlink="http://www.w3.org/1999/xlink" x="0px" y="0px"
	 viewBox="0 0 36 36" style="enable-background:new 0 0 36 36;" xml:space="preserve">
<g>
	<path style="fill:#D1D3D4;" d="M20.6,6.95c0,2.513-4.074,4.55-9.1,4.55c-5.026,0-9.1-2.037-9.1-4.55c0-2.513,0.7-5.333,9.1-5.333
		C19.9,1.617,20.6,4.437,20.6,6.95z"/>
	<path style="fill:#FFDC5D;" d="M20.25,8.7c-0.197,0-0.382,0.064-0.559,0.159C18.852,4.155,15.506,1,11.5,1
		C7.494,1,4.148,4.155,3.308,8.859C3.132,8.763,2.946,8.7,2.75,8.7C1.784,8.7,1,9.954,1,11.5c0,1.547,0.784,2.8,1.75,2.8
		c0.235,0,0.459-0.077,0.664-0.211C4.399,18.649,7.642,22,11.5,22s7.101-3.351,8.086-7.912c0.205,0.135,0.429,0.212,0.665,0.212
		c0.966,0,1.75-1.253,1.75-2.8C22,9.954,21.217,8.7,20.25,8.7z"/>
	<path style="fill:#662113;" d="M7.301,12.118c-0.227,0-0.445-0.125-0.553-0.341c-0.153-0.305-0.029-0.676,0.276-0.829l1.4-0.7
		c0.306-0.153,0.676-0.028,0.829,0.276c0.153,0.305,0.029,0.676-0.276,0.829l-1.4,0.7C7.488,12.097,7.393,12.118,7.301,12.118z"/>
	<path style="fill:#662113;" d="M15.699,12.118c-0.093,0-0.187-0.021-0.276-0.065l-1.4-0.7c-0.305-0.153-0.429-0.524-0.276-0.829
		c0.152-0.305,0.524-0.429,0.829-0.276l1.4,0.7c0.305,0.153,0.429,0.524,0.276,0.829C16.145,11.992,15.926,12.118,15.699,12.118z"/>
	<g>
		<path style="fill:#D1D3D4;" d="M16.441,9.029h-1.853c-0.341,0-0.618-0.277-0.618-0.618s0.276-0.618,0.618-0.618h1.853
			c0.341,0,0.618,0.277,0.618,0.618S16.783,9.029,16.441,9.029z"/>
		<path style="fill:#D1D3D4;" d="M8.412,9.029H6.559c-0.341,0-0.618-0.277-0.618-0.618s0.277-0.618,0.618-0.618h1.853
			c0.341,0,0.618,0.277,0.618,0.618S8.753,9.029,8.412,9.029z"/>
	</g>
	<path style="fill:#C1694F;" d="M11.5,19.117c-1.528,0-3.013-0.733-3.076-0.765C8.119,18.2,7.996,17.83,8.148,17.525
		c0.152-0.306,0.524-0.428,0.828-0.278c0.013,0.007,1.293,0.635,2.525,0.635c1.24,0,2.511-0.628,2.524-0.635
		c0.305-0.151,0.677-0.029,0.829,0.276c0.153,0.305,0.029,0.676-0.276,0.829C14.514,18.384,13.029,19.117,11.5,19.117z"/>
	<path style="fill:#C1694F;" d="M12.118,15.823h-1.235c-0.341,0-0.618-0.276-0.618-0.618s0.277-0.618,0.618-0.618h1.235
		c0.341,0,0.618,0.276,0.618,0.618S12.459,15.823,12.118,15.823z"/>
</g>
<g>
	<g>
		<defs>
			<rect id="SVGID_1_" x="14" y="13" width="23" height="23"/>
		</defs>
		<g style="clip-path:url(#SVGID_2_);">
			<defs>
				<rect id="SVGID_3_" x="14" y="13" width="23" height="23"/>
			</defs>
			<path style="clip-path:url(#SVGID_4_);fill:#6D6E71;" d="M22.345,15.555c0-1.411,1.413-2.556,3.155-2.556
				c1.743,0,3.154,1.144,3.154,2.556c0,1.411-1.411,2.556-3.154,2.556C23.758,18.111,22.345,16.967,22.345,15.555"/>
			<path style="clip-path:url(#SVGID_4_);fill:#FFDC5D;" d="M35.083,26.417c0-1.367-0.673-2.474-1.516-2.543
				c-0.877-4.769-4.151-8.318-8.067-8.318s-7.191,3.549-8.067,8.318c-0.843,0.069-1.516,1.176-1.516,2.543
				c0,1.376,0.681,2.489,1.533,2.545C18.349,33.41,21.607,36,25.5,36s7.151-2.59,8.051-7.039
				C34.402,28.906,35.083,27.792,35.083,26.417"/>
			<path style="clip-path:url(#SVGID_4_);fill:#808285;" d="M29.972,25.139h-1.917c-0.353,0-0.639-0.286-0.639-0.639
				s0.286-0.639,0.639-0.639h1.917c0.353,0,0.639,0.286,0.639,0.639S30.326,25.139,29.972,25.139"/>
			<path style="clip-path:url(#SVGID_4_);fill:#808285;" d="M22.944,25.139h-1.917c-0.353,0-0.639-0.286-0.639-0.639
				s0.286-0.639,0.639-0.639h1.917c0.353,0,0.639,0.286,0.639,0.639S23.297,25.139,22.944,25.139"/>
			<path style="clip-path:url(#SVGID_4_);fill:#DF1F32;" d="M25.5,33.222c-1.609,0-2.232-0.481-2.341-0.577
				c-0.264-0.235-0.288-0.638-0.054-0.902c0.227-0.257,0.615-0.288,0.88-0.073c0.038,0.025,0.447,0.274,1.515,0.274
				c1.119,0,1.514-0.273,1.518-0.277c0.264-0.234,0.655-0.198,0.889,0.065c0.234,0.264,0.197,0.678-0.066,0.913
				C27.732,32.741,27.109,33.222,25.5,33.222"/>
			<path style="clip-path:url(#SVGID_4_);fill:#C1694F;" d="M26.139,30.889h-1.278c-0.353,0-0.639-0.286-0.639-0.639
				s0.286-0.639,0.639-0.639h1.278c0.353,0,0.639,0.286,0.639,0.639S26.492,30.889,26.139,30.889"/>
			<path style="clip-path:url(#SVGID_4_);fill:#662113;" d="M28.694,28.333c-0.353,0-0.639-0.286-0.639-0.639v-1.278
				c0-0.353,0.286-0.639,0.639-0.639s0.639,0.286,0.639,0.639v1.278C29.333,28.048,29.048,28.333,28.694,28.333"/>
			<path style="clip-path:url(#SVGID_4_);fill:#662113;" d="M22.306,28.333c-0.353,0-0.639-0.286-0.639-0.639v-1.278
				c0-0.353,0.286-0.639,0.639-0.639s0.639,0.286,0.639,0.639v1.278C22.944,28.048,22.658,28.333,22.306,28.333"/>
			<path style="clip-path:url(#SVGID_4_);fill:#808285;" d="M35.083,20.666c-1.278-4.472-5.111-5.75-7.148-5.75
				c-1.158,0-2.435,0.639-2.435,0.639s-1.278-0.639-2.556-0.639c-1.917,0-5.75,1.278-7.028,5.75
				c-1.053,3.686,1.278,7.028,1.278,7.028c0-1.917,1.278-5.75,4.472-5.75s3.833-2.556,3.833-2.556s0.502,2.556,3.697,2.556
				s4.609,3.833,4.609,5.75C33.806,27.694,36.136,24.352,35.083,20.666"/>
			<path style="clip-path:url(#SVGID_4_);fill:#AA8DD8;" d="M35.083,28.333c0,0.353-0.286,0.639-0.639,0.639
				s-0.639-0.286-0.639-0.639s0.286-0.639,0.639-0.639S35.083,27.98,35.083,28.333"/>
			<path style="clip-path:url(#SVGID_4_);fill:#AA8DD8;" d="M17.194,28.333c0-0.353-0.286-0.639-0.639-0.639
				s-0.639,0.286-0.639,0.639s0.286,0.639,0.639,0.639S17.194,28.687,17.194,28.333"/>
		</g>
	</g>
</g>
</svg>
