<?xml version="1.0" encoding="iso-8859-1"?>
<!-- Generator: Adobe Illustrator 23.0.1, SVG Export Plug-In . SVG Version: 6.00 Build 0)  -->
<svg version="1.1" id="_x31_f1fa-1f1f3" xmlns="http://www.w3.org/2000/svg" xmlns:xlink="http://www.w3.org/1999/xlink" x="0px"
	 y="0px" viewBox="0 0 36 36" style="enable-background:new 0 0 36 36;" xml:space="preserve">
<path style="fill:#4B92DB;" d="M36,27c0,2.209-1.791,4-4,4H4c-2.209,0-4-1.791-4-4V9c0-2.209,1.791-4,4-4h28c2.209,0,4,1.791,4,4V27
	z"/>
<g>
	<path style="fill:#FFFFFF;" d="M10.554,15.53c0.149-0.305,0.393-0.596,0.68-0.813c0.64-0.483,1.34-1.108,1.35-1.93
		c-0.212,0.591-0.856,0.836-1.285,1.24c-0.227,0.214-0.4,0.471-0.502,0.738l-0.015-0.012c0.053-0.237,0.154-0.451,0.222-0.68
		c0.187-0.626,0.153-1.375,0.763-1.793c-0.314,0.08-0.577,0.283-0.812,0.544c-0.492,0.545-0.449,1.35-0.384,2.068
		C10.591,15.114,10.579,15.303,10.554,15.53z"/>
	<path style="fill:#FFFFFF;" d="M13.771,23.261c-0.71-0.573-0.817-1.432-1.134-2.186c-0.197-0.468-0.517-0.889-0.859-1.298
		c0.376,0.751,0.214,1.72,0.701,2.428c0.153,0.222,0.366,0.434,0.562,0.612l-0.009,0.009c-0.178-0.083-0.339-0.207-0.501-0.342
		c-0.853-0.709-2.136-0.8-2.647-1.956c0.138,0.849,0.812,1.601,1.54,2.077C12.116,23.058,13.002,23.007,13.771,23.261z"/>
	<path style="fill:#FFFFFF;" d="M10.569,20.879c0.481,0.379,1.055,0.675,1.493,1.008c-0.086-0.218-0.227-0.419-0.284-0.65
		c-0.258-1.04-0.114-2.243-0.56-3.205c0.083,0.547-0.134,1.03-0.184,1.55c-0.041,0.428,0.034,0.843,0.2,1.203
		c0.049,0.106,0.138,0.202,0.163,0.311c-0.16-0.144-0.274-0.329-0.384-0.508c-0.517-0.837-1.602-1.382-1.676-2.4
		C9.3,18.641,9.34,19.122,9.491,19.524C9.701,20.083,10.104,20.513,10.569,20.879z"/>
	<path style="fill:#FFFFFF;" d="M11.299,13.748c0.341-0.32,0.737-0.557,1.026-0.939c0.347-0.459,0.649-0.97,1.101-1.366
		c-0.616,0.24-1.276,0.485-1.676,1.117C11.517,12.929,11.483,13.366,11.299,13.748z"/>
	<path style="fill:#FFFFFF;" d="M15.603,23.719c0.129-0.032,0.286-0.022,0.406-0.065c-0.498-0.101-0.979-0.252-1.365-0.605
		c-0.554-0.507-1.045-1.047-1.638-1.441c0.464,0.625,0.596,1.532,1.444,1.852c0.15,0.057,0.322,0.066,0.452,0.148
		c-0.163,0.025-0.306-0.025-0.458-0.058c-1.093-0.233-2.428,0.067-3.247-0.865c0.311,0.609,0.951,1.09,1.565,1.293
		C13.715,24.291,14.708,23.941,15.603,23.719z"/>
	<path style="fill:#FFFFFF;" d="M10.724,19.841l0.046,0.037c-0.049-0.336-0.074-0.698,0.021-1.019
		c0.145-0.513,0.326-1.012,0.422-1.544c0.074-0.413,0.159-0.877,0.111-1.278c-0.055,0.216-0.112,0.429-0.231,0.613
		c-0.45,0.697-0.913,1.515-0.597,2.4c-0.007,0.01-0.018,0.022-0.029,0.015c-0.127-0.292-0.155-0.625-0.237-0.939
		c-0.218-0.831-0.858-1.526-0.67-2.487c-0.099,0.209-0.139,0.444-0.191,0.671c-0.111,0.588,0,1.211,0.16,1.751
		C9.727,18.738,10.389,19.222,10.724,19.841z"/>
	<path style="fill:#FFFFFF;" d="M11.557,15.366c0.149-0.302,0.242-0.643,0.283-0.976c-0.055,0.142-0.142,0.273-0.259,0.385
		c-0.497,0.471-1.083,0.936-1.196,1.603c-0.016,0.095-0.024,0.193-0.052,0.286c-0.022,0.009-0.022-0.015-0.031-0.021l0.062-0.828
		c0.06-0.807-0.365-1.705,0.102-2.416c-0.016-0.003-0.025,0.009-0.037,0.016c-0.425,0.542-0.708,1.135-0.708,1.862
		c0,0.898,0.517,1.525,0.581,2.369C10.435,16.766,11.174,16.141,11.557,15.366z"/>
	<path style="fill:#FFFFFF;" d="M25.772,18.127c-0.082,0.313-0.11,0.646-0.237,0.939c-0.012,0.006-0.022-0.006-0.029-0.015
		c0.315-0.885-0.147-1.703-0.597-2.4c-0.118-0.183-0.175-0.397-0.231-0.613c-0.049,0.401,0.037,0.864,0.111,1.278
		c0.095,0.532,0.277,1.031,0.422,1.544c0.095,0.321,0.07,0.683,0.021,1.019l0.046-0.037c0.335-0.619,0.997-1.103,1.197-1.778
		c0.16-0.54,0.27-1.164,0.16-1.751c-0.052-0.227-0.092-0.463-0.191-0.671C26.63,16.601,25.99,17.295,25.772,18.127z"/>
	<path style="fill:#FFFFFF;" d="M23.47,22.484c-0.162,0.135-0.323,0.259-0.501,0.342l-0.009-0.009
		c0.197-0.178,0.41-0.39,0.562-0.612c0.488-0.708,0.325-1.677,0.701-2.428c-0.342,0.409-0.662,0.83-0.859,1.298
		c-0.317,0.754-0.424,1.613-1.134,2.186c0.768-0.253,1.655-0.203,2.346-0.656c0.727-0.476,1.401-1.228,1.54-2.077
		C25.606,21.684,24.323,21.774,23.47,22.484z"/>
	<path style="fill:#FFFFFF;" d="M21.099,23.607c0.13-0.082,0.302-0.092,0.452-0.148c0.848-0.32,0.98-1.227,1.444-1.852
		c-0.593,0.394-1.084,0.934-1.638,1.441c-0.386,0.353-0.866,0.504-1.365,0.605c0.12,0.044,0.276,0.034,0.406,0.065
		c0.895,0.222,1.888,0.573,2.841,0.258c0.615-0.203,1.255-0.683,1.565-1.293c-0.819,0.932-2.154,0.632-3.247,0.865
		C21.405,23.582,21.262,23.632,21.099,23.607z"/>
	<path style="fill:#FFFFFF;" d="M24.604,21.096c0.025-0.108,0.114-0.205,0.163-0.311c0.166-0.359,0.241-0.775,0.2-1.203
		c-0.05-0.52-0.267-1.003-0.184-1.55c-0.446,0.962-0.302,2.165-0.56,3.205c-0.057,0.23-0.197,0.432-0.284,0.65
		c0.438-0.333,1.012-0.629,1.493-1.008c0.465-0.366,0.868-0.796,1.078-1.355c0.151-0.403,0.19-0.883,0.153-1.336
		c-0.074,1.019-1.158,1.563-1.676,2.4C24.878,20.767,24.764,20.952,24.604,21.096z"/>
	<path style="fill:#FFFFFF;" d="M25.637,15.816l0.062,0.828c-0.009,0.006-0.009,0.031-0.031,0.021
		c-0.028-0.092-0.036-0.19-0.052-0.286c-0.113-0.667-0.699-1.132-1.196-1.603c-0.118-0.112-0.204-0.243-0.259-0.385
		c0.041,0.333,0.134,0.673,0.283,0.976c0.383,0.775,1.122,1.4,1.254,2.28c0.064-0.844,0.581-1.471,0.581-2.369
		c0-0.727-0.283-1.32-0.708-1.862c-0.012-0.006-0.021-0.018-0.037-0.016C26.003,14.111,25.577,15.009,25.637,15.816z"/>
	<path style="fill:#FFFFFF;" d="M24.998,14.074c0.068,0.229,0.168,0.443,0.222,0.68l-0.015,0.012
		c-0.101-0.267-0.275-0.524-0.502-0.738c-0.428-0.404-1.073-0.649-1.285-1.24c0.01,0.822,0.71,1.446,1.35,1.93
		c0.287,0.217,0.531,0.508,0.68,0.813c-0.025-0.227-0.036-0.416-0.016-0.638c0.066-0.718,0.108-1.523-0.384-2.068
		c-0.235-0.261-0.499-0.464-0.812-0.544C24.844,12.699,24.811,13.448,24.998,14.074z"/>
	<path style="fill:#FFFFFF;" d="M21.225,24.34c-0.736-0.305-1.485-0.711-2.324-0.711c-0.305,0-0.607,0.052-0.901,0.14
		c-0.294-0.089-0.595-0.14-0.901-0.14c-0.839,0-1.588,0.406-2.324,0.711c-0.666,0.276-1.549,0.222-2.139-0.185
		c0.292,0.366,0.682,0.592,1.086,0.745c0.749,0.299,1.624,0.07,2.262-0.338c0.459-0.294,0.853-0.71,1.4-0.71
		c0.098,0,0.197,0.015,0.295,0.036c-0.769,0.307-1.469,0.845-2.015,1.366c0.1,0.115,0.23,0.222,0.352,0.32
		c0.608-0.628,1.297-1.304,1.983-1.585c0.687,0.281,1.376,0.957,1.983,1.585c0.122-0.099,0.252-0.206,0.352-0.32
		c-0.545-0.521-1.246-1.058-2.015-1.366c0.099-0.021,0.197-0.036,0.295-0.036c0.547,0,0.941,0.416,1.4,0.71
		c0.638,0.408,1.512,0.637,2.262,0.338c0.403-0.153,0.794-0.378,1.086-0.745C22.775,24.562,21.891,24.616,21.225,24.34z"/>
	<path style="fill:#FFFFFF;" d="M24.702,13.748c-0.184-0.382-0.218-0.819-0.452-1.189c-0.4-0.632-1.06-0.877-1.676-1.117
		c0.452,0.397,0.754,0.907,1.101,1.366C23.965,13.191,24.361,13.428,24.702,13.748z"/>
	<path style="fill:#FFFFFF;" d="M12.566,14.313l-0.069-0.037c-0.403,0.817-0.631,1.735-0.631,2.706c0,0.594,0.085,1.174,0.247,1.729
		l0.145-0.036c-0.152-0.52-0.235-1.063-0.242-1.618h1.106c0.007,0.463,0.078,0.916,0.209,1.348l0.143-0.036
		c-0.128-0.42-0.198-0.861-0.205-1.312h1.002c0.003,0.148,0.021,0.293,0.04,0.438c-0.072,0.008-0.141,0.031-0.141,0.031
		l-0.031,0.101c-0.068,0.013-0.111,0.126-0.111,0.126c-0.056,0.019-0.099,0.088-0.08,0.107c0.018,0.019-0.031,0.025-0.031,0.025
		v0.138l-0.031,0.044l0.006,0.151c0.037,0,0.031,0.069,0.031,0.069c-0.062,0.006-0.05,0.088-0.05,0.088l-0.13,0.044l-0.025,0.038
		l-0.161-0.006l-0.039,0.04c-0.013-0.04-0.032-0.078-0.044-0.119l-0.143,0.036c0.004,0.015,0.011,0.029,0.016,0.043h-0.185
		l-0.012-0.031l-0.062-0.013l-0.006-0.069l-0.093,0.006l-0.019,0.038l-0.099,0.006c0.006,0.063-0.099,0.157-0.111,0.132
		c-0.013-0.025-0.081-0.094-0.05-0.107c0.031-0.013,0.111-0.025,0.111-0.025v-0.044l-0.229-0.006l-0.025,0.038l-0.093,0.006v0.101
		l-0.043,0.013c-0.031,0.019,0.006,0.088,0.006,0.088c0.043,0.044-0.006,0.113-0.006,0.113c-0.037,0.038,0.031,0.107,0.031,0.107
		c0.05,0.012-0.031,0.05-0.031,0.05c0.012,0.063,0.049,0.082,0.049,0.082c-0.037,0.063,0.025,0.094,0.025,0.094l0.006,0.107
		l0.043,0.025v0.069l0.025,0.044h0.099l-0.006-0.157c-0.087-0.101,0.074-0.126,0.081-0.088c0.006,0.038,0.074,0.057,0.074,0.057
		c0.012,0.094,0.118,0.151,0.148,0.057c0.031-0.094,0.056-0.038,0.074,0.006c0.019,0.044,0.136,0.151,0.136,0.151h0.093l0.012,0.088
		c0.105-0.006,0.136,0.006,0.179,0.151c0.043,0.144,0.161,0.182,0.161,0.182l0.087-0.006c0-0.075,0.087,0.013,0.087,0.05
		c0,0.038,0.167,0.182,0.167,0.182l0.167,0.038l0.048,0.039c0.099,0.124,0.199,0.246,0.311,0.361l-0.782,0.782
		c-0.692-0.709-1.187-1.56-1.458-2.487l-0.145,0.036c0.285,0.976,0.811,1.87,1.55,2.609c0.5,0.5,1.072,0.903,1.692,1.2l0.073-0.13
		c-0.587-0.28-1.129-0.656-1.608-1.123l0.782-0.782c0.406,0.394,0.87,0.709,1.371,0.938l0.073-0.129
		c-0.49-0.222-0.943-0.529-1.339-0.913l0.138-0.138c0.009,0.015,0.021,0.021,0.024,0.046c0.012,0.094,0.056,0.075,0.056,0.075
		l0.353-0.006l0.124-0.107l0.316-0.006c0.161-0.006,0.062-0.226,0.031-0.226c-0.021-0.017-0.021-0.054-0.016-0.093
		c0.253,0.195,0.519,0.368,0.809,0.492l0.073-0.129c-0.386-0.162-0.741-0.396-1.055-0.688l-0.037-0.034l0.779-0.779
		c0.251,0.237,0.544,0.416,0.861,0.529l0.074-0.131c-0.306-0.106-0.588-0.276-0.83-0.503l0.709-0.71
		c0.216,0.193,0.485,0.303,0.773,0.327l-0.001,0.008c0,0-0.023,0.057,0.005,0.066c0.028,0.009,0.018,0.014,0.032,0.028l-0.014,0.033
		c-0.023-0.031-0.037,0.024-0.023,0.038c0.014,0.014-0.032,0.005-0.032,0.024s-0.014,0.028,0,0.038
		c0.014,0.009-0.005,0.014-0.023,0.028c-0.019,0.014,0.079,0.019,0.079,0.019s-0.018-0.038,0.005-0.038
		c0.005,0,0.007,0.002,0.01,0.002V18.6c-0.011-0.002-0.013,0.002-0.026-0.001v0.044l-0.05,0.006l0.043,0.05l0.032,0.004v0.103
		l-0.001,0.006c0,0.082-0.204,0.025-0.223,0.006l-0.006,0.113l-0.037,0.006l0.006,0.075l-0.006,0.107l0.068-0.013v0.044l0.167,0.006
		l0.032-0.034v0.116l-0.001,0.006l-0.111,0.013l-0.046,0.024c-0.001,0-0.003-0.001-0.004-0.001l-0.017-0.035h-0.049l-0.015,0.02
		c-0.15-0.021-0.303-0.033-0.445-0.082l-0.074,0.131c0.091,0.033,0.185,0.054,0.28,0.076c-0.015,0.013-0.041,0.028-0.037,0.037
		c0.012,0.031-0.049,0.063-0.049,0.063l-0.056,0.019l-0.037,0.057l-0.074,0.025l-0.012,0.132l-0.037,0.025v0.057l-0.043,0.012v0.031
		l-0.062,0.006l0.037,0.094l0.05,0.025c0.087,0.012,0.049,0.119,0.049,0.119l0.049,0.006l0.025,0.069l0.049,0.1
		c0.019,0.075,0.074,0.057,0.099,0.05c0.025-0.006,0.049,0.075,0.049,0.075l0.247,0.006c0,0-0.012,0.025,0.031,0.038
		c0.024,0.007,0.12,0.013,0.205,0.015v0.111c-0.458-0.009-0.901-0.104-1.312-0.276l-0.073,0.129
		c0.433,0.184,0.901,0.286,1.385,0.295v1.002c-0.659-0.01-1.296-0.155-1.879-0.42l-0.073,0.129c0.606,0.277,1.268,0.428,1.953,0.438
		v1.106c-0.879-0.011-1.726-0.21-2.498-0.577l-0.073,0.13c0.815,0.39,1.714,0.597,2.645,0.597c0.976,0,1.917-0.228,2.764-0.657
		l-0.07-0.136c-0.79,0.4-1.679,0.631-2.62,0.643v-1.106c0.448-0.007,0.883-0.081,1.302-0.204l0.12,0.037l0.031,0.101l0.05-0.006
		l0.037-0.031l0.148-0.006l0.074-0.069l0.08-0.012l0.648-0.551c0.294-0.183,0.578-0.386,0.832-0.633l0.78,0.78
		c-0.435,0.425-0.936,0.783-1.483,1.06l0.07,0.136c0.574-0.29,1.105-0.672,1.573-1.14c0.492-0.492,0.889-1.054,1.185-1.662
		l-0.001-0.001l-0.086-0.047l0.086,0.047c0.4-0.824,0.612-1.733,0.612-2.676c0-0.802-0.154-1.579-0.445-2.3l0,0
		c-0.304-0.753-0.76-1.445-1.351-2.037c-0.594-0.594-1.289-1.05-2.046-1.355l0,0.001C19.573,11,18.798,10.848,18,10.848
		c-0.986,0-1.918,0.235-2.744,0.651l0.067,0.129c0.8-0.401,1.684-0.619,2.603-0.63v1.106c-0.749,0.011-1.457,0.193-2.089,0.506
		l0.067,0.129c0.622-0.308,1.309-0.477,2.022-0.487v1.002c-0.557,0.011-1.084,0.145-1.556,0.375l0.068,0.129
		c0.459-0.223,0.964-0.346,1.489-0.357v1.106c-0.348,0.01-0.677,0.093-0.975,0.232l0.068,0.13c0.282-0.131,0.589-0.205,0.907-0.214
		v1.003c-0.117,0.007-0.225,0.042-0.332,0.077h-0.046l-0.006-0.069l0.031-0.019l-0.05-0.019l-0.037,0.05l-0.012,0.057l-0.062,0.013
		v0.031h-0.043v0.055c-0.088,0.049-0.178,0.094-0.253,0.16l-0.71-0.71c0.183-0.172,0.39-0.312,0.613-0.415l-0.068-0.13
		c-0.239,0.112-0.458,0.262-0.648,0.441l-0.783-0.783c0.275-0.264,0.584-0.478,0.918-0.64l-0.068-0.129
		c-0.352,0.172-0.674,0.397-0.953,0.666l-0.709-0.709c0.358-0.347,0.762-0.631,1.197-0.846l-0.067-0.129
		c-0.456,0.226-0.872,0.521-1.233,0.872l-0.784-0.784c0.449-0.439,0.956-0.797,1.503-1.071l-0.067-0.129
		c-1.194,0.6-2.167,1.578-2.759,2.777L12.566,14.313z M14.853,17.056l0.004,0.035l-0.093,0.101l0.012,0.1l-0.056,0.019l-0.012,0.044
		l-0.025,0.132l0.062,0.006c0.031-0.013,0.025,0.082,0,0.094c-0.025,0.013-0.093,0.038-0.056,0.063
		c0.037,0.025-0.099,0.019-0.099-0.019c0-0.038-0.074-0.069-0.093-0.056c-0.01,0.007-0.023-0.009-0.033-0.027
		c-0.026-0.162-0.043-0.326-0.046-0.492H14.853z M14.446,20.093h0.015c0.031-0.107,0.179,0.006,0.192,0.044
		c0.005,0.014,0.026,0.029,0.045,0.044l-0.095,0.095C14.547,20.217,14.499,20.153,14.446,20.093z M15.415,19.462
		c-0.054-0.056-0.09-0.124-0.14-0.183c0.011-0.031,0.027-0.059,0.027-0.059c0.08-0.05-0.019-0.132-0.019-0.132
		c0.012-0.076-0.043-0.163-0.043-0.163c-0.111-0.075-0.08-0.22-0.08-0.22v-0.1c-0.093-0.088,0.037-0.101,0.037-0.101
		c0.043-0.075-0.031-0.132-0.031-0.132L15.16,18.29l-0.099-0.013l-0.012-0.295l-0.223-0.32c-0.043-0.013-0.012-0.088-0.012-0.088
		c0.056-0.031-0.012-0.107-0.012-0.107l-0.006-0.138l0.13-0.013l0.031-0.05h0.062l-0.006-0.163c0.015-0.039,0.04-0.048,0.062-0.048
		h0.008c0.018,0.003,0.035,0.01,0.035,0.01l0.087,0.006l0.009-0.016h0.295l0.025,0.161l-0.08,0.069
		c-0.068,0.038-0.068,0.126,0.006,0.144c0.049,0.006,0.031,0.126-0.043,0.044c-0.111,0,0.062,0.101,0.012,0.075
		c0.111,0.057,0.087-0.05,0.087-0.05l0.057-0.045c0.024,0.123,0.056,0.244,0.098,0.362h0c0.114,0.318,0.292,0.612,0.53,0.864
		L15.415,19.462z M15.197,16.896c-0.074-0.044-0.037-0.207-0.037-0.207c0.118-0.176,0.254-0.075,0.254-0.075l0.087-0.006
		c0.03,0.02,0.045,0.045,0.053,0.071c-0.006,0.045-0.014,0.089-0.017,0.135c-0.012,0.026-0.024,0.045-0.024,0.045
		c-0.007,0.01-0.006,0.031-0.008,0.049h-0.24l0.001-0.005L15.197,16.896z M16.571,17.148l0.025-0.038l0.01-0.054h0.07
		c0.002,0.037,0.019,0.069,0.024,0.105l-0.005,0.024l-0.043,0.013l-0.012-0.025l-0.018,0.069h-0.111l-0.006-0.075L16.571,17.148z
		 M16.302,18.576c-0.219-0.233-0.385-0.503-0.491-0.796h0c-0.047-0.13-0.08-0.265-0.103-0.403c0.052,0.02,0.108,0.102,0.108,0.117
		c0,0.019,0.247,0.006,0.247,0.006c0.068,0.044,0.093,0.157,0.093,0.157c0.068-0.088,0.21-0.006,0.105,0.044
		c0.099,0.063,0.099,0.119,0.099,0.119c0.081-0.025,0.081,0.038,0.081,0.057c0,0.019,0.025-0.094,0.025-0.094
		c-0.093-0.069,0.124-0.094,0.062,0.031L16.49,17.87l0.062,0.05l0.006,0.144c0.136-0.013,0.099-0.182,0.099-0.182l0.062-0.012
		c0-0.057,0.043-0.025,0.043-0.025c-0.034-0.17,0.046-0.227,0.082-0.244c0.049,0.092,0.096,0.186,0.167,0.265L16.302,18.576z
		 M16.938,17.477c0.008-0.038,0.01-0.072,0.01-0.072c-0.056-0.025-0.025-0.113,0.037-0.038c0.062,0.075-0.037-0.151-0.037-0.151
		l-0.049-0.044l-0.042-0.004c-0.01-0.063-0.037-0.122-0.037-0.187c0-0.03,0.015-0.056,0.017-0.085
		c0.012-0.003,0.025-0.001,0.025-0.001l0.037,0.031l0.056,0.044l0.006,0.038l-0.037,0.019l-0.006,0.05l0.019,0.069h0.049
		c0.019-0.101,0.149-0.101,0.186-0.038l0.037-0.088c-0.087-0.044-0.002-0.113,0.023-0.082c0.025,0.031,0.082-0.082,0.082-0.082
		s0.043,0.057,0-0.019c-0.043-0.075,0.031-0.113,0.031-0.113c-0.012-0.075,0.08-0.063,0.08-0.063l0.006-0.1l-0.087-0.006
		c-0.018,0.088-0.093,0.013-0.056-0.006c0.037-0.019,0.074-0.057,0.074-0.057v-0.063l0.037-0.013l0.006-0.063h0.093l0.08-0.038
		l0.019-0.031l0.087-0.006l0.124-0.113l-0.012-0.05c-0.074,0,0-0.057,0-0.057l0.012-0.094H17.74l-0.01-0.112
		c0.085-0.02,0.168-0.05,0.258-0.05L18,15.953l-0.068-0.023h-0.043l-0.018-0.038l-0.037-0.006v0.138l0.037,0.031l0.031,0.031
		l0.062,0.006l0.012,0.075l0.155,0.006l0.019,0.031l0.093,0.006l0.179,0.182l-0.012,0.057l-0.031,0.019
		c0.012,0.044-0.08,0.019-0.08,0.019v0.038l0.043,0.006l0.043,0.025l0.062-0.107c0.068-0.044,0.099,0.019,0.105,0.057
		c0.006,0.038-0.031,0.031-0.031,0.031v0.088l0.037,0.013c0.062,0.075-0.025,0.119-0.025,0.119l-0.019,0.063
		c-0.019,0.057-0.087,0.044-0.087,0.044l-0.025,0.038l-0.074,0.019l0.147,0.019c0.014-0.05,0.051-0.063,0.07-0.038
		c0.019,0.025,0.019,0.069,0.019,0.069l0.037,0.006l-0.006,0.069l0.037,0.013v0.201l0.043,0.05c0.074-0.031,0.074,0.019,0.037,0.044
		c-0.037,0.025-0.012,0.138-0.012,0.138l-0.031,0.031v0.05L18.631,17.6v0.069c-0.062-0.031-0.136-0.019-0.155,0
		c-0.056-0.038-0.173-0.025-0.173,0.006c0.037,0.05-0.043,0.063-0.043,0.063l-0.043,0.05c0.031,0.063-0.031,0.069-0.031,0.069v0.119
		l-0.074,0.069l0.004,0.093c-0.04,0.004-0.074,0.023-0.115,0.023c-0.289,0-0.556-0.114-0.771-0.303c0.001-0.001,0.003,0,0.004-0.002
		c0.031-0.05,0.08-0.057,0.08-0.057l0.019-0.044l0.167,0.006c0.012-0.069,0.093-0.044,0.093-0.013s0.062,0.006,0.062,0.006
		l0.043-0.069h0.068l0.006-0.075l0.031-0.019v-0.113c0.099-0.031,0.087-0.126,0.087-0.126l0.025-0.031l-0.012-0.044
		c-0.05-0.019-0.025-0.063,0.006-0.05c0.031,0.013-0.043-0.057-0.043-0.057c-0.037,0.031-0.068-0.038-0.068-0.038h-0.093v-0.088
		l-0.012-0.082l-0.093-0.044l-0.068,0.063l-0.012,0.088v0.056l-0.062,0.013l-0.012,0.169l-0.049,0.019l0.006,0.063l-0.068,0.019
		l-0.068,0.019l-0.012,0.082l-0.049,0.031l-0.025,0.075l-0.029,0.171C17.06,17.697,16.991,17.59,16.938,17.477z M20.227,14.196
		c0.014,0.014,0.027,0.022,0.029,0.023c0.029,0.024,0.06,0.046,0.089,0.071v0.038c0.045-0.011,0.109,0.045,0.117,0.088l-0.764,0.764
		c-0.22-0.207-0.472-0.37-0.743-0.484c-0.276-0.115-0.574-0.18-0.881-0.189v-1.106c0.448,0.009,0.882,0.1,1.285,0.265
		C19.672,13.795,19.959,13.982,20.227,14.196z M20.915,14.171c0.088,0.05,0.159,0.16,0.148,0.182
		c-0.012,0.025,0.074,0.019,0.074,0.019c0.012-0.113,0.118-0.075,0.124-0.038c0.006,0.038,0.025,0.119,0.025,0.119l0.031,0.056
		l0.043,0.044l0.068-0.006l0.019,0.038l0.08,0.013c0,0,0.068,0.075,0.074,0.094c0.006,0.019,0.099,0.013,0.124,0.019
		c0.025,0.006,0.062,0.025,0.068,0.057c0.006,0.031,0.043,0.082,0.043,0.082s0.074,0.019,0.08,0.044
		c0.006,0.025,0.037,0.082,0.037,0.082l0.062,0.05l0.006,0.057l0.068,0.006l0.019,0.075l0.111-0.006l0.062-0.044
		c0.016-0.009,0.026-0.019,0.04-0.028c0.023,0.052,0.057,0.098,0.077,0.15l0,0c0.209,0.526,0.323,1.09,0.332,1.672h-1.002
		c-0.003-0.17-0.028-0.336-0.054-0.501c0.01-0.035,0.018-0.069,0.006-0.081c-0.018-0.019,0.019-0.107,0.019-0.107
		s0.025-0.05,0-0.101c-0.025-0.05,0.006-0.107,0.025-0.132l-0.049-0.025h0l-0.049-0.006l-0.051,0.009
		c-0.01-0.035-0.02-0.071-0.031-0.106l0.008-0.016l0.031,0.006V15.81l-0.057-0.016c-0.005-0.015-0.008-0.031-0.014-0.047
		l-0.01-0.157l-0.043-0.031l0.012-0.05l-0.049-0.019l0.025-0.082l-0.043-0.088h-0.083c-0.027-0.053-0.051-0.108-0.081-0.16
		c0-0.009,0.003-0.02,0.034-0.029c0.033-0.009,0.045-0.011,0.049-0.01l-0.006-0.065l-0.056-0.038l-0.019-0.075
		c0,0-0.068,0.013-0.062,0.05c0.001,0.007-0.014,0.008-0.019,0.013c-0.039-0.063-0.09-0.118-0.133-0.179
		c0.003-0.01,0.004-0.02,0.009-0.029c0.025-0.044,0.012-0.069-0.031-0.082c-0.043-0.013-0.043-0.013-0.056-0.063
		c-0.012-0.05-0.062-0.063-0.062-0.063l-0.019-0.075l-0.058,0.036c-0.023-0.027-0.041-0.057-0.065-0.083l0.025-0.079
		c-0.026-0.005-0.033-0.022-0.04-0.038L20.915,14.171z M20.715,14.667l-0.005,0.007c0,0.058,0.023,0.055,0.049,0.049
		c0.018,0.022,0.035,0.044,0.052,0.067c0.004,0.026,0.017,0.045,0.041,0.053c0.1,0.133,0.191,0.269,0.27,0.413
		c-0.007,0.008-0.01,0.015-0.01,0.015l-0.099,0.013v0.1l-0.05,0.019l0.006,0.063l0.068-0.006c0,0,0,0.075,0.019,0.044
		c0.019-0.031,0.173,0.006,0.161,0.082c-0.005,0.031,0.155,0.113,0.136,0.213c0.017,0.003,0.016,0.014,0.026,0.022
		c0.03,0.087,0.054,0.176,0.077,0.266l-0.004,0.008c0,0,0.008,0.009,0.009,0.01c0.022,0.085,0.045,0.169,0.06,0.256
		c-0.006,0.063-0.02,0.123-0.051,0.142c-0.074,0.044,0.006,0.019,0.006,0.019l-0.012,0.138c0.019,0.063,0.049,0.031,0.068,0
		c0.006-0.01,0.013-0.015,0.019-0.021c0.009,0.091,0.027,0.179,0.029,0.271h-0.748c0.004-0.005,0.013-0.017,0.013-0.017l0.031-0.088
		l0.105-0.031l0.012-0.082l-0.056-0.006c0,0,0.062-0.113,0.093-0.113s0.235,0,0.254-0.013c0.019-0.013,0.056-0.113,0.056-0.132
		s0.05-0.025,0.068-0.031c0.019-0.006,0.062-0.056,0.074-0.082c0.012-0.025-0.031-0.182-0.056-0.157
		c-0.025,0.025-0.08,0.038-0.08,0.038l-0.019,0.069l-0.031,0.025c0,0,0.006,0.019,0,0.063c-0.006,0.044-0.062,0.069-0.062,0.069
		l-0.025,0.031c0,0-0.149,0.008-0.167,0c-0.056-0.025-0.018-0.1,0.019-0.094c0.037,0.006-0.006-0.107-0.006-0.107l0.05-0.006
		c0,0,0.006-0.113,0.025-0.113c0.019,0-0.006-0.038-0.031-0.056c-0.025-0.019-0.056-0.082-0.081-0.075c-0.025,0.006-0.124,0-0.124,0
		l-0.019,0.038l-0.068,0.013c0,0,0.006,0.049-0.006,0.063c-0.037,0.044-0.179,0.138-0.118-0.019l0.018-0.038v-0.057l-0.111-0.006
		c0,0-0.056-0.019-0.056-0.044s-0.006-0.056-0.006-0.056l-0.13-0.144l-0.155-0.019l-0.012-0.031l-0.093-0.013
		c-0.012-0.006-0.02,0.001-0.032-0.003c-0.041-0.066-0.095-0.123-0.143-0.186c-0.004-0.017-0.009-0.035-0.011-0.044
		c-0.005-0.022-0.07-0.105-0.107-0.11c-0.017-0.019-0.028-0.041-0.046-0.059l0.768-0.768c0.021,0.021,0.028,0.034,0.06,0.057
		c0.005,0.003,0.008,0,0.013,0.002C20.669,14.604,20.69,14.637,20.715,14.667z M21.275,18.43c-0.169,0.381-0.402,0.727-0.687,1.024
		c-0.012-0.127-0.039-0.266-0.039-0.266l-0.05-0.025l0.012-0.151h-0.068l-0.111,0.145l-0.012,0.04l-0.063-0.063l0.032-0.033
		l-0.006-0.075l0.043-0.038v-0.063l0.037-0.013l0.006-0.138l0.031-0.006v-0.301l-0.093-0.088c-0.006,0.031-0.105,0.031-0.105,0.031
		s-0.025,0.044-0.043,0.044s0.025,0.057,0.012,0.094c-0.012,0.038-0.062,0.038-0.062,0.038l-0.093,0.025l-0.025,0.031h-0.099
		l-0.01-0.066c0.006-0.007,0.01-0.014,0.016-0.02l0.093-0.026l0.062-0.031l0.031-0.063c0.006-0.063,0.08-0.056,0.08-0.056
		s0.142-0.119,0.148-0.176c0.006-0.057,0.056-0.214,0.142-0.214h0.161c0.062-0.025,0.043-0.107,0.043-0.107l0.08-0.013l0.012,0.044
		c0,0,0.111,0.013,0.124-0.006c0.012-0.019,0.037-0.063,0.068-0.044c0.031,0.019,0.13-0.044,0.13-0.044
		c0.006-0.044,0.161-0.025,0.161-0.025l0.019-0.056c0,0-0.105-0.144-0.124-0.144c-0.019,0-0.118-0.088-0.13-0.057
		c-0.099-0.025-0.093-0.163-0.093-0.163l-0.037-0.088c0-0.05-0.093-0.157-0.111-0.144c-0.039-0.029-0.046-0.059-0.044-0.086h0.865
		C21.571,17.544,21.462,18.008,21.275,18.43L21.275,18.43z M18.476,18.259l0.031,0.013l-0.056,0.044l-0.049,0.057l-0.062-0.019
		l-0.074-0.006l-0.025-0.044l-0.043-0.006l-0.006,0.088l-0.031,0.038l-0.074,0.076c0.078,0,0.026,0.042-0.012,0.06v-0.251
		c0.076-0.004,0.144-0.033,0.217-0.049c0.015,0.012,0.03,0.026,0.03,0.026h0.056l0.005-0.047c0.031-0.009,0.064-0.01,0.094-0.021
		C18.471,18.235,18.476,18.259,18.476,18.259z M19.589,15.497c0.008,0.001,0.018,0.006,0.026,0.006c0.037,0,0.118-0.013,0.118-0.013
		s0.026,0.005,0.053,0.012c0.03,0.036,0.058,0.074,0.085,0.111l-0.064-0.01l-0.049-0.006l-0.093-0.006
		c-0.093,0.063-0.111,0.138-0.111,0.138c-0.045,0.085-0.14-0.013-0.126-0.07L19.589,15.497z M19.386,19.019l0.161,0.082
		c0.019,0.025,0.099,0.019,0.099,0.019l0.025,0.031c0,0,0.05-0.006,0.081,0.031c0.031,0.038,0.192,0.006,0.192,0.006l0.043,0.038
		l0.068,0.025l0.115,0.004l0.07,0.07c-0.112,0.052-0.337,0.035-0.352,0.02c-0.019-0.019-0.148-0.075-0.148-0.075
		s-0.099-0.082-0.118-0.056s-0.105-0.031-0.105-0.013s-0.08-0.044-0.08-0.044l-0.124-0.044l0.093-0.019L19.386,19.019z
		 M19.405,18.282c0.003-0.007,0.009-0.013-0.001-0.023c-0.007-0.008-0.02-0.007-0.03-0.008L19.323,18.2
		c-0.003-0.039,0.005-0.092,0.001-0.111c-0.006-0.025,0.105-0.063,0.087-0.006c-0.019,0.057,0,0.082,0,0.082
		c0.08-0.075,0.148,0.006,0.142,0.025c-0.006,0.019,0.043,0.038,0.074,0.019c0.031-0.019,0.068,0.057,0.056,0.094
		c-0.012,0.038-0.124,0.031-0.13-0.006c-0.006-0.038-0.025-0.025-0.037-0.006c-0.011,0.017-0.057,0.026-0.088,0.014L19.405,18.282z
		 M19.937,15.904c-0.062,0-0.074-0.05-0.074-0.05s-0.049-0.019-0.049,0.006c0,0.025-0.019,0.075,0,0.1
		c0.018,0.025-0.025,0.063-0.043,0.044c-0.018-0.019-0.068-0.075-0.056-0.094c0.012-0.019-0.087-0.138,0.012-0.157
		c0.099-0.019-0.006-0.075,0.031-0.088l0.049-0.025h0.049l0.022-0.018c0.028,0.039,0.062,0.074,0.088,0.114
		c-0.003,0.014-0.02,0.019-0.017,0.036C19.968,15.867,19.998,15.904,19.937,15.904z M18.465,18.065
		c-0.035,0.015-0.076,0.014-0.113,0.026v-0.12l0.062-0.069C18.48,17.879,18.469,18.018,18.465,18.065z M18.075,20.423
		c0.032-0.035,0.153-0.039,0.21,0.003c0.068,0.05,0.161,0.019,0.161,0.019l0.052,0.063c-0.141,0.02-0.277,0.053-0.423,0.056V20.423z
		 M18.901,14.834c0.253,0.106,0.488,0.258,0.693,0.451l-0.043,0.043c-0.017-0.021-0.084-0.034-0.084-0.057
		c0-0.025-0.062-0.057-0.056-0.019c0.006,0.038-0.043,0.057-0.056,0.044c-0.012-0.013-0.049,0.038-0.049,0.038
		c0,0.019-0.012,0.044,0.025,0.05c0.037,0.006,0.105-0.025,0.111,0.013c0.002,0.013,0.005,0.023,0.008,0.033l-0.243,0.243
		c-0.035,0.002-0.068,0.001-0.068,0.001c-0.019,0.057-0.105-0.006-0.08-0.044c0.025-0.038,0.025-0.063,0.025-0.063l-0.031-0.006
		l-0.037,0.069c-0.087,0-0.111,0.05-0.093,0.082c0.019,0.031-0.025-0.006-0.037,0.038c-0.012,0.044,0.006,0.044,0.043,0.063
		c0.037,0.019-0.019,0.019,0.006,0.05c0.018,0.023,0.048,0.02,0.054,0.029l-0.024,0.024c-0.045,0.022-0.105,0.016-0.105,0.016
		c-0.002,0.017-0.023,0.018-0.039,0.024c-0.061-0.049-0.128-0.087-0.196-0.123c-0.001-0.001-0.006-0.008-0.006-0.008l-0.007,0
		c-0.031-0.017-0.058-0.043-0.09-0.057c0.019-0.013,0.045-0.021,0.059-0.062c0.025-0.069,0.037-0.182,0.037-0.182
		s-0.099-0.006-0.105,0.025c-0.006,0.031-0.068,0.05-0.068,0.05s-0.05,0.019-0.031,0.044c0.019,0.025-0.037,0.038-0.037,0.038
		s0.005,0.029-0.004,0.048c-0.098-0.029-0.195-0.062-0.299-0.068v-1.003C18.362,14.664,18.641,14.725,18.901,14.834z M18.136,18.9
		l0.142-0.031c0.012-0.063,0.074,0.013,0.074,0.013c0.062-0.006,0.074,0.038,0.074,0.038l0.081,0.013
		c0.068,0.019,0.027,0.026,0.031,0.05c0.006,0.038,0.037,0.025,0.037,0.025l0.012-0.082l0.037,0.006l-0.037-0.044l-0.068-0.031
		l-0.074-0.031c-0.049-0.069,0.012-0.057,0.062-0.05h0.08c0,0,0.093,0.125,0.093,0.157c0,0.031,0.043,0.038,0.043,0.038l0.056-0.006
		l0.019,0.044h0.056l0.019,0.038h0.111l0.006-0.057l-0.105-0.019l-0.006-0.063l-0.074-0.019c-0.025-0.107,0.018-0.138,0.049-0.088
		l0.037,0.006l-0.012-0.094l0.043-0.013l-0.012-0.132l-0.037-0.012V18.51l0.155,0.006c-0.012-0.082,0.006-0.119,0.006-0.119h0.043
		l0.006,0.031l0.189,0.018l0,0l0.009,0.001c0.074,0.044,0.037,0.101,0.012,0.113c-0.025,0.013-0.068,0.013-0.068,0.013l-0.012,0.025
		l-0.161,0.012l-0.012,0.063c-0.08-0.013-0.111,0.075-0.093,0.119c0.019,0.044,0,0.082,0,0.082l0.068,0.031l0.087-0.025
		c0.012-0.063,0.068-0.076,0.118-0.113c0.045-0.034,0.106,0.048,0.1,0.102c-0.1,0.07-0.19,0.153-0.3,0.207v0
		c-0.164,0.08-0.341,0.135-0.524,0.175l-0.001,0l-0.068-0.019l-0.006-0.094c-0.012-0.063-0.13-0.063-0.124-0.019
		c0.006,0.044-0.221,0.019-0.222,0.019v-0.173L18.136,18.9z M18.074,20.712c0.172-0.003,0.336-0.04,0.503-0.066l0.022,0.049
		l0.105,0.031l0.074,0.019l0.025,0.107l0.056,0.006l0.019,0.069c0.068,0.05-0.019,0.157-0.019,0.157v0.138l0.05,0.025l-0.006,0.05
		l0.081,0.081l0.093,0.006l0.151,0.161c-0.369,0.1-0.754,0.159-1.153,0.166V20.712z M20.543,20.957v-0.047
		c0.111-0.082,0.118-0.226,0.012-0.239c-0.08-0.01-0.043-0.094,0.031-0.107l0.043-0.019v-0.057l0.142-0.132v-0.101l-0.309-0.258
		c-0.068-0.025-0.068-0.112-0.04-0.193c0.053-0.046,0.111-0.085,0.163-0.134l0.435,0.435c-0.017,0.033-0.032,0.065-0.025,0.086
		l0.056,0.025l0.006,0.107c0.042,0.043,0.134,0.04,0.209,0.027l0.026,0.026C21.065,20.599,20.81,20.786,20.543,20.957z
		 M21.396,20.273l-0.027-0.027c-0.004-0.069-0.009-0.159-0.009-0.159l-0.031-0.031l-0.006-0.157c0.025-0.082-0.118-0.201-0.13-0.176
		c-0.012,0.025-0.093,0.006-0.093,0.031c0,0.025-0.049,0.151-0.025,0.195c0.001,0.002-0.001,0.002,0,0.004l-0.386-0.386
		c0.303-0.315,0.544-0.675,0.718-1.064h0c0.201-0.45,0.312-0.94,0.322-1.447h1.001c-0.01,0.688-0.169,1.34-0.444,1.927h0
		C22.062,19.461,21.76,19.897,21.396,20.273z M23.388,19.584L23.388,19.584c-0.283,0.584-0.658,1.115-1.106,1.575l-0.78-0.78
		c0.382-0.394,0.69-0.841,0.917-1.324h0c0.291-0.619,0.449-1.297,0.459-2h1.106C23.973,17.96,23.76,18.818,23.388,19.584z
		 M23.552,14.74L23.552,14.74c0.275,0.681,0.424,1.413,0.433,2.168h-1.106c-0.009-0.602-0.127-1.186-0.344-1.73l0,0
		c-0.029-0.072-0.074-0.135-0.106-0.206c0.007-0.034,0.021-0.101,0.076-0.084c0.062,0.019,0.019-0.138,0.019-0.138
		s-0.087-0.063-0.081-0.094c0.006-0.031-0.087-0.094-0.08-0.119c0.006-0.025-0.08-0.075-0.074-0.1
		c0.006-0.025-0.043-0.094-0.043-0.094l-0.093-0.088l-0.012-0.057l-0.074-0.006l-0.148-0.182l0.006-0.05l-0.043-0.006v-0.069
		l-0.043-0.025l-0.068-0.006L21.632,13.7l-0.012-0.069h-0.068l0.01-0.107l0.723-0.723C22.837,13.368,23.264,14.026,23.552,14.74z
		 M18.074,12.104v-1.106c0.753,0.009,1.484,0.158,2.164,0.431l0-0.001c0.715,0.288,1.374,0.715,1.942,1.269l-0.659,0.659
		c-0.024,0.006-0.05,0.013-0.068,0.005c-0.043-0.019,0.018-0.063,0.018-0.063v-0.05l-0.037-0.038c0,0-0.105,0.013-0.111-0.006
		c-0.006-0.019-0.025-0.101-0.025-0.101l-0.006-0.107l-0.043-0.019l-0.006-0.038l-0.068,0.006v-0.075l-0.037-0.013L21.1,12.84
		l-0.006-0.075l-0.136-0.006l-0.043-0.063l-0.049-0.075l-0.155-0.013l-0.037-0.038l-0.062-0.013l-0.043-0.019l-0.019,0.031
		l-0.118,0.006l-0.006,0.038c-0.045,0.023-0.184,0.016-0.262,0.018c-0.111-0.055-0.215-0.126-0.33-0.172l-0.054,0.138
		c0.101,0.041,0.193,0.104,0.291,0.152c-0.005,0.008-0.008,0.022-0.016,0.022c-0.031,0-0.019,0.082-0.019,0.082s0.081,0,0.105,0.006
		c0.025,0.006,0.025,0.069,0.025,0.069c0.093-0.006,0.13,0.119,0.118,0.151c-0.012,0.031,0.037,0.031,0.037,0.031s0,0.1-0.012,0.126
		c-0.012,0.025,0.081,0.044,0.105,0.082c0.025,0.038-0.012,0.163-0.031,0.17c-0.019,0.006,0.049,0.025,0.043,0.057
		c-0.006,0.031,0.019,0,0.025,0.05c0.006,0.05,0.019,0.157,0.019,0.157l0.087,0.006c0.012-0.082,0.172-0.085,0.198-0.075
		c0.105,0.038,0.186,0.201,0.186,0.239s-0.068,0.044-0.068,0.044l0.003,0.041l-0.221,0.221c-0.02-0.012-0.042-0.024-0.054-0.017
		c-0.031,0.019-0.019-0.132-0.019-0.132s0.056-0.038,0.081-0.019c0.025,0.019-0.21-0.314-0.26-0.283
		c-0.049,0.031-0.161-0.031-0.155-0.088c0.006-0.056-0.223-0.245-0.223-0.245s-0.074-0.05-0.087-0.012
		c-0.012,0.038-0.037,0.063,0,0.082c0.037,0.019,0.031-0.031,0.074,0.013c0.043,0.044,0.124,0.1,0.093,0.138
		c-0.031,0.038-0.068,0.05-0.068,0.05l0.043,0.05h0.068l0.012,0.107c0,0,0.074,0.038,0.093,0.082c0.015,0.036,0.01,0.056,0,0.078
		c-0.138-0.105-0.279-0.201-0.429-0.285c0.003-0.016,0.011-0.032,0.008-0.044c-0.012-0.044,0.05-0.063,0.08-0.013l0.062-0.006
		l0.012-0.057L19.9,13.556h-0.068c0,0-0.006,0.05-0.049,0.031c-0.043-0.019-0.019-0.013-0.056-0.019
		c-0.037-0.006-0.025,0.082-0.019,0.107c0,0-0.002,0.006-0.002,0.007c-0.098-0.051-0.191-0.112-0.293-0.153v0
		c-0.42-0.172-0.873-0.267-1.339-0.276v-0.557c0.035-0.001,0.058-0.01,0.062-0.026c0.006-0.025,0.012-0.031,0.049-0.038
		c0.037-0.006-0.006-0.082-0.043-0.075c-0.032,0.005-0.056-0.014-0.068-0.037v-0.268c0.594,0.009,1.17,0.128,1.705,0.345
		l0.054-0.138C19.281,12.235,18.687,12.113,18.074,12.104z M16.908,15.994l-0.059-0.002c-0.025,0.057-0.087-0.006-0.087-0.006
		c-0.012-0.038-0.099,0-0.099,0c0,0.069-0.118-0.031-0.118-0.031l-0.217-0.157c-0.124-0.113-0.309,0.031-0.315,0.063
		c0.003,0.044-0.032,0.048-0.068,0.042c0.097-0.184,0.21-0.359,0.356-0.514L16.908,15.994z M16.198,15.285
		c-0.162,0.172-0.292,0.372-0.4,0.585c-0.029-0.001-0.061,0-0.069,0.022c-0.018,0.05-0.099,0.038-0.099,0.038l-0.012,0.025
		l-0.062,0.013l-0.012,0.038l-0.074,0.013l0.186-0.006c0.05-0.006-0.019,0.107-0.049,0.1l-0.087,0.006l-0.031,0.031h-0.08
		L15.37,16.2l-0.117-0.006c0,0-0.068,0.057-0.062,0.075c0.006,0.019-0.012,0.075-0.031,0.075c-0.019,0-0.056,0.057-0.043,0.075
		c0.012,0.019-0.037,0.082-0.037,0.082l-0.012,0.063l-0.037,0.013v0.17l-0.074,0.05v0.075l-0.034,0.037h-0.503
		c0.01-0.498,0.122-0.978,0.324-1.419l0,0c0.165-0.36,0.391-0.694,0.673-0.987L16.198,15.285z M15.312,14.399
		c-0.286,0.297-0.523,0.642-0.698,1.021h0c-0.211,0.454-0.333,0.958-0.343,1.488h-1.002c0.01-0.692,0.169-1.359,0.46-1.966l0,0
		c0.219-0.456,0.511-0.879,0.873-1.252L15.312,14.399z M13.716,12.802l0.784,0.784c-0.365,0.376-0.669,0.809-0.899,1.286l0,0
		c-0.298,0.618-0.469,1.308-0.479,2.036h-1.106c0.011-0.903,0.222-1.774,0.61-2.563l0,0C12.901,13.784,13.267,13.263,13.716,12.802z
		"/>
	<polygon style="fill:#FFFFFF;" points="13.106,19.923 13.174,19.986 13.199,19.942 13.155,19.848 13.112,19.816 13.081,19.728 
		12.988,19.685 13.032,19.798 13.056,19.854 	"/>
	<polygon style="fill:#FFFFFF;" points="17.808,15.967 17.808,15.967 17.808,15.967 	"/>
	<path style="fill:#FFFFFF;" d="M15.259,17.681c0.006,0.069,0.056-0.044,0.056-0.044V17.21l0,0l-0.111-0.013l0.006,0.044h0.031
		c0.049,0.088,0.006,0.301,0.006,0.301s-0.074,0.006-0.087-0.031c-0.012-0.038-0.043,0.082-0.019,0.101
		C15.166,17.631,15.253,17.612,15.259,17.681z"/>
	<polygon style="fill:#FFFFFF;" points="15.203,17.719 15.203,17.87 15.302,18.002 15.339,17.914 15.352,17.857 15.308,17.838 
		15.315,17.744 15.352,17.738 15.358,17.694 15.265,17.757 	"/>
	<polygon style="fill:#FFFFFF;" points="17.158,17.443 17.171,17.38 17.208,17.361 17.214,17.298 17.239,17.254 17.276,17.21 
		17.289,17.16 17.35,17.123 17.425,17.11 17.456,17.072 17.468,16.997 17.473,16.941 17.499,16.903 17.573,16.871 17.573,16.752 
		17.536,16.752 17.53,16.708 17.462,16.702 17.449,16.733 17.419,16.733 17.412,16.783 17.449,16.783 17.456,16.821 17.431,16.846 
		17.419,16.878 17.369,16.89 17.258,16.997 17.251,17.047 17.221,17.091 17.184,17.185 17.053,17.191 17.029,17.305 17.047,17.399 	
		"/>
	<path style="fill:#FFFFFF;" d="M17.647,17.851l-0.056,0.006l0.006,0.088l0.037,0.031l0.068,0.019c0,0,0.093-0.025,0.099-0.1
		l-0.142-0.006L17.647,17.851z"/>
	<path style="fill:#FFFFFF;" d="M18.136,17.493c0.013,0.055,0.012-0.088,0.037-0.082c0.025,0.006,0.006-0.088,0.006-0.088
		l-0.111,0.081C18.124,17.412,18.13,17.468,18.136,17.493z"/>
	<path style="fill:#FFFFFF;" d="M18.575,17.367c-0.093-0.063-0.087-0.144-0.111-0.201c-0.011-0.024-0.037-0.044-0.056,0.006v0.082
		c0,0,0.087,0.138,0.117,0.157C18.557,17.43,18.607,17.389,18.575,17.367z"/>
	<path style="fill:#FFFFFF;" d="M21.36,17.556c-0.025-0.075-0.175-0.011-0.148,0.025c0.037,0.05,0.099,0.025,0.124,0.031
		C21.36,17.619,21.385,17.631,21.36,17.556z"/>
	<path style="fill:#FFFFFF;" d="M21.558,15.465c0,0.019,0.013,0.113,0.013,0.113s0.043,0.019,0.049,0.044
		c0.006,0.025,0,0.075,0.019,0.082c0.018,0.006,0.056,0.031,0.043,0.056c-0.012,0.025-0.012,0.075-0.012,0.075l0.025,0.057
		l0.049,0.031c0,0,0.019-0.151-0.012-0.157c-0.031-0.006-0.018-0.094-0.018-0.094s0.031-0.119-0.019-0.119s-0.012-0.063-0.043-0.082
		c-0.031-0.019-0.012-0.107-0.025-0.132c-0.012-0.025-0.012-0.057-0.043-0.075c-0.031-0.019,0.006,0.069-0.012,0.082
		c-0.019,0.013-0.031,0.038-0.05,0.057C21.502,15.421,21.558,15.446,21.558,15.465z"/>
	<path style="fill:#FFFFFF;" d="M21.292,14.874c0.018,0.025,0.056,0.044,0.056,0.069c0,0.025-0.012,0.044,0.025,0.05
		c0.037,0.006,0.062-0.006,0.074,0.025c0.012,0.031,0.012,0.082,0.006,0.107c-0.006,0.025,0.006,0.063,0.037,0.063
		c0.031,0,0.037,0.006,0.037,0.025c0,0.019,0.037-0.069,0.037-0.069c-0.031-0.025-0.056-0.082-0.056-0.082s-0.031-0.088-0.031-0.1
		c0-0.013-0.043-0.025-0.062-0.031c-0.019-0.006-0.05-0.063-0.05-0.063L21.292,14.874z"/>
	<path style="fill:#FFFFFF;" d="M21.224,14.736c0.025,0,0.043,0.013,0.068,0.025c0.025,0.013,0.043,0.031,0.062,0.057l0.062-0.019
		c0,0,0.006-0.063-0.019-0.044c-0.025,0.019-0.043-0.044-0.068-0.038c-0.025,0.006-0.037-0.025-0.062-0.056
		c-0.025-0.031-0.019-0.038-0.05-0.057c-0.031-0.019-0.05-0.019-0.05,0.006c0,0.025,0.031,0.038,0.019,0.069
		C21.174,14.711,21.199,14.736,21.224,14.736z"/>
	<path style="fill:#FFFFFF;" d="M20.518,15.17c0,0,0.019,0.031,0.037,0.05c0.019,0.019,0.062,0.057,0.019,0.082
		c-0.043,0.025,0.006,0.019,0.006,0.019s-0.006,0.132-0.062,0.113c-0.056-0.019-0.074,0.069-0.074,0.094s0.22,0.035,0.186,0
		c-0.019-0.019,0.025-0.063,0.025-0.063s0.149,0.013,0.18,0.013c0.031,0,0.056-0.006,0.037-0.038
		c-0.019-0.031-0.074-0.025-0.074-0.025s-0.074,0.019-0.142-0.019s0.012-0.05,0.025-0.05s0.068-0.044,0.043-0.075
		c-0.025-0.031,0-0.088,0-0.063c0,0.025,0.068,0.038,0.081,0.019c0.012-0.019,0-0.075-0.031-0.094
		c-0.031-0.019,0.056-0.031,0.031-0.063C20.778,15.038,20.766,15,20.766,15s-0.037,0.05-0.111,0.025c0,0-0.012,0.119-0.049,0.144
		H20.518z"/>
	<path style="fill:#FFFFFF;" d="M21.323,15.122l0,0.004C21.323,15.126,21.327,15.123,21.323,15.122z"/>
	<path style="fill:#FFFFFF;" d="M19.089,15.496c0,0.019,0.043,0.038,0.068,0.038s0.093-0.05,0.093-0.05s0.031-0.088,0.006-0.082
		c-0.025,0.006-0.074,0.044-0.08,0.006c-0.006-0.038-0.08-0.019-0.08-0.019l-0.099,0.013l-0.006,0.044l0.068,0.006
		C19.058,15.452,19.089,15.478,19.089,15.496z"/>
	<path style="fill:#FFFFFF;" d="M19.621,13.405c-0.031,0-0.087-0.038-0.074-0.063c0.012-0.025-0.105-0.05-0.105-0.05
		s-0.105-0.101-0.068-0.088c0.037,0.013,0.019-0.044,0.019-0.044s-0.074,0.013-0.093,0.006c-0.019-0.006-0.012-0.063-0.012-0.063
		s-0.074-0.019-0.074,0s0.025,0.019,0.037,0.056c0.012,0.038,0.006,0.101,0.062,0.113c0.056,0.013,0.068,0.025,0.074,0.05
		c0.006,0.025,0.074,0.031,0.074,0.031l0.05,0.025l0.148,0.126v-0.05C19.658,13.455,19.652,13.405,19.621,13.405z"/>
	<path style="fill:#FFFFFF;" d="M18.971,12.601c0.002,0.002,0.006-0.005,0.008-0.005C18.958,12.586,18.945,12.581,18.971,12.601z"/>
	<path style="fill:#FFFFFF;" d="M19.163,12.601L19.12,12.57c0,0-0.068-0.006-0.068-0.025c0-0.017-0.045,0.054-0.072,0.052
		c0.03,0.015,0.078,0.042,0.078,0.042c0.049,0,0.08,0.038,0.08,0.057s0.068,0.013,0.068,0.013l0.006-0.044L19.163,12.601z"/>
	<path style="fill:#FFFFFF;" d="M20.933,12.583c0,0,0.116,0.137,0.111,0.069c-0.012-0.188-0.099-0.195-0.13-0.232
		c-0.031-0.038-0.164,0.007-0.155,0.057c0.006,0.031,0.031,0.063,0.08,0.075L20.933,12.583z"/>
	<path style="fill:#FFFFFF;" d="M18.544,11.854v-0.069L18.52,11.76l-0.025-0.088l-0.08-0.025l-0.08,0.031l-0.087,0.057l-0.093,0.013
		l-0.05,0.056l0.198,0.019l0.037,0.063l0.142,0.013l0.093,0.094c0.081,0.025,0.099-0.013,0.05-0.056L18.544,11.854z"/>
	<path style="fill:#FFFFFF;" d="M19.114,11.546h-0.111c-0.006-0.044-0.105-0.025-0.111,0c-0.006,0.025-0.043,0.031-0.043,0.031
		l-0.142,0.013c-0.012,0.038-0.087,0.063-0.093,0.038c-0.014-0.055-0.093,0.069-0.012,0.094c0.08,0.025,0.161,0,0.161,0l0.019-0.038
		l0.309,0.006c0.025-0.025,0.037-0.063,0.037-0.063s0.074-0.025,0.105-0.013c0.031,0.013,0.006-0.088-0.025-0.075
		C19.176,11.552,19.114,11.546,19.114,11.546z"/>
	<path style="fill:#FFFFFF;" d="M17.443,12.852c0.006,0.019,0.068,0.025,0.074,0.006c0.006-0.019,0.031-0.057-0.025-0.057
		c-0.056,0-0.043-0.031-0.062-0.05c-0.019-0.019-0.147-0.016-0.142,0.006c0.006,0.031,0.056,0.069,0.056,0.069
		S17.437,12.834,17.443,12.852z"/>
	<path style="fill:#FFFFFF;" d="M17.735,18.514c0.028-0.005,0.046-0.019,0.069-0.024c0.023-0.005,0.033-0.042,0.042-0.08
		c0.009-0.038-0.009-0.057-0.009-0.057s-0.023,0.038-0.06,0c-0.037-0.038-0.07,0.085-0.084,0.113
		C17.694,18.467,17.708,18.518,17.735,18.514z"/>
</g>
</svg>
