<?xml version="1.0" encoding="iso-8859-1"?>
<!-- Generator: Adobe Illustrator 23.0.1, SVG Export Plug-In . SVG Version: 6.00 Build 0)  -->
<svg version="1.1" id="_x31_f3de" xmlns="http://www.w3.org/2000/svg" xmlns:xlink="http://www.w3.org/1999/xlink" x="0px" y="0px"
	 viewBox="0 0 36 36" style="enable-background:new 0 0 36 36;" xml:space="preserve">
<path style="fill:#88C9F9;" d="M36,25V4c0,0,0-4-4-4H4c0,0-4,0-4,4v20.922L36,25z"/>
<path style="fill:#292F33;" d="M27,10h-5l-5,14h19V5c-1,0-5.419,0.419-7,2C28,8,28,9,27,10z"/>
<path style="fill:#66757F;" d="M24,11c1-1,2.497-0.498,3-1c0.51-0.51,0.76-1.019,1.015-1.529C24.278,8.35,21.185,8.526,20,9
	c-5,2-4,11-11,16c0,0,5,1.999,9-2C20.621,20.378,21.21,13.79,24,11z"/>
<path style="fill:#5C913B;" d="M4,36h28c4,0,4-4,4-4v-9H0v9C0,36,4,36,4,36z"/>
<path style="fill:#55ACEE;" d="M28,23c0,1-10,1-10,3s4,2,4,3S8.083,32,8,36h17c0-2,5-3,5-6s-7-3-7-4s7-2,7-3H28z"/>
<path style="fill:#226699;" d="M28,23c0,0,0-2,0-5c0-7,2-8,2-8h1c0,0-1,1-1,7c0,3,0,6,0,6H28z"/>
<path style="fill:#662113;" d="M11.53,28.503c0,1.103-0.893,1.497-1.996,1.497l0,0c-1.102,0-1.996-0.395-1.996-1.497l0.499-4.489
	c0-1.102,0.395-0.997,1.497-0.997l0,0c1.103,0,1.497-0.104,1.497,0.997L11.53,28.503z"/>
<path style="fill:#3E721D;" d="M16.222,25.658c-0.252-0.216-0.49-0.44-0.721-0.667c-0.082-0.158-0.203-0.325-0.406-0.512
	c-0.179-0.164-0.352-0.334-0.521-0.506c1.02-0.146,1.46-0.672,0.521-1.476c-0.307-0.263-0.597-0.54-0.875-0.823
	c0.122-0.199,0.044-0.468-0.344-0.801c-0.128-0.109-0.252-0.222-0.373-0.336c0.773-0.12,1.096-0.53,0.373-1.149
	c-0.221-0.19-0.43-0.389-0.632-0.592c0.187-0.164,0.165-0.411-0.206-0.728c-0.078-0.067-0.146-0.14-0.221-0.209
	c0.562-0.113,0.777-0.433,0.221-0.91c-0.352-0.302-0.666-0.632-0.96-0.964c0.379-0.091,0.515-0.318,0.156-0.648
	c0.263-0.117,0.314-0.333-0.033-0.63c-1.28-1.096-1.999-2.666-2.666-2.666s-1.386,1.57-2.665,2.666
	c-0.347,0.298-0.296,0.514-0.033,0.63c-0.359,0.33-0.223,0.557,0.156,0.648c-0.294,0.332-0.608,0.662-0.96,0.964
	c-0.556,0.477-0.341,0.796,0.221,0.91c-0.075,0.069-0.143,0.142-0.221,0.209c-0.371,0.318-0.393,0.564-0.206,0.728
	c-0.202,0.203-0.41,0.402-0.632,0.592c-0.723,0.619-0.4,1.029,0.373,1.149c-0.121,0.115-0.245,0.227-0.373,0.336
	c-0.388,0.333-0.467,0.602-0.344,0.801c-0.278,0.283-0.568,0.56-0.875,0.823c-0.939,0.804-0.499,1.331,0.521,1.476
	c-0.169,0.172-0.342,0.342-0.521,0.506c-0.203,0.186-0.324,0.354-0.406,0.511c-0.231,0.228-0.47,0.452-0.722,0.668
	c-1.459,1.251-0.765,1.975,1.236,1.83c1.784-0.129,3.452-0.534,5.451-0.534s3.667,0.405,5.451,0.534
	C16.986,27.633,17.682,26.909,16.222,25.658z"/>
<path style="fill:#F5F8FA;" d="M11.314,3.678c-0.274,0-0.539,0.042-0.787,0.119c-0.296-0.843-1.096-1.449-2.04-1.449
	c-1.013,0-1.86,0.697-2.096,1.637c-0.25-0.189-0.559-0.306-0.898-0.306c-0.827,0-1.497,0.67-1.497,1.497
	c0,0.201,0.041,0.392,0.114,0.567c-0.144-0.04-0.292-0.068-0.446-0.068C2.744,5.674,2,6.418,2,7.337C2,8.256,2.744,9,3.663,9h7.65
	c1.469,0,2.661-1.191,2.661-2.661C13.975,4.87,12.782,3.678,11.314,3.678z"/>
</svg>
