<?xml version="1.0" encoding="iso-8859-1"?>
<!-- Generator: Adobe Illustrator 23.0.1, SVG Export Plug-In . SVG Version: 6.00 Build 0)  -->
<svg version="1.1" id="_x31_f64d-1f3fd" xmlns="http://www.w3.org/2000/svg" xmlns:xlink="http://www.w3.org/1999/xlink" x="0px"
	 y="0px" viewBox="0 0 36 36" style="enable-background:new 0 0 36 36;" xml:space="preserve">
<g>
	<g>
		<defs>
			<rect id="SVGID_1_" x="1.654" y="1.201" width="16.799" height="16.799"/>
		</defs>
		<!-- <clipPath id="SVGID_2_">
			<use xlink:href="#SVGID_1_"  style="overflow:visible;"/>
		</clipPath> -->
		<g style="clip-path:url(#SVGID_2_);">
			<defs>
				<rect id="SVGID_3_" x="1.654" y="1.201" width="16.799" height="16.799"/>
			</defs>
			<!-- <clipPath id="SVGID_4_">
				<use xlink:href="#SVGID_3_"  style="overflow:visible;"/>
			</clipPath> -->
			<path style="clip-path:url(#SVGID_4_);fill:#0B0200;" d="M10.52,1.201c-0.803,0-1.56,0.189-2.237,0.518
				C8.1,1.687,7.912,1.668,7.72,1.668c-1.804,0-3.266,1.462-3.266,3.266v5.6h0.008c0.085,3.018,2.553,5.439,5.591,5.439
				s5.506-2.421,5.591-5.439h0.008v-4.2C15.653,3.499,13.355,1.201,10.52,1.201"/>
			<path style="clip-path:url(#SVGID_4_);fill:#9268CA;" d="M14.253,13.8h-8.4c-1.031,0-1.867,0.836-1.867,1.867V18H16.12v-2.333
				C16.12,14.636,15.284,13.8,14.253,13.8"/>
			<path style="clip-path:url(#SVGID_4_);fill:#7C533E;" d="M8.653,11.467v2.8c0,0.773,0.627,1.4,1.4,1.4c0.773,0,1.4-0.627,1.4-1.4
				v-2.8H8.653z"/>
			<path style="clip-path:url(#SVGID_4_);fill:#7C533E;" d="M5.854,3.534v5.6c0,2.32,1.88,4.2,4.2,4.2s4.2-1.88,4.2-4.2v-5.6H5.854z
				"/>
			<path style="clip-path:url(#SVGID_4_);fill:#0B0200;" d="M14.253,3.067h-8.4v0.467H5.387v2.8c2.8,0,2.8-2.8,2.8-2.8
				S9.12,6.801,14.72,6.801V3.534L14.253,3.067z"/>
			<rect x="5.854" y="16.133" style="clip-path:url(#SVGID_4_);fill:#7450A8;" width="0.467" height="1.867"/>
			<rect x="13.787" y="16.133" style="clip-path:url(#SVGID_4_);fill:#7450A8;" width="0.467" height="1.867"/>
			<path style="clip-path:url(#SVGID_4_);" d="M8.187,9.134c-0.258,0-0.467-0.209-0.467-0.467V8.201
				c0-0.258,0.209-0.467,0.467-0.467c0.258,0,0.467,0.209,0.467,0.467v0.467C8.653,8.925,8.444,9.134,8.187,9.134"/>
			<path style="clip-path:url(#SVGID_4_);" d="M11.92,9.134c-0.258,0-0.467-0.209-0.467-0.467V8.201
				c0-0.258,0.209-0.467,0.467-0.467c0.258,0,0.467,0.209,0.467,0.467v0.467C12.387,8.925,12.178,9.134,11.92,9.134"/>
			<path style="clip-path:url(#SVGID_4_);fill:#3D2E24;" d="M10.52,10.767H9.587c-0.129,0-0.233-0.105-0.233-0.233
				c0-0.129,0.105-0.233,0.233-0.233h0.933c0.129,0,0.233,0.105,0.233,0.233C10.753,10.663,10.649,10.767,10.52,10.767"/>
			<path style="clip-path:url(#SVGID_4_);fill:#DF1F32;" d="M8.653,12.4c0,0,0.467-0.933,1.4-0.933c0.933,0,1.4,0.933,1.4,0.933
				H8.653z"/>
		</g>
	</g>
</g>
<g>
	<path style="fill:#963B22;" d="M9.678,18.225c-0.767,0-1.49,0.181-2.137,0.495c-0.175-0.03-0.354-0.049-0.538-0.049
		c-1.723,0-3.12,1.397-3.12,3.12v5.349h0.008c0.082,2.883,2.439,5.196,5.342,5.196s5.26-2.313,5.342-5.196h0.008v-4.012
		C14.581,20.42,12.386,18.225,9.678,18.225z"/>
	<path style="fill:#9268CA;" d="M11.027,30.261h-3.59c-2.209,0-4,1.791-4,4v0.012h11.59v-0.012
		C15.027,32.052,13.236,30.261,11.027,30.261z"/>
	<path style="fill:#D5AB88;" d="M7.895,28.032v2.675c0,0.739,0.599,1.337,1.337,1.337c0.739,0,1.337-0.599,1.337-1.337v-2.675H7.895
		z"/>
	<path style="fill:#D5AB88;" d="M5.22,20.454v5.349c0,2.216,1.796,4.012,4.012,4.012s4.012-1.796,4.012-4.012v-5.349H5.22z"/>
	<path style="fill:#963B22;" d="M13.244,20.008H5.22v0.446H4.774v2.675c2.675,0,2.675-2.675,2.675-2.675s0.892,3.12,6.241,3.12
		v-3.12L13.244,20.008z"/>
	<rect x="5.22" y="32.49" style="fill:#7450A8;" width="0.446" height="1.783"/>
	<rect x="12.798" y="32.49" style="fill:#7450A8;" width="0.446" height="1.783"/>
	<path style="fill:#662113;" d="M7.449,25.803c-0.246,0-0.446-0.2-0.446-0.446v-0.446c0-0.246,0.2-0.446,0.446-0.446
		s0.446,0.2,0.446,0.446v0.446C7.895,25.604,7.695,25.803,7.449,25.803z"/>
	<path style="fill:#662113;" d="M11.015,25.803c-0.246,0-0.446-0.2-0.446-0.446v-0.446c0-0.246,0.199-0.446,0.446-0.446
		s0.446,0.2,0.446,0.446v0.446C11.461,25.604,11.262,25.803,11.015,25.803z"/>
	<path style="fill:#C1694F;" d="M9.678,27.364H8.786c-0.123,0-0.223-0.1-0.223-0.223c0-0.123,0.1-0.223,0.223-0.223h0.892
		c0.123,0,0.223,0.1,0.223,0.223C9.901,27.264,9.801,27.364,9.678,27.364z"/>
	<path style="fill:#DF1F32;" d="M7.895,28.924c0,0,0.446-0.892,1.337-0.892c0.891,0,1.337,0.892,1.337,0.892H7.895z"/>
</g>
<g>
	<path style="fill:#FFDC5D;" d="M20.971,20.702v4.984c0,2.24,1.815,4.055,4.055,4.055s4.055-1.815,4.055-4.055v-4.843L20.971,20.702
		z"/>
	<path style="fill:#662113;" d="M23.223,25.235c-0.249,0-0.451-0.202-0.451-0.451v-0.451c0-0.249,0.202-0.451,0.451-0.451
		c0.249,0,0.451,0.202,0.451,0.451v0.451C23.674,25.033,23.472,25.235,23.223,25.235z"/>
	<path style="fill:#662113;" d="M26.828,25.235c-0.249,0-0.451-0.202-0.451-0.451v-0.451c0-0.249,0.202-0.451,0.451-0.451
		s0.451,0.202,0.451,0.451v0.451C27.278,25.033,27.077,25.235,26.828,25.235z"/>
	<path style="fill:#C1694F;" d="M25.476,26.812h-0.901c-0.125,0-0.225-0.101-0.225-0.225c0-0.125,0.101-0.225,0.225-0.225h0.901
		c0.125,0,0.225,0.101,0.225,0.225C25.701,26.711,25.601,26.812,25.476,26.812z"/>
	<path style="fill:#FFDC5D;" d="M21.803,24.206c0,0.712-0.361,1.289-0.806,1.289c-0.445,0-0.806-0.577-0.806-1.289
		c0-0.712,0.361-1.289,0.806-1.289C21.442,22.917,21.803,23.494,21.803,24.206z"/>
	<path style="fill:#FFDC5D;" d="M29.86,24.206c0,0.712-0.361,1.289-0.806,1.289c-0.445,0-0.806-0.577-0.806-1.289
		c0-0.712,0.361-1.289,0.806-1.289C29.499,22.917,29.86,23.494,29.86,24.206z"/>
	<path style="fill:#FFAC33;" d="M25.026,18.397c-3.163,0-4.568,2.11-4.568,3.869c0,1.759,0.605,2.246,0.703,1.759
		c0.351-1.759,1.406-2.298,1.406-2.298c2.108,1.759,1.757,0.352,1.757,0.352c2.108,2.11,1.054,0,1.054,0
		c0.703,0.704,2.811,0.704,2.811,0.704s0.351,0.54,0.703,1.243c0.351,0.704,0.703,0,0.703-1.759
		C29.594,20.508,27.837,18.397,25.026,18.397z"/>
	<path style="fill:#4289C1;" d="M29.081,30.191H28.63h-7.209h-0.451c-0.995,0-1.802,0.807-1.802,1.802v2.253h2.253h7.209h2.253
		v-2.253C30.883,30.998,30.076,30.191,29.081,30.191z"/>
	<rect x="28.63" y="32.444" style="fill:#2A6797;" width="0.451" height="1.802"/>
	<rect x="20.971" y="32.444" style="fill:#2A6797;" width="0.451" height="1.802"/>
	<path style="fill:#FFDC5D;" d="M23.674,28.84v1.802c0,0.747,0.605,1.352,1.352,1.352c0.747,0,1.352-0.605,1.352-1.352V28.84H23.674
		z"/>
	<path style="fill:#FFDC5D;" d="M23.674,28.84v1.802c0,0.747,0.605,1.352,1.352,1.352c0.747,0,1.352-0.605,1.352-1.352V28.84H23.674
		z"/>
	<path style="fill:#C1694F;" d="M23.674,28.84c0,0,0.451-0.901,1.352-0.901s1.352,0.901,1.352,0.901H23.674z"/>
</g>
<g>
	<g>
		<defs>
			<rect id="SVGID_5_" x="17.546" y="1.689" width="16.311" height="16.311"/>
		</defs>
		<g style="clip-path:url(#SVGID_6_);">
			<defs>
				<rect id="SVGID_7_" x="17.546" y="1.689" width="16.311" height="16.311"/>
			</defs>
			<path style="clip-path:url(#SVGID_8_);fill:#292F33;" d="M26.155,1.689c-0.78,0-1.515,0.184-2.172,0.503
				c-0.178-0.031-0.36-0.05-0.547-0.05c-1.752,0-3.172,1.42-3.172,3.172v5.437h0.008c0.083,2.93,2.479,5.281,5.429,5.281
				s5.346-2.351,5.429-5.281h0.008V6.673C31.139,3.92,28.907,1.689,26.155,1.689"/>
			<path style="clip-path:url(#SVGID_8_);fill:#9268CA;" d="M29.779,13.922h-8.156c-1.001,0-1.812,0.811-1.812,1.812V18h11.78
				v-2.265C31.592,14.734,30.78,13.922,29.779,13.922"/>
			<path style="clip-path:url(#SVGID_8_);fill:#F7DECE;" d="M24.342,11.657v2.719c0,0.751,0.609,1.359,1.359,1.359
				c0.751,0,1.359-0.609,1.359-1.359v-2.719H24.342z"/>
			<path style="clip-path:url(#SVGID_8_);fill:#F7DECE;" d="M21.624,3.954v5.437c0,2.252,1.826,4.078,4.078,4.078
				c2.252,0,4.078-1.826,4.078-4.078V3.954H21.624z"/>
			<path style="clip-path:url(#SVGID_8_);fill:#292F33;" d="M30.232,3.954l-0.906-0.453h-8.156v0.453v2.719
				c2.719,0,2.719-2.719,2.719-2.719s0.906,3.172,6.343,3.172L30.232,3.954L30.232,3.954z"/>
			<rect x="21.624" y="16.188" style="clip-path:url(#SVGID_8_);fill:#7450A8;" width="0.453" height="1.812"/>
			<rect x="29.326" y="16.188" style="clip-path:url(#SVGID_8_);fill:#7450A8;" width="0.453" height="1.812"/>
			<path style="clip-path:url(#SVGID_8_);fill:#DF1F32;" d="M26.155,12.11c0,0.251-0.203,0.453-0.453,0.453
				c-0.25,0-0.453-0.203-0.453-0.453c0-0.251,0.203-0.453,0.453-0.453C25.952,11.657,26.155,11.859,26.155,12.11"/>
			<path style="clip-path:url(#SVGID_8_);fill:#662113;" d="M23.889,8.938c-0.25,0-0.453-0.203-0.453-0.453V8.032
				c0-0.25,0.203-0.453,0.453-0.453s0.453,0.203,0.453,0.453v0.453C24.342,8.735,24.139,8.938,23.889,8.938"/>
			<path style="clip-path:url(#SVGID_8_);fill:#662113;" d="M27.514,8.938c-0.251,0-0.453-0.203-0.453-0.453V8.032
				c0-0.25,0.203-0.453,0.453-0.453s0.453,0.203,0.453,0.453v0.453C27.967,8.735,27.764,8.938,27.514,8.938"/>
			<path style="clip-path:url(#SVGID_8_);fill:#C1694F;" d="M26.155,10.524h-0.906c-0.125,0-0.227-0.101-0.227-0.227
				c0-0.125,0.101-0.227,0.227-0.227h0.906c0.125,0,0.227,0.101,0.227,0.227C26.381,10.422,26.28,10.524,26.155,10.524"/>
		</g>
	</g>
</g>
</svg>
