<?xml version="1.0" encoding="iso-8859-1"?>
<!-- Generator: Adobe Illustrator 23.0.1, SVG Export Plug-In . SVG Version: 6.00 Build 0)  -->
<svg version="1.1" id="_x32_67f" xmlns="http://www.w3.org/2000/svg" xmlns:xlink="http://www.w3.org/1999/xlink" x="0px" y="0px"
	 viewBox="0 0 36 36" style="enable-background:new 0 0 36 36;" xml:space="preserve">
<path style="fill:#226699;" d="M36,32c0,2.209-1.791,4-4,4H4c-2.209,0-4-1.791-4-4V4c0-2.209,1.791-4,4-4h28c2.209,0,4,1.791,4,4V32
	z"/>
<circle style="fill:#FFFFFF;" cx="27" cy="7" r="3"/>
<path style="fill:#FFFFFF;" d="M13.06,13.06l2.367-2.366l3.859,1.158l-2.635,2.847c1.766,0.694,3.282,1.875,4.392,3.379l5.017-5.017
	c0.373-0.373,0.523-0.916,0.393-1.427c-0.129-0.512-0.518-0.918-1.023-1.07l-9.999-3c-0.529-0.16-1.102-0.015-1.492,0.376l-3,3
	c-0.586,0.585-0.586,1.536,0,2.121C11.525,13.646,12.474,13.646,13.06,13.06z"/>
<path style="fill:#FFFFFF;" d="M29.125,18.009c-0.316-0.359-0.787-0.549-1.262-0.503l-6.786,0.617
	c0.632,0.867,1.135,1.833,1.464,2.879l3.548-0.322l-1.554,6.995c-0.18,0.809,0.33,1.609,1.139,1.789
	C25.783,29.488,25.893,29.5,26,29.5c0.688,0,1.308-0.476,1.463-1.175l2-9C29.567,18.857,29.441,18.369,29.125,18.009z"/>
<path style="fill:#FFFFFF;" d="M13,16c-4.418,0-8,3.582-8,8s3.582,8,8,8c4.418,0,8-3.582,8-8S17.418,16,13,16z M13,30
	c-3.313,0-6-2.687-6-6s2.687-6,6-6c3.314,0,6,2.687,6,6S16.313,30,13,30z"/>
</svg>
