<?xml version="1.0" encoding="iso-8859-1"?>
<!-- Generator: Adobe Illustrator 23.0.1, SVG Export Plug-In . SVG Version: 6.00 Build 0)  -->
<svg version="1.1" id="_x31_f46e" xmlns="http://www.w3.org/2000/svg" xmlns:xlink="http://www.w3.org/1999/xlink" x="0px" y="0px"
	 viewBox="0 0 36 36" style="enable-background:new 0 0 36 36;" xml:space="preserve">
<path style="fill:#2A6797;" d="M32,36v-2c0-3.314-2.685-6-6-6H10c-3.313,0-6,2.686-6,6v2H32z"/>
<ellipse style="fill:#2A6797;" cx="18.003" cy="7.501" rx="12" ry="7.5"/>
<g>
	<path style="fill:#FFDC5D;" d="M13.64,28.101c0,0,2.848,1.963,4.36,1.963c1.512,0,4.359-1.963,4.359-1.963V24.29h-8.72V28.101z"/>
	<path style="fill:#F9CA55;" d="M13.632,25.973c1.216,1.374,2.724,1.746,4.364,1.746c1.639,0,3.146-0.373,4.363-1.746v-3.491h-8.728
		V25.973z"/>
	<path style="fill:#FFDC5D;" d="M11.444,15.936c0,1.448-0.734,2.622-1.639,2.622c-0.905,0-1.639-1.174-1.639-2.622
		c0-1.448,0.734-2.623,1.639-2.623C10.71,13.312,11.444,14.487,11.444,15.936"/>
	<path style="fill:#FFDC5D;" d="M27.833,15.936c0,1.448-0.733,2.622-1.639,2.622c-0.905,0-1.639-1.174-1.639-2.622
		c0-1.448,0.733-2.623,1.639-2.623C27.1,13.312,27.833,14.487,27.833,15.936"/>
	<path style="fill:#FFDC5D;" d="M9.477,16.959c0-5.589,3.816-10.121,8.523-10.121c4.707,0,8.522,4.532,8.522,10.121
		c0,5.589-3.815,10.121-8.522,10.121C13.293,27.08,9.477,22.549,9.477,16.959"/>
	<path style="fill:#C1694F;" d="M18,23.802c-2.754,0-3.6-0.705-3.741-0.848c-0.256-0.256-0.256-0.671,0-0.927
		c0.248-0.248,0.646-0.255,0.902-0.023c0.052,0.037,0.721,0.487,2.839,0.487c2.2,0,2.836-0.485,2.842-0.49
		c0.256-0.255,0.657-0.243,0.913,0.015c0.256,0.256,0.242,0.683-0.014,0.938C21.6,23.097,20.754,23.802,18,23.802"/>
	<path style="fill:#FFAC33;" d="M18,4.406c5.648,0,9.178,3.242,9.178,6.715c0,3.473-0.706,4.863-1.412,3.473
		c-0.706-1.389-1.412-2.778-1.412-2.778s-4.235,0-5.647-1.39c0,0,2.118,4.168-2.118,0c0,0,0.706,2.779-3.53-0.694
		c0,0-2.118,1.389-2.824,4.862c-0.196,0.964-1.412,0-1.412-3.473C8.822,7.648,11.646,4.406,18,4.406"/>
	<path style="fill:#662113;" d="M14,17L14,17c-0.55,0-1-0.45-1-1v-1c0-0.55,0.45-1,1-1s1,0.45,1,1v1C15,16.55,14.55,17,14,17"/>
	<path style="fill:#662113;" d="M22,17L22,17c-0.55,0-1-0.45-1-1v-1c0-0.55,0.45-1,1-1s1,0.45,1,1v1C23,16.55,22.55,17,22,17"/>
	<path style="fill:#C1694F;" d="M18.75,19.75h-1.5c-0.413,0-0.75-0.337-0.75-0.75s0.337-0.75,0.75-0.75h1.5
		c0.413,0,0.75,0.337,0.75,0.75S19.163,19.75,18.75,19.75"/>
</g>
<g>
	<path style="fill:#2A6797;" d="M8.5,8v1c0,1.105,4.253,2,9.5,2s9.5-0.895,9.5-2V8H8.5z"/>
	<path style="fill:#4289C1;" d="M27.001,8V6c0,0-3.75-2.25-9.001-2.25C12.752,3.75,9.002,6,9.002,6v2H27.001z"/>
	<path style="fill:#FDCB58;" d="M27.5,8h-19C8.225,8,8,8.225,8,8.5S8.225,9,8.5,9h19C27.775,9,28,8.775,28,8.5S27.775,8,27.5,8z"/>
	<path style="fill:#193D59;" d="M19.947,32.277c0.886,0.622,1.812,1.245,2.147,1.379c0.018,0.007,0.016-0.11,0.012-0.114
		c-1.958-2.292-4.084-3.534-4.084-3.534s0.01-0.007,0.013-0.009c-0.005,0-0.009,0-0.014,0.001h-0.03
		c0.002,0.001,0.011,0.008,0.011,0.008s-2.09,1.225-4.035,3.48c0.013,0.103,0.037,0.158,0.076,0.137
		c0.297-0.16,1.175-0.766,2.03-1.368c0.039,0.112,0.078,0.213,0.112,0.275c0.156,0.281,0.528,0.906,0.528,0.906
		s-0.753,0.562-1.035,2.563h4.667c-0.281-1.595-1.031-2.563-1.031-2.563s0.375-0.625,0.531-0.906
		C19.876,32.473,19.911,32.381,19.947,32.277z"/>
	<path style="fill:#4289C1;" d="M18.001,30.008c0,0-0.01-0.006-0.011-0.008c-0.124-0.084-4.14-2.817-4.698-3.375
		c-0.271-0.271-0.97,0.905-0.958,1.208c0.041,1.084,1.386,5.939,1.583,5.709c0.016-0.019,0.033-0.035,0.049-0.054
		C15.911,31.232,18.001,30.008,18.001,30.008z"/>
	<path style="fill:#4289C1;" d="M18.021,30.008c0,0,2.126,1.242,4.084,3.534c0.004,0.005,0.011-0.005,0.016-0.005
		c0.237,0.029,1.527-4.642,1.567-5.704c0.012-0.303-0.688-1.479-0.958-1.208c-0.557,0.557-4.56,3.282-4.696,3.374
		C18.032,30.001,18.021,30.008,18.021,30.008z"/>
	<path style="fill:#1E4B6E;" d="M18.016,30.688c-0.562,0.031-1.452,0.941-1.359,1.328c0.427,1.785,0.779,1.312,1.391,1.312
		c0.542,0,0.93,0.437,1.391-1.391C19.559,31.459,18.405,30.665,18.016,30.688z"/>
	<path style="fill:#1E4B6E;" d="M18.042,33.833c-1.477,0-2.019,2.167-2.019,2.167h4.023C20.047,36,19.519,33.833,18.042,33.833z"/>
</g>
<path style="fill:#FDCB58;" d="M20.25,1.501c0,0-0.001,0-0.002,0v0v0c-0.233,0.001-0.433,0.114-0.57,0.282
	c-0.281,0.069-0.667,0.084-1.157-0.071C18.385,1.583,18.203,1.501,18,1.501c-0.201,0-0.384,0.082-0.519,0.212
	c-0.491,0.155-0.877,0.14-1.157,0.071c-0.138-0.168-0.338-0.282-0.571-0.282v0v0c0,0-0.001,0-0.002,0c-0.415,0-0.75,0.335-0.75,0.75
	c0,0.414,0.335,0.75,0.75,0.75c0.001,0,0.001,0,0.001,0h0.001c0,3,1.498,3.75,2.247,3.75c0.751,0,2.248-0.75,2.248-3.75l0,0
	c0.001,0,0.002,0,0.002,0c0.416,0,0.751-0.336,0.751-0.75C21.001,1.836,20.666,1.501,20.25,1.501z"/>
<path style="fill:#4289C1;" d="M11.468,29.412l-5.926,0.938c-0.272,0.043-0.529-0.144-0.572-0.416l-0.157-0.988
	c-0.043-0.271,0.144-0.528,0.416-0.571l5.926-0.938c0.271-0.043,0.529,0.145,0.572,0.415l0.156,0.988
	C11.927,29.111,11.74,29.368,11.468,29.412"/>
<circle style="fill:#FFFFFF;" cx="10.625" cy="28.513" r="0.576"/>
<path style="fill:#4289C1;" d="M24.544,29.412l5.926,0.938c0.273,0.043,0.529-0.144,0.572-0.416l0.157-0.988
	c0.043-0.271-0.143-0.528-0.416-0.571l-5.927-0.938c-0.271-0.043-0.529,0.145-0.572,0.415l-0.156,0.988
	C24.085,29.111,24.272,29.368,24.544,29.412"/>
<circle style="fill:#FFFFFF;" cx="25.191" cy="28.513" r="0.576"/>
</svg>
