<?xml version="1.0" encoding="iso-8859-1"?>
<!-- Generator: Adobe Illustrator 23.0.1, SVG Export Plug-In . SVG Version: 6.00 Build 0)  -->
<svg version="1.1" id="_x31_f408" xmlns="http://www.w3.org/2000/svg" xmlns:xlink="http://www.w3.org/1999/xlink" x="0px" y="0px"
	 viewBox="0 0 36 36" style="enable-background:new 0 0 36 36;" xml:space="preserve">
<path style="fill:#C1694F;" d="M36,12c0-4.252-3.141-7-8-7c-0.553,0-1,0.448-1,1s0.447,1,1,1c1.804,0,6,0.487,6,5
	c0,2.881-1.851,4.172-4.054,4.692c-0.164-0.073-0.328-0.147-0.509-0.192C25.938,15.625,25,17,19,17
	c-4.165,0-5.439-4.407-6.832-7.106C11.802,7.848,10.801,4,10,4C9.39,4,8.595,6.027,8.067,8.062C7.41,6.527,6.553,5,6,5
	C5.289,5,4.58,7.525,4.229,9.706C2.362,10.981,1,12.827,1,15c0,3,7,5,7,5c2.118,1.104,2.743,2.767,3.305,4.276
	C13.367,30.66,13.119,36,14.5,36s2.5-3.357,2.5-7.5c0-0.212-0.005-0.42-0.011-0.627c3.154-0.101,6.755-1.075,9.79-0.293
	C28.139,32.073,28.466,36,29.5,36c0.958,0,1.79-3.784,2.209-7.484c0.031-0.141,0.054-0.297,0.054-0.492l0.01-0.108
	c0.032-0.319,0.062-0.636,0.088-0.948l0.515-5.592c0-1.112-0.254-2.217-0.754-3.103C34.449,17.221,36,15.059,36,12z"/>
<circle style="fill:#292F33;" cx="7" cy="13" r="1"/>
<path style="fill:#292F33;" d="M3,13.375C2,14,2,16,1.5,16S0,14.824,0,13.375C0,11.925,4.229,12.606,3,13.375z"/>
<path style="fill:#662113;" d="M3,16.5c-0.184,0-0.36-0.101-0.448-0.276c-0.124-0.247-0.023-0.547,0.224-0.671
	c2.141-1.07,6.174-0.08,6.345-0.038c0.268,0.067,0.431,0.338,0.364,0.606c-0.067,0.267-0.339,0.427-0.606,0.364
	c-0.039-0.01-3.847-0.942-5.655-0.038C3.152,16.483,3.076,16.5,3,16.5z"/>
<path style="fill:#662113;" d="M8,18.5c-0.095,0-0.191-0.027-0.277-0.084C7.694,18.396,4.824,16.5,3,16.5
	c-0.276,0-0.5-0.224-0.5-0.5s0.224-0.5,0.5-0.5c2.127,0,5.15,1.999,5.277,2.084c0.229,0.153,0.292,0.463,0.139,0.693
	C8.32,18.422,8.161,18.5,8,18.5z"/>
</svg>
