<?xml version="1.0" encoding="iso-8859-1"?>
<!-- Generator: Adobe Illustrator 23.0.1, SVG Export Plug-In . SVG Version: 6.00 Build 0)  -->
<svg version="1.1" id="Layer_4" xmlns="http://www.w3.org/2000/svg" xmlns:xlink="http://www.w3.org/1999/xlink" x="0px" y="0px"
	 viewBox="0 0 38 38" style="enable-background:new 0 0 38 38;" xml:space="preserve">
<path style="fill:#77B255;" d="M20.602,33.329c6.509,6.506,17.254-7.669,15.72-7.669C28.653,25.66,14.095,26.821,20.602,33.329z"/>
<path style="fill:#77B255;" d="M16.645,34.372c-6.032,6.032-15.715-7.109-14.292-7.109C9.462,27.263,22.68,28.338,16.645,34.372z"/>
<path style="fill:#F4ABBA;" d="M35.613,16.754c-0.052-0.901-0.175-2.585-1.398-4.227c-1.16-1.549-3.805-3.371-5.534-2.585
	c0.516-1.676-0.264-4.125-1.191-5.49c-1.179-1.736-4.262-3.843-8.146-3.026c-1.754,0.369-4.18,2.036-4.632,3.864
	c-1.18-1.471-4.22-1.675-6.015-1.222C6.671,4.579,5.543,5.845,4.958,6.529l0.003-0.005c-0.01,0.01-0.02,0.024-0.03,0.034
	c-0.007,0.009-0.02,0.024-0.027,0.033C4.321,7.28,3.248,8.585,3.057,10.665c-0.193,2.146,0.75,5.832,3.026,6.042
	c0.149,0.014,0.324,0.031,0.514,0.051c-2.271,0.098-3.572,3.654-3.595,5.8c-0.022,2.102,0.926,3.506,1.443,4.243l-0.003-0.004
	c0.008,0.01,0.019,0.024,0.025,0.036c0.007,0.011,0.02,0.023,0.026,0.036c0.523,0.733,1.525,2.094,3.515,2.776
	c1.958,0.669,5.553,0.656,6.567-1.236c-0.273,2.244,3.027,4.077,5.169,4.438c2.115,0.358,3.71-0.357,4.55-0.753l-0.005,0.003
	c0.013-0.008,0.028-0.015,0.041-0.021c0.011-0.005,0.028-0.014,0.041-0.02c0.838-0.4,2.398-1.178,3.462-3.04
	c0.729-1.282,1.27-3.403,0.951-5.015c0.064,0.043,0.136,0.089,0.192,0.127c1.826,1.224,4.63-1.119,5.705-2.938
	C35.725,19.429,35.613,16.766,35.613,16.754z"/>
<path style="fill:#EA596E;" d="M28.542,14.542c-1.786-0.997-4.874-0.434-6.792,0.308c-0.266-0.468-0.621-0.875-1.051-1.196
	c1.393-1.607,3.526-4.593,1.468-6.362c-2.191-1.883-3.74,2.154-3.575,5.605c-0.068-0.003-0.132-0.02-0.201-0.02
	c-1.019,0-1.94,0.402-2.632,1.045c-1.401-2.277-3.942-4.244-5.314-2.392c-1.482,2.002,1.148,3.153,4.222,4.2
	c-0.09,0.329-0.154,0.668-0.154,1.025c0,0.456,0.093,0.887,0.238,1.293c-2.541,0.732-6.236,2.718-4.21,4.91
	c2.122,2.296,4.472-1.238,5.604-3.053c0.635,0.454,1.407,0.727,2.247,0.727c0.225,0,0.441-0.029,0.655-0.066
	c-0.109,4.802,1.443,7.07,4.036,5.892c2.295-1.043-0.137-5.299-1.781-7.165c0.316-0.362,0.564-0.779,0.729-1.241
	C29.039,20.596,30.62,15.701,28.542,14.542z"/>
<path style="fill:#BE1931;" d="M18.707,18.459c-0.679,0-0.668-0.562-0.832-1.25c-0.532-2.233-2.381-6.308-4.601-9.163
	c-0.509-0.654-0.391-1.596,0.263-2.105c0.654-0.508,1.596-0.391,2.105,0.263c2.439,3.136,3.264,7.404,3.982,10.421
	c0.191,0.806,0.237,1.601-0.569,1.792C18.939,18.445,18.822,18.459,18.707,18.459z"/>
<path style="fill:#FFCC4D;" d="M16.904,6.327c0.498,0.684,0.079,1.838-0.936,2.578l-0.475,0.347
	c-1.016,0.739-2.243,0.785-2.741,0.101L9.972,5.536c-0.498-0.684-0.079-1.838,0.937-2.578l0.475-0.347
	c1.015-0.739,2.242-0.785,2.74-0.101L16.904,6.327z"/>
</svg>
