<?xml version="1.0" encoding="iso-8859-1"?>
<!-- Generator: Adobe Illustrator 23.0.1, SVG Export Plug-In . SVG Version: 6.00 Build 0)  -->
<svg version="1.1" id="_x31_f476" xmlns="http://www.w3.org/2000/svg" xmlns:xlink="http://www.w3.org/1999/xlink" x="0px" y="0px"
	 viewBox="0 0 36 36" style="enable-background:new 0 0 36 36;" xml:space="preserve">
<path style="fill:#FFDC5D;" d="M36,18.5c0-1.639-0.97-3.004-2.273-3.385C32.367,7.658,25.85,2,18,2
	C10.15,2,3.633,7.658,2.273,15.115C0.97,15.496,0,16.861,0,18.5c0,1.736,1.087,3.168,2.51,3.442C4.269,28.868,10.527,34,18,34
	c7.473,0,13.731-5.132,15.49-12.058C34.912,21.668,36,20.236,36,18.5z"/>
<path style="fill:#662214;" d="M18,25c-3,0-4-1-4,1s2,4,4,4s4-2,4-4S21,25,18,25z"/>
<circle style="fill:#662214;" cx="22.5" cy="18.5" r="2.5"/>
<circle style="fill:#662214;" cx="13.5" cy="18.5" r="2.5"/>
<path style="fill:#FFFFFF;" d="M18,26h2v1c0,0,0,1-1,1s-1-1-1-1V26z"/>
<path style="fill:#EF9645;" d="M17.982,11c-0.01,0-0.021,0-0.031,0c-1.188,0-2.301-0.458-3.135-1.304
	C14.07,8.94,13.678,7.909,13.74,6.849c0.032-0.551,0.49-0.96,1.057-0.935c0.551,0.033,0.972,0.508,0.939,1.06
	c-0.029,0.495,0.155,0.983,0.503,1.336c0.459,0.466,1.071,0.725,1.725,0.729c0.653-0.036,1.27-0.247,1.735-0.705
	c1.298-1.28,1.312-3.378,0.032-4.677c-1.699-1.721-4.48-1.74-6.202-0.042c-0.394,0.389-1.027,0.383-1.414-0.01
	c-0.388-0.393-0.383-1.026,0.01-1.414c2.506-2.472,6.557-2.444,9.03,0.062c2.055,2.084,2.031,5.432-0.052,7.486
	C20.267,10.565,19.158,11,17.982,11z"/>
</svg>
