<?xml version="1.0" encoding="iso-8859-1"?>
<!-- Generator: Adobe Illustrator 23.0.1, SVG Export Plug-In . SVG Version: 6.00 Build 0)  -->
<svg version="1.1" id="_x31_f6e0" xmlns="http://www.w3.org/2000/svg" xmlns:xlink="http://www.w3.org/1999/xlink" x="0px" y="0px"
	 viewBox="0 0 36 36" style="enable-background:new 0 0 36 36;" xml:space="preserve">
<path style="fill:#8899A6;" d="M34.247,6.324l-2.742,2.743c0,0-1.829,0.914-3.657-0.915c-1.829-1.828-0.915-3.657-0.915-3.657
	l2.743-2.743C30.591,0.838,29.492,0,28.667,0c-4.051,0-7.334,3.283-7.334,7.333c0,0.569,0.072,1.121,0.194,1.653l-6.199,6.199
	l5.485,5.485l6.199-6.198c0.533,0.122,1.084,0.194,1.654,0.194c4.05,0,7.333-3.283,7.333-7.333C36,6.503,35.161,5.41,34.247,6.324z"
	/>
<path style="fill:#8899A6;" d="M15.22,15.364L3.031,27.552c-1.495,1.496-1.495,3.921,0,5.417c1.497,1.495,3.921,1.495,5.417,0
	l12.187-12.188L15.22,15.364z M5.763,31.838c-0.819,0-1.482-0.664-1.482-1.482c0-0.818,0.664-1.483,1.482-1.483
	c0.819,0,1.482,0.664,1.482,1.483C7.245,31.174,6.582,31.838,5.763,31.838z"/>
<path style="fill:#F4900C;" d="M30.83,33.279c1.166,1.166,3.022,1.221,4.121,0.121c1.1-1.1,1.045-2.955-0.121-4.121L11.565,6.014
	c-1.167-1.167-3.021-1.221-4.121-0.121c-1.1,1.1-1.045,2.955,0.121,4.121L30.83,33.279z"/>
<path style="fill:#66757F;" d="M21.444,0.893c0,0-6-3-11,2c-4.5,4.5-7,7-7,7s-1-1-2,0c-1,1-1,1-1,1s-1,1,0,2c1,1,4,4,4,4s1,1,2,0
	s1-1,1-1s1-1,0-2c-0.023-0.024-0.053-0.053-0.078-0.078c0.77-0.743,1.923-1.5,3.078-0.922l4-4c0,0-1-3,1-5s3-2,5-2
	S21.444,0.893,21.444,0.893z"/>
</svg>
