<?xml version="1.0" encoding="iso-8859-1"?>
<!-- Generator: Adobe Illustrator 23.0.1, SVG Export Plug-In . SVG Version: 6.00 Build 0)  -->
<svg version="1.1" id="_x31_f69c" xmlns="http://www.w3.org/2000/svg" xmlns:xlink="http://www.w3.org/1999/xlink" x="0px" y="0px"
	 viewBox="0 0 36 36" style="enable-background:new 0 0 36 36;" xml:space="preserve">
<rect x="11" y="11" style="fill:#CCD6DD;" width="3" height="9"/>
<path style="fill:#77B255;" d="M24,26.157C24,28.832,22.354,31,20.325,31H4.709c-2.029,0-3.488-1.565-3.258-3.494l0.625-5.241
	c0.23-1.93,1.992-3.808,3.928-4.199l14.628-3.21C22.496,14.413,24,16.219,24,18.893V26.157z"/>
<path style="fill:#292F33;" d="M16.535,24.167C16.239,26.283,17.791,28,20,28h9c2.209,0,4-1.717,4-3.833V8.833
	C33,6.716,31.547,5,29.755,5h-7.303c-1.792,0-3.484,1.716-3.78,3.833L16.535,24.167z"/>
<path style="fill:#BBDDF5;" d="M18.245,25c-0.135,1.104,0.65,2,1.755,2h9c1.104,0,2-0.896,2-2V11c0-1.104-0.743-2-1.66-2h-7.473
	c-0.917,0-1.771,0.896-1.906,2L18.245,25z"/>
<rect x="15" y="21" style="fill:#77B255;" width="18" height="10"/>
<polygon style="fill:#FFCC4D;" points="33,23 2,23 3,21 33,21 "/>
<circle style="fill:#292F33;" cx="8" cy="31" r="4"/>
<circle style="fill:#FFCC4D;" cx="8" cy="31" r="2"/>
<polygon style="fill:#77B255;" points="33,16 33,20 23,29 16,28 19,18 22,16 "/>
<path style="fill:#292F33;" d="M18.222,26.111c0-4.91,3.979-8.889,8.889-8.889c4.91,0,8.889,3.979,8.889,8.889
	C36,31.021,32.021,35,27.111,35C22.201,35,18.222,31.021,18.222,26.111z"/>
<path style="fill:#FFCC4D;" d="M32.667,26.111c0,3.068-2.487,5.556-5.556,5.556c-3.068,0-5.556-2.487-5.556-5.556
	c0-3.068,2.487-5.556,5.556-5.556C30.18,20.556,32.667,23.043,32.667,26.111z"/>
<path style="fill:#FFE8B6;" d="M30.444,26.111c0,1.841-1.492,3.333-3.333,3.333c-1.842,0-3.334-1.492-3.334-3.333
	c0-1.842,1.492-3.334,3.334-3.334C28.952,22.777,30.444,24.27,30.444,26.111z"/>
<path style="fill:#77B255;" d="M32.588,7c-0.552-1.187-1.606-2-2.833-2h-7.303c-1.227,0-2.395,0.813-3.112,2H32.588z"/>
<path style="fill:#F4900C;" d="M29.333,26.111c0,1.227-0.995,2.222-2.222,2.222c-1.227,0-2.223-0.995-2.223-2.222
	c0-1.227,0.995-2.223,2.223-2.223C28.338,23.889,29.333,24.884,29.333,26.111z"/>
<circle style="fill:#F4900C;" cx="8" cy="31" r="1"/>
<rect x="11" y="13" style="fill:#66757F;" width="3" height="2"/>
<path style="fill:#5C913B;" d="M16,28.75c-0.094,0-0.19-0.013-0.285-0.041c-0.529-0.157-0.832-0.714-0.675-1.243l2-6.75
	C17.421,18.796,19.188,15,23,15h10c0.553,0,1,0.448,1,1s-0.447,1-1,1H23c-3.144,0-4.011,4.154-4.02,4.196l-2.021,6.838
	C16.83,28.469,16.432,28.75,16,28.75z"/>
<path style="fill:#3E721D;" d="M2.001,29c-0.042,0-0.083-0.003-0.125-0.008c-0.548-0.068-0.937-0.568-0.868-1.116l1-8
	c0.068-0.549,0.569-0.936,1.116-0.868c0.548,0.068,0.937,0.568,0.868,1.116l-1,8C2.929,28.63,2.498,29,2.001,29z"/>
</svg>
