<?xml version="1.0" encoding="iso-8859-1"?>
<!-- Generator: Adobe Illustrator 23.0.1, SVG Export Plug-In . SVG Version: 6.00 Build 0)  -->
<svg version="1.1" id="_x32_6a0" xmlns="http://www.w3.org/2000/svg" xmlns:xlink="http://www.w3.org/1999/xlink" x="0px" y="0px"
	 viewBox="0 0 36 36" style="enable-background:new 0 0 36 36;" xml:space="preserve">
<path style="fill:#FFCC4D;" d="M2.653,35c-1.842,0-2.654-1.338-1.806-2.973L16.456,1.972c0.849-1.635,2.238-1.635,3.087,0
	l15.609,30.056C36.002,33.662,35.189,35,33.347,35H2.653z"/>
<path style="fill:#231F20;" d="M15.583,28.953c0-1.333,1.085-2.418,2.419-2.418c1.333,0,2.418,1.085,2.418,2.418
	c0,1.334-1.086,2.419-2.418,2.419C16.668,31.372,15.583,30.287,15.583,28.953z M15.769,10.66c0-1.302,0.961-2.108,2.232-2.108
	c1.241,0,2.233,0.837,2.233,2.108v11.938c0,1.271-0.992,2.108-2.233,2.108c-1.271,0-2.232-0.807-2.232-2.108V10.66z"/>
</svg>
