<?xml version="1.0" encoding="iso-8859-1"?>
<!-- Generator: Adobe Illustrator 23.0.1, SVG Export Plug-In . SVG Version: 6.00 Build 0)  -->
<svg version="1.1" id="_x32_6fd" xmlns="http://www.w3.org/2000/svg" xmlns:xlink="http://www.w3.org/1999/xlink" x="0px" y="0px"
	 viewBox="0 0 36 36" style="enable-background:new 0 0 36 36;" xml:space="preserve">
<path style="fill:#99AAB5;" d="M30,33c-2.417,0-5-1.313-5-5c0-2.071,1.118-3.478,2.199-4.838c0.423-0.532,0.851-1.07,1.239-1.666
	C26.883,20.077,25.172,19,24,19v-2c1.621,0,3.603,1.133,5.382,2.67C29.76,18.675,30,17.493,30,16h2c0,2.169-0.448,3.816-1.077,5.149
	c1.445,1.542,2.591,3.23,3.025,4.534c0.688,2.066,0.483,4.228-0.535,5.642C32.635,32.405,31.422,33,30,33z M29.87,22.948
	c-0.368,0.53-0.747,1.008-1.105,1.458C27.779,25.646,27,26.627,27,28c0,2.479,1.632,3,3,3c0.784,0,1.387-0.284,1.791-0.845
	c0.64-0.888,0.741-2.395,0.261-3.839C31.725,25.338,30.902,24.114,29.87,22.948z"/>
<path style="fill:#FFAC33;" d="M21.252,10H15H9c-2.209,0-3.883,1.791-3.74,4l1.17,18c0.144,2.209,1.775,4,3.645,4H15h5.177
	c1.869,0,3.501-1.791,3.645-4l1.171-18C25.135,11.791,23.461,10,21.252,10z"/>
<path style="fill:#AAB8C2;" d="M26,33H4c-0.552,0-1,0.447-1,1v2h24v-2C27,33.447,26.553,33,26,33z"/>
<path style="fill:#FFAC33;" d="M31,10c-0.553,0-1-0.448-1-1V5.764l2.105-4.211c0.248-0.494,0.848-0.695,1.342-0.447
	c0.494,0.247,0.694,0.848,0.447,1.342L32,6.236V9C32,9.552,31.553,10,31,10z"/>
<path style="fill:#BE1931;" d="M33.5,16h-0.777C32.895,15.705,33,15.366,33,15v-4c0-0.738-0.404-1.376-1-1.723V9
	c0-0.552-0.447-1-1-1s-1,0.448-1,1v0.277c-0.596,0.347-1,0.984-1,1.723v4c0,0.366,0.105,0.705,0.277,1H28.5
	c-0.276,0-0.5,0.224-0.5,0.5s0.224,0.5,0.5,0.5h5c0.276,0,0.5-0.224,0.5-0.5S33.776,16,33.5,16z"/>
<path style="fill:#99AAB5;" d="M25,14c0,0.552,0.447,1,1,1h5c0.553,0,1-0.448,1-1l0,0c0-0.552-0.447-1-1-1h-5
	C25.447,13,25,13.448,25,14L25,14z"/>
<g>
	<path style="fill:#E1E8ED;" d="M27,14c0,2.209-1.791,4-4,4H7c-2.209,0-4-1.791-4-4V4c0-2.209,1.791-4,4-4h16c2.209,0,4,1.791,4,4
		V14z"/>
</g>
<path style="fill:#66757F;" d="M25,14c0,1.104-0.896,2-2,2H7c-1.104,0-2-0.896-2-2V4c0-1.104,0.896-2,2-2h16c1.104,0,2,0.896,2,2V14
	z"/>
<rect x="13" y="5" style="fill:#AAB8C2;" width="9" height="3"/>
</svg>
