<?xml version="1.0" encoding="iso-8859-1"?>
<!-- Generator: Adobe Illustrator 23.0.1, SVG Export Plug-In . SVG Version: 6.00 Build 0)  -->
<svg version="1.1" id="_x32_708" xmlns="http://www.w3.org/2000/svg" xmlns:xlink="http://www.w3.org/1999/xlink" x="0px" y="0px"
	 viewBox="0 0 36 36" style="enable-background:new 0 0 36 36;" xml:space="preserve">
<g>
	<path style="fill:#66757F;" d="M30,23.828c-0.391,0.392-1.023,0.392-1.414,0l-1.414-1.414c-0.392-0.391-0.392-1.024,0-1.414
		L30,18.172c0.391-0.391,1.023-0.391,1.414,0l1.414,1.414c0.392,0.391,0.392,1.024,0,1.414L30,23.828z"/>
	<path style="fill:#66757F;" d="M15,8.828c-0.391,0.392-1.023,0.392-1.414,0l-1.414-1.414c-0.392-0.391-0.392-1.023,0-1.414
		L15,3.172c0.391-0.391,1.023-0.391,1.414,0l1.414,1.414c0.392,0.391,0.392,1.023,0,1.414L15,8.828z"/>
	<path style="fill:#55ACEE;" d="M2,22c2,0,11,1,11,1s1,9,1,11s-2,2-3,1s-4-6-4-6s-5-3-6-4S0,22,2,22z"/>
	<path style="fill:#55ACEE;" d="M4,6.039C7,6,29,7,29,7s0.924,22,0.962,25c0.038,3-2.763,4.002-3.862,0.001S21,15,21,15
		S7.045,10.583,3.995,9.898C0,9,0.999,6.077,4,6.039z"/>
	<path style="fill:#CCD6DD;" d="M27,3c2-2,7-3,8-2s0,6-2,8S14,27,14,27s-6.5,4.5-8,3s3-8,3-8S25,5,27,3z"/>
	<path style="fill:#66757F;" d="M14,22c0,0,0.5,0.5-4,5s-5,4-5,4s-0.5-0.5,4-5S14,22,14,22z"/>
	<path style="fill:#66757F;" d="M29,4c1.657,0,3,1.343,3,3h0.805C32.919,6.685,33,6.355,33,6c0-1.657-1.343-3-3-3
		c-0.355,0-0.685,0.081-1,0.195V4z"/>
</g>
</svg>
