<?xml version="1.0" encoding="iso-8859-1"?>
<!-- Generator: Adobe Illustrator 23.0.1, SVG Export Plug-In . SVG Version: 6.00 Build 0)  -->
<svg version="1.1" id="_x31_f4e6" xmlns="http://www.w3.org/2000/svg" xmlns:xlink="http://www.w3.org/1999/xlink" x="0px" y="0px"
	 viewBox="0 0 36 36" style="enable-background:new 0 0 36 36;" xml:space="preserve">
<path style="fill:#662113;" d="M4,11c0,0,0,10.333,0,12.375s1.093,2.484,1.093,2.484s9.752,7.667,11.574,9.099S18,33.375,18,33.375
	V22L4,11z"/>
<path style="fill:#C1694F;" d="M32,11c0,0,0,10.333,0,12.375s-1.063,2.484-1.063,2.484s-9.767,7.667-11.588,9.099
	C17.526,36.39,18,33.375,18,33.375V22L32,11z"/>
<path style="fill:#D99E82;" d="M19.289,0.5c-0.753-0.61-1.988-0.61-2.742,0L4.565,10.029c-0.754,0.61-0.754,1.607,0,2.216
	l12.023,9.646c0.754,0.609,1.989,0.609,2.743,0l12.104-9.73c0.754-0.609,0.754-1.606,0-2.216L19.289,0.5z"/>
<path style="fill:#D99E82;" d="M18,35.75c-0.552,0-1-0.482-1-1.078V21.745c0-0.596,0.448-1.078,1-1.078c0.553,0,1,0.482,1,1.078
	v12.927C19,35.268,18.553,35.75,18,35.75z"/>
<path style="fill:#99AAB5;" d="M28,18.836c0,1.104,0.104,1.646-1,2.442l-2.469,1.878C23.427,23.953,23,23.269,23,22.164v-2.961
	c0-0.193-0.026-0.4-0.278-0.608C20.144,16.47,10.134,8.519,8.31,7.051l4.625-3.678c1.266,0.926,10.753,8.252,14.722,11.377
	C27.854,14.906,28,15.078,28,15.266V18.836z"/>
<path style="fill:#CCD6DD;" d="M27.656,14.75C23.688,11.625,14.201,4.299,12.935,3.373l-1.721,1.368L8.31,7.051
	c1.825,1.468,11.834,9.419,14.412,11.544c0.151,0.125,0.217,0.25,0.248,0.371L27.903,15C27.843,14.913,27.757,14.829,27.656,14.75z"
	/>
<path style="fill:#CCD6DD;" d="M28,18.836v-3.57c0-0.188-0.146-0.359-0.344-0.516C23.688,11.625,14.201,4.299,12.935,3.373
	l-2.073,1.649c3.393,2.669,12.481,9.681,14.86,11.573C25.978,16.799,26,17.01,26,17.203v4.836l1-0.761
	C28.104,20.481,28,19.94,28,18.836z"/>
<path style="fill:#E1E8ED;" d="M27.656,14.75C23.688,11.625,14.201,4.299,12.935,3.373l-2.073,1.649
	c3.393,2.669,12.481,9.681,14.86,11.573c0.037,0.029,0.06,0.059,0.087,0.088L27.903,15C27.843,14.913,27.757,14.829,27.656,14.75z"
	/>
</svg>
