<?xml version="1.0" encoding="iso-8859-1"?>
<!-- Generator: Adobe Illustrator 23.0.1, SVG Export Plug-In . SVG Version: 6.00 Build 0)  -->
<svg version="1.1" id="_x31_f6a6" xmlns="http://www.w3.org/2000/svg" xmlns:xlink="http://www.w3.org/1999/xlink" x="0px" y="0px"
	 viewBox="0 0 36 36" style="enable-background:new 0 0 36 36;" xml:space="preserve">
<path style="fill:#31373D;" d="M27,32c0,2.209-1.791,4-4,4H13c-2.209,0-4-1.791-4-4V4c0-2.209,1.791-4,4-4h10c2.209,0,4,1.791,4,4
	V32z"/>
<path style="fill:#77B255;" d="M17.999,25c2.209,0,4,1.791,4,4s-1.791,4-4,4c-2.209,0-4-1.791-4-4S15.79,25,17.999,25z"/>
<path style="fill:#FFCC4D;" d="M17.999,14c2.209,0,4,1.791,4,4s-1.791,4-4,4c-2.209,0-4-1.791-4-4S15.79,14,17.999,14z"/>
<path style="fill:#DD2E44;" d="M17.999,3c2.209,0,4,1.791,4,4s-1.791,4-4,4c-2.209,0-4-1.791-4-4S15.79,3,17.999,3z"/>
</svg>
