<?xml version="1.0" encoding="iso-8859-1"?>
<!-- Generator: Adobe Illustrator 23.0.1, SVG Export Plug-In . SVG Version: 6.00 Build 0)  -->
<svg version="1.1" id="_x32_6b0" xmlns="http://www.w3.org/2000/svg" xmlns:xlink="http://www.w3.org/1999/xlink" x="0px" y="0px"
	 viewBox="0 0 36 36" style="enable-background:new 0 0 36 36;" xml:space="preserve">
<polygon style="fill:#C1694F;" points="31,12 29.588,22.235 7.353,36 5,28 "/>
<polygon style="fill:#662113;" points="1,22 1,29.647 7.353,36 7.353,28 "/>
<polygon style="fill:#A04E3C;" points="34,5 34,12.706 29.588,22.235 29.588,15 31,9 "/>
<polygon style="fill:#D99E82;" points="34,5 29.588,14.824 7.353,28.588 1,22 17.941,2.118 28.529,0 "/>
<path style="fill:#FFAC33;" d="M12.001,30c-0.323,0-0.64-0.156-0.833-0.445c-0.306-0.46-0.182-1.08,0.277-1.387l3-2
	c0.459-0.307,1.08-0.183,1.387,0.277c0.306,0.46,0.182,1.08-0.277,1.387l-3,2C12.384,29.945,12.191,30,12.001,30z"/>
<path style="fill:#FFAC33;" d="M23.001,23c-0.323,0-0.641-0.156-0.833-0.445c-0.307-0.46-0.183-1.08,0.277-1.387l3-2
	c0.461-0.306,1.08-0.182,1.387,0.277c0.307,0.46,0.183,1.08-0.277,1.387l-3,2C23.384,22.945,23.191,23,23.001,23z"/>
<path style="fill:#C1694F;" d="M9,25c-0.258,0-0.514-0.1-0.708-0.293l-3-3c-0.382-0.382-0.392-0.997-0.022-1.391l15-16
	c0.15-0.16,0.349-0.266,0.565-0.302l6-1c0.315-0.054,0.642,0.05,0.871,0.279l2,2C29.99,5.576,30.077,6,29.929,6.372l-2,5
	c-0.07,0.176-0.189,0.328-0.343,0.439l-18,13C9.41,24.938,9.205,25,9,25z M7.392,20.978l1.713,1.713L26.18,10.359l1.646-4.119
	l-1.169-1.17l-5.159,0.86L7.392,20.978z"/>
</svg>
