<?xml version="1.0" encoding="iso-8859-1"?>
<!-- Generator: Adobe Illustrator 23.0.1, SVG Export Plug-In . SVG Version: 6.00 Build 0)  -->
<svg version="1.1" id="untitled" xmlns="http://www.w3.org/2000/svg" xmlns:xlink="http://www.w3.org/1999/xlink" x="0px" y="0px"
	 viewBox="0 0 38 38" style="enable-background:new 0 0 38 38;" xml:space="preserve">
<path style="display:none;fill:#FFAC33;" d="M19,9C13.477,9,9,13.477,9,19c0,5.523,4.477,10,10,10c5.523,0,10-4.477,10-10
	C29,13.477,24.523,9,19,9z M19,25c-3.314,0-6-2.685-6-6c0-3.313,2.686-6,6-6s6,2.687,6,6C25,22.315,22.313,25,19,25z"/>
<path style="display:none;fill:#FFAC33;" d="M21,7c0,1.104-0.896,2-2,2l0,0c-1.104,0-2-0.896-2-2V5c0-1.104,0.896-2,2-2l0,0
	c1.104,0,2,0.896,2,2V7z"/>
<path style="display:none;fill:#FFAC33;" d="M21,33c0,1.104-0.896,2-2,2l0,0c-1.104,0-2-0.896-2-2v-2c0-1.104,0.896-2,2-2l0,0
	c1.104,0,2,0.896,2,2V33z"/>
<path style="fill:#BCBEC0;" d="M14,5C8.477,5,4,9.478,4,15v10h4V15c0-3.313,2.687-6,6-6c3.313,0,6,2.687,6,6v10h4V15
	C24,9.478,19.523,5,14,5z"/>
<path style="fill:#FFAC33;" d="M26,33c0,2.209-1.791,4-4,4H6c-2.209,0-4-1.791-4-4V23c0-2.209,1.791-4,4-4h16c2.209,0,4,1.791,4,4
	V33z"/>
<path style="fill:#C1694F;" d="M27,1c-4.971,0-9,4.029-9,9c0,4.971,4.029,9,9,9s9-4.029,9-9C36,5.03,31.971,1,27,1z M27,7
	c-1.104,0-2-0.896-2-2s0.896-2,2-2s2,0.896,2,2S28.104,7,27,7z"/>
<path style="fill:#C1694F;" d="M30,23v-7c0-1.104-0.896-2-2-2c-0.748,0-1.393,0.415-1.735,1.024C24.996,15.144,24,16.2,24,17.5v17
	c0,1.381,1.119,2.5,2.5,2.5c1.213,0,2.223-0.864,2.45-2.01C28.968,34.991,28.982,35,29,35c0.553,0,1-0.447,1-1v-1
	c0-0.553-0.447-1-1-1v-1c0.553,0,1-0.447,1-1v-2c0-0.553-0.447-1-1-1v-2.277C29.596,24.376,30,23.738,30,23z"/>
</svg>
