<?xml version="1.0" encoding="iso-8859-1"?>
<!-- Generator: Adobe Illustrator 23.0.1, SVG Export Plug-In . SVG Version: 6.00 Build 0)  -->
<svg version="1.1" id="_x31_f925" xmlns="http://www.w3.org/2000/svg" xmlns:xlink="http://www.w3.org/1999/xlink" x="0px" y="0px"
	 viewBox="0 0 36 36" style="enable-background:new 0 0 36 36;" xml:space="preserve">
<circle style="fill:#FFCC4D;" cx="16" cy="18" r="16"/>
<path style="fill:#664500;" d="M11.471,13.529c0,1.706-0.987,3.088-2.206,3.088c-1.219,0-2.206-1.382-2.206-3.088
	c0-1.705,0.987-3.088,2.206-3.088C10.483,10.441,11.471,11.824,11.471,13.529z"/>
<path style="fill:#664500;" d="M23,13.529c0,1.706-0.987,3.088-2.206,3.088c-1.218,0-2.206-1.382-2.206-3.088
	c0-1.705,0.988-3.088,2.206-3.088C22.013,10.441,23,11.824,23,13.529z"/>
<path style="fill:#664500;" d="M10.118,29.382c1.765-4.412,11.471-4.412,11.471-2.647C21.588,27.618,14.529,25.853,10.118,29.382z"
	/>
<path style="fill:#F4900C;" d="M32.262,17.5c-0.09,0-15.262,0-15.262,0c-1.511,0-2.734,1.344-2.734,3c0,1.657,1.224,3,2.734,3
	c0,0,15.172,0,15.262,0c1.513,0,2.738-1.343,2.738-3C35,18.844,33.774,17.5,32.262,17.5z"/>
</svg>
