<?xml version="1.0" encoding="iso-8859-1"?>
<!-- Generator: Adobe Illustrator 23.0.1, SVG Export Plug-In . SVG Version: 6.00 Build 0)  -->
<svg version="1.1" id="_x31_f960" xmlns="http://www.w3.org/2000/svg" xmlns:xlink="http://www.w3.org/1999/xlink" x="0px" y="0px"
	 viewBox="0 0 36 36" style="enable-background:new 0 0 36 36;" xml:space="preserve">
<path style="fill:#FCAB40;" d="M15,22c0,0-1.15,2.749-2.15,4.749s-1.666,5.227,0.325,6.245C16.208,34.547,21.753,33.568,25,32
	c2.724-1.316,5.179-3.085,7-6c1.746-2.794,3-6,3-8s-0.147-3.591-0.862-5.71c-0.53-1.57-1.392-3.463-2.94-5.077
	c-1.819-1.896-2.635-3.805-3.582-5.158C26.806,0.896,26,0,24,0s-7,3-10,4S7,6,4,10s-3,8-3,10s0.062,4.885,2,6
	c2.305,1.327,5.575-1.634,8.045-2.356C13.392,22.958,15,22,15,22z"/>
<path style="fill:#F4900C;" d="M33.717,21.334c0,0-2.613,3.554-4.048,4.478c-0.774,0.498-1.62,1.01-2.703,1.515
	c-0.694,0.324-3.792,1.55-4.621,1.805c-1.408,0.433-3.285,0.83-4.26,0.866c-0.975,0.036-1.805-0.004-3.223,0.179
	c-0.872,0.112-2.156,0.615-2.192,1.193c-0.036,0.578,1.011,1.625,3.105,1.733c2.094,0.108,5.997-0.177,8.375-1.227
	c3.321-1.467,5.307-3.285,6.282-4.44C31.406,26.28,33.139,23.428,33.717,21.334z"/>
<path style="fill:#BF6952;" d="M33.717,21.334c0,0-1.733,2.166-3.149,3.353c-0.936,0.785-2.937,2.181-4.396,2.893
	c-1.48,0.722-4.315,1.651-6.318,1.949c-1.697,0.253-4.345,0.526-5.235,0.722c-0.859,0.189-1.287,0.458-1.047,0.758
	c0.362,0.452,1.236,0.34,2.563,0.172c3.114-0.394,5.932-0.988,8.337-1.977c2.457-1.011,4.876-2.274,5.851-3.43
	S32.673,23.319,33.717,21.334z"/>
<path style="fill:#F4900C;" d="M22.85,3.969c-0.681,1.36-2.713,4.517-3.85,6.426c-1.353,2.271-3.117,5.018-4.074,7.605
	c-0.295,0.798-0.935,3.768-0.819,4.466C14.667,22.195,15,22,15,22s1.172-2.255,2.182-3.807c1.011-1.552,4.404-7.473,5.668-9.567
	c1.264-2.094,1.763-4.16,1.588-5.218C24.186,1.873,23.352,2.967,22.85,3.969z"/>
<path style="fill:#BF6952;" d="M22.886,5.738c-0.714,1.489-2.711,4.657-3.637,6.426c-0.926,1.769-3.42,6.148-4.413,8.664
	c-0.177,0.449-0.359,0.977-0.43,1.489C14.819,22.11,15,22,15,22s1.172-2.255,2.182-3.807c1.011-1.552,4.404-7.473,5.668-9.567
	c0.974-1.614,1.489-3.206,1.596-4.337C24.159,2.977,23.357,4.756,22.886,5.738z"/>
<path style="fill:#CCD6DD;" d="M29.069,25.815L29.069,25.815c-0.927,0.647-2.011,1.332-2.898,1.764
	c-1,0.488-2.615,1.065-4.177,1.484c0,0.001,0,0.002,0.001,0.003c0,0,2.491,5.527,5.969,6.769l6.068-5.855
	C34.032,29.98,30.175,27.328,29.069,25.815z"/>
<path style="fill:#9AAAB4;" d="M25.454,27.9c-0.149,0.062-0.305,0.125-0.467,0.188c-0.122,0.048-0.247,0.095-0.374,0.142
	c-0.124,0.046-0.249,0.092-0.378,0.138c-0.146,0.052-0.293,0.102-0.444,0.153c-0.048,0.016-0.096,0.032-0.145,0.048
	c-0.54,0.179-1.096,0.346-1.652,0.495c0,0.001,0,0.002,0.001,0.003c0,0,0.151,0.334,0.428,0.853c0.71-0.214,1.397-0.448,2.049-0.716
	c1.993-0.82,3.946-1.805,5.139-2.765c-0.216-0.221-0.401-0.432-0.542-0.624l0,0c-0.001,0.001-0.002,0.001-0.002,0.002
	c-0.212,0.148-0.432,0.297-0.657,0.446c-0.052,0.034-0.103,0.067-0.155,0.101c-0.176,0.115-0.352,0.227-0.53,0.338
	c-0.07,0.044-0.138,0.086-0.208,0.129c-0.167,0.101-0.33,0.197-0.493,0.291c-0.069,0.039-0.138,0.08-0.205,0.118
	c-0.223,0.124-0.441,0.241-0.647,0.341c-0.162,0.079-0.346,0.161-0.538,0.244C25.575,27.849,25.516,27.874,25.454,27.9z"/>
</svg>
