<?xml version="1.0" encoding="iso-8859-1"?>
<!-- Generator: Adobe Illustrator 23.0.1, SVG Export Plug-In . SVG Version: 6.00 Build 0)  -->
<svg version="1.1" id="_x31_f6b2" xmlns="http://www.w3.org/2000/svg" xmlns:xlink="http://www.w3.org/1999/xlink" x="0px" y="0px"
	 viewBox="0 0 36 36" style="enable-background:new 0 0 36 36;" xml:space="preserve">
<path style="fill:#EA596E;" d="M7,24c1.957,0,3.633,1.135,4.455,2.772l3.477-1.739C13.488,22.058,10.446,20,6.916,20
	c-1.301,0-2.534,0.285-3.649,0.787l1.668,3.67C5.566,24.17,6.262,24,7,24z"/>
<path style="fill:#EA596E;" d="M29,24c1.467,0,2.772,0.643,3.688,1.648l2.897-2.635C33.952,21.169,31.573,20,28.916,20
	c-3.576,0-6.652,2.111-8.073,5.15l3.648,1.722C25.293,25.18,27.003,24,29,24z"/>
<path style="fill:#292F33;" d="M7,22c-3.866,0-7,3.134-7,7s3.134,7,7,7s7-3.134,7-7S10.867,22,7,22z M7,34c-2.761,0-5-2.238-5-5
	s2.239-5,5-5s5,2.238,5,5S9.762,34,7,34z"/>
<path style="fill:#292F33;" d="M29,22c-3.865,0-7,3.134-7,7s3.135,7,7,7c3.867,0,7-3.134,7-7S32.867,22,29,22z M29,34
	c-2.761,0-5-2.238-5-5s2.239-5,5-5c2.762,0,5,2.238,5,5S31.762,34,29,34z"/>
<path style="fill:#DD2E44;" d="M29.984,28.922c-0.005-0.067-0.021-0.132-0.04-0.198c-0.019-0.065-0.04-0.126-0.071-0.186
	c-0.013-0.024-0.015-0.052-0.029-0.075l-7-11c-0.297-0.466-0.914-0.604-1.381-0.307c-0.299,0.19-0.444,0.513-0.445,0.843H12
	c-0.552,0-1,0.447-1,1v0c0,0.553,0.448,1,1,1h10c0.027,0,0.05-0.014,0.077-0.016L27.178,28H18c-0.552,0-1,0.447-1,1s0.448,1,1,1h11
	c0.001,0,0.001,0,0.001,0c0.116,0,0.23-0.028,0.343-0.069c0.034-0.013,0.064-0.027,0.097-0.043c0.031-0.017,0.066-0.024,0.097-0.044
	c0.03-0.02,0.048-0.051,0.075-0.072c0.055-0.044,0.103-0.089,0.147-0.143c0.041-0.049,0.074-0.099,0.104-0.154
	c0.03-0.056,0.055-0.11,0.075-0.172c0.021-0.066,0.033-0.132,0.04-0.201C29.983,29.066,30,29.036,30,29
	C30,28.973,29.986,28.949,29.984,28.922z"/>
<path style="fill:#DD2E44;" d="M21.581,16l-2.899,8.117l-5.929-6.775c-0.364-0.415-0.996-0.459-1.411-0.094
	c-0.415,0.364-0.457,0.995-0.094,1.411l6.664,7.615l-0.854,2.39c-0.185,0.519,0.086,1.092,0.606,1.277
	C17.775,29.981,17.888,30,18,30c0.411,0,0.796-0.255,0.942-0.664L23.705,16H21.581z"/>
<path style="fill:#DD2E44;" d="M7,30c-0.15,0-0.303-0.034-0.446-0.105c-0.494-0.247-0.694-0.848-0.447-1.342l3.062-6.106
	C9.186,22.419,11,19.651,11,17c0-3.242-2.293-4.043-2.316-4.051c-0.524-0.175-0.807-0.741-0.632-1.265
	c0.174-0.524,0.739-0.81,1.265-0.632C9.467,11.102,13,12.333,13,17c0,3.068-1.836,6.042-2.131,6.497l-2.974,5.949
	C7.72,29.798,7.367,30,7,30z"/>
<path style="fill:#292F33;" d="M14.612,13.663c-0.054,0-0.11-0.004-0.165-0.014l-6-1c-0.544-0.091-0.913-0.606-0.822-1.151
	c0.091-0.544,0.601-0.913,1.151-0.822l6,1c0.544,0.091,0.913,0.606,0.822,1.151C15.516,13.316,15.092,13.663,14.612,13.663z"/>
<path style="fill:#292F33;" d="M26.383,17c-0.03,0-0.059-0.002-0.089-0.006l-5.672-0.708c-0.372-0.046-0.644-0.374-0.62-0.748
	c0.023-0.374,0.333-0.665,0.707-0.665c0.041,0,4.067-0.018,5.989-1.299c0.25-0.167,0.582-0.157,0.824,0.026
	c0.239,0.185,0.337,0.501,0.241,0.788l-0.709,2.127C26.958,16.808,26.685,17,26.383,17z"/>
<path style="fill:#66757F;" d="M20,29c0,1.104-0.895,2-2,2c-1.104,0-2-0.896-2-2s0.896-2,2-2C19.105,27,20,27.896,20,29z"/>
</svg>
