<?xml version="1.0" encoding="iso-8859-1"?>
<!-- Generator: Adobe Illustrator 23.0.1, SVG Export Plug-In . SVG Version: 6.00 Build 0)  -->
<svg version="1.1" id="_x31_f4bb" xmlns="http://www.w3.org/2000/svg" xmlns:xlink="http://www.w3.org/1999/xlink" x="0px" y="0px"
	 viewBox="0 0 36 36" style="enable-background:new 0 0 36 36;" xml:space="preserve">
<g>
	<g>
		<defs>
			<rect id="SVGID_1_" x="11.934" y="0.953" width="23.496" height="23.496"/>
		</defs>
		<g style="clip-path:url(#SVGID_2_);">
			<defs>
				<rect id="SVGID_3_" x="11.934" y="0.953" width="23.496" height="23.496"/>
			</defs>
			<path style="clip-path:url(#SVGID_4_);fill:#67757F;" d="M31.514,8.785H15.85V4.216c0-0.721,0.539-1.305,1.205-1.305h13.254
				c0.665,0,1.205,0.585,1.205,1.305V8.785z"/>
			<path style="clip-path:url(#SVGID_4_);fill:#67757F;" d="M31.514,21.185c0,0.721-0.585,1.305-1.305,1.305H17.155
				c-0.721,0-1.305-0.585-1.305-1.305v-1.958h15.664V21.185z"/>
			<path style="clip-path:url(#SVGID_4_);fill:#E1E8ED;" d="M29.556,8.785H17.808V2.258c0-0.721,0.585-1.305,1.305-1.305h9.137
				c0.721,0,1.305,0.585,1.305,1.305V8.785z"/>
			<path style="clip-path:url(#SVGID_4_);fill:#5DADEC;" d="M34.125,17.269c0,0.653-0.653,1.958-1.958,1.958H15.197
				c-1.305,0-1.958-1.305-1.958-1.958v-5.874c0-1.442,1.169-2.611,2.611-2.611h15.664c1.442,0,2.611,1.169,2.611,2.611V17.269z"/>
			<path style="clip-path:url(#SVGID_4_);fill:#292F33;" d="M31.514,17.269c0-0.721-0.638-1.305-1.424-1.305H17.274
				c-0.786,0-1.424,0.585-1.424,1.305v2.611h15.664V17.269z"/>
			<path style="clip-path:url(#SVGID_4_);fill:#4289C1;" d="M31.514,10.743c0,0.721-0.585,1.305-1.305,1.305H17.155
				c-0.721,0-1.305-0.585-1.305-1.305V8.132h15.664V10.743z"/>
			<path style="clip-path:url(#SVGID_4_);fill:#E1E8ED;" d="M29.556,23.143c0,0.721-0.585,1.305-1.305,1.305h-9.137
				c-0.721,0-1.305-0.585-1.305-1.305v-5.221h11.748V23.143z"/>
			<path style="clip-path:url(#SVGID_4_);fill:#9AAAB4;" d="M28.251,19.88c0,0.361-0.292,0.653-0.653,0.653h-7.832
				c-0.36,0-0.653-0.292-0.653-0.653s0.292-0.653,0.653-0.653h7.832C27.959,19.227,28.251,19.519,28.251,19.88"/>
			<path style="clip-path:url(#SVGID_4_);fill:#F5F8FA;" d="M32.819,13.68c0,0.54-0.439,0.979-0.979,0.979
				c-0.54,0-0.979-0.439-0.979-0.979c0-0.54,0.439-0.979,0.979-0.979C32.381,12.701,32.819,13.139,32.819,13.68"/>
			<path style="clip-path:url(#SVGID_4_);fill:#9AAAB4;" d="M28.251,21.838c0,0.361-0.292,0.653-0.653,0.653h-7.832
				c-0.36,0-0.653-0.292-0.653-0.653s0.292-0.653,0.653-0.653h7.832C27.959,21.185,28.251,21.477,28.251,21.838"/>
			<rect x="17.808" y="17.269" style="clip-path:url(#SVGID_4_);fill:#9AAAB4;" width="11.748" height="1.305"/>
		</g>
	</g>
</g>
<g>
	<path style="fill:#CCD6DD;" d="M25.03,30.748c-0.306-0.707-0.658-1.475-1.469-1.475h-0.734c0.811,0,1.469-0.66,1.469-1.475V15.263
		c0-0.815-0.658-1.475-1.469-1.475H3.735c-0.811,0-1.469,0.66-1.469,1.475v12.535c0,0.814,0.658,1.475,1.469,1.475H3.001
		c-0.811,0-1.224,0.737-1.469,1.475l-1.469,3.595c0,0.814,0.658,1.475,1.469,1.475H25.03c0.811,0,1.469-0.66,1.469-1.475
		L25.03,30.748z"/>
	<path style="fill:#9AAAB4;" d="M0.07,34.404c0.001,0.014,0.003,0.028,0.004,0.042l0.125,0.508c0.232,0.508,0.74,0.864,1.333,0.864
		H25.03c0.79,0,1.43-0.628,1.462-1.414H0.07z"/>
	<path style="fill:#5DADEC;" d="M21.823,27.799H4.735c-0.552,0-1-0.448-1-1V16.263c0-0.552,0.448-1,1-1h17.092c0.552,0,1,0.448,1,1
		v10.531C22.827,27.349,22.377,27.799,21.823,27.799z"/>
	<path style="fill:#AEBBC1;" d="M24.227,32.177l-0.558-1.597c-0.176-0.338-0.466-0.615-0.872-0.615H3.816
		c-0.406,0-0.665,0.3-0.849,0.76l-0.505,1.452c-0.161,0.438,0.329,0.737,0.734,0.737h5.564c0,0,0.688-0.035,0.81-0.446
		c0.141-0.476,0.304-1.192,0.34-1.318c0.054-0.194,0.285-0.39,0.628-0.39c0.344,0,5.932,0,6.299,0s0.548,0.186,0.595,0.416
		c0.031,0.15,0.229,0.838,0.321,1.308c0.082,0.419,0.896,0.431,0.896,0.431h4.842C23.898,32.914,24.387,32.569,24.227,32.177z"/>
	<path style="fill:#9AAAB4;" d="M16.494,33.698c-0.264,0-5.542,0-5.714,0c-0.275,0-0.395-0.252-0.356-0.495
		c0.039-0.243,0.264-1.316,0.281-1.442c0.017-0.125,0.201-0.275,0.385-0.275s4.933,0,5.151,0c0.218,0,0.36,0.12,0.404,0.359
		c0.044,0.24,0.222,1.205,0.236,1.425C16.895,33.491,16.758,33.698,16.494,33.698z"/>
</g>
<g>
	<g>
		<defs>
			<rect id="SVGID_5_" x="2.431" y="1.807" width="10.428" height="10.428"/>
		</defs>
		<g style="clip-path:url(#SVGID_6_);">
			<defs>
				<rect id="SVGID_7_" x="2.431" y="1.807" width="10.428" height="10.428"/>
			</defs>
			<path style="clip-path:url(#SVGID_8_);fill:#31373D;" d="M5.617,12.235c0,0-1.159,0-1.159-1.159v-8.11c0,0,0-1.159,1.159-1.159
				h4.055c0,0,1.159,0,1.159,1.159v8.11c0,0,0,1.159-1.159,1.159H5.617z"/>
			<rect x="5.038" y="3.256" style="clip-path:url(#SVGID_8_);fill:#55ACEE;" width="5.214" height="7.531"/>
		</g>
	</g>
</g>
</svg>
