<?xml version="1.0" encoding="iso-8859-1"?>
<!-- Generator: Adobe Illustrator 23.0.1, SVG Export Plug-In . SVG Version: 6.00 Build 0)  -->
<svg version="1.1" id="_x31_f3e1" xmlns="http://www.w3.org/2000/svg" xmlns:xlink="http://www.w3.org/1999/xlink" x="0px" y="0px"
	 viewBox="0 0 36 36" style="enable-background:new 0 0 36 36;" xml:space="preserve">
<path style="fill:#5C913B;" d="M36,33.5c0,0.828-0.672,1.5-1.5,1.5h-33C0.672,35,0,34.328,0,33.5l0,0C0,32.672,0.672,32,1.5,32h33
	C35.328,32,36,32.672,36,33.5L36,33.5z"/>
<path style="fill:#A0041E;" d="M12.344,14.702h-2c-0.276,0-0.5-0.224-0.5-0.5v-7c0-0.276,0.224-0.5,0.5-0.5h2
	c0.276,0,0.5,0.224,0.5,0.5v7C12.844,14.478,12.62,14.702,12.344,14.702z"/>
<path style="fill:#FFCC4D;" d="M5.942,32C5.805,27.343,5.436,24,5,24c-0.435,0-0.804,3.343-0.941,8H5.942z"/>
<path style="fill:#77B255;" d="M10,18.731C10,24.306,7.762,26,5,26c-2.761,0-5-1.694-5-7.269C0,13.154,4,5,5,5S10,13.154,10,18.731z
	"/>
<polygon style="fill:#FFE8B6;" points="8,16 21,3 34,16 34,32 8,32 "/>
<rect x="21" y="16" style="fill:#FFCC4D;" width="1" height="16"/>
<path style="fill:#66757F;" d="M34,17c-0.256,0-0.512-0.098-0.707-0.293L21,4.414L8.707,16.707c-0.391,0.391-1.023,0.391-1.414,0
	c-0.391-0.391-0.391-1.023,0-1.414l13-13c0.391-0.391,1.023-0.391,1.414,0l13,13c0.391,0.391,0.391,1.023,0,1.414
	C34.512,16.902,34.256,17,34,17z"/>
<path style="fill:#66757F;" d="M21,17c-0.256,0-0.512-0.098-0.707-0.293c-0.391-0.391-0.391-1.023,0-1.414l6.5-6.5
	c0.391-0.391,1.023-0.391,1.414,0c0.391,0.391,0.391,1.023,0,1.414l-6.5,6.5C21.512,16.902,21.256,17,21,17z"/>
<rect x="13" y="26" style="fill:#C1694F;" width="4" height="6"/>
<rect x="13" y="17" style="fill:#55ACEE;" width="4" height="4"/>
<rect x="25.5" y="17" style="fill:#55ACEE;" width="4" height="4"/>
<rect x="25.5" y="26" style="fill:#55ACEE;" width="4" height="4"/>
<path style="fill:#77B255;" d="M10.625,29.991c0,1.613-0.858,2.103-1.917,2.103c-1.058,0-1.917-0.49-1.917-2.103
	c0-1.613,1.533-3.973,1.917-3.973S10.625,28.377,10.625,29.991z"/>
<path style="fill:#77B255;" d="M35.875,29.991c0,1.613-0.858,2.103-1.917,2.103c-1.058,0-1.917-0.49-1.917-2.103
	c0-1.613,1.533-3.973,1.917-3.973C34.342,26.018,35.875,28.377,35.875,29.991z"/>
</svg>
