<?xml version="1.0" encoding="iso-8859-1"?>
<!-- Generator: Adobe Illustrator 23.0.1, SVG Export Plug-In . SVG Version: 6.00 Build 0)  -->
<svg version="1.1" id="_x31_f9f8" xmlns="http://www.w3.org/2000/svg" xmlns:xlink="http://www.w3.org/1999/xlink" x="0px" y="0px"
	 viewBox="0 0 36 36" style="enable-background:new 0 0 36 36;" xml:space="preserve">
<g>
	<path style="fill:#3B88C3;" d="M20.993,1.997c-1.663,0-6.099,1.135-6.099,2.27s0.554,3.973,1.109,5.108
		c0.554,1.135,4.436,0,4.99-0.568S22.102,1.997,20.993,1.997z"/>
	<path style="fill:#55ACEE;" d="M15.449,3.539c-0.36,0.211-0.554,0.482-0.554,0.728c0,1.135,0.554,3.973,1.109,5.108
		c0.156,0.319,0.576,0.441,1.109,0.482C16.558,8.24,16.003,5.97,15.449,3.539z"/>
	<path style="fill:#3B88C3;" d="M28.756,1.997c1.663,0,6.099,1.135,6.099,2.27s-0.554,3.973-1.109,5.108
		c-0.554,1.135-4.436,0-4.99-0.568S27.647,1.997,28.756,1.997z"/>
	<path style="fill:#55ACEE;" d="M34.301,3.539c0.36,0.211,0.554,0.482,0.554,0.728c0,1.135-0.554,3.973-1.109,5.108
		c-0.156,0.319-0.576,0.441-1.109,0.482C33.192,8.24,33.746,5.97,34.301,3.539z"/>
	<path style="fill:#3B88C3;" d="M28.756,1.997h-0.592C27.932,2.959,26.55,3.7,24.875,3.7s-3.058-0.74-3.289-1.703h-0.592
		c-1.225,0-2.772,1.017-2.772,2.27c0,0,0,11.351-0.554,13.622c-0.554,2.27,0.993,2.27,2.218,2.27h9.98c1.225,0,2.772,0,2.218-2.27
		S31.528,4.267,31.528,4.267C31.528,3.013,29.981,1.997,28.756,1.997z"/>
	<path style="fill:#55ACEE;" d="M24.875,4.835c2.144,0,3.881-1.271,3.881-2.838h-0.592C27.932,2.959,26.55,3.7,24.875,3.7
		s-3.058-0.74-3.289-1.703h-0.592C20.993,3.564,22.731,4.835,24.875,4.835z"/>
</g>
<g>
	<path style="fill:#C1694F;" d="M14.627,24.854h-0.166c0.105-0.523,0.166-1.071,0.166-1.64c0-3.442-2.056-6.232-4.592-6.232
		s-4.592,2.79-4.592,6.232c0,0.569,0.061,1.117,0.166,1.64H5.443c-1.312,1.968-0.985,5.285,0.08,5.904
		c4.512,2.624,1.888-1.312,4.512-1.312s0,3.936,4.512,1.312C15.612,30.139,15.939,26.822,14.627,24.854z"/>
	<path style="fill:#C1694F;" d="M13.752,23.843c-0.116-1.013,0.208-2.337,0.167-3.444c-0.91,0.711-2.608,1.175-3.885,1.175
		s-2.959-0.465-3.869-1.175c-0.041,1.107,0.267,2.431,0.151,3.444c-0.301,2.624,1.544,4.713,3.717,4.713
		S14.053,26.467,13.752,23.843z"/>
	<path style="fill:#C1694F;" d="M6.344,19.606c0,0-3.28,0.656-3.936,4.592s2.243,4.317,3.28,3.28c1.312-1.312,0-2.624,0-2.624
		S6.344,21.574,6.344,19.606z"/>
	<path style="fill:#C1694F;" d="M13.726,19.606c0,0,3.28,0.656,3.936,4.592c0.656,3.936-2.243,4.317-3.28,3.28
		c-1.312-1.312,0-2.624,0-2.624S13.726,21.574,13.726,19.606z"/>
	<path style="fill:#A0041E;" d="M6.755,18.95c-1.312,0-0.656,0.656-0.656,1.312c0,0.656,0.656,1.968,1.968,1.312
		c0,0-0.656,1.312-0.656,3.28c0,0,1.312,0,1.968,1.312c0,0,0.656-4.592,0.656-5.904C10.035,18.95,7.411,18.95,6.755,18.95z"/>
	<path style="fill:#A0041E;" d="M13.315,18.95c1.312,0,0.656,0.656,0.656,1.312c0,0.656-0.656,1.968-1.968,1.312
		c0,0,0.656,1.312,0.656,3.28c0,0-1.312,0-1.968,1.312c0,0-0.656-4.592-0.656-5.904C10.035,18.95,12.659,18.95,13.315,18.95z"/>
	<g>
		<circle style="fill:#C1694F;" cx="5.443" cy="13.046" r="2.624"/>
		<circle style="fill:#662113;" cx="5.443" cy="13.046" r="1.312"/>
		<circle style="fill:#C1694F;" cx="14.627" cy="13.046" r="2.624"/>
		<circle style="fill:#662113;" cx="14.627" cy="13.046" r="1.312"/>
		<ellipse style="fill:#C1694F;" cx="10.035" cy="15.998" rx="5.248" ry="4.92"/>
		<circle style="fill:#292F33;" cx="8.067" cy="15.67" r="0.656"/>
		<circle style="fill:#292F33;" cx="12.003" cy="15.67" r="0.656"/>
		<path style="fill:#D99E82;" d="M10.073,16.695c-4.466,0-3.025,3.648-0.097,3.648C12.905,20.344,14.539,16.695,10.073,16.695z"/>
		<path style="fill:#292F33;" d="M9.224,17.71l0.311,0.539c0.222,0.385,0.779,0.385,1.001,0l0.311-0.539
			c0.222-0.385-0.056-0.867-0.501-0.867H9.724C9.279,16.843,9.001,17.325,9.224,17.71z"/>
	</g>
	<path style="fill:#934035;" d="M5.617,28.135c-0.109,0-0.215-0.054-0.277-0.152C5.242,27.83,5.287,27.628,5.44,27.53
		c0.026-0.017,0.674-0.452,0.654-1.327c-0.015-0.65-0.612-1.076-0.618-1.08c-0.079-0.056-0.131-0.145-0.14-0.242
		c-0.134-1.548,0.427-3.089,0.45-3.154c0.063-0.169,0.25-0.256,0.421-0.194c0.17,0.063,0.257,0.251,0.194,0.421
		c-0.005,0.014-0.499,1.377-0.422,2.732c0.246,0.211,0.752,0.737,0.77,1.502c0.029,1.253-0.917,1.87-0.957,1.896
		C5.738,28.119,5.677,28.135,5.617,28.135z"/>
	<path style="fill:#934035;" d="M14.454,28.135c-0.06,0-0.122-0.017-0.176-0.051c-0.04-0.026-0.987-0.643-0.958-1.896
		c0.018-0.764,0.524-1.29,0.77-1.502c0.078-1.359-0.417-2.718-0.422-2.732c-0.063-0.17,0.024-0.359,0.194-0.422
		c0.168-0.062,0.358,0.024,0.421,0.194c0.024,0.065,0.586,1.606,0.451,3.154c-0.008,0.098-0.06,0.186-0.141,0.242
		c-0.005,0.003-0.602,0.429-0.617,1.079c-0.021,0.887,0.647,1.322,0.654,1.327c0.152,0.097,0.198,0.3,0.101,0.453
		C14.668,28.081,14.562,28.135,14.454,28.135z M14.407,24.854h0.006H14.407z"/>
	<g>
		
			<ellipse transform="matrix(0.7071 -0.7071 0.7071 0.7071 -19.8997 12.8181)" style="fill:#C1694F;" cx="5.523" cy="30.43" rx="2.952" ry="3.28"/>
		<path style="fill:#D99E82;" d="M6.984,32.219c-0.692,0.692-1.907,0.598-2.714-0.209c-0.807-0.807-0.9-2.022-0.209-2.714
			c0.692-0.692,1.907-0.598,2.714,0.209C7.582,30.313,7.676,31.527,6.984,32.219z"/>
		<path style="fill:#D99E82;" d="M6.682,31.918c-0.512,0.512-1.447,0.408-2.087-0.232c-0.64-0.64-0.744-1.575-0.232-2.087
			c0.512-0.512,1.447-0.408,2.087,0.232S7.195,31.405,6.682,31.918z"/>
		
			<ellipse transform="matrix(0.7071 -0.7071 0.7071 0.7071 -17.2565 19.1991)" style="fill:#C1694F;" cx="14.547" cy="30.43" rx="3.28" ry="2.952"/>
		<path style="fill:#D99E82;" d="M13.086,32.219c0.692,0.692,1.907,0.598,2.714-0.209c0.807-0.807,0.9-2.022,0.209-2.714
			c-0.692-0.692-1.907-0.598-2.714,0.209C12.488,30.313,12.394,31.527,13.086,32.219z"/>
		
			<ellipse transform="matrix(0.7071 -0.7071 0.7071 0.7071 -17.4884 19.2952)" style="fill:#D99E82;" cx="14.547" cy="30.758" rx="1.64" ry="1.312"/>
	</g>
	<path style="fill:#292F33;" d="M10.092,19.697c-0.84,0-1.475-0.621-1.485-0.631c-0.064-0.064-0.064-0.168,0-0.232
		c0.064-0.064,0.168-0.064,0.232-0.001c0.049,0.049,1.213,1.179,2.392,0c0.064-0.064,0.168-0.064,0.232,0
		c0.064,0.064,0.064,0.168,0,0.232C10.99,19.539,10.515,19.697,10.092,19.697z"/>
	<path style="fill:#934035;" d="M8.69,29.923c-0.121,0-0.238-0.067-0.295-0.184c-1.492-3.04-4.457-2.067-4.583-2.024
		c-0.172,0.06-0.357-0.032-0.416-0.204c-0.059-0.171,0.031-0.357,0.202-0.416c0.036-0.013,3.636-1.21,5.386,2.356
		c0.08,0.162,0.013,0.359-0.15,0.439C8.788,29.912,8.738,29.923,8.69,29.923z"/>
	<path style="fill:#934035;" d="M11.38,29.923c-0.043,0-0.086-0.008-0.128-0.026c-0.167-0.071-0.245-0.263-0.174-0.43
		c1.479-3.477,5.34-2.388,5.378-2.377c0.174,0.051,0.273,0.233,0.222,0.406c-0.051,0.175-0.238,0.272-0.406,0.224
		c-0.136-0.04-3.343-0.931-4.591,2.003C11.629,29.848,11.508,29.923,11.38,29.923z"/>
</g>
</svg>
