<?xml version="1.0" standalone="no"?>
<!DOCTYPE svg PUBLIC "-//W3C//DTD SVG 20010904//EN"
 "http://www.w3.org/TR/2001/REC-SVG-20010904/DTD/svg10.dtd">
<svg version="1.0" xmlns="http://www.w3.org/2000/svg"
 width="700.000000pt" height="700.000000pt" viewBox="0 0 700.000000 700.000000"
 preserveAspectRatio="xMidYMid meet">
<metadata>
Created by potrace 1.11, written by Peter Selinger 2001-2013
</metadata>
<g transform="translate(0.000000,700.000000) scale(0.100000,-0.100000)"
fill="#000000" stroke="none">
<path d="M3195 5749 c-490 -41 -988 -205 -1350 -443 -152 -100 -245 -178 -364
-302 -208 -217 -341 -470 -386 -731 -14 -79 -15 -194 -13 -845 l3 -753 27 -97
c103 -378 339 -682 730 -941 329 -219 747 -367 1228 -433 158 -22 632 -26 790
-6 380 48 678 131 977 272 506 240 866 607 1001 1020 56 171 55 150 59 924 4
620 2 734 -12 828 -128 871 -1176 1527 -2424 1517 -91 -1 -211 -6 -266 -10z
m630 -170 c617 -60 1196 -312 1541 -670 154 -160 273 -360 330 -554 36 -121
45 -336 20 -468 -113 -598 -734 -1095 -1586 -1267 -242 -50 -407 -63 -715 -57
-308 6 -454 24 -710 88 -278 70 -571 195 -778 333 -422 281 -655 635 -684
1035 -16 238 75 518 241 738 446 592 1373 918 2341 822z m-2510 -2211 c73
-100 301 -332 410 -418 333 -263 760 -457 1155 -524 196 -33 296 -38 677 -33
329 3 394 7 498 25 660 118 1202 438 1607 950 33 43 62 79 65 82 2 2 3 -166 1
-375 -4 -374 -4 -382 -30 -477 -176 -646 -936 -1143 -1897 -1238 -149 -14
-504 -12 -661 5 -627 66 -1185 312 -1533 674 -211 220 -331 466 -357 731 -11
113 -13 680 -2 680 4 -1 34 -38 67 -82z"/>
<path d="M2839 4811 c-28 -28 -29 -33 -29 -125 l0 -96 -150 0 c-147 0 -152 -1
-175 -25 -33 -32 -34 -83 -2 -113 22 -21 33 -22 175 -22 l152 0 0 -300 0 -300
-144 0 c-138 0 -146 -1 -172 -24 -39 -33 -39 -89 0 -122 26 -23 34 -24 172
-24 l144 0 0 -109 c0 -93 3 -112 20 -134 26 -33 63 -41 101 -22 41 22 49 49
49 166 l0 99 510 0 510 0 0 -108 c0 -82 4 -113 16 -130 23 -33 57 -43 95 -30
45 15 59 57 59 173 l0 95 135 0 c172 0 205 14 205 85 0 71 -33 85 -205 85
l-135 0 0 294 0 294 151 4 c151 3 151 3 175 31 13 16 24 37 24 48 0 28 -26 75
-45 83 -9 3 -82 6 -161 6 l-144 0 0 88 c0 49 -6 98 -13 112 -28 55 -94 64
-137 18 -17 -19 -20 -35 -20 -120 l0 -98 -509 0 -509 0 -4 101 c-3 96 -4 102
-31 125 -38 32 -72 31 -108 -5z m1161 -686 l0 -295 -510 0 -510 0 0 295 0 295
510 0 510 0 0 -295z"/>
</g>
</svg>
