<?xml version="1.0" encoding="UTF-8" standalone="no"?>
<svg xmlns:inkscape="http://www.inkscape.org/namespaces/inkscape" xmlns:sodipodi="http://sodipodi.sourceforge.net/DTD/sodipodi-0.dtd" xmlns="http://www.w3.org/2000/svg" xmlns:svg="http://www.w3.org/2000/svg" width="97.006561mm" height="97.006561mm" viewBox="0 0 97.006561mm 97.640823mm" version="1.2" id="svg1" xml:space="preserve" baseProfile="tiny-ps">
  <defs id="defs1">
    <style id="style1">.cls-1{fill:#f4d728;}.cls-2{fill:#3f3f3f;}</style>
  </defs>
  <g id="layer1" transform="translate(-505.12635,-78.597032)">
    <rect style="fill:#3d426e;fill-opacity:1;stroke:#3d426e;stroke-width:0.3;stroke-linecap:round;stroke-linejoin:round;stroke-dasharray:none;stroke-opacity:1" id="rect2111" width="97.006569" height="97.640823" x="505.12634" y="78.597031"/>
    <g id="g4-8-0-5" transform="matrix(0.78679819,0,0,0.78679819,336.94952,66.013296)">
      <g id="g2-7-1-5-2-8" transform="matrix(0.59469252,0,0,0.59469252,229.95729,40.477258)" style="fill:#3d426e;fill-opacity:1">
        <path id="path4-9-3-8-8-4-1" style="fill:#3d426e;fill-opacity:1" class="cls-2" d="M 76.41,2.05 C 35.46,2.05 2.15,25.33 2.15,54 v 37.28 c 0,28.62 33.31,51.91 74.26,51.91 40.95,0 74.25,-23.29 74.25,-51.91 V 54 C 150.66,25.33 117.35,2.05 76.41,2.05 Z m 0,5.1 c 38.13,0 69.15,21 69.15,46.8 0,25.8 -31,46.8 -69.15,46.8 C 38.26,100.75 7.26,79.75 7.26,54 7.26,28.25 38.28,7.15 76.41,7.15 Z m 69.15,84.13 c 0,25.81 -31,46.8 -69.15,46.8 -38.15,0 -69.15,-21 -69.15,-46.8 V 72.82 c 10.82,19.31 37.72,33 69.15,33 31.43,0 58.32,-13.72 69.15,-33 z m -69.15,9.47 c 38.13,0 69.15,-21 69.15,-46.8 0,-25.8 -31,-46.8 -69.15,-46.8 C 38.26,7.15 7.26,28.14 7.26,54 c 0,25.86 31.02,46.75 69.15,46.75 z m 0,5.1 c -31.43,0 -58.33,-13.72 -69.15,-33 v 18.43 c 0,25.81 31,46.8 69.15,46.8 38.15,0 69.15,-21 69.15,-46.8 V 72.82 c -10.83,19.31 -37.73,33.03 -69.15,33.03 z"/>
      </g>
      <g id="g3-78-3-8-4" transform="matrix(0.59469252,0,0,0.59469252,229.95729,34.943679)">
        <path class="cls-1" d="m 76.41,105.85 c -31.43,0 -58.33,-13.72 -69.15,-33 v 18.43 c 0,25.81 31,46.8 69.15,46.8 38.15,0 69.15,-21 69.15,-46.8 V 72.82 c -10.83,19.31 -37.73,33.03 -69.15,33.03 z" id="path1-4-77-0-3-7" style="fill:#f4d728"/>
        <path class="cls-1" d="m 76.41,100.75 c 38.13,0 69.15,-21 69.15,-46.8 0,-25.8 -31,-46.8 -69.15,-46.8 C 38.26,7.15 7.26,28.14 7.26,54 c 0,25.86 31.02,46.75 69.15,46.75 z" id="path2-3-4-6-9-1" style="fill:#f4d728"/>
        <rect class="cls-1" x="60.650002" y="43.189999" width="31.5" height="18.389999" id="rect2-0-4-2-0-3" style="fill:#f4d728"/>
        <path class="cls-2" d="M 76.41,2.05 C 35.46,2.05 2.15,25.33 2.15,54 v 37.28 c 0,28.62 33.31,51.91 74.26,51.91 40.95,0 74.25,-23.29 74.25,-51.91 V 54 C 150.66,25.33 117.35,2.05 76.41,2.05 Z m 0,5.1 c 38.13,0 69.15,21 69.15,46.8 0,25.8 -31,46.8 -69.15,46.8 C 38.26,100.75 7.26,79.75 7.26,54 7.26,28.25 38.28,7.15 76.41,7.15 Z m 69.15,84.13 c 0,25.81 -31,46.8 -69.15,46.8 -38.15,0 -69.15,-21 -69.15,-46.8 V 72.82 c 10.82,19.31 37.72,33 69.15,33 31.43,0 58.32,-13.72 69.15,-33 z" id="path3-4-9-2-5-8" style="fill:#3d426e;fill-opacity:1"/>
      </g>
      <path style="fill:#f4d728;fill-opacity:1;stroke-width:0.2;stroke-linecap:round;stroke-linejoin:round" id="path4-6-5-2-4" d="m 252.04787,114.34343 14.72345,-4.26629 14.72345,-4.26629 -3.66701,14.88403 -3.667,14.88403 -11.05645,-10.61774 z" transform="matrix(0.15828858,0.16931994,-0.16931994,0.15828858,256.82882,-7.6507323)"/>
      <path style="color:#000000;fill:#f4d728;stroke-linecap:round;stroke-linejoin:round;-inkscape-stroke:none" d="m 264.57021,54.677325 v 7.940104" id="path8-2-2-8"/>
      <g id="g2-2-7-0" transform="translate(1.2804873,0.807782)">
        <path id="path9-7-3-4" style="color:#000000;fill:#3d426e;stroke-width:1.72642;stroke-linecap:round;stroke-linejoin:round;-inkscape-stroke:none" d="m 260.89838,52.633809 c -2.95552,-6.8e-5 -5.35159,2.395607 -5.35202,5.351125 v 1.303433 c 0,-0.01104 6.21598,5.647944 6.21598,5.647944 l -6.21598,5.43347 v 1.322169 c 4.3e-4,2.955517 2.3965,5.351192 5.35202,5.351124 2.95517,-4.29e-4 5.35069,-2.395958 5.35112,-5.351124 V 57.984934 c -4.3e-4,-2.955166 -2.39595,-5.350696 -5.35112,-5.351125 z"/>
        <path id="path9-3-1-7-6" style="color:#000000;fill:#3d426e;stroke-width:1.72642;stroke-linecap:round;stroke-linejoin:round;-inkscape-stroke:none" d="m 285.72175,52.492828 c -2.95552,-6.8e-5 -5.35159,2.395607 -5.35202,5.351125 v 1.303433 c 0,-0.01104 6.21598,5.647944 6.21598,5.647944 l -6.21598,5.43347 v 1.322169 c 4.3e-4,2.955517 2.3965,5.351192 5.35202,5.351124 2.95517,-4.29e-4 5.35069,-2.395958 5.35112,-5.351124 V 57.843953 c -4.3e-4,-2.955166 -2.39595,-5.350696 -5.35112,-5.351125 z"/>
      </g>
    </g>
  </g>
<title>helpbuttons</title></svg>
