<svg id="Capa_1" data-name="Capa 1" xmlns="http://www.w3.org/2000/svg" width="16" height="16" viewBox="0 0 16 16"><defs><style>.cls-1{fill:#f4d728;}.cls-2{fill:#3f3f3f;}.cls-3{fill:none;}</style></defs><title>favicon</title><path class="cls-1" d="M5.6331,7.4279c0,.004,0,.0079,0,.0119L5.6342,7.42Z"/><path class="cls-1" d="M6.4253,8.0749l.0021.021a.167.167,0,0,1-.0021-.0213Z"/><path class="cls-1" d="M9.3315,8.264l.0214-.0022-.0216.0022Z"/><path class="cls-1" d="M6.6146,8.264l.021-.0021-.0211.0021Z"/><path class="cls-1" d="M7.9733,10.157c2.7426,0,4.9873-1.4626,5.1249-3.2946C12.9605,8.6944,10.7145,10.157,7.9733,10.157Z"/><path class="cls-1" d="M9.3315,4.94h0l.0224.0022Z"/><rect class="cls-1" x="9.1413" y="5.8854" width="0.0007" height="1.3647"/><path class="cls-1" d="M5.8108,5.8847a.1893.1893,0,0,1-.1891-.1889v0a.1891.1891,0,0,0,.1891.1893h.6145V5.8847Z"/><path class="cls-1" d="M10.135,5.5062H9.5205V5.507h.6145a.1892.1892,0,0,1,.1891.1888v0A.1893.1893,0,0,0,10.135,5.5062Z"/><path class="cls-1" d="M8.2371,12.9227c2.7088-.0932,4.8678-1.613,4.8678-3.4685C13.1049,11.309,10.9459,12.83,8.2371,12.9227Z"/><path class="cls-1" d="M7.9733,10.5332A5.8379,5.8379,0,0,1,2.8417,8.0843v.0022a5.843,5.843,0,0,0,5.1316,2.4489,5.8411,5.8411,0,0,0,5.1316-2.4511A5.844,5.844,0,0,1,7.9733,10.5332Z"/><path class="cls-1" d="M6.6146,4.94h0l.0219.0022Z"/><path class="cls-1" d="M10.3127,7.4516c0-.004,0-.0078,0-.0118l-.0007.0195Z"/><path class="cls-1" d="M9.1421,8.0749l.0021.021a.1873.1873,0,0,1-.0021-.0213Z"/><path class="cls-1" d="M7.9733,10.5354A5.843,5.843,0,0,1,2.8417,8.0865V9.4542c0,1.8548,2.1589,3.3753,4.8678,3.4685q.131.0045.2638.0045t.2638-.0045c2.7088-.0932,4.8678-1.6137,4.8678-3.4685v-1.37A5.8411,5.8411,0,0,1,7.9733,10.5354Z"/><rect class="cls-1" x="6.8037" y="5.8854" width="2.3376" height="1.3647"/><path class="cls-2" d="M7.9733,2.8324c-3.0389,0-5.5109,1.7277-5.5109,3.8553V9.4542c0,2.1239,2.472,3.8522,5.5109,3.8522s5.51-1.7283,5.51-3.8522V6.6877C13.4834,4.56,11.0114,2.8324,7.9733,2.8324Zm5.1316,6.6218c0,1.8555-2.159,3.3753-4.8678,3.4685q-.1311.0045-.2638.0045T7.71,12.9227C5.0006,12.83,2.8417,11.31,2.8417,9.4542v-1.37a5.8379,5.8379,0,0,0,5.1316,2.4489,5.844,5.844,0,0,0,5.1316-2.4489Zm0-2.77q0,.09-.0067.1785c-.1376,1.832-2.3823,3.2946-5.1249,3.2946-2.83,0-5.1316-1.55-5.1316-3.4693S5.1422,3.2109,7.9733,3.2109c2.7426,0,4.9873,1.4625,5.1249,3.2946Q13.1048,6.5942,13.1049,6.6839Z"/><path class="cls-2" d="M2.8417,9.4542c0,1.8555,2.1589,3.3753,4.8678,3.4685C5.0006,12.83,2.8417,11.309,2.8417,9.4542Z"/><path class="cls-2" d="M2.8417,6.6877c0,1.919,2.3019,3.4693,5.1316,3.4693C5.1422,10.157,2.8417,8.5986,2.8417,6.6877Z"/><path class="cls-2" d="M7.9733,3.2109c-2.8311,0-5.1316,1.5577-5.1316,3.4768C2.8417,4.7767,5.1436,3.2109,7.9733,3.2109Z"/><path class="cls-2" d="M7.9733,3.2109c2.7412,0,4.9872,1.4625,5.1249,3.2946C12.9606,4.6734,10.7159,3.2109,7.9733,3.2109Z"/><path class="cls-3" d="M6.6146,8.264l.021-.0021-.0211.0021Z"/><path class="cls-3" d="M6.6144,8.264h0l-.0212-.0021Z"/><path class="cls-3" d="M5.6331,7.4516l.0011.0077L5.6335,7.44C5.6335,7.4438,5.6328,7.4476,5.6331,7.4516Z"/><path class="cls-3" d="M6.8037,8.0749v0a.17.17,0,0,1-.0019.019Z"/><path class="cls-3" d="M6.4253,8.0749l.0021.021a.167.167,0,0,1-.0021-.0213Z"/><path class="cls-3" d="M9.5205,8.0749v0a.172.172,0,0,1-.0018.019Z"/><path class="cls-3" d="M10.3127,7.4516c0-.004,0-.0078,0-.0118l-.0007.0195Z"/><path class="cls-3" d="M10.3127,7.4279,10.3116,7.42l.0007.0195C10.3123,7.4358,10.313,7.4319,10.3127,7.4279Z"/><path class="cls-3" d="M9.1421,8.0749l.0021.021a.1873.1873,0,0,1-.0021-.0213Z"/><path class="cls-3" d="M9.3315,8.264l.0214-.0022-.0216.0022Z"/><path class="cls-3" d="M5.6331,7.4279c0,.004,0,.0079,0,.0119L5.6342,7.42Z"/><path class="cls-3" d="M9.3312,8.264h0L9.31,8.2619Z"/><path class="cls-3" d="M6.6144,4.94l-.0221.0023L6.6145,4.94Z"/><polygon class="cls-3" points="6.804 5.885 6.804 7.25 9.141 7.25 9.142 7.25 9.142 5.885 9.141 5.885 6.804 5.885"/><path class="cls-3" d="M10.135,5.5062H9.5205V5.507h.6145a.1892.1892,0,0,1,.1891.1888v0A.1893.1893,0,0,0,10.135,5.5062Z"/><path class="cls-3" d="M5.8108,5.8847a.1893.1893,0,0,1-.1891-.1889v0a.1891.1891,0,0,0,.1891.1893h.6145V5.8847Z"/><path class="cls-3" d="M10.135,5.8847H9.5205v.0007h.6145a.1891.1891,0,0,0,.1891-.1893v0A.1893.1893,0,0,1,10.135,5.8847Z"/><path class="cls-3" d="M5.8108,5.507h.6145V5.5062H5.8108a.1893.1893,0,0,0-.1891.1894v0A.1892.1892,0,0,1,5.8108,5.507Z"/><path class="cls-3" d="M6.6146,4.94h0l.0219.0022Z"/><path class="cls-3" d="M9.3312,4.94l-.0223.0023L9.3313,4.94Z"/><path class="cls-3" d="M9.3315,4.94h0l.0224.0022Z"/><path class="cls-1" d="M13.0982,6.5055c-.1377-1.8321-2.3837-3.2946-5.1249-3.2946-2.83,0-5.1316,1.5658-5.1316,3.4768S5.1422,10.157,7.9733,10.157c2.7412,0,4.9872-1.4626,5.1249-3.2946q.0066-.0887.0067-.1785T13.0982,6.5055Zm-2.7741-.8094a.1891.1891,0,0,1-.1891.1893H9.5205V7.25h.6145a.1907.1907,0,0,1,.0364.0059l.0123.0044.0213.0081.0129.0074.0174.0109.0116.01.0146.0137.01.0117.0117.016.0077.0136.0082.0177.0055.0154.0045.0189.0027.0167.0011.0076c0,.004,0,.0079,0,.0119s.0007.0078,0,.0118l-.0011.0077-.0027.0167-.0045.0188-.0055.0154-.0082.0178-.0077.0135-.0117.0161-.01.0117-.0146.0136-.0116.01-.0174.0109-.0129.0074-.0213.0081-.0123.0043a.19.19,0,0,1-.0364.006H9.5205v.4455l-.0018.0187-.002.0193-.0056.0179-.0054.0176-.0081.0149-.0094.0173-.01.0118-.0134.0162-.0116.0095-.0164.0136-.0137.0074-.0184.01L9.39,8.2537,9.3694,8.26l-.0165.0016-.0214.0022h0L9.31,8.2619,9.2932,8.26l-.02-.0063-.0153-.0048-.0185-.01-.0137-.0074L9.21,8.2191l-.0127-.01-.0124-.015-.0107-.013L9.165,8.1633l-.008-.0149-.005-.0159-.0061-.02-.0017-.017-.0021-.021V7.6294H6.8037v.4455l-.0019.0187L6.8,8.1129l-.005.0162-.0061.0194-.0079.0145-.01.0176L6.76,8.1949l-.0113.0137L6.7346,8.22,6.72,8.2317,6.7047,8.24l-.0166.0089-.0159.005-.02.0061-.017.0017-.021.0021h0l-.0211-.0021L6.5764,8.26l-.02-.0061-.0159-.005L6.5243,8.24l-.0156-.0085L6.4943,8.22l-.0136-.0113-.0113-.0137-.0118-.0143L6.4491,8.165,6.44,8.1484l-.0049-.0159-.0061-.02-.0017-.017-.0021-.021V7.6294H5.8108a.1908.1908,0,0,1-.0364-.006l-.0122-.0043L5.7408,7.611,5.728,7.6036l-.0175-.0109-.0116-.01-.0146-.0137-.01-.0117-.0117-.0161L5.6551,7.528,5.6468,7.51l-.0053-.0153L5.6368,7.476l-.0026-.0167-.0011-.0077c0-.004,0-.0078,0-.0118s-.0007-.0079,0-.0119L5.6342,7.42l.0026-.0167.0047-.0189.0053-.0153.0083-.0178.0077-.0136.0117-.016.01-.0117.0146-.0137.0116-.01.0175-.011.0128-.0073L5.7622,7.26l.0122-.0043A.1882.1882,0,0,1,5.8108,7.25h.6145V5.8854H5.8108a.1891.1891,0,0,1-.1891-.1893V5.6956a.1893.1893,0,0,1,.1891-.1894h.6145v-.377a.1567.1567,0,0,1,.0112-.0619L6.44,5.0557l.01-.0189.0072-.0133.0136-.0165.01-.0115.0134-.011.0146-.0121.014-.0075.0182-.01L6.5563,4.95l.02-.0062.0159-.0016L6.6144,4.94h0l.0218.0023.0162.0016.0188.0058.0167.0052.0152.0082.0169.0092.013.0107.0151.0124.0095.0115.0136.0165.01.0189.0072.0132a.19.19,0,0,1,.01.0319L6.8,5.0911a.1845.1845,0,0,1,.0039.0381v.377H9.1421v-.377a.1923.1923,0,0,1,.0038-.0381.1777.1777,0,0,1,.0075-.0238l.0036-.0116.0079-.0146.01-.0176.0082-.01.0149-.018.0116-.01.0164-.0135L9.24,4.9649l.0182-.01L9.2732,4.95l.02-.0062.0157-.0016L9.3312,4.94h0l.0222.0023.0157.0016.02.0062.0154.0048.0182.01.014.0075.0164.0135.0116.01.0148.018.0083.01.0095.0176.0079.0146.0037.0116a.1567.1567,0,0,1,.0112.0619v.377h.6145a.1893.1893,0,0,1,.1891.1894v.0005Z"/><path class="cls-2" d="M10.135,5.507H9.5205V5.1292a.1567.1567,0,0,0-.0112-.0619l-.0037-.0116-.0079-.0146-.0095-.0176-.0083-.01-.0148-.018-.0116-.01-.0164-.0135-.014-.0075-.0182-.01L9.39,4.95l-.02-.0062-.0157-.0016L9.3313,4.94l-.0224.0022-.0157.0016-.02.0062-.0155.0048-.0182.01-.0139.0075-.0164.0135-.0116.01-.0149.018-.0082.01-.01.0176-.0079.0146-.0036.0116a.1777.1777,0,0,0-.0075.0238.1923.1923,0,0,0-.0038.0381v.377H6.8037v-.377A.1845.1845,0,0,0,6.8,5.0911l-.0011-.0036a.19.19,0,0,0-.01-.0319l-.0072-.0132-.01-.0189L6.7578,5.007l-.0095-.0115-.0151-.0124L6.72,4.9724l-.0169-.0092L6.6881,4.955,6.6714,4.95,6.6526,4.944l-.0162-.0016L6.6145,4.94l-.0222.0022-.0159.0016-.02.0062-.0154.0048-.0182.01-.014.0075-.0146.0121-.0134.011-.01.0115-.0136.0165L6.45,5.0368l-.01.0189-.0037.0116a.1567.1567,0,0,0-.0112.0619V5.507H5.8108a.1889.1889,0,1,0,0,.3777h.6145V7.25H5.8108a.1882.1882,0,0,0-.0364.0059L5.7622,7.26l-.0214.0082-.0128.0073-.0175.011-.0116.01L5.6843,7.31l-.01.0117-.0117.016-.0077.0136-.0083.0178-.0053.0153-.0047.0189L5.6342,7.42,5.6335,7.44l.0007.0195.0026.0167.0047.0189.0053.0153.0083.0178.0077.0135.0117.0161.01.0117.0146.0137.0116.01.0175.0109.0128.0074.0214.0081.0122.0043a.1908.1908,0,0,0,.0364.006h.6145v.4452a.167.167,0,0,0,.0021.0213l.0017.017.0061.02.0049.0159.009.0166.0085.0156.0118.0143.0113.0137.0136.0113.0144.0118.0156.0085.0165.0089.0159.005.02.0061.0169.0017.0212.0021.0211-.0021.017-.0017.02-.0061.0159-.005L6.7047,8.24,6.72,8.2317,6.7346,8.22l.0137-.0113L6.76,8.1949l.0118-.0143.01-.0176.0079-.0145.0061-.0194L6.8,8.1129l.0019-.0193a.17.17,0,0,0,.0019-.019V7.6294H9.1421v.4452a.1873.1873,0,0,0,.0021.0213l.0017.017.0061.02.005.0159.008.0149.0094.0173.0107.013.0124.015.0127.01.0153.0126.0137.0074.0185.01.0153.0048.02.0063.0168.0017.0213.0021.0216-.0022L9.3694,8.26,9.39,8.2537l.0149-.0046.0184-.01.0137-.0074.0164-.0136.0116-.0095.0134-.0162.01-.0118.0094-.0173.0081-.0149.0054-.0176.0056-.0179.002-.0193a.172.172,0,0,0,.0018-.019V7.6294h.6145a.19.19,0,0,0,.0364-.006l.0123-.0043.0213-.0081.0129-.0074.0174-.0109.0116-.01.0146-.0136.01-.0117.0117-.0161.0077-.0135.0082-.0178.0055-.0154.0045-.0188.0027-.0167.0007-.0195L10.3116,7.42l-.0027-.0167-.0045-.0189-.0055-.0154-.0082-.0177L10.283,7.338l-.0117-.016-.01-.0117-.0146-.0137-.0116-.01-.0174-.0109-.0129-.0074-.0213-.0081-.0123-.0044A.1907.1907,0,0,0,10.135,7.25H9.5205V5.8847h.6145a.1889.1889,0,1,0,0-.3777ZM9.1421,7.25H6.8037V5.8854H9.1421Z"/><path class="cls-2" d="M9.3312,8.264h0L9.31,8.2619Z"/><path class="cls-2" d="M10.3127,7.4279,10.3116,7.42l.0007.0195C10.3123,7.4358,10.313,7.4319,10.3127,7.4279Z"/><path class="cls-2" d="M9.5205,8.0749v0a.172.172,0,0,1-.0018.019Z"/><path class="cls-2" d="M6.6144,4.94l-.0221.0023L6.6145,4.94Z"/><path class="cls-2" d="M5.8108,5.507h.6145V5.5062H5.8108a.1893.1893,0,0,0-.1891.1894v0A.1892.1892,0,0,1,5.8108,5.507Z"/><path class="cls-2" d="M10.135,5.8847H9.5205v.0007h.6145a.1891.1891,0,0,0,.1891-.1893v0A.1893.1893,0,0,1,10.135,5.8847Z"/><path class="cls-2" d="M9.3312,4.94l-.0223.0023L9.3313,4.94Z"/><path class="cls-2" d="M6.6144,8.264h0l-.0212-.0021Z"/><path class="cls-2" d="M6.8037,8.0749v0a.17.17,0,0,1-.0019.019Z"/><path class="cls-2" d="M5.6331,7.4516l.0011.0077L5.6335,7.44C5.6335,7.4438,5.6328,7.4476,5.6331,7.4516Z"/></svg>