<?xml version="1.0" encoding="UTF-8"?>
<svg width="19px" height="26px" viewBox="0 0 29 40" version="1.1" xmlns="http://www.w3.org/2000/svg" xmlns:xlink="http://www.w3.org/1999/xlink">
    <!-- Generator: Sketch 51.2 (57519) - http://www.bohemiancoding.com/sketch -->
    <title>place</title>
    <desc>Created with Sketch.</desc>
    <defs></defs>
    <g id="Page-1" stroke-width="1" stroke="#ADAFA6" fill="none" fill-rule="evenodd" stroke-linecap="round" stroke-linejoin="round">
        <g id="place" transform="translate(1.000000, 1.000000)" stroke-width="2">
            <path d="M23.9,20.8 C25.3,18.7 26.1,16.3 26.1,13.6 C26.1,6.5 20.3,0.7 13.2,0.7 C6.1,0.7 0.3,6.5 0.3,13.6 C0.3,15.6 0.8,17.5 1.6,19.3" id="Shape"></path>
            <polyline id="Shape" points="24 20.6 13.2 37.4 1.6 19.2"></polyline>
            <path d="M18.3,13.5 C18.3,10.7 16,8.5 13.3,8.5 C10.5,8.5 8.3,10.8 8.3,13.5 C8.3,16.2 10.6,18.5 13.3,18.5 C16,18.6 18.3,16.3 18.3,13.5 Z" id="Shape"></path>
        </g>
    </g>
</svg>
