<svg xmlns="http://www.w3.org/2000/svg" viewBox="0 0 48 48"><title>Conversaciones</title><path d="M21.05,42.79a1,1,0,0,1-.84-.46,1,1,0,0,1-.16-.54,1,1,0,0,1,.46-.84l14.94-9.62a1,1,0,0,1,1.39.3,1.1,1.1,0,0,1,.16.55,1,1,0,0,1-.46.84L21.59,42.63A1,1,0,0,1,21.05,42.79Z"/><path d="M21.05,42.79a1,1,0,0,1-1-1v-8.1a1,1,0,0,1,2,0v8.1A1,1,0,0,1,21.05,42.79Z"/><path d="M21.05,34.69H20.9a29.93,29.93,0,0,1-8-2.62c-5.41-2.73-8.2-6.74-8.06-11.6V17.31c0-5.45,5.72-12.1,12.4-12.1H31c3.41,0,12.17,5.33,12.17,11.21v6.06c0,.05,0,.1,0,.16A17.39,17.39,0,0,1,36.59,33a1,1,0,0,1-1.19-1.6,15.56,15.56,0,0,0,5.81-9v-6C41.21,12,33.58,7.21,31,7.21H17.2c-5.5,0-10.4,5.65-10.4,10.1v3.18c-.27,9.9,14.25,12.19,14.4,12.21a1,1,0,0,1-.15,2Z"/></svg>
