<svg id="Capa_1" data-name="Capa 1" xmlns="http://www.w3.org/2000/svg" viewBox="0 0 48 48"><title>helpbutons_Icon_stencil_05_EXPANDED</title><path d="M27.73,28.23a1,1,0,0,0-1,1v7.34a4,4,0,0,1-4,4H10.91a4,4,0,0,1-4-4V11.43a4,4,0,0,1,4-4H22.73a4,4,0,0,1,4,4v7.68a1,1,0,0,0,2,0V11.43a6,6,0,0,0-6-6H10.91a6,6,0,0,0-6,6V36.57a6,6,0,0,0,6,6H22.73a6,6,0,0,0,6-6V29.23A1,1,0,0,0,27.73,28.23Z"/><path d="M42.89,24.6l0-.08a1,1,0,0,0,.07-.35,1,1,0,0,0-.07-.34l0-.08a1.12,1.12,0,0,0-.19-.29h0a1.16,1.16,0,0,0-.21-.16l-8.75-5.05a1,1,0,1,0-1,1.73l5.52,3.19H18.73a1,1,0,0,0,0,2H38.26l-5.52,3.19a1,1,0,0,0,.5,1.87,1,1,0,0,0,.5-.14L42.49,25a1.16,1.16,0,0,0,.21-.16h0A1.07,1.07,0,0,0,42.89,24.6Z"/></svg>