<?xml version="1.0" encoding="utf-8"?>
<!-- Generator: Adobe Illustrator 23.0.1, SVG Export Plug-In . SVG Version: 6.00 Build 0)  -->
<svg version="1.1" id="Capa_1" xmlns="http://www.w3.org/2000/svg" xmlns:xlink="http://www.w3.org/1999/xlink" x="0px" y="0px"
	 viewBox="0 0 48 48" style="enable-background:new 0 0 48 48;" xml:space="preserve">
<title>Bloqueado</title>
<path d="M24,2C12,2,2.2,11.8,2.2,23.9C2.2,35.9,12,45.8,24,45.8c12.1,0,21.9-9.8,21.9-21.9C45.9,11.8,36.1,2,24,2z M6.2,23.9
	c0-9.8,8-17.8,17.8-17.8c3.8,0,7.3,1.2,10.2,3.3L11,36C8,32.8,6.2,28.6,6.2,23.9z M24,41.7c-3.7,0-7.1-1.1-10-3.1l23.2-26.6
	c2.8,3.2,4.6,7.3,4.6,11.8C41.8,33.7,33.8,41.7,24,41.7z"/>
</svg>
