<?xml version="1.0" encoding="utf-8"?>
<!-- Generator: Adobe Illustrator 23.0.1, SVG Export Plug-In . SVG Version: 6.00 Build 0)  -->
<svg version="1.1" id="Capa_1" xmlns="http://www.w3.org/2000/svg" xmlns:xlink="http://www.w3.org/1999/xlink" x="0px" y="0px"
	 viewBox="0 0 48 48" style="enable-background:new 0 0 48 48;" xml:space="preserve">
<title>Apoyos</title>
<path d="M34.4,3.2c-5.4,0-8.7,2.4-10.5,4.3c-1.7-1.8-5-4.1-10.3-4.1c0,0,0,0,0,0C5,3.4,1.2,10.6,1.2,15.7c0,13.9,11,25,22,28.6
	c0.2,0.1,0.4,0.1,0.6,0.1c0.3,0,0.5-0.1,0.8-0.2c0.1,0,0.2,0,0.3,0c10.9-3.7,22-14.7,22-28.6C46.8,10.5,43,3.2,34.4,3.2z M23.8,40.3
	C14.7,37,5.2,27.4,5.2,15.7c0-2.2,1.5-8.3,8.4-8.3c0,0,0,0,0,0c6.1,0,8.3,3.9,8.4,4.1c0.5,0.9,1.6,1.3,2.5,0.9
	c0.6-0.1,1.1-0.5,1.4-1c0,0,2.2-4.1,8.4-4.1c0,0,0,0,0,0c6.9,0,8.4,6.2,8.4,8.3C42.8,27.4,33.1,37.1,23.8,40.3z"/>
</svg>
