<svg xmlns="http://www.w3.org/2000/svg" viewBox="0 0 48 48"><title>helpbutons_Icon_stencil_04_EXPANDED</title><path d="M24,1.36A16.53,16.53,0,0,0,7.49,17.87a16.31,16.31,0,0,0,1.59,7.06v0l.06.15.07.11,0,.09,13,20.41a2,2,0,0,0,1.68.93h0a2,2,0,0,0,1.68-.92l12-18.61h0a.75.75,0,0,0,.07-.12l0-.05h0A16.5,16.5,0,0,0,24,1.36Zm0,39.57L12.71,23.26a12.33,12.33,0,0,1-1.22-5.39,12.51,12.51,0,1,1,23,6.88h0Z"/><path d="M24,10.21a7.67,7.67,0,1,0,7.66,7.66A7.67,7.67,0,0,0,24,10.21Zm0,11.33a3.67,3.67,0,1,1,3.66-3.67A3.67,3.67,0,0,1,24,21.54Z"/></svg>