<svg xmlns="http://www.w3.org/2000/svg" viewBox="0 0 48 48"><title>place</title><path d="M24.1,4.1a19.81,19.81,0,0,0-7.7,38.1v.1a8.8,8.8,0,0,0,1.5.5,20.5107,20.5107,0,0,0,6.1,1,19.85,19.85,0,1,0,.1-39.7Zm17.6,17h-.1a2.3588,2.3588,0,0,1-1,1.6,4.5582,4.5582,0,0,1-3.1-.1l-.5-.2-.4.2c-2.9,1.4-3,3.4-3.1,5.2a8.5779,8.5779,0,0,1-.2,2.2,4.0126,4.0126,0,0,0-.3,1.5,10.9522,10.9522,0,0,1-2.4,5.6,3.8072,3.8072,0,0,1-.5.6c-.1-.3-.3-.7-.4-1a6.72,6.72,0,0,0-2-3.3,6.7262,6.7262,0,0,0-1.1-.7A6.5124,6.5124,0,0,1,24,30.3c-.8-1.3-1-2.4-.4-3.2a3.5883,3.5883,0,0,1,3.1-1.3c1.4.3,2.8-.7,3.8-1.5a3.0388,3.0388,0,0,1,.7-.5c.8-.1,1.3-1,1.3-2.1,0-1.4-.9-3.1-3.5-3.3-2.5-.2-3.3,1.6-3.7,2.7a6.9292,6.9292,0,0,1-.3-2,30.4562,30.4562,0,0,1,1.3-4.4,11.3206,11.3206,0,0,1,2.4-3.6l4.8-2.3A18.0679,18.0679,0,0,1,41.7,21.1ZM26.1,6.2a8.521,8.521,0,0,1-3.4,1.1,2.3833,2.3833,0,0,1-2.2-.8,22.038,22.038,0,0,1,3.6-.4A14.0839,14.0839,0,0,1,26.1,6.2Zm-14.5,5c1.3-.8,3.2-1.3,3.7-.9.2.2.4.8.1,2.1-.5,2-3.7,4-4.8,4.6h-.2l-.1.1a26.0522,26.0522,0,0,0-4,5.3A17.4071,17.4071,0,0,1,11.6,11.2ZM6.5,27.1h0a15.0761,15.0761,0,0,0,4.2,1.1c1.6.2,3.6.5,4,1.2a1.48,1.48,0,0,1-.1,1.1c-.7,1.7,2.3,5.9,5,9.1a4.5148,4.5148,0,0,1,.3,1.3s-.3.2-1.4-.1A17.7187,17.7187,0,0,1,6.5,27.1ZM24.1,41.8a16.413,16.413,0,0,1-2.3-.2,3.9571,3.9571,0,0,0-.4-2.9l-.1-.2c-2.6-3.1-4.8-6.5-4.8-7.2a3.6348,3.6348,0,0,0,0-2.9c-.9-1.6-3.2-1.9-5.5-2.2a12.1454,12.1454,0,0,1-3.4-.8c-.1,0-.1-.1-.1-.2-.2-1.2,2-4.3,4.2-6.6,1-.5,5.1-2.8,5.8-5.9.4-2,.2-3.4-.9-4.2a3.5521,3.5521,0,0,0-.9-.4,13.8994,13.8994,0,0,1,2.8-1.2,4.52,4.52,0,0,0,3.9,2.3h.5a13.1753,13.1753,0,0,0,6-2.4,11.7248,11.7248,0,0,1,2.4.9L27.7,9.5l-.3.2a13.773,13.773,0,0,0-3,4.4A31.1306,31.1306,0,0,0,23,18.9v.2c0,.4,0,3.6,1.9,4.6a1.314,1.314,0,0,0,1.2.1c.7-.3.9-.9,1.1-1.6.4-1.2.7-1.8,1.8-1.7a1.943,1.943,0,0,1,1.5.7.8024.8024,0,0,1,.1.8,3.5487,3.5487,0,0,0-1.2.8c-.6.5-1.6,1.2-2.1,1.1A5.697,5.697,0,0,0,22.1,26c-.7,1.1-1.3,2.8.3,5.4a9.11,9.11,0,0,0,3.3,3,8.7941,8.7941,0,0,0,1,.6,5.512,5.512,0,0,1,1.2,2.3c.4,1.2.8,2.4,1.9,2.5H30a2.9572,2.9572,0,0,0,2.2-1.6,12.5311,12.5311,0,0,0,2.7-6.5c.1-.5.2-.9.3-1.4a12.2162,12.2162,0,0,0,.3-2.6c.1-1.6.1-2.5,1.6-3.3a6.0758,6.0758,0,0,0,4.4-.1c.2-.1.3-.2.5-.3,0,.7-.1,1.3-.1,1.9-4.8,2-5.2,7.3-4.7,10.1A17.9359,17.9359,0,0,1,24.1,41.8ZM41.3,28.7A18.1228,18.1228,0,0,1,39,33.8,6.2241,6.2241,0,0,1,41.3,28.7Z"/></svg>
