<?xml version="1.0" encoding="utf-8"?>
<!-- Generator: Adobe Illustrator 23.0.1, SVG Export Plug-In . SVG Version: 6.00 Build 0)  -->
<svg version="1.1" id="Capa_1" xmlns="http://www.w3.org/2000/svg" xmlns:xlink="http://www.w3.org/1999/xlink" x="0px" y="0px"
	 viewBox="0 0 152.8 145.2" style="enable-background:new 0 0 152.8 145.2;" xml:space="preserve">
<style type="text/css">
	.st0{fill:#222220;}
</style>
<title>logo</title>
<path class="st0" d="M76.4,20C45.9,20,21,37.4,21,58.7v27.8c0,21.3,24.8,38.7,55.4,38.7s55.4-17.4,55.4-38.7V58.7
	C131.8,37.4,106.9,20,76.4,20z M76.4,23.8c28.4,0,51.6,15.7,51.6,34.9s-23.1,34.9-51.6,34.9S24.8,77.9,24.8,58.7S48,23.8,76.4,23.8z
	 M128,86.5c0,19.2-23.1,34.9-51.6,34.9s-51.6-15.7-51.6-34.9V72.8C32.9,87.2,53,97.4,76.4,97.4s43.5-10.2,51.6-24.6V86.5z"/>
<path class="st0" d="M98.1,64.4H92V50.7h6.2c1.1,0,1.9-0.9,1.9-1.9c0-1-0.9-1.9-1.9-1.9H92v-3.8c0-1.1-0.9-1.9-1.9-1.9
	c-1,0-1.9,0.9-1.9,1.9v3.8H64.7v-3.8c0-1.1-0.9-1.9-1.9-1.9c-1,0-1.9,0.9-1.9,1.9v3.8h-6.2c-1.1,0-1.9,0.9-1.9,1.9
	c0,1,0.9,1.9,1.9,1.9h6.2v13.7h-6.2c-1.1,0.1-1.9,1-1.8,2c0.1,1,0.8,1.7,1.8,1.8h6.2v4.5c0,1.1,0.8,1.9,1.9,1.9
	c1.1,0,1.9-0.8,1.9-1.9c0,0,0,0,0,0v-4.5h23.5v4.5c0,1.1,0.8,1.9,1.9,1.9c1.1,0,1.9-0.8,1.9-1.9c0,0,0,0,0,0v-4.5h6.2
	c1.1-0.1,1.9-1,1.8-2C99.9,65.2,99.1,64.4,98.1,64.4z M88.2,64.4H64.7V50.7h23.5V64.4z"/>
</svg>
