<svg id="Capa_1" data-name="Capa 1" xmlns="http://www.w3.org/2000/svg" viewBox="0 0 181.21 181.21"><defs><style>.cls-1{fill:#ffde07;}.cls-2{fill:#fff;}.cls-2,.cls-3{fill-rule:evenodd;}.cls-3{fill:#3f3f3f;}</style></defs><title>logo5</title><path class="cls-1" d="M26.59,154.7a90.15,90.15,0,0,0,7.65,6.82,90.41,90.41,0,0,0,56.37,19.69,90.18,90.18,0,0,0,50.12-15.13,92,92,0,0,0,10.21-7.9,91,91,0,0,0,20.11-25.87,90.61,90.61,0,0,0-8-96.12,91.59,91.59,0,0,0-8.38-9.64,88.75,88.75,0,0,0-10.41-8.94A90.55,90.55,0,0,0,34.48,19.48,90.69,90.69,0,0,0,18.42,35.85,90.47,90.47,0,0,0,26.59,154.7Z"/><path class="cls-2" d="M137.14,67c.26,4.33,3.16,7,2.32,11.83-.5,1-1.28,1.69-1.55,2.9-1.79-.74-3.57-.51-5.82-.58-2.7-.09-5.49-1.05-8.14-1-.85,0-1.64.33-2.51.39-5.53.36-11.77-.91-18-.58-1.28.07-2.55.5-3.87.58-4.26.26-8.74.29-13.18.58-8.29.54-17.13.75-25.19,2.13-2,.34-4,.52-6,.77-3.42.44-5.66,1-8.72.2a9.76,9.76,0,0,1-2.32-.78c-1.85-1.3-3-5.59-1.94-8.33a21.91,21.91,0,0,1-.58-4.26c15.5-3.26,34-4.76,52.51-5.62,6.71-.31,15.53.19,22.87.19a117.85,117.85,0,0,1,15.7,1.17C134.16,66.84,135.69,67.58,137.14,67Z"/><path class="cls-3" d="M109,35.83h.39c3.44,2.25,8.66,2.25,10.46,6.6s.39,11.2.39,17.82c0,14.7-.08,32.93-.39,46.31,2.15.43,4.59.55,7,.78,2.22.22,4.81.13,6,1.55.68.8.79,2.26,1.16,3.1.63,1.41,2,2.64,2.52,4.26.44,1.42.14,2.78,1,4.07,0,.64-.68.25-.58.2-.81.44,0,.16-.39.77-.26.43-.67.72-.39,1.55-5.48-.58-9.95-2.19-16.08-2.13-.45,5.49-.06,11.82-.2,17.63a49.39,49.39,0,0,1-5,.78c-1.61.27-3.36,1-4.85,1-2-.05-3.64-1.46-5.62-1.55-.36-.51.45-1.13.2-2.13-1-1.47-2.6-1.37-3.49-2.91-1.86-3.22.12-8.55.19-12.6-6.1.88-14.37,1.27-20.92,2.33C80.85,127.59,84,132,83.63,137c-.19,2.78-1.37,4.67-2.71,6.78H79.75c-10.73-1.4-18.3-6-19-17.44A41.15,41.15,0,0,0,52.82,129c-.32-1.11-.44-.61-1-.58s-.27-.35-.39-.39c-.27-.07-.42.21-.58.2-.35,0-.29-.36-.39-.39-.36-.1-.64,0-1-.19s0-.88-.77-.58a38.09,38.09,0,0,1-1.17-6.79c1-1.57-.1-4-.38-6,2.68-2.84,7-4.44,11.43-5.23-.58-4.66-1.62-9.46-1.94-14.72s.53-10.77.2-16.09c-.11-1.79-.43-3.65-.58-5.42-.38-4.35.07-8-1.94-10.28.81-1.47,1.4-2.11,1.35-3.48-.07-2.1-2.09-3.72-1.55-6.39,1.1-5.47,12.06-5,15.89-2.33,6,4.07,3.13,16.59,4.07,25.19,1.07,9.64,4.29,21.51,4.46,30.81,5.32.65,10.63-1.64,14.92-1.35,1.53.1,4.75,1.23,6.2.38,1.17-.67,1.54-3.36,1.75-6.2,1.14-15.64-.25-32.85,1.35-47.28.3-2.67,1.15-5.41,1-7.17-.15-1.5-2.08-3.49-1.74-4.65C102.81,37.49,108.39,38.37,109,35.83Z"/></svg>