<svg xmlns="http://www.w3.org/2000/svg" viewBox="0 0 97 98" width="97" height="98">
  <g transform="translate(-505.126,-78.597)">
    <g transform="matrix(0.78679819,0,0,0.78679819,336.94952,66.013296)">
      <g transform="matrix(0.59469252,0,0,0.59469252,229.95729,40.477258)">
        <path fill="black"
          d="M 76.41,2.05 C 35.46,2.05 2.15,25.33 2.15,54 v 37.28 c 0,28.62 33.31,51.91 74.26,51.91 40.95,0 74.25,-23.29 74.25,-51.91 V 54 C 150.66,25.33 117.35,2.05 76.41,2.05 Z m 0,5.1 c 38.13,0 69.15,21 69.15,46.8 0,25.8 -31,46.8 -69.15,46.8 C 38.26,100.75 7.26,79.75 7.26,54 7.26,28.25 38.28,7.15 76.41,7.15 Z m 69.15,84.13 c 0,25.81 -31,46.8 -69.15,46.8 -38.15,0 -69.15,-21 -69.15,-46.8 V 72.82 c 10.82,19.31 37.72,33 69.15,33 31.43,0 58.32,-13.72 69.15,-33 z" />
      </g>
      <g transform="matrix(0.59469252,0,0,0.59469252,229.95729,34.943679)">
        <path fill="black"
          d="M 76.41,2.05 C 35.46,2.05 2.15,25.33 2.15,54 v 37.28 c 0,28.62 33.31,51.91 74.26,51.91 40.95,0 74.25,-23.29 74.25,-51.91 V 54 C 150.66,25.33 117.35,2.05 76.41,2.05 Z m 0,5.1 c 38.13,0 69.15,21 69.15,46.8 0,25.8 -31,46.8 -69.15,46.8 C 38.26,100.75 7.26,79.75 7.26,54 7.26,28.25 38.28,7.15 76.41,7.15 Z m 69.15,84.13 c 0,25.81 -31,46.8 -69.15,46.8 -38.15,0 -69.15,-21 -69.15,-46.8 V 72.82 c 10.82,19.31 37.72,33 69.15,33 31.43,0 58.32,-13.72 69.15,-33 z" />
        <rect fill="black" x="60.65" y="43.19" width="31.5" height="18.39" />
      </g>
      <path fill="black"
        d="m 252.04787,114.34343 14.72345,-4.26629 14.72345,-4.26629 -3.66701,14.88403 -3.667,14.88403 -11.05645,-10.61774 z"
        transform="matrix(0.15828858,0.16931994,-0.16931994,0.15828858,256.82882,-7.6507323)" />
      <g transform="translate(1.2804873,0.807782)">
        <path fill="black"
          d="m 260.89838,52.633809 c -2.95552,-6.8e-5 -5.35159,2.395607 -5.35202,5.351125 v 1.303433 c 0,-0.01104 6.21598,5.647944 6.21598,5.647944 l -6.21598,5.43347 v 1.322169 c 4.3e-4,2.955517 2.3965,5.351192 5.35202,5.351124 2.95517,-4.29e-4 5.35069,-2.395958 5.35112,-5.351124 V 57.984934 c -4.3e-4,-2.955166 -2.39595,-5.350696 -5.35112,-5.351125 z" />
        <path fill="black"
          d="m 285.72175,52.492828 c -2.95552,-6.8e-5 -5.35159,2.395607 -5.35202,5.351125 v 1.303433 c 0,-0.01104 6.21598,5.647944 6.21598,5.647944 l -6.21598,5.43347 v 1.322169 c 4.3e-4,2.955517 2.3965,5.351192 5.35202,5.351124 2.95517,-4.29e-4 5.35069,-2.395958 5.35112,-5.351124 V 57.843953 c -4.3e-4,-2.955166 -2.39595,-5.350696 -5.35112,-5.351125 z" />
      </g>
    </g>
  </g>
</svg>
