<?xml version="1.0" encoding="utf-8"?>
<!-- Generator: Adobe Illustrator 23.0.1, SVG Export Plug-In . SVG Version: 6.00 Build 0)  -->
<svg version="1.1" id="Layer_1" xmlns="http://www.w3.org/2000/svg" xmlns:xlink="http://www.w3.org/1999/xlink" x="0px" y="0px"
	 viewBox="0 0 1350 1180" style="enable-background:new 0 0 1350 1180;" xml:space="preserve">
<style type="text/css">
	.st0{fill:#444444;}
	.st1{fill:#FEDD01;}
</style>
<g id="fRZVmJ_1_">
	<g>
		<g>
			<path class="st0" d="M581.6,611.8c0,6.1,0,11.1,0,16.1c-0.1,11.4,0.5,22.8-0.2,34.3c-0.4,5.9,0.7,12,1.7,18
				c1.6,9.9,1.7,20,3.2,30c1.7,11.7,1.6,23.7,5,35.2c1.3,4.3,1.2,8.8,0.9,13.2c-0.6,10.5,0.3,20.9,0.2,31.4
				c-0.1,6.7,1.5,13.5,3,20.2c2.3,10.2,5.9,20.2,4.8,30.8c-1.2,11.9,0,23.7-0.3,35.6c-0.3,11.4,1.9,22.8,3.4,34.2
				c1,7.2,1.6,14.3,1.9,21.6c0.5,12-0.4,24.2,2.4,36.1c0.5,2.1,0.3,4.4,0.5,6.6c0.1,1.4-0.1,2.9,0.3,4.2c4.4,14.5,6,29.4,6.4,44.5
				c0.3,9.7-3,18.7-8.1,26.8c-3.1,4.9-8.8,6.8-13.6,9.6c-8.3,4.8-17.6,6.7-26.8,8.7c-16,3.4-32.2,4.6-48.4,6
				c-8.2,0.7-16.4,0.9-24.7-0.6c-5.5-1-11.2-1.1-16.8-1.4c-19.1-1.1-38-4.4-57-6.3c-7.2-0.7-14.5-1-21.7-0.9
				c-9.2,0.1-18.4-0.5-27.6-0.7c-3-0.1-5.3-1.8-8-2.7c-8.2-2.8-14.9-7.8-20.8-13.9c-2.2-2.3-4.9-4.2-7.1-6.5c-7.9-8-8-17.3-0.7-25.9
				c4.8-5.7,10.8-9.8,17.4-12.7c5-2.2,10.7-1.5,16.1-1.4c11.5,0.2,22.9-0.3,34.3-1.9c8.1-1.2,16.5-1.4,24.7-1.5
				c5.1-0.1,10-0.9,15-1.7c5.2-0.9,10.4-1,15.6-1c6,0,12-1.1,18-1c11.8,0.1,23-3.5,34.6-4.8c2.4-0.3,3.4-1.4,3.3-4
				c-0.4-6.6-0.5-13.3-0.9-19.9c-0.7-10.5-0.1-20.9-0.4-31.4c-0.5-19.9-1.2-39.8-2.5-59.6c-0.9-14.3-2.7-28.4-3.7-42.7
				c-1.1-14.2-2.3-28.5-3.1-42.7c-1-17.1-1.5-34.2-1.3-51.3c0.1-13.3,0-26.6,0-39.9c0-3.2-0.2-6.5,0.1-9.6c1.1-11.2,0-22.5,0.2-33.7
				c0.5-22.3-0.4-44.6-1.5-66.9c-0.7-14.9-0.3-29.8-0.1-44.7c0-2.9-0.8-4.8-2.7-7c-3.5-3.9-7.5-7.3-11.2-10.9
				c-5.7-5.7-9.9-12.7-15.9-18.1c-2.7-2.4-4.5-5.7-6.3-8.8c-4.6-8-9.9-15.5-15.6-22.8c-5.5-7-11.7-13.8-14.6-22.7
				c-0.4-1.1-1-2.3-1.7-3.1c-9.6-10.7-17.3-22.7-24.8-34.8c-6-9.8-12.7-19.1-18.4-29c-3.9-6.8-8.5-13.1-12.5-19.8
				c-3-4.9-7.1-8.7-11-12.8c-1.9-2-4.4-3.3-5.1-6.4c-0.4-1.8-2.4-2.5-4.4-2.5c-9.1,0.2-18-2-27.1-2.4c-11.3-0.5-22.2-3.3-33.2-5.8
				s-21.6-6.6-32.7-8.3c-11.9-1.8-23.9-3.1-36-1.2c-3,0.5-6,0.4-9,0.5c-7.1,0.2-12.6,3.7-17.2,8.8c-7.9,8.6-14,18.6-21.1,27.9
				c-6.4,8.4-12,17.5-15.8,27.6c-3.9,10.5-8.5,20.9-13.6,30.9c-5.9,11.5-9.7,23.8-14.2,35.9c-1.6,4.3-3.5,8.6-5.6,12.6
				c-1.8,3.5-2.9,7-3.2,10.9c-0.8,12.3-4.5,24-6.3,36.2c-2.4,16.7-6.6,33.1-8.4,49.9c-1.6,14.9-0.9,29.6,2.6,44.3
				c4.2,17.8,7.5,35.8,11.1,53.8c0.3,1.6,0.6,3.2,0.3,4.8c-0.8,5.5,1.1,10.4,3.8,14.9c2.2,3.6,3.5,7.8,6.5,10.8
				c8.5,8.6,18.2,14.4,30.9,13.6c11.7-0.7,23.3,0.9,34.9,2.3c6,0.7,11.6-0.3,17.3-1.4c10.5-1.9,20.9-4.3,31.4-6.2
				c6.2-1.1,11.3-4.1,16.2-7.6c2.9-2,4-5.4,4.5-8.9c0.7-5.2,1.9-10.5,4.3-15c3.2-6.2,7.6-12,13.6-15.9c8.6-5.6,17.1-11.4,27.2-14
				c7-1.8,14.2-3.9,21.4-3c8.3,1,15.7,4.9,21.7,10.8c1.1,1.1,2.2,2.4,3.4,3.4c6.9,5.1,8.4,12.3,6.4,19.9c-1.3,4.8-0.3,7.4,3.5,10.1
				c6.3,4.6,11,10.6,15.2,17.1c5.9,9.3,2.8,21.5-6.6,27c-3.5,2.1-7.2,3.5-11.3,3.9c-3.5,0.4-3.9,1-2.4,4.2
				c2.5,5.6,3.6,11.5,4.5,17.5c1.3,8.7,0.4,17-7.3,22.9c-1.6,1.2-1.4,2.6-1.3,4.3c0.2,3.8,0.2,7.6,0.3,11.5c0.1,2.3-0.3,4.6-1.8,6.3
				c-4.5,5.5-9.4,10.5-17.1,11.4c-10.6,1.3-20.4-0.4-29.6-5.8c-7.8-4.6-15.1-9.9-21.2-16.7c-2.9-3.3-6.3-6.2-9.4-9.3
				c-0.9-0.9-1.8-1.6-3.1-1.8c-5.9-0.7-11.4-2.5-17.6,0.3c-4.9,2.2-11,1.8-16.6,2.4c-10.2,1-20.2,3.6-30.3,5.1
				c-8.7,1.3-17.3,3.5-26.3,3.4c-7.2-0.1-14.3,1.2-21.6,1.3c-9.5,0.1-18.7-1.4-28-3c-12.2-2.1-23.7-6.3-34.9-11.4
				c-14.8-6.8-26.6-16.9-33.8-32.2c-7.1-15.1-14.3-30.1-20.8-45.5c-3-7-5-14.4-7.1-21.7c-4.8-16.4-4.1-33.4-6.9-50
				c-1.7-10.1-2.8-20.3-3.3-30.6c-0.5-9-1.1-18-1.1-27.1c0-5.2-0.1-10.4-0.4-15.6c-0.4-7.2-0.3-14.5-0.2-21.7
				c0.2-10.8,0.9-21.6,2.2-32.5c1-8.2,3-16.1,4.9-24.1c1.9-8.2,4.7-16.2,7.6-24.1c3.6-10,7-20.1,11.1-29.9
				c5.3-12.6,11.3-24.9,17.9-36.9c6.3-11.5,14-22,21.5-32.6c8.5-11.9,17.1-23.9,27.9-34c1.3-1.2,2.5-2.6,3.5-4.2
				c3.3-5.2,7.7-9.2,12.1-13.4c6.8-6.6,14-12.7,21.4-18.5c11.3-8.7,21.8-18.4,34.5-25c8.9-4.6,17.8-9.5,27.8-11.2
				c5.2-0.9,10.4-1.4,15.6-0.5c5.2,0.8,10.3,1.6,15.5,2.6c10.3,1.9,20.5,4,30.4,7.5c6.7,2.4,13.4,5.3,19.5,9.4
				c3.2,2.2,6.8,3.6,10.4,4.8c12.8,4.3,24.9,10.2,37.5,15c4.9,1.8,9.9,3.2,15.1,3.9c2.2,0.3,3.5-0.1,4.2-2.2
				c2.2-6.2,7.2-11.2,8.6-17.8c0.4-2.1,1.9-4,3-5.9c0.6-1.1,1.5-2,1.8-3.1c4-15,14-27,19.9-41.1c3.9-9.3,9.4-18.2,15.6-26.5
				c5.5-7.4,10-15.4,13.4-24.1c5.2-13.4,16-20.6,29.3-24.8c11.7-3.7,23.1-8.2,34.4-13c5.1-2.2,10.8-3.2,16.2-4.8
				c13.5-3.9,27.3-6.7,41.3-8.5c3.2-0.4,6.4-0.1,9.6-0.3c16.6-0.9,33.3-1.9,49.9-2.7c2.5-0.1,3.6-1.1,4.5-3.1
				c4.4-10.9,12.4-19.4,19.9-27.8c12.5-14.1,28.7-21,47.9-19.8c4,0.3,8.1,1.1,11.7,2.6c4.5,1.8,9.5,2,13.7,4.4
				c1.2,0.7,2.6,0.9,4.1,0.6c14.6-2.9,25.9,4.2,36.3,12.6c7.3,5.9,14.5,12.1,20.5,19.5c2.3,2.8,4.4,5.8,6.6,8.6
				c5.8,7.5,11.9,14.6,18.5,21.5c6.7,7,11.3,15.6,16.7,23.6c4.1,6.1,7.8,12.3,9.9,19.2c2,6.6,4.2,13,6.4,19.5
				c0.8,2.3,1.5,4.5,2.7,6.7c1.6,3,3,6.3,3.1,9.7c0.3,10.5,3.9,19.9,9.3,28.8c1.2,2,2,4.4,2.7,6.7c3.1,10.6,9,19.6,15.3,28.5
				c6.9,9.9,13.8,19.8,18.6,31c1,2.4,2.2,4.6,3.5,7.2c8.8-3.1,18-4.6,26.3-8.7c3.4-1.7,7.1-2.8,10.7-3.9
				c18.9-6.1,37.7-12.6,57.3-16.4c8.3-1.6,16.5-3.8,24.8-5.4c13-2.6,26.3-2.9,39.5-3.7c5-0.3,10.1,0.1,15.1,0.4
				c8.1,0.4,15.1,4.2,22,7.8c8.3,4.4,16.9,8.6,24,15c10,9,20.8,17.2,27.9,29c1.5,2.5,4.4,4.1,6.2,6.5c8.1,10.7,15.7,21.9,23.1,33.1
				c9.6,14.5,17.6,29.8,25.5,45.2c8.1,15.7,15.9,31.6,20.5,48.8c3.9,14.6,7.4,29.2,11.1,43.8c2.9,11.5,4.9,23.2,7.6,34.7
				c3.2,13.3,5.1,26.8,7.8,40.2c2.4,11.6,5.9,23,7.6,34.7c1.3,9.3,3.3,18.6,2,28.2c-0.2,1.4-0.2,2.8,0,4.2
				c1.6,11.5,1.6,22.9-0.9,34.2c-2.9,13.3-6.9,26.2-13.5,38.4c-7.2,13.3-17.2,23.8-28.6,33c-5.4,4.4-12,7.3-17.9,11.1
				c-10.9,6.8-22.6,12.3-34.2,17.9c-22.7,10.9-44.3,23.7-67.2,34.2c-7.5,3.4-14.3,8.3-21.7,11.9c-11.7,5.7-22.9,12.5-34.7,18.2
				c-10.3,4.9-20.2,10.8-30.3,16.2c-3.5,1.9-7.3,3.3-10.9,5.1c-5.7,2.8-6.6,10.1-1.9,14.1c13.1,11.4,24.9,24,35.7,37.6
				c2.1,2.7,4.3,5.3,6.3,8.1c1.2,1.6,2.2,1.7,4,0.9c13.4-5.6,27.4-7.5,41.9-6.3c9.9,0.8,24.6,13.7,25.2,23.9
				c0.1,2.6,0.9,5.2,1.2,7.8c0.7,6.3,0.2,12.3-2.8,18.2c-5.6,10.9-10.9,22-16.3,32.9c-1.3,2.6-3.1,4.7-5.8,5.9
				c-1.1,0.5-2.2,1.1-2.9,2.1c-3.7,5.4-9.3,6.6-15.3,7.1c-3.1,0.3-5.6-0.6-7.4-3.1c-3.5-4.6-7.3-9.2-9.1-14.9
				c-0.7-2.2-2-2.8-4.1-3.5c-8.5-3.1-15.1,0.6-21.7,5.2c-2,1.4-2.7,2.6-2.2,4.9c0.8,3.1,1.1,6.4,2.2,9.4c3.6,10.6,2.9,21.4,1.9,32.3
				c-0.3,3.4-1,6.9-3.6,9.4c-4.4,4.3-9.7,5.5-15,2.7c-6.3-3.4-13.2-4.8-19.7-7.5c-4.7-2-9.1-4.4-12.9-7.7
				c-5.7-4.8-11.3-9.7-16.5-15.1c-5-5.2-7.8-11.8-8.9-18.8c-1.7-10.4-1.4-20.9,0.5-31.2c0.8-4.2,3-7.4,6.1-10.3
				c-8-10-15.7-19.9-23.5-29.7c-1.7,0.3-2.2,1.5-2.9,2.5c-7.3,9.4-22.1,15.1-35,6.9c-5-3.2-9.5-6.6-12.7-11.7
				c-4-6.5-9.2-12.3-11.4-19.8c-0.6-2-1.8-2.2-3.6-2.2c-4.6,0-9.2-0.1-13.8-0.5c-11.1-1-17.8-7.7-23.2-16.4c-4.4-7-8-14.4-11.2-22
				c-0.9-2.1-1.4-4.1-1.7-6.4c-0.8-6-0.8-5.9-6.7-4.9c-10,1.7-19.5,0.1-27.2-6.8c-7.5-6.7-12.8-14.7-11.2-25.8
				c1.1-7.8,1.9-15.6,4.9-22.9c3.3-8,9.4-13.9,15.5-19.8c3.8-3.7,4-3.6,0.8-7.6c-7.9-9.9-16.3-19.4-25.9-27.7
				c-3.9-3.4-3.9-3.3-7.7,0c-0.3,0.3-0.6,0.5-1,0.7c-7.8,6.5-8.5,8.2-6.4,17.9c2.6,11.8,2.7,23.9,4.7,35.8
				c0.9,5.4-0.2,11.2-0.4,16.8c-0.8,17.6-2.1,35.3-2.2,52.9c-0.1,16.2-0.9,32.6,2.3,48.6c2.4,12,5.3,23.9,9.2,35.5
				c1.9,5.8,4.5,10.1,9.5,13.6c3.5,2.5,6.8,4.7,10.8,6.1c8,2.8,15,7.8,22.6,11.3c5.9,2.7,11.9,4.6,18.4,5.3
				c8.8,0.9,17.5,2.5,26.3,3.9c4.6,0.7,9.2,0.5,13.8,1.7c3.8,1,7.3,2.4,10,5.2c3.5,3.6,6.8,7.4,10.3,11.1c0.1,0.1,0.3,0.3,0.4,0.5
				c7.4,10.6,4.3,28.6-6.2,36.2c-3.3,2.3-6.2,5-10.1,6.5c-12.9,5.1-26.2,5-39.7,4.2c-11.3-0.7-22.8-2.6-34.1,1.3
				c-3.9,1.4-8.3,1.5-12.5,1.6c-10.4,0.2-20.9,1.9-31.3,0.6c-2.5-0.3-5.2,0.3-7.8,0.6c-4,0.4-8,0.5-12-0.8c-1.3-0.4-2.9-0.7-4.1-0.4
				c-7.6,1.8-14.8-0.5-22.1-1.9c-10.9-2.1-21.1-6.6-30.6-12.5c-9-5.7-14.4-14.3-16-24.5c-2.5-15.8-4-31.9-5.2-47.9
				c-1.1-15.1-0.6-30.2-0.1-45.2c0.2-7.4,0.7-14.9-0.3-22.3c-0.8-5.8,0.5-11.6,0.4-17.5c-0.1-12.9,0.9-25.8,0.2-38.6
				c-0.4-6.6-0.2-13.2-0.7-19.8c-0.4-5.5-0.3-11.2-0.2-16.8c0.1-11.3,0.7-22.5,0.4-33.8c-0.3-12.4-1.3-24.8-2.3-37.2
				c-0.8-10.1,0-20.1,0.1-30.1c0.1-10.9,2-21.6,2.4-32.4c0.3-6.7,0.9-13-4-18.6c-1.4-1.6-1.7-4-2.7-6c-3-6.2-6.7-11.9-11.8-16.6
				c-8.7-7.9-15.7-17.2-21.2-27.5c-1.6-3-3.8-4.8-7.4-5.5C593.5,616.3,588,614.6,581.6,611.8z M752,501.9c1.5-0.5,3.6-1,2.9-2.9
				c-0.7-1.7-2.7-3-4.9-2.4c-1.2,0.3-2,1.3-2.4,2.5c-2.3,1.5-2.8,3.4-1.4,6.2C748.5,504.3,750.7,504.1,752,501.9z M802.5,512.3
				c-2.7-5.4-5.7-10.7-7.9-16.3c-4.2-10.3-12-18-18.3-26.8c-0.7-0.9-1.8-1.6-2.8-2.3c-0.8-0.6-1.6-1-2.8-1c-4,0.2-12.9,5.2-15,8.4
				c-0.5,0.8-0.4,1.6,0,2.3c1,1.5,1.9,3.2,3.2,4.3c7.6,6.7,13.6,14.8,20.8,21.9c1.8,1.8,3.9,3.5,5.2,5.8c3.7,6.2,6.7,12.8,10.8,18.8
				c1.4,1.9,2,4.4,2.7,6.7c1,3.3,2.3,6.4,4.1,9.3c1.2,1.9,2.4,3.9,2.8,6c1.5,6.9,4,13.5,7,19.9c0.7,1.6,1.4,3.4,1.6,5.2
				c1,7.2,4.7,13.6,6.4,20.6c0.2,0.9,0.9,1.8,1.5,2.6c6.1,8.5,12.8,16.4,20.8,23.2c4.4,3.7,9.6,5.6,14.4,8.4
				c2.2,1.3,4.7,0.8,7.1,0.8c3,0.1,4.4-2,5-4.4s-1.9-2.8-3.3-3.7c-2.9-2.1-6.9-2.8-9-5.9c-4.1-6.2-10.5-10.4-14.7-16.5
				c-2.6-3.8-5.5-7.5-8.9-10.4c-2.3-2-4.2-4.1-5.9-6.5c-3-4.2-5.4-8.8-8.2-13.2c-3.9-14.7-7.8-29.3-11.5-44
				C806.8,520.7,805.5,516.2,802.5,512.3z M790.3,576.6c2.6-0.7,5.6-1.5,4.9-4.9c-1.4-6.3-1.6-12.8-4.3-18.7
				c-2.5-5.5-4.2-11.2-5.5-17.1c-0.8-3.7-1.7-7.8-5.6-10c-1.3-0.3-2.4,0.4-3.3,1.1c-4.4,3.2-9.5,5.3-14.5,7.2
				c-10.5,4.1-20.7,8.7-30.3,14.6c-6.3,3.9-13,7.3-20.3,9.2c-1.5,0.4-3,1.2-4.4,1.8c-8,3.7-16.1,7.2-23.9,11.4
				c-8.7,4.7-18,8.5-27,12.8c-3.6,1.7-7,3.7-8.6,8c-0.7,2-2.6,3.6-4.3,4.9c-2.9,2.2-5.4,4.8-8.4,6.8c-3.7,2.5-3.9,5-2.2,9.2
				c2.1,5.1,6,8.9,8.8,13.5c4.8,7.6,11.3,13.9,14.3,22.7c5.5-3.1,9.9-6.2,14.3-9.4c6.6-4.9,13.6-9.3,21.1-12.9
				c18.2-8.9,37.1-16.2,54.8-26.4C760.2,592.1,775.8,585.5,790.3,576.6z M664.2,102.2c-6,3.1-10.8,7.5-15.5,12.2
				c-5.1,5.1-7.9,11.6-12,17.3c-4.2,5.9-8.5,11.8-12.3,17.9c-8.1,13.2-15.4,26.9-17.6,42.6c-1,6.8-2.6,13.7-1.2,20.3
				c1.7,7.7,2.4,15.5,3.8,23.2c1.6,8.5,2.1,17.3,4.7,25.5c4.4,14,9.5,27.8,14.3,41.6c0.5,1.5,1.3,3,2.2,4.3
				c8.8,12.4,19.9,22,33.3,29.1c10.8,5.7,22.5,8.7,34.5,10.3c13,1.7,26,2.7,38.8-1.1c1.5-0.4,3.7-0.1,4.3-1.7c1.2-3.3,4-4.1,6.6-5.7
				c2.7-1.7,5.5-3.3,8.1-5.2c11.8-8.4,22.5-18.3,34.1-27c3.2-2.4,4-4.5,4.1-8.4c0.1-3.8-1.6-4.5-4.4-4.6c-6.3-0.3-12.3-1.6-18.4-2.9
				c-11.8-2.6-23.2-6.6-34.4-11.2c-12.5-5.2-24.1-11.9-34.4-20.9c-8.5-7.5-15.8-16.1-21.4-25.9c-8.9-15.3-13.9-32-16.5-49.5
				c-2.6-17-2.8-34.1-1.7-51.2c0.6-9.4,1.2-18.8,1.8-28.3c0.5-0.3,0.8-0.8,0.4-1.2C664.9,101.3,664.5,101.8,664.2,102.2z
				 M615.5,321.4c-6.2-7.1-11.1-15-14.8-23.8c-5.6-13.3-11.3-26.4-14-40.8c-0.8-4.1,0.3-8.5-1.8-12.3c-1.5-4.8-0.8-10-2-14.9
				c-1.8-7.2-3.1-14.5-2.4-22.1c0.3-3.2,0.6-6.4,0.7-9.6c0.7-15.5,5.1-30,11.9-43.8c1.4-2.9,3-5.7,4.2-8.7c1.2-2.9,4.1-4.9,4.9-8.6
				c-4.7,0.5-9,0.8-13.4,1.4c-1.3,0.2-3,0.2-3.7,1.6c-2.7,6.1-8.5,6.5-13.8,7c-11.9,1-23.2,4.6-34.5,8
				c-16.4,4.9-32.6,10.4-48.8,15.7c-11.8,3.9-22.9,8.9-31.8,17.9c-1.4,1.5-2.4,2.5-1.1,4.6c2,2.9,1.3,6,0.7,9.3
				c-1.7,8.7-6.8,15.9-10.8,23.4c-8.1,15.3-16.2,30.5-23.4,46.2c-3.1,6.7-5.7,13.7-8.7,20.5c-4.4,10.2-7.1,20.9-8.7,31.9
				c-0.5,3.8-0.1,4.5,3.3,5.5c0.1,0,2.1-1.5,0.6,0.4c-1.6,2-0.1,3.4,0.6,4.9c6.6,13.2,14.5,25.5,22.1,38c4.7,7.7,9.3,15.6,15.7,22.1
				c7.5,7.7,13.6,16.3,20,24.8c1.9,2.5,2.3,5.5,4.2,7.9c6.3,7.8,12,16,19.9,22.5c5.3,4.3,8.1,10.9,12.5,16.1
				c3.7,4.5,6.5,9.6,10.5,14c2.3,2.6,4,3.4,7.5,2.2c3.3-1.1,6.9-0.5,9.4,2.5c2.4,2.8,2.2,6.1,0.3,9c-1.8,2.6-0.5,3.8,1.2,5.5
				c7.7,7.6,16.1,14.5,22.3,23.5c0.8,1.1,1.9,2.1,3,3c6,5.1,11.5,10.7,16.7,16.6c3.2,3.7,5.6,7.7,5.4,12.4c-0.2,4.6,3,3.8,5.4,4.7
				c3.2,1.2,3.7-1.2,4.6-3.2c2-4.6,4-9.2,6.1-13.8c1.9-4.2,4.4-7.6,9.3-8.6c2.4-0.5,4.3-2.2,6.1-3.8c7.5-6.8,16.1-12,25-16.7
				c10.3-5.4,21.3-9.6,30.9-16.4c7.2-5.1,14.9-9.4,23-13.1c2.2-1,4.5-1.8,6.5-3.2c11.7-7.8,24.3-13.7,37-19.4
				c11.2-5.1,22.4-10.2,34.1-14.3c7.4-2.6,14.3-6.2,21.3-9.7c13.4-6.8,27.1-13.2,41.2-18.5c1.3-0.5,3.2-0.6,3-3.1
				c-2.5-0.2-4.9-0.2-7.2-0.6s-4.5-1.6-4.2-4.2c0.3-2.5,2.6-2.7,4.7-2.7c9.4,0.1,18.2-2.9,26.9-6c6.7-2.4,13.6-4.4,20.5-6.2
				c5-1.3,6-2.5,3.3-6.6c-2.9-4.5-4.7-9.8-9-13.5c-2.1-1.8-3.4-4.6-3.8-7.4c-1.1-7.6-6.5-12.7-10.1-18.9c-0.2-0.3-0.8,0-0.9,0.5
				c6.9,8.5,7,21.9,0.6,28.9c-4.3,4.7-9.6,6.5-15.8,5.3c-6.3-1.2-9.5-5.7-10.5-11.8c-1.5-8.8,1.2-16.7,5.4-24.3
				c3.2-5.7,8.1-9.2,15.8-10c-8.3-13-14-26.4-20.3-39.3c-0.9,0.2-1.4,0.1-1.6,0.3c-14,10.8-27,22.9-40.5,34.3
				c-7.4,6.2-15,12.2-22.7,17.9c-3.6,2.7-7.4,4.9-12.1,5.1c-2,0.1-3.2,1.4-4.7,2.4c-4,2.6-7.9,5.4-12.7,6.7
				c-14.2,3.8-28.4,2.2-42.5,0.5c-14.8-1.8-28.8-7.3-41.9-14.5c-5.5-3-10.3-6.9-15.3-10.7C626.9,335.9,621.7,328.3,615.5,321.4z
				 M766.4,626.7c7.4,0.4,13.1,2.9,17.8,6.5c9.7,7.2,20,13.5,28.9,21.8c6.3,5.9,11.1,12.6,14.6,20.4c2.3,5.2,1.9,10.2-0.3,15.2
				c-1.7,3.8-3.4,7.8-6.3,11c-2,2.2-2,3.9-0.4,6.4c4.1,6.5,8.1,12.9,13.1,18.7c1.9,2.2,2.9,2.3,5.4,1.1c8.3-4.2,17.1-5.7,26.3-3.8
				c3,0.6,5.9,1.1,8.9,1.6c17,3,22.2,11.2,25.5,27.9c1.3,6.8,2.1,13.9,2.5,20.9c0.2,3.3,1.3,6.3,2.7,9.2c1.9,4.1,2,4.2,6.3,2.5
				c4.1-1.6,8.2-3.5,12.4-4.7c11.1-3.2,21.4-8.2,31.7-13.1c11.3-5.3,22.3-11.2,34.1-15.3c2.1-0.7,3.9-2,5.8-3.2
				c6.2-3.8,12.1-7.8,18.8-10.8c5.3-2.3,10.4-5.4,15.3-8.4c4.5-2.8,8.9-6.1,13.2-9.4c4.2-3.3,8.8-6.5,13.7-8.5
				c3.6-1.5,6.9-3.1,9.6-5.8c1.1-1.1,2.6-1.8,4-2.6c16.2-8.7,33.4-14.8,50.6-21.1c5.4-2,7.1-3.6,7.7-9.3c0.1-1.4,0.1-2.8,0.1-4.2
				c-0.1-12-0.8-24.1-0.3-36.1c0.3-7.5-0.8-14.8-0.7-22.2c0.1-4.2,0.3-8.6-0.6-12.5c-1.5-7.1-1.9-14.4-2.5-21.5
				c-0.8-9.9-3.4-19.3-4.6-29c-1.5-12.2-5.2-24-7.6-36c-1.5-7.3-2.7-14.8-5.3-21.6c-3.3-8.3-5.2-16.9-8.3-25.2
				c-3-7.7-5-15.8-8.4-23.2c-4.1-9.1-8.1-18.2-14.4-26.3c-5.5-7.1-12.6-13-16.9-21.1c-0.4-0.8-1.6-1.2-2.3-1.9
				c-12.1-10.6-25-20.3-34.9-33.3c-2.3-3-5.3-4.3-9.5-3.5c-7.5,1.5-15,2.6-22.6,3.9c-13.8,2.5-27.9,3.5-41.8,6.1
				c-8.7,1.7-17.5,2.6-26.1,4.2c-5.6,1-6.1,2.1-4.2,7.4c1.5,4,1.4,7.7,0.5,11.8c-1,4.4-2.9,8.6-3.5,13.1c-0.7,5.1-3.1,9.6-5.7,13.9
				c-2.1,3.4-4,7-5.5,10.7c-8.4,20.1-17.8,39.6-32.5,56c-2.7,3-2.6,5.1,0.7,7.2c3.1,2,5.9,4.3,8.7,6.5c8.3,6.7,17.5,12.2,24.8,20.1
				c7.4,8.1,6.2,18-3.2,23.2c-8.5,4.6-16.2,10.3-24.1,15.8c-8.7,6.1-17.4,12.3-27.3,16.5c-5.4,2.4-5.4,2.4-1.9,7
				c0.1,0.2,0.2,0.4,0.4,0.5c10.8,10.1,18.3,23.6,32,30.7c1.1,0.5,2,1.4,2.9,2.2c3.3,3,5.5,6.7,4.7,11.2c-0.6,3.2,0.6,4.2,3.4,5.1
				c5.8,1.9,10.8,5.3,15.6,9.1c2.5,2,3.2,4.6,2.3,7.6c-0.9,2.9-3.4,3.7-6.1,4.2c-2.3,0.5-4.3-0.6-6.4-1.4c-4.2-1.9-8.5-3.7-12.7-5.7
				c-2.7-1.3-4.7-0.8-7.2,0.8c-9.8,6.6-20.3,6-30.3,1c-14.2-7.2-25.5-18-35.2-30.6c-3.4-4.5-7.1-8.7-10-13.6
				c-0.7-1.2-2.1-2.8-3.2-1.1c-3.3,5-9.1,7.2-12.8,11.8c-2.6,3.2-5.4,6.8-9.5,8.2C772.4,620.8,769.9,623.1,766.4,626.7z
				 M1159.1,648.8c0.1,0,0.2,0,0.3,0c0,3.6-0.1,7.2,0,10.9c0.3,10.7-0.4,21.3-3.8,31.5c-2.1,6.2-5.8,11.1-11.6,14.1
				c-3.5,1.9-7.3,3.4-11,4.9c-11.5,4.8-23.4,8.4-34.7,13.6c-4.7,2.2-9.8,3.9-14,7c-6.2,4.5-13.1,7.9-19.6,11.6
				c-10.3,5.9-18.8,14.7-30.3,18.4c-6.7,6-15.4,8.5-22.8,13.3c-4,2.6-8.2,5.4-12.6,6.9c-7.8,2.8-15,6.8-22.3,10.6
				c-13.5,6.8-27.4,12.5-41.7,17.4c-9.9,3.4-20,6-30.1,8.7c-6.3,1.7-11.7,0.3-16.4-4.7c-3.5-3.7-5.7-7.8-6.6-12.6
				c-0.5-2.8-1.3-5.5-2.4-8.1c-4-10.2-5.5-20.9-5.5-31.8c0-2.2,0.1-4.4-0.7-6.5c-0.5-1.4-1.1-2.7-2.6-3.1
				c-7.3-1.9-14.6-3.3-21.8,0.4c-4,2.1-5,4.4-3.4,8.4c1.2,3,1.9,6.1,2.8,9.2c2.4,8.5-1.7,18.3-9.8,21.6c-9.3,3.8-18.2,8.7-28.1,10.9
				c-2.2,0.5-4.2,1.6-5.8,3.1c-4,3.7-8,7.3-11.5,11.5c-4.5,5.4-5.4,12-6.2,18.6c-0.3,2.9,1.2,4.4,3.6,5.6c3.9,1.9,7.5,0.6,11-1.1
				c4.3-2.1,8.7-4.2,12.9-6.6c6.3-3.6,11.8-2.3,17.4,1.6c3.5,2.4,5.2,5.4,5.2,9.6c0,3.7-0.7,7.1-2.3,10.5
				c-2.6,5.6-2.7,11.2,0.4,16.8c2.2,4,4.3,8.2,6.3,12.3c0.9,1.9,2.1,3.4,3.7,4.7c3.8,3.3,8.3,3.2,11.7-0.4c2.3-2.5,4.4-5.2,6.2-8.2
				c4.8-7.7,19.3-6.8,23.5,1.2c1,1.8,1.4,3.8,1.1,5.8c-0.3,1.8-0.6,3.6-1.1,5.3c-3.8,12.6-0.5,23.3,8.2,32.7
				c3.5,3.9,5.4,3.7,8.5-0.8c3.2-4.7,5.7-10,6.8-15.4c1.3-6.4,4.7-10.3,9.5-13.9c5.5-4.1,8.7-4.6,14-0.3c2.9,2.3,4.6,1.7,7.3-0.1
				c9.8-6.8,13.2-17.4,16.8-27.8c1.7-5.1,2.7-10.5,5.8-15.1c6.7-9.7,16.4-15.9,25.8-22.4c1.9-1.3,4.4-1.6,6.4-0.6
				c2.8,1.4,4.9,0,7.3-1c7.1-2.9,13.4-7.2,20.3-10.6c9.6-4.7,19.2-9.2,28.6-14.3c16.9-9.2,34.6-17.1,51.5-26.2
				c11.6-6.3,23.6-11.8,35.3-18c14.9-7.9,30-15.4,44.6-24c9.5-5.6,17.1-12.8,23.1-21.5c7.8-11.4,12.4-24.3,15-37.9
				c1.6-8.8,0.7-17.6,0.8-26.5c0.2-15.6-1.7-31-5.3-46c-4.4-18.1-7.1-36.6-11.3-54.7c-2.5-10.9-4.5-22-6.9-33
				c-2.3-10.2-5.1-20.3-7.4-30.5c-3.4-14.5-7.6-28.7-14.1-42.2c-5.6-11.6-11.2-23.2-17-34.6c-3.8-7.3-7.3-14.9-12.3-21.4
				c-7.2-9.4-12-20.3-19.9-29.4c-4-4.6-7.9-9.6-11.3-14.8c-2.2-3.3-4.8-6.6-7.6-9.2c-7.5-6.9-14.2-14.7-23.3-19.9
				c-12-7-23.8-14.2-38.6-13.3c-11.4,0.7-22.9,0.8-34.2,3.1c-6.9,1.4-13.8,2.8-20.7,3.9c-10.5,1.7-20.8,4.4-31,7.2
				c-17,4.7-33.8,10.4-50.6,15.9c-3.7,1.2-9.6,0.6-10.8,3.8c-1.3,3.4,2.5,7.7,3.8,11.7c0.1,0.2,0.2,0.4,0.2,0.6c0.8,2,2,2.6,4.2,2
				c14.6-3.7,29.7-5.2,44.5-7.7c8.7-1.5,17.4-3.1,26.2-3.8c9.4-0.7,18.5-3.5,27.9-4.9c14.5-2.1,25.9,3.4,35.7,13.4
				c4.8,4.9,9.5,9.8,14.9,14.1c7.6,6.2,15.4,12.4,22.2,19.3c7.3,7.4,14.4,15,20.7,23.4c9.3,12.3,17.1,25.3,22.4,39.7
				c5.1,13.7,9.7,27.7,14.1,41.7c2.4,7.6,4,15.6,6.2,23.3c1.4,5,1.4,10.5,3.2,15.3c3.4,9.4,4.3,19.2,6.2,28.8
				c2.8,14.6,4.4,29.4,5.6,44.2c1,12.2,1.3,24.5,1.7,36.7C1159.3,636.7,1159.1,642.8,1159.1,648.8z M364.6,710.2
				c-0.6-2.6-2.3-3.8-3.7-5.1c-4.5-4.2-9.6-7.1-15.4-9.1c-7.1-2.4-8.8-6.4-7.4-13.6c0.8-4.2,2.7-7.4,6.4-9.7c3-1.8,3-2.6,0.2-4.9
				c-4.7-4-9.7-7.1-16.4-4.5c-3.4,1.3-7.2,1.5-10.4,3c-11.6,5.5-22.5,11.5-23.6,26.8c-0.6,7.5-2.8,15.2-9,20.6
				c-6.7,5.9-14.5,10.1-23,12.9c-10.7,3.6-22.1,4.1-33.1,6.8c-12.4,3.1-24.9,3.6-37.6,2.3c-8.6-0.9-17.1-3-25.8-2
				c-6.8,0.8-13.1-0.9-19.5-2.9c-5.8-1.8-10-5.9-15-8.9c-12.8-7.6-18.9-20-23.6-33.2c-2.5-7.1-2.9-15-3.6-22.6
				c-1.1-11.2-4-22.1-6-33.2c-1.7-9.3-4.2-18.4-6-27.7c-3.1-15.6-1.2-31.3,0.6-46.9c1-8.3,3.5-16.5,5-24.8
				c1.8-9.9,3.1-19.8,4.7-29.8c1.4-8.7,4.4-17.2,5-26.1c0.3-4.7,1.4-9.1,3.3-13.4c3.3-7.5,6.9-14.9,9.5-22.8
				c2.2-6.7,4.2-13.4,7.4-19.7c6.2-12.2,12.1-24.5,16.9-37.3c4.4-11.8,10.8-22.4,18.3-32.4c2.7-3.5,5.3-7,7.8-10.7
				c6.1-8.8,12.3-17.5,20.5-24.4c5.5-4.6,11.6-8.8,19.3-9.3c11.6-0.8,23.1-1.8,34.8-1.4c11.6,0.4,22.8,2.2,33.9,5.1
				c15.4,4,30.5,8.8,46.3,11c4.8,0.7,9.6,1.2,14.3,2c5.5,1,11,3.5,15.8-1.7c5.1-0.4,6.4-3.9,6.7-8.3c-1.8-0.5-3.6-1.1-5.3-1.4
				c-7.6-1.1-14.8-3.7-21.9-6.6c-4.3-1.8-8.2-4.2-12.7-5.6c-11.3-3.5-22.1-8.5-32.6-14c-5.7-3-11.4-5.9-17.7-7.4
				c-8.6-2-17.1-4.6-25.8-6.4c-7.3-1.5-14.8-2.5-22,0.6c-4.3,1.8-8.6,3.6-12.6,5.8c-15,8.4-28.3,19.2-41.2,30.4
				c-14.1,12.2-27.3,25.6-37.7,41.3c-1.7,2.7-4.3,4.8-6.5,7.1c-1,1-2.3,1.8-2.9,3c-6.7,12.4-16,23.1-22.7,35.6
				c-6.9,13-14,25.7-18.9,39.6C76.2,451.8,69.9,467,66,483c-1.9,7.8-5.1,15.5-5.1,23.6c-0.1,11.1-0.2,22.1-0.4,33.2
				c-0.2,14.9-0.6,29.8,0.7,44.6c0.7,8.2,0.6,16.6,1.8,24.7c2.4,14.9,3.6,29.9,5.3,44.9c1,8.9,2.9,17.4,6.2,25.7
				c4.1,10.3,8.9,20.2,13.2,30.4c3,7,6,14.1,9.5,20.8c4.7,8.9,11.9,15.4,21.2,18.9c17.3,6.6,35,12.2,53.9,11.4
				c7.8-0.3,15.8,0.1,23.4-1.3c11.5-2,22.8-4.7,34.3-6.5c4-0.6,8.1-0.9,11.7-2.4c5.8-2.5,11.4-4.2,18-3.3c6.3,0.9,12.8,1.4,19.2,2.2
				c10.2,1.2,18.8,5.4,25.4,13.5c5.1,6.2,11.2,11.6,17.6,16.4c3.9,2.9,8,5.4,12.9,6.3c1.4,0.3,2.9,1.1,3.9-0.2c1-1.2,0.2-2.7-0.3-4
				c-1.4-3.3-3.6-6.3-4.5-9.9c-0.8-3.4-0.7-6.6,1.9-9c2.9-2.7,5.8-5.8,10-6.4c2.9-0.4,3.1-1.9,2.7-4.2c-0.6-3.6-2.1-7-3.7-10.2
				c-1.3-2.5-2.1-5.2-3.1-7.8c-2.2-5.9-1-10.9,3-15.7c2.2-2.6,4.5-4.6,7.7-5.5C356.5,712.6,360.4,711.5,364.6,710.2z M515.4,557.6
				c-0.2,0.6-0.4,1.1-0.4,1.6c-0.2,17.9,1.2,35.8,2.3,53.6c1,15.7,1.2,31.3,1.8,47c0.6,15.9,0.4,31.8,0.4,47.7
				c-0.2,29,0.7,57.9,2.1,86.8c0.5,9.6,1.5,19.2,2.4,28.8c1.7,18.2,2.9,36.5,4.6,54.7c2.5,27.3,1.2,54.7,2.7,82
				c0.6,11.6,0.4,23.3,0.8,35c0.3,8.3-4.2,14.3-12.4,15.7c-1.4,0.2-2.8,0.5-4.1,0.9c-12.6,3.6-25.5,5.5-38.6,5.8
				c-8.8,0.2-17.7,0.8-26.4,1.5c-6.9,0.6-14,1.3-20.8,3.1c-4.1,1-8.4,1.4-12.6,1.3c-3.9-0.1-7.6,0.4-11.4,1
				c-10.1,1.5-20.2,2.9-30.5,2.9c-4.6,0-9.2,0.3-13.9,0.3c-0.7,0-1.6,0.1-2.1,0.9c-0.5,0.9,0,1.7,0.6,2.1c5.4,3.6,9.9,8.6,17.4,8.3
				c11.5-0.4,23-0.5,34.4,0.3c14.4,1,28.8,3,43.2,4.6c13.6,1.5,27.1,3.7,40.8,4c4,0.1,7.9,1.1,12,0.8c13.4-0.8,26.8-2,40.2-3.5
				c5.2-0.6,10.3-1.1,15.3-2.9c3.4-1.2,7.1-1.7,10.5-2.7c13.7-4.4,15.3-6.4,14.5-18.9c-0.9-14.2-2.9-28.4-6.4-42.2
				c-2-7.9-2.2-15.9-2.8-23.9c-0.4-5.2-1.1-10.5-0.3-15.6c0.8-4.9,0.3-9.6-0.3-14.4c-1.4-10.6-3-21.1-4.5-31.7
				c-1.7-12.6,0.6-25.3-0.8-37.9c-0.3-2.4-0.1-4.8,0.2-7.2c1.1-6.9-0.1-13.6-1.3-20.3c-1-5.7-2.8-11.3-4-17
				c-2.5-12.5-2.5-25.1-2.7-37.8c-0.1-8.6,0.8-17.3-0.9-25.9c-3.3-17.4-5.7-34.9-6.3-52.6c-0.2-4.6-0.5-9.3-1.3-13.8
				c-2.7-16.4-1.9-32.9-2-49.4c0-13.1-0.5-26.2,0.5-39.2c0.3-3.3-0.5-6.4-4.7-7.2c-1.1-0.2-2.2-1-3.1-1.8
				c-6.3-5.7-13.3-10.4-20.7-14.5c-2.7-1.5-4.9-3.5-6.4-6.3C519.4,559.4,518,557.8,515.4,557.6z M719.3,657.4
				c-2.1-0.4-3.4,0.6-4.8,1.2c-5.1,2.4-9.6,5.9-14.3,8.9c-6.4,4.1-12.1,9.2-19.1,12.4c-5.2,2.4-9.3,6.3-8.8,13
				c0.2,2.4-0.3,4.8-0.4,7.2c-0.5,16.9-0.8,33.7-0.2,50.6c0.1,1.8,0.3,3.5,1,5.3c0.7,1.9,1.2,3.9,1.2,5.9c0.2,8.9,1,17.7,1.3,26.5
				c0.5,15.7,0.3,31.4,0.3,47.1c0,3.4-1,6.9-0.4,10.2c2,11.6,1.2,23.3,1.4,34.9c0.2,14.8-0.5,29.7-0.2,44.6
				c0.2,9.6,0.9,19.3-0.2,28.9c-0.4,3.6-0.3,7.2,0,10.8c0.5,6.8,1.4,13.6-0.3,20.4c-0.4,1.6,0.1,3.2,0.6,4.7
				c0.6,1.7,1.2,3.4,1.4,5.2c1.1,9.2,1.5,18.4,2.4,27.6c0.7,6.7,3.7,10.7,9.4,13.4c8.3,3.9,17,6,25.9,7.6c4.4,0.8,8.8-0.3,13.2,0
				c13.1,1,26.2,0.8,39.2,0c7.8-0.5,15.5-1.1,23.2-3c10.1-2.6,20.5-0.7,30.7-0.2c9.4,0.4,18.8,1.2,28.2-0.9c2.7-0.6,5-1.8,6-4.4
				c0.5-1.3-3.5-4.7-6-5.4c-0.6-0.2-1.2-0.2-1.8-0.3c-12.8-1.1-25.6-2.7-38.2-5.1c-12.8-2.4-24.8-6.6-35.7-13.8
				c-3.1-2-6.2-3.6-9.8-4.4c-4.6-1-8.6-3.4-12.1-6.5c-2.1-1.9-4.5-3.3-6.7-5c-6.6-5.3-13-10.9-13.2-20.5c-0.1-3.7-1.4-7.1-2.8-10.5
				c-4.4-10.9-5.8-22.6-8.3-33.9c-2.6-11.8-3.2-23.9-2.6-36c0.5-9.1-0.7-18.1-0.1-27.1c0.7-11.4,0.5-22.9,1.7-34.4
				c0.8-7.8,1.1-15.8,0-23.5c-1.5-10.6-1.5-21.3-3.5-31.8c-0.7-3.5-1.2-7.2-0.6-10.8c0.3-2.3-0.7-3.8-2.6-5
				c-9.8-5.9-17.3-14.4-24.9-22.7c-4.8-5.3-8.2-11.3-10.5-18.2c-2.2-6.6,0.2-12.2,3-17.7c0.6-1.1,1.5-1.9,2.8-2.1
				c3.7-0.6,5.1-3.3,6.4-6.4c0.7-1.7,1.6-3.3,2.6-4.7c4.4-5.8,10.6-6.5,16.1-1.7c2.2,1.9,4.3,4.1,7.7,4.3c0.5-3.8,1.3-7.3,1.5-10.9
				c0.3-4.1,1.5-8.2-1.3-12.2c-1.2-1.7-0.7-4.3,0.3-6.4C718.1,661.2,719.4,659.8,719.3,657.4z M676.2,145.6
				c0.6,21.2,2.9,40,9.4,58.2c4.2,11.6,9.2,22.7,17.4,32.1c5.7,6.5,11.9,12.7,19.2,17.2c6.1,3.8,12.5,7.2,19.2,10.1
				c18.5,8.1,37.9,13.4,57.6,17.5c6.2,1.3,11.1-1.9,14.6-6.2c2.9-3.5,4.3-8.1,1.3-12.8c-2.2-3.4-2.5-7.5-3.3-11.5
				c-2.6-13.9-2.5-28.1-8.1-41.6c-6.5-15.5-14.6-30-23.7-43.9c-7.1-11-16.9-19.9-26.3-28.9c-5.1-4.8-10.2-9.7-15-14.8
				c-3.5-3.8-7.4-7.7-12-9.9c-8-3.9-14.9-9.5-22.7-13.7c-6.1-3.3-12.4-5.7-19.3-6.1c-4-0.3-5.5,0.6-6.4,4.6c-1,4.1-1.8,8.2-1.9,12.5
				C675.8,121.5,675.8,134.5,676.2,145.6z M932.1,923.5c0.2,1.2,0.1,1.8,0.4,2.3c4.9,7.8,10.6,15.1,16.4,22.3
				c5.2,6.6,11.2,12.6,15.4,20c3.5,6,3.5,9-2.1,13.4c-3.2,2.5-4.6,5.4-4.9,9.2c-0.1,1.6-0.5,3.2-0.7,4.8
				c-1.6,11.3,0.4,21.2,10.2,28.4c2.9,2.1,5.4,4.9,8,7.3c1.5,1.3,2.8,2.8,5.4,3.3c-1.8-5-0.9-10-1-14.9c-0.1-7.7,3.1-14.6,8-20.2
				c8.6-9.9,20-16,31.1-22.5c3.5-2.1,7.4-3.2,11.3-4.1c5.8-1.2,10.8,0.7,14,5.8c1.2,1.9,2.6,3.5,4.6,4.6c1.8,1,3.2,2.4,4.5,3.9
				c2.1,2.6,4.3,5.1,6.4,7.5c1.4-0.8,1.9-1.9,2.5-3c4.7-8.8,5.4-18.5,4.9-28.1c-0.2-4-2.1-8.4-6.4-10.3c-6.3-2.7-12.9-4.6-19.9-2.2
				c-1.9,0.6-4,0.7-5.9,1.4c-4.2,1.4-8.2,1.7-11.6-1.6c-4.6,5.7-8,7-12.6,5c-1.8-0.8-3.5-2-5.1-3.2c-11-8.6-19.8-19.3-29.1-29.5
				c-4.3-4.7-8.7-9.4-13-14C953.7,916.6,945.1,924.5,932.1,923.5z M820,772.3c-14.4-13-23.4-29.1-32.2-45.4
				c-2.1-3.9-3.3-8.5-6.2-11.6c-3.4-3.8-3.8-7.2-2-11.5c0.7-1.7,1.2-3.4,1.8-5.1c3.1-7.9,1.2-14.5-5.2-20
				c-6.8-5.9-13.6-11.9-20.4-17.9c-2.3-2-5.1-3.2-7.9-4.2c-1.4-0.5-2.9-1-4.1,0c-3.4,2.8-7.6,4.1-11.5,6.9c2.8,3.5,5.5,6,8.6,8.3
				c3.8,2.8,6.8,6.3,8.7,10.6c2.1,4.7,2.7,9.3-0.5,13.7c-2.8,3.9-5.8,7.7-9.9,10.5c-7.3,5-14.5,10.2-20.9,16.4
				c-1.3,1.3-3.1,1.8-4.7,2.5c-4,1.6-8.2,0.8-13.3,1.3c6.8,7.9,13.4,14.4,21.3,19.5c6.4,4.2,8.6,3.7,14.2-1.8
				c3.2-3.1,6.4-6.1,9.7-9.1c3-2.7,6.4-3.1,10.1-1.3c2.4,1.1,4.5,2.5,6.5,4.3c10.6,9.3,19.7,20.1,28.7,30.8c2.1,2.5,4.2,4.9,6.2,7.4
				c1.7,2.2,3.8,2.7,6.4,1.7c3-1.2,6.2-1.8,9.4-2.2C815.5,775.7,817.8,774.6,820,772.3z M767,504.6c-2.9,5.4-8.5,6.8-12.8,10.1
				c-4.5,3.5-9.8,4.5-15.4,4.2c-1.6-0.1-3.1-0.1-4.6,0.7c-5.3,2.8-9.2,0.7-10.3-5.2c-0.5-3,0.3-5.7,1.7-8.1
				c5.1-8.8,9.5-18.3,19.2-23.5c1.2-0.6,1.9-1.4,1.2-2.8s-1.7-1.5-3-1.1c-0.4,0.1-0.8,0.3-1.1,0.5c-8,3.8-16.5,6.5-23.9,11.3
				c-5.2,3.3-5,3.2-3.9,9.2c1.8,9.4,3,18.7-2.8,27.4c-4.4,6.6-9.9,10.4-18.1,9.5c-7.9-0.8-12.7-5.4-15.1-12.7c-1.3-4-2.7-8-4.3-12.7
				c-6.2,4.5-13.5,6.3-19.8,10.2c1.4,2.5,2.5,4.6,3.9,6.6c3.1,4.7,2.3,9.4-0.3,13.7c-6.5,10.5-15.4,19-26.7,23.7
				c-6,2.5-12.7,4.8-19.2,5.4c-5.6,0.5-7.8,2.5-8.6,7.4c-0.3,1.7-2.1,3-1.2,5.4c4.1,0.2,8.3,0.1,12.4,0.8c6.2,1.2,11.5-0.7,16.7-3.5
				c2.3-1.2,4.6-2.4,7.1-3.4c8.8-3.5,18.7-4.9,24.9-13.3c0.2-0.3,0.6-0.5,1-0.7c12.1-6.8,24.1-13.6,37.2-18.5
				c7.7-2.9,15.4-5.8,22.5-10.2c9.9-6.2,20.5-10.9,31.3-15.3c6.3-2.6,12.5-5.2,18-9.8C771.2,507.6,769.6,506.2,767,504.6z
				 M876.3,526c-6.6-3.5-10.5-8.4-15.7-11.9c-4.4-3-8.2-6.3-11-10.9c-1.7-2.9-4.5-5.1-6.7-7.7c-1-1.1-2.1-1.8-3.7-1.1
				c-6.1,2.6-11.7,6.1-17.3,9.6c-1.7,1-1.9,2.3-1,4.1c1.6,3,2.7,6.2,3.4,9.6c2,10.5,5.4,20.6,8.4,30.8c1.1,3.6,1.7,4,5,2.2
				c6.2-3.3,12.2-7,18.4-10.4C863,536.3,868.1,530,876.3,526z M798.8,689.5c4.4-0.8,7.9-2.1,11.5-1.3c1.1,0.3,2.1,0,2.5-1
				c1-2.3,2.4-4.5,0.8-7.4c-2.4-4.4-4.8-8.7-8.5-12.3c-9.3-9-20.1-15.9-30.5-23.4c-5.6-4-12.1-3.8-18.5-3.5c-1,0-1.9,0.5-2.1,1.6
				c0.3,0.9,1.1,1.2,1.8,1.4c5,1.6,9.4,4.2,13.4,7.8c5.2,4.7,10.7,9.1,16.3,13.4C793.2,670.9,799.7,677.9,798.8,689.5z M811.5,490.5
				c5.9-3.8,11.6-7.5,17.3-11.2c1.2-0.8,2.1-1.8,2.5-3.3c2.7-8.6,5.5-17.2,7.9-25.9c0.6-2.3,1.3-4.8,0.9-7.4
				c-5.8,1.9-11.2,3.3-16.2,6c-1.7,0.9-2.3,1.8-2.1,3.7c1.1,9.4-3.2,16.6-9,23.4c-1.8,2.1-5.5,3.3-5.3,6.1
				C807.7,484.7,809.2,487.6,811.5,490.5z M802.9,705.2c-2.5,0.7-4.2,2.3-6.2,3.7c-2.4,1.7-2.9,3.2-1.2,5.9
				c5.9,9,11.6,18.3,17.5,27.3c1.9,2.9,3.6,6.2,7.1,8.1c0.8-2.4,1-5,2.3-6.8c2.6-3.4,1.6-5.8-1-8.3c-0.9-0.8-1.6-1.8-2.4-2.7
				C812.1,724.4,807.5,715.1,802.9,705.2z M613.2,554.4c4.2-1.9,8.9-1.5,12.8-3.5c6.9-3.6,12.3-8.8,17-14.9c2.4-3.1-0.7-4.8-1.7-6.8
				s-2.7-0.7-4.1,0c-6.6,3.5-12.6,7.8-18.7,12c-1,0.7-2.1,1.4-2.1,2.8C616.5,547.8,614,550.7,613.2,554.4z M703.2,516.2
				c-1.3-3.6-0.1-7.7-1.1-11.6c-0.9-3.8-2.4-5-5.9-3.8c-4,1.3-7.8,3.1-11.7,4.7c-2,0.8-2,2.2-1.2,3.9c3.2,6.1,5.7,12.7,14,14
				c2.3,0.3,3.4,0.1,4.3-1.6C702.5,520,703,518.3,703.2,516.2z M854.8,411c6.3,3.8,10.6,7.7,12.8,14.2c3.5-6.4,6.7-12.1,9.7-17.9
				c1-2,1.5-4.4,0.4-7.3C870.7,404.8,863.5,408.1,854.8,411z M1009.9,933.8c-0.5-2.6-1.7-4.1-2.9-5.6c-4.2-4.9-8.9-9.4-12.6-14.6
				c-4.3-6.1-10.5-10.5-14.7-16.6c-0.8-1.1-2-2-3-3c-0.8-0.8-1.7-1-2.6,0c-0.8,0.9-0.7,1.8,0,2.7c0.4,0.5,0.9,0.8,1.3,1.3
				c9.2,11,19.5,20.9,29,31.5C1005.8,931.1,1007.1,932.8,1009.9,933.8z M713,706.8c-2.6-1.8-5-3.3-7.3-5c-1.6-1.3-2.8-1.3-3.8,0.6
				c-0.7,1.4-1.5,2.8-2.2,4.3c-1,1.9,0,3,1.6,3.8C705.7,712.7,708.5,712,713,706.8z M796,465.1c2.9-1.8,5.4-4.2,6.8-7.9
				c-3.5-0.5-5.9,1.4-8.6,2.4c-1.4,0.5-1.7,1.5-0.8,2.8C794.1,463.3,794.6,464.4,796,465.1z M732.9,692.4c0.5-0.1,0.7-0.1,0.8-0.2
				c2.1-1.2,2.5-2.8,1-4.8c-0.5-0.6-1.1-1.2-1.9-0.6c-1.6,1.2-1,2.8-0.6,4.3C732.3,691.4,732.5,691.7,732.9,692.4z M842.8,369.3
				c2.2-1.9,2.1-3.6,1.3-5.7C842,365.2,842.8,367,842.8,369.3z M834.1,416.3c0.1,0.2,0.3,0.4,0.4,0.7c0.1-0.1,0.4-0.3,0.4-0.4
				c-0.1-0.3-0.2-0.5-0.4-0.8C834.4,416,834.3,416.1,834.1,416.3z"/>
			<path class="st0" d="M1237.6,998.1c3.3-0.4,5.5-2.7,8.2-3.9c5-2.2,10-3.4,15.3-2c13.5,3.5,27.1,1.8,40.7,1.8
				c11,0,18.9,6.3,21.3,17.1c0.8,3.7,2,7.3,0.6,11.2c-0.8,2.4-2,4.4-4,5.8c-5.4,3.7-11.1,6.5-17.7,7.1c-5.4,0.5-10.8,1.6-16.2,1
				c-1.8-0.2-3.9-0.4-5,1.3c-2.2,3.4-5.7,4.1-9.3,4.8c-10,2.1-20.2,3.3-30.4,3.4c-5.4,0.1-5.4,0.1-6.6,5.5c-0.1,0.6-0.3,1.2-0.3,1.8
				c-0.3,10.6-6.2,18.7-13.3,25.5c-7.4,7.1-16.7,8.3-26.5,5c-0.4-0.1-0.9-0.2-1.1-0.5c-2.7-4-6.8-4.1-11.1-4.1c-2,0-4.1-0.6-5.7-1.9
				c-4.9-4.1-10.7-7.1-13.9-13c-5.5-10.2-10-20.8-10.7-32.4c-0.8-12.5-0.2-24.9,3.4-37.1c0.4-1.4,0.7-2.6-0.7-3.8
				c-5.6-4.7-4.3-11-1.9-16.1c5.7-12.1,14.6-20.1,29-21.3c11.2-0.9,22,2.3,33,2.1c2.4,0,5.3,0.8,6.5,2.8c3.4,5.7,11.8,5.8,13.5,13.6
				c1.3,5.8,1.6,11.5,1.8,17.3C1236.7,992.1,1236.5,995.1,1237.6,998.1z M1185.1,1056.3c2.4-4.6,3.8-9,4.4-13.6
				c1.5-12.5,1.1-25.1,1.1-37.7c0-10.6-4.4-19.4-9.4-28.2c-0.9-1.5-2.1-1.9-3.5-1.2c-3.2,1.5-6.5,3.7-6.6,7.2
				c-0.1,4.6-1.3,9.1-1.2,13.8c0.2,11.3,2.1,22.4,3.2,33.5c0.4,4,1.2,8,2.9,11.7C1178.2,1046.8,1179.3,1052.6,1185.1,1056.3z
				 M1203.6,1068.3c2.3,0.5,3.8,0.1,4.6-1c3.5-4.3,7.9-8.1,8.9-14c1.3-6.9,1.8-14,1.9-21c0.4-15.9,0.2-31.8,0.4-47.6
				c0-2.5-0.3-4.1-3-4.9c-2.4-0.7-3.6-3.1-4.6-5.3c-2.4-5.4-2.4-5.4-8.2-4.5c0.6,3,2,5.6,3.6,8.2c3.1,4.9,4.2,10.3,4.9,16
				c1.2,10.8,0.6,21.6,0.6,32.5c0,10.7-0.9,21.3-4.6,31.4C1207.1,1061.5,1205.3,1064.6,1203.6,1068.3z M1236.9,1008.7
				c0,5.8,0,10.5,0,15.2c0,5,0.8,6.2,5.7,5.4c4.7-0.8,9.5-1.4,14.2-2.2c1.7-0.3,4-0.2,4.9-1.8c1.9-3.2,4.5-4.9,8.1-5.5
				c2.3-0.4,2-2.1,0.9-3.7c-2.4-3.7-5.6-5.3-10.2-4.4c0.4,2,0.9,3.8,1,5.5c0.3,4-1.8,6.7-5.4,7.5c-4.8,1-8.7-0.5-9.4-4.5
				C1246,1014.5,1242.2,1011.7,1236.9,1008.7z M1289.4,1009.9c0.3,2.3,0.6,4.2,0.8,6.2c0.2,1.3,0.7,2.2,2.3,2.1
				c3.7-0.5,7.5-0.9,11-2.3c1.4-0.6,3.2-1.5,2.9-3.4c-0.3-2-2-2.9-3.9-3C1298.4,1009.2,1294.2,1008.8,1289.4,1009.9z"/>
			<path class="st1" d="M665,103c-0.6,9.4-1.2,18.8-1.8,28.3c-1.1,17.1-0.9,34.2,1.7,51.2c2.7,17.5,7.6,34.2,16.5,49.5
				c5.7,9.8,12.9,18.3,21.4,25.9c10.3,9.1,21.9,15.7,34.4,20.9c11.2,4.6,22.5,8.6,34.4,11.2c6.1,1.3,12.2,2.6,18.4,2.9
				c2.8,0.1,4.5,0.8,4.4,4.6c-0.1,3.8-0.9,6-4.1,8.4c-11.6,8.6-22.3,18.5-34.1,27c-2.6,1.9-5.4,3.5-8.1,5.2
				c-2.6,1.6-5.4,2.4-6.6,5.7c-0.6,1.7-2.8,1.3-4.3,1.7c-12.8,3.7-25.9,2.7-38.8,1.1c-12-1.6-23.7-4.6-34.5-10.3
				c-13.4-7.1-24.6-16.7-33.3-29.1c-0.9-1.3-1.7-2.8-2.2-4.3c-4.8-13.8-9.9-27.6-14.3-41.6c-2.6-8.2-3.2-17-4.7-25.5
				c-1.4-7.7-2.1-15.5-3.8-23.2c-1.5-6.6,0.2-13.6,1.2-20.3c2.2-15.7,9.4-29.4,17.6-42.6c3.8-6.2,8-12.1,12.3-17.9
				c4.1-5.7,7-12.1,12-17.3c4.7-4.8,9.5-9.2,15.5-12.2C664.5,102.4,664.8,102.7,665,103z M646.1,271.1c-1.8,5.6-1.8,5.6,3.3,8.5
				C647.8,276.6,646,274.2,646.1,271.1z"/>
			<path class="st1" d="M676.2,145.6c-0.4-11-0.5-24.1-0.1-37.1c0.1-4.3,0.9-8.4,1.9-12.5c1-4,2.4-4.9,6.4-4.6
				c6.9,0.4,13.2,2.9,19.3,6.1c7.8,4.2,14.6,9.8,22.7,13.7c4.5,2.2,8.4,6.1,12,9.9c4.8,5.1,9.9,10,15,14.8
				c9.5,9,19.2,17.9,26.3,28.9c9.1,14,17.2,28.5,23.7,43.9c5.7,13.5,5.5,27.7,8.1,41.6c0.7,4,1.1,8,3.3,11.5
				c3.1,4.7,1.6,9.4-1.3,12.8c-3.6,4.2-8.4,7.5-14.6,6.2c-19.7-4.1-39-9.4-57.6-17.5c-6.7-2.9-13.1-6.3-19.2-10.1
				c-7.3-4.5-13.5-10.7-19.2-17.2c-8.3-9.4-13.3-20.4-17.4-32.1C679.1,185.6,676.8,166.7,676.2,145.6z"/>
			<path class="st1" d="M819.5,569.4c2.8,4.3,5.2,8.9,8.2,13.2c1.7,2.5,3.6,4.5,5.9,6.5c3.4,3,6.3,6.7,8.9,10.4
				c4.2,6.2,10.6,10.3,14.7,16.5c2.1,3.1,6,3.9,9,5.9c1.3,0.9,3.9,1.3,3.3,3.7c-0.6,2.4-2.1,4.5-5,4.4c-2.4,0-4.9,0.5-7.1-0.8
				c-4.8-2.8-10-4.7-14.4-8.4c-8.1-6.8-14.7-14.7-20.8-23.2c-0.6-0.8-1.2-1.7-1.5-2.6c-1.7-7-5.4-13.4-6.4-20.6
				c-0.2-1.8-0.9-3.5-1.6-5.2c-2.9-6.4-5.5-12.9-7-19.9c-0.4-2.1-1.7-4.1-2.8-6c-1.8-2.9-3.1-6-4.1-9.3c-0.7-2.3-1.4-4.8-2.7-6.7
				c-4.2-5.9-7.2-12.6-10.8-18.8c-1.4-2.3-3.4-4-5.2-5.8c-7.2-7.1-13.2-15.2-20.8-21.9c-1.3-1.2-2.2-2.8-3.2-4.3
				c-0.5-0.7-0.5-1.5,0-2.3c2.1-3.3,11-8.2,15-8.4c1.1-0.1,2,0.4,2.8,1c1,0.7,2.1,1.4,2.8,2.3c6.3,8.8,14.1,16.5,18.3,26.8
				c2.3,5.6,5.2,10.9,7.9,16.3c0.9,4.5,2,9,2.7,13.5c1.2,8.1,5.6,15.3,6.6,23.6c0.6,5.7,2.3,11.4,2.9,17.1
				C815.1,570.2,816.9,570.1,819.5,569.4z"/>
			<path class="st0" d="M615.5,321.4c-3.7-1-5.9-4.1-8.4-6.7c-9.9-10-17-21.7-19.4-35.8c-0.2-1.4-0.7-2.7-1.1-4.1
				c-2.7-10-2.7-20.1-1.7-30.3c2.1,3.9,1,8.2,1.8,12.3c2.7,14.3,8.4,27.5,14,40.8C604.4,306.4,609.3,314.3,615.5,321.4z"/>
			<path class="st1" d="M613.2,554.4c0.8-3.7,3.3-6.6,3.2-10.4c0-1.3,1.1-2.1,2.1-2.8c6.1-4.2,12.1-8.5,18.7-12c1.4-0.7,3.1-2,4.1,0
				c1,2.1,4.1,3.8,1.7,6.8c-4.7,6.1-10.2,11.3-17,14.9C622.1,552.9,617.4,552.5,613.2,554.4z"/>
			<path class="st1" d="M703.2,516.2c-0.1,2.1-0.6,3.8-1.5,5.4c-1,1.7-2.1,2-4.3,1.6c-8.3-1.2-10.8-7.8-14-14
				c-0.9-1.7-0.8-3.1,1.2-3.9c3.9-1.6,7.7-3.4,11.7-4.7c3.5-1.1,5,0,5.9,3.8C703,508.5,701.8,512.6,703.2,516.2z"/>
			<path class="st0" d="M790.3,576.6c-2-10.2-2.1-20.8-5.5-30.6c-2.3-6.6-3.6-13.4-5.1-20.1c3.9,2.1,4.8,6.3,5.6,10
				c1.3,5.9,3,11.6,5.5,17.1c2.7,5.9,2.9,12.5,4.3,18.7C795.8,575.1,792.8,576,790.3,576.6z"/>
			<path class="st1" d="M796,465.1c-1.4-0.6-1.9-1.7-2.6-2.7c-0.9-1.3-0.6-2.3,0.8-2.8c2.7-1,5.2-2.9,8.6-2.4
				C801.4,460.9,798.9,463.2,796,465.1z"/>
			<path class="st1" d="M747.6,499.2c0.4-1.2,1.2-2.2,2.4-2.5c2.3-0.6,4.2,0.6,4.9,2.4s-1.4,2.3-2.9,2.9
				C750.6,501,749.1,500.1,747.6,499.2z"/>
			<path class="st0" d="M664.2,102.2c0.3-0.4,0.7-0.9,1.2-0.4c0.4,0.4,0.1,0.9-0.4,1.2C664.8,102.7,664.5,102.4,664.2,102.2z"/>
			<path class="st0" d="M1043.2,635.2c0.1,4.8-3.9,10.7-10,16.1c-8.7,7.7-18.5,13.5-28.4,19.2c-6.3,3.6-13.6,4.9-20.5,6.9
				c-15,4.2-31.2-7.1-35.8-20.8c-2.4-7.2-0.2-13.9,4.1-19.9c2-2.8,5.8-5,5.6-8.3c-0.2-3.2-3.9-5.4-6.4-7.6
				c-5.7-5.1-8.5-12.1-12.8-18.1c-1.8-2.5-3.9-4.4-6.5-6.1c-7.2-4.5-11.1-11.6-13.5-19.4c-2.1-6.8,1.8-15.2,7.9-19.3
				c1.5-1,3-2,4.6-2.9c6.5-3.3,15.9-1.6,21.1,3.6c3.6,3.6,5.9,8.1,8.7,12.3c6.4,9.6,14.6,17.6,22.7,25.7c0.4,0.4,0.8,0.9,1.2,1.3
				c5.2,5.9,6.7,6.1,13.4,2c2.4-1.5,4.7-3,7.4-4c8.8-3.4,16.7-0.1,23.1,4.9C1038.9,608.5,1043.5,619.1,1043.2,635.2z M1007.1,609.2
				c-1.9,4.7-6.1,6.8-10.1,9c-12.2,6.8-21,17.2-29.4,28c-3.4,4.5-2.8,7.2,1.8,10.6c1.6,1.2,2.6,1.3,3.7-0.7
				c4.2-7.3,11-12.5,17.8-16.8c9.3-6,16.5-14.6,26.5-19.7c2.6-1.3,2.4-2.8-0.1-4.4C1014.1,613,1010.7,611.3,1007.1,609.2z
				 M965.5,615.2c8-7.1,8-7.1,0.8-14.2c-1-1-2-2-3.1-2.9c-0.4-0.3-1.1-0.6-1.6-0.5c-2,0.4-4.9,7-3.7,8.5
				C960.3,609.2,962.2,612.9,965.5,615.2z M941.4,580c1.7-0.2,6.4-4.3,6.3-5.5c-0.2-2.9-2.4-5.7-4.2-5.5c-3.5,0.5-7.3,3.2-7.1,5.1
				C936.5,577,939.3,580.2,941.4,580z M949.3,593.9c1.9,0.5,2.9-1.1,4.2-1.9c1.3-0.9,2.9-1.8,1.5-3.8c-0.9-1.2-1.2-3.5-3.2-3.1
				c-1.5,0.4-2.6,1.9-2.8,3.6C948.7,590.4,947.8,592.3,949.3,593.9z"/>
			<path class="st0" d="M473,236.9c0-1.6,0.2-2.7,1.3-3.1c1-0.3,1.9,0.4,2.6,1.2c0.4,0.5,0.7,1,0.9,1.5c12.4,24.1,27,47.1,39.9,70.9
				c8.1,14.9,16.6,29.5,26.5,43.2c12.9,17.9,25.6,36,39,53.6c9.2,12,19.2,23.3,27,36.3c6,10,12.2,19.8,15.9,31.1
				c2.2,6.6,4.7,13.2,7,19.9c0.6,1.6,1.5,2.8,2.4,4.1c2,3.1,1.5,6.2-1.2,7.9c-2.6,1.7-5.6,0.8-7.7-2.3c-1.5-2.2-2.3-4.7-3.1-7.2
				c-3.5-10.7-6.6-21.6-12-31.5c-6-11.1-12.6-21.9-20.2-32.1c-8.3-11.1-16.3-22.5-24.3-33.8c-11.9-16.6-24-33.2-35.1-50.4
				c-12.3-18.9-22.5-39-33.5-58.7c-6.8-12.1-13.3-24.3-19.9-36.6c-1.8-3.4-3.2-7-4.6-10.5C473.3,239.1,473.2,237.7,473,236.9z"/>
			<path class="st0" d="M643.2,430.8c-0.1-3.3,0.6-6.4,1.4-9.5c1.5-5.9,6.2-8.8,12.3-8c5.4,0.7,10.8-0.5,16.2,0.9
				c7.5,2,11.9,7.8,10.7,15.5c-0.8,5.2-2.7,10-5.6,14.5c-8.7,13.5-25.5,9.4-31.2-0.3C644.6,439.7,643.2,435.5,643.2,430.8z
				 M663.8,426.9c-2.1,0.5-5.8-0.9-7,1.9c-1.1,2.6,0,5.9,2,8.3s3.9,2.5,6,0.2c1.9-2.1,3.2-4.5,4.2-7.2c0.6-1.6,0.2-2.8-1.7-3
				C666.4,427,665.4,427,663.8,426.9z"/>
			<path class="st0" d="M778.2,433.2c-4.9,6.1-10.9,9.1-16.8,12.1c-18.4,9.3-37.2,17.7-55.7,26.6c-10.3,5-20.8,9.6-31.3,14.1
				c-1.5,0.7-3,1.2-4.6,1c-2-0.3-3.3-1.4-3.9-3.3c-0.6-2-0.1-3.7,1.6-4.8c2.4-1.5,4.9-2.8,7.5-3.9c21.9-9.2,42.9-20.2,64.7-29.4
				c10.3-4.4,20.5-9.3,31.4-12.1C773.1,433.1,775.2,432.4,778.2,433.2z"/>
			<path class="st0" d="M488.3,201.6c0.1-6.6,2.9-10.7,9-12.5c1.4-0.4,2-1.2,2.7-2.1c1.9-2.4,4.7-2.8,7.1-2.1
				c8.6,2.5,15.8,7,19.1,15.9c2.9,7.8-0.7,18.5-7.5,23.1c-1.7,1.2-3.6,1.5-5.7,1.7C500.7,226.8,487.7,212.2,488.3,201.6z M500,193.3
				c-3.2,8.6,0.3,17.3,7.9,20.6c3.8,1.7,5.9,0.7,7.5-3.2c1.2-2.9,0.5-5.3-1.2-7.9C510.8,197.8,505,196.6,500,193.3z"/>
		</g>
	</g>
</g>
</svg>
