<?xml version="1.0" encoding="utf-8"?>
<!-- Generator: Adobe Illustrator 22.1.0, SVG Export Plug-In . SVG Version: 6.00 Build 0)  -->
<svg version="1.1" id="Layer_1" xmlns="http://www.w3.org/2000/svg" xmlns:xlink="http://www.w3.org/1999/xlink" x="0px" y="0px"
	 viewBox="250 0 1420 1180" style="enable-background:new 0 0 1920 1080;" xml:space="preserve">
<style type="text/css">
	.st0{fill:#434343;}
	.st1{fill:#FDDC02;}
</style>
<g>
	<g>
		<path class="st0" d="M965,1093c-2.5-4.3-1.9-7.3,3.2-9.2c2.8-1,5.3-3,7.9-4.6c6.2-3.9,12.7-3.8,20-3.5c8,0.4,16.1-2.2,23.2-6.8
			c2.1-1.3,4.6-1.9,6.5-0.4c3.1,2.3,6.7,3.7,9.7,6.3c2.7,2.4,6.2,3.8,9.9,4.3c3.4,0.5,7,0.9,10.1,2.4c9.8,4.9,11.9,14.8,4.4,23.5
			c-8.5,9.8-18.7,17.6-31.7,20.8c-0.5,0.1-1,0.2-1.5,0.1c-2.1-0.3-4.9,1.2-6-1c-1-2.1,2.3-2.7,3.2-4.3c0.2-0.4,0.5-0.8,0.8-1.2
			c-1.2-1-2.2-0.5-3.2,0.1c-4.7,2.8-9.1,0-13.4-1.1c-1.6-0.4-2.3-0.8-3.6,0.9c-5.2,6.7-12.2,10.5-20.6,10.2
			c-7.1-0.2-12.9,3.5-19.4,5c-3.7,0.8-7.5,1.9-11.3,1.7c-7.5-0.3-14.6,0.9-21.8,3.4c-5.3,1.9-10.6-1-15.3-3.2
			c-3.9-1.8-7.9-3.9-10.6-7.5c-1.4-1.9-2.5-1.9-4.8-0.7c-10.8,5.5-21.7,10.9-33,15.5c-7.3,3-15.2,1.9-22.5-1.2
			c-4.6-2-10-2.8-13.4-7.1c-0.9-1.1-2.1-0.3-3.2,0.2c-4.8,2.2-9.8,3.2-15.2,3.2c-3.8,0-7.6,1-11.4,1.2c-14.9,1-28.2-3.9-39.5-13.1
			c-5.7-4.6-12.2-5.2-18.4-7.1c-3.9-1.2-8.1-1.4-11.4-4.4c-1.6-1.4-3.5-0.2-5.1,0.4c-6.3,2.3-11.4,0-14.9-4.9
			c-5.1-7-11-13.8-12.9-22.7c-0.6-2.9-1.2-5.9-1.5-8.9c-0.2-2.8-1.8-5.1-4.1-5.2c-5-0.4-8.3-3.6-11.7-6.3c-3.3-2.6-5.9-2.3-8.8-0.1
			c-4.5,3.4-10,2.6-15,3c-4.1,0.3-6.8-3.4-7.4-7.3c-1.5-9.3-3.5-18.4-3.3-28c0.2-8.9,4-15.7,9.8-21.4c10.9-10.8,24.1-17.6,39.5-19.8
			c2.3-0.3,4.6,0,6.9,0.7c1.5,0.5,3.8,0.5,1.4,3c-1,1.1,0.5,1.1,1,1.5c1.2,1,2.1,0.5,2.9-0.5c0.6-0.7,1.7-1.1,0.8-2.4
			c-3.2-4.2-0.3-5.4,3.2-6c7.9-1.4,12.9-8.4,20.4-10.6c1.6-0.5,1.1-2.3,1.1-3.5c-0.2-11.5-0.4-23-0.6-34.5c0-3.7-2.1-7-1.5-10.7
			c1.7-2.2,0.3-4.5,0.3-6.7c0-1.7-1.2-1.7-2.5-1.3c-7.4,2.1-14.8,1.3-22.3,0.3c-1.1-0.2-3-1.1-3.1,1c-0.1,1.8-1.3,4.4,1,5.4
			c5,2.2,10,4.8,15.7,2.1c2.7-1.3,5.6-2.4,8.6-1c1.5,2.6,0.7,4.4-1.4,6.4c-7.1,6.7-12.9,7.5-21.8,2.6c-2.4-1.3-3.7-1.5-4.6,2
			c-4,14.5-9.2,28.6-19.1,40.3c-7,8.3-15.7,14.7-25.3,19.8c-4.6,2.5-9.6,2.2-14.6,1.5c-1.3-0.2-2.3-0.6-3.6,0.1
			c-5,3.1-10.6,4.8-16.4,4.7c-9.3-0.2-18.7,0-27.6-3.4c-4.1-1.5-6.5-4.8-9.6-8.1c2-1.3,3.3-0.9,5,0.3c3.7,2.5,8,3.6,12.5,4
			c9.7,0.7,19.3,1.1,28.9,0.2c3.2-0.3,6-1.2,8.6-3.1c0.5-0.4,3.6-4.1,3.3,1.1c-0.1,1.4,1.5,0.7,2.4,0.5c2.2-0.5,3.6-2.3,5.2-3.6
			c12.3-9.9,24.1-20.3,31-35c8-16.8,12.1-34.1,9.7-53c-1.6-12.8-8.2-22-16.2-31.5c-3.7-4.3-7.8-8.8-10.8-13.9
			c-2.2-3.6-5.7-5.5-9.6-7.1c-2.4-1-4.8-2.6-6.7-4.5c-4.9-4.9-11-3.2-16.7-3.5c-4-0.2-8.4-1-12.2,2c-2.2,1.7-4-0.2-4-2.2
			c0-4-2-2.6-3.5-1.5c-17.3,12.3-33.3,25.5-38.1,48c-1.6,7.5-5.3,14.7-5,22.5c0.3,6.7-2.5,12.6-3.4,18.9c-0.8,5.4,2.2,10.3,2.2,15.6
			c0.1,10.4,2.2,20.3,8.5,28.9c0.4,0.6,1,1.5,0,2.1c-1,0.7-2,0.9-3.1,0c-2-1.7-2.9-4-3.8-6.3c-2.3-5.1-5.5-9.8-4.8-16
			c0.4-3.3-2.1-6.2-4.2-8.5c-7.1-8.2-7.8-17.3-4.9-27.3c0.2-0.8,0.4-1.7,0.3-2.5c-1.4-10.8,2.3-20.7,5.2-30.8
			c3-10.6,7.3-20.5,13.6-29.4c-1.1-1-2-0.9-2.6-0.3c-6.9,6.3-14.4,12-20.8,19.1c-11.1,12.3-16.8,26.8-20.3,42.5
			c-1.2,5.4-0.7,11-0.4,16.4c0.3,4.7-1.8,4.1-4.5,2.5c-1.6-1-3.1-2.1-4-4c-4.9-9.7-3.8-19.3-0.6-29.1c0.1-0.4,0.1-0.9,0.2-1.6
			c-2.9,0.2-4.4,2.5-6.4,3.5c-4.9,2.4-9.1,6.7-15.5,5.6c-1.9-0.3-1,1.8-0.6,3c1.3,3.5-0.4,6.3-3.6,5.7c-6-1-9,2.7-12.6,6
			c1.3,1.9,3.5,1.6,5,1.1c4.1-1.3,7.9,0.1,11.8,0.5c1.8,0.2,3.4,0.6,5.3,0.3c3.6-0.6,6.3,0.5,8.9,3.7c3.3,4.1,6.7,8,12.6,9.9
			c18.7,5.8,28.7,20.4,34,38.2c4.2,14.2,3.8,28.5-3.9,41.7c-3.1,5.3-7.3,9.5-13.2,12c-5,2-8.1,6.7-12.2,10
			c-5.3,4.3-10.5,8.5-16.2,12.2c6.8,5.6,7.8,10.9,3,15.7c-3.4,3.4-7.5,1.9-11.2,1.2c-3.5-0.6-4.6-3.8-4.2-7c0.4-3.1-0.7-3.3-3.4-3.3
			c-5.3,0-10.2,0.9-15.3,2.5c-6.1,1.9-12.4-1-18.2-3.3c-19.6-8-30.1-23.3-34.8-43.4c-0.5-2.2,0.2-4.1,0-6.2
			c-1.8-22.9,3.8-43.8,17.6-62.4c1-1.4,3.3-2.6,1.7-5c-1.3-2-3.1-1.3-4.9-1.3c-7.2-0.1-14.4,1.2-21.4-0.2c-9.5-2-19-0.3-28.5-0.9
			c-4.9-0.4-10.2-1.5-13.8-5.9c-1.3-1.6-2.3-2.9-4.3,0.5c-5.1,8.6-7.2,17.5-6.5,27.5c0.5,7.7-2.8,10.6-10.5,10
			c-2.7-0.2-5.7,1.5-8-1.1c-1.3-1.4-3.5-3.7-3.1-4.7c1.6-4-0.3-8.2,1.4-12.1c0.6-1.3,0.7-2.6,0.5-3.9c-1-5,0.3-9.9,1.4-14.7
			c0.5-2.4-0.1-2.8-1.7-3.5c-13.5-6-26.4-13.1-36.5-24.2c-8.4-9.2-14.7-19.9-19.9-31.1c-5.1-11.1-9.1-22.5-11.5-34.6
			c-2.2-11.1-1.7-22.2-1.9-33.3c-0.2-8.3,0.5-16.5,3.3-24.3c4.4-12.2,10.2-23.8,17.3-34.7c2-3.1,4.9-5.5,7.5-8.5
			c-8.7-5.8-14.8-13.9-18.9-23.6c-5.2-12.2-7.7-24.3-3.5-37.5c3-9.5,7.7-17.8,13.7-25.5c3.9-5.1,9.6-8.2,15.3-9.9
			c10.6-3.2,21.2-6.4,32.6-6.7c10.7-0.2,18,4.8,23.6,13c2.1,3.2,4.2,5.8,8,7.4c6.1,2.5,9.9,7.7,12.3,13.8c1.1,2.9,2.4,3.2,5.1,1.9
			c5.6-2.6,11.6-3.8,17.5-5.8c-3.1,0-6.3,0-9.4,0c-0.8,0-1.7,0.3-2.1-0.7c-0.4-1,0.5-1.4,1-2c2.6-3,6.1-3.9,9.8-4.4
			c7.9-1,15.9-1.8,23.9-0.3c2,0.4,2.3-0.3,2.9-2.1c5-16.3,14.6-21.2,30.2-16.5c13.5,4,24.3,11.2,26.6,26.5
			c1.1,7.1,0.9,14.3,0.1,21.4c-0.2,1.8-0.5,3,1.6,4.1c14.6,7,23.7,19.5,31.7,32.9c0.7,1.1,1.3,2.3,2,3.4c0.2,0.3,0.5,0.4,0.8,0.6
			c1.7-0.4,1-1.9,1.2-2.8c1.8-9.2,5.2-17.9,9.7-26.1c0.8-1.4,2.3-2.7-0.1-4.1c-3.4-2-6.2-4.9-10.3-5.9c-4.2-1-8.2-3.1-11.5-5.8
			c-17.5-14.3-31.8-31.1-39-53.1c-1.3-3.9-2.3-7.9-3.3-11.9c-0.5-1.9-1.2-2.5-3.5-2c-5.4,1.1-10.9,1.1-16.2-1.2
			c-4.3-1.9-8.9-1.3-13.3-1.1c-8.7,0.3-14.6-3.4-17.5-11.6c-4.2-12.1-7.8-24.4-4.5-37.8c-10.2,3.6-20.3,5.9-31,4.7
			c-12.6-1.4-22.6-7.3-31.3-16c-14.4-14.4-24.3-31.6-27.1-51.7c-1.7-11.8-0.2-24.2,4.2-35.5c7.1-18,16.5-34.7,27.9-50.3
			c7.5-10.3,16-19.6,28.7-23.6c13.6-4.3,27.1-2.1,40.1,2.6c15.8,5.7,29.5,14.6,40.2,27.9c5.6,6.9,6.1,6.8,9.7-1.2
			c2.8-6.3,6.9-11.7,10.8-17.5c-0.7-0.2-1.2-0.4-1.7-0.4c-3.6-0.2-7.8,3.2-10.8-0.3c-4.6-5.3-10.5-9.6-13.2-16.4
			c-3.9-9.6-6.8-19.7-8.6-29.8c-1.3-7.2-0.4-15,0.4-22.6c1.3-11.7,5.9-22,10.6-32.4c6.1-13.8,17.7-22.4,30-30.2
			c14.5-9.2,30.5-12.3,47.2-9.8c9.6,1.4,19,5.1,27.9,9.5c1.7-9.4,8-16.1,12.9-23.6c13.2-20.6,27.1-40.7,40.2-61.4
			c16.2-25.8,32-51.8,49.6-76.7c3.6-5.1,7.8-9.7,11.9-14.3c2.2-2.5,5.5-3,7.9-0.6c1.6,1.7,2.9,1.5,4.7,1.2
			c21.5-2.9,42-9.3,61.8-18.2c12.2-5.5,24.3-11.2,37-15.1c10.5-3.3,21.3-5.3,32.4-5c4,0.1,8,0.3,11.9-0.8c3.4-0.9,5.9,1,7.7,3.4
			c1.8,2.4,1,5.2-1.1,7.1c-1.9,1.8-1,2.8,0.5,3.7c10.6,6.2,17.3,16.2,25.3,25c8,8.8,17,16.8,25.7,25.1c8.8,8.4,16.5,17.8,23.7,27.4
			c3.5,4.6,8,8.3,12.1,12.2c13.2,12.5,24.3,26.7,34.4,41.7c2.2,3.4,5,6.1,8.2,8.6c2.7,2,5,4.3,6.5,7.4c2.2,4.5,0.8,7-3.1,10
			c-13.7,10.5-30.2,8.2-45.7,10.6c-9.2,1.4-18.4,2.2-27.6,4.1c-2.8,0.6-1.6,2.6-1.4,3.9c0.9,4.5,2.1,9,3.2,13.4
			c1.4,0.5,1.5-0.7,2-1.5c1.7-2.6,3.8-2.4,4.6,0.4c0.9,3.2,2.6,2.7,5,2.3c8.4-1.3,16.8-2.3,25.2-2.1c2.4,0.1,4.2-0.8,5.6-2.4
			c9.6-11.6,23.3-17.2,35.8-24.6c3-1.8,6.1-3.7,9.5-4.6c5.4-1.5,6.1-5.9,8-10.1c3.2-7.1,7-14,10.8-21.4c-6.4-0.5-12.1-2.1-16.9-6.3
			c-3.7-3.3-7-6.8-9.2-11.3c-2.3-4.7-0.8-8.1,4.2-9.3c3.4-0.8,6.1-0.6,3.4-5.8c-3.6-7-0.1-12.1,8.2-13.7c-1.7-3.2-4.9-5.1-6.8-8.2
			c-5.2-8.6-1.4-16.3,5.8-20.3c2.8-1.5,5.7-2.8,8.6-4c3-1.2,6.2-2.2,9.7-3.5c-2.3-2.5-4.4-5-6.7-7.2c-4.7-4.6-7.2-10.5-8.3-16.7
			c-1.2-7.4,4.6-12.4,12-11.5c10.8,1.3,20.2,5.2,27.9,13.1c0.7,0.7,1.4,1.4,3.1,1c0-6.7-0.8-13.5,0.2-20.1
			c1.1-6.5,0.5-13.4,3.9-19.5c3.5-6.4,7.6-7.3,12.7-2c9,9.1,13.1,20.8,17,32.6c1.5,4.7,3.1,9.4,3.9,14.2c0.9,5.5,4.3,7.2,9.2,7.5
			c3.6,0.2,7.3-0.6,10.9,0.9c1,0.4,2,0.3,2.4-1.4c4.6-20.7,18-34.6,36.7-42.4c11.7-4.9,24.3-1.7,35.4,5c2.5,1.5,3.8,4.1,5,6.9
			c6-4.6,11.9-9,17.7-13.5c0.8-0.6,1.7-1,2.5-1.5c2.5-1.7,4.9-2.9,7.6-1c2.9,2,2.3,5.3,1.6,7.8c-2.1,7.4-4.9,14.7-8.7,21.5
			c-2.5,4.4-5.3,8.7-8,13.2c6.4,3.2,13.2,4.1,19.9,5.6c1.1,0.2,2.2,0.6,3.3,0.8c3.6,0.7,7.3,2.1,7.4,6.1c0.1,4.4-2.9,7.7-7.2,8.9
			c-4.4,1.3-9,2.4-13.5,3c-3.2,0.4-5,0.9-5.1,4.9c-0.1,5.1-3.2,9.3-6.4,13.1c-3.3,3.9-6.9,7.7-11.2,10.7c0.5,0.8,0.8,1.2,2.1,1
			c6.2-1.2,12.4-2.5,18.6-2.9c9-0.6,24,3.1,28.6,13.7c2.8,6.5,1.4,12.6-4.4,16.6c-6.6,4.6-14,7.2-22,8.2c-4.9,0.6-9.4,3.3-15.6,1.4
			c1.3,2.7,2.2,4.3,2.9,6c4.5,10.8,5.3,21.8,0.4,32.7c-5,11-13.4,10.9-21.6,4.7c-4.4-3.3-8.5-7.1-12.8-10.6
			c-1.1-0.9-2.4-1.5-3.8-2.4c-1.7,3.3-0.9,6.5-1.3,9.5c-2,12.8-14.3,18-25.5,12.8c-6.8-3.2-12.4-8.1-15-15.5
			c-1.5-4.1-0.5-8.5-0.7-12.7c-0.1-1.3,0.6-2.8-1-3.5c-1.2-0.5-2.3,0.5-3.1,1.2c-7.8,6.8-17.5,8.4-27.1,9.3c-4,0.4-8.3-1.9-12.4-2.6
			c-9.6-1.8-17.9-5.5-22.9-14.6c-1.3-2.4-2.2-1.7-3.6-0.1c-3.4,4.1-6.9,8.1-10.4,12.1c-0.8,0.9-1.6,1.5-1.1,3
			c1.7,5.4-1.9,7.6-6.1,9.1c-11.8,4.5-24,7.9-35,14.4c-9.8,5.8-20.4,10.4-29.3,18.4c6.1,5.1,11.3,10.7,11.9,19.1
			c0.4,5.1-1.1,9.5-4.1,13.5c-5.8,7.9-17.1,10.9-25.4,6.7c-8.5-4.3-12.4-16.4-9-28.7c-6.4-0.4-12.6,1-18.8,2c-2.3,0.4-2,1.9-1.6,3.4
			c8.5,37.8,7.3,76.3,8.7,114.7c0.5,12.1,1.9,24.3,1.5,36.3c-0.2,5.7,1.6,7.7,6.3,9.3c6.6,2.3,13,5,19.5,7.6
			c0.3,0.1,0.6,0.5,0.9,0.4c13.3-2.3,17.4,10.9,26.4,15.9c1.9,1.1,3.4,3.1,5.4,5c3-9,6.7-17.1,12-24.4c0.5-0.7,1.2-1.5,0.5-2.2
			c-3.6-4.1-3.4-9.9-7.3-14c-9.2-9.5-15.1-21.4-21.7-32.8c-13.5-23-13.7-46.6-3-70.7c4.1-9.4,5.8-20,13-27.8
			c11.8-12.8,23.4-26.1,41.6-30.4c4.8-1.1,9.1-3.7,13.8-5.2c12.9-4,26.1-2.3,39.1-0.4c5.8,0.9,11.4,3.4,17.4,3.5
			c7.4,0.2,10.7,6.2,15.5,10.2c6.4,5.2,8.6,12.7,10.4,20.3c2.9,12.5,7.2,24.6,6.9,37.8c-0.4,14.3-0.3,28.6-2.7,42.9
			c-2.4,14.2-5.5,27.9-12.3,40.6c-5.6,10.7-13.3,18.7-26.3,19.5c-1.6,0.1-1.7,1-2.3,2c-6,9.4-13.6,16.3-25.6,16.4
			c-1.8,0-3.5,0.7-5.3,1.1c-4.6,1-7.7-0.6-11.2-4.2c-6.2-6.3-13.7-11.2-23.5-10.2c-1.7,0.2-2,0.6-1.6,2.1c0.9,3.1-0.6,5.7-2.4,7.8
			c-8.4,10.7-12.9,22.7-13.8,36.2c-0.1,1.7,0.6,2.4,1.5,3.4c10.9,12.5,16.3,27.8,21.9,42.9c2.1,5.5,1.1,11.5,1.4,18.4
			c5-7.1,9.7-13.4,15.6-18.6c14.6-12.9,30.7-22.7,50.5-25.3c8.5-1.1,16.5,0.2,24.2,5.6c2.7-10,5.4-19.5,7.8-29.2
			c3.8-15.2,8.1-30.2,13.2-45c0.6-1.8,1-3.5-0.5-5.7c-5.8-8.7-4-17.7-0.8-26.9c2.7-7.7,7.6-14.2,10.8-21.7c3-7,13-14.2,19.4-14
			c5.1,0.2,9.2,2.3,12.6,6.2c8.6,10.2,15.8,20.9,15.2,34.9c-0.1,3-0.3,6.1-1.3,8.8c-1.4,3.7,0.6,3.9,3.3,4.1
			c14.1,0.9,28.3,0.4,42.4,0.5c2.8,0,5-0.3,4.9-4.2c-0.3-14.7,6.6-26.5,15.4-37.7c6.6-8.4,16-10.7,25.3-13.1c3.9-1,7.5,2.6,9.9,5.7
			c11,14.4,15.6,30.4,11.9,48.4c-0.6,3.1-2.3,5.9-6.2,5.1c-3.6-0.7-4.6-3.5-4-6.9c2-12.6-1.4-24.1-7.5-34.9
			c-4.6-8.1-8.6-8.8-15.1-2.2c-9.6,9.8-17.4,20.6-18.2,35.1c-0.2,3.7,0.7,5.1,4.8,5.3c13.3,0.4,26.3,3.7,39.6,5.3
			c5.1,0.6,10.3,1.2,15.5,1.2c5,0,10.2,1.4,15.4,1.9c11.7,1.1,23.4,2.2,35,3.7c4.8,0.6,6.5-1.6,7.9-5.5c5-14,13-26.2,23-37.1
			c4.7-5.1,10.5-6.3,17.5-5.7c18,1.3,26.9,12.8,31.7,28.3c2.5,8,1.3,16.4-2.1,24.3c-1.6,3.8-1,5.7,3.5,6.1c7.6,0.7,15.1,2,22.7,2.4
			c11.3,0.7,22.6,0.8,34,1.3c2.8,0.1,3.3-0.4,4.1-3.5c3.2-12.6,10.3-23.2,20.5-31.3c1.8-1.4,3.7-3.1,5.6-4.5
			c9.2-6.7,22.7-4.4,30.8,2.4c6.2,5.1,7.8,11.9,10.7,18.3c3.1,6.7,3.3,13.9,2.3,21.3c-1.1,7.9-1.6,15.7-6.8,22.2
			c-0.8,1-0.6,2.3-0.3,3.4c3,10.2,2.9,21,5.2,31.3c1.7,7.6,1,15.3,3.1,22.9c2.3,8.6,2.1,17.9,4.9,26.2c3.2,9.1,4.2,18.7,7.1,27.9
			c3.5,11.2,4.7,23.2,6.6,34.9c2.6,16.7,5.4,33.5,10.4,49.7c3.4,11.1,3.4,22.7,6.1,33.7c1.3,5,0.1,9.5,0.6,14.1
			c1.1,10.5,1.4,21,3.2,31.4c2.7,15.2,4.1,30.4,4.8,45.8c0.3,6.8,0.7,13.6,0.9,20.4c0.4,9.4,1.3,18.7,3.5,27.9
			c1.5,6.3,0.2,12.8,1.3,19.3c0.6,3.7,1.4,7.4,1.9,11.2c0.6,5.2-1.2,8.8-5,9.8c-3.9,1.1-10.6-1.4-11-5.2c-0.4-3.5,0.4-7.4,0.2-11.1
			c-0.6-11.8-1.1-23.4-3.6-35.1c-1-4.9-1.9-10.4-1.3-15.7c1.1-10.9-0.8-21.8-1.2-32.7c-0.4-9.7-0.6-19.7-4-29.3
			c-1-2.8-0.4-6.2-0.6-9.4c-0.7-9.8-1.8-19.5-2.3-29.3c-0.5-9.5-1.4-19-3.5-28.4c-2.9-12.9-5.7-25.8-8.2-38.8
			c-2.3-11.6-4.4-23.2-6.2-34.8c-2.4-15.5-6.3-30.6-9.9-45.7c-2.8-12-5.3-24-6.9-36.1c-1.2-9.4-2.5-18.9-3.4-28.4
			c-0.6-7.3-0.1-15-3.6-22.2c-2.2,1.5-4.9,7.1-6.6-0.4c-0.4-1.7-2.1,0.1-2.4,0.9c-0.7,1.9-0.5,3.9,0,5.9c0.8,3,1.4,6,2.2,8.9
			c2.2,0,1.2-2.4,2.5-2.8c1-0.3,3.1-0.8,2.6,0.7c-1,2.9,1,5.4,0.4,8.1c-0.4,1.9-0.4,3.4-2.2,5.1c-2.8,2.6-1.3,6.7-0.7,9.8
			c2.6,13.2,4,26.6,7.5,39.7c3.7,13.8,6.7,27.8,8.5,42c1.5,11.8,3.1,23.6,4.8,35.3c0.6,4.3,2.2,8.8,2.4,12.9c0.3,5,0.9,10,1.5,15
			c2.3,18.5,4.8,37.1,6.7,55.6c1.5,13.8,2,27.8,3.4,41.6c2.3,22.4,3,45,5.1,67.4c0.8,8,1.7,16.1,3.7,23.9c0.7,2.9-0.2,5.4-3.3,6.3
			c-2.9,0.8-5.7,0-6.3-3.1c-1.1-5.1-2.6-10.2-3.7-15.3c-1.2-5.6,0.7-11-1-16.6c-1.5-4.9-1.4-10.8-1.2-16.1
			c0.3-8.2-0.6-16.2-1.3-24.2c-0.9-9.9-1.8-19.8-2.7-29.7c-0.9-9.2-1.7-18.5-2.3-27.8c-0.4-7.5-1.1-15.2-2.4-22.7
			c-0.8-4.1-1.4-8.6-1.5-13c-0.1-7.1-1.5-14.2-2.5-21.3c-0.8-5.9-2-11.7-2.5-17.7c-0.5-6.4-2-12.7-2.8-19.1c-0.7-5-1-10-1.4-15
			c-1.8,0.8-1,2.2-1,3.3c-0.6,19.8,2.2,39.3,4.8,58.8c1.7,12.5,2.5,25.1,3.2,37.6c1,17.4,0.3,35,2.3,52.3c4.3,37,3.3,74,3.9,111.1
			c0.2,10.8,1.2,21.6,1.7,32.4c0.2,5.2-3.8,8.1-7.6,5.6c-2.3-1.5-3.4-4.7-3.1-7.3c1-7.6-0.8-15.1-1.1-22.7
			c-0.9-21.8,0.2-43.5-1.3-65.2c-0.5-6.8,1.5-14.2-2.3-20.8c-0.6-1.1,0.4-3.1,0.4-4.6c0.1-6.9-1.7-13.7-1.6-20.4
			c0.1-8.8-1.6-17.4-1.4-26.2c0.3-12.4,0-24.8-1.5-37.2c-0.8-6.5-2.1-13.4-1.1-20.1c0.4-2.9-1-5.5-1.4-8.2
			c-2-11.2-1.9-22.5-3.6-33.8c-1.3-8.3-0.5-16.9-0.4-25.4c0.1-16.2,1.4-32.4,0.2-48.5c-1.1-13.9-0.5-28-3.8-41.8
			c-1.4-5.8-0.5-12.1-0.9-18.2c-0.5-6.5-1.4-12.8-2.8-19.2c-1.4,8.7-4.5,17-6.7,25.5c-1.4,5.3,0.7,9.6,1.4,14.2
			c0.9,5.8,0.9,11.6,0.9,17.4c0.3,54,3.7,107.9,3,161.9c-0.1,11.5,2.2,22.7,4,34c2.8,17.1,3.3,34.3,3.6,51.5
			c0.3,13.5-0.2,27,0.6,40.5c1.5,23.6,0.3,47.1,0.4,70.7c0,2-0.5,3.9-0.6,5.9c-0.2,2.9-2.9,3.7-4.5,3.7c-1.8,0.1-3.6-1.5-3.5-4.3
			c0.3-5,0-10-0.1-15c-0.4-16.9,0-33.8-1.6-50.8c-1.5-16.2-0.4-32.6-0.4-48.9c0-10.7-1.4-21.3-2.7-31.9c-1.1-9-1.8-18-3.2-26.9
			c-5.9-37.4-1.2-75-3.3-112.5c-1.4-24.8-0.2-49.6,0.3-74.5c0-2.2,0-4.3-0.3-6.5c-3.7,11.5-7.2,23.1-9.7,34.9
			c-2.8,13.4-3.2,27-2.9,40.6c0.2,8.5-0.7,16.9-2.7,25.1c-0.3,1.1-1.3,3,0.7,3.1c4.8,0.4,3.9,3.7,3.8,6.6
			c-0.4,19.5,1.5,38.9,2.7,58.3c0.8,13.4,1.5,26.9,2.4,40.3c1.9,27.9,1.9,55.9,3.1,83.9c0.4,10.1,1.7,20.1,2.6,30.2
			c0.1,1.3,0.1,2.7,0.2,4c0.2,3.5-1.8,6.2-4.8,6.5c-3,0.3-4.8-3.2-4.9-5.7c-0.4-7.3-1.7-14.5-2.1-21.8c-1.4-25.9-0.3-51.8-2.1-77.7
			c-0.7-10.3-1.1-20.6-1.8-30.9c-1.7-23.7-2.1-47.4-2.9-71.2c-0.1-2-0.3-3.9-0.5-6.3c-2.4,2.2-2.1,5-2.8,7.4
			c-5.8,19.8-9.9,40-12.8,60.3c-2.4,17.3-5.3,34.5-9.2,51.5c-1,4.4-2.8,8.4-4.5,12.5c-2.6,6.3-1.8,8.2,4.3,10.7
			c2.6,1.1,5.4,1.9,7,4.4c0.9,1.3,1.9,1,3,0.8c8.4-1.1,12.4,1.4,14.1,9.7c2.5,12.8,2.3,25.7,1.7,38.7c-0.4,7.7-1.9,15.3-0.6,23.1
			c0.5,2.8-1.8,4.8-2.1,7.5c-3.1,24.5-7.1,48.7-14.8,72.3c-4.6,14.2-14.1,21.4-28.5,25.2c-15,3.9-30,5.6-45.3,4.7
			c-5.7-0.3-11.3-1.5-16.9-2.2c-9.9-1.3-19.8-1.2-29.7-1.5c-14.2-0.4-28.4,0.5-42.5-0.4c-17.6-1.2-35.1-3.8-51.3-11.6
			c-2.7-1.3-5.6-1.3-8.3-2.2c-4.1-1.5-7.3-3.8-9.7-7.7c-0.9-1.5-1.4-3.2-0.7-4.1c4.7-6.4-0.8-12.5-0.3-18.8c0.2-2.4-2.7-1.6-4-1.5
			c-5.9,0.2-11.7-0.3-17.1-2.9c-0.7-0.3-1.5-0.6-2.2-1c-6.9-4.2-7.1-4.3-11.7,1.7c-3.9,5.1-8.6,9.2-14,12.5
			c-2.2,1.4-3.1,2.4-1.6,4.9c1.1,1.8,1.7,3.9,2.7,5.8c1.9,3.9,0.6,6.8-2.8,8.8c-3.6,2.1-6.8,1-8.9-3c-1.4-2.8-1.8-7.3-3.9-8.3
			c-2.4-1.1-6.2,1-9.5,1.4c-3.9,0.5-7.9,1.1-11.9,1.2c-5.2,0.1-10.1,0.2-15.2,3c-7.2,4-15.7,2.3-23.5,1.8c-5.1-0.4-7.7,0.9-8.3,6.1
			c-0.4,3.3-1.6,6.4-1.8,9.7c-0.3,3.5-2.3,5.8-5.2,5.1c-3.2-0.7-4.7-4-3.8-7.5c1.2-5.1,2.5-10.2,4.1-15.2c1.2-3.7,1.3-6.2-3.1-7.7
			c-3.2-1.1-5.8-3.4-8-6.1c-0.6-0.7-1.5-1.7-2.5-0.9c-0.5,0.3-0.5,1.4-0.5,2.2c0,3-0.4,5.9-0.9,8.9c-0.2,1.2-1.4,3.4,1.5,3.8
			c1.5,0.2,0.4,1.7,0.1,2.3c-2.4,5.2-5.3,10.2-7.4,15.5c-1.5,3.6-5.7,3.2-7.7,7.4c-1.3-7.4-6.1-6-10.1-5.3
			c-32.1,5.4-64.1,11.4-95.9,18.2c-45.7,9.9-91.3,19.8-137.5,27.5c-13.1,2.2-26.2,3.1-39.4,3.2c-4.3,0-7.6-3.3-8.3-8.8
			c-0.3-2.5-0.7-3.7-3.9-4.8c-11.1-3.5-22.5-5.9-33.7-8.9c-12.7-3.4-25.3-7.1-34.2-17.8c-2.8-3.4-6.8-6.5-2.6-11.5
			c0.3-0.4,0.2-1.3,0-1.8c-1.8-4.3-1.2-8.4,0.3-12.6c0.4-1.2,0.6-1.9-0.9-3.1c-4.8-3.8-6.4,0.9-7.1,3c-1.9,6.6-7,9.4-12.3,12.1
			c-9.3,4.8-15.3,12.8-20.3,21.3c-4.1,6.9,0.8,20.3,8.6,23.6c7.7,3.3,14.5,8.5,22.5,11.2c5.2,1.7,10.1,4.3,15.3,5.7
			c5.9,1.6,10.5,5.5,16.1,7.6c5.6,2,5.9,2.7,10.9-1.5c5.8-4.9,12.9-5.1,19.8-5.2c7.1-0.1,14.8-0.5,21.2,1.9
			c10.1,3.7,20.9,6.9,28.5,15.5c3.6,4.1,4.9,9.4,7.1,14.2c1,2.2,1.9,3.6,4.3,2.6c1.3-0.5,2.3,0,3.3,0.3c11,3.1,20-1,28.3-7.8
			c1.4-1.1,2.9-2.3,4.6-2.9c2.5-1,5.7,0.1,5.2,2.5c-0.8,3.6,1.7,4.1,3.3,5c6.1,3.5,12,5.1,19.7,4.9c13-0.4,25.2-4.5,38-4.6
			c1.1,0,2.2,0.2,2.8-1.3c1.2-2.9,3.8-2.8,6.4-2.5c0.3,0.5,0.7,0.6,1.1,0.2C965.4,1093.3,965.2,1093.2,965,1093z M937.8,183.1
			c0.1-0.2,0.2-0.4,0.3-0.6c-0.2-0.1-0.4-0.1-0.6-0.2c0.1,0.2,0.3,0.5,0.4,0.7c0.4,0.3,0.8,0.6,1.2,0.9c3.8,5.1,7.5,10.4,11.5,15.3
			c4.6,5.7,8.7,11.8,14.3,16.8c-0.4,1.1,0.2,1.6,1.2,1.9c0,0.6,0,1.2,0.9,1.1c0.3,4,0.3,7.9-4.2,9.5c-4.6,1.7-6.9-1.6-9.4-4.7
			c-22.9-29.5-46.6-58.3-74.3-83.5c-8.2-7.4-14.5-16.5-20.3-26.1c-4.8,5.4-8.5,11.8-12.5,18.1c-1.2,1.9-0.1,3,1.1,3.7
			c6,3.3,9.6,8.9,13.3,14.2c7.5,10.8,15.7,21.1,24.3,31c2.7,3.1,5.5,6.1,7.2,10c-3.7-2.9-6.5-6.8-10.1-9.9
			c-9.8-8.5-21-15.2-30.6-24.1c-3.4-3.1-7.3-5.4-3.7-11.3c1.9-3.1-2-5.9-4.4-7.4c-2.4-1.6-2.7,2-3.8,3.3c-1.9,2.1-3.5,4.5-5.2,6.7
			c-16.1,20.8-32.9,41.1-47.9,62.7c-14.7,21-26.7,43.8-42.1,64.3c-0.4,0.5-0.6,1.1,0.2,2c1.8-0.1,3.8,0.2,5.8-1.2
			c2.7-1.9,6.7-2.3,9.1-0.9c4.6,2.8,9.5,4.7,14.1,7.3c7.7,4.4,14.7,9.6,20.7,16.5c0.5-3.1,0.6-5.9,0.5-8.6
			c-0.3-11.5,3.5-21.9,8.8-31.8c2.8-5.3,6.6-9.8,11.6-12.9c8.9-5.7,14.4-7.1,24.1,0.2c4.7,3.6,8.9,7.7,11.6,13.3
			c3.2,6.4,5,12.8,4.7,20.1c-0.3,7.4,0.4,14.8,0.7,22.7c6.8-3.9,12.5-8,19.2-9.3c10.6-2,20.2-5.9,28.9-12.2c0.1-0.1,0.3-0.2,0.4-0.3
			c2.9-0.8,3.2-2.6,2.7-5.3c-1.4-8.4-3.3-16.7-3.8-25.2c-0.7-11.5,0.9-23.2-1-34.7c-0.5-2.9-0.6-5.9-0.8-9c2,0.3,3.7,1.1,5.1,0.7
			c4.1-1,4.5,1.2,4.7,4.4c0.6,8.6,1.3,17.3,2.1,25.9c0.1,1-0.6,2.6,1.2,2.8c1.5,0.2,1.7-1,2-2.3c1-4.1,3.6-5.2,7.6-3.8
			c2,0.7,4.2,1.1,6.3,1.2c15.2,1,30.1-1.2,45-5.8c-3.1-3.5-6.1-7-9.1-10.4c-0.1-0.6,0-1.4-1.1-0.9c0.6-1.1,0-1.7-0.9-2.1
			c-6.6-11.9-15.2-22.1-24.7-31.7c-0.3-0.3-0.9-0.1-1.3-0.2C939,183.2,939,182.3,937.8,183.1z M863.1,99.9c-0.2-0.1-0.3-1.1-0.8-0.2
			c0.3,0,0.6,0,0.9,0c0,0.3-0.1,0.6-0.1,0.9c0.2,0,0.4-0.1,0.6-0.1C863.5,100.3,863.3,100.1,863.1,99.9z M681.1,697.1
			c-0.6,0.1-1.2,0.1-1.9,0.2c0.1,0.2,0.2,0.7,0.3,0.7C680.2,698,680.8,697.7,681.1,697.1c0.2-0.3,0.5-0.4,0.8-0.6
			c-0.1-0.1-0.2-0.2-0.4-0.2C681.3,696.5,681.2,696.8,681.1,697.1z M775.2,637.2c0.5-0.8,1.1-1.5,0.4-2.5c1.6,0.6,2-0.5,2.4-1.7
			c2-1.5,3-3.5,3.5-5.9c-1,2.1-3.9,3.1-3.4,6c-1.6-0.6-1.4,1.4-2.3,1.7C775.6,635.6,775.4,636.4,775.2,637.2
			c-0.2,0.1-0.8-0.5-0.7,0.4C774.7,637.4,775,637.3,775.2,637.2z M581.8,407.8c-0.7,0.2-1.7,0.3-1.5,1.4c0,0.3,0.6,0.7,1,0.8
			c1,0.1,1.3-0.7,1.6-1.5c0.2-0.3,0.5-0.6,0.7-0.9c4.8-6.4,9.5-12.8,13.5-19.8c3.5-6,6.9-9.6,11.2-11.6
			c-10.8,20.7-26.4,37.9-36.8,58.6c-1-6.5,5.2-10.6,5.5-17.7c-3.3,3.4-6.5,4.4-10.2,3.8c-5.6-0.9-9.3-4.2-12-8.8
			c-1.1-1.8-1.8-3.2-4.5-2.2c-8.8,3.3-18.1,4.2-27.5,3.7c-3.5-0.2-6.3,1-8.8,3.6c-8.8,9-14.1,20-18.8,31.5c-0.5,1.3,0.1,2.1,0.7,3.2
			c12.8,23.2,13,46.6,1.1,70.1c-0.5,0.9-1.3,1.8-1.3,2.7c-0.3,6.2-4.6,9.7-8.7,13.3c-1.1,1-2.7,1.7-2.5,3.5c0.4,3.2-1.6,4.7-3.6,6.6
			c-4.2,3.9-6.9,8.4-4.9,14.6c3.5,11.1,4.9,22.6,6.9,35.6c7.5-7.2,17.1-8.9,24.6-14.5c5.9-4.4,8-4.5,13.3,0.5
			c9.4,9,7.2,23.4-4.5,29.7c-2.1,1.1-4.5,1.9-6.7,0.5c-1.7-1.1-2.6-0.4-4,0.4c-3,1.8-6,3.6-9,5.3c-6.7,3.7-6.7,3.7-3.5,10.7
			c0.8,1.7,1.4,3.4,2,5.1c4,11.6,10.6,21.7,18.3,31.3c9.5,11.9,22.2,20.6,32.1,32.1c0.5,0.6,1.4,0.8,2.1,1.2c5,2.5,10,5.3,15.1,7.5
			c7.5,3.3,15,8.1,23.5,2.4c0.7-0.5,1.5-0.7,2.3-0.1c3.6,2.5,7.7,1.6,11.7,1.7c4.7,0.1,9.2,0.9,13.8,2.1c9.1,2.5,18.6,3.3,28,2.9
			c12.3-0.4,23.8-3.9,34-11.1c-1.1,0-2.4-0.2-3.5,0c-8.1,1.7-16.3,1-24.4,0.7c-9.7-0.3-19.7-0.8-28.3-6.2c-4.4-2.8-9.1-4.8-14.1-6.3
			c-5.8-1.7-10.3-5.3-14.2-9.8c-3.7-4.3-6.8-9-11.3-12.6c-0.2-0.2-0.3-0.4-0.5-0.6c0,0.2-0.1,0.4-0.1,0.6c0.2,0,0.5-0.1,0.7-0.1
			c-1.1,1.8,0.4,3.1,1,4.5c2.7,6.5,5.2,13.1,8.3,19.6c-3.2-1.8-5.1-4.8-6.4-8.1c-7.1-17.2-15.2-34-22.3-51.2
			c-4.8-11.6-6-24.4-6.7-38.3c4.4,11.8,6.2,23,9.9,33.7c-0.4-17.5-7.2-34.5-3.8-52.3c1.7,1.7,1.8,3.8,1.7,5.7
			c-0.5,13.4,2.3,26.5,4.5,39.6c1.9,11.3,3.4,22.6,9.3,32.9c4.6,8,12.3,13,17.9,20c4.7,5.9,10.7,9.8,18.4,11.2
			c2.2,0.4,4.5,1.4,6.4,2.7c13.3,8.7,28.2,8.1,43.1,7.9c0-2.8-2.1-3-3.7-3.8c-27.9-12.8-44.7-34.4-52.4-64
			c-2.9-11.1-5.1-22.4-7-33.7c-1.6-9.8-3.3-19.7-4.1-29.6c-1.8-22.7,0.1-45.2,3.5-67.7c3.4-23.1,10.8-44.9,20.5-66
			c12.4-26.7,27-52,48.5-72.6c0.4-0.4,0.8-0.9,1.2-1.3c-0.8-0.6-1.5-0.3-2,0.4c-7.5,4.5-15.4,8.4-21.3,15.3
			c-17.8,21-31.8,44.1-39.6,70.8c-3.1,10.5-5,20.9-6.3,31.7c-2,15.3-5.4,30.5-6,46c-0.1,1.4,0.4,3.1-1.7,4.4c0-4.3-0.3-8.3,0.1-12.2
			c1.4-15.7,3.3-31.4,4.5-47.2c0.6-8.1,1.9-16.2,4.1-24.1c8.7-30.5,24.4-57,46.3-79.9c0.4-0.4,1-0.9,0.3-1.5c-0.7-0.6-1,0.2-1.4,0.6
			c-8.7,3.5-14.9,10.4-22.1,16c-0.3-0.3-0.6-0.6-0.9-0.9c2.8-4.8,8-7,11.5-10.9c7.1-7.9,14.3-15.5,24.5-19.6c1.6-0.6,3-1.9,4.2-4.5
			c-11.1,0-21.7,0.4-32.2-0.1c-6.2-0.3-9.4,2.3-11.6,7.6c-3,7.3-6.8,14.4-13.1,19.2c-10.5,8-20.5,16.5-29.8,25.8
			c-0.9,0.9-3.2,1.2-2.5,3.1c0.7,1.9,2.7,2.4,4.6,2.2c1-0.1,2,0,3-0.2c3.6-0.8,2.9,1.4,2.4,3.4C582.4,407.1,582.1,407.4,581.8,407.8
			z M871.9,112.1c-0.1-0.4-0.1-0.7-0.2-1.1c-0.1,0.1-0.3,0.1-0.4,0.2c0.2,0.3,0.5,0.5,0.7,0.8c0,1.1,0.7,1.8,1.7,2.2
			c0.3,0.3,0.5,0.6,0.8,0.9c0.1-0.1,0.2-0.2,0.4-0.3c-0.3-0.3-0.6-0.6-0.9-0.8C873.7,113,873.6,111.7,871.9,112.1z M870.1,108.9
			c0.1,0.4,0.2,0.7,0.3,1.1c0.1-0.1,0.3-0.2,0.4-0.2c-0.3-0.3-0.5-0.5-0.8-0.8c-0.3-1.1-0.4-2.4-2.1-2c0.8-1.2,0-1.6-0.9-2.1
			c-0.4-1.4-1.1-2.6-3.8-3.2c1.8,1.6,1.6,3.7,3.9,3.2c-0.9,1.2,0.1,1.6,0.9,2C868.4,108,868.6,109.2,870.1,108.9z M776,373
			c-0.1-0.4-0.2-0.8-0.4-1.2c-0.1,0.2-0.4,0.3-0.4,0.5c-0.1,0.5,0,0.9,0.7,0.8c-0.8,3.4,0.6,5.7,3.3,7.6c4,5.2,8,10.3,12.3,15.9
			c4.1-16.7,3.9-32.6,2.2-48.5c-1.6-14.5-5.3-28.5-15-40c-5.7-6.7-12.8-12.4-21.5-13.4c-16.2-1.9-31.7,1.9-46.3,9
			c-7.3,3.6-13.2,8.9-17,16.2c-0.5,0.1-0.8,0.4-0.5,0.9c0.1,0.1,0.7-0.1,1.1-0.2c1.5-0.5,3.4-1.7,4.2,0.5c0.7,2.1-1.5,2.6-2.9,3.2
			c-1,0.5-2.2,0.9-3.3,1c-2.1,0.2-2.7,1.5-3.1,3.2c-0.1,0.4-0.1,0.8-0.2,1.1c0.3-0.2,0.6-0.3,0.9-0.5c12.8-5.3,25.9-5.6,39.1-2.1
			c17.1,4.6,32,13,42.9,27.4c5.6,7.4,8.5,15.9,8.2,25.3C778.7,377.6,778.2,374.7,776,373z M1525.2,671.2c-2.3,2.7-2,6.1-3,9.1
			c0.4,0.1,0.9,0.2,1.3,0.3c0.5-3.2,1.1-6.3,1.6-9.5c0.2-0.2,0.3-0.4,0.5-0.6c-0.2,0-0.4,0-0.6,0
			C1525.1,670.7,1525.2,670.9,1525.2,671.2z M1150.2,776.4c2.6-2.4,5.2-4.9,7.8-7.3c0.1-0.1,0.3-0.2,0.4-0.3c0.1-0.1,0-0.2,0-0.3
			c-0.1,0.2-0.2,0.4-0.4,0.7C1154.3,770.3,1150.1,771,1150.2,776.4c-0.2-0.1-0.3-0.3-0.5-0.5c-0.1,0.2-0.2,0.3-0.4,0.5
			C1149.6,776.4,1149.9,776.4,1150.2,776.4z M865,682.1c-0.4-0.3-0.8-0.6-1.2-0.9c-0.3-0.4-0.6-0.8-0.9-1.2
			c-0.3-1.6-1.5-2.6-2.5-3.6c-24.5-25.5-32.8-56-27.8-90.5c2.2-15.1,8.1-29.1,12.3-43.7c6.4-21.9,16.8-41.6,32.1-58.6
			c7.1-7.9,13.4-17.5,27.3-16.6c-2.6-1.7-4.2-1.9-5.8-2.2c-8-1.6-15.9-0.8-23.9,0c-2.3,0.2-3.7,1.1-5.2,3.1
			c-7.6,10.9-17.7,18.9-30.4,23.2c-6.2,2.1-12.5,3.3-19,0.7c-0.2-0.4-0.2-1-0.8-0.6c-0.1,0.1,0.2,0.8,0.2,1.2
			c3.3,22.4,3.3,44.8-0.1,67.1c-3,19.9-10.8,38.3-19.7,56.3c-1.7,3.3-4.7,6.7-0.2,10.3c0.6,0.5,0.5,2.2,0.4,3.3
			c-1.2,16.1,6.2,28.9,16.2,40.5c0.9,1.1,1.9,2.4,3.7,2.2c3.4-0.3,5.7,1.8,7.5,4.2c2.5,3.5,6,5.2,9.9,6.2c6.1,1.5,12.4,2.7,18.7,2.4
			c3,0.9,6.1,0.9,9.1,0.8c2.6,0.6,5.2,1.4,8.9,0.8C869.9,685.7,867.2,684.1,865,682.1L865,682.1z M657.5,357.3
			c-4.5,1.2-8.1,3.8-11,7.4c4.8-0.6,8.2-3.6,11.7-6.4c0.3-0.3,0.9-0.7,0.9-0.8C658.7,356.7,658.1,357,657.5,357.3z M766.1,366.9
			c-0.2-0.2-0.5-0.3-0.7-0.5c0,0.2,0.1,0.5,0.1,0.7c0.2-0.1,0.5-0.2,0.7-0.3c-1.2,4.5-0.3,5.7,6.5,7.3
			C770.2,371.4,768.2,369.1,766.1,366.9z M914.8,157.1c0.5,0.9,1.1,1.8,1.7,2.9c0.9-1.8,0-2.8-1-3.7c-11.8-15.1-26.4-27.4-40.4-40.3
			C886.7,131.5,901.9,143.2,914.8,157.1z M859.1,711C859.1,711,859,711.1,859.1,711c0.4,0.2,0.9,0.4,1.3,0.3
			c18.4-4.9,37.4-7.6,55.4-14.2c2.8-1,5.8-1.6,8.7-2.2c5.6-1.1,11.3-2.1,16.9-3.2c-0.4-0.4-0.6-0.4-0.9-0.3
			c-19.8,1.6-39.6,4.5-59.5,0.6c-0.6-0.1-1.4,0.1-1.9,0.5c-4.8,3.6-10.6,3.6-16.1,4.7c-3.6,0.1-7.1,0.2-10.7,0.3c-3-0.1-6-0.1-9-0.5
			c-2.6-0.3-3.7,0.1-3,3.1c1.2,5.5,0.7,10.8-3.7,16.1c4-1.1,7.4-0.7,10.5-2.2c3.7-0.2,7.3-1.1,10.9-2.2
			C858.5,711.7,859.3,712.1,859.1,711z M692.1,745.6c1.9-12,4.5-23.8,9.1-36.7c-8.6,5-17.2,5.8-24.4,10c-3.7,1.8-7.4,3.5-11.1,5.3
			c-12.6,3.1-25.3,4.7-38.4,2.6c-6.8-1.1-13.8-1-20.4-3.7c-2.7-1.1-4.3-0.2-3.8,3.3c0.8,5.8,1.3,11.5,1.8,17.3
			c0.2,2.6,1.1,3.4,3.8,3.1c3.9-0.5,7.9-0.6,11.9-0.7c14.9-0.4,29.8,2.4,44.8,1.7c4.6-0.2,7-1.5,7.5-5.9c1-0.9,2.7-3.6,3.1-0.6
			c1,6.4,4.8,8.3,10.4,9.3C692.2,751.6,692.2,751.9,692.1,745.6z M682.6,860.5c4.4,3.4,8.9,6.8,13.4,10.2c2.4-5.4,4.2-6.4,8.3-3.9
			c6.8,4.2,13.2,3.2,19.9,0.1c14.9-7,27.5-17.5,41.2-26.3c0.6-0.4,1.2-1.2,1.4-2c0.3-1.1,0.6-2.6-0.3-3.3c-1.3-1-2,0.5-2.8,1.2
			c-9.1,8.1-19.8,14-30,20.5c-7.5,4.7-15.7,8.2-25.4,7.4c-6.3-0.5-10.6-4.3-15.9-6.6c-3.6-1.5-6.6-4.7-11-3.7
			c-1.8,0.7-3.6,1.4-5.4,2.1C676.8,860.1,680,859.8,682.6,860.5z M998.2,659.7c-8.5,9.2-19.3,15.4-30.4,20.6
			c-7.1,3.4-14.7,5.9-21.9,10.4c4.5-0.9,8.6-0.5,12.7-0.7c12.7-0.9,25.2,2.2,37.8,1c3.3,0,6.6,0,9.8,0c12.8,0.5,25.5,2.7,38.4,1.7
			c2.1,0.4,4.2,0.5,6.2-0.1c1.8-1.7,1.2-4,1.5-6c2.6-18.9-2.4-35.1-17.2-47.9c-3.6-3.1-6-3.8-9.6,0.2c-4.8,5.4-7.2,4.9-11-1.2
			c-2.2,3-4.4,5.9-6.5,8.8c2,1.3,4,2.6,6.5,4.3c-3.1,0.6-4.8-0.4-6.3-1.8c-1.4-1.4-1.9-0.5-2.5,0.7
			C1002.8,652.7,1000.3,656,998.2,659.7z M699.1,1056.9c-0.4,1,0.4,0.8,1,0.9c0.1,0,0.3-0.1,0.4-0.2
			C699.9,1057.4,699.5,1057.2,699.1,1056.9c-1.1-1-2-2.1-3-3.2c-13.6-14.7-11.8-33.6,4.4-45c0.5-0.3,0.9-0.8,2.3-2
			c-5.8,0.6-10.3-2.8-14.5-1.3c-9.1,3.3-17.5,8.2-24.3,15.3c-4.6,4.7-7.5,10.1-6.7,17.3c0.8,6.5,2,12.8,3.4,19.1
			c1.1,5.3,4.4,6.9,9.1,3.9c0.4-0.3,0.8-0.6,1.2-0.9c6.7-4.5,13.5-8.3,21.8-3.7C694.6,1057.4,696.9,1057.8,699.1,1056.9z
			 M690.9,1062.1c0-0.2-0.1-0.4-0.1-0.7c-0.2,0.1-0.3,0.2-0.5,0.3c0.2,0.1,0.5,0.2,0.7,0.3c0.5,2,2.4,2.4,3.9,2.6
			c8.5,1.2,12.6,6.7,13.4,14.5c0.9,9.3,6,16.4,11.1,23.6c3.5,4.9,7.4,6.1,13.3,4.5c2.1-0.6,4.4-0.6,6.1,1.1c2.3,2.2,5.1,1.8,8,2
			c-6.1-15.1,2.8-23.9,12.8-32.7c-3.7,1.3-6.9,0.1-10.4-1.1c-5.6-1.9-11.5-3.3-17.2-4.9c-6.4-1.8-12.7-3.3-18-7.6
			c-2.1-1.8-4.8-3.8-7.7-2.9C701.1,1062.4,696.1,1062.1,690.9,1062.1z M466.1,1052.9c0,0.2,0,0.5,0,0.7c0.2-0.1,0.4-0.1,0.6-0.2
			c-0.2-0.2-0.5-0.3-0.7-0.5c-3.3-5-6.4-10-7.9-15.9c-8.3-31.6,4.7-68.8,31-88.4c2.6-2,5.2-4,7.8-6c-3.8,0.2-7.1,0-10.4,0.2
			c-6.8,0.5-13,1.9-18.9,6.2c-6.7,4.9-10.5,11.4-14.6,18c-12.7,20-13,41-4.1,62.5c1.3,3.2,2.6,6.4,3.6,9.8
			C454.3,1046.4,459.3,1050.7,466.1,1052.9z M1439.7,451.4c0.9-3.7,2.1-7.4,2.7-11.1c2-13-6.5-25.4-19.3-28.7
			c-4.9-1.2-8.8-0.3-12.2,3.3c-8.7,9-14.9,19.5-19.5,31.1c-1.3,3.3,0.5,3.5,3,3.8c9.3,0.9,18.5,1.9,27.8,2.9
			c4.2,0.7,8.5,1.2,12.6,2.1C1437.9,455.5,1439.5,454.6,1439.7,451.4z M1202.9,766.1c0-0.2,0-0.4,0.1-0.6c-0.2,0-0.4,0.1-0.6,0.1
			c0.2,0.1,0.4,0.3,0.6,0.4c0.2,1.8,3.9,2.2,2.3,4.2c-1.6,2.1-4,0.6-5.8-0.6c-1.4-0.9-2.7-1.9-4-2.9c-2.6-1.9-5.3-3.9-8.6-3.2
			c-15.5,3-26.9,12.1-36.3,24.4c-0.1,0.1-0.2,0.3-0.2,0.4c-0.7,1.7-0.7,2.6,1.6,2.9c4.6,0.6,9.3,0.7,13.9,0.7
			c13.6-0.1,27.1,0.1,40.5,4.4c5.5,1.8,12.2,3.6,18.1-0.9c1.7-1.3,2.7-1.8,1.4-4.1c-4.1-7.1-8.7-13.8-14.1-19.9
			C1209.5,768.7,1207.1,765.8,1202.9,766.1z M803.4,720.8c3.2-0.7,6.4-1.4,9.6-2.1c3.8-0.6,7.6-1.1,11.3-1.8c1-0.2,2.1,0.3,2.7-1.4
			c3.1-8.1-1.5-22.3-8.9-27.1c-2.6-1.7-5.5-3.4-7.5-5.7c-4-4.7-9.4-6.5-14.9-7.8c-10.3-2.5-20.8-4.3-31.2-6.5
			c-1.6-0.3-2.4,0.2-3.5,1.2c-4.4,4.3-8.9,8.5-13.4,12.7c-3.6,3.4-4.1,8.7-0.9,12.5c5.1,6.1,8.4,13.1,11.4,20.4
			c0.9,2.2,1.2,4.8,3.4,6.6c5.4-8.6,11.3-16.6,18.3-23.8c4.1-4.3,9.1-5.3,11.8-2.6c2.6,2.6,1.9,6-2.3,10.9
			c-5.2,6-10.1,12.3-14.5,19.7C785,725,794.3,723.6,803.4,720.8z M1030,612c1.5-1.3,3.1-2.5,4.5-3.8c10.9-9.9,22.6-18.7,36.7-23.5
			c10.7-3.7,21.6-5.9,32.5-1c3,1.3,3.8,1,4.6-2.1c3.5-13.7,7.3-27.3,11.1-40.9c0.8-2.8-0.3-4-2.4-5.1c-5.1-2.8-10.6-3-16.1-2
			c-21.8,4.2-38.7,16.1-51.9,33.7c-1.5,2-1.8,4.1-2,6.5c-0.4,5.6-5.7,8.1-10.6,5.5c-0.9-0.5-1.3-1.9-2.7-1.5
			c-1.4,11.4-1,22.8-4.4,33.7c-0.1,0.4-0.4,1-0.3,1.1C1029.8,612.9,1029.9,612.4,1030,612z M1038.6,434.4c0.4,0.4,0.7,0.7,1.1,0.1
			c0-0.1-0.4-0.4-0.6-0.6c-3.3-12.6-4.2-25.5-3.6-38.5c0.8-20.2,7-39.2,12.7-58.3c5.1-17.3,14.1-32.2,28.2-43.8
			c4-3.3,8.3-6.2,13.7-9.9c-17.2-2.5-33.1-5.7-47.8,4.7c-3.1,2.2-6.9,3.5-10,5.6c-13.4,9.3-24.8,20.6-31.1,36.1
			c-2.5,6.2-4.6,12.5-6.9,18.7c-5.5,15.2-4.7,30.1,3,44.3c3.9,7.3,8.5,14.3,12.6,21.5C1016.4,425.5,1025.5,432.8,1038.6,434.4z
			 M546.2,867.2c17.5-16,35.8-30.9,59.6-36.8c3.6-0.9,7.2-2.4,10,1.4c1.1,1.4,2.3,1.1,3.6,0.6c1.6-0.6,0.7-1.9,0.7-3
			c0-2.5-0.1-5-0.1-7.5c0-3.1,0.1-6.3,0.2-9.4c-3.1,0.4-6.1,1-9.2,1.2c-3.2,0.3-7.9-1-9.4,0.6c-2.1,2.3,0.5,6.5,0.8,10
			c0.2,2.5-0.1,4.5-2.8,5.1c-2.7,0.6-3.9-1.3-4.6-3.5c-1.6-4.9-1.6-9.9-0.1-14.8c2-6.4,5.5-10.8,13.4-10.3c4.1,0.3,8.3-1.6,12.4-2.5
			c-10.1-1.4-19.7-3.7-29.6-3.3c-7,0.3-6.7,0.1-7.1,7c-0.6,9.3-1.7,18.6-2.6,27.9c-0.2,2-0.5,4.7-2.9,4.6c-2.7-0.1-2.9-3-2.8-5.1
			c0.4-11.1-0.1-22.3,4.1-33c0.3-0.8,0.4-1.4,0.2-2.3c-1.2-5-0.2-6.7,4.9-7c7-0.5,14-0.4,21,0.4c18.2,2.1,36.4,3.9,54.8,3.6
			c12.7-0.2,25.3-3,38.2,0.7c7.4,2.1,14.5,5,22.4,6.5c0-6.5,0-13.2,0-19.9c0-1.5-0.1-2.8-1.8-3.1c-5.2-1-9.8-4-15.3-4.4
			c-5.8-0.4-11.7-0.9-17.3-2.4c-10.1-2.7-20.2-4-30.6-3.4c-14,0.8-27.8-2.8-41.9-1.7c-7,0.6-14,0.7-20.9,0.9
			c-8.2,0.2-16.1-2.1-24.2-3c-4.4-0.5-8.2,0.1-10.8,4.3c-1.5,2.4-3.6,4.4-6.5,5.2c-1.1,0.3-3.3,0.2-2.6-0.9c2.1-3.4-1.1-6.4-0.1-9.5
			c0.7-2.2,1.7-4.1-1.6-5.4c-1.8-0.8-1.3-3.2-0.4-4.9c0.5-1,1.4-1.6,2.3-0.5c2.4,2.7,4.5,1.5,7,0c2.7-1.6,5.9-2.2,9-2.7
			c7.8-1.3,15.6,0.4,23.4,0.3c1.7,0,3,0.3,2.6-2.1c-1.2-6.6-1.3-13.2-1.3-19.9c0-2.1-1.1-2.5-2.7-3.4c-6.1-3.2-12.8-4.2-19.4-5.4
			c-2.4-0.4-4.6-0.6-6.1-3.4c-1.5-2.7-4.7-2-6.4,1.2c-4,7.6-7,15.4-8.7,23.8c-1,4.7-1.1,9.7-5.2,13.1c-1.1,0.9-0.4,1.8-0.1,2.7
			c4,9.5,6.9,19.3,9.5,29.2c1.9,0.2,2.9-2.7,4.5-1.3c1.8,1.6,1.6,3.8,0.6,6c-1.8,4.1-4.4,8.4-2.3,12.9c3.3,7.4,0.5,14.7,0.1,22
			c-0.2,4.1-0.8,8.3-1.2,12.4c-0.9,2-1.1,4-1.1,6.2c-2.1,8.6-4.2,17.1-6.3,25.7c-0.7,0.4-0.7,1-0.2,1.6
			C545.7,867.9,545.9,867.5,546.2,867.2z M1031,226c2.7-0.7,4.3-3,6.2-4.8c7-6.7,12.6-14.6,18.8-22c1.8-2.2,3.9-3.3,6.8-3.4
			c4.5-0.1,7.4,1.6,9.7,5.5c2.1,3.7,2.9,8.9,7,10.7c14.2,6.3,29.2,8.3,41.9-3.8c3.4-3.2,6.4-6.7,9.7-10c2.4-2.4,5.1-4.8,8.8-2.9
			c3.4,1.8,3.3,5.2,2.6,8.4c-0.3,1.4-0.6,2.5,0.4,3.7c2.3,2.8,1.9,5.8,0.7,8.9c-1.3,3.2-2.5,6.5-2.8,10.1c-0.9,8.4,1,12.2,7.5,15.7
			c5.1,2.7,7.7,1.4,7.8-4.2c0.1-9.1-0.1-18.3,0-27.5c0-4.8,2.6-7.7,6.7-7.7c4.5,0,6.8,2.6,7,6.8c0.2,3,1.5,4.9,3.7,6.7
			c6.5,5.3,12.8,10.6,19.2,15.9c1.1,0.9,2.1,2.8,3.7,1.9c1.3-0.7,1.3-2.5,1.5-4c1.2-9.3-1.4-17.3-7.4-24.6c-6-7.3-3.1-14.6,6.4-16
			c3.4-0.5,7-0.4,10.5-0.4c7.9-0.1,15.6-1.4,22.9-4.3c1.8-0.7,4.6-1.3,4.6-3.3c0-2.2-2.8-3-4.8-3.9c-5.8-2.6-11.7-1.9-17.7-0.9
			c-6.2,1.1-12.3,2.9-18.8,2.3c-3.2-0.3-5.6-1.6-6.4-4.6c-0.6-2.2-1.1-2.2-3.2-1.8c-16.4,3.4-32.3,2.1-46.2-8.1
			c-10.1-7.4-17.3-17.2-17.7-30.3c-0.2-7.3-0.2-7.7-7.5-8.5c-2-0.2-4-0.2-6-0.2c-2.4,0-3.8,0.7-2.9,3.6c0.7,2.4,1.1,4.9,1.4,7.3
			c0.3,2.6,0.2,5.3-3,6c-3.1,0.6-5.6-0.6-6.7-3.8c-0.6-1.7-1-3.5-1.5-5.3c-4.7-16.8-7.7-34.1-15-50.1c-1.3-2.8-2.3-5.7-4.9-8.1
			c-3.1,14.8-5.3,29,3.3,42.4c1,1.5,1.7,3.3,2.3,5c1.2,3.1,0,5.5-2.6,7.3c-3.3,2.3-6,1-8.4-1.5c-5.9-5.9-11.6-11.9-17.6-17.7
			c-5.5-5.3-12.1-8.5-20.2-9.1c2.6,7.6,7.9,11.9,14,15.4c7.8,4.5,15.6,8.9,23.3,13.5c4.7,2.8,5.9,5.9,4,9.3c-2,3.5-5.1,4-9.9,1.5
			c-0.4-0.2-0.9-0.4-1.3-0.7c-13.6-7-26.7-5-39.4,2.5c-3,1.8-1.9,3.6,0.3,4.8c1.4,0.8,3.2,0.8,4.8,0.9c9.7,0.3,19.3-0.6,28.8-2.3
			c9.3-1.6,18.7-3.1,28.1-4.4c4-0.5,6.7,1.7,7.5,5.7c0.7,3.8-1.9,7-6.1,7.7c-1,0.2-2,0.2-3,0.3c-12.2,1.1-13.6,2.4-15.3,14.7
			c-0.2,1.2-0.3,2.3-0.4,3.5c-1,8.6-3.9,10.5-12.4,8.2c-5.7-1.5-10.7-4.6-16.1-6.8c-5.2-2.1-10.3-4.2-16.8-3.2
			c2.5,3.1,4.9,5.3,8,6.5c3.8,1.6,6.5,3.8,5,8.3c-1.5,4.5-5.5,4.4-9.2,3.5c-2.6-0.6-5.1-0.5-8-0.3c5.4,6,12.8,6.5,19.4,1.5
			c2.9-2.2,5.6-3.9,8.9-1.2c3.5,2.9,2.1,6.3,0.3,9.4c-0.8,1.4-1.9,2.7-2.8,4.1c-4.5,6.8-9,13.6-11.9,21.3c-0.4,0.4-0.7,0.7-0.1,1.2
			C1030.6,226.5,1030.8,226.3,1031,226z M1523.6,481.4c-4.6-4.7-10.4-4.5-16.4-4.8c-20.1-1-40.3-0.9-60.2-4.9
			c-17.8-3.6-35.8-5.8-53.8-7.5c-1.7-0.2-4.4-1.8-5,1.1c-0.5,2.3,0.9,4.5,3.1,5.8c2.2,1.3,4.7,1.6,7.2,1.8c4.4,0.3,8.6-1,12.8-1.5
			c1.6-0.2,3.7-2.5,4.7-0.5c1,1.9,0.4,4.6-1,6.6c-0.8,1.1-1.7,2-2.8,2.8c-13.3,9.4-32.7,1.3-34.9-14.6c-0.4-2.6-1.2-3.3-3.6-3.5
			c-11.8-1-23.5-2.4-35.3-3.1c-23.3-1.4-46.2-5.5-69.2-8.6c-1.1-0.2-2.8-1-2.8,1.3c0,5.9,5.2,9.4,10.9,7.2c3.3-1.3,6.5-2.8,10.1-2
			c4.1,0.9,5.2,3.4,3,6.9c-6.5,10.6-24.2,11.1-31.3,1c-2.4-3.5-4-7.4-4.9-11.4c-0.7-3-2.1-3.7-4.8-3.5c-6.1,0.3-12.3,0.9-18.3,0.7
			c-10.4-0.3-20.9-0.7-31.3-1.6c-11-1.6-22-1.4-33.9-1.8c2.4,2.6,5,2.8,7.2,3.8c3.4,1.6,7.6,1.7,10,5.1c0.6,4.4-2,5.8-5.8,6.2
			c-7.2,0.6-13.1-2.8-19.1-5.8c-2.2-2.3-3.7-2.3-4.3,1.2c-0.2,1.4-0.6,2.8-0.9,4.2c-4.6,14.4-8.6,28.9-11.4,43.8
			c-0.2,0.6-0.6,1.2-0.7,1.8c-6.9,27.4-13.1,55-21,82.2c-1.4,4.8-2.7,9.3-0.3,14.4c1.4,3,1.7,7.9-3,8.5c-3.9,0.5-4.2,2.7-5.1,5.3
			c-7.5,23.1-12.7,46.8-17.6,70.6c-0.6,2.9,0.6,2.9,2.8,2.8c9.3-0.3,18.6-0.5,28-0.8c3-0.1,5.8,0.2,7.1,3.4c1.2,3.1,0.2,5.6-2.7,7.1
			c-1.8,0.9-1.6,2.3-1.6,3.8c0,37.5-0.1,74.9-0.1,112.4c0,1.9,0,3.8,0,6.4c13.4-11.3,28.7-15.3,44.7-17.3c-1.1-0.3-2.2-0.4-3.3-0.4
			c-8.3,0-16.6-0.3-24.8-2.6c-4.2-1.2-6.3-3.4-5.6-8c0.5-3.2,0.8-6.5,1.2-10c-4.5,2.8-3,8-5.8,12c-1.9-4.9-2.1-9.4-1.3-13.8
			c2.2-10.9,10.3-17.5,18.4-24.1c-5.7-3.6-5.9-6.2-1-10.3c2.1-1.8,4.3-3.7,6.2-5.8c4.4-5,8-10.5,6.8-17.5c-0.5-3.2-1-7.1-6.2-5.2
			c-1.6,0.6-2.9-0.4-3.4-2.1c-0.5-1.5,0.5-2.5,1.7-3.3c4.4-2.8,9.7-1.9,12.8,2.5c5.6,7.8,4.7,15.9,0.6,24c-2.4,4.8-5.8,9-9.6,13.1
			c10.3-3.7,20.7-4.3,31.2-3.7c11.7,0.6,22.4,3.6,29.9,13.5c6,8.1,10.2,17.1,13.9,26.4c1.4,3.5,0.1,6.1-3.1,7.9
			c-1.3,0.7-3,0.7-3.8,2.2c2.3,2.2,5.5,2.1,8.4,3.3c-2.7,2.3-16,2.4-18.2,0.4c-2.3-2.2-5.1-2.7-7.6-1.3c-3.5,1.9-7,1.8-10.7,1.4
			c-2.8-0.3-5.6-1-8.4-1.1c-1.9-0.1-4.7-0.9-5.4,1c-1,2.7,2.4,3,3.8,4.4c2.1,2.1,4.6,2.4,7.4,2.1c14.3-1.5,25.3,4.2,34.4,15.1
			c16.7,19.9,22.8,43.6,26,68.4c2,15.7-1.8,30.8-7.3,45.4c-0.1,0.4-0.3,1-0.2,1.1c0.5,0.4,0.6-0.1,0.8-0.5c3.2-0.2,7.6-2.3,9,1.2
			c2.1,5.4,6.1,4.6,10,5.3c3.2,0.5,4.3-0.9,4.6-4c1.3-16.8,3.7-33.4,6.4-50c3.2-19.7,6-39.5,14-58c1.1-2.5-0.1-4.3-0.9-6.5
			c-2.6,4.8-4.7,9.8-6.8,14.7c-1,2.3-2.2,5.2-5.2,4.3c-3.4-1-2.7-4.3-2-6.8c1-3.6,2.5-7.1,4.1-11.3c-3.6,0-6.7,0.1-9.8,0
			c-4.8-0.2-9.6-0.7-14.3-2.2c-1.6-0.5-3.4-1.5-3.4-3.3c0-2.1,2.1-2.2,3.7-2.6c5.5-1.3,11.2-2.1,16.8-1.9c6.5,0.2,12.6,0.5,14.8-7.6
			c0.4-1.6,2.2-2.8,4-2c1.8,0.8,1.7,2.5,1.5,4.3c-0.2,3-2.1,5.8-1.4,9.1c7.7-5.3,9.3-5.8,19.3-5.9c11.3-0.2,22.6-0.3,33.9-0.5
			c20.8-0.4,41.6-0.6,62.4-1.4c21.2-0.8,41.3,5.8,62.2,6.2c4,0.1,9.2,2.9,7.8-5.1c-0.1-0.4,0.2-1,0.4-1.4
			c6.6-13.9,9.3-28.9,11.7-43.7c5.1-31.4,10.8-62.6,19.3-93.3c3.7-13.3,6.2-26.9,5.9-40.9c-0.3-19.4,2.5-38.4,7.5-57.2
			c4.4-16.7,9.7-33.2,12.2-50.4c2.9-10.4,4.7-21,8.6-31.1c2.1-5.5,5.8-10.5,2.6-17c-0.7-1.5-0.5-2.8-2.7-2.9
			c-6.4-0.5-12.9-1-19.3-1.8c-3.1-0.4-3.3,1.1-2.8,3.4C1524.1,480.9,1523.9,481.2,1523.6,481.4z M725,280c-2.6,0.2-5.8,1.4-7.4-1.3
			c-2.4-4.1-5.6-3.1-8.9-2.2c-30.2,8.2-61,14-90.7,23.7c-6.3,2.1-9.7,1-10.9-3.1c-1.3-4.2,0.9-6.6,7.2-8.6
			c29.7-9.9,60.7-15.1,90.9-23.3c4.7-1.3,9.1-1.9,11.5-6.9c0.8-1.8,2.9-3.5,4.8-4.1c6.7-2.1,9.7-7.6,13.1-12.9
			c3.2-4.9,6.5-9.7,9.8-14.5c14.5-20.9,26.5-43.5,41.3-64.2c16.3-22.9,32.5-46,51.5-66.9c3.5-3.9,6.1-8.7,12-9
			c-0.9-3.8-2.7-4.9-6.5-4.7c-18.7,0.7-36,6-52.7,13.9c-27.7,13.1-56.3,23.2-87,26.1c-4.2,0.4-7.1,1.2-9.5,5.1
			c-31.8,51-62,102.9-95.6,152.8c-1.9,2.8-3.3,5.9-6.8,7.7c6.7,3.8,11.6,8.7,16,14.2c0.8,1,1.1,2.7,3.2,2.6
			c12.6-0.7,25-1.1,37.1-5.8c18.2-7,38.1-5.9,56.8-10.9C711.2,285.9,718.4,283.8,725,280c3.1,0.2,6.4,0.1,8.5-2.6
			c8.2-10.3,15.9-21,22.4-32.4c13.6-23.9,28.2-47.1,44.8-69c14.2-18.9,28.8-37.5,41.1-57.7c3.6-5.8,6.8-12.2,13.5-15.6
			c-0.1-1.7-3.2-1.4-2.5-3c1.2-2.9,4.5-2.5,7.8-3c-2.7-2.5-4.7-4.5-7.3-6.9c-0.1,2.5-1.2,3.9-2.4,5.2c-6.5,7.6-14.1,14.6-17.8,24.2
			c-1.6,4.3-6.1,4-8.3,7c-5.9,8.2-12.1,16.3-18.2,24.4c-3,3.9-6.7,7.4-5.7,13.1c0.3,1.5-0.8,2.8-1.6,4.1
			c-5.6,8.7-11.2,17.3-16.6,26.1C764.6,223.4,744.8,251.7,725,280z M771.5,828.1c2.7,3.4,2.7,7.3,2.5,11.3
			c-0.9,5.7-5.5,7.9-9.3,11.3c-5.9,5.1-11.7,10.3-18.3,14.7c-3.3,2.2-8.1,3.7-9.6,6.7c-1.7,3.4,1.5,7.8,2.4,11.9
			c3.8,18.3,4.9,37,5.9,55.6c0.8,14.9,1.2,29.8,4.4,44.4c1.5,6.8-1.1,13.4-1.1,20.1c0,3.5,0.5,4.9,2.7,6.6
			c8.4,6.6,18.6,8.7,28.6,11.2c12.3,3.2,25.3,3.9,36.1,11.4c0-6,0.2-11.8,0-17.6c-1.2-26.8-3.3-53.5-3.5-80.3
			c-0.4-38-1.1-75.9,1.5-113.9c1.1-15.4,0.2-31,0.2-46.5c0-3.4,1.6-7.4-3.8-8.5c-0.8-0.2-1.8-1.7-2-2.7c-0.5-2.9-2.7-3.3-5-4
			c-18.5-5.5-37.3-8.5-56.6-8.8c-3-0.1-6-0.4-8.8-1.7c-4.4-2.2-5.1-2-5.6,3c-0.4,3.8-0.6,7.5,2,10.9c1.7,2.2,2,5.7,0.2,7.5
			c-4.9,4.7-3.5,10.4-3.1,15.8c1.2,15.5,0.1,31,1,46.5c0.2,3.3-1.4,5.6-4.7,5.9c-3.3,0.4-5.5-1.5-5.9-4.8c-0.4-3.1-0.6-6.3-0.6-9.5
			c-0.1-6,0-11.9,0-18.4c-2.5,1.7-4.9,1.1-7.3,0.7c-7.3-1.1-13.5-6.5-21.2-6.1c-0.3,0-0.7-0.1-0.9-0.4c-1.9-2.3-4.3-1.8-6.9-1.4
			c-1.8,0.3-3.7,0.5-5.5,0.3c-16.2-1.8-32.5,0.9-50-1.1c5.1,5.1,6.5,9.7,1.9,14.7c-0.5,0.5-0.1,1.9-0.1,2.9c0,5,0.6,10-0.4,14.9
			c-0.2,1.1-0.4,2.1,0.8,2.5c8.5,2.8,15.1,10.3,24.9,9.9c1.2-0.1,2.5,0.8,3.6,1.5c2.6,1.5,5,3.3,7.6,4.8c2.6,1.5,4.6,1.6,6.5-1.6
			c3.8-6.2,11.4-7.4,16.6-2.3c3.5,3.3,7.6,5.3,11.5,7.8c6.2,4,12.7,3.6,19,0.7c14.2-6.7,27.3-15.1,38.9-25.8
			C764.3,824.3,766.6,824.3,771.5,828.1z M512.9,869.9c-3.8,1.9-5.5,6.3-10.5,9.1c2.9-7,3.5-13.1,5.1-19c3.1-11.5,7.5-22.8,8.7-34.8
			c2.3-23.3-1.1-45.9-8.7-67.8c-6.4-18.5-14.3-36.3-29.2-49.9c-1.6-1.4-2.4-3.3-1.4-5.4c0.9-1.8,0.4-2.5-1.3-3.4
			c-12.7-6.1-25.7-8.6-38.9-1.7c-20.3,10.6-37.2,25-48.4,45.5c-6.7,12.2-11.5,25.1-15.8,38.2c-7.2,22.1-12.5,44.3-11.7,68
			c1,31.6,26.8,72.2,56,81.7c13.8,4.4,26.7,4.8,39.4-0.5c27.4-11.5,46.4-31.7,57.4-59.3c0.4-0.5,0.7-0.9,0.1-1.4
			C513.3,869.3,513.1,869.6,512.9,869.9z M687,358c-15.1,9.4-27.3,21.6-36.6,36.7c-1.6,2.6-3,4.6-1.1,7.9c1.9,3.5-0.8,7.5-3.9,6.2
			c-4.2-1.8-4.8,0.8-6.2,3.2c-20.2,35.5-34.5,73-37.9,114.1c-0.2,1.9-1.2,4,1.2,5.4c0.5,0.6,0.9,1.7,1.7,1c0.5-0.4-0.3-1.3-1.1-1.5
			c1.1-3.5,4.1-3,6.4-2.6c2.6,0.5,2.7,3,2.3,5.3c-1,6.4-3.1,7.6-11.7,6.7c0,11.2-0.9,22.4,0.2,33.4c2,20,4.6,40,10.2,59.4
			c2.8,9.7,7.8,18.4,13,26.7c6.9,11.1,17.4,19.1,28.4,26.2c8.2,5.4,17.3,8.3,26.8,7.3c7-0.7,15,0.7,20.5-5.8
			c0.3-0.3,0.9-0.5,1.4-0.5c1,0,2.2-0.1,2.8,0.5c0.8,0.7,0.3,1.9-0.2,2.8c-2.1,4.2-5.8,6.7-9.9,8.8c-2.9,1.5-6.3,2.1-9,4.3
			c1.1,0.6,2-0.1,2.9-0.3c9.4-2.8,17-9.1,25.8-12.9c12.3-5.2,21.5-13.6,30.6-23c28.6-29.4,49.5-62.9,59.8-102.8
			c1.4-5.5,3.7-10.9,3.6-16.5c-0.5-23.4,1.4-46.8-1.2-70.2c-0.3-2.6-0.6-5.3-0.7-8c-0.7-18.9-6.4-36.6-14.3-53.6
			c-0.6-1.2-1.1-2.5-2.5-3c-4-1.5-5.8-4.9-7.4-8.4c-11.4-25.3-32.4-38.8-57.7-46.9c-0.1,0-0.4,0.4-0.6,0.6c0,1.2,0.9,1.8,1.8,2.2
			c17.5,8.8,28.1,24,37.1,40.6c6,11.2,9.6,23.2,13.4,35.3c6.3,19.9,8.8,39.9,8.1,60.5c-0.2,6.1-0.6,12.2,1.4,18.2
			c1.7,5.3,2.2,10.9,1.2,16.3c-2.1,12.3-2.8,24.7-5.6,37c-4,17.9-9.5,35.2-17.7,51.6c-1.3,2.5-2.7,5-4.3,7.3
			c-6.1,8.9-12,18-18.6,26.6c-6.7,8.7-13.4,17.4-21.3,25.1c-2.4,2.3-5.3,3.4-8.4,4.1c-1.2,0.3-2.4-0.2-2.8-1.4
			c-0.3-0.7,0.1-1.2,0.8-1.6c7.1-3.9,11.2-10.5,16.5-16.9c-4.4-0.4-5.8-3.3-6.2-6.7c-0.2-1.6,1.1-2.9,2.8-2.9c4,0.2,4.1,4,5.9,7
			c12.5-16,24-32.3,33.1-51c-4.9-0.1-7.6-1.9-8.4-5.9c-0.3-1.5,0.6-3,2.3-3.4c4.2-1,5.2,2.7,7.2,5.6c2.8-7.2,6.2-13.6,8.6-20.5
			c6.6-18.9,9.4-38.3,10.6-58.2c0-0.5,0.1-1,0-1.5c-2.4-7.1-0.6-14.9-3.7-21.9c-0.7-1.5,0-2.1,1.5-2.3c0.2,0.2,0.3,0.4,0.5,0.7
			c0.1-0.1,0.2-0.4,0.2-0.4c-0.2-0.2-0.4-0.3-0.6-0.4c-0.4-7.7,0.3-15.5-4.4-22.4c-1.5-2.2-2-4.9-2.2-7.6c-0.2-3.1,0-6.3-1.1-9.4
			c-2.1-6.2-2.3-12.7-2.9-19.2c-0.9-9.9-1.9-19.7-6.4-29c-3.6-7.6-6.9-15.4-10.4-23c-4.8-10.4-12.7-17.5-22-23
			c-8.8-5.3-18.3-9.3-27.5-13.8c-2.6-1.3-2.6,0.1-2.3,2.2c0.8,5.8-1.9,10.7-4.8,15.4c-1.2,1.9-3.2,3.1-5.6,2.4
			c-2.6-0.7-2.8-2.9-2.8-5.2c0-3.7,1.4-7.2,1.9-10.8c0-0.4,0.1-0.8,0.1-1.1C687.5,357.6,687.2,357.8,687,358z M1114.5,822
			c0.8-47.3,1.1-81.1,2.8-114.9c0.2-3.8-0.8-4.8-4.5-4.7c-14.2,0.1-28.3,1.5-42.2,4.2c-26.3,4.9-52.4,11.2-79,15
			c-20.3,2.9-40.7,4.8-60.9,8.2c-33.7,5.7-66.2,16.4-99.2,24.8c-1.5,0.4-5.2,0-2.4,3.7c0.9,1.2-0.6,2.7-1.8,3.1
			c-3.1,1-3.1,3.5-3.6,6c-0.7,3.5-0.7,7-0.6,10.5c0.4,27.5,0.6,55,0.3,82.4c-0.2,30.6,2,61.2,4.4,91.8c2.2,27.7,5,55.4,5.4,83.2
			c0,3.9,1.2,5.5,5.2,4.6c6.5-1.5,13.1-2.1,19.7-2.8c29.4-3.4,58.2-10.4,87.2-16.3c52-10.6,103.6-22.9,156.4-29.5
			c3.6-0.4,3.9-2.5,4.1-5c2.7-27.2,5.6-54.3,7.3-81.6C1115.1,872.5,1113.8,840.5,1114.5,822z M1024.6,570.6
			c-0.6-9.8,1.6-19.3-1.9-28.3c-3.5-8.8-7.2-17.6-11.8-25.9c-3-5.4-5.9-11.3-12.9-13.1c-1-0.3-1.8-1.5-2.6-2.3
			c-6.7-6.5-13.6-12.7-22.3-16.3c-6.4-2.7-13.3-4.6-19.5-7.7c-6-3-12.2-3.7-18.7-3.7c-6.2,0.1-11.8-1.4-18.3,3
			c-5.6,3.8-11.4,7.2-15.5,12.5c-6.3,8.2-12.3,16.6-17.8,25.3c-25.7,40.2-31.4,82.7-13.5,127.6c4,10.1,10.3,18.8,18.8,25.4
			c10.3,8,20.6,15.6,35.5,12.9c9.9-1.8,20.3-1,29.2-6.9c0.7-0.4,1.5-0.8,2.3-0.9c12-2.2,21-10.4,31.5-15.7c1.4-0.7,2.7-2,3.7-3.3
			c6.1-7.9,12.4-15.7,18.1-23.9c8-11.6,14.6-23.8,14.8-38.5C1023.7,584,1024.3,577,1024.6,570.6z M1432.3,998.5
			c-1.9-4.3-1.5-7.9-0.8-11.5c4.7-24,9.4-48,14.1-71.9c4.8-24.3,8.9-48.8,10.6-73.5c0.3-3.9-1-5.2-4.6-5.9
			c-9.4-1.7-18.7-2.7-28.2-3.1c-34.8-1.3-69.5,1.6-104.3,0.3c-14.6-0.5-15-0.2-18,14.5c-6.6,31.6-10.5,63.7-13.9,95.8
			c-1.1,10.4-1.7,20.9,0,31.4c0.3,2.1-0.1,4.5,3.1,5.6c9.9,3.4,19.7,7,30.1,8.9c20.4,3.8,41.1,2.7,61.7,3.5
			C1398.6,993.2,1415.4,992.6,1432.3,998.5z M1132.8,905.1c-0.3,13.9,2.3,22.2,11.8,41.1c4.6,9.1,9.9,17.3,20.2,21.1
			c2.1,0.8,4.7,2.1,4.4,4.8c-0.3,2.9,1.2,2.8,3.1,2.9c8.2,0.2,16.3,0.1,24.4-1.3c10.2-1.7,20.6-5.1,26.6-13.4
			c17.6-24.2,25.8-51.1,17.6-81c-4.5-16.3-9.4-32.2-20.4-46.1c-10.3-12.9-23.3-10.7-36-9.5c-7.4,0.7-13.3,7.3-20,10.9
			c-6.8,3.6-8.9,11.5-15.5,15c-0.4,0.2-0.4,0.9-0.7,1.3c-4.5,6.4-6,14.1-7.7,21.4C1138.1,883.5,1131.4,893.8,1132.8,905.1z
			 M474.6,360.4c0.4,10.6,3,22.6,7.3,34.2c1.1,3,1.8,8.9,8,5.3c1-0.6,2.3,0.1,3.1,1.1c4.4,5.2,10.5,4.7,16.2,4.1
			c10-1.1,19.8-4.1,30.1-2.7c1.9,0.3,4.1,1,5.8,0.5c7.7-2.5,16.2-4,22.4-9.4c11.3-9.8,22.1-20.2,33-30.5c1.8-1.7,2.8-4.1,4.4-6.1
			c5.1-6.3,4.6-13,2.3-20.2c-6.2-18.9-16.5-33.9-35.6-41.9c-13.7-5.7-27.7-10.4-42.5-6.2C494.9,298.2,476.9,323.4,474.6,360.4z
			 M394,936c-3.6-3.1-7.3-5.6-10.5-8.7c-29.8-29.1-42.1-64.5-36.8-105.7c3-23.4,10.4-45.7,18.6-67.7c10.6-28.7,29-50.5,56.2-64.8
			c2.1-1.1,4-2.4,6.3-3.7c-2.6-1.6-4.7-1.2-6.8-0.7c-6.5,1.5-12.9,3.2-19.5,4.4c-3.3,0.6-5,1.3-4.1,5.3c1,4.1-0.2,8-4.4,10.2
			c-1.5,0.8-2.5,1.3-2.4-1.7c0.2-4.2-0.3-8.7-2.8-13.9c-1.6,3.7-1.4,6.5-1.7,9.2c-2.5,27.2-29.4,53.6-56.5,54.8
			c-5.5,0.2-8.9,2.2-11.9,6.4c-21.9,30.8-26.5,64.3-15.3,100.2c9.3,29.9,26.5,53.7,54.6,68.7c1-3.4-2.7-5.2-3.6-8
			c-0.6-2-1.4-4,0.7-5.4c2.1-1.5,3.8-0.1,5.2,1.4c0.9,0.9,1.6,2.1,2.5,3.1c4.1,4.5,7.6,10.8,13.7,11.9
			C381.8,932.4,388,933.7,394,936z M921.4,455.8c-6.7-41-3.2-82.6-8.7-124.1c-2.4,2.9-4.4,5.4-6.9,7.3c-9.8,7.6-19.7,6.1-26.5-4.1
			c-6.1-9.3-7.1-19.3-3.4-30.3c-6.8,2.4-12.2,6.2-17.7,9.9c-1.6,1.1-1.3,2.6-1.2,4c0.4,7.1,0.5,14.3,1.4,21.4
			c1.6,13.1,0.3,26.3,0.6,39.4c0.1,3.1-2.5,5.6-4.6,3.5c-2.9-3-3.8-0.7-5.6,0.5c-0.8,0.5-1.8,0.9-2.8,0.9
			c-9.3,0.5-18.2,2.1-26.5,6.6c-0.9,0.5-2.5,0.8-3.4,0.3c-3.3-1.8-6.9,0.8-10.1-1.3c-1-0.6-1.6,0.1-1.9,0.9
			c-1.8,4.7-6.8,8.4-7.6,12.3c-0.8,4,3.8,9.1,6.1,13.7c0.1,0.3,0.4,0.5,0.5,0.7c8.3-11,19.9-14,32.9-13.9c5.7,0.1,11.2,1.4,16.8,2.2
			c9.1,1.3,15.9,5.8,19.9,14c3.9,7.9,5.9,16.3,4.5,25.2c-0.6,3.5,0,4.9,4.1,5.3c10.6,0.9,21.4,0.8,31.5,4.5
			C916.1,455.9,918.9,456.2,921.4,455.8z M1120.2,346.2c1.6-12.2-4.6-29.1-7.4-46.5c-0.4-2.8-2-6.6-4.3-6.9
			c-5.6-0.6-11.3-0.7-16.3,4c-7.6,7.2-14.2,14.9-19,24.2c-8.5,16.4-12.6,34.3-17,52c-6,24.3-6.2,48.4,4.7,71.7
			c1.1,2.3,1.8,4,4.3,1.5c1.8-1.8,2.6-1.2,4.1,0.8c1.6,2,4.2,3.5,7,1.1c3.3-2.8,6.4-5.8,10.2-8c1.8-1,3.9,0.1,5.4-1.8
			c6.4-8.1,12.8-16.1,16.8-25.8C1117,393,1118.7,372.5,1120.2,346.2z M498.3,1058.5c5.1-1.3,8.6-3.5,12-5.9
			c12.3-8.3,22.5-19.2,34-28.5c6.4-5.1,8.9-11.1,9.1-18.8c0.2-7.2-0.1-14.3-2.7-21.1c-2.5-6.8-6.1-12.9-10.8-18.4
			c-4.9-5.7-11.3-9.1-17.9-12.4c-6.4-3.2-13.5,0.9-19.7-2.7c-0.2-0.1-1,0.7-1.6,1.1c-16,12.1-26.7,27.7-30.5,47.6
			c-2.3,12-3.2,24.1,0.7,36c3.7,11.2,10.6,15.2,21.6,12.8c1-0.2,2-0.2,3-0.2c4.3,0,6,2.4,4.4,6.5
			C499.8,1055.5,499.2,1056.5,498.3,1058.5z M1442.5,1000.8c1.8-0.1,3-0.2,4.1-0.3c11.8-1.3,23.1-4.9,34.6-7.5
			c3.9-0.9,5.6-2.4,6.7-6.3c12.8-43.5,18.8-88.1,21.2-133.2c0.2-3.7,0.7-7.6-1.3-11.2c-4.8,4.8-6,4.8-11.1,0.3
			c-1.8-1.6-3.8-2.7-6.1-3.3c-5-1.4-10-2.7-15-3.9c-5.1-1.2-7.2,0.5-7,5.9c0.9,22.8-2.1,45.2-6.2,67.5
			c-5.1,27.8-10.8,55.5-16.1,83.2C1445.8,995,1445,997.9,1442.5,1000.8z M401.6,504.4c-0.6,4.7-0.7,9.3,0.2,13.9
			c3.2,16.5,14.8,24.2,31.1,20.4c2.9-0.7,5.8-1.6,8.5-2.9c18.3-8.3,32-21.5,42.7-38.5c3.9-6.2,4.4-12.2,3.9-18.7
			c-0.4-5.2-2.6-10-5.5-14.3c-7.2-10.9-15.2-21.1-25-29.7c-4-3.5-8.3-6.8-13.9-8.6c0.7,2.3,3.1,3.5,1.6,5.9c-0.8,1.2-1.9,1.5-3,1.1
			c-9.7-3.3-15,2-19.5,9.4c-6.1,10.2-11.1,20.9-14.9,32.1c-3.1,9.2-5.9,18.5-6.3,29.9c2.9-4.7,5.9-7.1,9.8-8.3
			c3.1-1,5.8,0.3,5.4,3.7c-0.5,4.4-4.3,6.6-8,8.1C405.7,509.1,403.4,507.2,401.6,504.4z M301.7,703.7c1.1,12.4,7.2,25.1,19.4,35.3
			c5.1,4.2,9.6,4.8,15.4,3.1c27.6-7.9,48-37.9,44.7-66c-0.1-0.8-0.2-1.7-0.5-2.4c-0.4-1-1.2-1.8-2.3-0.7c-4.1,4.4-7.3,1.2-10.2-1.4
			c-2.6-2.3-4.7-5.1-6.8-7.9c-3.7-5-8.6-6.7-14.5-5.2c-6.1,1.5-12.2,3.1-18.3,5C312.5,668.5,301.7,683.6,301.7,703.7z M429,553.4
			c-7.4-0.3-14.7-0.9-21.2-4.6c-14.6-8.4-20-22.1-19.4-37.9c1.1-28.9,11.8-54.7,28-78.3c4.5-6.6,10.6-11.1,20-9.5
			c-16.6-10-36.6-6.2-48.7,9c-10.8,13.4-19.4,28.2-26.4,43.9c-4.6,10.3-7.3,21.2-5.7,32.5c2.6,19,12.5,34.2,26.5,46.7
			c5.4,4.8,12.2,6.7,19.4,6.7C411.5,561.9,420.3,558.2,429,553.4z M1217.6,80c-1.5,1.2-3.1,2.4-4.6,3.6c-5.8,4.7-11.6,9.4-17.5,14.1
			c-1.7,1.4-3.6,2-5.4,0.2c-1.6-1.5-1.7-3.7,0-4.8c4.8-3.2,1.2-4.8-1.1-6.6c-1.3-1-2.8-1.8-4.4-2.3c-12.3-3.7-24-3.8-33.9,6
			c-2.3,2.2-4.7,4.3-6.9,6.5c-11.9,11.5-13.4,26.5-9.5,40.8c4.8,17.6,31.1,27.3,47.6,19.2c8.1-4,14.2-10.4,19.5-17.5
			c0.8-1.1,1.6-2.1,0.6-4c-3-5.3-1-8.6,5.3-9.1c3.3-0.3,6.8,0.3,10.6-1.2c-2.3-1.1-4.2-1.8-5.9-2.8c-10.1-5.5-11.3-11-4.7-20.1
			C1211.9,95.3,1215.4,88.1,1217.6,80z M1022.9,704.2c-8.6-1.7-17-2-25.4-2c-6.7,0-13.3,0.3-20-0.6c-15.9-2.1-31.7-2.2-47.5,0.5
			c-10.2,1.7-19.5,6.3-29.6,8.5c-24.9,5.3-49.2,13-74.6,15.9c-19,2.2-37.3,8.7-56.5,10c-6.5,0.5-13,1.1-19.3,3.1
			c18.4-0.8,36.3,2.2,53.7,7.5c4.1,1.2,7.9,1,11.6-0.4c9.2-3.6,18.7-5.8,28.2-8.4c29.1-7.8,58-16.4,87.8-21
			c23.5-3.7,47.3-5.2,70.8-9.5C1009,706.7,1016,705.5,1022.9,704.2z M809.4,432.3c4.9,16.5,7.4,33.1,8.4,51.4c2.7-3.6,5.2-4.3,7.8-5
			c12.5-3.5,23.1-9.9,30.1-21.4c1.2-2,2.1-2.5-0.3-4.3c-2.6-2-1.7-4.4,1.4-5.7c1.2-0.5,2.5-0.8,3.8-1c4-0.8,5.4-2.7,4.6-7.1
			c-2-10.5-9.8-16.2-17.6-21.9c-0.6-0.4-1.6-0.3-2.4-0.3c-10.3-0.1-19.8,2.3-27.7,9.4c-1.8,1.6-2.7,3-2,5.5c0.3,1.1,2.2,2.8,0,3.8
			c-1.6,0.7-2.8-0.6-4-1.5C810.8,433.7,810.1,432.9,809.4,432.3z M1067.1,692.3c2,0.8,4.2-0.3,6.2,0.1c3.9,0.7,5.4-1.3,6.2-4.8
			c5-22,9.4-44.1,16.3-65.7c2.1-6.6-1.5-10.2-8.3-10c-2.7,0.1-5.3,0.2-8,0.4c-13.9,1.3-27,4.6-38.6,13.4
			C1065.1,642,1072.4,664.6,1067.1,692.3z M816.5,1115.4c9.6-0.2,16.2-6,23.8-9.6c0.9-0.4,1.2-1.2,0.7-2
			c-3.8-7.1-5.9-15.1-14.2-19.1c-12.1-5.9-24.6-9-38-8.6c-2.5,0.1-5.9-1.4-6.1,3.3c0,0.8-1,1.4-1.9,1c-8.3-2.9-12.6,2.5-16.8,8
			c-2.4,3.2-1.8,5.8,1.7,7.8c3.2,1.8,6.8,3.1,9.4,5.5C787.1,1112.4,802.4,1112.8,816.5,1115.4z M614.7,313.5
			c3.4,7.3,6.4,13.4,7.9,20.1c0.4,1.6,1.1,2.7,3,2.4c13.5-1.6,27.5,4.1,40.7-2.7c7.4,1.2,9.3-3.4,10.7-9.4
			c1.7-7.2,5.7-13.5,9.1-20.4c-11.9,0.8-23.1,2.1-33.9,5.5C640.3,312.8,628.3,316.5,614.7,313.5z M877.5,674.7
			c-18.1-17.4-24.6-40.1-28.6-63.6c-3.5-20.4,1-40.4,5.7-60.2c6.5-27.5,24.4-48.4,41.3-69.8c1.8-2.3,3.2-4.3,2.7-7.3
			c-3.2,0.2-5.3,2.3-7.3,4.2c-8.5,8-16.3,16.8-22.3,26.8c-17,28.1-26,59.1-29.3,91.3c-2.6,25.4,5.4,48.4,23,67.3
			C866.8,667.9,870.9,673,877.5,674.7z M705.7,749.8c-0.6,2.3,0.4,4.5,4.5,4.5c1.5,0,2.9,0.8,4.4,1c3,0.4,5.9,3.9,8.2,2.4
			c2.2-1.5,0.4-5.6,1.4-8.4c0.9-2.5,0.1-3.3-2.2-4.3c-4.3-1.9-4.4-5.8-0.4-8.4c1.4-0.9,3-1.5,4.6-1.9c6.8-1.7,13.6-3.3,20.4-4.9
			c1.5-0.3,3.5-0.4,2.2-2.7c-3.3-5.6-4.5-12-7.6-17.7c-2.3-4.3-5.6-9.4-3.9-15.3c0.8-2.8-0.3-3.7-3.1-2.3c-2.2,1.1-4.5,2.2-6.9,2.9
			c-7.7,2.2-11.5,7.8-13.8,15C709.4,722.4,707.4,735.4,705.7,749.8z M841.2,1131.3c11.5,5.8,22.2,6.4,32.9-1.1
			c3.5-2.4,7.8-3.7,11.8-5.1c8.5-3,15.5-8.2,22.8-14.3c-7.1-1.9-12.7-4.9-17.4-9.6c-2-2-3-0.7-4.5,0.5c-9,7.6-18.8,11.2-30.4,6.5
			c-3.1-1.3-3.9,0.2-3.4,3c0.9,5.4-1.5,9.7-5.1,13.4C845.8,1126.9,843.5,1129.1,841.2,1131.3z M1161.2,434.3c9.5,0,18.8-0.1,28.1,0
			c3,0,2.5-2.1,2.7-3.7c1.8-14.2-4.1-25.6-13.1-35.7c-3.9-4.3-6-4.2-9.7,0.3c-6.2,7.7-10.9,16.3-14.7,25.4c-1.4,3.4-2.3,7-2.2,11.6
			c2.8-2.9,4.2-7.3,8.2-5.7C1163.9,427.9,1161.6,431.4,1161.2,434.3z M702.1,876.5c-0.1,2-0.3,4.3-2,4.9c-4,1.2-2.6,3-1.1,5.2
			c0.8,1.2,1.3,2.7,2,4c3.3,6.6,3.1,13.8,3.5,20.9c0.1,1.6-0.8,4.3,1.8,4.5c8.1,0.6,16.2,1.8,24.2-0.7c1.6-0.5,2-1.3,1.9-2.9
			c-0.6-11.5-1.9-22.8-3.7-34.2c-0.3-2-0.9-2.5-2.9-1.6C718.1,879.9,710.3,879.5,702.1,876.5z M530.5,847.3c0.5-0.2,1-0.1,1.1-0.3
			c0.4-0.5,0.6-1.1,0.9-1.7c8.9-17.7,9.3-36.1,5-55c-5.4-23.6-14-45.8-29-65.1c-1.3-1.7-2.3-4-5.1-4.1
			c21.6,39.2,31.1,80.2,20.9,124.8c3.5-3.6,3.7-8.6,6.6-12.7C531.9,838.2,529.7,842.7,530.5,847.3z M1570.6,466.7
			c1.8-10-1.2-19.1-6.8-27.5c-3.4-5.1-7.5-7.1-11.7-5.1c-11.6,5.6-19.7,14.9-25.7,26.2c-1,1.8-0.4,2.7,1.8,2.8
			c4.3,0.2,8.6,0.6,12.9,1C1550.8,464.9,1560.5,465.8,1570.6,466.7z M975.6,1100.2c5.9,5.1,11.5,4.9,17.5,1.7
			c8.3-4.5,16.2-9.8,25.3-12.8c2.4-0.8,5.6-1.7,7.2,1.3c1.7,3.2-1.2,4.8-3.1,6.5c-4.6,4-10.3,6.3-15.7,9.6c3.4,2.7,8.8,2,10.1,7.1
			c0.2,0.7,1.5,0,2.2-0.3c10.4-3.3,20-8.1,29-14.2c2.2-1.5,2.6-2.1-0.1-4c-6.1-4.4-14.2-5-19.5-10.6c-2.2-2.4-4.4-2.6-7.5-1.7
			c-14.2,3.9-27.2,11.1-41.6,13.8c0.3,2,2.8,1.6,3.3,3.6C979.9,1100.2,977.8,1100.2,975.6,1100.2z M1000.2,1115
			c-3-2.6-5.3-3.6-9-1.8c-6,2.9-12.4,2.1-18-1.8c-2.9-2-5.5-4.2-8.2-6.5c-1.3-1.1-2.3-2-4.3-1.5c-7.8,1.7-15.7,2.9-23.3,5.2
			c-2.9,0.9-3.4,2.3-2.4,4.9c1.1,3,2.3,5.9,2.9,9c0.6,2.8,2.1,3.4,4.6,3.4c6.7,0,13.3-0.1,19.9-1.5c4.5-0.9,9.4-2.9,13.6-2.4
			C985.1,1123.3,992,1118.7,1000.2,1115z M473.3,598.2c-3.7-7.5-5.5-14-6.6-20.7c-1.1-6.8-0.7-13.6-0.9-20.4c0-1.1,0.3-4.2-1.7-2.9
			c-4.7,2.9-10.8,4.4-13.3,9.8c-4.2,9.1-4,18.7-1.5,28.2c1,4,3.8,6,8.1,6C462.4,598.1,467.3,598.2,473.3,598.2z M487.8,683.5
			c0.2-4.5-0.2-9-1.7-13.3c-0.6-1.7-1.2-3.4-2.9-4.5c-5.1-3.1-10.1-6.3-16-7.9c-8.7-2.3-14.6,1.4-16.5,10.2c-0.6,2.8,0,3.7,2.8,4.4
			c9.2,2.2,17.7,5.7,23.6,13.6c0.7,1,2.2,1.4,3.4,2C487.7,691.9,487.7,691.9,487.8,683.5z M844.1,1112.5c-1.7,0.9-2.1,1-2.5,1.3
			c-10.5,9-22.3,12.9-36,8.7c-1.9-0.6-3.9-1.2-5.8-1.3c-19.3-1-31-15.3-45.7-24.9c-1.8,2.2-1.3,5,0.6,8c7.1,11.3,18.4,16.9,30,21.9
			c5.3,2.2,10.9,3.9,17,3c11.1-1.7,22.4-2.3,32.8-7.2C838.7,1120.2,841.3,1117.4,844.1,1112.5z M1123.4,931.6
			c-0.6,5.8-1.1,11.5-1.7,17.3c-1.3,11.6,4,20.3,14.9,24.3c1.3,0.5,2.3,1,3.8,0.3c3.1-1.4,4.7-0.2,4.8,3.2c0.1,3.3,1.8,4.7,5.1,4.4
			c2-0.2,4.1,0,6.2,0c0.3-0.4,0.5-0.8,0.8-1.2C1139.2,968.4,1131.4,950.1,1123.4,931.6z M1127.3,858.8c0.2,0,0.5,0.1,0.7,0.1
			c1-2.3,1.9-4.6,2.9-6.8c1.1-2.6,1.9-6.1,4.5-6.9c4-1.2,5.2-4.3,7-7.1c4.5-7.2,11.6-11.6,18.7-15.1c4.3-2.2,9.2-3.2,13.8-7.2
			c-12.9,1.5-24.4,3.9-34.7,10.2c-4.4,2.7-8.3,5.7-8.1,11.7c0.1,1.5-0.7,3.2-2.4,3.4c-2.5,0.2-2.4,1.7-2.4,3.4
			C1127.3,849.2,1127.3,854,1127.3,858.8z M903.4,317c-0.3-5.6,0-9.9-2.8-13.4c-0.9-1.1-1.6-2.6-3.6-1.8
			c-9.9,3.7-13.2,20.2-5.4,27.4c1.8,1.7,3.5,1.5,5.3,0.4C902.2,326.3,904.1,321.5,903.4,317z M467.2,618.2c1.1,1.9,2,1.8,2.7,1.8
			c6.4,0.6,27-6.9,33.6-11.9c1.9-1.4,3.1-2.6,1.1-4.7c-1.7-1.7-2.1-5.7-6.2-2.7c-6.1,4.5-12.4,9-20.8,7.9c-1-0.1-2,0.3-1.9,1.6
			C475.8,615.6,474.1,619.3,467.2,618.2z M437.6,570.1c-8,2.4-8,2.4-6.4,9.8c0.3,1.5,0.5,2.9,0.9,4.4c1.9,8.9,4.3,17.7,7.9,26.2
			c1.8,4.1,5,5.4,9.2,5.4c4.3-0.1,2.8-4.2,4.4-5.9C433.3,602.5,437.3,585.5,437.6,570.1z M513.1,897.9c9.3-3.9,21.7-30,24.2-50.1
			c-4.9-0.5-7.1,1.2-7.9,6.6C527,869.8,521.7,884.3,513.1,897.9z M794.6,661.4c-3.5-7.4-5.5-14.2-6.9-22.2
			c-5.2,6.9-10.7,12.5-16.5,18.7C779.3,659.1,786.5,660.1,794.6,661.4z M1064.8,603.6c6.8-0.6,13.5-1.9,20.4-1.5
			c5.9,0.4,11.3,1.4,14.3,7.6c3.7-9.2,1.8-13.4-6.6-14.1C1082.6,594.8,1073.5,598.6,1064.8,603.6z M851.3,373.4
			c3-17.6,0.3-35-0.9-52.6c-3.7,1.2-4.6,3.2-4.2,6.3c0.8,7.1,1.4,14.2,2,21.3C849,356.8,852,364.9,851.3,373.4z M841.4,266.3
			c-0.7,15.5,3.9,29.1,3.6,43.4c0.9-0.3,1.4-0.3,1.8-0.6c2.9-1.9,4.6-18.1,1.5-20.7c-3.3-2.8-3.2-6-3.2-9.4
			C845.3,274.9,844.5,271.1,841.4,266.3z M975,293.7c-0.1-3.3-4.8-9.1-7.4-9.2c-2-0.1-6.2,6.4-5.7,9.5c0.5,3.5,1.2,7.1,6,7
			C971.6,301,975.1,297.4,975,293.7z M1058.3,159.8c-6.8,0.8-13.1,1.6-20.3,2.4c3.7,1.6,6.6,2.7,9.5,4
			C1056.5,170.3,1056.5,170.4,1058.3,159.8z M692.9,344.5c-4-4.2-11-5.9-18.1-4.6c2.9,2.1,7.5,2.3,8.8,5.4c1.6,3.8,3.3,2.5,5.4,1.4
			C690.3,346,691.5,345.3,692.9,344.5z M506.7,591.3c3,3.4,5.5,6.8,7.7,10.6c3-3.7,5.2-6.9,1.2-11.2
			C512.2,587.1,509.8,590.1,506.7,591.3z M920.9,1128.5c0-2.4,0-4.4,0-6.3c0.1-5.5-1-6.1-5.8-3.7c-5.5,2.8-5.6,3.6-0.5,6.9
			C916.4,1126.5,918,1127.9,920.9,1128.5z M444.8,679.5c-4.2-4-9.1-4.3-15.5-4.3c3.6,2.2,4,4.9,4.2,7.6
			C437.5,681.6,441,680.6,444.8,679.5z M1256.4,953.1c-2.1-2.5-3.6-5.3-6.6-6.7c-1.4-0.7-2.3-1.7-3.4,0.5c-0.9,1.9-0.8,3,1.4,3.6
			C1250.7,951.4,1253.5,952.3,1256.4,953.1z M665.4,352.6c3.9-0.7,8.1,0.1,11.5-2.6C672.7,349.1,668.8,349.7,665.4,352.6z
			 M663.1,699.2c4.9,1.3,9.7-0.1,14.5-0.8C672.8,698.3,667.8,696.8,663.1,699.2z M1019.9,630.5c1.4-1.9,4.4-2.4,4.2-5.3
			c0-0.2-0.6-0.6-0.7-0.6C1021.5,626.1,1020.5,628.2,1019.9,630.5z M717.8,356.9c-2.4-2.9-5.1-3.2-9.6-3
			C712.2,355.2,714.7,356,717.8,356.9z M365.4,935.4c-0.7,2.1-1,4.1,0.8,5.2c1.3,0.8,2.3-1,2.4-1.7
			C369.2,936.5,366.7,936.5,365.4,935.4z M989.2,1084c-3.8-0.3-5.5,1-7.7,2.8C984.1,1085.9,986,1085.1,989.2,1084z M936.4,180.5
			c-0.1-0.1-0.2-0.2-0.4-0.3c-0.4-0.2-0.5-0.1-0.3,0.3c0.1,0.1,0.3,0.2,0.4,0.2C936.2,180.7,936.3,180.6,936.4,180.5z M684.6,695.2
			c-0.3-0.1-0.6-0.3-0.8-0.3c-0.3,0-0.5,0.3-0.8,0.5c0.4,0.1,0.8,0.3,1.2,0.4C684.3,695.8,684.5,695.4,684.6,695.2z M978.9,1087.6
			l0-0.3l0.4,0.2L978.9,1087.6z M442.6,425.2c-0.1,0.1-0.2,0.2-0.4,0.3c0.1,0.1,0.2,0.3,0.3,0.3c0.1,0,0.2-0.2,0.3-0.2
			C442.8,425.4,442.7,425.3,442.6,425.2z M660.8,356.4c-0.1-0.1-0.2-0.3-0.3-0.3c-0.1,0-0.2,0.2-0.3,0.3c0.2,0.1,0.3,0.2,0.5,0.3
			C660.7,356.6,660.8,356.5,660.8,356.4z M782.5,625.2c-0.1,0.1-0.3,0.2-0.3,0.3c0,0.1,0.2,0.2,0.3,0.4c0.1-0.1,0.3-0.2,0.3-0.3
			C782.8,625.4,782.6,625.3,782.5,625.2z"/>
		<path class="st1" d="M1369.6,162.8c-4.9,0.6-8.9-2.9-13.6-3.9c-10.2-2.1-20.4-4.3-30.1-8c-8.5-3.2-16.6-7.3-22.3-14.9
			c-3.3-4.3-3.2-9.6,0.2-12.8c3.5-3.3,8.3-3,12.7,0.6c5.9,4.8,12.8,7.2,20.1,9.8c12.4,4.3,25.5,5,37.7,9.8c4.7,1.8,7.6,6.1,6.8,10.9
			C1380.1,159.1,1375.3,162.8,1369.6,162.8z"/>
		<path class="st1" d="M1298,91c-4.1-0.1-8.5-4.1-9-7.8c-0.5-4.6,2.3-7.7,6.1-8.4c14.3-2.6,27.3-9,41.2-12.9c3-0.9,6.2-1.2,8.7-4.1
			c2.2-2.5,12.3,2.1,13.8,5.6c2.4,5.6,0.7,9.7-5.3,11.6c-7.7,2.4-15.5,4.2-23.1,6.9c-7.7,2.8-15.5,5.1-23.4,7.5
			C1304,90.3,1300.6,89.8,1298,91z"/>
		<path class="st1" d="M1293,34.1c-0.4-4.3,2.2-7.5,4.4-10.7c8.5-12.7,19.1-23.8,29.1-35.3c1.7-2,3.9-3.3,6.5-2.7
			c2.5,0.5,4.5,1.9,5.3,4.6c0.8,2.7-0.4,4.4-2,6.2c-9,10.6-18.7,20.6-26.9,31.8c-1.9,2.7-3.9,5.2-4.9,8.5c-0.5,1.8-1.4,3.3-3.3,4.2
			C1295.6,43.3,1293,41.2,1293,34.1z"/>
		<path class="st1" d="M730.6,930.9c-3.1-1.3-5.9-0.3-8.6,1c-5.7,2.7-10.8,0.1-15.7-2.1c-2.2-1-1.1-3.6-1-5.4c0.2-2.2,2-1.2,3.1-1
			c7.5,1,14.9,1.8,22.3-0.3c1.3-0.4,2.5-0.3,2.5,1.3c0,2.2,1.4,4.5-0.3,6.7C732.2,931.1,731.4,931,730.6,930.9z"/>
		<path class="st1" d="M1537.9,530.1c-3-0.5-5.3,0.3-7.5,2.6c-4.8,4.9-10.9,5-15.9,0.2c-1.9-1.8-2.7-1.7-4.1,0.1
			c-0.9,1.1-2.4,1.8-3.4,2.9c-6,6.8-14,4.5-19.1-0.1c-2.4-2.1-3.5-2.1-6-0.5c-4,2.6-8.4,2-12-1.1c-1.8-1.5-2.7-1.9-4.8-0.2
			c-5,4.1-10,3.9-14.8-0.4c-1.6-1.4-2.7-1.9-4.7-0.9c-3.4,1.6-6.8,0.9-10-0.9c-3.2-1.8-6-1.9-9,0.9c-4.8,4.4-10.5,4.2-15.2-0.3
			c-1.9-1.8-3.8-2.3-6.2-2.4c-13.6-0.5-27.3,0.8-40.8-1c-27.8-3.7-55.6-7.6-83.3-11.4c1.8-1.5,2.1-4.7,5.4-4.4
			c17.8,1.3,35.6,1.2,53.1,5.3c11.4,2.7,22.7,5.5,34.5,4.2c18.6-2.1,37.2-1.1,55.9-0.6c14.8,0.4,29.6-0.7,44,4.3
			c3.6,1.3,7.9,0.7,11.9,0.9c9.1,0.5,18.3-0.7,27.4,1.6c2.3,0.6,4.1-0.2,4.6-2.6c0.5-2.2-1.1-3.4-3-3.9c-3.7-1.1-7.5-1.5-11.3-1.5
			c-9.5-0.1-19,0.7-28.4-1c-6.9-1.2-13.4-4.6-20.4-4.4c-18.5,0.6-36.9-0.9-55.4-0.9c-14.3,0-28.8,2.6-42.8-1
			c-21.9-5.7-44.2-7.8-66.7-8.5c-2.7-0.1-4-0.8-5-3.5c-2-5.7-6.5-8.9-12.5-9.2c-5.8-0.3-10.6,2.1-13.2,7.3c-1.5,3.1-3.4,3.5-6.3,3.2
			c-13.6-1.6-27.3-1.4-40.9-0.7c-17.8,0.9-35.6,1.4-53.3-1.1c-2.9-0.4-4.4,1-5.4,3.4c-3.6,1.9-7.2,3-11.2,1.2
			c2.7-14.9,6.7-29.4,11.4-43.8c1.7-1.8,3.4-3.7,5.1-5.5c6.1,3,11.9,6.5,19.1,5.8c3.8-0.3,6.4-1.7,5.8-6.2
			c6.5-0.1,12.1-2.4,16.7-7.1c10.4,0.8,20.9,1.2,31.3,1.6c6,0.2,12.2-0.4,18.3-0.7c2.8-0.1,4.2,0.6,4.8,3.5c0.9,4,2.5,8,4.9,11.4
			c7,10.1,24.7,9.6,31.3-1c2.2-3.5,1-6-3-6.9c-3.7-0.8-6.9,0.7-10.1,2c-5.7,2.2-10.9-1.3-10.9-7.2c0-2.3,1.7-1.5,2.8-1.3
			c23.1,3.1,46,7.2,69.2,8.6c11.8,0.7,23.5,2.1,35.3,3.1c2.4,0.2,3.2,0.9,3.6,3.5c2.2,16,21.6,24,34.9,14.6c1.1-0.8,2-1.7,2.8-2.8
			c1.4-2,2-4.7,1-6.6c-1-2.1-3.1,0.3-4.7,0.5c-4.3,0.6-8.4,1.8-12.8,1.5c-2.5-0.2-5-0.5-7.2-1.8c-2.2-1.3-3.7-3.4-3.1-5.8
			c0.7-2.8,3.3-1.2,5-1.1c18.1,1.7,36,3.9,53.8,7.5c19.8,4,40.1,3.9,60.2,4.9c5.9,0.3,11.8,0,16.4,4.8c0.3,0.3,0.7,0.5,1,0
			c0.1-0.1-0.2-0.5-0.3-0.7c-0.5-2.3-0.3-3.8,2.8-3.4c6.4,0.8,12.9,1.3,19.3,1.8c2.2,0.2,1.9,1.4,2.7,2.9c3.1,6.5-0.5,11.5-2.6,17
			C1542.6,509.1,1540.7,519.7,1537.9,530.1z M1325.9,490.9c1.5,0,3,0,4.5,0c3.7-0.1,6.2-2,6.3-5.7c0.1-3.9-2.5-5.9-6.4-6.1
			c-1,0-2,0-3,0c-9.4-0.1-9.4-0.1-7.5-9.1c0.3-1.3,0.5-2.6,0.7-3.9c0.4-2.9-0.7-5-3.4-5.9c-3-0.9-5.2,0.5-6.3,3.4
			c-1.4,3.9-2.8,7.8-3.9,11.8c-0.9,3.3-1.9,5.8-5.9,6.9c-4.3,1.2-4.6,4.8-0.8,7.1c1.8,1.1,2,2.3,2.3,3.9c0.6,2.7,2.4,4.3,5.2,4.6
			c2.8,0.3,5.3-1.1,5.8-3.7c0.8-4.5,3.5-4.4,6.9-3.8C1322.2,490.8,1324.1,490.8,1325.9,490.9z M1419.6,505.9c2.3,0,3.3,0,4.3,0
			c3.7-0.2,6.1-1.9,6.1-5.8c0.1-3.6-2.2-5.5-5.6-5.8c-4.8-0.5-11.3,1.1-14.1-1.5c-6-5.5-8.3,3-12.8,1.8c-1.6-0.4-3.6,0.3-5.4,0.5
			c-1,0.1-2,0.1-3,0.3c-2.9,0.8-4.7,2.5-4.4,5.7c0.3,2.9,2.1,4.4,4.9,4.7c1.8,0.2,3.7,0.2,5.5,0c2.7-0.2,5-0.4,4.8,3.5
			c-0.1,1.9,1.6,2.9,3.4,3.1c2.1,0.3,4-0.8,4.2-2.7c0.5-6.1,4.5-4.9,8.3-4.4C1417.6,505.6,1419.3,505.8,1419.6,505.9z M1254,477.3
			c-0.3-2.8-0.3-6-3.8-6.8c-3.7-0.8-4.8,2.3-5.8,4.9c-1.3,3.6-2.3,7.3-3.6,10.9c-0.8,2.3-1,4.6-0.2,6.8c0.7,2,2.4,3.2,4.4,3.6
			c1.9,0.4,3.6-0.6,4-2.2C1250.3,488.7,1253.4,483.4,1254,477.3z M1355.9,487.3c0-1.8,0.1-2.4,0-3.1c-0.4-2.6-0.5-5.9-3.9-6
			c-3-0.1-2.9,3-3.5,5.2c-1.5,5.8-3,11.5-4.7,17.2c-0.8,2.8-0.6,5.2,2.1,6.3c2.9,1.1,5.1-0.3,6.2-3.3
			C1354.3,498,1355.4,492.2,1355.9,487.3z"/>
		<path class="st1" d="M681.2,854.2c4.4-1,7.5,2.1,11,3.7c5.3,2.2,9.6,6.1,15.9,6.6c9.6,0.8,17.9-2.7,25.4-7.4
			c10.2-6.4,20.9-12.3,30-20.5c0.8-0.7,1.6-2.2,2.8-1.2c0.9,0.7,0.6,2.2,0.3,3.3c-0.2,0.7-0.8,1.6-1.4,2
			c-13.7,8.8-26.3,19.3-41.2,26.3c-6.7,3.1-13.1,4.1-19.9-0.1c-4.1-2.5-5.8-1.4-8.3,3.9c-4.5-3.4-9-6.8-13.4-10.2
			C682.6,858.3,682.1,856.2,681.2,854.2z"/>
		<path class="st1" d="M996.4,690.9c0.4-8.1,4-15.8,3.3-24.1c-0.2-2.4-0.3-4.9-1.6-7.1c2.1-3.7,4.6-7,7.6-10
			c6.5,9.1,5.7,19.2,3.9,29.3c-0.7,4.1-2.2,8-3.4,12C1003,690.9,999.7,690.9,996.4,690.9z"/>
		<path class="st1" d="M676.8,718.9c0.6,11.5,8,19.1,15.3,26.7c0.1,6.3,0.1,6-5.8,5c-5.6-1-9.4-2.9-10.4-9.3c-0.5-3-2.2-0.3-3.1,0.6
			c-3.8-5.3-6.4-11.1-7.1-17.7C669.4,722.4,673.1,720.7,676.8,718.9z"/>
		<path class="st1" d="M1064.8,603.6c8.7-5.1,17.8-8.8,28.1-8c8.4,0.6,10.3,4.8,6.6,14.1c-3-6.1-8.4-7.2-14.3-7.6
			C1078.4,601.7,1071.7,603,1064.8,603.6z"/>
		<path class="st1" d="M863.1,697.1c-0.5,4.9-3.7,9-4,14c0,0,0-0.1,0-0.1c-0.8-0.3-0.8,0.3-1,0.8c-3.6,1-7.1,2-10.9,2.2
			c1.7-5.5,3.4-11,5.2-16.6C855.9,697.3,859.5,697.2,863.1,697.1z"/>
		<path class="st1" d="M553,834.9c5.2-2.2,9.7,0.5,13.5,3.1c3,2.1,1.3,6.2,0.8,9.3c-0.2,1.4-2,0.6-3,0.1c-4.1-2.1-8.2-4.2-12.4-6.3
			C551.9,838.9,552.1,836.8,553,834.9z"/>
		<path class="st1" d="M1044.6,692.7c2.4-8,0.4-16.7,3.7-25.8c5.9,8.9,3.9,17.3,2.6,25.7C1048.8,693.2,1046.7,693.1,1044.6,692.7z"
			/>
		<path class="st1" d="M1422.1,452.7c7.2-5.4,10.7-5.7,17.5-1.3c-0.2,3.2-1.8,4.1-4.9,3.4C1430.6,453.9,1426.3,453.4,1422.1,452.7z"
			/>
		<path class="st1" d="M771.5,828.1c2.8-0.2,4.6,1.7,6.4,3.3c2,1.7,3.3,3.9,2.1,6.5c-1.3,2.9-3.8,1.9-6,1.5
			C774.2,835.4,774.1,831.5,771.5,828.1z"/>
		<path class="st1" d="M855.9,685.1c1-3.6,2.6-6.3,7-5.1c0.3,0.4,0.6,0.8,0.9,1.2c0.4,0.3,0.8,0.6,1.2,0.9c0,0-0.1-0.1-0.1-0.1
			c0,1.3,0,2.6,0.1,3.9C861.9,686,858.9,686,855.9,685.1z"/>
		<path class="st1" d="M803.4,720.8c2.6-5.3,4.4-5.6,9.6-2.1C809.7,719.4,806.6,720.1,803.4,720.8z"/>
		<path class="st0" d="M1153,504.5c1-2.4,2.5-3.8,5.4-3.4c17.7,2.5,35.5,2,53.3,1.1c13.6-0.7,27.3-0.9,40.9,0.7
			c2.9,0.3,4.8-0.1,6.3-3.2c2.6-5.3,7.4-7.7,13.2-7.3c6,0.3,10.5,3.5,12.5,9.2c1,2.7,2.3,3.4,5,3.5c22.5,0.7,44.8,2.9,66.7,8.5
			c14,3.6,28.5,1,42.8,1c18.5,0,36.9,1.5,55.4,0.9c7.1-0.2,13.6,3.1,20.4,4.4c9.4,1.7,18.9,0.9,28.4,1c3.9,0,7.7,0.4,11.3,1.5
			c1.9,0.6,3.5,1.7,3,3.9c-0.5,2.3-2.3,3.1-4.6,2.6c-9-2.3-18.2-1.1-27.4-1.6c-4-0.2-8.3,0.4-11.9-0.9c-14.4-5-29.2-4-44-4.3
			c-18.6-0.5-37.3-1.5-55.9,0.6c-11.8,1.3-23.2-1.5-34.5-4.2c-17.5-4.1-35.4-4-53.1-5.3c-3.3-0.2-3.7,2.9-5.4,4.4
			c-9.6,5.8-16.2,4.4-22.9-4.7c-0.5-1.7-2-1.5-3.3-1.5c-11.7-0.8-23.3-1.6-35-1c-13.5,0.2-26.9,1.8-40.4,0.9
			c-6.3-0.4-12.5-1.9-18.9-1.4C1157.2,510.2,1154.1,508.1,1153,504.5z"/>
		<path class="st0" d="M1305.1,743.1c-0.2-3,1.3-5,3.8-6.4c5.9-3.3,14.8-2.4,19.6,2.1c8.1,7.4,9.3,11.5,5.6,20
			c-2.7,6.2-5.8,12.3-8.9,18.4c-1.2,2.4-1,3.3,2,3.7c3.7,0.4,8.7,0.7,8.5,5.7c-0.3,4.8-5.2,4.2-8.7,4.5c-3.3,0.3-6.7,0.1-10,0.2
			c-2.6,0.1-4.6-0.8-5.7-3.2c-1.1-2.4-0.5-4.5,1.4-6.3c0.6-0.5,1.5-1.5,1.4-1.8c-3.1-6.3,2-10.3,4-15.1c1.5-3.7,3.3-7.4,5.6-10.5
			c3.2-4.3-0.5-6.3-2.5-8.8c-2.3-3-6-3.4-8.5-1.2c-3.8,3.4-5.7,1.4-7.9-1.4L1305.1,743.1z"/>
		<path class="st1" d="M1472.1,762.6c0,5.9-1.5,10.9-2.8,15.8c-1.5,5.6-3,11.2-4.5,16.8c-1.3,5.1-5.5,7.9-10.4,7
			c-4.9-0.9-7.7-5.1-7.1-10.3c0.8-6.3,2.7-12.3,4.7-18.2c1.7-5.2,3.3-10.4,3.8-15.9c0.4-4.1,2.3-7,6.7-7.4c4.1-0.3,8.7,3.4,9.4,7.5
			C1472.1,759.7,1472,761.5,1472.1,762.6z"/>
		<path class="st0" d="M1368.5,555.6c0,5.3,0,10.8-3.5,15.3c-1.8,2.4-4.1,5.1-7.5,3c-3.2-1.9-3.4-5.5-2-8.4c2.4-5,3-10,2.8-15.4
			c-0.2-5,5.3-9.8,11.7-10.3c5.7-0.5,11.2,0.8,16.6,2.7c1.4,0.5,2.8,1.1,4.2,1.5c6.6,1.5,8,3.8,5.8,10.1c-2,5.6-4.4,11.1-5.8,17
			c-0.7,2.9-1.9,6.2-5.8,5.5c-4.1-0.7-4.8-4.5-4.6-7.8c0.3-4.3,2-8.4,3.9-12.3c1.2-2.6,0.8-4-2-4.7c-2.1-0.6-4.1-1.4-6.2-2
			C1368.5,547.6,1368.5,547.7,1368.5,555.6z"/>
		<path class="st1" d="M1513.8,563.7c-0.5,12-2.8,22.2-6,32.2c-1.4,4.3-7.4,7.7-11.1,6.7c-4.2-1.2-8-7.6-6.4-12.2
			c3.6-10,5.9-20.4,9.1-30.6c1.3-3.9,3.3-6.8,7.7-6.3c4.4,0.4,6,3.7,6.4,7.7C1513.8,562.5,1513.9,563.8,1513.8,563.7z"/>
		<path class="st0" d="M1304.5,568.8c-2.6,2.4-4.9,4.6-7.3,6.9c-2.4,2.2-5.1,2.6-7.6,0.5c-2.4-2-2.3-4.6-1.1-7.2
			c1.9-3.9,5.1-6.6,8.3-9.2c2.1-1.7,3-3.4,2-6c-1.1-2.7-0.4-5,1.9-6.6c2.4-1.7,4.8-1.1,6.7,1c1.3,1.5,2.1,0.8,3.2-0.1
			c3-2.7,6.1-5.2,9-7.9c2.7-2.5,5.5-3.6,8.2-0.5c2.7,3.1,1.2,6.3-1.3,8.8c-3.2,3.1-6.5,6.2-9.9,9.1c-2.2,1.8-2.8,3.4-1.1,5.8
			c0.9,1.3,1.7,2.9,2.1,4.5c0.8,3,1.9,6.4-1.7,8.4c-3.7,2-6.3-0.7-8.7-2.9C1306,572.4,1305.5,570.6,1304.5,568.8z"/>
		<path class="st0" d="M1237.7,683.4c-2.2-0.9-4.9-0.6-6.9-2.2c-1.3-1-2.2-2.1-1.8-3.8c0.4-1.7,1.8-2.6,3.4-2.3
			c9.3,1.9,12.8-4.1,15.8-11.2c1.5-3.6,3-7.5,6.8-9.6c1.5-0.8,3.3-2.1,5-0.2c1.5,1.7-0.3,2.8-0.9,4.2c-2,4.5-3.5,9.3-5.2,14
			c-0.8,2.3,1.3,1.9,2.3,2.1c4.1,0.6,8,2.2,11.9,3.4c3.5,1.1,4.9,3.6,3.8,6.9c-1,3.2-3.7,4.2-6.8,3.2c-3.5-1-6.9-2.3-10.4-3.5
			c-3.5-1.3-5.9-0.9-7,3.3c-0.8,3-2.3,5.8-2.8,9c-0.6,3.7-3,5.7-6.7,4.9c-3.5-0.8-4.9-3.5-4-6.9
			C1235.1,691,1236.4,687.3,1237.7,683.4z"/>
		<path class="st0" d="M1320.8,682.7c4,0.1,7.1,0.6,9.2,3.4c2.4,3.1,1.5,6.2-2.4,7.2c-1.6,0.4-3.4,0.7-4.9,0.3
			c-5.3-1.4-7.2,1.1-7.8,5.8c-0.4,3.1-1,6.2-1.3,9.4c-0.4,3.3-1.8,5.4-5.4,5.2c-3.5-0.2-5.5-2.2-5.5-5.8c0-4.4,0.6-8.7,2.2-12.7
			c1.4-3.5,0.1-4.4-3.1-4.6c-1.6-0.1-3.3-0.4-4.9-0.8c-2-0.5-4-1.6-3.8-3.9c0.1-2.2,1.9-3.4,4-4c3.1-0.9,6.3-0.7,9.4-0.1
			c3.2,0.5,4.8-0.7,6-3.6c1.7-4.1,3.7-8.2,5.7-12.2c0.6-1.2,1.4-2.3,2.3-3.3c1.1-1.2,2.4-2.6,4.3-1.5c1.6,0.9,1.4,2.5,1.1,4
			C1325,671.2,1323.3,676.8,1320.8,682.7z"/>
		<path class="st1" d="M1493,632.3c-2.5,10.9-4.8,21.9-7.5,32.9c-0.8,3.3-3.9,4.9-7.5,4.6c-3.7-0.3-6.2-2.5-6.8-6.2
			c-0.5-3.1-0.8-6.1-0.2-9.4c1.8-9,4.5-17.7,9.3-25.6c1.9-3.1,4.6-4.4,8-3.3C1491.5,626.4,1493,628.8,1493,632.3z"/>
		<path class="st0" d="M1170.2,621.4c0.6-2.1,0-3.7-3.3-3.8c-2.6,0-4.7-1.4-4.5-4.3c0.1-2.8,2.4-4.2,4.9-3.8c4.2,0.7,5.2-1.3,5.8-5
			c1-6.2,2.6-12.4,5.6-18c0.8-1.5,1.6-3,2.7-4.2c1.5-1.6,3.5-2.1,5.5-1c2,1.1,1.7,3.1,1.1,4.9c-3,8.2-4,16.8-5.2,25.4
			c-0.1,1-0.7,2.3-0.3,2.9c4,5.2-1.5,8.5-2.5,12.5c-0.6,2.4-3.5,3-5.9,2.2C1170.5,628.1,1169.8,625.4,1170.2,621.4z"/>
		<path class="st1" d="M1482.2,705.2c0.2,4.9-0.7,9.6-1.3,14.4c-0.5,4.6-4.4,7.6-8.6,7.2c-4.5-0.4-7.8-4.2-7.2-9
			c1-7.6,2.3-15.1,3.8-22.6c0.6-3.1,2.6-5.7,6-5.8c3.7-0.1,5.7,2.8,6.4,6C1482,698.5,1481.9,701.9,1482.2,705.2z"/>
		<path class="st0" d="M1472.2,596c-4.3-0.1-7.2-4.6-5.2-8.5c0.6-1.2,1.4-2.4,2.5-3.1c3.5-2.4,3.6-5.3,2.5-9
			c-1.7-5.6-0.4-11.2,0.3-16.8c0.3-2.6,2.2-4.2,4.9-4.1c2.9,0.1,4.6,1.8,4.9,4.7c0.5,7,0.7,13.9,4,20.4c0.8,1.6,0.1,3.6-0.5,5.3
			C1484,588.8,1475.4,596.1,1472.2,596z"/>
		<path class="st0" d="M1249.1,743.3c-0.9,5.8-2.7,11.3-4.5,16.8c-0.5,1.6-1.1,3.3-0.2,4.9c1.3,2.6,1,4.9-1.8,5.6
			c-2.7,0.7-5.3-0.3-6.5-3.2c-1.4-3.5-0.5-6.9,0.7-10.2c1.8-4.8,3.4-9.7,5.3-14.5c0.8-2.1,1.1-3.4-1.7-3.7c-2.4-0.3-5.6-0.3-5.4-3.8
			c0.2-3.4,3.5-3.6,6.1-4c2.2-0.3,4.3,0.1,6.4,0.8c2.6,0.8,4.9,2,8.1,0.7c2.6-1.1,4.8,1.1,5.2,4c0.5,4.1-2.8,8.1-6.5,7.8
			C1252.5,744.3,1250.9,743.7,1249.1,743.3z"/>
		<path class="st0" d="M1186.7,680.3c-0.1-6.3,2-11.3,3.7-16.3c2.1-6.1,4.6-12.1,7-18.1c1.1-2.8,2.9-5.2,6.4-4
			c3.2,1.1,3.3,4,2.6,6.7c-2.9,11.4-5.9,22.8-9.1,34.2c-0.8,3-3.3,4.2-6.3,3.6C1187.3,685.5,1186.4,682.8,1186.7,680.3z"/>
		<path class="st0" d="M1450.8,682.5c-0.2,4.7-1.9,8.4-2.5,12.4c-0.5,3.2-3.7,6.8,0.7,9.8c0.1,0.1,0.1,0.3,0.1,0.5
			c0.3,2.5-8.7,11.1-11.2,10.5c-3.6-0.9-5.2-3.3-4.7-7c1.3-10.5,5.6-20.1,8.4-30.1c0.5-1.9,2.2-3,4.2-3c2.2,0,3.9,1,4.5,3.3
			C1450.6,680.2,1450.7,681.7,1450.8,682.5z"/>
		<path class="st0" d="M1416.2,684.8c-1.8,10.3-3.4,20.6-5.4,30.9c-0.6,2.9-3.2,4.3-6.1,3.9c-3.2-0.5-5-2.6-4.8-5.9
			c0.7-9,2.9-17.6,5.8-26.1c0.9-2.6,2.3-5.2,1.8-8.1c-0.4-2.2,0.7-3,2.6-3.4c2-0.4,3.7,0.1,4.6,2
			C1415.6,680.1,1416.1,682.4,1416.2,684.8z"/>
		<path class="st0" d="M1238.8,561.3c0.1,4.7-4.2,7.3-7.7,5.2c-2.8-1.6-4.7-4-5.1-7.5c-1-9.1-3.4-17.9-8.2-25.8
			c-1.3-2.1-1.3-4.1,0.5-5.9c1.6-1.6,3.5-1.4,5.5-0.5c2.3,1,3.6,2.8,4.9,4.8c4.4,7,6.7,14.8,8,22.8
			C1237.1,557,1237.9,559.5,1238.8,561.3z"/>
		<path class="st0" d="M1305,743c1.9,12.3-4.3,22.5-8.5,33.2c-1.2,3-4.3,3.8-7.2,2.6c-3.1-1.2-4.7-3.9-3.5-7.2
			c1.4-4.1,3.4-7.9,5-11.9c1-2.3,1.7-4.4,1.3-7.4c-0.7-4.5,4-7.2,6.7-10.5c2.1-2.6,4.4,0.2,6.5,1.2C1305.1,743.1,1305,743,1305,743z
			"/>
		<path class="st0" d="M1352.6,707.1c1.4-11,3.8-21.4,7.8-31.3c1.1-2.7,3.3-5.7,6.8-4.6c3.7,1.2,3.1,4.8,2.3,7.7
			c-2.4,9.4-4.2,18.8-5.7,28.3c-0.5,3.4-2.6,5.5-6.2,5.2C1354.3,712.1,1352.7,709.9,1352.6,707.1z"/>
		<path class="st0" d="M1445.6,662.9c-5-15.3,4-27.8,7.9-41.2c0.7-2.4,2.7-3.8,5.5-3.1c2.8,0.8,4.3,2.7,3.8,5.6
			c-0.6,3.2-1.6,6.4-2.6,9.6c-1.9,5.8-4,11.6-5.8,17.4C1452.7,656.1,1450.4,660.2,1445.6,662.9z"/>
		<path class="st0" d="M1424.1,775.7c0.1-4.8,1.2-8.9,2.4-13.1c1.4-4.9,3.6-9.6,4.4-14.8c0.3-2.1,1.3-3.9,3.7-4c2.4-0.2,4,1.1,5,3.3
			c1.1,2.6,0.7,5.2,0.2,7.8c-1.4,7.6-4.1,15-4.1,23c0,3.4-2.5,5.5-6.1,5.2C1424.9,782.7,1424,779.3,1424.1,775.7z"/>
		<path class="st0" d="M1224.9,618.1c2.2-10.7,4.9-22,12.1-31.6c1.9-2.5,4.4-3.2,6.9-1.3c2.6,2,1.1,3.6-0.8,5.2
			c-0.8,0.6-0.9,2.1-1.2,3.2c-2.3,8.7-4.7,17.3-6.2,26.2c-0.6,3.4-1.4,6.9-6,6.3C1225.5,625.7,1225.3,622.2,1224.9,618.1z"/>
		<path class="st0" d="M1359.8,614c-0.6,2.2-1.4,5.7-2.4,9.2c-0.8,3.1-2.3,5.9-1.9,9.4c0.4,4.9-6.5,9.1-11.2,7.4
			c-3.4-1.3-4.8-4.8-3-8.6c3.2-7.1,6.5-14.1,9.8-21.2c1-2.2,2.8-3.6,5.1-3C1358.8,607.9,1359.8,610,1359.8,614z"/>
		<path class="st0" d="M1361.1,781.1c-4.5,0-7.5-3-6.4-6.6c2.7-8.6,4.2-17.4,6.2-26.1c0.6-2.7,2.5-4,5.2-3.4c2.8,0.7,5,2.7,4.7,5.6
			c-1.2,8.8-1.6,17.8-5,26.3C1364.7,779.4,1363.1,781.1,1361.1,781.1z"/>
		<path class="st0" d="M1176.9,565.2c-7.4-0.1-10-3.4-8.3-9.6c1.8-6.6,3.8-13.1,5.7-19.6c0.5-1.7,1-3.5,2.6-4.7
			c1.4-1.1,2.9-1.9,4.6-1.2c1.9,0.8,1.8,2.7,1.5,4.3c-1,5.9-2.1,11.8-3.1,17.7c-0.3,1.8-0.9,3.5,1.8,4.2c2.1,0.5,5.1,1.3,4.8,3.9
			c-0.2,2.7-3.1,3.6-5.6,4.2C1179.4,564.7,1177.8,565,1176.9,565.2z"/>
		<path class="st0" d="M1429.9,559.7c-1.5,7.8-2.9,16-4.5,24.1c-0.7,3.4-3.2,5-6.7,4.4c-3.5-0.7-5.2-3.2-4.6-6.6
			c1.6-8.3,3.2-16.7,6.4-24.5c1-2.5,2.5-5.1,5.9-4.2C1429.6,553.7,1429.5,556.7,1429.9,559.7z"/>
		<path class="st0" d="M1151,632.8c3.2-0.1,5,2.9,3.5,6.5c-2.9,6.9-6.1,13.6-9.1,20.4c-0.7,1.5-1.7,2.8-1.3,4.7
			c0.7,3.7-1.7,5.5-4.8,5.2c-3.2-0.3-6.1-2.1-6-6.1c0.1-1.6,0.7-3.3,1.4-4.7c4-7.7,8-15.3,12.1-22.8
			C1147.7,634.4,1148.8,632.8,1151,632.8z"/>
		<path class="st0" d="M1307.5,610.4c0,8.3-5.3,14.1-8.7,20.6c-0.8,1.6-2.9,1.5-4.6,0.9c-2.1-0.8-3-2.5-3-4.7
			c-0.1-3.6,1.9-6.4,3.8-9c2.8-3.8,4.1-7.9,3.5-12.6c-0.3-2.6-0.7-6,2.9-6.4c3.2-0.4,4.4,2.6,5.2,5.2
			C1307.1,606.4,1307.2,608.6,1307.5,610.4z"/>
		<path class="st0" d="M1256.4,564.1c1.9-7.6,4.2-16.3,7.6-24.5c1-2.3,3.6-4.4,6.5-2.6c3.1,1.8,1.4,4,0.5,6.7
			c-2.3,7.1-4,14.3-5.1,21.7c-0.5,3.5-1.4,5.9-5.1,5.8C1257.2,571,1256.5,568.2,1256.4,564.1z"/>
		<path class="st0" d="M1276.7,608c-0.1,5.7-1.5,9.6-3.4,13.3c-1.3,2.6-2.9,5.3-6.4,4.1c-3.6-1.2-4.2-4.8-3.1-7.4
			c2.6-5.7,3.1-11.5,3.1-17.5c0-2.5,1.6-4.1,4-4.3c2.4-0.3,3.7,1.2,4.2,3.4C1275.9,602.9,1276.4,606.2,1276.7,608z"/>
		<path class="st0" d="M1413,754c-0.1,2.1-1.2,3.8-2.4,5.3c-2.6,3.2-5.4,6.3-8.3,9.2c-2.3,2.3-5.2,2.4-7.6,0.2
			c-2.5-2.2-2.7-5-0.7-7.6c3-3.9,6.8-7.3,9.6-11.4c1.3-1.9,3.6-2.3,5.9-1.3C1411.8,749.6,1413,751.4,1413,754z"/>
		<path class="st0" d="M1143.2,719.9c-0.8,4.5-1.7,10.4-2.8,16.2c-0.6,3.1-2.2,6.2-5.8,5.5c-3.3-0.7-4.2-3.8-3.6-7.2
			c1-5.9,1.6-11.8,3.5-17.5c0.9-2.6,2.4-5.2,5.6-4.6C1143.3,713,1143.2,715.9,1143.2,719.9z"/>
		<path class="st0" d="M1359.4,592.2c-0.2,0-1.9-0.1-3.5-0.5c-1.4-0.4-2.2-1.5-2.2-3c0-1.3,0.5-2.5,1.7-2.7c7-1.5,13.9-3.7,21.2-2.4
			c2.3,0.4,5,1.2,4.7,4.1c-0.3,2.5-2.9,3-5.1,3.2C1371.1,591.3,1366,591.7,1359.4,592.2z"/>
		<path class="st0" d="M1411.7,622.6c-0.7,5-3.4,8.7-7.3,11.5c-1.9,1.3-3.9,0.7-5.4-0.9c-1.5-1.7-1.7-3.7-0.4-5.5
			c2.4-3.3,5.2-6.1,3.8-11c-0.7-2.4,3.4-3.8,5.6-1.9C1410.3,616.9,1411.4,619.7,1411.7,622.6z"/>
		<path class="st0" d="M1204.3,732.9c-0.3,2.8-0.5,5.6-1.1,8.4c-0.5,2.4-2.4,3.7-4.8,3.3c-2.4-0.4-4-2-3.6-4.6
			c0.7-5.6,1.6-11.1,2.6-16.7c0.2-1.4,1.1-2.4,2.7-2.5c1.6-0.1,2.4,0.9,2.9,2.2C1204,726.3,1204.2,729.6,1204.3,732.9z"/>
		<path class="st1" d="M1219.7,510.4c11.7-0.7,23.4,0.1,35,1c1.2,0.1,2.7-0.1,3.3,1.5C1245.2,512.8,1232.4,512,1219.7,510.4z"/>
		<path class="st0" d="M1030.4,792.4c16.1-4.6,28,1.2,37.5,14.4c14.2,19.6,20.5,40.7,15.5,64.9c-2.3,10.9-1.6,22.3-5,33
			c-8.5,26.8-24.5,47.9-48.3,63.2c-5.7,3.7-10.9,8.1-16.4,12.2c-7.4,5.5-20.7,6.2-28.2,1.1c-2.5-1.7-5-2.5-7.7-3.2
			c-21.4-4.8-40.9-13.7-58.1-27.5c-2.9-2.3-5.1-4.8-5.3-8.6c0-1.1-0.3-1.9-1-2.7c-11.6-13.1-16.9-29-18.8-46
			c-2.8-25.1-1.1-49.8,8.4-73.6c6.4-16.1,18.1-27.3,32.5-36c8.8-5.3,18.1-5.4,27.5-1.1c3.5,1.6,7.3,1.3,11.2,0.5
			c14.9-3.2,30.1-3.3,45.2-1.7c8.8,0.9,11.1,3.9,10.4,10.7c-0.2,0.2-0.7,0.5-0.7,0.6C1029.6,793,1030,792.8,1030.4,792.4z
			 M1003.6,966.5c4.9-4.3,10.7-7.4,15-12.5c3.8-0.7,5.8-4,8.6-6.1c2.4-1.5,5.1-2.7,7.1-4.6c10.9-10.5,19.7-22.4,26-36.2
			c6.1-13.4,7.5-27.9,10.7-41.9c4.9-21.8-2.3-40.7-15.4-57.7c-5.8-7.6-20.1-11.2-27.2-7.2c-3.1,1.8-6,2.3-9,0.9
			c-4.8-2.3-9.5-2.6-14.4-1.1l0.1,0.1c0.3-3.3,4.3-2.5,5.6-4.8c-2.7-1.6-5.6-1.3-8.5-1.8c-4.5-0.7-8,3.2-12.3,2.3
			c-5.3-1.2-10.6-1.3-15.9-1.6c-3.2-0.2-6-1.4-8.9-2.7c-5-2.3-10.3-5.4-16-2.5c-14.1,6.9-25.8,16.6-32.7,31
			c-9.6,19.9-11.3,41.2-10.6,62.9c0.5,15.3,3.1,30.1,9.3,44.2c1.7,3.8,3.2,8.3,6.8,10.2c7.7,4,14.3,9.8,22.2,13.3
			c3.5,1.5,6.5,4.6,10.9,4.6c-8.6-17.4-13.4-35.6-13.9-54.5c-0.8-29.9,10.6-55.5,29.5-78c6.8-8,13.9-15.9,24.3-19.4
			c2.3-0.8,5.6-2.2,7,0c1.4,2.4-2,3.9-3.6,5.7c-0.4,0.5-1,0.8-1.6,1.2c-13.8,8.5-23.8,20.5-32.5,34c-7.2,11.2-11.8,23.2-12.4,36.7
			c-0.3,5.5,0.8,11,0.4,16.4c-1.7,21.4,5,41,12.7,60.5c0.4,0.9,0.6,2.2,1.6,2.3c6.5,0.6,10.6,6,16.4,7.9c4.6,1.9,9.4,0.8,14.1,1.1
			C999.5,969.1,1001.9,968.6,1003.6,966.5z"/>
		<path class="st0" d="M847.7,1011.3c0.1-3.5,0.3-6.2,1.3-8.7c2-5.4,7-9.3,10.5-8.2c9.9,3.1,12.9,7,11.1,14.7
			c-0.8,3.4-2.2,6.6-4.2,9.5c-2.6,3.6-5.8,6.2-10.5,5c-4.9-1.2-7.3-4.9-8-9.7C847.7,1012.7,847.7,1011.6,847.7,1011.3z M857.9,1002
			c-1.7,0.6-1.8,2.2-2,3.5c-0.3,3-1.4,7.5,1.7,8.2c2.3,0.5,3.2-4.3,4.1-7.1C862.9,1003.2,859.7,1003.2,857.9,1002z"/>
		<path class="st0" d="M1103.2,966.7c-1.2,7.3-4.5,13.7-10.6,18c-6.1,4.3-13.7,0-13.7-7.6c0-3.3,0.5-6.7,1.3-9.9
			c1.5-6,12.4-11,18-8.5C1101.6,960.2,1103.5,962.7,1103.2,966.7z M1087.8,976.1c2.5-1.7,3.5-3.9,4.6-6.1c0.5-1,1.9-2.6-0.5-3
			c-1.5-0.2-3.9-1.1-4.4,1.6C1087.1,971,1086.9,973.4,1087.8,976.1z"/>
		<path class="st0" d="M844.2,781.9c0.3-2.9,0.6-6.4,2.1-9.6c1-2.2,2.5-3.7,5.1-4.3c8.9-1.9,14.8-0.2,16.4,5c1.8,6.1-4.8,18-11.1,20
			C849.8,795.3,844,790.4,844.2,781.9z M859.1,776.1c-1.4-0.1-2.1-0.2-2.7-0.2c-2.6,0.2-4.6,1.1-4.3,4.2c0.1,1.5-0.8,4.1,1,4.3
			c2.3,0.3,3-2.6,4.2-4.4C858,779.1,858.4,777.8,859.1,776.1z"/>
		<path class="st0" d="M1094.7,730.6c-0.4,5.6-1.5,10.5-5.3,14.5c-2.3,2.5-5.1,3.8-8.5,2.8c-3.5-1-5.2-3.7-5.5-7
			c-0.7-6.9,1.7-13.1,5.1-18.8c2.3-3.8,8-3.5,11.2,0.1C1094.1,724.6,1094.7,727.7,1094.7,730.6z M1082.6,740.3
			c3.4-2.9,3.7-6.4,3.7-9.9c0-1.6-0.4-3-2.6-2.6c-1.4,0.3-3,0.2-2.9,2.5C1081.1,733.5,1080.8,736.8,1082.6,740.3z"/>
		<path class="st0" d="M1026,980c1.9-4.8,7.3-6.6,9.4-11.3c0.4-0.8,1.4-1,2.1-0.5c1.2,0.9,0.4,1.6-0.3,2.4
			C1033.9,974.3,1030.4,977.7,1026,980L1026,980z"/>
		<polygon class="st0" points="1022.9,982.6 1023.3,982.5 1022.9,982.3 		"/>
		<path class="st0" d="M1026,980.1l-0.1,0C1025.9,980.1,1026.1,980,1026,980.1C1026,980,1026,980.1,1026,980.1z"/>
		<path class="st0" d="M671,440.8c-5.2,5.9-8.7,11.3-12,16.8c-2.2,3.5-4.9,4.4-8.4,3.2c-3.8-1.4-3.5-4.9-2.5-7.6
			c4.7-13.3,7.9-27.2,15.7-39.3c2.2-3.4,4.5-6.6,7.5-9.3c6.2-5.6,13.5-4.8,18.3,2c9.1,12.7,15.7,26.6,21.6,41c1.1,2.8,2.1,5.8-1,7.5
			c-3.1,1.7-6.8,2.1-9.6-0.9c-5-5.2-9.6-10.6-13.5-16.7c-0.4-0.7-0.9-1.3-1.7-2.5c-1.5,4.3-1.8,8.3-2.1,12.2
			c-1.5,23.2-1.2,46.3,2.4,69.3c0.5,3.3,1.3,6.8,0.7,9.9c-0.9,5.2,2.7,7.8,5.2,11c1.2,1.5,2.5,0.6,3.6,0.3c4.3-0.8,8.7-0.9,12.9,0.3
			c10.6,3.1,21.5,1.9,32.3,2.2c3.5,0.1,3-1.5,1.9-3.7c-3.1-6.3-6.1-12.6-9.1-18.9c-0.8-1.6-1.3-3.4-1.9-5.2
			c-0.6-1.9-0.1-3.7,1.6-4.9c1.7-1.2,3.4-1,5.1,0.1c3.2,2.2,5.4,5.4,7.8,8.4c7.2,9,15.3,17.1,24.2,24.5c6.4,5.3,7.5,11.1,1.3,16.9
			c-11.2,10.5-22,21.3-33,32c-2.1,2-4.4,3.4-6.9,0.8c-2.4-2.5-1.2-4.9,0.8-7c0.2-0.2,0.4-0.5,0.7-0.7c8.9-9.9,8.8-9.9,8.6-22.3
			c-0.1-2.9-2.1-2.1-3.4-2.3c-12.6-1.8-25.2-1.7-37.9-2.4c-6.9-0.4-11.3,0.7-13.6,7.7c-1,3.1-3.6,5.6-6.2,7.7
			c-6.5,5.4-15.1,3.3-17.8-4.6c-2.2-6.6-4.1-13.4-1.6-20.4c0.9-2.7,1.1-5.6,2.3-8.1c5.8-11.5,6.3-23.7,6-36.4
			C668.7,481.8,669,462,671,440.8z M697.7,442.1c-4.2-11.5-10.2-22.1-16.5-32.6c-1-1.6-1.7-1-2.6,0c-7.5,8.8-12.7,18.6-15.5,29.4
			c7.2-1.7,7.2-11.7,15.1-12.8c0.2,0,0.3-0.6,0.4-0.9c0.7-2.7,2.1-4.7,5-4.6c3,0.1,3.2,3.1,4.1,5.1
			C690.4,431.6,693.2,437.4,697.7,442.1z M740.1,549.7c2.8,0.2,5,0.8,7.4,0.2c2-0.5,4.1-0.3,5.3,1.7c1.4,2.2,0.4,4-1.2,5.8
			c-2.5,2.9-4.5,6-3.1,10.7c6.3-6,12.2-11.6,18.5-17.6c-6-3.6-10.5-8.2-15.8-12.8c0,4.1,0.5,7.2-1.5,10.1
			C747.2,551.7,743.5,547.4,740.1,549.7z M683.1,544.7c0.3-3.3-2.3-3.9-4.4-4.4c-2.9-0.7-2.3,1.6-2.5,3.4c-0.1,0.9-0.7,2-1.4,2.5
			c-6,4.2-3.6,10.3-3.5,15.8c0,2,1.7,2.9,3.4,0.9C679,557.6,682,551.6,683.1,544.7z M702.8,546.1c-9.7-2.1-9.9-2.1-9.6,3.8
			C696,547.3,699.5,547,702.8,546.1z M672.2,530.6c1.8-2,8.3,2.1,6.1-5.4C677.8,529.1,673.1,527,672.2,530.6z M698.4,443.2
			c-0.1,0.1-0.2,0.2-0.1,0.3c0.1,0.4,0.4,0.4,0.6,0c0-0.1-0.1-0.2-0.1-0.3C698.6,443.2,698.5,443.2,698.4,443.2z"/>
		<path class="st0" d="M674.6,676.7c0.5-4.4-1.4-7.6-1-11.2c0.7-5.1,3.3-7.3,8.6-6.4c4.5,0.7,5.2,3.7,4.6,7.8
			c-0.6,4.1-0.7,8.3-1,12.4c-0.2,2.2-0.5,4.3-2.4,5.8c-1.1,0.9-2.2,1.5-3.6,0.7C678.7,685.1,674.6,677.3,674.6,676.7z"/>
		<path class="st0" d="M762.9,489.8c-3.1-1-8.1,0.5-7.8-4.7c0.2-4.8,4.9-3.9,8.2-4.2c1.1-0.1,2.3,0,3.4,0.4c2,0.7,4.1,1.7,3.8,4.4
			c-0.3,2.4-2.1,3.2-4.2,3.5C765.1,489.5,764,489.6,762.9,489.8z"/>
		<path class="st0" d="M619.8,636.3c-2.1,0-3.5-1-3.7-3.2c-0.3-2.9,4.9-9.3,7.7-9.6c2-0.2,3.6,0.6,4.1,2.8
			C628.6,629.5,623.1,636.3,619.8,636.3z"/>
		<path class="st0" d="M741.9,407.4c0-2.2,1.6-4.3,5.3-4.5c2.5-0.1,4.3,0.9,4.6,3.5c0.3,2.4-4.1,6.9-6.3,6.7
			C742.7,413,741.8,411.3,741.9,407.4z"/>
		<path class="st0" d="M790.3,445.3c-2.9-5.2-5-9.8-6.7-15.8C786.3,435.1,788.9,439.5,790.3,445.3z"/>
		<path class="st0" d="M605.2,652.7c-12.2-10-23.8-71.1-15.7-82.6c0.4,14.1-1.1,28.7,2.8,42.1C596.2,625.8,598.6,640,605.2,652.7z"
			/>
		<path class="st0" d="M538.5,445.5c2,4.5,0.3,7.3-4.4,6.7c-2.3-0.3-4.5-0.9-6.8-1.4c-1.9-0.4-3.5-1.2-3.6-3.5
			c-0.1-2.2,1.2-3.4,3.1-4c1.2-0.4,2.6-0.5,3.9-0.6c1.1,0,2.3,0.2,4.2,0.3c-1.8-1.5-3.1-2.6-4.3-3.8c-1-0.9-1.9-2-1.2-3.5
			c0.7-1.5,2.2-2.2,3.8-1.8c4.5,1.1,8.9,2.6,12.8,5.2c2.8,1.8,1.8,3.9-0.9,5.2c-1.9,1-3.9,0.2-5.9,0.3c-0.2-0.2-0.6-0.5-0.7-0.5
			C538,444.7,538.2,445.1,538.5,445.5z"/>
		<path class="st0" d="M553.6,564.8c-1.5-9,0.3-17.8,1.8-26.5c2.1-11.9,3.6-24,4.5-36c0.4-5,1.4-9.9,2.7-14.7
			c0.3-1.1,0.6-2.5,2.2-1.9c1.2,0.5,0.8,1.6,0.6,2.6c-4.4,21.8-5.5,44.1-10,65.8C554.7,557.6,555.4,561.3,553.6,564.8z"/>
		<path class="st0" d="M525.8,452.3c3.1,0.7,6.2,2.2,8.9,4.5c1.5,1.3,1.7,3.2,0.6,5c-1.2,1.9-3.1,2.9-5.1,1.9
			c-2.9-1.5-5.7-3.3-8.4-5.2c-1.4-1-1.3-2.6-0.5-4C522.1,452.7,523.7,452.2,525.8,452.3z"/>
		<path class="st0" d="M568.2,445.5c-4.8,8.4-2.5,18.1-5.1,26.8c-0.3,1-0.7,2.2-1.7,2.2c-1.4,0-1.6-1.4-1.8-2.5
			c-0.9-4.8,0.7-9.1,2.3-13.5C563.5,454,564.9,449.5,568.2,445.5z"/>
		<path class="st0" d="M547.2,679.9c0.1,0-0.4,0-0.9,0c-2.6-0.2-6.1,0.1-6.1-3.5c0-3.4,2.9-4.5,6-4.6c0.5,0,1-0.1,1.5,0
			c3.2,0.2,6.7,0.1,7.1,4.4C555.2,679.1,552.9,680.2,547.2,679.9z"/>
		<path class="st0" d="M610.2,395.8c-6,11-13.9,20.8-20.6,31.4C589.8,423.2,604.5,400.5,610.2,395.8z"/>
		<path class="st0" d="M516.8,524.9c2.5,0.3,5.4,0.7,5.7,4.1c0.2,2.3-1.8,4.3-3.8,3.4c-2.4-1.1-6.8,2.1-7.3-2.8
			C511.1,526.4,513.6,525.1,516.8,524.9z"/>
		<path class="st0" d="M512.3,547.1c-2.6,0-4.3-1.3-4-3.5c0.5-3.5,3.4-4.6,6.6-4.6c2.8,0,4.7,1.8,4.3,4.3
			C518.6,547.2,514.8,546.4,512.3,547.1z"/>
		<path class="st0" d="M539,667.3c-3.7,0.1-5.7-0.6-5.5-3.1c0.2-2.7,2.6-3.2,4.9-3.1c2.1,0.1,4.2,0.7,4.1,3.3
			C542.2,667.4,539.7,667.3,539,667.3z"/>
		<path class="st0" d="M516.6,522.5c-1.7,0.1-3-0.9-2.9-2.9c0.1-3.3,2.8-3.3,5.1-3.4c1.8-0.1,4.2,0.2,4.2,2.5
			C522.9,522.4,519.4,521.9,516.6,522.5z"/>
		<path class="st0" d="M537.1,655.4c-0.3,2.2-1.4,3.6-3.5,3.4c-2.4-0.3-4.7-1.1-4.5-4.1c0.1-2.1,1.7-3.4,3.7-3
			C534.8,652.1,536.9,652.9,537.1,655.4z"/>
		<path class="st0" d="M604.1,704.3c2.7,0.2,4.2,2.1,6.1,3.3c1.1,0.7,2,2,3.5,1.3c1.2-0.5,2.9-1.5,3,0.6c0.1,1.8-2,2.3-3.4,2
			C609.1,710.7,606.2,707.9,604.1,704.3z"/>
		<path class="st0" d="M621.3,383.3c-1.1,2.4-2.5,4.5-5.6,6.5c1.2-3.4,3-5.4,4.7-7.5C620.7,382.6,621,382.9,621.3,383.3z"/>
		<path class="st0" d="M639.4,693.2c1.4,0.1,2.7,0.6,2.9,2.2c0.1,0.8-0.8,1.4-1.7,1.4c-1.2-0.1-2.2-0.8-2.6-2
			C637.7,693.7,638.4,693.3,639.4,693.2z"/>
		<path class="st0" d="M620.4,382.3c0.5-0.5,0.9-1,1.4-1.5c0.3,0.3,0.6,0.6,0.9,0.9c-0.5,0.5-0.9,1.1-1.4,1.6
			C621,382.9,620.7,382.6,620.4,382.3z"/>
		<path class="st0" d="M1000.9,561.4c-0.1,3-1.3,5.2-3.8,6.1c-16.3,6.1-30.7,15.8-46.1,23.6c-1.9,1-4,1.6-6.1,2.2
			c-6.8,1.9-12.6-2-12.8-9c-0.7-25.5-1.1-50.9-1.6-76.4c0-1,0-2,0.1-3c0.5-3.6,2.2-6.7,6.1-6.7c3.7,0.1,6.1,2.6,6.4,6.5
			c1,12.8,1.9,25.6,2.7,38.4c0.5,9.1,0.6,18.3,0.9,27.5c0.2,6.5,0.2,6.5,6,3.1c9-5.3,17.9-10.9,27.6-15c4.8-2,9.6-3.8,14.9-3
			C998.7,556.2,1000.4,558.3,1000.9,561.4z"/>
		<path class="st0" d="M940,657.2c0,3.6,0.2,6.3,0,8.9c-0.3,3.5-2.6,5.4-6,5.5c-3.1,0-5.7-1.8-5.8-5c-0.2-6.3-0.6-12.6,0.8-18.8
			c0.6-3,2.3-4.9,5.4-4.7c2.8,0.1,4.3,2,4.9,4.7C940.1,651.2,939.8,654.7,940,657.2z"/>
		<path class="st0" d="M881.9,592.3c-3.1,0.1-6.9-0.6-10.6-1.6c-2.3-0.6-4-2-3.9-4.5c0.1-2.3,1.5-3.8,3.7-4.2
			c7.1-1.2,14.2-1.1,21.3-0.7c1.9,0.1,3.5,1.5,3.5,3.6c0,2.7-1.7,4.7-4,5.9C889,592.3,885.8,592.3,881.9,592.3z"/>
		<path class="st0" d="M1007.8,573.5c2.2,0.5,4.9,0.9,7.3,1.7c2.2,0.7,3.5,2.6,3.4,4.9c-0.1,2.3-1.3,4-3.6,4.9
			c-4.5,1.6-8.9,0.7-12.9-1.5c-2.2-1.2-3.8-3.5-2.8-6.3C1000.8,573.5,1004.4,574.2,1007.8,573.5z"/>
		<path class="st0" d="M933.1,485.5c0,1.7,0.1,3.3,0,5c-0.1,2.5-1.6,4.1-4,4.2c-2.5,0.2-4.2-1.3-4.5-3.7c-0.5-4-0.5-7.9,0.5-11.8
			c0.6-2.2,1.9-4.2,4.4-3.9c2.2,0.3,3.3,2.2,3.4,4.3C933.1,481.5,933,483.5,933.1,485.5C933,485.5,933.1,485.5,933.1,485.5z"/>
		<path class="st0" d="M457.8,836.1c8.5-5.9,16.1-11.9,25.3-16.3c-4-2.2-7.5-4.1-10.1-7.2c-2.3-2.7-2.6-5.7-0.7-8.8
			c1.8-2.8,4.8-4.5,7.7-3c8.9,4.6,19.1,5.7,27.9,10.5c6.8,3.7,8.5,10.2,5,17.3c-1.4,2.8-2.2,5.9-3.3,8.8
			c-4.2,10.9-12.6,18.7-20.6,26.6c-2.9,2.9-6.4,2.3-9.5-0.3c-3.8-3.3-4.8-7.7-2.1-11.6c4.2-6,7.9-12.3,11.6-18.7
			c-1.6-1.2-2.6,0.2-3.5,0.8c-8,5.1-15.9,10.4-23.8,15.5c-2.6,1.7-5.3,3.2-8.8,2.6c-3.8-0.7-6.1-2.5-6.8-6.2
			c-0.4-2.1-0.9-4.2-1.1-6.4c-0.4-3.1-0.3-6-3.3-8.3c-2.2-1.7-1.8-5.2-1.8-8c0-13.3,1.5-26.6,2.6-39.9c0.6-6.9,1.3-13.8,2-21.2
			c-2.7,1-3.4,2.9-4.4,4.5c-2.3,3.7-4.7,7.3-6.6,11.2c-2.9,6.1-8.9,5.8-14,6.6c-2.9,0.4-3.9-2.4-2.4-4.9c11.6-19,20-39.7,30.6-59.3
			c3.4-6.3,8.3-6.4,12.4-0.6c5.4,7.6,10,15.7,13.1,24.6c2.8,7.7,5.6,15.3,9.8,22.4c0.5,0.8,0.8,1.8,1.2,2.8c1.6,3.6,0.7,6.6-2.7,8.5
			c-3.3,1.9-6.1,0.7-8.3-2.2c-4.7-6.3-8-13.4-11.2-20.5c-0.8-1.7-1.5-3.5-2.7-5.1C458.7,778.7,455.7,807,457.8,836.1z M444.4,761.9
			c0.1-0.1,0.3-0.2,0.3-0.3c0-0.1-0.1-0.2-0.2-0.3c-0.1,0.1-0.3,0.2-0.3,0.3C444.2,761.6,444.3,761.8,444.4,761.9z"/>
		<path class="st0" d="M445.1,908.2c0,1.3,0.3,2.7-0.1,4c-0.7,3-1.3,6.7-5.2,6.9c-4.1,0.2-6.2-2.9-7-6.4c-0.9-3.7-0.6-7.6,0.3-11.3
			c0.8-3.1,2.8-5,6-4.9c3,0.1,4.9,2,5.5,4.9c0.4,2.3,0.5,4.6,0.7,6.9C445.2,908.2,445.1,908.2,445.1,908.2z"/>
		<path class="st0" d="M385.1,782c0.8,0.3,1.8,0.5,2.6,1.1c4.6,3.2,8.4,7,10.5,12.3c0.9,2.3,0.6,4.3-1.4,5.8c-1.9,1.5-4,1.4-5.9-0.1
			c-4.5-3.7-7-8.8-9.6-13.8C379.8,784.7,382,782.7,385.1,782z"/>
		<path class="st0" d="M414.9,881.8c-0.7,5.1-3.5,9.6-8.2,12.8c-2,1.3-4.6,1-6.4-0.9c-1.6-1.6-2.8-3.8-1.5-5.8
			c2.6-4.1,5.1-8.6,9.8-10.9C412,875.4,414.8,877.2,414.9,881.8z"/>
		<path class="st0" d="M468.4,891c-0.1-3.5,0.6-6.3,4-6.9c3.5-0.6,5.2,1.5,5.9,4.6c0.3,1.1,0.6,2.2,0.8,3.4c0.8,3.7-0.5,6.4-4.4,6.9
			c-3.6,0.5-5.6-1.5-6.1-5C468.7,892.8,468.5,891.7,468.4,891z"/>
		<path class="st0" d="M384.1,851.8c-3.4,0.1-6-1-6.2-4.9c-0.1-3.4,3.8-6,8.9-6.1c3.6-0.1,5.8,1.6,6,5.1
			C393.2,849.7,389.9,851.8,384.1,851.8z"/>
		<path class="st0" d="M412.8,727c2.7-0.5,4.6,0.9,5.9,3.2c1,1.7,0.8,3.5-0.9,4.8c-1.7,1.3-8.4,0.2-10.1-1.8
			c-1.4-1.6-1.5-3.3-0.2-4.9C408.8,726.8,410.8,727,412.8,727z"/>
		<path class="st0" d="M784.5,947.5c-1-8.9-3.1-17.7-2.7-26.8c0.1-1.8-0.5-2.8-2.3-3.1c-3.1-0.6-5.4-3.4-8.7-3.7
			c-0.5,0-1.2-0.8-1.2-1.3c0-0.9,0.8-1.4,1.7-1.3c5,0.4,9.8,1.5,14.5,3.2c0.9,0.3,1.7,1.1,1.9,2.2c1.7,10.5,4.4,20.8,5.2,31.4
			c0.1,1.6-0.1,3.3-0.4,4.9c-0.3,1.5-1.7,3.4-3,2.7c-4.2-2.3-8.3-0.3-12.3-0.3c-6.8,0-13.5-5.2-13.9-12.7
			c-0.5-8.8,0.8-17.6,0.7-26.4c0-1.1,0.2-2.5,1.9-2.4c1.4,0.1,1.8,1.4,2,2.5c1.1,6.3,1,12.6,1,18.9c0,3.7,0.2,7.3,1.3,10.9
			c0.5,1.7,1.1,2.6,3.4,2.3c3.2-0.5,6.6-0.1,9.9-0.1c0.3,0.1,0.7,0.4,0.8,0.3C785,948.4,784.8,948,784.5,947.5z"/>
		<path class="st0" d="M648,825.2c-0.1-5.7,0.7-10.4,2-15c0.6-2,1.7-3.9,4.1-3.6c2.3,0.4,3,2.3,3,4.5c0,0.3,0,0.7,0,1
			c-0.7,5.2-1,9.8,6.8,8.5c2.6-0.4,5.1,1.3,7.2,3c2.1,1.9,2.6,4.3,1.4,6.8c-1.3,2.6-3.8,3.1-6.4,2.5c-1.4-0.3-2.7-1.2-4.2-1.6
			c-2.5-0.6-5.2-1.7-6.2,2.3c-0.3,1.3-1.6,2.4-3,2c-1.8-0.4-3.3-1.5-4-3.4C647.7,829.7,648.1,827,648,825.2z"/>
		<path class="st0" d="M690.7,829c0-4.6,0.9-8.9,2.7-13.1c1.1-2.7,3.1-4.5,6.2-3.6c2.8,0.8,3.7,3,3.4,5.9c-0.4,4.8-0.6,9.6-1.1,14.4
			c-0.4,3.5-1,7.6-5.6,7.5c-4.6-0.2-5.3-4.2-5.6-8C690.7,831,690.7,830,690.7,829z"/>
		<path class="st0" d="M1325.9,490.9c-1.8-0.1-3.7-0.1-5.5-0.4c-3.4-0.6-6.1-0.7-6.9,3.8c-0.5,2.6-3,3.9-5.8,3.7
			c-2.8-0.3-4.6-1.9-5.2-4.6c-0.4-1.6-0.6-2.8-2.3-3.9c-3.8-2.3-3.6-5.8,0.8-7.1c4-1.1,5-3.6,5.9-6.9c1.1-4,2.5-7.9,3.9-11.8
			c1-2.9,3.3-4.3,6.3-3.4c2.7,0.8,3.8,3,3.4,5.9c-0.2,1.3-0.4,2.6-0.7,3.9c-1.9,9-1.9,9,7.5,9.1c1,0,2,0,3,0
			c3.9,0.1,6.5,2.1,6.4,6.1c-0.1,3.7-2.5,5.6-6.3,5.7C1328.9,490.9,1327.4,490.9,1325.9,490.9z"/>
		<path class="st0" d="M1419.6,505.9c-0.3,0-2-0.3-3.6-0.5c-3.8-0.5-7.8-1.7-8.3,4.4c-0.2,1.9-2.1,3-4.2,2.7
			c-1.7-0.2-3.5-1.3-3.4-3.1c0.1-3.9-2.1-3.7-4.8-3.5c-1.8,0.2-3.7,0.1-5.5,0c-2.8-0.3-4.7-1.8-4.9-4.7c-0.3-3.2,1.5-5,4.4-5.7
			c1-0.2,2-0.2,3-0.3c1.8-0.2,3.8-1,5.4-0.5c4.4,1.2,6.7-7.4,12.8-1.8c2.8,2.6,9.3,1,14.1,1.5c3.4,0.4,5.7,2.2,5.6,5.8
			c-0.1,3.8-2.5,5.6-6.1,5.8C1422.9,505.9,1421.9,505.9,1419.6,505.9z"/>
		<path class="st0" d="M1254,477.3c-0.6,6.1-3.7,11.4-4.9,17.3c-0.3,1.7-2.1,2.6-4,2.2c-2.1-0.4-3.7-1.6-4.4-3.6
			c-0.8-2.3-0.6-4.5,0.2-6.8c1.2-3.6,2.2-7.3,3.6-10.9c1-2.7,2.1-5.7,5.8-4.9C1253.7,471.3,1253.7,474.5,1254,477.3z"/>
		<path class="st0" d="M1355.9,487.3c-0.6,4.8-1.6,10.7-3.8,16.3c-1.1,3-3.3,4.4-6.2,3.3c-2.7-1.1-2.9-3.5-2.1-6.3
			c1.7-5.7,3.2-11.5,4.7-17.2c0.6-2.2,0.5-5.3,3.5-5.2c3.4,0.1,3.5,3.4,3.9,6C1356,484.9,1355.9,485.5,1355.9,487.3z"/>
		<path class="st0" d="M1524.3,480.7c0.1,0.2,0.4,0.6,0.3,0.7c-0.3,0.5-0.7,0.3-1,0C1523.9,481.2,1524.1,480.9,1524.3,480.7z"/>
		<path class="st0" d="M1341.5,870.2c15.8,1.2,34.1-2.5,52.6-2.5c9.4,0,18.6,0.2,27.3,4.5c6.3,3.1,9.3,7.7,9.4,14.9
			c0.2,16-0.5,31.9-2.5,47.8c-0.2,1.9,0,3.1,1.8,4.1c1.9,1,2.8,2.9,3.7,4.6c1.7,3.5-0.3,8-3.8,7.3c-6-1.2-8.5,8.5-15.2,3.8
			c-5-3.5-10.5,0.1-15.8,0.4c-5.6,0.3-11.2,1.5-16.8,2.1c-5.4,0.6-10.9,1.2-16.4,1.3c-15.9,0.3-31.8-0.1-46.2-7.6
			c-8.4-4.3-13.8-11.2-14.7-21.2c-1.4-14.2-0.8-28.2,1-42.3c0.3-2-0.1-3.2-1.5-4.7c-3.5-3.6-2.5-7.9,1.9-10.3
			c3.2-1.7,6.6-2.2,10.1-2.3C1323.9,870.1,1331.3,870.2,1341.5,870.2z M1343.4,885c-5-0.3-10-0.3-15-0.8c-3.2-0.3-4.4,0.7-4.9,3.8
			c-2.1,13-4.6,25.9-4.8,39.1c-0.1,8.4,0.8,9.6,8.8,12.1c8.7,2.8,17.6,3.3,26.6,3.7c19.4,0.7,38.4-3.6,57.6-5.5
			c3.4-0.3,4.2-1.5,4.6-4.8c1.5-14.1,3-28.2,6.1-42c0.6-2.9-0.7-3.3-2.6-4.1c-10.8-4.5-22-4.5-33.4-3.9
			C1372,883.4,1357.8,885.5,1343.4,885z M1312.4,894.1c0.8-2.9,1.6-5.5,2.2-8c0.2-0.7,0.6-1.7-0.5-2c-0.6-0.2-1.3-0.1-2,0.1
			c-1.2,0.2-1,1-0.6,1.8C1312.9,888.4,1312,891.1,1312.4,894.1z"/>
		<path class="st0" d="M1194.8,872.3c0,4.3,0.1,8.6,0,13c-0.1,2.2,0.6,2.9,2.8,2.7c3.8-0.4,7.6-0.6,11.4-0.7
			c4.2-0.1,7.4,1.7,7.4,6.2c0.1,4.3-2.9,5.9-6.9,6.2c-6.3,0.4-12.6,0.5-18.9,0c-4.6-0.3-6.6-3-6.7-7.1c-0.5-12,1.9-23.8,2.3-35.8
			c0.1-2.4,1.8-3.9,4.3-3.9c2.6,0.1,4.1,1.7,4.2,4.1C1194.9,862,1194.8,867.2,1194.8,872.3z"/>
		<path class="st0" d="M484,368.2c0.1-8.4,1-15.3,5.3-21.2c1.1-1.5,2.4-3.3,4.3-3c1.9,0.3,2.6,2.4,3.2,4.2c2,6,2.3,12.4,3.2,18.6
			c0.5,4,1.2,7.9,2.7,11.6c1.2,2.9,2,5.7,6.2,6.1c2.6,0.3,4.2,3,3.8,5.7c-0.6,3.5-2.1,6.7-5.9,8c-6.5,2.4-11.7,0.3-15.8-6.7
			C486.3,383.9,484.1,375.7,484,368.2z"/>
		<path class="st0" d="M341.4,892.6c-5.6-11.8-9.4-24.3-13.4-36.8c-6.4-20.3-3.6-40.2,0-60.6c2.5-14.1,10-26,13.6-39.4
			c0.4-1.5,1.4-3.4,3.6-2.4c1.9,0.9,0.7,2.5,0.3,3.9c-1.9,6.6-4.7,12.8-7.6,18.9c-5,10.3-5.6,21.8-7.8,32.9
			c-2.2,11.4-3.2,23-2.4,34.7c0.6,8.6,3.3,16.6,6.1,24.6c2.8,8,5.9,15.8,8.8,23.7C342.2,892.3,341.8,892.4,341.4,892.6z"/>
		<path class="st0" d="M563,780.2c0.9-1.9,1.7-4.1,3.9-5.1c1-0.5,1.5,0.7,1.1,1.5c-0.9,2-1.3,4.5-3.7,5.4
			C563.6,782.2,563,781.4,563,780.2z"/>
		<path class="st0" d="M1095.3,373.4c2.5-1.7,4.4-1.6,6.4-1.6c3.1,0.1,5.2,1.4,5.4,4.6c0.3,2.9-1.4,4.8-4.2,5.3
			c-4.4,0.9-8.1,3.5-12.2,5.1c-2.4,0.9-4.4,1.5-6.6,0c-2.2-1.5-2.8-3.7-2.2-6.2c1.6-7.8,3.3-15.6,5.1-23.4
			c2.8-12.6,4.9-25.5,8.8-37.8c0.7-2.1,1.4-4.1,2.2-6.1c1.1-2.9,3.4-4.3,6.3-3.4c3,1,3,3.6,2.5,6.2c-2.1,10.9-4.2,21.9-6.4,32.8
			C1098.9,356.8,1097.2,364.6,1095.3,373.4z"/>
		<path class="st0" d="M433,471.8c-0.2-5.3-1.4-9,1.5-12.2c3.1-3.4,6.4-3.2,8.9,0.7c1.9,3,1.5,6.4,2.2,9.7c0.8,3.9,1.6,8,1.3,11.9
			c-0.8,9.9,5.3,14.6,12.8,18.3c3.3,1.7,6.5,3.3,5.1,7.8c-1,3.1-6.5,4.9-10.4,3.6c-12.1-4.2-19.4-13.7-20.3-26.5
			C433.7,480,433.2,475.1,433,471.8z"/>
		<path class="st0" d="M429.5,523.1c1.9,0.2,3.1,1.3,3.4,3.4c0.4,3.2-2.9,7.7-5.6,7.7c-2.3,0-3.1-1.5-3.3-3.5
			C423.7,527.7,426.8,523.3,429.5,523.1z"/>
		<path class="st0" d="M483.2,486.3c-0.3,2.4-1.7,4-4.3,3.6c-2.7-0.4-5.3-1.4-5.3-4.8c0-2.5,1.8-4.1,4.2-3.7
			C480.5,481.8,483.1,482.8,483.2,486.3z"/>
		<path class="st0" d="M446.1,443.3c-0.2,2.9-1,5.2-3.8,5.3c-2.5,0.1-3.9-1.6-3.7-4.2c0.3-2.8,1.8-5.7,4.4-5.9
			C445.6,438.3,445.7,441.5,446.1,443.3z"/>
		<path class="st0" d="M465.7,460.8c-1.1,2.1-2.6,3.8-5.3,3.9c-1.1,0-2.2-0.9-1.8-1.9c1-2.3,3.6-2.7,5.6-3.6
			C465,458.9,465.8,459.6,465.7,460.8z"/>
		<path class="st0" d="M368.6,510.2c-4.6-8.2-2.6-16.4-0.9-24.5c0.6-3,2.5-5.3,5.9-4.8c3.4,0.6,3,3.6,2.7,6
			C374.9,494.9,375.7,503.7,368.6,510.2z"/>
		<path class="st0" d="M1143.9,114.1c0.6-6.7,4.6-12.7,11.8-16.2c3.6-1.7,7.8-2.8,10.4,2c0.8,1.5,2.2,1.3,3.4,1.7
			c6.5,2.3,9.6,7.1,8.7,13.8c-1.1,8.6-10.8,16.9-19.1,16.5C1149.8,131.4,1143.6,124.7,1143.9,114.1z M1159.7,122
			c3-0.1,8.6-5.6,8.7-8.6c0-1.2-8.1-8.3-9.7-8.4c-2.4-0.2-5.7,5.8-5.5,9.7C1153.5,119.3,1156,122.1,1159.7,122z"/>
		<path class="st0" d="M830.8,432.5c0-1.2,0-2.3,0-3.5c0-1.8-0.2-3.9,1.9-4.7c2.6-1,4.9,0.4,6.8,1.9c1.6,1.2,2.2,3.3,1.1,4.9
			c-1.5,2.3-1.2,4.4-0.3,6.5c1.1,2.6,1.1,4.8-2,5.5c-2.9,0.7-5.9,0.3-6.8-3.2c-0.6-2.4-0.6-4.9-0.9-7.4
			C830.6,432.5,830.7,432.5,830.8,432.5z"/>
		<path class="st0" d="M790.3,1083.7c4.8-0.3,8.3,2.2,11.7,5c1.9,1.6,3.3,1.9,5.6,0.5c3.7-2.3,7.9-3.6,12.3-3
			c1.5,0.2,3.1,0.7,3.6,2.3c0.5,1.6-0.7,3.1-2,3.7c-5.2,2.5-10.4,5.2-15.9,6.8c-2.8,0.8-6.2-1.2-8.6-3.1c-3.9-3-8.2-4.1-12.9-4.5
			c-1.6-0.1-3.3-0.5-4.8-1.1c-1.6-0.6-3.2-1.7-2.9-3.6c0.3-2.2,2.2-1.1,3.6-1.3C783.4,1085,786.8,1084.3,790.3,1083.7z"/>
		<path class="st0" d="M686.7,1041.2c-0.3,5.3-2.8,7.5-7.4,6.9c-2-0.2-3.9-1.2-4.4-3.5c-0.4-2.2-0.1-4.3,1.9-5.8
			c1.5-1.1,3.1-1.8,4.2,0.2C682.3,1041.5,684.2,1041.6,686.7,1041.2z"/>
		<path class="st0" d="M680.9,1018.1c2.7,0,2.7,1.5,2.1,3c-1,2.5-2,4.9-3.2,7.3c-0.9,1.7-2.6,2.2-4.3,1.5c-1.7-0.7-2.8-2.2-2.2-4
			C674.5,1021.9,678,1020,680.9,1018.1z"/>
		<path class="st1" d="M1005,800c4.9-1.4,9.6-1.2,14.4,1.1c2.9,1.4,5.9,0.9,9-0.9c7.1-4.1,21.3-0.4,27.2,7.2
			c13.1,17,20.4,35.9,15.4,57.7c-3.2,14.1-4.5,28.6-10.7,41.9c-6.4,13.8-15.2,25.8-26,36.2c-2,1.9-4.7,3.1-7,4.6
			c-2.6-1.7-4.4-1.1-5.8,1.7c-0.8,1.6-1.9,3-2.8,4.5c-4.2,5.1-10.1,8.2-15,12.5c-7-0.2-14-1.9-20.7,1.3c-5.8-1.8-10-7.3-16.4-7.9
			c-1-0.1-1.3-1.4-1.6-2.3c-7.7-19.4-14.4-39.1-12.7-60.5c0.4-5.5-0.7-10.9-0.4-16.4c0.6-13.5,5.2-25.5,12.4-36.7
			c8.7-13.4,18.7-25.5,32.5-34c0.6-0.3,1.2-0.7,1.6-1.2c1.5-1.8,5-3.3,3.6-5.7c-1.3-2.2-4.7-0.8-7,0c-10.4,3.5-17.5,11.4-24.3,19.4
			c-19,22.5-30.3,48.2-29.5,78c0.5,19,5.3,37.1,13.9,54.5c-4.4,0-7.4-3.1-10.9-4.6c-7.9-3.5-14.5-9.3-22.2-13.3
			c-3.6-1.9-5.2-6.4-6.8-10.2c-6.2-14.1-8.8-28.9-9.3-44.2c-0.7-21.7,1-43,10.6-62.9c7-14.4,18.7-24.1,32.7-31
			c5.7-2.8,11,0.3,16,2.5c2.9,1.3,5.7,2.5,8.9,2.7c5.3,0.3,10.6,0.4,15.9,1.6c4.2,1,7.7-3,12.3-2.3c2.9,0.5,5.8,0.1,8.5,1.8
			C1009.4,797.6,1005.4,796.7,1005,800c-0.5-0.1-0.8-0.1-0.5,0.6C1004.6,800.4,1004.8,800.2,1005,800z M1000,884.7
			c0.9-12.1,1.9-23.8,2.7-35.6c0.3-4,1.4-8.8-4.4-10.1c-3.8-0.8-5.8,1.8-7.2,8.8c-2.4,12.9-3.6,26-5,39.1c-1,9.6-2.1,19.2-0.6,28.8
			c0.6,3.6,2.6,6,6.3,5.8c3.9-0.2,5.8-2.8,6-6.7c0.2-4.5,0.3-9,0.6-13.5c0.4-5.1,5.1-4.4,8-4.8c2.6-0.4,5.5,1.1,4.9,5.2
			c-0.3,2.1,0,4.3,0.1,6.5c0.3,5.1,2.8,7.9,7.1,7.9c4.4,0,7.1-3.1,7-8.4c-0.1-8.8-0.3-17.6-0.7-26.4c-0.7-12.8-0.6-25.6-2.2-38.4
			c-0.4-3-1.1-6.3-5-6.4c-3.8-0.1-4.6,2.9-5.1,6.2c-1.3,9.4-1.8,18.9-1.7,28.4c0.1,10.7,0.1,10.7-10,13.7
			C1000.8,884.8,1000.7,884.8,1000,884.7z M1051,846.8c0-4.5-0.3-9-1.3-13.4c-0.7-3.2-2.4-5.8-6.1-5.2c-3.3,0.5-4.5,3-4.5,6.2
			c0.1,7.7-0.9,15.2-1.7,22.8c-0.7,6.3-1.2,12.6-1.1,18.9c0.1,3.8-0.1,9.2,5.1,9.5c4.9,0.3,5.9-4.8,6.6-8.6
			C1050,867.1,1050.4,856.9,1051,846.8z M1043.3,918.2c2.9-0.3,4.9-2.1,4.9-5.7c0.1-6.1-2.8-10.4-6.9-10.3c-3.9,0-7.9,3.5-7.9,6.9
			C1033.4,914.1,1037.6,918.3,1043.3,918.2z M995.7,796.5l-0.3-0.2l0,0.3L995.7,796.5z"/>
		<polygon class="st0" points="995.7,796.5 995.3,796.6 995.3,796.3 		"/>
		<path class="st0" d="M1005,800c-0.2,0.2-0.3,0.4-0.5,0.6C1004.2,799.9,1004.5,799.9,1005,800C1005.1,800.1,1005,800,1005,800z"/>
		<path class="st0" d="M1352.3,894.7c-0.3,1.1-0.6,2.7-1,4.3c-0.5,1.9-0.9,3.6,0.8,5.5c1.5,1.6,1.6,4,1.5,6.2c-0.3,4.5-0.4,9-1,13.4
			c-0.5,3.7-0.5,7.7-6.4,8.3c-2.8,0.3-6,2.3-9.1,3.3c-2.1,0.7-4.4,0.1-5.5-2.3c-1.2-2.6,0.4-4.1,2.3-5.3c1.1-0.7,2.2-1.8,3.4-2
			c6.5-1.1,6.8-5.5,6.5-10.8c-0.3-4.1,2.3-8.5,1.7-12c-0.7-4.1,0.2-7,1.5-10.3c0.6-1.6,1.1-3.5,3.3-2.9
			C1352.2,890.5,1352.2,892.5,1352.3,894.7z"/>
		<path class="st0" d="M1411.4,909.9c-0.3,4.9-0.4,8.3-0.8,11.8c-0.4,3.4-2.4,5.6-6,5.2c-3.3-0.3-5-2.6-4.7-5.9
			c0.6-7.1,1.3-14.2,2.1-21.3c0.3-2.3,1.5-4.2,4-4.3c2.6-0.1,4,1.7,4.3,4C1410.9,903.3,1411.2,907.3,1411.4,909.9z"/>
		<path class="st0" d="M1387.2,912.3c0.1,2.7-0.2,5.3-1.3,7.8c-1,2.2-2.8,3.4-5.3,2.8c-2.4-0.6-4-2.4-3.5-4.7
			c0.5-2.4-0.9-3.4-1.7-5.1c-2.9-5.7-0.8-11.7,0.1-17.6c0.2-1.4,2-2.2,3.6-2.2c1.6,0,3.6,0.9,3.5,2.2
			C1382.4,901.6,1388,906,1387.2,912.3z"/>
		<path class="st0" d="M1390.3,935c-3.3,0.2-6.7,1-9.7-0.8c-1.4-0.8-4.5,1.3-4.1-1.8c0.3-2,1.6-4.6,4.1-5.2c4.2-0.9,8.5-1.4,12.7-2
			c2.5-0.4,4.5,1,6.2,2.7c1.3,1.2,1.9,2.7,1.1,4.5c-0.7,1.6-2,2.6-3.8,2.7C1394.6,935,1392.4,935,1390.3,935z"/>
		<path class="st0" d="M1333.7,916.1c-0.2,3.4-0.7,6.3-1.8,9.1c-1,2.5-3.1,3.5-5.7,2.7c-2.6-0.8-3.8-2.9-2.9-5.5
			c1.3-3.7,1.7-7.4,1.7-11.3c0-2.5,1.3-4.1,3.9-4.2c2.4-0.1,3.7,1.4,4.1,3.6C1333.3,912.5,1333.5,914.5,1333.7,916.1z"/>
		<path class="st0" d="M1387.6,894c-1.9-0.1-4-0.9-4.3-3.4c-0.3-2.1,1-3.9,3.1-4.6c3.4-1.1,6.8-1.6,10.3-0.9c2.1,0.4,4.4,1.2,4.3,4
			c-0.1,2.5-2.2,3.3-4.1,3.7C1394,893.4,1391,893.6,1387.6,894z"/>
		<path class="st0" d="M1332.5,893.3c-1.6-5.4-0.3-7,4.7-6.6c2.3,0.2,4,0.9,4.1,3.4c0.1,2.6-1.4,3.9-4,4c-2,0-4.4-0.8-3.3,2.9
			c0.7,2.7-0.2,5.2-3.4,5.5c-2.5,0.2-4-1.5-4.1-4c-0.2-2.9,0.6-5.3,4.2-5.5C1331.2,893,1331.8,893.2,1332.5,893.3z"/>
		<path class="st0" d="M1362.2,892.8c3.5,0.2,5.3,2.1,5.3,5.1c0,3-1.9,5-5.1,5c-3.1,0-5-2-5-5.1
			C1357.4,894.7,1359.4,893.1,1362.2,892.8z"/>
		<path class="st0" d="M1363.8,922.9c-1.9-0.5-3.4-1.5-3.6-3.5c-0.1-2.2,1.6-2.5,3.3-2.5c1.9,0,3.2,0.9,3.3,2.8
			C1366.9,921.7,1365.7,922.7,1363.8,922.9z"/>
	</g>
</g>
</svg>
