<?xml version="1.0" encoding="utf-8"?>
<!-- Generator: Adobe Illustrator 22.1.0, SVG Export Plug-In . SVG Version: 6.00 Build 0)  -->
<svg version="1.1" id="Layer_1" xmlns="http://www.w3.org/2000/svg" xmlns:xlink="http://www.w3.org/1999/xlink" x="0px" y="0px"
	 viewBox="285 -25 1350 1180" style="enable-background:new 0 0 1920 1080;" xml:space="preserve">
<style type="text/css">
	.sworld0{fill:#434343;}
	.sworld1{fill:#FEDD01;}
</style>
<g>
	<g>
		<path class="sworld0" d="M1313.5,920.3c-6,1.5-11.5,3.9-16.5,7.8c-5.8,4.6-12.5,4.1-18.7-1.2c-8-6.9-15.2-14.6-19.2-24.6
			c-5.4-13.5-12.9-25.5-23.8-35.3c-4.2-3.8-4.5-7.9-1.9-13.1c2.6-5.1,6.5-9.2,10.2-13.6c2.8-3.3,5.3-6.2,0-10.2
			c6.7,4.2,8.7-1,11.6-4.5c3.9-4.8,7.7-9.6,10.8-15c2.1-3.5,4.8-6.3,8.8-7.8c6.3-2.5,12.7-5.1,18.9-7.7c7.5-3.2,15.1-1.7,22.6,0
			c4.8,1.1,9.4,3.2,14.6,2.6c1.7-0.2,3.8,0.4,3.2,2.7c-0.7,2.5-2.5,4.6-5,5.7c-0.1,0.1-0.4,0-0.5-0.1c-12.5-7.8-23.6-7.5-37.2-0.8
			c-8.7,4.3-16,9.4-20.7,18.3c-2.7,5.2-7.4,9.4-11.2,14.1c0.3,1,1.5,1.1,2.2,1.7c1.2,0.9,3.8,1.4,2.6,3.4c-0.9,1.5-3.3,0.8-4.6-0.1
			c-2.8-2.2-4.3-0.6-6,1.4c-3.5,4-7.3,7.8-10.9,11.7c-2.5,2.6-2.7,4.9,0.3,7.6c10.3,9.2,17.4,20.5,22.4,33.2
			c3.6,9,9.8,16.2,16.7,22.8c3.6,3.4,7.2,4.5,11.5,1.1c3.4-2.7,7.4-3.5,11.7-3.2c8.1,0.6,14-1.2,17-11.5c2.7-9.4,5.6-18.8,9.5-27.8
			c1-2.2,0.6-3.5-1.2-5.1c-7.3-6.5-13.4-14.4-21.5-20.1c-3.1-2.2-3.6-5.3-1.6-8.3c2.1-3.2,5.2-3.2,8.4-1.5
			c5.8,3.1,10.4,7.8,14.8,12.5c12.9,13.5,28.4,22.7,45.7,29.5c18.3,7.2,37.1,11.4,56.6,13.3c22.3,2.2,43.1-3.7,62.7-13.1
			c29.5-14.1,55.1-33.6,75.5-59.3c7.9-10,11.8-22.3,17.5-33.5c10.4-20.6,12.9-43.2,17.9-65.2c6.2-27.7,6.7-55.7,3.5-83.5
			c-2.3-20.4-5.4-41.2-14-60.5c-5.4-12-6.3-24-3.1-37.3c4.6-19.3,5.7-39.2,2.5-59c-1.4-8.7-4-16.6-14.2-18.9c-2.8-0.6-4.9-0.3-6.6,2
			c-4.2,5.7-5.7,11.8-3.7,18.8c3.3,11.7,7.9,22.9,10,35c1,5.8,0.1,11.3-1.7,16.7c-1.4,4-4.6,5.9-8.7,4.8c-4.1-1.1-5.7-4.3-5.1-8.5
			c0.4-2.4,2.6-5.3,1.1-7.1c-2.4-3-5.8-5.5-9.1-7.7c-2.7-1.8-9.7,2-10,5.1c-0.1,1.5,1.3,1.2,2,1.7c5,3.7,9.9,7.3,11.4,13.9
			c0.8,3.5,0.1,6.6-1,9.7c-1.4,3.9-3,7.8-4.2,11.8c-1.8,6.4-0.9,7.9,5.3,10.5c1.4,0.6,2.8,1.3,3,3.1c0.2,1.7-1.2,2.5-2.2,3.6
			c-5.4,5.5-10.9,0.8-16.1-0.3c-4.5-0.9-4.1-5.8-4.4-9.7c-0.6-7.9,2.1-15.1,5.2-22.1c1.4-3.1,0.7-5.1-1.7-6.9c-2.8-2-3.4,1-5.1,2.1
			c-8.5,6.1-9.4,15.5-9.7,24.4c-0.1,3.7,0.5,7.9,1,11.7c0.8,6.4,3.5,12.7,10.5,15.9c6.6,3,12.2,8,19.4,10c3.4,0.9,2.2,3.3,0.3,4.8
			c-2.4,1.8-5.3,1.7-8.2,1.1c-2.2-0.5-4.4-1.2-7.9-2.1c4.3,5.5,6.4,10.8,13.3,11.9c3.6,0.6,7,3.4,10,5.9c2.6,2.1,1.7,5-0.9,6.7
			c-2.5,1.6-2.8,3.6-2.3,6.3c4.9,30.9,5.9,61.9,5.3,93.1c-0.7,39.7-16.1,72.4-45.8,98.7c-11.3,10-23.4,18.6-37.2,24.7
			c-9.8,4.3-20.5,5.6-30.5,9.3c-12.2,4.6-24.8,5.3-37.8,4.9c-15.3-0.5-29.9-3.5-44.6-7.3c-12.5-3.2-24.3-8-35.8-13.6
			c-3.7-1.8-6.9-4.5-10-7.4c-3.2-3.1-6.5-6.1-10.6-8.2c-6.1-3.3-7.2-9.8-3.6-15.9c1.8-3,1.1-6.6,0.5-10c-0.2-0.9-0.8-2.2,0.5-2.6
			c1.7-0.6,1.6,1.2,2,2.1c0.1,0.1,0.2,0.3,0.2,0.5c-1.4,7.5,3.3,9.5,9.3,11.5c6.6,2.2,10.7,8.2,16,12.6c6.6-19.3,8.1-39,7.4-59
			l-0.1,0.1c1.8-6.8,1.5-13.7,1.7-20.6c0.2-7.8,0.1-15.6,0.1-23.5c0-1.2,1-3.3-2-2.4c-1.8,0.6-2.7-0.9-3.1-2.5
			c-0.4-1.9-1.3-3.4-2.7-4.7c-1.3-1.3-1.9-3-0.7-4.5c1.4-1.7,3.2-1.2,4.9-0.1c1.1,0.7,2.2,1.4,3.5,2.3c-0.6-13.3-1.2-26.2-1.8-39
			c-8,0.9-15.1-0.6-20-7.2c-4.3-5.7-8.1-11.8-12.3-17.6c-4.6-6.4-4.5-13.3-3.1-20.5c0.6-3.3,2.3-5.6,5.7-6.5c3.7-1,4.4-3.6,3.5-7.2
			c-1.2-5-2-10.1-2.9-15.2c-0.4-2,0.6-3.2,2.4-3.7c1.9-0.6,3.4,0,4,1.9c1.8,6,3,12.3,6.3,17.8c1.1,1.8-4.7,10.2-7.5,11.7
			c-5.5,2.9-7.5,8.6-4.5,14.3c4.1,7.8,9.5,14.9,14.9,21.9c3.1,4,8.3,2.6,12.7,5c0-7.2-1.8-13.3-3.5-19.5c-5-18.2-7.9-37.1-16.4-54.2
			c-8.3-16.7-13.8-34.5-22-51.2c-5.3-10.7-9.6-21.9-15.9-32c-6.8-10.9-16.1-19.6-24.8-28.8c-8.1-8.6-16.1-17.6-25.2-25.1
			c-12.4-10.2-24.2-21.1-36.8-31.1c-3.8-3-7.4-6.1-11.2-9.1c-1.7-1.3-3.1-2-5.2-2.1c-2.4-0.1-4-1.6-5-3.7c-1-2,0.8-3,2-4.1
			c1.4-1.4,1.9-2.8,2-4.8c1.5-36.9,1.6-73.9,4.1-110.8c0.2-2.6-0.9-5.1,0.7-7.8c1.3-2.1,0.2-4.1-2.7-3.2c-2.1,0.7-4.1-0.9-6.2,0
			c-0.3-0.3-0.6-0.5-1-0.8c1.5-1.7,0.6-2.5-1.1-3.2c-14.2-6.1-28.7-11.5-42.4-18.5c-10.2-5.2-20.3-10.8-30.5-15.9
			c-9.5-4.7-19.6-8.2-29.7-11.8c-8.1-2.8-16-6.4-24-9.4c-3.9-1.5-8-2.5-12.3-3.8c0.9,12.1,2.2,23.8,2.1,35.5c0,2.5,0,5-0.1,7.5
			c-0.4,9.4-1.6,10.8-11.1,12.3c-1.2,0.2-2.6,0.4-2.9,1.4c-1.3,4.1-4.8,7-6,10.9c-0.6,2.1-1.5,3.6-3,4.8c-4.5,3.5-8.5,7.9-14.8,9
			c1.6-3.9,4.4-5.8,7.8-6.9c3.2-1.2,3.6-4.1,5.2-7.9c-3.6,2.3-4.5,5-5.7,7.4c-0.7-0.4-2.1-0.3-1.1-1.9c1.3-2.2,2.3-4.6,3.6-6.8
			c0.3-0.5,0.9-1.4,1.2-1.3c6.1,1.3,4.7-4,6-6.8c1.6,0.2,2.1-0.9,2.4-2c1.9-6.5,4.6-12.8,4.1-19.8c-0.8-12.6-1.2-25.2-2.2-37.8
			c-1.2-16.7-2.7-33.4-4.1-50.1c-0.2-2.1,0.2-5-3.8-3.3c-2.6,1-4.3-0.7-5.5-3.1c-2-3.9-0.8-7.8-0.3-11.7c3.4-8.2,5.2-16.4,0.7-25
			c-2.9-5.6-6.9-9.7-12.8-12c-36.7-13.7-72.9-13.5-109,3c-27.1,12.4-48.9,31.2-68.9,52.7c-2.6,2.8-5.1,5.7-5.6,9.8
			c-0.2,1.9-0.3,3.5,2.4,3c3.8,0.7,2.1,2.2,0.5,3.6c-2.1,0.7-4.2,1.4-6.7,2.2c3.7,3.6,7.1,7,11.8,8.6c2.3,1.9,4.9,3.2,8,3.3
			c7.9,3.9,16.4,4,25,3.6c2.3,0,4.6-0.1,6.9-0.1c6.5-0.2,12.8-1.1,19.1-2.8c1-0.1,2-0.2,2.9-0.4c24.6-5.6,48.8-12.9,72.9-20.3
			c10.4-3.2,21.2-5.6,30.8-11.2c1.2-0.4,2.5-0.7,3.7-1.1c0.2,0.3,0.5,0.5,0.7,0.8c-1.5,1.7-4,2.3-4.9,4.6c-0.7-0.1-1.4,0.1-1.7,0.8
			c0,0,0.1-0.1,0.1-0.1c-3.5,2.2-8,2.8-10.3,6.7c-1.1,0.3-2.3,0.5-3.4,0.8c-2.7,1.2-5.5,2.4-8.2,3.6c-12.3,5.5-25.3,8.9-37.8,13.8
			c-1.2,0-2.4,0-3.3,1c-1.1,0.3-2.3,0.4-3.4,0.8c-14.7,5.1-30,8.6-45.1,11.8c-8.2,1.7-17.2,1.4-26,0.9c-12.2-0.6-23.5-3.5-33.7-10.4
			c-3.2-2.1-3.6-0.7-3.6,2.1c0,1.7,0.1,3.3,0.2,5c0.9,17.6,3.6,35,5.9,52.5c0.5,3.7,0.9,7.3-2.3,10.1c-6.4,3.7-12,0-11.9-7.8
			c0-1.6,1-3.8-0.6-4.6c-2.1-1.1-3,1.5-4.2,2.7c-8.5,8.2-16.4,17-25.4,24.6c-12.1,10.2-24.9,19.4-37.5,28.9
			c-7.2,5.4-14.9,10.1-21.9,15.7c-7.4,6-14.3,12.6-21.3,19c-5.1,4.6-10,9.4-15.2,14.1c-2.2,1.9-3.1,3.9-2.4,6.9
			c0.5,2.1,0.5,4.4,0.1,6.5c-0.6,3.5-1.1,6.7,2.9,8.7c1,0.5,1.1,1.3,0.7,2.8c-1.2,4.4,0.5,8.8,1.3,13.1c2.6,13.2,6.5,26.3,5.6,40
			c0,0.4-0.3,0.9-1.1,2.8c-3.1-9.3-6-17.4-8.2-27c-0.3,9.2,1.6,17.1-1.6,25.4c-3.2-3.1-3.1-7-3.2-10.4c-0.4-12.1,0.6-24.5-3.3-36
			c-3.3-9.7-1.6-20-4.3-29.3c-2.7-9.3,2.8-13.4,8-18.4c6.4-6.2,13-12.2,19.1-18.6c9.6-10.1,21.1-17.5,32.2-25.7
			c13-9.7,26.3-19,38.4-29.9c7.5-6.7,15-13.4,22-20.8c4.5-4.7,9.4-8.8,16.6-8.4c2.6,0.1,1.6-2.2,1.4-3.3c-2.9-13-1.3-26.3-2.1-39.4
			c-0.1-1.8,0.8-3.1,1.3-4.6c2-6.6,1.4-13.3,0.8-20.1c-0.2-2.2,0-4.4,0.9-6.7c3.1-7.4,7.4-13.9,12.7-19.9c6.7-7.4,14.1-14,21.4-20.7
			c15.3-14.1,32.8-24.4,51.9-32.7c9.4-4.1,19.3-6.6,28.9-10c4.7-1.7,10.8-2.3,16.5-2c7,0.5,14-0.1,21,0.1c16.1,0.5,31.6,4,46.9,9.1
			c9.9,3.2,17,9.5,22.7,17.3c4.5,6.1,7.1,13.8,6.2,21.5c-1.9,15.7,1,31,3.2,46.3c0.5,3.6,1.5,7.2,1.5,10.8c0.1,4.7,1.3,6.9,6.7,7.8
			c19.6,3.1,37,13.1,55.6,19.4c17,5.8,32,15.9,48.1,23.8c10.6,5.2,21.4,9.8,32,15c4.9,2.4,9.5,5.3,14.2,8c5.3,3.1,6.5,9.4,2.3,14
			c-1.9,2-2.2,3.7-1.6,6.2c4.3,16.6,5.3,33.5,5.7,50.5c0.4,19.3,0.4,38.7-1.1,57.9c-0.3,3.5,1.1,5.4,3.7,7.4
			c31.1,24.2,60.4,50.3,87.6,79c21,22.2,31.6,49.7,43.3,76.7c3.4,7.9,3.2,8.2,10.3,3.1c35.6-25.9,68.7-54.4,93.9-91
			c8.1-11.8,11.8-25.6,17.6-38.5c11.9-26.2,12.3-53.5,9.5-81.3c-3.1-31.3-14.2-60.1-29.6-86.8c-14.3-24.8-35.4-43.8-59.8-59.1
			c-21.7-13.6-45-20.4-70.4-22.3c-12.9-0.9-26.5,0.1-38.7-5.7c-4.6-2.2-8.9-2.4-13.8-1.1c-7.9,2.1-16.1,2.2-24.3,1.2
			c-10-1.3-18.4-5.3-24-15.3c-1.4,4.8-0.5,8.4,0.8,11.8c13,33.7,44.9,34.8,66.8,19.3c1.4-1,2.6-2.2,3.1-3.8c1.1-3.8,3.4-5.2,7.1-3.8
			c4.2,1.6,6,5.1,4.7,9.1c-1.2,3.8-3.7,6.6-6.8,9c-19.3,14.7-56.3,21.1-77.7-10.7c-6.8-10.2-10.1-20.9-7-33.1
			c0.2-0.8,0.3-1.7,0.9-2.2c5.9-5.2,6.1-12.2,7.3-19.3c1.3-7.5,4.3-14.9,9-21.3c0.6-0.7,1-1.6,1.6-2.6c-10.2,0.5-19.6,3.4-29.2,5.1
			c-15,2.6-30.6,5.2-44.7-4.4c-12.2-8.3-16.8-22.6-10.9-34.6c3.5-7.1,10.8-11,17.4-15c9.8-5.9,20.6-10.9,31.6-11.7
			c19.9-1.6,40.1-4,59.9,4.2c11.8,4.9,24.8,6.7,37.1,10.4c7.1,2.1,13.7,5.7,20.8,7.4c12.6,3.1,23.2,10.9,35.4,14.7
			c10.8,3.4,21.7,6.3,32,11.5c6.4,3.3,11.7,8.8,19.3,9.9c6.7,8.4,16.9,11.8,25.8,16.9c19.1,11,35.6,24.9,50.4,41
			c7.9,8.5,14.4,18.1,21.5,27.3c9.2,12,19,23.5,26.5,36.7c4.5,7.9,8.4,16.1,12.5,24.3c7.9,15.6,13.5,32.1,18.9,48.7
			c2.9,8.9,3.5,18.5,4.6,27.9c1.4,11.7,1.4,23.5,1.2,35.3c-0.3,14.9-3.1,29.5-5.4,44.1c-1.7,10.8-4.5,21.4-8.2,31.4
			c-2.4,6.5-6.1,12.9-8.9,19.4c-8.2,18.6-15.5,37.6-27.3,54.4c-11.3,16.1-22.8,31.9-40.3,42.1c-25.2,14.7-51.4,26.9-79.6,34.8
			c-5.9,1.7-11.5,4.2-17.9,3.2c-2.4-0.4-4.3-1.4-6.5-2.2c-0.1-0.3,0.1-1.2-0.6-0.4c0.2,0.1,0.5,0.2,0.7,0.3
			c2.1,8.5,5.4,16.6,7.4,25.1c3.5,15.2,8.3,30.2,10.8,45.6c1.3,7.7,1,16,1.3,24c0.8,24,1.6,48,0.2,71.9c-1,17.5-0.2,35.2-3.9,52.6
			c-1.6,7.4-3.1,14.9-5.2,22.2c-0.8,2.9-0.7,4,2.4,5c21.5,6.6,43.2,12.6,66,12c8.3-0.2,15.9-2.7,23.6-5.1
			c10.7-3.3,21.9-4.9,32.1-10.3c9-4.7,16.6-10.9,24.4-17.2c9.1-7.3,16.7-15.7,23.5-25c7.8-10.7,13.3-22.7,16.4-35.5
			c5.3-21.8,4.7-44.1,4.5-66.4c-0.2-20.4-3-40.5-3.7-60.8c-0.1-3.2-2.4-4.1-4.2-5.5c-5.8-4.8-11-10.3-12.4-17.8
			c-1-5.3-3.3-8.6-7.8-11.2c-5.2-3-6.9-8.6-8.7-14c-1.5-4.6-3.6-8-8.9-9.7c-8.6-2.9-12.1-9.8-12.8-18.8c-0.7-9.1,1.9-16.9,6.5-24.4
			c3.2-5.3,11.3-8.2,17-5.8c3.2,1.3,5.8,3.2,5.5,7.3c6.3-3.2,7.8-9.7,11.1-14.8c5.6-8.4,12.3-13.5,22.9-9.6c2.6,1,2.3-1,1.6-2.3
			c-3.3-6.2-4.1-13.2-6.5-19.7c-1.6-4.2-2.1-11.2-0.3-15.2c2.8-6.4,5.7-13.4,11.6-18.1c5.2-4.1,11.6-4.1,17.5-2.8
			c14.4,3.2,23.9,14.3,25.9,29.1c1.4,10.7,2.8,21.4,2.2,32.2c-0.8,13.8-2.2,27.6-5.3,41.2c-1.7,7.7,1.2,13.9,4.6,20.7
			c2.1,4.3,3.6,9.6,4.5,14.6c1.1,6.1,2.6,12.1,4.1,18.1c6.5,26.5,7.5,53.3,6.9,80.4c-0.4,16.3-4.2,32-6.9,48
			c-2.6,15.2-5.9,30.3-10,45.1c-1.1,4-4.3,7.8-5.9,12c-1.3,3.5-2.8,7-3.6,10.7c-0.8,3.6-4.6,6.9-6.4,10.8
			c-10.3,23.4-29.1,39.2-48.4,54.7c-16.4,13.2-34.4,23.7-54,31.5c-18.1,7.2-36.8,11.8-56.5,10.4c-16.2-1.2-32.1-3.9-47.8-8.7
			c-11.9-3.7-22.5-10.3-34.5-13.5c-1.3-0.3-2.4-1.7-3.6-2.7c-2.5,2.8-3.3,6.2-4,9.5c-2.6,10.9-7.2,20.9-12.2,30.9
			c-3.6,7.2-7.5,14.5-11.6,21.2c-4.4,7.1-9.1,14.3-13.6,21.4c-8.5,13.7-19,25.5-31,36.2c-18.1,16.1-37.8,30.3-58.2,43.4
			c-12.3,7.9-24.2,16.5-37.2,23.3c-10.9,5.7-22.1,10.6-33.1,16c-15,7.4-30,14.6-45.8,20.2c-8,2.8-15.9,6.5-24.1,8.2
			c-7.4,1.6-15,2.6-22.1,5.1c-10,3.5-20.6,3.2-30.6,5.9c-12.6,3.3-25.5,3.5-38.2,5.5c-9.7,1.5-19.9,0.2-29.9,0.1
			c-12.6,0-25.3-0.4-37.8-1.1c-13.6-0.8-27.2-1.8-40.8-3.5c-13.2-1.6-25.9-4.9-38.7-7.8c-12.4-2.8-24.3-8-36.2-12.9
			c-19-7.8-38.4-14.6-57-23c-15.4-7-30.2-15.5-44.4-24.8c-15.8-10.2-31.3-20.9-44.1-34.9c-13.7-14.9-26.5-30.5-36.7-48.1
			c-8.7-15-16.4-30.3-22.7-46.4c-0.8-2-1.9-2.2-3.6-2.5c-12.6-2.3-25.4-3.8-37.7-7.3c-11.2-3.1-22.8-4-33.9-6.9
			c-10.4-2.8-20.5-6.8-30.7-10.7c-12.7-4.8-24.3-12-36.6-17.8c-10.3-4.9-18.5-12.2-27.5-18.6c-6.2-4.5-12.4-8.9-18.2-13.8
			c-9.1-7.7-18.4-15.3-24.4-26c-4.2-7.4-9.9-13.7-14.8-20.6c-4.3-6.2-7.9-12.7-10.5-19.7c-4.5-11.9-12.8-21.6-18.9-32.6
			c-5.6-10.1-11.2-20.2-15.6-30.9c-5-12.2-9.6-24.6-15.5-36.5c-4.8-9.6-5.5-20.3-9.5-30c-1.9-4.6-0.6-9.1-1.7-13.7
			c-3-12.2-3.1-24.8-3.4-37.2c-0.2-9,0.8-18.2,0.4-27.2c-0.6-13.2,2.6-25.6,4.6-38.4c1.1-7.4,3.3-14.6,4.6-21.9
			c1.8-10.2,7.1-20,14.5-27.9c1.6-1.7,4.1-2.4,6.3-2.2c3.3,0.2,5.8-1.3,7.1-3.7c1.8-3.2,4.7-5,7.1-7.3c7.7-7.2,15.7-6.3,22.4-1.3
			c3.9,2.9,6.1,1.5,8.3-0.6c8.9-8.6,16.3-18.7,18.7-30.8c1.6-8.1,2.6-16.4,4.3-24.5c1-4.9,3.8-9,7.1-12.3c4.1-4.1,9.6-2.7,14.2-0.7
			c11.4,5,14.2,14.2,14.2,26.1c0,24.3-10.6,44.5-24.8,63.1c-5.9,7.8-12.5,15.1-18.7,22.6c-0.8,1-1.8,1.9-2.3,3.2
			c-0.7,2.1-2.2,3.4-4.6,2.8c-2.3-0.6-2.9-2.4-3.1-4.6c-0.3-3.3,1-6.2,2.8-8.9c3.8-5.5,7.4-11.1,11.7-16.2
			c7.2-8.8,13-18.5,18.3-28.5c6.1-11.4,8.1-23.8,8-36.7c0-1.2-0.1-2.3-0.4-3.4c-1.1-3.6-2.6-7.9-6.5-7.9c-3,0-2.9,4.6-3.9,7.3
			c-2,5.6-1.3,11.6-2.7,17.2c-5,21.2-16.1,38.1-34.7,49.8c-5.5,3.4-8.7,2.2-11.1-3.9c-1.8-4.5-3.9-5.1-7.9-2.1
			c-5.3,4-9.5,8.9-12.5,14.8c-2.2,4.4-5.2,6.5-10,4.3c-1.9-0.8-2.5-0.2-3.4,1.4c-2.4,4.2-4,8.7-4.9,13.5
			c-2.2,11.7-7.8,22.5-9.7,34.3c-1.2,7.5-0.9,14.9-1.1,22.4c-0.9,27.6,1.1,54.9,7.1,81.9c4.4,19.8,14.1,37.7,21.5,56.3
			c6.2,15.5,14.5,29.9,23.8,43.8c4.9,7.2,9.2,14.7,12.7,22.6c3.5,7.9,7.7,15.5,13.6,22c2.2,2.5,4.4,5.1,6,7.9
			c10.6,19,27.8,31,45.2,42.8c0.3,0.4,0.5,1.2,1.3,0.7c0.7-0.5,0.3-1-0.2-1.4c-27.2-25.6-50-54.7-68.6-87.1
			c-13.6-23.5-21-49.1-27-75.3c-5.1-22.2-11.1-44.3-9.2-67.5c1.7-21,5.3-41.6,15.2-60.5c3.6-6.8,9.2-10,15.8-6.4
			c4.4,2.4,9.8,2.9,14.9,4.1c3.8,0.9,6.5-1.3,8.7-3.7c6.7-7.1,9.6-16.3,12.1-25.4c1.1-3.9-0.4-7.8-3.7-10.7
			c-3.6-3.2-3.8-7.7-0.9-11.2c2-2.5,6.6-2.3,10.3,0c8.7,5.5,11,14.3,9.3,23.1c-2.7,13.4-7.7,26.2-18.1,36.1
			c-7.2,6.8-15.4,8.7-24.8,5.7c-10-3.2-10.4-3.3-13.8,6.6c-6.6,19.2-10.2,39.1-8.2,59.4c0.7,7.7,2.1,15.5,3.7,23.2
			c2.6,13,6.1,25.7,8.7,38.7c1.4,7,3.3,14.1,6.1,20.7c2.5,5.9,4,12.2,6.7,18c7.5,15.7,16.2,30.6,26.1,44.8
			c12.9,18.4,27.2,35.6,43.2,51.3c9.4,9.2,19.7,17.5,31,24.5c5.2,3.2,10,7.3,14.7,11.2c12.2,10.1,26.6,14.8,41.8,17.8
			c10.2,2.1,20.3,2.6,30.8,1.6c6.2-0.6,11.8-3,17.9-3.5c1.2-0.1,2.1-0.1,1.4-2c-4.7-15-6.9-30.5-9.9-45.9
			c-1.2-5.9-0.4-11.9-1.6-17.7c-2.7-13.4-1.1-26.9-1.8-40.4c-0.6-10.4,0.8-21,1.4-31.6c0.5-10.1,0.3-20.2,1.3-30.2
			c1.1-11.6,1.9-23.2,3.7-34.7c1.6-10.3,3.8-20.5,6.1-30.6c0.4-1.7-0.6-2.2-1.2-2.8c-19.5-17.9-36.6-37.8-51.8-59.5
			c-3.5-5-8-9.8-10.6-15c-4.3-8.6-9.5-16.7-13.5-25.4c-4.8-10.4-9.7-20.8-12.1-32.1c-1.4-6.7-2.2-13.5-3.6-20.2
			c-1.3-5.8-1.4-11.8-2.8-17.6c-0.8-3.4-0.2-7.2-0.2-10.9c-0.2-18,0.4-35.9,0-53.9c-0.2-8.8,2.6-17.5,4.3-26.1
			c1.1-5.6,2.7-11.1,3.6-16.7c1.6-9.9,6.1-18.8,9.6-28c2.4-6.6,4.4-13.4,7.6-19.7c4.4-8.6,9.2-16.8,15.1-24.5
			c4.3-5.6,8.6-11.1,12.8-16.8c0.9-1.3,2-2.9,1.2-4.6c-3.2-6.9-2.9-15-6.8-21.7c-0.2-0.4-0.2-1-0.2-1.4c1.2-20.8,0.6-41.5,0.8-62.3
			c0.1-9.3,2.4-18.4,2.7-27.6c0.3-8.8,2.8-17.1,3.5-25.8c0.7-9.1,4.1-18,5.1-27.2c0.6-5.3,4.6-9.7,3.1-15.5c-0.3-1.2,2.3-3,2.7-5.1
			c2.2-10.7,6.5-20.8,10.2-31c3.6-9.9,9.3-18.9,15.5-27.5c7.3-10.2,16.8-18,27.3-24.9c13.1-8.6,25.4-18.5,40.4-23.8
			c14.7-5.1,29.8-7.1,45.3-4.2c17.2,3.2,31.5,11.8,45.3,22.3c9.5,7.2,18.6,14.7,26.2,23.8c4.6,5.5,9.7,10.6,14.2,16.1
			c4.8,5.9,12.1,6.6,19.2,5.4c3.1-0.5,6.5-0.9,9.3-2.8c5.9,1.6,12.4,1,17.7,4.8c5.9,7.2,9.1,15.5,6.5,24.6
			c-1.8,6.4-6.3,11.7-12,15.6c-16.2,11.3-34.7,13-53.7,12.1c-0.7,0-1.5-0.5-2.1-0.9c-8-6.4-18.2-9.6-25.4-17.2
			c-2.1-2.3-4.3-4.5-6.2-6.9c-1.7-2.2-3.1-1.5-4.2,0.2c-3.7,5.7-9,9.9-14.9,12.6c-4.5,2.1-9.3,4.5-14.8,4.1
			c-6.3-0.4-12.6,0.3-18.5-2.8c-10.3-5.4-13.6-15-16.1-25.2c-0.6-2.4-0.1-5-1.5-7.5c-6.1,4.5-12,9-18,13.4
			c-7.6,5.6-14.1,12.2-20.3,19.2c-10.8,12.3-21.2,24.9-26.5,41c-1.9,5.7-4,11.4-6.4,17c-4.8,11.5-6.3,23.7-8.6,35.8
			c-3.2,16.7-6.2,33.3-11.5,49.5c-0.5,1.4-0.6,3.4-2.7,3.8c-2.4,0.4-3.2-1.7-4.1-3c-1.1-1.7-1.5-3.8-1.7-5.9
			c-0.8-9.1,1.8-17.8,3.2-26.6c1.4-8.3,3-16.6,4.7-24.8c2.5-11.6,4.2-23.4,9-34.5c3.1-7.1,4.5-15,7.2-22.3c1.3-3.5,4.2-6.3,5.9-9.7
			c4.4-9.1,10.3-17.5,16.9-24.6c10.2-10.9,20.6-22,34.2-29.3c6.5-3.4,11.7-9.1,19-11.3c1.6-0.5,1.6-1.9,2.4-2.9
			c3.2-3.9,8.5-3.8,11,0.1c0.7,1.1,1.2,2.1,0.2,3.2c-5.9,5.9-2.3,12.1-0.7,18.3c0.2,0.7,1.2,1.2,1.4,1.9
			c4.4,14.2,15.3,18.8,28.2,11.5c4.1-2.3,8.7-3.8,11.8-7.7c2.1-2.7,2.4-4.2-1.6-5.5c-3.6-1.2-7.3-0.9-11-1.7
			c-10.6-2.5-10.8-16.6-5.6-22.4c1.2-1.3,3.2-2.8,4.8-1.8c3.4,2.1,5.2,0.1,7.5-1.9c3-2.7,11.2,0,11.6,4.4c0.3,4.3,3.2,6.7,5.3,9.3
			c7,8.7,14.5,16.9,23,24.2c5.6,4.8,13.1,7,18.7,12c0.3,0.3,0.9,0.5,1.4,0.5c15.9,0.4,31-2.1,43.4-13.1c1.9-1.7,3.1-4,3-6.8
			c-0.1-5.4-2.3-8.2-7.6-7.7c-7.2,0.6-14.1,2.4-21.5,2.1c-6.7-0.3-11.7-3.4-16.1-7.2c-7.4-6.3-13.5-13.9-19.7-21.5
			c-5.4-6.6-12.3-11.9-19.1-17.2c-4.9-3.8-10.2-7.3-15.2-11c-7.2-5.3-15.2-7.7-23.6-10.2c-6.1-1.8-12-3.4-18.3-2.5
			c-8.9,1.3-17.5,3.2-26.2,6.3c-15.2,5.6-27,16.2-40.2,24.7c-10.5,6.7-19.1,16-24.5,27.2c-7.3,15-13.5,30.4-17.8,46.8
			c-3.4,13.1-7.4,26.1-9.7,39.5c-1,6.2-1.5,12.6-2.2,18.8c-0.8,7.4-3.1,14.8-3.7,22.3c-1.8,23.9-3.4,47.8-1.7,71.8
			c0.4,6.2,1.5,12.2,2.4,19.3c5.4-5.3,9.9-10.3,15-14.6c8.8-7.5,16.2-16.9,26.5-22.4c7.3-3.8,14.6-8.2,22.7-10.3
			c2.6-0.7,4.5-2,6.5-4c11.6-11.4,23.9-22,35.2-33.6c11.7-12.1,26-19.6,40.8-26.8c2.4-1.2,4.7-1.3,7.1-1.7
			c7.9-1.2,16.1-1.9,23.8-0.4c12.7,2.5,20.9,10.8,25.2,23c2.7,7.9-0.7,18.4-6.7,23.8c-13.9,12.4-30.6,14.1-48,13.9
			c-5.5-0.1-11-0.3-16.5,0c-8.2,0.4-10.6,6.3-8.1,14c3,9,3.1,18.6,1.9,28.2c-0.8,5.8-3.4,11.1-5.3,16.5c-2.7,8-9.6,11.8-16.9,13.7
			c-5.8,1.5-11,5.3-17.4,4.7c-1.6-0.2-2.4,1.4-2.9,2.5c-4.4,9.3-9,18.5-13,28c-3.9,9.4-7.6,18.8-10.7,28.5
			c-3.5,10.6-6.5,21.5-9.2,32.3c-1.4,5.5,1.6,10.7,2.9,15.9c2.5,9.7,5.6,19.2,8.6,28.7c6,18.8,14.5,36.5,25.4,53
			c1.3,2,3.4,3.3,4.1,5.8c0.6,2.1,2,1,2.8-0.2c4.3-6.6,9.5-12.8,12.5-19.9c2.4-5.7,5.6-3.5,8.4-2.5c1.5,0.5,3.1,0.7,5,1.3
			c-7.5,8.3-14.9,16.5-22.5,24.6c-1.9,2-2.3,3.2-0.7,5.7c4,6.3,8.4,12.4,10.4,19.7c0.2,0.6,0.7,1.2,1.2,1.5c4.9,2.8,0.8,8.2,0.1,8.4
			c-6,2-6.2,8.2-9,12.3c-5.4,7.9-9.5,16.8-14,25.4c-2.2,4.2-4.4,8.5-6.4,12.8c-0.8,1.8,0.6,3.2,1.4,4.5
			c10.1,17.4,19.8,34.9,32.8,50.5c4.6,5.5,8.3,12.1,12.2,18.8c7.8-9.3,17.3-16.5,22.3-27.5c2.3-5,3.9-10.4,7.9-14.4
			c3.8-3.8,8-7.1,13.7-7.3c2.7-0.1,4.2-2.3,6.4-3.3c2.1-1,3.9-2.4,6.9-2c-1,2.1-3.1,2.3-4.8,4.2c5.6-0.3,10.7-0.5,15.8-0.6
			c7.6-0.2,13.4-3.5,19.5-7.1c1.2-0.7,2.9-1.6,4.1-1.3c6.1,1.6,9.4-2.3,12.3-6.2c1.7-2.3,4.1-1.8,6-2.6c8.4-3.2,16.6-7,25.8-7.5
			c4.2-0.2,7.8,0.8,11.2,3.2c3.5,2.5,7.5,3.6,11.6,3.8c4.5,0.2,8.9,0.7,12.9,2.7c1.1,0.6,2.2,0.8,3.2-0.3c3.2-3.4,6.9-1.5,9.9-0.1
			c8.7,3.9,8.6,4.1,12-4.1c3.9-3.2,5.6-7.7,6.7-12.3c1-4.1-0.6-5.4-5.5-4.9c-4-3.4-9.1-4.4-13.6-6.6c-9.3-4.4-18.7-8.6-27.5-13.9
			c-3-1.8-6-3.3-9.2,0.8c-2.6,3.3-10,1.3-14.3-3.1c-2.7-2.7-5.3-5.5-8.2-7.9c-2.7-2.3-5.1-3.2-8.9-0.3c-10.8,8-21.3,16.5-32,24.7
			c-3.1,2.4-6.7,3.3-10.4,3.8c-1.5,0.2-1.1-0.6-1.2-1.4c0,0-0.1,0.1-0.1,0.1c12.1-10,24.3-19.9,36.4-29.9c-5-0.3-8.4-3.7-12.7-3.2
			c-1.8,0-3.6,0-5.9,0c2.1-2.5,4.4-2.9,6.6-3.2c3.8,0,7.6,0.7,11.3,1.7c1,0.3,2.6,1.7,3.2-0.5c0.4-1.6-0.6-2.5-1.9-3
			c-4-1.6-7.9-3.3-11.9-4.9c-5.3-2.7-10.5-5.4-15.8-8.1c-12.5-7.7-26.2-13.1-38.8-20.4c-6.5-3.8-13-7.5-18.8-12.5
			c-5.8-4.9-13-7.5-20-10.3c-4.7-1.9-8.4-5.4-12.3-8.4c-2.9-2.2-2.8-6-1.1-9.3c1.9-3.6,5.2-3.9,8.5-2.7c12.1,4.3,24.4,8.1,35.3,15.5
			c8.7,5.9,17.6,11.7,27.6,15.4c1.7,0.6,2.3,3.5,5,2.4c-0.6-1.9-1.5-3.5-3.1-4.8c-0.7-0.6-1.6-1.5-0.8-2.5c0.8-1,1.9-0.2,2.6,0.4
			c3.3,2.4,8.9,2.9,6.8,9.5c-0.3,0.8,3.2,3.5,5.4,4.3c7.8,3,14.8,7.8,22.3,11.4c13.6,6.4,27.9,11,41.4,17.3
			c16,7.4,31.7,15.7,47.7,23.2c7.8,3.7,16,6.6,23.9,9.9c7.7,3.2,15.4,6.5,23.3,9.3c10.5,3.8,20.5,8.8,30.3,13.9
			c6.6,3.5,13.4,6.2,20.3,9c14.2,5.7,26.5,0.2,38.2-7.4c14-9.1,26.4-20.5,39.7-30.7c11.4-8.7,22.4-17.8,33.5-26.9
			c8.4-6.8,16.9-13.4,25.1-20.4c6.3-5.3,12.5-10.8,19.3-15.7c4-2.9,7.3-7,11.1-10.3c9.3-7.9,18.1-16.4,27.5-24.2
			c6.2-5.2,13-9.6,19.7-14.2c0.9-0.6,1.9-1.9,3.8-0.8c-2.9,7.6-7.1,14.5-12.1,21c-9,11.7-19,22.4-29.7,32.5
			c-7.9,7.6-16.2,14.8-24.3,22.1c-1,0.9-2.2,1.5-2.6,2.9c0,0,0-0.1,0-0.1c-2.2,0.7-3.7,2.3-5.1,4.1l0.1-0.1
			c-5.5,3.7-10.5,8.1-15.4,12.6c-23,18.7-45.8,37.4-68.9,55.9c-12.6,10-26.1,18.4-42.5,20.7c-6.3,0.2-12.5-0.1-18.7-1.1
			c-7.9-3-16-5.3-23.5-9.4c-15.5-8.5-31.7-15.4-48.2-21.5c-1.1-0.4-3.7-3.1-4.2,0.5c-0.9,5.9-3.9,10.9-6.6,16.1
			c-6,11.9-9.4,12.8-21.8,5.7c-0.9-0.5-1.5-0.5-2.1,0.3c-2.5,1.6-5.5,2.3-8.1,1.1c-6.7-3.1-13.9-2.7-20.8-4.1
			c-2.1-1-4.5-1.7-6.2-3.1c-4.9-4.2-10.4-4-16-2.3c-5.7,1.8-11.4,3.6-16.9,5.8c-5,2-9.7,4.7-14.5,7c-14.7,7-29.3,12.4-45.9,9.5
			c-1.7-0.3-4.3-0.2-5.3,0.9c-4.9,5.1-10.9,9.2-14.5,15.5l0.1-0.1c-1,0.1-1.2,0.7-1.1,1.6c-0.5,0.3-1.2,0.5-1.6,1
			c-3.4,3.3-3.9,8.3-7,11.9c-5.1,6.1-10,12.4-15.3,18.4c-2.1,2.4-2.4,4.1-0.5,6.8c6.3,9,13,17.6,20.8,25.5
			c4.6,4.6,9.3,9.1,13.7,13.8c2.9,3.1,3.2,6.7,0.2,9.8c-2.9,3.1-6.4,3.2-9.8,0.6c-1.2-0.9-2.3-1.9-3.5-2.8
			c-9.9-9.4-19.8-18.7-28.1-29.7c-8.7-11.6-15.2-24.6-24.1-36.1c-21.5-28-37.3-59.2-52.5-90.9c-19.5-40.7-25.7-83.1-20.9-127.3
			c4.9-44.5,18.2-86.8,37.8-127c4.4-9,9.5-17.6,16.7-24.7c4.3-4.3,10.2-3.5,13,1.6c0.8,1.3-0.1,4.7,3.4,3.4c2-0.7,4.3-0.9,5.5-3
			c6.2-11.5,10.8-23.3,6.5-36.7c-1.3-3.9-2.5-7.9-3.3-12c-1.8-9.2,10.1-23.1,21.2-23.8c6.8-0.5,13.7-0.7,20.5,0
			c10.9,1.1,21.2-1.3,31.2-5.4c11.3-4.7,13.1-14,4.1-22.2c-9.6-8.8-21.5-7-32.1-3.5c-12.7,4.2-24.4,11.4-34.2,21
			c-4.9,4.8-9.8,9.5-14.9,14c-13.6,11.9-26.5,24.8-42.8,33.1c-5.3,2.7-11.1,4.7-15.6,8.8c-12.4,11.3-25.6,21.9-36.5,34.8
			c-1.8,2.1-3.1,3.9-2.6,7c0.6,3.4-0.7,6.1-5,5.2c-1.7-0.4-2.5,0.5-3.3,1.6c-8.9,12-18.5,23.6-24.1,37.8c-4.3,10.8-8.6,21.7-12,32.8
			c-12.2,39.7-12.5,80.4-8.3,121.2c1.4,14.2,3,28.5,8.6,41.9c17,40.3,42.8,74.6,73.7,105.3c0.7,0.7,2.1,1.7,2.3,1.6
			c3.2-3,4.2,0.9,5.8,1.9c2.8,1.7,5.2,4.1,7.9,6.1c1,0.8,2.5,1.5,1.9,3.1c-0.7,2.2,0.8,3,2.2,3.9c21.5,14.4,40.5,32.5,65,42.5
			c7.8,3.2,14.9,8.7,20.7,15.3c-0.6,6.5-3.4,8.2-9.1,5.6c-2.3-1-4.5-2.2-6.6-3.4c-5.4-3.1-10.5-6.9-16.5-8.9c-1.1-1-2.4-1.7-4.2-1.7
			c-2.1,10.5-5.2,20.7-5.2,31.5c-1.5,5.9-2.9,11.8-4.4,17.7c-0.5,1-0.9,2-1.4,3c-6.7-12.6-8.3-25.6-4.9-39.3c1.4-5.5,2.5-11,4-16.5
			c0.4-1.7,0.5-2.7-1.2-3.7c-13.2-8.1-24.4-19-37.5-27.4c-1.4-0.9-2.7-1.9-4.4-3.1c-2.4,7.9-3.4,15.6-4.1,23.2
			c-3.4,39-6.1,78-3.9,117.1c1.9,34.3,8.3,67.9,21.4,99.9c1.3,3.2,2.2,4.6,5.9,2.9c4.1-1.9,8.3,0.1,9.9,4c1.6,3.9,0.1,8.2-4.2,9.9
			c-2.9,1.1-3.9,2.1-2.5,5.3c14.4,32.6,33.2,62.1,59.6,86.4c18.5,17,39.8,30,62.1,41.2c31.9,16.1,65.4,28.5,99.3,39.7
			c17.4,5.7,35.4,8.7,53.7,10c13.7,1.3,27.4,2.6,41.2,2.4c8.3,0.3,16.7,0.6,25,0.9c9.9,0.2,19.7,0.7,29.5-1.5
			c13.6-0.5,26.9-3.2,40.3-5.7c12.2-2.1,24.2-4.7,36-8.4c17.1-3.6,33.4-9.6,49.2-17.1c19.8-9.4,40.3-17.6,59.1-28.7
			c33.4-19.6,65.9-40.6,94.3-67.4c11.5-10.8,19.8-24.1,27.8-37.6c4.9-8.3,10.2-16.3,14.4-25c0.2-0.4,0.4-0.7,0.5-1.1
			C1314.4,920.2,1313.9,920.2,1313.5,920.3z M714.9,614.9c-4.4,2.2-8.6,4.6-9.5,10.2C708.2,621.4,712.9,619.4,714.9,614.9
			c0.1-0.2,0.4-0.3,0.6-0.3c-0.1,0-0.2-0.1-0.3,0C715.1,614.7,715,614.8,714.9,614.9z M1267.1,125.9c-0.1,1.1,0.9,1.1,1.4,1.7
			c3,4.8,1.5,9.3-1.4,13.4c-1.6,2.3-3.2,4.7-4.1,7.4c-1.6,4.6,2,11.3,6.7,11.1c4.4-0.2,7.9-0.5,9.5,4.6c0.4,1.2,2.1,0.9,3.2,1
			c9.6,0.9,19.2,2.2,28.8,2.4c19.6,0.6,38.4,5.3,55.8,13.5c32.9,15.5,60.3,38.5,79.7,69.1c19.4,30.6,30.9,64.4,34.9,101
			c5.1,45.9-7.1,87.3-30.7,125.5c-16.4,26.7-39,48.4-63.4,68.1c-13.4,10.7-26.5,21.8-41.4,30.5c-1.6,0.9-2.7,1.8-1.8,3.9
			c2.3,5.3,4.6,10.6,6.8,15.9c-0.1-4.8,1.3-8.5,6.1-9.5c12.6-2.6,24.4-7.6,36.6-11.5c21-6.6,40-17.4,58.4-29
			c16.4-10.3,26.5-26.9,36.5-43.1c9.7-15.6,15.4-33.1,23.2-49.7c18.5-39.5,22.4-81.1,16-123.4c-6.1-40.8-23.8-77.3-48.9-110.1
			c-4.7-6.1-9.4-12.1-13.9-18.3c-15.7-21.8-33.9-41-57.1-55.1c-14.9-9.1-29.7-18.4-44.5-27.7c-6.4-4-13.2-7.2-20.2-9.6
			c-9.6-3.3-19.2-6.6-27.9-12.1c-0.8-0.5-1.9-1.2-2.7-1c-4.8,1.3-9.2-0.9-13-2.6c-15.4-6.9-31.2-12.3-47.6-16.2
			c-8.1-1.9-15.9-4.6-23.8-7.3c-11-3.8-22.4-1.9-33.7-1.9c-17.2,0.1-32.1,6.6-45.7,16.4c-6.6,4.8-7,12.5-0.9,18.2
			c4.9,4.6,11,6.9,17.7,6.9c8.2,0,16.4-0.6,24.2-3c13.3-4.1,26.9-4.3,40.5-3.6c23.5,1.3,42.8,12.4,61.2,25.6
			c2.2,1.6,4.7,3.5,2.6,6.5c-2.1,3.1-5,1.6-7.6,0.5c-5.9-2.6-11.9-5.2-17.8-7.7C1268.7,125.9,1267.8,126,1267.1,125.9
			c-8.5-4.3-17.1-7.9-26.5-9.8c-2.4-0.5-4.1-0.5-3.9,2.9c0.1,1.6-0.7,5.1-3.3,3.3c-5.2-3.6-7.4,0.1-9.4,3.4
			c-5.4,9-6.6,19.1-5.7,29.4c0.3,4,3.1,6.5,6.7,8c8.1,3.3,16.4,2.3,25,1.6C1241.1,148.6,1250.6,127.8,1267.1,125.9z M621.4,567.1
			c5.4-8.5,10.5-16.7,15.7-24.8c0.3-0.6,0.8-1.1,0.9-1.7c0.9-7.2-3.1-12.3-7.6-17.2c-1.7-1.8-2.4-0.6-3.4,0.7
			c-2.4,3.2-4.8,6.4-7.2,9.5c-0.5,0.7-0.9,2.1-2.2,1.4c-0.9-0.6-0.7-1.8-0.4-2.7c1.4-4.3,3.9-8.1,6.8-11.5c1.3-1.5,1.5-2.5,0.2-4.2
			c-11.3-15.5-18.2-33.2-26.6-50.2c-1.6-3.3-2.7-6.8-4.5-11.2C591.2,493,601.3,532.6,621.4,567.1z M653.8,527.9
			c-26.8-32.7-48.2-67.9-57.6-109.4c-0.4,4.8-3.8,9.3-0.9,14c2,3.3,3.7,6.7,4.9,10.3c7.3,20.8,17.1,40.4,26.9,60.1
			c1.1,2.2,2.3,4.5,3.8,6.4c5.4,6.8,10.2,13.9,14.6,21.7C647.1,527.1,650.8,528.9,653.8,527.9z M1525.7,538.5
			c-3.8-1.7-7.5-4.1-11,0.3c-5.4,6.9-6.7,14.6-4.7,23c0.5,2.2,2.1,3.7,3.8,5.1c1.8,1.5,2.8,1.3,3-1.3
			C1517.6,555.8,1520.5,546.8,1525.7,538.5z M592.6,913.2c-2.3-8.8-2.3-8.8-9.8-6.4c-2.7,0.9-5.5,1.7-9.6,3
			C580.4,911.1,586.2,912.1,592.6,913.2z M705.8,50.3c-3.2,2.6-4,5.8-2.6,8.8c1.4,2.9,4.5,2.9,7.8,2.4
			C708.4,58.1,707.3,54.3,705.8,50.3z M813.7,539.3c1.5,3,3.8,4.7,6.7,5c0.2-0.4,0.4-0.8,0.6-1.2
			C818.5,541.8,816.1,540.6,813.7,539.3z M450.1,864.6c-2.6-2.3-4.6-5.4-9.3-7C443.8,861.3,446.8,863.2,450.1,864.6z M450.9,865.5
			c0.8,1,1.4,2.5,3.2,2C453.5,866.3,452.6,865.5,450.9,865.5z M454.9,868.7c0.3,0.1,0.5,0.3,0.8,0.4c0.1-0.2,0.2-0.5,0.2-0.7
			c0-0.1-0.3-0.2-0.4-0.2C455.3,868.3,455.1,868.5,454.9,868.7z M704.8,626.5c-0.1-0.1-0.2-0.3-0.3-0.4c-0.1,0.1-0.3,0.2-0.3,0.3
			c0,0.1,0.1,0.2,0.2,0.3C704.6,626.7,704.7,626.6,704.8,626.5z"/>
		<path class="sworld1" d="M880,591.7c2.7-5.1,5.6-10.1,6.6-16.1c0.6-3.6,3.1-0.9,4.2-0.5c16.5,6.1,32.7,13,48.2,21.5
			c7.4,4.1,15.6,6.3,23.5,9.4c3.9,3.4,10.1,3.5,13.1,9c2-2.8,3.8-5.3,5.6-7.9c16.4-2.2,30-10.6,42.5-20.7
			c23.1-18.5,46-37.2,68.9-55.9c1.3,3,2.5,3.2,4.6,0.5c2.6-3.3,5.9-6.2,8.6-9.4c0.9-1,3.3-1.3,2.1-3.6c0,0-0.1,0.1-0.1,0.1
			c2.8,0,4.4-1.5,5.1-4.1c0,0,0,0.1,0,0.1c1.3,0.7,2.2-0.3,3.1-0.9c2.9-1.8,5.5-2.1,8.1,0.5c2.5,2.6,2.4,5.2,0.3,8
			c-0.3,0.4-0.3,0.9-0.4,1.4c-0.8-0.1-1,0.3-0.9,1c0,0-0.3,0.1-0.3,0.1l0.2-0.2c0.3-0.3,0.6-0.7,0.9-1c6.7-3.9,11.6-10.4,19-13.4
			c1.7-0.7,3.2-1.5,5.1-1.6c2.5,0,4.2,0.9,5,3.3c0.9,3-1.6,2.9-3.3,3.8c-4.9,2.5-8.6,6.2-9.4,11.9c-0.5,3.8-2.5,6.2-5.4,8.8
			c-6.6,6.1-12.3,13.3-17,21.1c-0.2,0.1-0.5,0.2-0.7,0.3c0.1,0.2,0.3,0.3,0.4,0.5c0.2-0.2,0.3-0.4,0.5-0.7c6.1-4.3,11.8-9,17-14.4
			c1.2-1.3,2.9-3.8,4.7-1.9c1.6,1.7-0.5,3.5-2.1,4.8c-2.4,2-4.7,4.1-7.2,6.3c3.6,1.4,3.6,1.4,9.4-5.2c0,6.4,2.5,11.7,0.6,17.5
			c-0.8,2.6,1.1,5,1.4,7.6c0.1,1,0.8,0.8,1.3,0.1c1-1.4,2-1.2,2.3,0.4c0.5,2.2,1.7,3.9,3.3,5.4c1.5,1.3,0.7,2.3-0.4,3.3
			c-4.3,3.8-5.2,8.4-3.1,13.7c1.7-0.4,2.6-2.6,4.6-2.4c0,8.4,0.1,16.8-0.1,25.1c-0.1,2.4-3.4,3.8-2.8,6.6c-0.6,1-0.9,2.3-1.7,2.9
			c-6.8,5.3-12.6,11.5-17.8,18.4c-0.5-3.4,2.9-6.4,1-9.9c-3.4,1.1-6.5,2.2-8.1,6.2c-1.3,3.2-4.7,4.6-8.3,4.5
			c-4.1-0.1-7.3-2.1-10.2-4.6c-3.1-2.6-6.3-5.3-10.1-6.2c-4-0.9-6.6-3.2-9.6-5.6c-4.3-3.5-8.5-7.6-14.4-8.7l0,0
			c0.5-1.2-0.1-1.3-1.1-1.1l0.1,0.1c0.4-1.8-0.9-1.8-2.1-2.1l0.1,0.1c-0.4-0.9-1.1-1.3-2-1.1l0.1,0.1c0-0.7-0.4-1-1.1-1
			c-4.1-3.4-7.5-7.4-10.7-11.7c-1.2-1.7-1.8-4.4-4.5-3.8c-2.5,0.6-3.5,2.8-3.8,5.3c-0.9,0.3-1.9,1.1-2.7,0.9
			c-7.7-1.5-12,3.3-16.2,8.4c-1.2-0.6-2.2-1.5-2.5-2.9c-0.5-2.2-1.6-1.9-3.2-1c-12.2,6.8-23,15.4-32.9,25.3
			c-3.2,3.2-4.7,6.7-4.2,11.1c-5.1,3.2-5.7,8.2-4.9,13.5c0.3,2.1,1.1,4.1,1.7,6.2c-1.1,0.6-2.2,1.3-3.3,1.9c-1,0.5-2.4,0.8-2.2,2.2
			c0.2,1.3,1.7,1.3,2.7,1.6c-1.5,7.5-2.9,15-4.4,22.5c-0.4,2-1.3,3.9-3.9,3.6c-2.7-0.3-2.9-2.4-3-4.4c-0.3-5.2,1.4-10.2,2.7-15.1
			c0.6-2.2,0.4-3.4-2.1-3.9c-1.2-0.3-2.3-1.2-3.3-2.1c-4.5-3.7-4.6-3.6-7.1,2.1c-3.1,7-6.9,13.6-13.3,18.2
			c-2.5-4.3-6.3-7.1-10.9-8.8c-2.4-2-4.9-3.9-7.3-5.9c-1.4-1.2-2.4-2.1-4.7-1.4c-5.5,1.6-8.2-0.6-8-6.5c0.1-3.6-2.5-4.7-4.5-5.8
			c-2.2-1.2-2.6,1.8-3.7,3c-1.7,2-3.2,4.3-4.8,6.4c-2.3-0.6-4.1-0.2-4.8,2.4c-3.7,0.2-5.1-2.6-6.5-5.7c-2.7,4.4-5.7,7.7-4.6,13.3
			c1.5,7.2-4.3,11.9-8.1,17c-2.3,3.1-2.5,4.8,0.5,7.2c4.7,3.7,9.4,7.5,13.6,11.7c8,8,10.9,18.5,13.3,29.1c4.8,21.1,9.2,42.2,9.1,64
			c-0.1,15.8-1.3,31.5-2.5,47.2c-0.4,5.7-5.5,9.5-11.3,8.4c-3.3-0.6-3.4,0.7-3.9,3.2c-1.2,7.1,0,14.8-5.5,20.7
			c-0.8,0.9-1.4,2.3-2.3,2.6c-9.4,2.3-12.2,12.1-19.1,17.1c-5.6,4.1-11.6,6.5-18.4,8.1c-15.6,3.7-24.2-6-32.1-16.4
			c-10-13.3-16.1-29-23.8-43.7c-2-3.8-4.8-6.1-9-6.9c-6.8-12.2-13.7-24.4-25.6-32.5c-5.3-3.6-9.9-8-14.9-11.9c0-0.8,0.2-1.7-1.1-1.5
			l0.1,0.1c-0.1-7.3-3.2-11.5-9.9-13.6c-2-0.6-3.1,0.4-4.3,1.6c-4.4-2.1-8-1.1-10.9,2.8c-1.5,2-3.4,3.1-6,2.7
			c-5.4-0.8-10.9-0.3-16.3,0.2c-5.1-1.4-10-3.5-15.3-4c-1.6-0.1-3.4-0.8-4.5-1.9c-9.2-8.9-19.9-16.6-24.9-29.2
			c-1.3-3.4-1.2-6.8-2.1-10.1c1.5-5.9,2.9-11.8,4.4-17.7c3.1-9.9,6.2-19.9,9.3-29.8c6,2,11.1,5.8,16.5,8.9c2.1,1.2,4.3,2.4,6.6,3.4
			c5.8,2.6,8.5,0.9,9.1-5.6c1.2-0.3,2.3-0.9,3.6,0.1c3.2,2.4,6.1,1.3,8.5-1.5c1.2,0.9,2.3,1.9,3.5,2.8c3.4,2.6,6.9,2.6,9.8-0.6
			c2.9-3.2,2.7-6.8-0.2-9.8c-4.5-4.7-9.1-9.2-13.7-13.8c-7.7-7.8-14.5-16.4-20.8-25.5c-1.9-2.7-1.6-4.5,0.5-6.8
			c5.2-6,10.1-12.3,15.3-18.4c3-3.6,3.6-8.6,7-11.9c0.4-0.4,1.1-0.6,1.6-1c0.4-0.5,0.7-1,1.1-1.6c0,0-0.1,0.1-0.1,0.1
			c4.6,0.9,8-2.8,12.1-3.5c7-1.2,13.3-2.8,20.1-5.9c17.7-8.2,36.3-14.5,55.9-16.8c2.7-0.3,4.8-1.1,6.5-3.7c2.8-4.3,8.5-6,12.2-3.1
			c4.7,3.7,8.4,1.8,12.4-0.3c6.9,1.5,14.1,1.1,20.8,4.1c2.5,1.2,5.5,0.5,8.1-1.1c3.3,6.4,7.9,9.5,15.7,10.8
			c10.4,1.7,10.2-9.1,17.6-10.4C886.2,594.8,882.7,593.7,880,591.7z M1052.1,580.1c-3.3,0.6-4.4,3.3-5.2,6.2
			C1048.6,584.2,1050.3,582.1,1052.1,580.1c0-0.2,0.1-0.2,0.2-0.3c0,0,0-0.1,0-0.2C1052.2,579.7,1052.2,579.9,1052.1,580.1z
			 M882.6,759.4c-7.7,9.5-15,18.6-22.3,27.8c6.1-4,11.7-8.4,17.6-12.5C885.6,769.2,885.7,769.3,882.6,759.4z M841.6,604
			c-4.1,0.2-8.6-0.3-7.6,6.2c0.2,1.3-1.1,2.3-2.1,3.2c-0.6,0.5-1.3,0.9-0.9,2c0.9,2.2,8.5,3.7,9.9,1.9c1.7-2.2,3.5-4.5,4.8-6.9
			C848.2,605.6,847,603.8,841.6,604z M860.7,746.8c1.5-1.1,2.9-2.2,4.4-3.2c1.6-1.1,3.3-2.3,5-3.3c7-3.9,7-3.9,1-9.2
			c-0.6-0.5-1.2-0.9-2.5-1.9C868.7,736.7,863.2,740.8,860.7,746.8z M676.7,771.3c6.2,8,15.3,8.6,23.9,10.5c1,0.2,2.7,0.6,2.2-1.4
			c-0.3-1.1-0.6-1.9-2.4-1.7c-10.9,0.9-12.6-0.2-16.2-9.6C682,770.4,679.5,770.9,676.7,771.3z M863.9,675.8c4.7-1.1,8.2-2.2,8.2-7.6
			c0-2.3,1.6-4.7,2.5-7c1.4-3.5,2.7-7,4.1-10.6c-0.3-0.1-0.6-0.2-0.8-0.4C873.3,658.7,868.8,667,863.9,675.8z M825.3,638.5
			c-1.4-2.2-3.5-3.7-5.9-4.3c-2.6-0.7-1.5,1.9-2,3c-0.4,0.9-0.6,1.9-0.9,2.8c-0.7,2.3-3.4,5.6-2,6.5c2.9,1.8,4.4-2.3,6.5-3.8
			C822.7,641.7,824.5,640.6,825.3,638.5z M857.8,659.2c2.5-4.4,5-8.6,7.5-12.8c0.6-1,1.2-2.2-0.2-3c-1.3-0.7-1.6,0.7-2.1,1.4
			c-2.1,3.1-4.1,6.3-6.3,9.4C855.4,656.2,856,657.5,857.8,659.2z M934.5,657.6c1,3.9,3.1,6,5,8.2c0.8,0.8,1.6,3.4,3.3,1.2
			c1-1.3,3-3.3,0-4.9C940.2,660.7,937.7,659.3,934.5,657.6z M860.4,860.3c-2.9,3.3-8.7,5.3-5.3,11.7
			C858.7,868.6,859.4,864.3,860.4,860.3z M1117.4,571.1c0.3-2.8,0.5-5,0.8-7.7C1115,565.8,1112.4,567.8,1117.4,571.1z M887.2,607.6
			c-2.5,2.5-4.7,4.7-6.9,6.9C883.2,613.1,886.6,612.2,887.2,607.6z M917.1,631.5c2.2-1.2,3.6-2.7,4.2-4.8c0.1-0.2-0.7-0.9-1-0.9
			c-2.5,0.5-2.2,3.2-3.4,4.7C916.9,630.6,917,630.8,917.1,631.5z M858.6,747.8l0,0.4l-0.1,0L858.6,747.8z"/>
		<path class="sworld1" d="M820,273.7c3.2-2.8,2.8-6.4,2.3-10.1c-2.4-17.4-5-34.8-5.9-52.5c-0.1-1.7-0.1-3.3-0.2-5
			c-0.1-2.8,0.4-4.3,3.6-2.1c10.2,6.8,21.5,9.7,33.7,10.4c8.8,0.4,17.8,0.8,26-0.9c15.2-3.1,30.4-6.7,45.1-11.8
			c1.1-0.4,2.2-0.5,3.4-0.8c1.1,1.5,2.2,3.1,3.4,4.9c0.3-2.2,0.4-4-0.1-5.8c12.5-4.9,25.6-8.3,37.8-13.8c2.7-1.2,5.5-2.4,8.2-3.6
			c3.7,3.1,4.8,7.2,4.8,12c0.2,15.6,2.9,31,4.4,46.5c1.1,11.1,1.8,22.2,2.4,33.4c0.2,3.8,0.8,7.5,1.6,11.3c1.3,6,0.8,11.5-4.9,15.6
			c-3.9,2.8-3.5,7.9-6.1,11.6c-5.2,7.7-11.1,13.6-20.2,17.1c-9,3.5-18.1,6.2-27.5,7.7c-6.2,1-12.6,0.4-18.9,0.2
			c-3.1-0.1-6,0.3-8.6,1.9c-2.9,1.8-5.5,1.1-8.3-0.3c-5.2-2.5-10-5.8-15.8-7c-0.5-0.1-1-0.6-1.3-0.4c-9.2,2.9-15.4-3.5-22.5-7.1
			c-8.6-4.4-16.2-10.4-23-17.2c-6.9-7-9.5-15.9-11.4-25.4C821.4,279.6,822.2,276.2,820,273.7z"/>
		<path class="sworld1" d="M993.2,1111.1c-9.7,2.2-19.6,1.7-29.5,1.5c-1.4-4.4,2-8.1,2.4-12.9c-8.9,5.7-17.5,10.4-27.4,12
			c-13.8,0.3-27.5-1.1-41.2-2.4c-0.1-0.5-0.4-1-0.4-1.4c0.1-3.8-0.7-5.4-5.1-3.5c-5,2.2-10-0.8-11.8-6.6c-0.7-2.3-1.3-2.9-3.7-2.1
			c-3,1-6,0.2-8.2-2c-1.3-1.3-2.8-1.7-4.4-1.9c0-3.8,0.4-7.7-0.1-11.4c-0.8-6.3,2.2-10.6,5.9-15.3c12.2-15.3,27.7-25.4,46-31.6
			c-1.2,7.7-7,13.3-10.5,21.1c5.8-5,10.9-9.2,15.8-13.5c3.8-3.3,7.9-5.2,12.6-2.5c4.9,2.8,5.1,7.3,3.8,12.2c-0.1,0.4-0.4,1-0.3,1
			c0.5,0.3,0.7-0.1,0.8-0.5c8.1-5.4,16.1-10.9,24.2-16.3c2.8-0.2,5.7-0.5,8.5-0.7c3.2,3.6,6.6,3.3,10.4,0.8c2.9-1.9,6.1-3.2,9.2-4.8
			c14.9-2.2,29.9-3.7,44.5-7.8c3.9,4.8,3.9,7-0.3,13.6c6.6,3.4,7.7,6,5.3,11.9c-0.1,0.3-0.3,0.7-0.4,1c0.4,0,0.8-0.1,1.2-0.1
			c4.2-0.7,8.1-2.8,12.6-2.8c2.8,0,5.3,0,7,2.7c1.8,2.8,0.9,5.4-0.8,7.8c-0.6,0.9-1.2,2-2.4,4.2c10.3-2.4,19.4-5.7,29.6-6.4
			c-2.7,6.2-6,11.9-7.2,18.1c-1.7,8.9-6.5,16.5-9.7,24.7c-11.8,3.7-23.8,6.3-36,8.4c-0.3-1.8-0.1-3.6-3.2-2.9
			c-7.6,1.6-15.5,2.1-23.2,1.4C1000.6,1103.3,995.9,1105,993.2,1111.1z M1014,1053c-5.3,0.9-10.1,3.3-14.9,5.6
			C1004.9,1059,1009.3,1055.6,1014,1053c0.2-0.1,0.4-0.2,0.6-0.4c0,0.1-0.1,0.2-0.1,0.3C1014.3,1053,1014.1,1053,1014,1053z
			 M1012.3,1034.9c-4.5,0.4-8.8,2.3-13.4,4.6C1003.9,1038.4,1008.4,1037.2,1012.3,1034.9z M996.1,1059.6l-0.4-0.1l0.4-0.1
			L996.1,1059.6z M1056.5,1060c-0.1,0.1-0.3,0.2-0.3,0.3c0,0.2,0.2,0.4,0.3,0.6c0.1-0.1,0.3-0.2,0.3-0.3
			C1056.7,1060.4,1056.6,1060.2,1056.5,1060z"/>
		<path class="sworld0" d="M1184.1,286.1c-7.1,9.3-17.1,15.6-25.7,23.1c-8.6,7.5-18,14.2-26.3,22.2c-7,6.8-15,12.4-21.9,19.2
			c-5.6,5.5-11.6,10.6-17.3,16c-7.4,7.1-15.5,13.6-22.9,20.7c-12.1,11.7-24.1,23.4-36.5,34.8c-6.1,5.6-13.1,10.2-19.3,15.7
			c-7.4,6.6-15.5,12.2-23.8,17.4c-10.9,6.9-23.3,11.9-36.3,7.5c-11.2-3.9-23.1-4.1-34.2-8.4c-6-2.3-13.5-2.1-20.2-3.9
			c-8.3-2.2-15.8-6.4-23.7-9.5c-9.1-3.6-17.7-8.1-26.8-11.8c-7.9-3.2-15.6-6.7-23.3-10.4c-11.2-5.4-23.2-8.6-35.2-11.8
			c-14.2-3.8-28.7-6.6-41.7-14c-9.6-5.5-19.5-10.6-29.7-14.9c-5.6-2.3-11.7-4.7-18.2-4c-0.8,0.1-1.9,0.2-2.4-0.2
			c-1.7-1.4-6-0.5-5.4-3.5c0.5-2.5,3.7-0.3,5.6-0.3c12.7,0,23.8,4.9,34.7,10.6c16.7,8.9,34.1,15.5,52.6,19.6c10.5,2.3,20.8,5.5,31,9
			c14.5,4.9,27.5,13,41.9,18c12.5,4.4,24.2,10.5,36.3,15.6c7.8,3.3,16,3.7,24,4.9c5.8,0.9,11,3.4,16.7,4.6c2.7,0.6,5.5-0.3,8.3,0.9
			c1.9,0.9,1.4-1.5,1.6-2.7c0.3-2.1,1-3.3,3.2-1.6c2.9,2.2,5.1,5.3,9.5,5.4c8.3,0.2,15.6-2.5,22.5-6.7c12.3-7.5,23-17.1,34.5-25.8
			c6.4-4.9,11.6-11.3,17.9-16.5c6.8-5.6,12.3-12.7,19.5-17.9c3.6-2.6,6.3-6.4,9.5-9.5c15.8-15.4,32.3-29.8,49-44.2
			c6.9-6,13.6-12.4,20.1-19c7.5-7.6,16.5-13.7,25-20.3c2.9-2.3,5.9-4.6,9-6.7c2.1-1.4,4.3-2.2,5.9-1.3c4.3,2.2,7.8,0.8,11.5-1
			C1183.5,285.6,1183.8,285.8,1184.1,286.1z"/>
		<path class="sworld0" d="M1034.8,1022.3c-14.6,4.1-29.6,5.5-44.5,7.8c-6.9-0.4-12.8,3.6-19.5,4.1c-2.8,0.2-5.7,0.5-8.5,0.7
			c-2.6-0.8-5.2-2.4-8.1-1.1c-9.3,4-18.5,2.7-27.5-1c-3.8-1.5-7.4-1.6-10.9,0.7c-18.3,6.3-33.8,16.3-46,31.6
			c-3.7,4.7-6.7,9-5.9,15.3c0.5,3.7,0.1,7.6,0.1,11.4c-4.4,3.4-5.2-0.6-5.8-3.3c-0.8-3.4-0.8-6.9-1.1-10.5
			c-5.1,0.5-9.6,1.5-11.3,7.3c-0.4,1.3-1.9,3.3-3.8,2c-1.8-1.3-1.1-3.3-0.1-4.9c2.1-3,4.3-5.8,6.5-8.7c0.4-0.3,0.7-0.7,1.1-1
			c1.5-0.9,3.1-1.9,4.7-2.7c3-1.6,3.2-1.9,2.2-6.3c-3,2.5-6.1,4.5-7.6,8.2c-0.3,0.4-0.5,0.8-0.8,1.2c-4.1-2.4-1.5-6.3-0.4-7.8
			c4.8-6.5,10.4-12.5,15.8-18.6c1-1.1,2.5-1,3.6,0c1.4,1.1,1.2,2.6,0.6,4.1c-0.9,2.4-3.7,4-2.6,7.8c9.1-10.7,18.9-19.9,31.2-26.1
			c0.3-0.2,0.6-0.3,0.8-0.5c0,0-0.1,0-0.1,0c0.6,0,1.2-0.1,1.2-0.9c0,0-0.1,0.1-0.1,0.1c4.3-0.7,8.1-2.6,11.5-5.2
			c7.7-4.7,15.5-4.9,23.9-1.7c5.7,2.2,11.6,2.4,17.4-0.7c5.7-3,12.3-1.9,18.5-3.2c8.6-1.8,17-4.4,25.9-4.7c12.5-0.4,24.7-3.4,36.9-6
			c4.8-1,9.6-1.1,14.3,0.6c7.3,2.6,14.5,3.2,22,1.2c4.2-1.1,8.2-0.2,10.7,3.5c2.3,3.4,1.8,7.3,0,10.9c-1.6,3.3-4.8,3.8-7.9,4.5
			c-2.6,0.6-5.8,0.6-7.1,4.3c5.8,1,11.3,0.3,16.6-1.2c7.2-2.1,14.2-3,21.5-0.3c4.2,1.6,8.2,0.4,11.8-2.2c1.5-1.1,3.1-2,4.5-3.2
			c14.3-12.9,31.3-12.4,48.6-9.7c10,1.6,16.8,9.1,24.2,15.2c1,0.8,1.8,2.1,1.2,3.6c-0.7,1.6-2.1,2.1-3.6,2.1
			c-3.5,0.1-6.7-1.4-9.1-3.7c-10.9-10.3-24.1-10-37.6-8.9c-5.3,0.4-9.9,2.6-14.2,5.7c-3.1,2.3-6.2,4.5-9.4,6.7
			c-6.4,4.4-13.4,4.9-20.5,2.2c-3.8-1.4-7.4-1.7-11.2-0.5c-7.9,2.4-16,3-24.2,2.7c-6.9-0.3-8.9-2.7-7.5-9.5c0.6-3.2,2.4-5.8,5.5-9
			C1051.1,1025.9,1043.4,1020.7,1034.8,1022.3z"/>
		<path class="sworld1" d="M993.1,169.9c-9.6,5.7-20.4,8-30.8,11.2c-24.1,7.4-48.3,14.7-72.9,20.3c-1,0.2-2,0.3-2.9,0.4
			c2.4-3.1,5.2-6,6.8-9.7c0.4-0.2,0.9-0.5,0.5-1c-0.1-0.1-0.7,0.2-1.1,0.3c-1,0.3-2.1,0.7-3.1,1c-0.2-0.3-0.4-0.5-0.7-0.7
			c13.1-14.4,27.7-27.2,41.9-40.6c10.8-10.1,21.8-20.1,32.9-29.8c2.6-2.2,3.2-6.6,7.9-6.6c9.2,0.1,18.8-1.8,27.2,3.5
			c4.7,3,7.6,7.9,7.4,13.9c-0.1,3.8-0.5,7.4,1.9,10.9c2,2.9,0.2,5.6-2,8c-4.7,5-9.2,10.2-12.2,16.4
			C993.5,168.3,993.4,169.1,993.1,169.9z M944.8,163.1c2.7-0.4,4.8-2,6.7-3.9c5.5-5.4,10.8-10.9,16.3-16.2
			c6.6-6.4,14.2-11.6,21.6-16.9c1.7-1.2,3.1-2.7,1.9-5c-1.3-2.4-3.3-2.6-5.5-1.5c-0.9,0.4-1.8,0.8-2.7,1.3
			c-11.6,6.5-21.8,14.7-30.6,24.6c-3.7,4.2-7.3,8.7-9.9,13.8C941.4,161.8,941.7,163.1,944.8,163.1z M935.4,165.6
			c-4.1,3.4-7.9,5.5-10.7,8.8c-2.2,2.6-2.4,5.3,0.8,7.1c2.5,1.4,5.2,0.8,7.3-1.3c2.1-2,4.4-4.5,2.7-7.3
			C934.1,170.6,934.3,168.7,935.4,165.6z"/>
		<path class="sworld0" d="M1127.6,645.4c5.2-6.9,11-13.1,17.8-18.4c0.8-0.7,1.1-1.9,1.7-2.9c6.3-5.6,12.9-11.1,16.9-18.8
			c5-9.5,4.9-20.6,9.2-30.3c2.7-6.1,5.9-11.9,8.5-18c1.3-3.1,3.6-1.1,4.4-0.7c4.4,2.8,9.1,2.9,13.9,2.7c6.2-0.2,10.2,4.1,14.7,7.4
			c5.8,4.4,12.1,7.8,18.6,10.9c3.2,1.5,7.3,3.6,6.6,8.7c0,0.3-0.1,0.8,0,1c6.6,6.4,8,17,17.2,21.2c0.9,0.4,1.3,1.7,2.9,1.2
			c5.2-1.5,5.9,1.7,5.6,5.8c0,0,0.1-0.1,0.1-0.1c-4.4,0.7-5.7,2.5-5.2,7.5c1.2,11.7,3.6,23.5,0.2,35.2c-0.9,3.2-1.4,6.5-4.5,9.3
			c0-1.4-0.2-2.5,0-3.4c3-9.6,1.5-19.1,0-28.7c-0.8-5.4-1.5-10.9,0.4-16.3c0.5-1.6,0.9-3.1-1.1-4.3c-9.3-5-15-12.7-16.8-23.2
			c-1.7,0.3-2.1,1.5-2.7,2.5c-1.1,1.8-2.5,3.4-4.8,2.2c-2.1-1.1-2.4-3.7-1.3-5.3c4.1-5.5,0.2-7.1-3.8-9.1
			c-8.5-4.3-16.4-9.6-21.9-17.6c-2.2-3.1-5.5-2.8-8.6-2.9c-3.8-0.1-7.6-0.1-10.6-3.2c-4.5,12-8.9,23.7-10.3,36.2
			c-1,8.7-4.4,16.3-10.2,22.9c-6.3,7.1-12.8,14-20.8,19.3c-3.6,2.4-6,5.6-8,9.4c-3.6,6.9-7.1,13.9-10.9,20.7
			c-2.5,4.5-7.3,5.3-11.4,2.3c-5.9-4.4-12-8.3-18.3-12.1c-18-10.6-32.8-25-46.3-40.6c-2.6-3-4.8-6.4-6.1-10.2
			c0.3-2.5,1.3-4.7,3.8-5.3c2.7-0.6,3.3,2.1,4.5,3.8c3.1,4.3,6.6,8.3,10.7,11.7c0.4,0.3,0.7,0.7,1.1,1c0,0-0.1-0.1-0.1-0.1
			c0.5,0.7,0.9,1.5,2,1.1c0,0-0.1-0.1-0.1-0.1c-0.2,1.6,0.8,1.9,2.1,2.1l-0.1-0.1c-0.1,0.8,0.2,1.2,1.1,1.1c0,0,0,0,0,0
			c0.2,0.4,0.3,0.9,0.6,1.3c14.1,14.9,32,24.5,48.7,35.9c1.4,0.9,2,0.5,2.8-0.6C1122.7,653.6,1125.8,649.9,1127.6,645.4z"/>
		<path class="sworld0" d="M741,809.6c5,3.9,9.6,8.3,14.9,11.9c11.9,8.2,18.7,20.4,25.6,32.5c8.6,17.1,17.3,34.2,28.5,49.7
			c3.4,4.7,6.9,9.4,11.1,13.5c6.1,5.9,13.2,9.1,21.6,11.4c10.6,2.9,17.9,0.7,26-6c9.4-7.8,20.9-12.7,31-19.8
			c14.3-10.1,20.2-23.6,21.3-40.2c0.7-10.7,0.7-21.2-0.8-31.9c-1.8-12.5-1.1-25.3-2.2-37.9c-0.1-1.6-0.1-3.3,1.2-4.7
			c1.9,1.7,1.9,3.9,1.9,6c0.9,20.3,5.4,40.3,4.9,60.7c-0.2,9.4-2.1,18.5-4.3,27.6c-1.7,6.9-6,12.3-11.5,16.5
			c-10.5,8.1-19.9,17.8-32.7,22.5c-4.4,1.6-6.9,5.7-9.3,9.5c-5.4,8.7-12.4,10-22.5,8.7c-21.2-2.8-34-15.5-45.2-31.9
			c-10.1-15-18.2-31-25.8-47.3c-6.9-14.7-14.6-28.7-28-38.9c-5.1-3.8-8.4-9.7-13.6-13.7c2.6-2.2,4.6,0.9,6.8,0.1l-0.1-0.1
			C739.6,809,740.5,809.2,741,809.6z"/>
		<path class="sworld1" d="M1015.1,152c-0.5,3.9-1.7,7.8,0.3,11.7c1.2,2.3,2.9,4.1,5.5,3.1c4-1.7,3.6,1.3,3.8,3.3
			c1.4,16.7,2.9,33.4,4.1,50.1c0.9,12.6,1.3,25.2,2.2,37.8c0.5,7-2.2,13.3-4.1,19.8c-0.3,1.1-0.8,2.2-2.4,2
			c-0.5-1.1-1.5-1.1-2.5-1.1c-8.2-0.7-12.1-4.6-12.7-12.5c-2.2-27.3-1.8-54.6-2.3-82c-0.1-6.9-1.5-13.8-2.7-20.6
			C1003.3,158.5,1007.9,153.2,1015.1,152z"/>
		<path class="sworld1" d="M758.2,515c5.3,2.7,10.5,5.4,15.8,8.1c0.2,2.3,0.3,4.5-0.6,6.7c-2.3,0.3-4.5,0.7-6.6,3.2c2.3,0,4.1,0,5.9,0
			c-0.3,7.9-4.7,11.5-13.7,11.1c0.1-2.2,2.8-3.6,2.4-6.4c-3.1,1.4-4.3,4.1-5.8,6.3c-2.3,3.2-2.6,7.6-6,10.1
			c-2.1,0.5-4.9-2.3-6.3,1.5c-3,8.3-8.4,15.1-13.4,22.2c-2.8,0.9-5.6,1.9-8.4,2.8c-4-1.9-6.7-5-8.9-8.7c2.5-10.5-2.5-18.6-8.2-26.5
			c0.4-3.3,1.8-6,4.3-8.2l0.1,0c2.4-0.5,5.4-1.4,7.2,0.2c3.1,2.6,5.7,1.7,8.8,0.6c9-3.2,9-3.2,5.2-11.8c1.5-0.9,3.3-1.7,4.4-2.9
			c2.3-2.4,2.7-4.6-1.5-5.4c2.9-2.9,6.1-2.4,10-1.8C747.8,516.8,753.3,517.8,758.2,515z M761.3,536.7c0.1,0.1,0.2,0.3,0.3,0.3
			c0.1,0,0.2-0.2,0.3-0.3c-0.2-0.1-0.3-0.2-0.5-0.3C761.4,536.5,761.3,536.6,761.3,536.7z"/>
		<path class="sworld1" d="M1031,23.3c1.2-4.9,4.4-10.1,7.7-15.1c8.9-13.3,18.1-26.4,27.2-39.6c4-5.8,7.6-11.9,11.9-17.5
			c2.2-2.8,4.8-7,9.2-4.8c7.6,3.8,9.4,8.2,7,14.1c-7,17.3-17.9,32.3-27.9,47.8c-4.7,7.4-9.6,14.6-14.4,21.9
			c-2.7,4.2-8.3,6.8-12.3,5.6C1034.3,34.2,1031,29.8,1031,23.3z"/>
		<path class="sworld1" d="M822.4,187.2c1.7-1.4,3.3-2.9-0.5-3.6c0.4-6.6,5.5-10,9.8-13.7c13.7-12.1,27.9-23.5,45.1-30.6
			c4.9-2,9.7-4.1,15.3-5.3c-0.6,2.6-2.4,3.9-3.8,5.4c-7.2,7.6-14.6,15-21.7,22.6c-5.8,6.2-11.8,12.6-16.7,19.7
			c-0.5,0.7-0.9,1.4-1.2,2.2c-1.6,3-1,5.7,1.6,7.5c2.8,2,5.2,0.1,6.8-2.1c4.3-6,9.8-10.8,14.6-16.4c1.3-1.5,2.6-2.4,4.7-2.2
			c5.7,0.5,11.3,0,17-0.7c0.4,2.1-1.4,2.6-2.3,3.5c-7.3,7.3-14.8,14.3-20.9,22.7c-1.8,2.5-4,5.1-2.8,8.6c-2.3,0-4.6,0.1-6.9,0.1
			c-2.3-2.4-5.2-1.2-7.8-1.1c-2.8,0.1-5.9-0.1-7.4-2c-3.7-4.9-8.3-4.4-13.2-3.6C827,196,824.3,192,822.4,187.2z"/>
		<path class="sworld1" d="M906.3-38.5c0-9.3,0.5-18.6-0.2-27.8c-0.6-8-1.3-16.1-1.9-24.1c-0.3-4,0.5-7.5,5.3-8.7
			c5.3-1.3,8.8-0.1,11.4,4.3c6.4,10.6,7,22.6,7.2,34.4c0.2,14.4,0.2,28.8-0.3,43.1c-0.2,6.8-1,13.6-7.4,18.4c-4,3-7.1,1.6-9.4-0.9
			c-3.2-3.6-5.6-8.3-4.9-13.4C907.2-21.6,906.4-30.1,906.3-38.5z"/>
		<path class="sworld1" d="M823.7,56.6c-5.3-3.8-11.8-3.2-17.7-4.8c0.3-2.8-1.5-4.6-2.8-6.7C797,35,791.6,24.4,786,13.8
			c-3.4-6.5-6.8-13-11.4-18.9c-3-3.9-3.3-8.7-0.8-11.2c2.4-2.5,7.1-1.9,11.1,1.8c7.6,6.9,13.2,15.3,18.2,24.1
			c3.9,6.8,7.2,14.2,12,20.4c4,5.2,7.8,10.3,10,16.5C826.5,50.3,826.4,53.6,823.7,56.6z"/>
		<path class="sworld0" d="M987.3,756.4c9.4-4.8,19.3-0.8,21.7,9.3c2.6,10.9,2.8,22.1-0.7,33c-2.3,7.1-4.8,14.2-7.5,21.1
			c-2.8,7.1-8.3,12.4-13.9,17.3c-2.7,2.3-6.3,2.1-9.5,1c-6.2-2.2-11.9-10.4-12.1-17c-0.1-3.5,0-7.1,1.2-10.4
			c4.4-12.8,5.8-25.9,5.5-39.3c-0.1-3.2,0.3-6.3,2.5-8.9c0.9-1.1,1.8-2,3.4-1.6c1.9,0.4,1.4,1.9,1.4,3.2c-0.3,16.9,0.8,34-5.3,50.3
			c-2.3,6.1-0.3,11.3,4.9,15.5c2.3,1.8,4.3,2,6.1,0c4.1-4.5,8.8-8.5,10.5-14.9c1.3-4.8,2.9-9.6,5.1-14c4.5-9.3,3.7-19.1,3.2-28.9
			c-0.3-6.6-3.7-11.2-10.3-13.2C991.4,758.2,989.5,757.3,987.3,756.4z"/>
		<path class="sworld0" d="M708.6,537.1C708.6,537.1,708.5,537.1,708.6,537.1c-3,0.7-7-0.1-8.3,2.6c-0.9,1.8,2.2,4,4,5.6
			c5.7,7.9,10.7,16,8.2,26.5c-0.8,1.9-3.9,3.4-1.4,5.8c2.8,2.7,5.9,5.3,10.3,2.9c2.8-0.9,5.6-1.9,8.4-2.8c2.3-0.2,4.6-0.4,6.9-0.5
			c1.3-0.1,3,0.1,3-1.7c0.2-8.6,6.3-14.4,9.8-21.4c3.4-2.5,3.7-6.9,6-10.1c1.6-2.2,2.7-4.9,5.8-6.3c0.4,2.9-2.3,4.2-2.4,6.4
			c-2.8,5.3-5.6,10.6-8.3,16c-0.9,1.8-2.2,3.7-1.7,6c0,0,0.1-0.1,0.1-0.1c-3.5,2.5-1.2,6.4-2,9.6c-1.9,7.2-2.8,8.5-10.2,8.5
			c-5.3,0-10.2,1.3-14.7,3.9c-1.9,1.1-3.7,1.8-5.9-0.1c-2-1.8-4.7-2.8-6.8-4.4c-5.5-4.2-5.7-5.5-2.5-11.5c1.2-2.2,1.3-4.2,0.5-6.9
			c-2.2-7.4-5.7-13.8-11.6-18.8c-2.8-2.4-4-5.3-3.9-9.1c0.1-3.3,2.1-5.9,4.4-5.6c7.8,0.9,10.1-4.8,13.1-9.6c1-1.6,2-1.9,3.6-1.7
			c6.8,0.6,13.5,0.2,19.9-2.3c4.2,0.8,3.7,3,1.5,5.4c-1.2,1.2-2.9,1.9-4.4,2.9c-2.1,0.3-4.2,1-6.3,0.9c-5.7-0.2-11.1-0.3-12.3,7.3
			C711.1,535.3,709.6,536.1,708.6,537.1z"/>
		<path class="sworld1" d="M951,119c-7.8,6.9-15.6,13.8-23.4,20.8c-3.2,2.9-7,5.4-9.6,8.7c-8.7,11.4-21.6,10.5-33.8,12.7
			c0.1-2.7,2.2-3.6,3.4-5.1c4.9-5.6,10-11.2,15-16.8c1.2-1.4,2.7-2.9,2.3-4.8c-0.7-4.2,1.7-5.3,5.1-6.1
			C923.7,125.4,937.4,122.2,951,119L951,119z"/>
		<path class="sworld0" d="M1286.3,565.5c3.1,8.9-0.1,16.5-4.6,23.9c-6.1,10-12.1,19.9-11.8,32.3c0,1.3-0.3,3-2,2.8
			c-1.5-0.1-1.6-1.8-1.8-3.2c-0.3-2.1,0.9-4.2-0.2-6.3c0,0-0.1,0.1-0.1,0.1c2.6-4,2.4-9,4.4-13.3c3.8-8.3,8.1-16.4,10.4-25.4
			c1-4.2,0.3-7-2.1-9.9c-2.3-2.8-4.9-5.3-7.4-8c-1.8-1.9-3.5-4.1-0.9-6.3c2-1.7,5-2.8,7.2-1.1c7.2,5.4,15.1,8.5,24.2,7.9
			c3.9-0.3,5.8,1.3,6.2,5.3c0.5,5.2,4.3,8.9,7,13c2.3,3.5,3.7,7,3.2,11.2c-0.1,0.9,0.4,2.1-1.1,2.3c-0.8,0.1-1.4-0.3-2-1
			c-5.3-6.6-11.5-12.7-13.9-21.2c-0.5-1.8-1.4-2.3-3.1-2.5c-3.6-0.3-7.2-0.8-10.9-1.3c-0.2-0.2-0.5-0.6-0.7-0.5
			C1285.8,564.6,1286.1,565.1,1286.3,565.5z"/>
		<path class="sworld0" d="M998.6,316.2c-1.7,6.2-6.7,9.6-11.4,12.6c-7.1,4.6-14.4,8.8-22.1,12.2c-4.8,2.1-10.1,3.7-15.2,5.2
			c-18.4,5.4-37.1,1.9-55.6,2.5c-6.9,0.2-13.9-1.7-20.8-3.1c-4.3-0.9-8.7-1.4-13.1-2.7c-6.7-2.1-12.2-5.8-17.3-10.3
			c-1.4-1.2-2.4-2.5-2.3-4.7c3.7-0.1,5.4,3.1,8,4.6c1.4,0.8,2.3,2.1,4.3,0.8c2.3-1.5,4.3,1,5.7,2c4.7,3.6,10,4.2,15.6,5.4
			c18.3,4.1,36.8,3.6,55.2,3c12.7-0.4,24.8-4,36.7-9C977.9,329.9,988.7,324,998.6,316.2z"/>
		<path class="sworld0" d="M981.2,647.7c-0.4-4.4,1.1-7.9,4.2-11.1c9.9-9.9,20.7-18.5,32.9-25.3c1.6-0.9,2.7-1.2,3.2,1
			c0.3,1.4,1.3,2.3,2.5,2.9c5.2,6.7,10.5,13.4,15.6,20.2c4.4,5.8,4.1,9.3-1.4,14.2c-1.9,1.7-3.9,3.2-4.2,5.9
			c-0.1,0.9-0.2,1.7-1.4,1.6c-1.2-0.1-1.5-1-1.7-2.1c-0.9-4.9,1.3-8.3,5.5-10c4.2-1.7,4-3.8,1.8-6.8c-5.6-7.6-11.4-15.2-17-22.8
			c-1.2-1.7-2-1.1-3.1-0.1c-9.1,8.8-18.3,17.5-27.3,26.4c-3.8,3.8-3.6,5.4,0.9,8.9c1.5,1.1,0.5,2.4,1.1,3.4c0,0,0.1-0.1,0.1-0.1
			c-1.1-0.5-2-0.5-2.1,1l0,0C986.5,654.2,982.5,652.8,981.2,647.7z"/>
		<path class="sworld1" d="M740.5,131c-0.9-2.7-0.3-5,2.3-5.8c2.4-0.7,4.4-0.2,6.4,2.3c4.2,5.1,9.4,9.1,15,12.7
			c4.2,2.7,7.8,6.1,11.1,9.8c1.6,1.8,2.3,3.8,1.1,5.9c-1.4,2.4-3.9,3.8-6.4,2.9c-11.3-4.5-22-10-28.2-21.3
			C740.7,135.2,739.6,133.3,740.5,131z"/>
		<path class="sworld0" d="M892.1,677.2c0.7-2.6,2.5-3,4.8-2.4c4.8,4.4,10,7.6,16.7,8.1c5.5,0.5,10.9,1.4,16.3,2.1
			c4.7,1.7,8.4,4.4,10.9,8.8c1.8,5.1,3.7,10.3,5.5,15.4c0.6,1.7,1.7,3.8-0.4,4.9c-2.1,1.1-3.2-1.1-4.3-2.5
			c-2.5-3.1-3.3-6.9-4.4-10.5c-2.5-8-7.8-11.8-16.1-12.3c-5.3-0.3-10.5-1.5-15.7-2.3c-0.5-0.5-1-0.7-1.5-0.3
			c-0.1,0.1,0.1,0.7,0.2,1.1c2.9,9.5,3.2,19.7,6.9,29c0.3,0.8,0.8,2-0.5,2.5c-1.3,0.5-1.8-0.6-2.2-1.5c-1.9-4.4-3.6-8.9-4.4-13.7
			c-1.4-8.5-2.4-17.2-9.8-23.3C893.1,679.8,892.7,678.3,892.1,677.2z"/>
		<path class="sworld0" d="M692.6,801.8c5.4-0.5,10.9-1,16.3-0.2c2.6,0.4,4.5-0.7,6-2.7c2.9-3.9,6.5-4.9,10.9-2.8
			c1.2,1.4,2.6,2.5,4.3,3.2c1.9,0.8,2.6,2.4,2.8,4.3c0.1,0.8,0.1,1.8-0.7,2.2c-1,0.5-1.6-0.3-1.9-1.1c-0.4-1.5-1.6-1.7-2.8-2.4
			c-4.2-2.3-7.8-2.9-10.8,2c-1.2,2-3.7,2.8-6.2,2.6c-9.9-1.1-19.5,1.5-29.3,1.9c-6.8,0.3-13.6,1.1-20-2.4c-2-1.1-4.1-2.3-5.5-4.2
			c-1.1-1.5-2-3.6-0.5-5c1.5-1.4,2.4,0.8,3.5,1.7c3.3,2.8,7.3,4,11.5,4.2C677.8,803.3,685.3,803.3,692.6,801.8z"/>
		<path class="sworld1" d="M1072.2,91.7c0.2-1.6-0.3-3.3,1.2-4.6c6.6-5.6,12.8-11.7,21.4-14.3c2.3-0.7,5.3-1.6,6.5,0
			c1.5,1.9,1.3,5-0.2,7.5c-5.1,8.7-12.8,14.5-21.8,18.5C1075.8,100.3,1072.2,96.4,1072.2,91.7z"/>
		<path class="sworld0" d="M706.5,494.3c0.9,3.3-1.7,5.2-3.1,7.6c-3,5.2-6.8,9.9-11.9,13.1c-3.5,2.2-7.8,1.7-11.5,0.4
			c-3.1-1.1-3.2-4.5-3.3-7.6c-0.3-8.8,0.5-17.3,5.7-24.8c0.6-0.8,1.1-1.7,1.7-2.5c1.3-1.8,3.4-1.8,4.9-1.1c1.8,0.8,0.7,2.5,0.2,3.9
			c-1.7,4.5-5.2,8.2-5.6,13.5c-0.1,2-0.8,4.2-0.6,6.3c0.2,2.1-1.5,5,1.3,6.1c2.4,0.9,4-1.5,5.8-2.7c3.3-2.2,5.9-5.1,8.8-7.8
			C701.2,496.5,703.7,495,706.5,494.3z"/>
		<path class="sworld0" d="M652,792.3c-6.4,1.8-11-0.1-15.1-4.1c-5.2-5.1-8.1-11.5-8.7-18.6c-0.6-7.1-0.1-14.3,0-21.4
			c0-0.6,0.2-1.3,0.4-1.9c0.6-1.4,0.7-3.7,3-3.2c1.9,0.4,1.6,2.3,1.6,3.7c0.1,5,0,10,0.2,14.9c0.4,10.8,4,20.1,13.6,26.3
			C648.6,789.1,650,790.6,652,792.3z"/>
		<path class="sworld0" d="M959,410.6c0.1-6.1,2.6-8.9,8.3-9.3c2.2-0.2,3.3,1.6,3.9,3c0.7,1.4-1.1,2.3-2.3,2.4c-2.5,0.2-3,1.6-2.8,3.7
			c0.1,1.4,0,2.8,1.5,3.4c1.9,0.8,3.3-0.1,4.8-1.5c3.7-3.6,7.7-6.8,9.7-11.7c0.8-1.9,1.7-1.1,2.6-0.3c2.4,2,3.3,4.6,1.8,7.5
			c-3.6,6.9-8.8,11.9-16.6,13.8C964.6,422.8,958.9,417,959,410.6z"/>
		<path class="sworld0" d="M731.7,346.6c0-7.8,2.4-11.2,7-13.1c3.7-1.5,3.5,2,5.3,2.8c1,0.5-0.2,2.7-1.4,3.2c-3.6,1.4-2.9,5.2-4.3,7.7
			c-1.1,1.9,0.8,3.6,3.1,2.3c2.6-1.4,5.4-3,7.5-5c2.5-2.4,5-3.8,7.6-1.1c3.2,3.4-0.9,4.5-2.6,6.2c-2.8,2.8-6,5.3-9.9,6.4
			C734.9,358.7,731.4,355.9,731.7,346.6z"/>
		<path class="sworld0" d="M975.3,673.1c-1.1-0.3-2.5-0.3-2.7-1.6c-0.2-1.4,1.2-1.7,2.2-2.2c1.1-0.6,2.2-1.2,3.3-1.9
			c4.5-4,9.8-7.1,13-12.4c0,0,0,0,0,0c1.3,0.9,1.7-0.1,2.1-1c0,0-0.1,0.1-0.1,0.1c4.1-3,8.2-6,12.4-9c0.6-0.4,1.4-1.2,2.2-0.4
			c0.8,0.7,0.5,1.6-0.1,2.2c-10.1,9-19.4,19-31.2,26C976,673,975.6,673,975.3,673.1z"/>
		<path class="sworld0" d="M1132.2,278.6c0.3-5.4,2.1-7.8,6.1-7.5c3.3,0.3,5.9,1.9,5.8,5.5c-0.4,8-2.5,10.8-7.1,10.4
			C1134,286.7,1132,283.1,1132.2,278.6z"/>
		<path class="sworld0" d="M1038.4,668c3.9,3.7,5.2,10.7,2.7,14.9c-3.4,5.7-5.5,11.6-5.5,18.3c0,1.2,0.3,3.1-1.6,3c-1.7,0-1.6-1.7-1.8-3
			c-0.5-5.2-0.2-10.4,2.7-14.9C1038.5,680.7,1040.7,674.9,1038.4,668z"/>
		<path class="sworld1" d="M874.4,569.9c4.8-0.5,6.5,0.8,5.5,4.9c-1.1,4.6-2.8,9.1-6.7,12.3C867.1,580.6,867.6,574.7,874.4,569.9z"/>
		<path class="sworld0" d="M1351.3,773.8c-2.6,0.7-1.7,3.5-2.9,5c-1.1,1.4-1.7,3.2-3.2,4.4c-1.3,1-2.8,1.1-4.1,0
			c-1.4-1.2-0.6-2.5,0.1-3.6c2.3-3.4,5.1-6.5,6.5-10.5c0.3-0.9,1.1-1.6,1.8-1.2c0.6,0.3,0.8,1.3,1.1,2
			C1351,771.3,1349.1,772.8,1351.3,773.8C1351.2,773.9,1351.3,773.8,1351.3,773.8z"/>
		<path class="sworld0" d="M691.7,431.5c10.3-9.6,12-9.8,17.4-3.4C703.1,429.3,697.4,430.4,691.7,431.5z"/>
		<path class="sworld0" d="M738,509.7c-0.9,3.1-3.3,5-6.7,5.1c-2,0.1-4.8-1.4-4.1-3.3c1.3-3.3,5-4.2,8.2-5
			C737.2,506.1,737.9,507.6,738,509.7z"/>
		<path class="sworld1" d="M975.5,698.1c2,2.8,1.2,5.8,1.9,8.5c0.3,1.3-0.9,2.5-2.5,2.4c-1.7-0.1-2.6-1.4-2-2.7
			C974,703.7,973.3,700.6,975.5,698.1z"/>
		<path class="sworld1" d="M980.7,181.7c2.4-3.9,6.9-4.5,10.3-6.7C990.3,181.4,986.2,182.6,980.7,181.7z"/>
		<path class="sworld1" d="M909.5,1025.9c-3.4,2.6-7.2,4.5-11.5,5.2C901,1027.4,904.2,1024.3,909.5,1025.9z"/>
		<path class="sworld1" d="M911.6,788.8c-0.7-2.3-2.1-4.6-0.4-6.9c0.1-0.2,1.1,0,1.2,0.2C913.5,784.5,912,786.5,911.6,788.8z"/>
		<path class="sworld1" d="M991,175.1c0.3-0.8,0.9-0.9,1.7-0.8C992.4,175.1,991.8,175.2,991,175.1z"/>
		<path class="sworld0" d="M996.8,168.8c0.5-0.7,1-1.2,1.9-0.5c-0.4,0.4-0.8,0.9-1.2,1.3C997.3,169.3,997.1,169.1,996.8,168.8z"/>
		<path class="sworld1" d="M889.5,192.6c-0.4,0.1-1,0.3-1.2,0.2c-0.4-0.5,0.1-0.7,0.5-0.9C889.1,192.1,889.3,192.3,889.5,192.6z"/>
		<path class="sworld1" d="M897,1031.9c-0.3,0.2-0.6,0.3-0.8,0.5C896.5,1032.2,896.7,1032.1,897,1031.9z"/>
		<path class="sworld1" d="M898.1,1031c0,0.8-0.5,0.9-1.2,0.9C897.3,1031.6,897.7,1031.3,898.1,1031z"/>
		<path class="sworld1" d="M951.1,119.1c0.1-0.2,0.2-0.5,0.2-0.7C952.1,119,951.2,118.9,951.1,119.1C951,119,951.1,119.1,951.1,119.1z"
			/>
		<path class="sworld1" d="M827.5,197.9c1.5-0.7,3-0.3,4.5,0c1.1,1.1,2.3,2.2,3.4,3.3C832.4,201.2,829.8,199.8,827.5,197.9z"/>
		<path class="sworld0" d="M761.3,536.7c0.1-0.1,0.1-0.2,0.2-0.3c0.2,0.1,0.3,0.2,0.5,0.3c-0.1,0.1-0.2,0.3-0.3,0.3
			C761.5,537,761.4,536.8,761.3,536.7z"/>
	</g>
</g>
</svg>
