<?xml version="1.0" encoding="utf-8"?>
<!-- Generator: Adobe Illustrator 23.0.1, SVG Export Plug-In . SVG Version: 6.00 Build 0)  -->
<svg version="1.1" id="Capa_1" xmlns="http://www.w3.org/2000/svg" xmlns:xlink="http://www.w3.org/1999/xlink" x="0px" y="0px"
	 viewBox="0 0 443.9 51.3" style="enable-background:new 0 0 443.9 51.3;" xml:space="preserve">
<style type="text/css">
	.st0{fill:#3E3E3E;}
	.st1{fill:#3F3F3F;}
</style>
<title>logo_</title>
<path class="st0" d="M25.3,26.3c0,5.5-4.5,10-10,10H0l0.2-1.5V0h13.3c5.5,0,10,4.5,10,10c0,2.8-1.2,5.5-3.3,7.5
	C23.3,19.3,25.3,22.7,25.3,26.3z M19.7,10c0-3.5-2.8-6.2-6.2-6.2H3.8v12.5h9.7C16.8,16.2,19.7,13.5,19.7,10L19.7,10L19.7,10z
	 M21.5,26.3c0-3.5-2.8-6.2-6.2-6.2H3.8v12.5h11.5C18.7,32.5,21.5,29.6,21.5,26.3z"/>
<path class="st0" d="M64.3,0h27.1v3.8H79.8v32.5H76V3.8H64.3V0z"/>
<path class="st0" d="M126.4,18c0,10-8.2,18-18,18c-10,0-18-8.2-18-18c0-10,8.2-18,18-18C118.4,0,126.4,8.2,126.4,18z M122.8,18
	c0-7.8-6.5-14.2-14.3-14.2c-7.8,0-14.2,6.5-14.2,14.3c0,7.8,6.3,14.2,14.3,14.2C116.4,32.3,122.8,26,122.8,18L122.8,18L122.8,18z"/>
<path class="st0" d="M156.2,0h3.8v36.3h-3L134.4,7.2v29.1h-3.8V0h3l22.7,29.1V0z"/>
<path class="st0" d="M164.1,0h24v3.8h-20.2v12.5h14.7v3.8h-14.7v12.5H188v3.8h-24V0z"/>
<path class="st0" d="M217.2,26.3c0,5.5-5.3,10-11.7,10h-3.2c-6.5,0-11.7-4.5-11.7-10V26v-1.5h4v1.7c-0.2,3.3,3.5,6.2,7.8,6.2h3.2
	c4.3,0,7.8-2.8,7.8-6.2c0-3.5-3.5-6.2-7.8-6.2h-1.5c-2.2,0-4.3-0.3-6.3-1.3c-4-2.3-6-5.2-6-8.8c0-5.5,5.3-10,11.7-10h0.8
	c6.2,0,11.5,4.2,11.7,9.5l0.2,1.5h-4L212,9.5c-0.3-3.3-3.7-5.8-7.8-5.8h-0.8c-4.3,0-7.7,2.8-7.7,6.2s3.2,6.2,7.3,6.2h1.8l0,0
	c0.8,0,1.8,0,2.7,0.2h0.2C212.9,16.8,216.9,21,217.2,26.3z"/>
<path class="st0" d="M251,18.2c0,10-8.2,18.2-18.2,18.2l0,0h-11.5V0h11.5C242.8,0,250.8,8.2,251,18.2z M247.2,18.2
	c0-8-6.5-14.3-14.3-14.3H225v28.8h7.8C240.7,32.5,247.2,26,247.2,18.2z"/>
<path class="st0" d="M255,0h24v3.8h-20.2v12.5h14.7v3.8h-14.7v12.5H279v3.8h-24L255,0L255,0z"/>
<path class="st0" d="M301.8,0l16,36.3h-4.2l-5-11.2H292l-5,11.2h-4.2l16-36.3L301.8,0L301.8,0z M307,21.3l-6.7-15.2l-6.7,15.2H307z"
	/>
<path class="st0" d="M329.3,18.8v17.5h-3.8V18.8L311.6,0h4.7l11,15l11-15h4.7L329.3,18.8z"/>
<path class="st0" d="M371.9,0h3.8v22c0,7.8-6.5,14.3-14.3,14.3c-7.3,0-13.5-5.5-14.2-12.8l0,0V0h3.8v22.2
	c0.2,5.8,4.8,10.5,10.7,10.3c5.7-0.2,10.2-4.7,10.3-10.3V0H371.9z"/>
<path class="st0" d="M409.4,18.2c0,10-8.2,18.2-18.2,18.2l0,0h-11.5V0h11.5C401.2,0,409.4,8.2,409.4,18.2z M405.6,18.2
	c0-8-6.5-14.3-14.3-14.3h-7.8v28.8h7.8C399.2,32.5,405.6,26,405.6,18.2z"/>
<path class="st0" d="M427.2,0l16,36.3H439l-5-11.2h-16.7l-5,11.2h-4l16-36.3L427.2,0L427.2,0z M432.4,21.3l-6.7-15.2l-6.7,15.2
	H432.4z"/>
<path class="st0" d="M46.1-1.3c-10.7,0-19.5,6.2-19.5,13.8v9.3c0,7.7,8.7,13.8,19.5,13.8s19.5-6.2,19.5-13.8v-9.3
	C65.6,4.8,56.8-1.3,46.1-1.3z M46.1,1.8c9,0,16.3,4.8,16.3,10.7s-7.3,10.7-16.3,10.7s-16.3-4.8-16.3-10.8S37.1,1.8,46.1,1.8
	L46.1,1.8z M62.5,21.8c0,6-7.3,10.7-16.3,10.7s-16.3-4.8-16.3-10.7V20c4.3,4.2,10.2,6.5,16.3,6.3c6.8,0,12.8-2.5,16.3-6.3V21.8z"/>
<path class="st0" d="M36.6,14.3c-0.8-0.2-1.7,0.5-1.7,1.3c-0.2,0.8,0.5,1.7,1.3,1.7c0,0,0,0,0.2,0c0,0,0.2,0,0.3,0h2v1.2
	c0,0.8,0.7,1.5,1.7,1.5c0.8,0,1.5-0.7,1.5-1.5v-1.2h8.7v1.2c0,0.8,0.7,1.5,1.7,1.5c0.8,0,1.5-0.7,1.5-1.5v-1.2h2
	c0.8,0.2,1.7-0.5,1.7-1.3c0.2-0.8-0.5-1.7-1.3-1.7c0,0,0,0-0.2,0c0,0-0.2,0-0.3,0h-2V9.8h2c0.8,0,1.5-0.7,1.5-1.7
	c0-0.8-0.7-1.5-1.5-1.5h-2V5.8c0-0.8-0.8-1.5-1.7-1.5c-0.8,0-1.5,0.7-1.5,1.5l0,0v0.8h-8.7V5.8c0-0.8-0.8-1.5-1.7-1.5
	c-0.8,0-1.5,0.7-1.5,1.5v0.8h-2c-0.8,0-1.5,0.8-1.5,1.7s0.7,1.5,1.5,1.5h2v4.5H36.6z M41.8,9.8h8.7v4.5h-8.7V9.8z"/>
<g>
	<path class="st1" d="M414.5,46.6c0.3,0.4,0.5,1,0.5,1.6s-0.2,1.2-0.4,1.6c-0.3,0.5-0.7,0.8-1.2,1.1c-0.6,0.2-1.2,0.4-1.9,0.4h-4.9
		V40.8h4.9c0.6,0,1.1,0.1,1.6,0.3c0.4,0.2,0.8,0.6,1.1,1c0.2,0.4,0.3,0.9,0.3,1.5c0,0.5-0.1,0.9-0.3,1.2c-0.2,0.3-0.6,0.7-1,0.9
		C413.7,45.8,414.2,46.1,414.5,46.6z M411.7,44.5c0.2-0.2,0.4-0.5,0.4-0.8s-0.2-0.7-0.4-0.8c-0.2-0.2-0.6-0.3-1-0.3h-1.9v2.3h1.8
		C411.2,44.9,411.5,44.8,411.7,44.5z M412.2,49c0.2-0.2,0.4-0.6,0.4-0.9c0-0.4-0.2-0.7-0.4-0.9c-0.2-0.2-0.7-0.3-1.1-0.3h-2.3v2.5
		h2.3C411.6,49.3,412,49.2,412.2,49z"/>
	<path class="st1" d="M416.7,40.7h7.4v1.9H419v2.4h4.6v1.9H419v2.5h5.2v1.9h-7.5L416.7,40.7L416.7,40.7z"/>
	<path class="st1" d="M428.3,51.2v-8.6h-3.1v-1.9h8.6v1.9h-3.1v8.6H428.3z"/>
	<path class="st1" d="M432.9,51.2l4.4-10.5h2.1l4.4,10.5h-2.5l-0.7-1.9h-4.6l-0.7,1.9H432.9z M440,47.4l-1.6-3.9l-1.6,3.9H440z"/>
</g>
</svg>
