<?xml version="1.0" encoding="utf-8"?>
<!-- Generator: Adobe Illustrator 23.0.1, SVG Export Plug-In . SVG Version: 6.00 Build 0)  -->
<svg version="1.1" id="Capa_1" xmlns="http://www.w3.org/2000/svg" xmlns:xlink="http://www.w3.org/1999/xlink" x="0px" y="0px"
	 viewBox="0 0 361 62.1" style="enable-background:new 0 0 361 62.1;" xml:space="preserve">
<style type="text/css">
	.st0{fill:#3F3F3F;}
	.st1{fill:#3E3E3E;}
</style>
<g>
	<g>
		<path class="st0" d="M39.6,9v36.2h-1V27.6H12.1v17.6l-1,0.2V9h1v17.6h26.6V9H39.6z"/>
		<path class="st0" d="M11.1,46.5c-0.6,0-1.1-0.5-1.1-1.2V9c0-0.7,0.5-1.2,1.2-1.2l0,0h1c0.7,0,1.2,0.5,1.2,1.2v0v16.4h24.1V9
			c0-0.7,0.5-1.2,1.2-1.2l0,0h1c0.7,0,1.2,0.5,1.2,1.2v0v36.2c0,0.7-0.5,1.2-1.2,1.2l0,0h-1c-0.7,0-1.2-0.5-1.2-1.2l0,0V28.7H13.3
			v16.4c0,0.6-0.4,1.1-1,1.2l-1,0.2L11.1,46.5z"/>
		<path class="st0" d="M45.7,9.9v16.6h15.9v1H45.7v16.6h21.8v1H44.7V9h22.8v1L45.7,9.9z"/>
		<path class="st0" d="M67.5,46.4H44.7c-0.7,0-1.2-0.5-1.2-1.2l0,0V9c0-0.7,0.5-1.2,1.2-1.2l0,0h22.8c0.7,0,1.2,0.5,1.2,1.2v0v1
			c0,0.7-0.5,1.2-1.2,1.2l0,0H46.8v14.2h14.8c0.7,0,1.2,0.5,1.2,1.2l0,0v1c0,0.7-0.5,1.2-1.2,1.2c0,0,0,0,0,0H46.8V43h20.6
			c0.7,0,1.2,0.5,1.2,1.2l0,0v1C68.6,45.8,68.1,46.4,67.5,46.4z"/>
		<path class="st0" d="M95.4,44.2v1H72.5V9h1v35.2H95.4z"/>
		<path class="st0" d="M95.4,46.4H72.5c-0.6,0-1.2-0.5-1.2-1.2c0,0,0,0,0,0V9c0-0.6,0.5-1.2,1.2-1.2c0,0,0,0,0,0h1
			c0.7,0,1.2,0.5,1.2,1.2v0V43h20.8c0.7,0,1.2,0.5,1.2,1.2l0,0v1C96.6,45.8,96.1,46.4,95.4,46.4z"/>
		<path class="st0" d="M100.5,45.2V9h14.6c2.5,0,4.8,1,6.5,2.7c0.8,0.9,1.5,1.9,2,3c0.5,1.1,0.7,2.4,0.7,3.6c0,1.2-0.2,2.5-0.7,3.6
			c-0.5,1.1-1.2,2.1-2,2.9c-0.8,0.9-1.8,1.5-2.9,2c-1.1,0.5-2.4,0.7-3.6,0.7h-13.6v17.6H100.5z M101.5,26.6h13.6
			c1.1,0,2.2-0.2,3.2-0.6c1-0.4,1.9-1,2.6-1.8c0.7-0.8,1.3-1.7,1.8-2.6c0.4-1,0.7-2.1,0.7-3.2c0-1.1-0.2-2.2-0.7-3.2
			c-0.4-1-1-1.9-1.8-2.7c-0.7-0.8-1.6-1.4-2.6-1.8c-1-0.4-2.1-0.7-3.2-0.7h-13.6L101.5,26.6z"/>
		<path class="st0" d="M101.5,46.4h-1c-0.7,0-1.2-0.5-1.2-1.2l0,0V9c0-0.7,0.5-1.2,1.2-1.2l0,0h14.6c1.4,0,2.8,0.3,4.1,0.8
			c1.2,0.5,2.4,1.3,3.3,2.3c0.9,1,1.7,2.1,2.2,3.3c0.6,1.3,0.8,2.7,0.8,4.1c0,1.4-0.3,2.8-0.8,4.1c-0.5,1.2-1.3,2.4-2.2,3.3
			c-1,0.9-2.1,1.7-3.3,2.2c-1.3,0.6-2.7,0.8-4.1,0.8h-12.4v16.4C102.7,45.8,102.1,46.3,101.5,46.4C101.5,46.4,101.5,46.4,101.5,46.4
			z M102.7,25.4h12.4c0.9,0,1.9-0.2,2.7-0.6c0.8-0.4,1.6-0.9,2.2-1.5c0.6-0.7,1.2-1.4,1.5-2.3c0.4-0.9,0.6-1.8,0.6-2.7
			c0-1-0.2-1.9-0.6-2.8c-0.4-0.9-0.9-1.6-1.5-2.3c-0.6-0.6-1.4-1.2-2.2-1.6c-0.9-0.4-1.8-0.6-2.7-0.6h-12.4V25.4z"/>
		<path class="st0" d="M146.2,26.8c1,0.2,2,0.6,2.9,1.1c0.9,0.6,1.7,1.2,2.4,2c0.7,0.8,1.2,1.7,1.6,2.7c0.4,1,0.6,2.1,0.6,3.2
			c0,1.2-0.2,2.5-0.7,3.6c-0.5,1.1-1.1,2.1-2,2.9c-0.8,0.8-1.8,1.5-2.9,2c-1.1,0.5-2.4,0.7-3.6,0.7h-14.9V9h13c2.5,0,4.8,1,6.6,2.7
			c0.8,0.9,1.5,1.9,2,3c0.5,1.1,0.7,2.4,0.7,3.6c0,1.8-0.5,3.6-1.5,5.1C149.2,24.9,147.8,26.1,146.2,26.8z M130.4,26.6h12
			c1.1,0,2.2-0.2,3.2-0.6c1-0.4,1.9-1,2.6-1.8c0.8-0.8,1.4-1.7,1.8-2.6c0.4-1,0.7-2.1,0.7-3.2c0-1.1-0.2-2.2-0.7-3.2
			c-0.4-1-1-1.9-1.8-2.7c-0.7-0.8-1.6-1.4-2.6-1.8c-1-0.4-2.1-0.7-3.2-0.7h-12L130.4,26.6z M147.6,43.6c1-0.4,1.9-1,2.6-1.8
			c0.8-0.8,1.4-1.7,1.8-2.7c0.4-1,0.7-2.1,0.6-3.2c0-1.1-0.2-2.2-0.6-3.2c-0.4-1-1-1.9-1.8-2.7c-0.8-0.8-1.7-1.4-2.6-1.8
			c-1-0.4-2.1-0.7-3.2-0.7h-14v16.7h14C145.5,44.2,146.6,44,147.6,43.6L147.6,43.6z"/>
		<path class="st0" d="M144.3,46.4h-14.9c-0.7,0-1.2-0.5-1.2-1.2V9c0-0.7,0.5-1.2,1.2-1.2h13c2.8,0,5.5,1.1,7.4,3.1
			c0.9,1,1.7,2.1,2.2,3.3c0.6,1.3,0.8,2.7,0.8,4.1c0,2.1-0.6,4.1-1.7,5.8c-0.6,0.9-1.3,1.7-2.2,2.4c0.3,0.1,0.5,0.3,0.8,0.4
			c1,0.6,1.9,1.4,2.7,2.3c0.8,0.9,1.4,2,1.8,3.1c0.4,1.2,0.6,2.4,0.6,3.6c0,1.4-0.3,2.8-0.8,4.1c-1.1,2.5-3,4.5-5.5,5.5
			C147.1,46.1,145.7,46.4,144.3,46.4z M131.6,43h12.8c1,0,1.9-0.2,2.8-0.6c0.8-0.4,1.6-0.9,2.3-1.5c0.6-0.7,1.2-1.4,1.5-2.3
			c0.4-0.9,0.6-1.8,0.6-2.7c0-1-0.2-1.9-0.6-2.8c-0.4-0.9-0.9-1.6-1.5-2.3c-0.6-0.7-1.4-1.2-2.3-1.5c-0.9-0.4-1.8-0.6-2.8-0.6h-12.8
			V43z M131.6,25.4h10.9c0.9,0,1.9-0.2,2.7-0.6c0.8-0.4,1.6-0.9,2.2-1.5c0.6-0.7,1.2-1.4,1.5-2.3c0.4-0.9,0.6-1.8,0.6-2.7
			c0-1-0.2-1.9-0.6-2.8c-0.4-0.9-0.9-1.6-1.5-2.3c-0.6-0.7-1.4-1.2-2.2-1.6c-0.9-0.4-1.8-0.6-2.7-0.6h-10.9V25.4z"/>
		<path class="st0" d="M186.5,9v22.3c0,1.9-0.4,3.7-1.1,5.4c-0.7,1.7-1.7,3.2-3,4.4c-1.3,1.3-2.8,2.3-4.4,3c-3.5,1.5-7.4,1.5-10.8,0
			c-3.3-1.4-6-4.1-7.4-7.4c-0.7-1.7-1.1-3.6-1.1-5.4V9h1v22.3c0,1.7,0.3,3.4,1,5c0.7,1.5,1.6,2.9,2.8,4.1c1.2,1.2,2.6,2.1,4.1,2.8
			c3.2,1.3,6.8,1.3,10.1,0c1.5-0.7,2.9-1.6,4.1-2.8c1.2-1.2,2.1-2.6,2.8-4.1c0.7-1.6,1-3.3,1-5l0,0V9H186.5z"/>
		<path class="st0" d="M172.6,46.4c-2,0-4-0.4-5.9-1.2c-1.8-0.8-3.4-1.9-4.8-3.2c-1.4-1.4-2.5-3-3.2-4.8c-0.8-1.9-1.2-3.9-1.2-5.9V9
			c0-0.7,0.5-1.2,1.2-1.2h1c0.7,0,1.2,0.5,1.2,1.2v22.3c0,1.6,0.3,3.1,0.9,4.6c0.6,1.4,1.5,2.7,2.5,3.8c3.4,3.4,8.5,4.4,12.9,2.5
			c2.8-1.2,5.1-3.5,6.3-6.3c0.6-1.4,0.9-2.8,0.9-4.3c0-0.1,0-0.2-0.1-0.3V9c0-0.7,0.5-1.2,1.2-1.2h1c0.7,0,1.2,0.5,1.2,1.2v22.3
			c0,2-0.4,4-1.2,5.9c-0.8,1.8-1.9,3.4-3.2,4.8c-1.4,1.4-3,2.5-4.8,3.2C176.6,46,174.6,46.4,172.6,46.4z"/>
		<path class="st0" d="M217.8,9.9h-12.6v35.2h-1V9.9h-12.6v-1h26.2L217.8,9.9z"/>
		<path class="st0" d="M205.1,46.4h-1c-0.6,0-1.1-0.5-1.1-1.2v-34h-11.4c-0.6,0-1.2-0.5-1.2-1.2c0,0,0,0,0,0V9
			c0-0.7,0.5-1.2,1.2-1.2h26.2c0.7,0,1.2,0.5,1.2,1.1c0,0,0,0,0,0v1c0,0.7-0.5,1.2-1.2,1.2h-11.5v34
			C206.3,45.8,205.8,46.4,205.1,46.4z"/>
		<path class="st0" d="M249.1,9.9h-12.7v35.2h-1V9.9h-12.6v-1h26.2V9.9z"/>
		<path class="st0" d="M236.4,46.4h-1c-0.7,0-1.2-0.5-1.2-1.2v-34h-11.4c-0.7,0-1.2-0.5-1.2-1.2V9c0-0.7,0.5-1.2,1.2-1.2h26.2
			c0.7,0,1.2,0.5,1.2,1.2v1c0,0.7-0.5,1.2-1.2,1.2h-11.5v34C237.6,45.8,237.1,46.4,236.4,46.4C236.4,46.4,236.4,46.4,236.4,46.4z"/>
		<path class="st0" d="M319.3,9v36.2h-1l-27-34.5v34.5h-1V9h1l27,34.5V9H319.3z"/>
		<path class="st0" d="M319.3,46.4h-1c-0.4,0-0.7-0.2-0.9-0.5l-24.9-31.8v31c0,0.7-0.5,1.2-1.2,1.2h-1c-0.7,0-1.2-0.5-1.2-1.2V9
			c0-0.7,0.5-1.2,1.2-1.2h1c0.4,0,0.7,0.2,0.9,0.4l24.9,31.8V9c0-0.7,0.5-1.2,1.2-1.2h1c0.7,0,1.2,0.5,1.2,1.2v36.2
			C320.4,45.8,319.9,46.3,319.3,46.4z"/>
		<path class="st0" d="M340.9,26.8c1.2,0.2,2.4,0.6,3.6,1.1c1,0.5,2,1.2,2.8,2c0.8,0.8,1.4,1.8,1.9,2.8c0.5,1,0.7,2.1,0.7,3.3
			c0,1.3-0.3,2.5-0.9,3.6c-0.6,1.1-1.4,2.1-2.4,2.9c-1.1,0.9-2.3,1.5-3.5,2c-1.4,0.5-2.9,0.7-4.3,0.7h-3.3c-1.5,0-2.9-0.2-4.3-0.7
			c-1.3-0.5-2.5-1.1-3.5-2c-1-0.8-1.8-1.8-2.4-2.9c-0.6-1.1-0.9-2.4-0.9-3.6v-0.3h1.2v0.2c0,1.1,0.3,2.2,0.8,3.2
			c0.5,1,1.3,1.9,2.1,2.6c0.9,0.8,2,1.4,3.2,1.8c1.2,0.4,2.5,0.7,3.9,0.7h3.3c1.3,0,2.6-0.2,3.9-0.7c1.2-0.4,2.2-1,3.2-1.8
			c0.9-0.7,1.6-1.6,2.1-2.6c0.5-1,0.8-2.1,0.8-3.2c0-1.1-0.3-2.2-0.8-3.2c-0.5-1-1.2-1.9-2.1-2.7c-0.9-0.8-2-1.4-3.2-1.8
			c-1.2-0.4-2.6-0.7-3.9-0.7c-1.2,0.1-2.4,0.1-3.6-0.1c-0.8-0.1-1.6-0.2-2.4-0.4c-0.6-0.1-1.2-0.3-1.8-0.6c-1.6-0.9-3-2.1-4.1-3.5
			c-1-1.3-1.5-3-1.5-4.6c0-1.3,0.3-2.5,0.9-3.6c0.6-1.1,1.4-2.2,2.4-3c1-0.9,2.2-1.5,3.5-2c1.4-0.5,2.8-0.7,4.3-0.7h1
			c1.4,0,2.9,0.3,4.2,0.7c1.2,0.4,2.4,1.1,3.5,1.9c1,0.8,1.8,1.7,2.4,2.8c0.6,1.1,0.9,2.2,1,3.4h-1.2c-0.1-1.1-0.4-2.1-0.9-3.1
			c-0.6-1-1.3-1.8-2.1-2.5c-0.9-0.7-2-1.3-3.1-1.7c-1.2-0.4-2.5-0.6-3.8-0.6h-1c-1.3,0-2.6,0.2-3.9,0.7c-1.2,0.4-2.2,1-3.2,1.8
			c-0.9,0.7-1.6,1.6-2.1,2.7c-0.5,1-0.8,2.1-0.8,3.2c0,1.1,0.3,2.2,0.8,3.2c0.5,1,1.3,1.9,2.1,2.6c0.9,0.8,2,1.4,3.1,1.8
			c1.2,0.4,2.6,0.7,3.9,0.6h1.6h1.4C340.1,26.6,340.5,26.7,340.9,26.8z"/>
		<path class="st0" d="M338.8,46.4h-3.3c-1.6,0-3.2-0.3-4.7-0.8c-1.4-0.5-2.7-1.2-3.9-2.2c-1.1-0.9-2-2-2.7-3.3
			c-0.7-1.3-1-2.7-1-4.2c0-0.7,0.5-1.3,1.2-1.4h1.2c0.6,0,1.1,0.5,1.2,1.1c0,1,0.2,2,0.6,2.9c0.5,0.9,1.1,1.6,1.9,2.3
			c0.8,0.7,1.8,1.2,2.8,1.6c1.1,0.4,2.3,0.6,3.5,0.6h3.3c1.2,0,2.4-0.2,3.5-0.6c1-0.3,1.9-0.9,2.8-1.6c0.8-0.6,1.4-1.4,1.9-2.3
			c0.4-0.8,0.7-1.7,0.6-2.7c0-0.9-0.2-1.9-0.7-2.7c-0.5-0.9-1.1-1.7-1.8-2.3c-0.8-0.7-1.8-1.2-2.8-1.6c-1.1-0.4-2.3-0.6-3.5-0.6
			c-1.2,0.1-2.5,0-3.7-0.1c-0.9-0.1-1.7-0.2-2.5-0.5c-0.7-0.2-1.4-0.4-2-0.7c-1.7-1-3.3-2.3-4.5-3.9c-1.2-1.5-1.8-3.4-1.7-5.3
			c0-1.4,0.3-2.9,1-4.2c0.7-1.3,1.6-2.4,2.7-3.3c1.2-1,2.5-1.7,3.9-2.2c1.5-0.5,3.1-0.8,4.7-0.8h1c1.6,0,3.1,0.2,4.6,0.8
			c1.4,0.5,2.7,1.2,3.8,2.1c1.1,0.9,2,1.9,2.7,3.1c0.7,1.2,1.1,2.6,1.2,4c0,0.3-0.1,0.6-0.3,0.9c-0.2,0.2-0.5,0.4-0.9,0.4h-1.2
			c-0.6,0-1.1-0.5-1.2-1.1c-0.1-0.9-0.3-1.8-0.8-2.5c-0.5-0.8-1.1-1.6-1.9-2.2c-0.8-0.7-1.7-1.2-2.7-1.5c-1.1-0.4-2.2-0.6-3.4-0.6
			h-1c-1.2,0-2.4,0.2-3.5,0.6c-1,0.4-2,0.9-2.8,1.6c-0.8,0.6-1.4,1.4-1.9,2.3c-0.4,0.8-0.7,1.8-0.7,2.7c0,0.9,0.2,1.8,0.6,2.7
			c0.5,0.9,1.1,1.6,1.9,2.3c0.8,0.7,1.8,1.2,2.8,1.6c1.1,0.4,2.3,0.6,3.5,0.6h1.6h1.5c0.5,0,1,0.1,1.5,0.1c1.3,0.2,2.6,0.6,3.8,1.2
			c1.2,0.6,2.2,1.3,3.2,2.3c0.9,0.9,1.6,2,2.1,3.1c0.5,1.2,0.8,2.5,0.8,3.8c0,1.4-0.3,2.9-1,4.2c-0.6,1.3-1.6,2.4-2.7,3.3
			c-1.2,0.9-2.5,1.7-3.9,2.2C342,46.1,340.4,46.4,338.8,46.4z"/>
	</g>
	<path class="st0" d="M267.2,8.3c-10.9,0-19.7,6.3-19.7,14v9.4c0,7.7,8.8,14,19.7,14s19.7-6.3,19.7-14v-9.4
		C286.9,14.7,278,8.3,267.2,8.3z M267.2,11.5c9.1,0,16.5,4.9,16.5,10.8s-7.4,10.8-16.5,10.8s-16.5-4.9-16.5-10.8
		S258.1,11.5,267.2,11.5z M283.6,31.8c0,6-7.4,10.8-16.5,10.8s-16.5-4.9-16.5-10.8V30c3.5,3.8,9.6,6.4,16.5,6.4s13-2.5,16.5-6.4
		V31.8z"/>
	<path class="st0" d="M257.6,24.2c-0.9,0-1.6,0.7-1.6,1.6s0.7,1.6,1.6,1.6h2v1.2c0,0.9,0.7,1.6,1.6,1.6s1.6-0.7,1.6-1.6v-1.2h8.8
		v1.2c0,0.9,0.7,1.6,1.6,1.6s1.6-0.7,1.6-1.6v-1.2h2c0.9,0,1.6-0.7,1.6-1.6s-0.7-1.6-1.6-1.6h-2v-4.5h2c0.9,0,1.6-0.7,1.6-1.6
		c0-0.9-0.7-1.6-1.6-1.6c0,0,0,0,0,0h-2v-0.9c0-0.9-0.7-1.6-1.6-1.6s-1.6,0.7-1.6,1.6v0.9h-8.8v-0.9c0-0.9-0.7-1.6-1.6-1.6
		s-1.6,0.7-1.6,1.6v0.9h-2c-0.9,0-1.6,0.7-1.6,1.6c0,0.9,0.7,1.6,1.6,1.6h2v4.5L257.6,24.2z M262.8,19.7h8.8v4.5h-8.8V19.7z"/>
</g>
<g>
	<path class="st0" d="M326.3,54.6c0.3,0.4,0.4,0.8,0.4,1.3c0,0.5-0.1,1-0.4,1.4c-0.2,0.4-0.6,0.7-1,0.9s-1,0.3-1.6,0.3h-4.1v-8.9
		h4.1c0.5,0,0.9,0.1,1.3,0.3c0.4,0.2,0.7,0.5,0.9,0.8c0.2,0.4,0.3,0.8,0.3,1.2c0,0.4-0.1,0.7-0.3,1c-0.2,0.3-0.5,0.6-0.8,0.8
		C325.6,53.9,326,54.2,326.3,54.6z M324,52.9c0.2-0.2,0.3-0.4,0.3-0.7s-0.1-0.5-0.3-0.7c-0.2-0.2-0.5-0.3-0.8-0.3h-1.6v1.9h1.5
		C323.5,53.2,323.8,53.1,324,52.9z M324.4,56.6c0.2-0.2,0.4-0.5,0.4-0.8c0-0.3-0.1-0.6-0.4-0.8c-0.2-0.2-0.5-0.3-0.9-0.3h-1.9v2.2
		h1.9C323.9,56.9,324.2,56.8,324.4,56.6z"/>
	<path class="st0" d="M328.2,49.6h6.2v1.6h-4.3v2h3.9v1.6h-3.9v2.1h4.4v1.6h-6.3V49.6z"/>
	<path class="st0" d="M338,58.5v-7.3h-2.7v-1.6h7.2v1.6h-2.7v7.3H338z"/>
	<path class="st0" d="M341.9,58.5l3.8-8.9h1.8l3.8,8.9h-2.1l-0.6-1.6h-3.9l-0.6,1.6H341.9z M347.8,55.3l-1.3-3.3l-1.3,3.3H347.8z"/>
</g>
</svg>
