<svg id="Capa_1" data-name="Capa 1" xmlns="http://www.w3.org/2000/svg" viewBox="0 0 451.62 190.95"><defs><style>.cls-1{fill:#3f3f3f;}.cls-2{fill:#f4d728;}</style></defs><title>logo</title><path class="cls-1" d="M40.52,141.15v47.59H39.25V165.58H4.3v23.16L3,189v-47.8H4.3v23.17h35V141.15Z"/><path class="cls-1" d="M3,190.19A1.25,1.25,0,0,1,1.79,189v-47.8A1.25,1.25,0,0,1,3,139.9H4.3a1.25,1.25,0,0,1,1.25,1.25v21.92H38V141.15a1.24,1.24,0,0,1,1.24-1.25h1.27a1.24,1.24,0,0,1,1.24,1.25v47.59A1.24,1.24,0,0,1,40.52,190H39.25A1.24,1.24,0,0,1,38,188.74V166.83H5.55v21.91a1.25,1.25,0,0,1-1,1.23l-1.27.21Z"/><path class="cls-1" d="M48.43,142.41v21.91h21v1.26h-21v21.9h28.7v1.26h-30V141.15h30v1.26Z"/><path class="cls-1" d="M77.13,190h-30a1.25,1.25,0,0,1-1.25-1.25V141.15a1.25,1.25,0,0,1,1.25-1.25h30a1.24,1.24,0,0,1,1.24,1.25v1.26a1.24,1.24,0,0,1-1.24,1.25H49.68v19.41H69.41a1.24,1.24,0,0,1,1.24,1.25v1.26a1.24,1.24,0,0,1-1.24,1.25H49.68v19.4H77.13a1.24,1.24,0,0,1,1.24,1.25v1.26A1.24,1.24,0,0,1,77.13,190Z"/><path class="cls-1" d="M113.93,187.48v1.26H83.78V141.15H85v46.33Z"/><path class="cls-1" d="M113.93,190H83.78a1.24,1.24,0,0,1-1.24-1.25V141.15a1.24,1.24,0,0,1,1.24-1.25H85a1.25,1.25,0,0,1,1.25,1.25v45.08h27.64a1.25,1.25,0,0,1,1.25,1.25v1.26A1.25,1.25,0,0,1,113.93,190Z"/><path class="cls-1" d="M120.6,188.74V141.15h19.17a12,12,0,0,1,4.75,1,12.2,12.2,0,0,1,3.87,2.64,12.55,12.55,0,0,1,2.59,3.89,12.16,12.16,0,0,1,0,9.52,12,12,0,0,1-2.59,3.85,12.45,12.45,0,0,1-3.87,2.61,12,12,0,0,1-4.75,1H121.86v23.16Zm1.26-24.42h17.91a10.1,10.1,0,0,0,4.22-.88,10.91,10.91,0,0,0,3.43-2.35,11.52,11.52,0,0,0,2.33-3.46,10.34,10.34,0,0,0,.87-4.24,10.61,10.61,0,0,0-.87-4.26,11.29,11.29,0,0,0-2.33-3.49,10.59,10.59,0,0,0-3.43-2.35,10.1,10.1,0,0,0-4.22-.88H121.86Z"/><path class="cls-1" d="M121.86,190H120.6a1.25,1.25,0,0,1-1.25-1.25V141.15a1.25,1.25,0,0,1,1.25-1.25h19.17A13.37,13.37,0,0,1,145,141a13.24,13.24,0,0,1,4.26,2.92,13.8,13.8,0,0,1,2.86,4.27,13.53,13.53,0,0,1,0,10.5,13.56,13.56,0,0,1-2.87,4.25,13.71,13.71,0,0,1-4.24,2.86,13.29,13.29,0,0,1-5.25,1.07H123.11v21.91A1.25,1.25,0,0,1,121.86,190Zm1.25-26.92h16.66a9,9,0,0,0,3.71-.77,9.63,9.63,0,0,0,3.06-2.09,10.47,10.47,0,0,0,2.07-3.09,9.22,9.22,0,0,0,.77-3.73,9.46,9.46,0,0,0-.77-3.75,10.13,10.13,0,0,0-2.08-3.13,9.46,9.46,0,0,0-3-2.08,9.08,9.08,0,0,0-3.72-.77H123.11Z"/><path class="cls-1" d="M180.64,164.51a11.58,11.58,0,0,1,3.86,1.5,12.28,12.28,0,0,1,3.12,2.7,12,12,0,0,1,2.08,3.59,12.54,12.54,0,0,1,.73,4.26,11.71,11.71,0,0,1-1,4.76,12.41,12.41,0,0,1-2.59,3.86,12.09,12.09,0,0,1-3.87,2.6,11.86,11.86,0,0,1-4.75,1H158.61V141.15h17.11a12.12,12.12,0,0,1,4.76,1,12.26,12.26,0,0,1,3.86,2.64,12.73,12.73,0,0,1,2.59,3.89,12.13,12.13,0,0,1-1.06,11.47A12,12,0,0,1,180.64,164.51Zm-20.77-.19h15.85a10.13,10.13,0,0,0,4.22-.88,10.75,10.75,0,0,0,3.42-2.35,11.55,11.55,0,0,0,2.34-3.46,10.34,10.34,0,0,0,.86-4.24,10.6,10.6,0,0,0-.86-4.26,11.32,11.32,0,0,0-2.34-3.49,10.44,10.44,0,0,0-3.42-2.35,10.13,10.13,0,0,0-4.22-.88H159.87Zm22.64,22.29a10.79,10.79,0,0,0,3.46-2.36,11.77,11.77,0,0,0,2.33-3.46,10.49,10.49,0,0,0,.86-4.23,10.77,10.77,0,0,0-.86-4.26,11.53,11.53,0,0,0-2.33-3.49,10.79,10.79,0,0,0-3.46-2.36,10.41,10.41,0,0,0-4.26-.87H159.87v21.9h18.38A10.41,10.41,0,0,0,182.51,186.61Z"/><path class="cls-1" d="M178.25,190H158.61a1.25,1.25,0,0,1-1.25-1.25V141.15a1.25,1.25,0,0,1,1.25-1.25h17.11a13.18,13.18,0,0,1,9.5,4,13.9,13.9,0,0,1,2.85,4.26,13.44,13.44,0,0,1-1.16,12.67,14,14,0,0,1-3.21,3.37c.49.23,1,.48,1.45.76a13.86,13.86,0,0,1,3.44,3,13.31,13.31,0,0,1,2.27,3.94,13.56,13.56,0,0,1,.81,4.69,13.09,13.09,0,0,1-1.07,5.26,13.31,13.31,0,0,1-7.1,7.1A13.11,13.11,0,0,1,178.25,190Zm-17.13-3.76h17.13a9.13,9.13,0,0,0,3.76-.76,9.71,9.71,0,0,0,3.08-2.09,10.67,10.67,0,0,0,2.07-3.09,9.28,9.28,0,0,0,.76-3.73,9.45,9.45,0,0,0-.77-3.77,10.41,10.41,0,0,0-2.06-3.11,9.71,9.71,0,0,0-3.08-2.09,9.29,9.29,0,0,0-3.76-.76H161.12Zm0-23.16h14.6a9.08,9.08,0,0,0,3.72-.77,9.68,9.68,0,0,0,3-2.08,10.48,10.48,0,0,0,2.08-3.1,9,9,0,0,0,.76-3.73,9.18,9.18,0,0,0-.76-3.75,10.31,10.31,0,0,0-2.08-3.13,9.35,9.35,0,0,0-3-2.08,9.08,9.08,0,0,0-3.72-.77h-14.6Z"/><path class="cls-1" d="M233.69,141.15v29.3a17.93,17.93,0,0,1-1.42,7.12,18.48,18.48,0,0,1-9.75,9.74,18.3,18.3,0,0,1-25.44-16.86v-29.3h1.26v29.3a16.43,16.43,0,0,0,1.35,6.62,17.15,17.15,0,0,0,3.65,5.42,17.44,17.44,0,0,0,5.43,3.66,17.17,17.17,0,0,0,13.25,0,17.44,17.44,0,0,0,5.43-3.66,17.66,17.66,0,0,0,3.65-5.42,16.59,16.59,0,0,0,1.33-6.62h-.06v-29.3Z"/><path class="cls-1" d="M215.38,190a19.1,19.1,0,0,1-7.61-1.54,19.67,19.67,0,0,1-10.4-10.39,19.2,19.2,0,0,1-1.54-7.61v-29.3a1.25,1.25,0,0,1,1.25-1.25h1.26a1.25,1.25,0,0,1,1.25,1.25v29.3a15.35,15.35,0,0,0,1.24,6.12,15.9,15.9,0,0,0,3.4,5,15.74,15.74,0,0,0,22.33,0,16.49,16.49,0,0,0,3.41-5,15.87,15.87,0,0,0,1.21-5.77,1.07,1.07,0,0,1-.06-.35v-29.3a1.25,1.25,0,0,1,1.25-1.25h1.32a1.25,1.25,0,0,1,1.25,1.25v29.3a19.33,19.33,0,0,1-1.52,7.61A19.64,19.64,0,0,1,223,188.45,19.12,19.12,0,0,1,215.38,190Z"/><path class="cls-1" d="M274.84,142.41H258.19v46.33h-1.26V142.41H240.35v-1.26h34.49Z"/><path class="cls-1" d="M258.19,190h-1.26a1.25,1.25,0,0,1-1.25-1.25V143.66H240.35a1.24,1.24,0,0,1-1.24-1.25v-1.26a1.24,1.24,0,0,1,1.24-1.25h34.49a1.24,1.24,0,0,1,1.24,1.25v1.26a1.24,1.24,0,0,1-1.24,1.25h-15.4v45.08A1.25,1.25,0,0,1,258.19,190Z"/><path class="cls-1" d="M316,142.41H299.33v46.33h-1.27V142.41H281.49v-1.26H316Z"/><path class="cls-1" d="M299.33,190h-1.27a1.24,1.24,0,0,1-1.24-1.25V143.66H281.49a1.25,1.25,0,0,1-1.25-1.25v-1.26a1.25,1.25,0,0,1,1.25-1.25H316a1.25,1.25,0,0,1,1.25,1.25v1.26a1.25,1.25,0,0,1-1.25,1.25H300.57v45.08A1.24,1.24,0,0,1,299.33,190Z"/><path class="cls-1" d="M339.81,188.74a23,23,0,0,1-9.26-1.86,23.87,23.87,0,0,1-12.65-12.65,24,24,0,0,1,0-18.53,23.9,23.9,0,0,1,5.1-7.6,24.16,24.16,0,0,1,7.55-5.09,24,24,0,0,1,18.51,0,24.2,24.2,0,0,1,7.56,5.09,23.87,23.87,0,0,1,5.09,7.6,24,24,0,0,1,0,18.53,23.78,23.78,0,0,1-12.65,12.65A23,23,0,0,1,339.81,188.74Zm0-46.33a21.92,21.92,0,0,0-8.75,1.76,22.62,22.62,0,0,0-12,12,22.59,22.59,0,0,0,0,17.53,22.64,22.64,0,0,0,12,12,22.63,22.63,0,0,0,17.5,0,22.73,22.73,0,0,0,12-12,22.71,22.71,0,0,0,0-17.53,22.71,22.71,0,0,0-12-12A22,22,0,0,0,339.81,142.41Z"/><path class="cls-1" d="M339.81,190a24.55,24.55,0,0,1-9.76-2,25.15,25.15,0,0,1-13.29-13.31,25.14,25.14,0,0,1,0-19.51,25,25,0,0,1,40.73-8,25.12,25.12,0,0,1,5.36,8,24.54,24.54,0,0,1,2,9.77,24.25,24.25,0,0,1-2,9.75,25.12,25.12,0,0,1-5.34,7.94,25.57,25.57,0,0,1-7.94,5.36A24.58,24.58,0,0,1,339.81,190Zm0-46.33a20.69,20.69,0,0,0-8.26,1.66,21.46,21.46,0,0,0-6.77,4.57,21.24,21.24,0,0,0-4.56,6.79,21,21,0,0,0-1.67,8.3,20.7,20.7,0,0,0,1.67,8.26A21.23,21.23,0,0,0,354.83,180a22,22,0,0,0,4.58-6.77,21.54,21.54,0,0,0,0-16.56,21.76,21.76,0,0,0-4.57-6.79,21.41,21.41,0,0,0-6.76-4.57A20.73,20.73,0,0,0,339.81,143.66Z"/><path class="cls-1" d="M408.31,141.15v47.59H407L371.5,143.42v45.32h-1.26V141.15h1.26L407,186.54V141.15Z"/><path class="cls-1" d="M408.31,190H407a1.28,1.28,0,0,1-1-.48L372.75,147v41.72A1.25,1.25,0,0,1,371.5,190h-1.26a1.24,1.24,0,0,1-1.25-1.25V141.15a1.24,1.24,0,0,1,1.25-1.25h1.26a1.25,1.25,0,0,1,1,.48l33.25,42.55V141.15A1.24,1.24,0,0,1,407,139.9h1.33a1.24,1.24,0,0,1,1.24,1.25v47.59A1.24,1.24,0,0,1,408.31,190Z"/><path class="cls-1" d="M436.83,164.51A16.44,16.44,0,0,1,441.5,166a13.77,13.77,0,0,1,3.73,2.66,12.31,12.31,0,0,1,2.45,3.62,10.56,10.56,0,0,1,.9,4.3,10.27,10.27,0,0,1-1.13,4.76,11.81,11.81,0,0,1-3.11,3.86,15.64,15.64,0,0,1-4.66,2.6,16.65,16.65,0,0,1-5.71,1h-4.39a16.52,16.52,0,0,1-5.65-1,15.46,15.46,0,0,1-4.65-2.6,12.34,12.34,0,0,1-3.15-3.86,10.07,10.07,0,0,1-1.17-4.76v-.26h1.54v.26a8.94,8.94,0,0,0,1,4.23,11.2,11.2,0,0,0,2.82,3.46,13.82,13.82,0,0,0,4.14,2.36,14.4,14.4,0,0,0,5.09.87H434a14.59,14.59,0,0,0,5.11-.87,13.06,13.06,0,0,0,4.15-2.36,11.69,11.69,0,0,0,2.79-3.46,8.94,8.94,0,0,0,1-4.23,9.17,9.17,0,0,0-1-4.26,11.44,11.44,0,0,0-2.79-3.49,13.06,13.06,0,0,0-4.15-2.36,14.59,14.59,0,0,0-5.11-.87,28.92,28.92,0,0,1-4.69-.09,23.47,23.47,0,0,1-3.08-.58,11.26,11.26,0,0,1-2.33-.79,18.66,18.66,0,0,1-5.41-4.67,9.75,9.75,0,0,1-2-6.06,10.31,10.31,0,0,1,1.15-4.75,12.58,12.58,0,0,1,3.17-3.89,15.43,15.43,0,0,1,4.65-2.64,16.66,16.66,0,0,1,5.64-1h1.33A17,17,0,0,1,438,142a15.71,15.71,0,0,1,4.56,2.46,13.53,13.53,0,0,1,3.18,3.7,10.27,10.27,0,0,1,1.36,4.53h-1.53a9.2,9.2,0,0,0-1.23-4,11.76,11.76,0,0,0-2.83-3.3,13.35,13.35,0,0,0-4.07-2.2,14.84,14.84,0,0,0-4.92-.8h-1.32a14.38,14.38,0,0,0-5.1.88,13.34,13.34,0,0,0-4.16,2.35,11.11,11.11,0,0,0-2.83,3.49,9.18,9.18,0,0,0-1,4.26,9,9,0,0,0,1,4.24,11.21,11.21,0,0,0,2.83,3.46,13.52,13.52,0,0,0,4.14,2.35,14.39,14.39,0,0,0,5.08.88h2.13l1.89,0A11.44,11.44,0,0,1,436.83,164.51Z"/><path class="cls-1" d="M434,190h-4.39a17.82,17.82,0,0,1-6.08-1,17,17,0,0,1-5-2.81A13.38,13.38,0,0,1,415,181.9a11.22,11.22,0,0,1-1.31-5.34c0-.68.55-1.5,1.24-1.5h1.54a1.23,1.23,0,0,1,1.24,1.24,8,8,0,0,0,.89,3.92,10.08,10.08,0,0,0,2.52,3.07,12.47,12.47,0,0,0,3.77,2.15,13,13,0,0,0,4.66.79H434a13.6,13.6,0,0,0,4.68-.79,12,12,0,0,0,3.77-2.13,10.36,10.36,0,0,0,2.5-3.1,7.69,7.69,0,0,0,.88-3.65,7.78,7.78,0,0,0-.89-3.68,10,10,0,0,0-2.49-3.12,11.9,11.9,0,0,0-3.76-2.14,13.46,13.46,0,0,0-4.69-.79,29,29,0,0,1-4.85-.11,24.58,24.58,0,0,1-3.27-.61,12.46,12.46,0,0,1-2.53-.87,19.92,19.92,0,0,1-5.85-5,11,11,0,0,1-2.22-6.81,11.49,11.49,0,0,1,1.3-5.32,13.87,13.87,0,0,1,3.47-4.28,16.93,16.93,0,0,1,5-2.85,18,18,0,0,1,6.07-1h1.33a18.13,18.13,0,0,1,5.91,1,16.53,16.53,0,0,1,4.93,2.66,14.51,14.51,0,0,1,3.49,4,11.47,11.47,0,0,1,1.52,5.1,1.25,1.25,0,0,1-1.24,1.31h-1.53a1.25,1.25,0,0,1-1.24-1.16,7.9,7.9,0,0,0-1.07-3.49,10.64,10.64,0,0,0-2.53-3,12,12,0,0,0-3.7-2,13.63,13.63,0,0,0-4.51-.73h-1.32a13.35,13.35,0,0,0-4.67.79,12.58,12.58,0,0,0-3.8,2.14,10.14,10.14,0,0,0-2.52,3.12,7.81,7.81,0,0,0-.89,3.68,7.66,7.66,0,0,0,.88,3.65,10.39,10.39,0,0,0,2.53,3.09,12.38,12.38,0,0,0,3.78,2.14,13.09,13.09,0,0,0,4.65.8h2.13l1.93,0a13.68,13.68,0,0,1,1.88.19,18.08,18.08,0,0,1,5,1.57,15.14,15.14,0,0,1,4.05,2.9,13.68,13.68,0,0,1,2.71,4,12,12,0,0,1-.26,10.13,13.17,13.17,0,0,1-3.44,4.25,16.62,16.62,0,0,1-5,2.81A17.84,17.84,0,0,1,434,190Z"/><path class="cls-2" d="M225.81,76.1c-22.81,0-42.34-10-50.19-24V65.53c0,18.73,22.51,34,50.19,34S276,84.26,276,65.53V52.12C268.14,66.14,248.61,76.1,225.81,76.1Z"/><path class="cls-2" d="M225.81,72.39c27.67,0,50.19-15.23,50.19-34s-22.52-34-50.19-34-50.19,15.24-50.19,34S198.13,72.39,225.81,72.39ZM204.66,26.92h6V23.23a1.85,1.85,0,1,1,3.7,0v3.69h22.87V23.23a1.85,1.85,0,1,1,3.7,0v3.69h6a1.85,1.85,0,1,1,0,3.7h-6V44h6a1.85,1.85,0,1,1,0,3.7h-6V52a1.85,1.85,0,0,1-3.7,0V47.67H214.37V52a1.85,1.85,0,1,1-3.7,0V47.67h-6a1.85,1.85,0,1,1,0-3.7h6V30.62h-6a1.85,1.85,0,1,1,0-3.7Z"/><rect class="cls-2" x="214.37" y="30.62" width="22.87" height="13.35"/><path class="cls-1" d="M225.81.76c-29.72,0-53.89,16.9-53.89,37.67v27.1c0,20.77,24.17,37.67,53.89,37.67S279.7,86.3,279.7,65.53V38.43C279.7,17.66,255.52.76,225.81.76Zm0,3.7c27.67,0,50.19,15.24,50.19,34s-22.52,34-50.19,34-50.19-15.23-50.19-34S198.13,4.46,225.81,4.46ZM276,65.53c0,18.73-22.52,34-50.19,34s-50.19-15.23-50.19-34V52.12c7.85,14,27.38,24,50.19,24s42.33-10,50.19-24Z"/><path class="cls-1" d="M247,44h-6V30.62h6a1.85,1.85,0,1,0,0-3.7h-6V23.23a1.85,1.85,0,1,0-3.7,0v3.69H214.37V23.23a1.85,1.85,0,1,0-3.7,0v3.69h-6a1.85,1.85,0,1,0,0,3.7h6V44h-6a1.85,1.85,0,1,0,0,3.7h6V52a1.85,1.85,0,1,0,3.7,0V47.67h22.87V52a1.85,1.85,0,0,0,3.7,0V47.67h6a1.85,1.85,0,1,0,0-3.7Zm-9.71,0H214.37V30.62h22.87Z"/></svg>
