<svg id="Capa_1" data-name="Capa 1" xmlns="http://www.w3.org/2000/svg" viewBox="0 0 469.73 39.57"><defs><style>.cls-1{isolation:isolate;}.cls-2{fill:#3f3f3f;}</style></defs><title>logo</title><g class="cls-1"><path class="cls-2" d="M34.85,1.62V37.81h-1V20.19H7.31V37.81l-1,.15V1.62h1V19.23H33.88V1.62Z"/><path class="cls-2" d="M6.35,39.14A1.19,1.19,0,0,1,5.17,38V1.62A1.18,1.18,0,0,1,6.35.44h1A1.17,1.17,0,0,1,8.49,1.62V18.05H32.71V1.62A1.17,1.17,0,0,1,33.88.44h1A1.18,1.18,0,0,1,36,1.62V37.81A1.18,1.18,0,0,1,34.85,39h-1a1.17,1.17,0,0,1-1.17-1.18V21.37H8.49V37.81A1.17,1.17,0,0,1,7.5,39l-1,.15Z"/><path class="cls-2" d="M40.87,2.58V19.23H56.81v1H40.87V36.84H62.68v1H39.91V1.62H62.68v1Z"/><path class="cls-2" d="M62.68,39H39.91a1.18,1.18,0,0,1-1.18-1.18V1.62A1.18,1.18,0,0,1,39.91.44H62.68a1.17,1.17,0,0,1,1.18,1.18v1a1.18,1.18,0,0,1-1.18,1.18H42.05V18.05H56.81A1.18,1.18,0,0,1,58,19.23v1a1.18,1.18,0,0,1-1.18,1.18H42.05V35.66H62.68a1.18,1.18,0,0,1,1.18,1.18v1A1.18,1.18,0,0,1,62.68,39Z"/><path class="cls-2" d="M90.67,36.84v1H67.74V1.62h1V36.84Z"/><path class="cls-2" d="M90.67,39H67.74a1.18,1.18,0,0,1-1.18-1.18V1.62A1.18,1.18,0,0,1,67.74.44h1a1.17,1.17,0,0,1,1.18,1.18v34H90.67a1.18,1.18,0,0,1,1.18,1.18v1A1.18,1.18,0,0,1,90.67,39Z"/><path class="cls-2" d="M95.73,37.81V1.62h14.58a9,9,0,0,1,3.62.73,9.24,9.24,0,0,1,2.93,2,9.79,9.79,0,0,1,2,3,9.34,9.34,0,0,1,0,7.24,9.31,9.31,0,0,1-4.91,4.91,9,9,0,0,1-3.62.73H96.69V37.81Zm1-18.58h13.62a7.85,7.85,0,0,0,3.21-.66,8.43,8.43,0,0,0,2.61-1.79,8.87,8.87,0,0,0,1.77-2.64,7.81,7.81,0,0,0,.66-3.21,8,8,0,0,0-.66-3.24A8.84,8.84,0,0,0,116.13,5a8.43,8.43,0,0,0-2.61-1.79,7.85,7.85,0,0,0-3.21-.66H96.69Z"/><path class="cls-2" d="M96.69,39h-1a1.18,1.18,0,0,1-1.18-1.18V1.62A1.18,1.18,0,0,1,95.73.44h14.58a10.23,10.23,0,0,1,4.08.83,10.38,10.38,0,0,1,3.31,2.25,11,11,0,0,1,2.22,3.32,10.49,10.49,0,0,1,0,8.18,10.83,10.83,0,0,1-2.22,3.3,10.41,10.41,0,0,1-3.31,2.22,10.19,10.19,0,0,1-4.08.83H97.87V37.81A1.18,1.18,0,0,1,96.69,39Zm1.18-20.94h12.44a6.67,6.67,0,0,0,2.73-.56A6.89,6.89,0,0,0,115.28,16a7.64,7.64,0,0,0,1.54-2.28,7,7,0,0,0,0-5.51,7.58,7.58,0,0,0-1.53-2.3A6.89,6.89,0,0,0,113,4.32a6.7,6.7,0,0,0-2.73-.56H97.87Z"/><path class="cls-2" d="M141.38,19.38a8.65,8.65,0,0,1,2.94,1.14,9.75,9.75,0,0,1,2.38,2.05,9.14,9.14,0,0,1,2.12,6,9,9,0,0,1-.73,3.62,9.4,9.4,0,0,1-2,2.94,9.21,9.21,0,0,1-2.93,2,9,9,0,0,1-3.62.74H124.63V1.62h13a9,9,0,0,1,3.62.73,9.13,9.13,0,0,1,2.93,2,9.61,9.61,0,0,1,2,3,9,9,0,0,1,.73,3.62A9,9,0,0,1,145.36,16,9.19,9.19,0,0,1,141.38,19.38Zm-15.79-.15h12a7.81,7.81,0,0,0,3.21-.66,8.2,8.2,0,0,0,2.61-1.79,8.87,8.87,0,0,0,1.77-2.64,7.81,7.81,0,0,0,.66-3.21,8,8,0,0,0-.66-3.24A8.84,8.84,0,0,0,143.46,5a8.2,8.2,0,0,0-2.61-1.79,7.81,7.81,0,0,0-3.21-.66h-12Zm17.21,17a8.2,8.2,0,0,0,2.63-1.8,9.18,9.18,0,0,0,1.78-2.63,8.06,8.06,0,0,0,.65-3.22,8.26,8.26,0,0,0-.65-3.24,9,9,0,0,0-1.78-2.65,8.2,8.2,0,0,0-2.63-1.8,8,8,0,0,0-3.24-.66h-14V36.84h14A8.19,8.19,0,0,0,142.8,36.19Z"/><path class="cls-2" d="M139.56,39H124.63a1.18,1.18,0,0,1-1.18-1.18V1.62A1.18,1.18,0,0,1,124.63.44h13a10.28,10.28,0,0,1,4.09.83A10.6,10.6,0,0,1,145,3.52a11.27,11.27,0,0,1,2.21,3.32,10.28,10.28,0,0,1,.83,4.09,10.16,10.16,0,0,1-1.74,5.77,10.63,10.63,0,0,1-2.19,2.38c.27.13.53.28.79.43a10.66,10.66,0,0,1,2.66,2.3,10.19,10.19,0,0,1,1.77,3.09,10.43,10.43,0,0,1,.63,3.64,10.24,10.24,0,0,1-.83,4.09,10.48,10.48,0,0,1-2.22,3.3,10.68,10.68,0,0,1-3.3,2.23A10.28,10.28,0,0,1,139.56,39Zm-12.79-3.33h12.79a7,7,0,0,0,2.77-.56,6.87,6.87,0,0,0,2.26-1.54,7.61,7.61,0,0,0,1.53-2.28,6.75,6.75,0,0,0,.56-2.74,7,7,0,0,0-.56-2.77,7.77,7.77,0,0,0-1.53-2.3,7.19,7.19,0,0,0-2.26-1.54,7,7,0,0,0-2.77-.56H126.77Zm0-17.61h10.87a6.67,6.67,0,0,0,2.73-.56A7,7,0,0,0,142.62,16a7.8,7.8,0,0,0,1.53-2.28,6.78,6.78,0,0,0,.56-2.74,7,7,0,0,0-.56-2.77,7.77,7.77,0,0,0-1.53-2.3,7,7,0,0,0-2.25-1.54,6.7,6.7,0,0,0-2.73-.56H126.77Z"/><path class="cls-2" d="M181.72,1.62V23.89a13.48,13.48,0,0,1-1.09,5.41,13.94,13.94,0,0,1-3,4.43,14.19,14.19,0,0,1-4.43,3,14,14,0,0,1-10.83,0A14,14,0,0,1,155,29.3a13.65,13.65,0,0,1-1.09-5.41V1.62h1V23.89a12.49,12.49,0,0,0,1,5,13,13,0,0,0,6.91,6.91,13.06,13.06,0,0,0,10.07,0A13,13,0,0,0,177,33.05a13.21,13.21,0,0,0,2.79-4.13,12.66,12.66,0,0,0,1-5h0V1.62Z"/><path class="cls-2" d="M167.8,39a14.75,14.75,0,0,1-5.88-1.19,15.08,15.08,0,0,1-8-8,14.75,14.75,0,0,1-1.19-5.88V1.62A1.18,1.18,0,0,1,153.88.44h1A1.18,1.18,0,0,1,156,1.62V23.89a11.61,11.61,0,0,0,.91,4.57,11.79,11.79,0,0,0,21.72,0,11.25,11.25,0,0,0,.91-4.26,1.06,1.06,0,0,1,0-.31V1.62A1.18,1.18,0,0,1,180.71.44h1a1.18,1.18,0,0,1,1.18,1.18V23.89a14.74,14.74,0,0,1-1.18,5.88,15.45,15.45,0,0,1-3.24,4.8,15.21,15.21,0,0,1-4.79,3.23A14.76,14.76,0,0,1,167.8,39Z"/><path class="cls-2" d="M213,2.58H200.34V37.81h-1V2.58H186.78v-1H213Z"/><path class="cls-2" d="M200.34,39h-1a1.18,1.18,0,0,1-1.18-1.18V3.76H186.78a1.18,1.18,0,0,1-1.18-1.18v-1A1.18,1.18,0,0,1,186.78.44H213a1.18,1.18,0,0,1,1.18,1.18v1A1.18,1.18,0,0,1,213,3.76H201.52V37.81A1.18,1.18,0,0,1,200.34,39Z"/><path class="cls-2" d="M244.27,2.58H231.62V37.81h-1V2.58h-12.6v-1h26.21Z"/><path class="cls-2" d="M231.62,39h-1a1.18,1.18,0,0,1-1.18-1.18V3.76H218.06a1.18,1.18,0,0,1-1.18-1.18v-1A1.18,1.18,0,0,1,218.06.44h26.21a1.17,1.17,0,0,1,1.18,1.18v1a1.18,1.18,0,0,1-1.18,1.18H232.8V37.81A1.18,1.18,0,0,1,231.62,39Z"/><path class="cls-2" d="M314.48,1.62V37.81h-1l-27-34.47V37.81h-1V1.62h1l27,34.51V1.62Z"/><path class="cls-2" d="M314.48,39h-1a1.16,1.16,0,0,1-.92-.46L287.67,6.76V37.81A1.18,1.18,0,0,1,286.49,39h-1a1.18,1.18,0,0,1-1.18-1.18V1.62A1.17,1.17,0,0,1,285.53.44h1a1.18,1.18,0,0,1,.93.45l24.86,31.82V1.62A1.18,1.18,0,0,1,313.46.44h1a1.18,1.18,0,0,1,1.18,1.18V37.81A1.18,1.18,0,0,1,314.48,39Z"/><path class="cls-2" d="M336.16,19.38a12.34,12.34,0,0,1,3.56,1.12,10.3,10.3,0,0,1,2.83,2,9.2,9.2,0,0,1,1.86,2.76,8,8,0,0,1-.17,6.88,9.22,9.22,0,0,1-2.38,2.94,12,12,0,0,1-3.53,2,12.66,12.66,0,0,1-4.35.74h-3.33a12.44,12.44,0,0,1-4.29-.74,11.91,11.91,0,0,1-3.54-2,9.42,9.42,0,0,1-2.4-2.94,7.68,7.68,0,0,1-.88-3.62v-.2h1.16v.2a6.87,6.87,0,0,0,.78,3.22,8.83,8.83,0,0,0,2.15,2.63,10.53,10.53,0,0,0,3.16,1.8,11.29,11.29,0,0,0,3.86.65H334a11.55,11.55,0,0,0,3.89-.65,10.18,10.18,0,0,0,3.16-1.8,8.88,8.88,0,0,0,2.12-2.63,6.87,6.87,0,0,0,.78-3.22,7,7,0,0,0-.78-3.24A8.71,8.71,0,0,0,341,22.65a10.18,10.18,0,0,0-3.16-1.8,11.31,11.31,0,0,0-3.89-.66,22.22,22.22,0,0,1-3.56-.07,16.79,16.79,0,0,1-2.35-.43,8.73,8.73,0,0,1-1.76-.61,14.29,14.29,0,0,1-4.12-3.54,7.46,7.46,0,0,1-1.49-4.61,7.84,7.84,0,0,1,.88-3.62,9.5,9.5,0,0,1,2.41-3,11.58,11.58,0,0,1,3.53-2,12.47,12.47,0,0,1,4.29-.73h1A12.57,12.57,0,0,1,337,2.3a11.61,11.61,0,0,1,3.46,1.87A10,10,0,0,1,342.9,7a7.72,7.72,0,0,1,1,3.44h-1.16a6.88,6.88,0,0,0-.94-3.06,8.87,8.87,0,0,0-2.15-2.5,9.86,9.86,0,0,0-3.09-1.67,11.33,11.33,0,0,0-3.74-.61h-1a11.15,11.15,0,0,0-3.87.66A10.63,10.63,0,0,0,324.8,5a8.55,8.55,0,0,0-2.15,2.66,7,7,0,0,0-.78,3.24,6.8,6.8,0,0,0,.78,3.21,8.6,8.6,0,0,0,2.15,2.64A10.34,10.34,0,0,0,328,18.57a11.1,11.1,0,0,0,3.86.66h1.62l1.44,0A7.88,7.88,0,0,1,336.16,19.38Z"/><path class="cls-2" d="M334,39h-3.33a13.58,13.58,0,0,1-4.7-.81A13.2,13.2,0,0,1,322.07,36a10.57,10.57,0,0,1-2.7-3.3,9,9,0,0,1-1-4.17,1.36,1.36,0,0,1,1.18-1.38h1.16a1.18,1.18,0,0,1,1.18,1.18,5.8,5.8,0,0,0,.65,2.87,7.55,7.55,0,0,0,1.85,2.27,9.56,9.56,0,0,0,2.81,1.6,10,10,0,0,0,3.46.58H334a10.23,10.23,0,0,0,3.49-.59,8.71,8.71,0,0,0,2.79-1.58,7.4,7.4,0,0,0,1.84-2.28,5.61,5.61,0,0,0,.65-2.67,5.78,5.78,0,0,0-.65-2.7,7.62,7.62,0,0,0-1.84-2.29A9,9,0,0,0,337.47,22a10.27,10.27,0,0,0-3.49-.59,23.13,23.13,0,0,1-3.7-.08,17.28,17.28,0,0,1-2.53-.47,8.73,8.73,0,0,1-2-.68,15.49,15.49,0,0,1-4.53-3.89,8.63,8.63,0,0,1-1.73-5.32,8.89,8.89,0,0,1,1-4.16,10.63,10.63,0,0,1,2.69-3.33,13,13,0,0,1,3.88-2.2,13.89,13.89,0,0,1,4.7-.8h1a13.84,13.84,0,0,1,4.58.75,12.6,12.6,0,0,1,3.81,2.06,11,11,0,0,1,2.71,3.14,8.94,8.94,0,0,1,1.19,4,1.18,1.18,0,0,1-1.18,1.24h-1.16a1.17,1.17,0,0,1-1.18-1.1A5.62,5.62,0,0,0,340.81,8a7.94,7.94,0,0,0-1.87-2.18,9.26,9.26,0,0,0-2.73-1.47,10.33,10.33,0,0,0-3.36-.54h-1a10,10,0,0,0-3.46.59,9.47,9.47,0,0,0-2.82,1.59,7.48,7.48,0,0,0-1.85,2.29,5.72,5.72,0,0,0-.65,2.7,5.62,5.62,0,0,0,.64,2.66,7.62,7.62,0,0,0,1.86,2.28,9.36,9.36,0,0,0,2.8,1.59,10.06,10.06,0,0,0,3.46.59h1.62l1.48,0a9.78,9.78,0,0,1,1.46.14,13.76,13.76,0,0,1,3.87,1.22,11.41,11.41,0,0,1,3.15,2.26,10.39,10.39,0,0,1,2.11,3.1,9.39,9.39,0,0,1,.78,3.74,9.07,9.07,0,0,1-1,4.16A10.28,10.28,0,0,1,342.61,36a13,13,0,0,1-3.88,2.17A13.74,13.74,0,0,1,334,39Z"/><path class="cls-2" d="M352.38,36.79a1,1,0,0,1-.3.71,1,1,0,0,1-.71.31,1,1,0,0,1-.71-.31,1,1,0,0,1-.3-.71.9.9,0,0,1,.3-.68,1.06,1.06,0,0,1,.71-.28,1,1,0,0,1,.71.28A.9.9,0,0,1,352.38,36.79Z"/><path class="cls-2" d="M351.37,39a2.17,2.17,0,0,1-1.54-.65,2.14,2.14,0,0,1-.65-1.55,2.06,2.06,0,0,1,.68-1.55,2.25,2.25,0,0,1,3,0,2.08,2.08,0,0,1,.68,1.55,2.22,2.22,0,0,1-2.19,2.2Z"/><path class="cls-2" d="M376.12,37.81a17.75,17.75,0,0,1-7-1.42,18.5,18.5,0,0,1-5.74-3.87,18.26,18.26,0,0,1-3.87-5.75,17.49,17.49,0,0,1-1.42-7,17.67,17.67,0,0,1,1.42-7.06,18.12,18.12,0,0,1,3.87-5.77A18.35,18.35,0,0,1,369.08,3a18.28,18.28,0,0,1,14.08,0,18.35,18.35,0,0,1,5.74,3.88,18,18,0,0,1,3.87,5.77,17.67,17.67,0,0,1,1.42,7.06,17.49,17.49,0,0,1-1.42,7,18.09,18.09,0,0,1-3.87,5.75,18.5,18.5,0,0,1-5.74,3.87A17.71,17.71,0,0,1,376.12,37.81Zm0-35.23a16.67,16.67,0,0,0-6.65,1.34A17.33,17.33,0,0,0,364,7.59a17.06,17.06,0,0,0-3.66,5.47A16.71,16.71,0,0,0,359,19.74a16.5,16.5,0,0,0,1.34,6.65A17.15,17.15,0,0,0,364,31.83a17.33,17.33,0,0,0,5.45,3.67,17.2,17.2,0,0,0,13.31,0,17.2,17.2,0,0,0,9.11-9.11,16.67,16.67,0,0,0,1.34-6.65,16.89,16.89,0,0,0-1.34-6.68,17.12,17.12,0,0,0-9.11-9.14A16.75,16.75,0,0,0,376.12,2.58Z"/><path class="cls-2" d="M376.12,39a18.76,18.76,0,0,1-7.5-1.52,19.3,19.3,0,0,1-10.23-10.23,18.73,18.73,0,0,1-1.52-7.5,19.36,19.36,0,0,1,5.64-13.67,19.24,19.24,0,0,1,31.35,6.14,19.11,19.11,0,0,1,1.51,7.53,18.89,18.89,0,0,1-1.51,7.5,19.65,19.65,0,0,1-4.12,6.11,19.42,19.42,0,0,1-6.11,4.12A18.81,18.81,0,0,1,376.12,39Zm0-35.23A15.57,15.57,0,0,0,369.94,5a15.92,15.92,0,0,0-8.5,8.52,15.81,15.81,0,0,0-1.25,6.22,15.41,15.41,0,0,0,1.25,6.18,15.93,15.93,0,0,0,20.87,8.5A16.41,16.41,0,0,0,387.39,31a16.17,16.17,0,0,0,3.41-5.07,15.53,15.53,0,0,0,1.25-6.19,15.71,15.71,0,0,0-1.25-6.22A15.95,15.95,0,0,0,382.31,5,15.66,15.66,0,0,0,376.12,3.76Z"/><path class="cls-2" d="M402.69,20.19l19.79,17.62h-1.36L401.33,20.19h-1.12V37.81h-1V1.62h14a9,9,0,0,1,3.62.73,9.13,9.13,0,0,1,2.93,2,9.61,9.61,0,0,1,2,3,9,9,0,0,1,.73,3.62,9,9,0,0,1-.73,3.62,9.31,9.31,0,0,1-4.91,4.91,9,9,0,0,1-3.62.73Zm-2.48-1h13a7.89,7.89,0,0,0,3.22-.66,8.47,8.47,0,0,0,2.62-1.79,8.26,8.26,0,0,0,1.8-2.64,7.81,7.81,0,0,0,.66-3.21,8,8,0,0,0-.66-3.24A8.23,8.23,0,0,0,419.06,5a8.47,8.47,0,0,0-2.62-1.79,7.89,7.89,0,0,0-3.22-.66h-13Z"/><path class="cls-2" d="M422.48,39h-1.36a1.21,1.21,0,0,1-.79-.3L401.39,21.83v16A1.18,1.18,0,0,1,400.21,39h-1a1.18,1.18,0,0,1-1.18-1.18V1.62A1.18,1.18,0,0,1,399.25.44h14a10.28,10.28,0,0,1,4.09.83,10.39,10.39,0,0,1,3.31,2.25,11,11,0,0,1,2.21,3.32,10.49,10.49,0,0,1,0,8.18,10.36,10.36,0,0,1-5.52,5.52,10.28,10.28,0,0,1-4.09.83H405.8l17.47,15.55a1.18,1.18,0,0,1-.79,2.07ZM401.39,18.05h11.83a6.75,6.75,0,0,0,2.74-.56,7.42,7.42,0,0,0,3.82-3.82,6.75,6.75,0,0,0,.56-2.74,7,7,0,0,0-.56-2.77A7.36,7.36,0,0,0,416,4.32a6.75,6.75,0,0,0-2.74-.56H401.39Z"/><path class="cls-2" d="M463.38,23a17.27,17.27,0,0,1-2.18,5.89,18.14,18.14,0,0,1-4,4.68,18.49,18.49,0,0,1-5.32,3.12,17.35,17.35,0,0,1-6.3,1.14,17.75,17.75,0,0,1-7-1.42,18.5,18.5,0,0,1-5.74-3.87A18.09,18.09,0,0,1,429,26.77a17.49,17.49,0,0,1-1.42-7A17.67,17.67,0,0,1,429,12.68a18,18,0,0,1,3.87-5.77A18.35,18.35,0,0,1,438.57,3a17.74,17.74,0,0,1,7-1.41,17.35,17.35,0,0,1,6.3,1.14,18.07,18.07,0,0,1,5.32,3.13,19,19,0,0,1,4,4.71,17.38,17.38,0,0,1,2.18,5.85h-1a16.37,16.37,0,0,0-2.1-5.49,17.08,17.08,0,0,0-3.77-4.41,17.56,17.56,0,0,0-5-2.91,16.49,16.49,0,0,0-5.9-1.06A16.67,16.67,0,0,0,439,3.92a17.33,17.33,0,0,0-5.45,3.67,17.06,17.06,0,0,0-3.66,5.47,16.72,16.72,0,0,0-1.35,6.68,16.51,16.51,0,0,0,1.35,6.65,17.15,17.15,0,0,0,3.66,5.44A17.33,17.33,0,0,0,439,35.5a16.5,16.5,0,0,0,6.65,1.34,17,17,0,0,0,10.58-3.64,17.24,17.24,0,0,0,3.74-4.1,16.81,16.81,0,0,0,2.28-5.16H446.62V23Z"/><path class="cls-2" d="M445.61,39a18.76,18.76,0,0,1-7.5-1.52,19.3,19.3,0,0,1-10.23-10.23,18.73,18.73,0,0,1-1.52-7.5A19.36,19.36,0,0,1,432,6.07a19.22,19.22,0,0,1,20.34-4.42A19.6,19.6,0,0,1,462.21,10a18.44,18.44,0,0,1,2.33,6.25,1.19,1.19,0,0,1-1.16,1.39h-1a1.2,1.2,0,0,1-1.16-1,15.34,15.34,0,0,0-1.95-5.11,16.36,16.36,0,0,0-3.51-4.1,16.58,16.58,0,0,0-4.7-2.71A15.91,15.91,0,0,0,439.43,5a15.92,15.92,0,0,0-8.5,8.52,15.81,15.81,0,0,0-1.25,6.22,15.41,15.41,0,0,0,1.25,6.18,15.95,15.95,0,0,0,20,8.85,15.74,15.74,0,0,0,4.55-2.5,16.21,16.21,0,0,0,5.16-7.15h-14a1.18,1.18,0,0,1-1.18-1.18V23a1.18,1.18,0,0,1,1.18-1.19h16.76a1.19,1.19,0,0,1,1.16,1.39,18.46,18.46,0,0,1-2.33,6.3,19.86,19.86,0,0,1-4.22,5,20.09,20.09,0,0,1-5.65,3.31A18.61,18.61,0,0,1,445.61,39Z"/></g><path class="cls-2" d="M262.4,1c-10.85,0-19.67,6.29-19.67,14v9.41c0,7.74,8.82,14,19.67,14s19.66-6.3,19.66-14V15C282.06,7.26,273.24,1,262.4,1Zm0,3.2c9.08,0,16.46,4.86,16.46,10.83s-7.38,10.84-16.46,10.84S245.93,21,245.93,15,253.32,4.17,262.4,4.17Zm16.46,20.24c0,6-7.38,10.84-16.46,10.84s-16.47-4.86-16.47-10.84V22.65c3.51,3.84,9.58,6.39,16.47,6.39s13-2.55,16.46-6.39Z"/><path class="cls-2" d="M252.83,16.84a1.6,1.6,0,1,0,0,3.19h1.95v1.2a1.6,1.6,0,1,0,3.2,0V20h8.83v1.2a1.6,1.6,0,1,0,3.2,0V20H272a1.6,1.6,0,1,0,0-3.19H270V12.32H272a1.6,1.6,0,1,0,0-3.2H270V8.21a1.6,1.6,0,1,0-3.2,0v.91H258V8.21a1.6,1.6,0,0,0-3.2,0v.91h-1.95a1.6,1.6,0,0,0,0,3.2h1.95v4.52ZM258,12.32h8.83v4.52H258Z"/></svg>